<?xml version="1.0" encoding="UTF-8" standalone="no"?>
<!-- Created with Inkscape (http://www.inkscape.org/) -->

<svg
   xmlns:dc="http://purl.org/dc/elements/1.1/"
   xmlns:cc="http://creativecommons.org/ns#"
   xmlns:rdf="http://www.w3.org/1999/02/22-rdf-syntax-ns#"
   xmlns:svg="http://www.w3.org/2000/svg"
   xmlns="http://www.w3.org/2000/svg"
   xmlns:sodipodi="http://sodipodi.sourceforge.net/DTD/sodipodi-0.dtd"
   xmlns:inkscape="http://www.inkscape.org/namespaces/inkscape"
   width="900mm"
   height="300mm"
   viewBox="0 0 900 300"
   version="1.1"
   id="svg8"
   inkscape:version="0.92.4 (5da689c313, 2019-01-14)"
   sodipodi:docname="11.svg">
  <defs
     id="defs2" />
  <sodipodi:namedview
     id="base"
     pagecolor="#ffffff"
     bordercolor="#666666"
     borderopacity="1.0"
     inkscape:pageopacity="0.0"
     inkscape:pageshadow="2"
     inkscape:zoom="0.175"
     inkscape:cx="2180.7916"
     inkscape:cy="617.46153"
     inkscape:document-units="mm"
     inkscape:current-layer="layer1"
     showgrid="false"
     fit-margin-top="0"
     fit-margin-left="0"
     fit-margin-right="0"
     fit-margin-bottom="0"
     inkscape:window-width="1920"
     inkscape:window-height="1057"
     inkscape:window-x="-8"
     inkscape:window-y="-8"
     inkscape:window-maximized="1"
     inkscape:snap-global="false" />
  <metadata
     id="metadata5">
    <rdf:RDF>
      <cc:Work
         rdf:about="">
        <dc:format>image/svg+xml</dc:format>
        <dc:type
           rdf:resource="http://purl.org/dc/dcmitype/StillImage" />
        <dc:title></dc:title>
      </cc:Work>
    </rdf:RDF>
  </metadata>
  <g
     inkscape:label="Layer 1"
     inkscape:groupmode="layer"
     id="layer1"
     transform="translate(0,3)">
    <rect
       style="opacity:1;fill:#ffffff;fill-opacity:1;fill-rule:nonzero;stroke:none;stroke-width:0.89946795;stroke-linecap:square;stroke-linejoin:miter;stroke-miterlimit:0;stroke-dasharray:0.89946789, 0.89946789000000005;stroke-dashoffset:21.31999969;stroke-opacity:1;paint-order:stroke fill markers"
       id="rect815"
       width="900"
       height="300"
       x="0"
       y="-3" />
    <rect
       y="-3"
       x="0"
       height="300"
       width="900"
       id="rect817"
       style="opacity:1;fill:#000000;fill-opacity:1;fill-rule:nonzero;stroke:none;stroke-width:0.89946795;stroke-linecap:square;stroke-linejoin:miter;stroke-miterlimit:0;stroke-dasharray:0.89946789, 0.89946789;stroke-dashoffset:21.31999969;stroke-opacity:1;paint-order:stroke fill markers"
       rx="50"
       ry="50" />
    <rect
       ry="25"
       rx="25"
       style="opacity:1;fill:#ffffff;fill-opacity:1;fill-rule:nonzero;stroke:none;stroke-width:0.79796398;stroke-linecap:square;stroke-linejoin:miter;stroke-miterlimit:0;stroke-dasharray:0.79796391, 0.79796391000000000;stroke-dashoffset:21.31999969;stroke-opacity:1;paint-order:stroke fill markers"
       id="rect819"
       width="850"
       height="250"
       x="25"
       y="21.999939" />
    <g
       aria-label="( TEXT )"
       style="font-style:normal;font-variant:normal;font-weight:bold;font-stretch:normal;font-size:157.30337524px;line-height:0;font-family:'DIN 1451 Engschrift';-inkscape-font-specification:'DIN 1451 Engschrift Bold';letter-spacing:-0.01058333px;word-spacing:0px;fill:#a02c2c;fill-opacity:1;stroke:none;stroke-width:0.81928837"
       id="text830">
      <path
         d="m 291.46068,146.84235 q 0,17.02702 2.51685,36.57657 2.51685,19.54955 6.76405,33.58108 h -5.97753 Q 284.69663,201.86486 279.34832,183.89189 274,165.91891 274,147.47297 q 0,-19.23423 4.7191,-36.73423 4.87641,-17.657656 14.78652,-33.738736 h 5.82023 q -3.93259,16.08108 -5.97753,34.211706 -1.88764,17.97298 -1.88764,35.63064 z"
         style="letter-spacing:-0.01058333px;fill:#000000;stroke:none;stroke-width:0.82021046"
         id="path850"
         inkscape:connector-curvature="0" />
      <path
         d="M 355.06119,199.5 V 108.51049 H 337.43 V 94.500004 h 50.53224 V 108.51049 H 370.01621 V 199.5 Z"
         style="letter-spacing:-0.01058333px;fill:#000000;stroke:none;stroke-width:0.81990254"
         id="path852"
         inkscape:connector-curvature="0" />
      <path
         d="M 443.29505,184.38756 V 199.5 H 398.43 V 94.500004 h 44.86505 V 108.35307 H 413.2276 v 31.012 h 26.44678 v 14.16792 H 413.2276 v 30.85457 z"
         style="letter-spacing:-0.01058333px;fill:#000000;stroke:none;stroke-width:0.81990254"
         id="path854"
         inkscape:connector-curvature="0" />
      <path
         d="M 492.56473,199.5 479.49875,163.92279 466.27537,199.5 H 450.37582 L 471.94254,144.08771 452.4223,94.500004 h 15.74213 l 11.33432,30.854576 11.33434,-30.854576 h 15.74213 L 486.89756,144.08771 508.46427,199.5 Z"
         style="letter-spacing:-0.01058333px;fill:#000000;stroke:none;stroke-width:0.81990254"
         id="path856"
         inkscape:connector-curvature="0" />
      <path
         d="M 529.66865,199.5 V 108.51049 H 512.03747 V 94.500004 h 50.53224 V 108.51049 H 544.62368 V 199.5 Z"
         style="letter-spacing:-0.01058333px;fill:#000000;stroke:none;stroke-width:0.81990254"
         id="path858"
         inkscape:connector-curvature="0" />
      <path
         id="path872"
         style="letter-spacing:-0.01058333px;fill:#000000;stroke:none;stroke-width:0.82021046"
         d="m 608.5389,146.84235 q 0,17.02702 -2.51686,36.57657 Q 603.50519,202.96847 599.258,217 h 5.97752 q 10.06742,-15.13514 15.41574,-33.10811 5.34831,-17.97298 5.34831,-36.41892 0,-19.23423 -4.7191,-36.73423 -4.87641,-17.657656 -14.78652,-33.738736 h -5.82022 q 3.93258,16.08108 5.97753,34.211706 1.88764,17.97298 1.88764,35.63064 z"
         inkscape:connector-curvature="0" />
    </g>
  </g>
</svg>
