<?xml version="1.0" encoding="UTF-8" standalone="no"?>
<!-- Created with Inkscape (http://www.inkscape.org/) -->

<svg
   xmlns:dc="http://purl.org/dc/elements/1.1/"
   xmlns:cc="http://creativecommons.org/ns#"
   xmlns:rdf="http://www.w3.org/1999/02/22-rdf-syntax-ns#"
   xmlns:svg="http://www.w3.org/2000/svg"
   xmlns="http://www.w3.org/2000/svg"
   xmlns:sodipodi="http://sodipodi.sourceforge.net/DTD/sodipodi-0.dtd"
   xmlns:inkscape="http://www.inkscape.org/namespaces/inkscape"
   width="675mm"
   height="900mm"
   viewBox="0 0 675 900"
   version="1.1"
   id="svg8"
   inkscape:version="0.92.2 (5c3e80d, 2017-08-06)"
   sodipodi:docname="11.svg">
  <defs
     id="defs2" />
  <sodipodi:namedview
     id="base"
     pagecolor="#ffffff"
     bordercolor="#666666"
     borderopacity="1.0"
     inkscape:pageopacity="0.0"
     inkscape:pageshadow="2"
     inkscape:zoom="0.24748737"
     inkscape:cx="592.25704"
     inkscape:cy="2994.7121"
     inkscape:document-units="mm"
     inkscape:current-layer="text843"
     showgrid="false"
     fit-margin-top="0"
     fit-margin-left="0"
     fit-margin-right="0"
     fit-margin-bottom="0"
     inkscape:window-width="1920"
     inkscape:window-height="1057"
     inkscape:window-x="-8"
     inkscape:window-y="-8"
     inkscape:window-maximized="1" />
  <metadata
     id="metadata5">
    <rdf:RDF>
      <cc:Work
         rdf:about="">
        <dc:format>image/svg+xml</dc:format>
        <dc:type
           rdf:resource="http://purl.org/dc/dcmitype/StillImage" />
        <dc:title></dc:title>
      </cc:Work>
    </rdf:RDF>
  </metadata>
  <g
     inkscape:label="Layer 1"
     inkscape:groupmode="layer"
     id="layer1"
     transform="translate(0,603)">
    <rect
       style="opacity:1;fill:#00783a;fill-opacity:1;fill-rule:nonzero;stroke:none;stroke-width:0.42061338;stroke-linecap:butt;stroke-linejoin:miter;stroke-miterlimit:4;stroke-dasharray:none;stroke-opacity:1;paint-order:stroke fill markers"
       id="rect815"
       width="675"
       height="900"
       x="-1.1368684e-013"
       y="-603" />
    <rect
       y="-603"
       x="-1.1368684e-013"
       height="900"
       width="675"
       id="rect817"
       style="opacity:1;fill:#ffffff;fill-opacity:1;fill-rule:nonzero;stroke:none;stroke-width:0.42061338;stroke-linecap:butt;stroke-linejoin:miter;stroke-miterlimit:4;stroke-dasharray:none;stroke-opacity:1;paint-order:stroke fill markers"
       rx="100"
       ry="100" />
    <rect
       y="-573"
       x="29.999939"
       height="840"
       width="615"
       id="rect819"
       style="opacity:1;fill:#00783a;fill-opacity:1;fill-rule:nonzero;stroke:none;stroke-width:0.38787085;stroke-linecap:butt;stroke-linejoin:miter;stroke-miterlimit:4;stroke-dasharray:none;stroke-opacity:1;paint-order:stroke fill markers"
       rx="70"
       ry="70" />
    <rect
       style="opacity:1;fill:#ffffff;fill-opacity:1;fill-rule:nonzero;stroke:none;stroke-width:0.19979109;stroke-linecap:butt;stroke-linejoin:miter;stroke-miterlimit:4;stroke-dasharray:none;stroke-opacity:1;paint-order:stroke fill markers"
       id="rect822"
       width="200"
       height="500"
       x="237.5"
       y="-498"
       rx="100"
       ry="100" />
    <circle
       style="opacity:1;fill:#00783a;fill-opacity:1;fill-rule:nonzero;stroke:none;stroke-width:0.27280417;stroke-linecap:butt;stroke-linejoin:miter;stroke-miterlimit:4;stroke-dasharray:none;stroke-opacity:1;paint-order:stroke fill markers"
       id="path824"
       cx="337.5"
       cy="-98"
       r="60" />
    <circle
       r="60"
       cy="-398"
       cx="337.5"
       id="circle828"
       style="opacity:1;fill:#c8c8c8;fill-opacity:1;fill-rule:nonzero;stroke:none;stroke-width:0.27280417;stroke-linecap:butt;stroke-linejoin:miter;stroke-miterlimit:4;stroke-dasharray:none;stroke-opacity:1;paint-order:stroke fill markers" />
    <circle
       r="60"
       cy="-248"
       cx="337.5"
       id="circle839"
       style="opacity:1;fill:#c8c8c8;fill-opacity:1;fill-rule:nonzero;stroke:none;stroke-width:0.27280417;stroke-linecap:butt;stroke-linejoin:miter;stroke-miterlimit:4;stroke-dasharray:none;stroke-opacity:1;paint-order:stroke fill markers" />
    <g
       aria-label="55"
       style="font-style:normal;font-variant:normal;font-weight:bold;font-stretch:normal;font-size:208.02377319px;line-height:0;font-family:'DIN 1451 Engschrift';-inkscape-font-specification:'DIN 1451 Engschrift Bold';letter-spacing:0px;word-spacing:0px;fill:#000000;fill-opacity:1;stroke:none;stroke-width:1.08345711"
       id="text843"
       transform="translate(-1022.8707,-962.1605)">
      <path
         d="m 1130.7749,1075.6702 q 5.2006,0 10.4012,2.9123 5.4086,2.9123 7.9049,6.8648 2.7043,3.7444 3.5364,8.1129 1.0401,4.1605 1.0401,8.945 v 31.2036 q 0,4.5765 -0.416,7.6969 -0.208,3.1203 -2.2883,8.737 -2.0802,5.6166 -10.1932,10.8172 -7.9049,5.2006 -17.0579,5.2006 -7.0728,0 -13.5215,-3.3284 -6.2408,-3.5364 -9.7772,-8.5289 -3.5364,-4.9926 -4.7845,-9.9852 -1.2482,-5.2006 -1.2482,-10.6092 v -3.5364 h 20.1784 v 3.5364 q 0,2.0802 0,4.1605 0.208,2.0802 2.2882,5.2006 2.0802,3.1203 7.2808,3.1203 5.6167,0 7.4889,-2.9123 1.8722,-3.1204 2.0802,-4.7846 0.2081,-1.8722 0.2081,-3.9524 v -2.2883 -27.0431 q 0,-1.8722 -0.2081,-3.9524 0,-2.0802 -2.2882,-5.2006 -2.0803,-3.1204 -7.0728,-3.1204 -7.2809,0 -9.7771,7.2809 h -17.6821 v -74.0565 h 56.7905 v 18.5141 h -39.1084 v 37.2363 q 7.2808,-6.2407 16.2258,-6.2407 z"
         style="fill:#ffffff;stroke:none;stroke-width:1.08345711"
         id="path858"
         inkscape:connector-curvature="0" />
      <path
         d="m 1207.4883,1075.6702 q 5.2006,0 10.4011,2.9123 5.4087,2.9123 7.905,6.8648 2.7043,3.7444 3.5364,8.1129 1.0401,4.1605 1.0401,8.945 v 31.2036 q 0,4.5765 -0.4161,7.6969 -0.208,3.1203 -2.2882,8.737 -2.0803,5.6166 -10.1932,10.8172 -7.9049,5.2006 -17.0579,5.2006 -7.0729,0 -13.5216,-3.3284 -6.2407,-3.5364 -9.7771,-8.5289 -3.5364,-4.9926 -4.7846,-9.9852 -1.2481,-5.2006 -1.2481,-10.6092 v -3.5364 h 20.1783 v 3.5364 q 0,2.0802 0,4.1605 0.208,2.0802 2.2883,5.2006 2.0802,3.1203 7.2808,3.1203 5.6166,0 7.4889,-2.9123 1.8722,-3.1204 2.0802,-4.7846 0.208,-1.8722 0.208,-3.9524 v -2.2883 -27.0431 q 0,-1.8722 -0.208,-3.9524 0,-2.0802 -2.2883,-5.2006 -2.0802,-3.1204 -7.0728,-3.1204 -7.2808,0 -9.7771,7.2809 h -17.682 v -74.0565 h 56.7905 v 18.5141 h -39.1085 v 37.2363 q 7.2808,-6.2407 16.2259,-6.2407 z"
         style="fill:#ffffff;stroke:none;stroke-width:1.08345711"
         id="path860"
         inkscape:connector-curvature="0" />
    </g>
    <g
       aria-label="km/h"
       style="font-style:normal;font-variant:normal;font-weight:bold;font-stretch:normal;font-size:209.89505005px;line-height:0;font-family:'DIN 1451 Engschrift';-inkscape-font-specification:'DIN 1451 Engschrift Bold';letter-spacing:0px;word-spacing:0px;fill:#000000;fill-opacity:1;stroke:none;stroke-width:1.09320331"
       id="text847"
       transform="translate(-1022.8707,-962.1605)">
      <path
         d="m 1310.3707,1166.1605 v -140 h 20.15 v 83.3283 l 25.1874,-43.2383 h 19.94 l -23.7181,39.6701 28.5457,60.2399 h -22.4588 l -17.4213,-42.6087 -10.0749,14.9026 v 27.7061 z"
         style="fill:#ffffff;stroke:none;stroke-width:1.09320331"
         id="path849"
         inkscape:connector-curvature="0" />
      <path
         d="m 1447.2523,1075.2759 q 3.988,-5.0374 8.8156,-7.5562 4.8276,-2.7286 10.9145,-2.7286 10.2849,0 16.7916,7.3463 6.7167,7.1364 6.7167,17.4213 v 76.4018 h -20.1499 v -70.7346 q 0,-4.8276 -2.5188,-7.7661 -2.3088,-3.1485 -7.3463,-3.1485 -4.1979,0 -7.1364,3.3584 -2.7287,3.1484 -2.7287,7.5562 v 70.7346 h -20.1499 v -70.7346 q 0,-4.6177 -2.7286,-7.7661 -2.7287,-3.1485 -7.3464,-3.1485 -4.1979,0 -7.1364,3.3584 -2.7286,3.1484 -2.7286,7.5562 v 70.7346 h -20.15 v -99.91 h 20.15 v 9.0254 q 6.9265,-10.2848 18.8905,-10.2848 5.6672,0 10.075,2.7286 4.6177,2.5188 7.7661,7.5562 z"
         style="fill:#ffffff;stroke:none;stroke-width:1.09320331"
         id="path851"
         inkscape:connector-curvature="0" />
      <path
         d="m 1508.3707,1166.1605 27.0765,-140 h 13.8531 l -27.0765,140 z"
         style="fill:#ffffff;stroke:none;stroke-width:1.09320331"
         id="path853"
         inkscape:connector-curvature="0" />
      <path
         d="m 1606.0109,1064.9911 q 5.4573,0 10.2849,2.9385 4.8275,2.9386 6.9265,6.9266 2.099,3.7781 2.5187,6.5067 0.6297,2.7286 0.6297,7.1364 v 77.6612 h -20.1499 v -70.1049 q 0,-5.0375 -2.3088,-8.1859 -2.3089,-3.1485 -7.3464,-3.1485 -4.4078,0 -7.3463,3.5682 -2.7286,3.3584 -2.7286,7.7662 v 70.1049 h -20.15 v -140 h 20.15 v 49.7451 q 6.9265,-10.9145 19.5202,-10.9145 z"
         style="fill:#ffffff;stroke:none;stroke-width:1.09320331"
         id="path855"
         inkscape:connector-curvature="0" />
    </g>
  </g>
</svg>
