<?xml version="1.0" encoding="UTF-8" standalone="no"?>
<!-- Created with Inkscape (http://www.inkscape.org/) -->

<svg
   xmlns:dc="http://purl.org/dc/elements/1.1/"
   xmlns:cc="http://creativecommons.org/ns#"
   xmlns:rdf="http://www.w3.org/1999/02/22-rdf-syntax-ns#"
   xmlns:svg="http://www.w3.org/2000/svg"
   xmlns="http://www.w3.org/2000/svg"
   xmlns:sodipodi="http://sodipodi.sourceforge.net/DTD/sodipodi-0.dtd"
   xmlns:inkscape="http://www.inkscape.org/namespaces/inkscape"
   width="900mm"
   height="675mm"
   viewBox="0 0 900 674.99998"
   version="1.1"
   id="svg8"
   inkscape:version="0.92.2 (5c3e80d, 2017-08-06)"
   sodipodi:docname="11.svg">
  <defs
     id="defs2" />
  <sodipodi:namedview
     id="base"
     pagecolor="#ffffff"
     bordercolor="#666666"
     borderopacity="1.0"
     inkscape:pageopacity="0.0"
     inkscape:pageshadow="2"
     inkscape:zoom="0.175"
     inkscape:cx="1110.9564"
     inkscape:cy="835.33471"
     inkscape:document-units="mm"
     inkscape:current-layer="layer1"
     showgrid="false"
     fit-margin-top="0"
     fit-margin-left="0"
     fit-margin-right="0"
     fit-margin-bottom="0"
     inkscape:window-width="1920"
     inkscape:window-height="1057"
     inkscape:window-x="-8"
     inkscape:window-y="-8"
     inkscape:window-maximized="1" />
  <metadata
     id="metadata5">
    <rdf:RDF>
      <cc:Work
         rdf:about="">
        <dc:format>image/svg+xml</dc:format>
        <dc:type
           rdf:resource="http://purl.org/dc/dcmitype/StillImage" />
        <dc:title></dc:title>
      </cc:Work>
    </rdf:RDF>
  </metadata>
  <g
     inkscape:label="Layer 1"
     inkscape:groupmode="layer"
     id="layer1"
     transform="translate(0,378)">
    <rect
       style="opacity:1;fill:#00783a;fill-opacity:1;fill-rule:nonzero;stroke:none;stroke-width:0.31333518;stroke-linecap:butt;stroke-linejoin:miter;stroke-miterlimit:4;stroke-dasharray:none;stroke-opacity:1;paint-order:stroke fill markers"
       id="rect815"
       width="900"
       height="675"
       x="0"
       y="-378" />
    <rect
       y="-378"
       x="0"
       height="675"
       width="900"
       id="rect817"
       style="opacity:1;fill:#ffffff;fill-opacity:1;fill-rule:nonzero;stroke:none;stroke-width:0.31333518;stroke-linecap:butt;stroke-linejoin:miter;stroke-miterlimit:4;stroke-dasharray:none;stroke-opacity:1;paint-order:stroke fill markers"
       rx="100"
       ry="100" />
    <rect
       y="-348"
       x="30"
       height="615"
       width="840"
       id="rect819"
       style="opacity:1;fill:#00783a;fill-opacity:1;fill-rule:nonzero;stroke:none;stroke-width:0.28894368;stroke-linecap:butt;stroke-linejoin:miter;stroke-miterlimit:4;stroke-dasharray:none;stroke-opacity:1;paint-order:stroke fill markers"
       rx="70"
       ry="70" />
    <path
       style="opacity:1;fill:#ffffff;fill-opacity:1;fill-rule:nonzero;stroke:none;stroke-width:0.25877997;stroke-linecap:butt;stroke-linejoin:miter;stroke-miterlimit:4;stroke-dasharray:none;stroke-opacity:1;paint-order:stroke fill markers"
       d="m 327.5736,39.5 -45.96194,45.96194 v 42.42641 h 42.4264 L 370,81.92641 V 39.5 Z"
       id="rect821"
       inkscape:connector-curvature="0"
       sodipodi:nodetypes="ccccccc" />
    <path
       sodipodi:nodetypes="ccccccc"
       inkscape:connector-curvature="0"
       id="path4516"
       d="M 575.96194,-208.88835 530,-162.92641 V -120.5 h 42.4264 l 45.96194,-45.96194 v -42.42641 z"
       style="opacity:1;fill:#ffffff;fill-opacity:1;fill-rule:nonzero;stroke:none;stroke-width:0.25877997;stroke-linecap:butt;stroke-linejoin:miter;stroke-miterlimit:4;stroke-dasharray:none;stroke-opacity:1;paint-order:stroke fill markers" />
    <path
       style="opacity:1;fill:#ffffff;fill-opacity:1;fill-rule:nonzero;stroke:none;stroke-width:0.25877997;stroke-linecap:butt;stroke-linejoin:miter;stroke-miterlimit:4;stroke-dasharray:none;stroke-opacity:1;paint-order:stroke fill markers"
       d="m 327.5736,-120.5 -45.96194,-45.96194 v -42.42641 h 42.4264 L 370,-162.92641 V -120.5 Z"
       id="path4518"
       inkscape:connector-curvature="0"
       sodipodi:nodetypes="ccccccc" />
    <path
       sodipodi:nodetypes="ccccccc"
       inkscape:connector-curvature="0"
       id="path4520"
       d="M 575.96194,127.88835 530,81.92641 V 39.5 h 42.4264 l 45.96194,45.96194 v 42.42641 z"
       style="opacity:1;fill:#ffffff;fill-opacity:1;fill-rule:nonzero;stroke:none;stroke-width:0.25877997;stroke-linecap:butt;stroke-linejoin:miter;stroke-miterlimit:4;stroke-dasharray:none;stroke-opacity:1;paint-order:stroke fill markers" />
    <path
       d="m 426.46669,-44.597809 4.38989,-22.73233 -10.89842,3.166052 -2.40962,31.159954 c -0.40641,0.357795 -1.63642,0.454366 -2.13274,0.454366 -0.97824,0 -2.40965,-0.214626 -3.32313,-0.60464 -2.27296,-1.02311 -4.22516,-4.139826 -4.08562,-6.625764 v -31.159988 l 34.95454,-20.786058 c 1.72634,-1.123326 4.45315,-2.107129 6.50857,-2.107129 h 2.42402 c 4.31396,0 10.53085,4.64425 11.81229,8.733262 l 11.20303,26.200207 13.9184,9.036279 c 1.44574,0.554516 3.1721,3.130289 3.1721,4.669648 v 1.502539 c 0,0.465067 -0.88834,2.736764 -1.35947,3.005061 l -25.27392,-6.171465 -6.6607,-8.266431 -3.47827,10.526504 z"
       style="fill:#ffffff;fill-opacity:1;fill-rule:nonzero;stroke:none;stroke-width:0.04931577;stroke-linecap:butt;stroke-linejoin:miter;stroke-miterlimit:3.86400008;stroke-dasharray:none;stroke-opacity:1"
       id="path31408"
       inkscape:connector-curvature="0"
       sodipodi:nodetypes="ccccsccccsscccssccccc" />
    <path
       d="M 441.6032,-18.026117 422.83823,39.48534 c -5.9252,0.28639 -10.89877,-3.64719 -10.89877,-9.78073 0,-0.52945 0.21573,-1.27358 0.28753,-1.80663 l 12.86345,-65.197991 h 26.78615 l 19.67757,36.738656 8.17086,38.088765 c -0.46757,0.41499 -3.80617,0.75844 -4.542,0.75844 -4.93581,0 -9.60478,-3.76061 -11.19046,-8.27896 L 455.21248,2.759573 Z"
       style="fill:#ffffff;fill-opacity:1;fill-rule:nonzero;stroke:none;stroke-width:0.04931577;stroke-linecap:butt;stroke-linejoin:miter;stroke-miterlimit:3.86400008;stroke-dasharray:none;stroke-opacity:1"
       id="path31410"
       inkscape:connector-curvature="0"
       sodipodi:nodetypes="ccscccccsccc" />
    <ellipse
       style="fill:#ffffff;fill-opacity:1;stroke:none;stroke-width:26.22222328;stroke-linecap:square;stroke-linejoin:round;stroke-miterlimit:4;stroke-dasharray:none;stroke-opacity:1;paint-order:normal"
       id="path33753"
       cx="454.94043"
       cy="-108.5"
       rx="12"
       ry="12.000001" />
    <path
       d="m 313.99256,188.44012 c -1.27356,3.3885 -2.4768,6.74575 -4.49232,9.77863 l 1.87512,1.54787 h -11.63784 c 0,-17.34112 -12.3108,-28.55675 -28.47708,-28.55675 -14.68032,0 -27.4152,18.411 -23.63088,32.873 H 145.60892 l 0.40104,-5.09337 c 0,-13.06038 -11.03628,-27.78175 -24.37284,-27.78175 -18.21792,0 -30.31608,13.983 -27.76908,32.873 -3.49956,-3.69188 -5.34468,-8.0425 -8.24256,-12.13813 H 80 v -3.91137 c 0.1008,-0.41838 0.20052,-0.83675 0.40116,-1.18188 l 1.13304,-1.95562 1.48416,-1.18188 c -0.80232,-4.2775 -1.48416,-8.85825 -1.48416,-13.28225 0,-2.10212 0.50136,-4.57025 0.702,-6.641 0.20052,-0.523 0.9024,-1.47462 1.48404,-1.58975 l 30.38628,-29.33162 c 0.90252,-0.73213 2.01552,-1.80938 3.00828,-2.36363 1.16316,-0.6275 4.5324,-1.54787 5.97636,-1.95575 h 3.75024 C 135.89624,127.07325 145.83848,127 154.9646,127 h 21.0126 c 13.79676,0 28.26444,1.58975 41.99004,3.1375 2.86788,0.0737 7.24992,2.43687 9.37572,4.2775 l 24.37284,21.5465 56.28132,9.00475 2.6172,0.732 1.87512,1.95575 c 0.50136,0.73212 1.02276,1.58975 1.48404,2.32175 1.00272,3.284 1.52424,7.15362 1.52424,10.58925 h 1.09296 c 1.00272,0 2.36652,0.83662 3.00828,1.54775 0.1008,0.523 0.40104,1.4015 0.40104,1.95575 0,0.523 -0.30084,1.4015 -0.40104,1.95575 -0.702,1.04587 -2.01552,1.44325 -3.00828,1.95575 l -2.6172,0.41825"
       style="fill:#ffffff;fill-opacity:1;fill-rule:nonzero;stroke:none;stroke-width:36.12688446"
       id="path1104"
       inkscape:connector-curvature="0" />
    <path
       d="m 255.87116,198.58587 c 0,-10.51487 8.17248,-17.96762 18.00636,-17.96762 7.641,0 13.93728,5.02012 16.13028,12.65475 l 0.70188,2.58325 v 4.31925 c 0,7.48825 -7.99188,16.8245 -15.3882,16.8245 h -4.10124 c -4.52232,0 -10.85976,-4.68538 -13.12392,-8.59688 -1.52424,-2.54137 -2.2662,-6.82925 -2.2662,-9.81"
       style="fill:#ffffff;fill-opacity:1;fill-rule:nonzero;stroke:none;stroke-width:36.12688446"
       id="path1116"
       inkscape:connector-curvature="0" />
    <path
       d="m 102.13268,198.58587 c 0,-10.21787 8.42316,-17.96762 17.97024,-17.96762 7.67112,0 13.93824,5.02012 16.13124,12.65475 l 0.702,2.58325 v 4.31925 c 0,7.70787 -5.73576,14.09387 -12.59352,16.0495 l -2.7576,0.73212 h -3.75024 c -8.73396,0 -15.7422,-9.88325 -15.7422,-18.411"
       style="fill:#ffffff;fill-opacity:1;fill-rule:nonzero;stroke:none;stroke-width:36.12688446"
       id="path1118"
       inkscape:connector-curvature="0" />
    <path
       d="m 166.62056,135.23712 -0.702,-1.95575 -1.52412,-1.18187 -2.22612,-0.41825 c -8.03208,0.105 -17.65248,-0.41838 -25.50492,0.732 -1.38384,0.0375 -4.49232,0.83675 -5.62548,1.58975 -0.8022,0.52287 -1.83504,1.66287 -2.6172,2.32175 -2.86776,3.3885 -12.38088,12.433 -12.38088,17.23025 0,2.72962 3.42936,5.86712 5.97636,5.86712 h 43.15632 l 2.22612,-0.41825 1.52412,-1.54787 0.702,-1.95575 v -1.54788 l -3.00828,-18.78012"
       style="fill:#00783a;fill-opacity:1;fill-rule:nonzero;stroke:none;stroke-width:36.12688446"
       id="path1128"
       inkscape:connector-curvature="0" />
    <path
       d="m 229.23416,159.47762 1.87512,-0.41837 1.87512,-1.54788 0.50148,-1.29675 0.30072,-2.61462 -1.13304,-1.95575 -12.771,-13.31988 c -0.20052,-0.20912 -2.50692,-2.2485 -2.6172,-2.32175 -0.90252,-0.52287 -4.743,-1.621 -6.01656,-1.95575 -11.85144,-1.04587 -23.73708,-1.8825 -35.6226,-2.36362 -1.06296,0.0738 -2.547,0.83675 -3.35916,1.58975 -0.702,0.94125 -1.09308,2.7715 -1.13316,3.91137 0.60168,3.284 1.59432,22.28488 6.75852,22.28488 h 51.3648"
       style="fill:#00783a;fill-opacity:1;fill-rule:nonzero;stroke:none;stroke-width:36.12688446"
       id="path1130"
       inkscape:connector-curvature="0" />
    <path
       style="opacity:1;fill:#ffffff;fill-opacity:1;fill-rule:nonzero;stroke:none;stroke-width:0.27492335;stroke-linecap:butt;stroke-linejoin:miter;stroke-miterlimit:4;stroke-dasharray:none;stroke-opacity:1;paint-order:stroke fill markers"
       d="m 718.06623,-134.5 v -3.50005 h -10.29744 c -3.74229,-0.019 -11.41956,-4.13119 -15.79352,-11.70005 L 680,-172.99994 v -95.00015 c 0,-8.31001 7.7407,-14.99986 17.35558,-14.99986 h 105.28894 c 9.61487,0 17.35548,6.68985 17.35548,14.99986 v 95.00015 l -11.97528,23.29984 c -4.37395,7.56886 -12.05084,11.68111 -15.79313,11.70005 H 781.93405 V -134.5 h -8.56206 v -3.50005 H 726.6283 V -134.5 Z"
       id="rect5188"
       inkscape:connector-curvature="0"
       sodipodi:nodetypes="cccccsssscccccccccc" />
    <path
       style="opacity:1;fill:#ffffff;fill-opacity:1;fill-rule:nonzero;stroke:none;stroke-width:0.11640118;stroke-linecap:butt;stroke-linejoin:miter;stroke-miterlimit:4;stroke-dasharray:none;stroke-opacity:1;paint-order:stroke fill markers"
       d="m 771.40488,-298 h -42.80976 l -16.19838,11.5 h 75.20652 z"
       id="rect5251"
       inkscape:connector-curvature="0"
       sodipodi:nodetypes="ccccc" />
    <rect
       style="opacity:1;fill:#00783a;fill-opacity:1;fill-rule:nonzero;stroke:none;stroke-width:0.12880465;stroke-linecap:butt;stroke-linejoin:miter;stroke-miterlimit:4;stroke-dasharray:none;stroke-opacity:1;paint-order:stroke fill markers"
       id="rect5272"
       width="106.44642"
       height="11"
       x="696.77698"
       y="-184.10001" />
    <circle
       style="opacity:1;fill:#00783a;fill-opacity:1;fill-rule:nonzero;stroke:none;stroke-width:0.08616618;stroke-linecap:butt;stroke-linejoin:miter;stroke-miterlimit:4;stroke-dasharray:none;stroke-opacity:1;paint-order:stroke fill markers"
       id="path5283"
       cx="750"
       cy="-265.5"
       r="10" />
    <rect
       style="opacity:1;fill:#00783a;fill-opacity:1;fill-rule:nonzero;stroke:none;stroke-width:0.13245142;stroke-linecap:butt;stroke-linejoin:miter;stroke-miterlimit:4;stroke-dasharray:none;stroke-opacity:1;paint-order:stroke fill markers"
       id="rect5294"
       width="54.95874"
       height="53.000004"
       x="690.41321"
       y="-246.50002"
       rx="4"
       ry="4" />
    <rect
       y="-246.50002"
       x="788.18201"
       height="53.000004"
       width="20.826473"
       id="rect5296"
       style="opacity:1;fill:#00783a;fill-opacity:1;fill-rule:nonzero;stroke:none;stroke-width:0.08153537;stroke-linecap:butt;stroke-linejoin:miter;stroke-miterlimit:4;stroke-dasharray:none;stroke-opacity:1;paint-order:stroke fill markers"
       ry="4"
       rx="4" />
    <path
       style="fill:#ffffff;fill-opacity:1;fill-rule:nonzero;stroke:none;stroke-width:15.85736847"
       d="m 718.06623,-132.89994 -5.08698,5.59989 h -16.20252 v 5.49996 h 11.20663 l -6.6314,7.30006 H 680 v 7.40004 h 14.62995 l -8.26633,9.099992 h 14.92559 l 6.6072,-9.099992 h 84.20717 l 6.60721,9.099992 h 14.92568 l -8.26643,-9.099992 H 820 v -7.40004 h -21.35197 l -6.63139,-7.30006 h 11.20662 v -5.49996 h -16.20242 l -5.08708,-5.59989 h -8.56206 l 4.06579,5.59989 h -54.87498 l 4.06579,-5.59989 z m 0.50318,11.09985 h 62.86127 l 5.30011,7.30006 H 713.2692 Z"
       id="path5325"
       inkscape:connector-curvature="0"
       sodipodi:nodetypes="cccccccccccccccccccccccccccccccccc" />
    <path
       style="opacity:1;fill:#ffffff;fill-opacity:1;stroke:none;stroke-width:7.65834856;stroke-linejoin:round;stroke-miterlimit:4;stroke-dasharray:none;stroke-opacity:1"
       d="m 660,147.20136 3.75837,-80.53691 C 664.00795,61.3162 668.06881,57 673.42282,57 H 806.5772 c 5.35411,0 9.66443,4.31035 9.66443,9.66445 L 820,147.20136 815.65102,175.12086 820,178.34231 V 200.3557 H 806.04029 V 217 H 779.73157 V 200.3557 H 700.2685 V 217 H 673.95979 V 200.3557 H 660 v -22.01339 l 4.34907,-3.22145 z"
       id="rect62424"
       inkscape:connector-curvature="0"
       sodipodi:nodetypes="csssscccccccccccccccc" />
    <path
       inkscape:connector-curvature="0"
       id="path62466"
       style="fill:#00783a;fill-opacity:1;fill-rule:evenodd;stroke:none;stroke-width:4.05341625"
       d="m 699.73096,62.0982 h 80.53817 v 17.93455 h -80.53817 z" />
    <path
       inkscape:connector-curvature="0"
       id="path62472"
       style="fill:#00783a;fill-opacity:1;fill-rule:evenodd;stroke:none;stroke-width:4.03405714"
       d="m 675.03642,173.83276 h 129.92726 v 5.8 H 675.03642 Z" />
    <path
       style="opacity:1;fill:#00783a;fill-opacity:1;stroke:none;stroke-width:5.82706118;stroke-linejoin:round;stroke-miterlimit:4;stroke-dasharray:none;stroke-opacity:1"
       d="m 673.53525,85.1346 h 62.06479 v 51.86546 h -63.89037 c -3.27184,0 -6.0243,-2.63625 -5.90596,-5.90605 l 1.44969,-40.0534 c 0.11819,-3.2698 3.00987,-5.90601 6.28185,-5.90601 z"
       id="rect62516"
       inkscape:connector-curvature="0"
       sodipodi:nodetypes="sccssss" />
    <circle
       style="opacity:1;fill:#00783a;fill-opacity:1;stroke:none;stroke-width:1.90382433;stroke-linejoin:round;stroke-miterlimit:4;stroke-dasharray:none;stroke-opacity:1"
       id="path62560"
       cx="676.26727"
       cy="161.96548"
       r="6.0672717" />
    <circle
       r="6.0672717"
       cy="161.96548"
       cx="693.9873"
       id="circle5127"
       style="opacity:1;fill:#00783a;fill-opacity:1;stroke:none;stroke-width:1.90382433;stroke-linejoin:round;stroke-miterlimit:4;stroke-dasharray:none;stroke-opacity:1" />
    <circle
       r="6.0672717"
       cy="161.96548"
       cx="786.01276"
       id="circle5131"
       style="opacity:1;fill:#00783a;fill-opacity:1;stroke:none;stroke-width:1.90382433;stroke-linejoin:round;stroke-miterlimit:4;stroke-dasharray:none;stroke-opacity:1" />
    <circle
       style="opacity:1;fill:#00783a;fill-opacity:1;stroke:none;stroke-width:1.90382433;stroke-linejoin:round;stroke-miterlimit:4;stroke-dasharray:none;stroke-opacity:1"
       id="circle5133"
       cx="803.73267"
       cy="161.96548"
       r="6.0672717" />
    <path
       sodipodi:nodetypes="sccssss"
       inkscape:connector-curvature="0"
       id="path5155"
       d="m 806.46483,85.1346 h -62.06481 v 51.86546 h 63.89032 c 3.2719,0 6.02432,-2.63625 5.90598,-5.90605 l -1.44965,-40.0534 c -0.11833,-3.2698 -3.00991,-5.90601 -6.28184,-5.90601 z"
       style="opacity:1;fill:#00783a;fill-opacity:1;stroke:none;stroke-width:5.82706118;stroke-linejoin:round;stroke-miterlimit:4;stroke-dasharray:none;stroke-opacity:1" />
    <path
       style="opacity:1;fill:#ffffff;fill-opacity:1;stroke:none;stroke-width:7.69060135;stroke-linejoin:round;stroke-miterlimit:4;stroke-dasharray:none;stroke-opacity:1"
       d="m 218.15963,-231.80001 -7.29577,-55.33334 c -0.72401,-5.4911 -3.02329,-9.39891 -8.47888,-9.66665 l -24.4507,-1.2 h -55.86854 l -24.45072,1.2 c -5.45558,0.26774 -7.75485,4.17555 -8.47887,9.66665 l -7.29576,55.33334 V -186 L 80,-182.8 v 16 h 3.02349 l 3.54929,3.66667 V -138 h 19.71831 v -25.13333 h 87.41783 V -138 h 19.71831 v -25.13333 l 3.5493,-3.66667 H 220 v -16 l -1.84037,-3.2 z"
       id="rect24224"
       inkscape:connector-curvature="0"
       sodipodi:nodetypes="cssccsscccccccccccccccccc" />
    <path
       d="m 129.62443,-172.93331 v -8 H 88.87325 v -2.4 h 122.25352 v 2.4 h -40.75118 v 8 z"
       style="fill:#00783a;fill-opacity:1;fill-rule:evenodd;stroke:none;stroke-width:5.06339407"
       id="path24260"
       inkscape:connector-curvature="0"
       sodipodi:nodetypes="ccccccccc" />
    <rect
       style="opacity:1;fill:#00783a;fill-opacity:1;stroke:none;stroke-width:4.75721598;stroke-linejoin:round;stroke-miterlimit:4;stroke-dasharray:none;stroke-opacity:1"
       id="rect24296"
       width="23.530514"
       height="12.866667"
       x="88.873169"
       y="-201.13333" />
    <rect
       y="-201.13333"
       x="187.59619"
       height="12.866667"
       width="23.530514"
       id="rect24309"
       style="opacity:1;fill:#00783a;fill-opacity:1;stroke:none;stroke-width:4.75721598;stroke-linejoin:round;stroke-miterlimit:4;stroke-dasharray:none;stroke-opacity:1" />
    <path
       style="opacity:1;fill:#00783a;fill-opacity:1;stroke:none;stroke-width:9.870368;stroke-linejoin:round;stroke-miterlimit:4;stroke-dasharray:none;stroke-opacity:1"
       d="m 202.12198,-291.33331 -28.92018,-1.33335 h -46.0093 l -28.92019,1.33335 c -1.45502,0.067 -2.42932,1.2033 -2.6291,2.66665 l -6.55324,48 c -0.19972,1.46338 1.17259,2.66666 2.6291,2.66666 h 116.95614 c 1.45651,0 2.82888,-1.20328 2.6291,-2.66666 l -6.55323,-48 c -0.19974,-1.46338 -1.17257,-2.66665 -2.6291,-2.66665 z"
       id="rect24332"
       inkscape:connector-curvature="0"
       sodipodi:nodetypes="sccssssssss" />
    <path
       style="fill:#ffffff;fill-opacity:1;stroke:none;stroke-width:0.23019119"
       d="m 113.38978,-245.99997 c -10.96503,-0.0151 -13.16599,7.98944 -17.15504,7.99997 h -7.16422 v 2.66666 h 48.6385 V -238 h -7.16422 c -3.98902,-0.0101 -6.18997,-8.01403 -17.15502,-7.99997 z"
       id="path16"
       inkscape:connector-curvature="0"
       sodipodi:nodetypes="cccccccc" />
  </g>
</svg>
