<?xml version="1.0" encoding="UTF-8" standalone="no"?>
<!-- Created with Inkscape (http://www.inkscape.org/) -->

<svg
   xmlns:dc="http://purl.org/dc/elements/1.1/"
   xmlns:cc="http://creativecommons.org/ns#"
   xmlns:rdf="http://www.w3.org/1999/02/22-rdf-syntax-ns#"
   xmlns:svg="http://www.w3.org/2000/svg"
   xmlns="http://www.w3.org/2000/svg"
   xmlns:sodipodi="http://sodipodi.sourceforge.net/DTD/sodipodi-0.dtd"
   xmlns:inkscape="http://www.inkscape.org/namespaces/inkscape"
   width="900mm"
   height="675mm"
   viewBox="0 0 900 675"
   version="1.1"
   id="svg8"
   inkscape:version="0.92.2 (5c3e80d, 2017-08-06)"
   sodipodi:docname="11.svg">
  <defs
     id="defs2" />
  <sodipodi:namedview
     id="base"
     pagecolor="#ffffff"
     bordercolor="#666666"
     borderopacity="1.0"
     inkscape:pageopacity="0.0"
     inkscape:pageshadow="2"
     inkscape:zoom="0.196875"
     inkscape:cx="2060.8241"
     inkscape:cy="968.29442"
     inkscape:document-units="mm"
     inkscape:current-layer="layer1"
     showgrid="false"
     fit-margin-top="0"
     fit-margin-left="0"
     fit-margin-right="0"
     fit-margin-bottom="0"
     inkscape:window-width="1920"
     inkscape:window-height="1057"
     inkscape:window-x="-8"
     inkscape:window-y="-8"
     inkscape:window-maximized="1"
     inkscape:snap-global="false"
     showguides="false" />
  <metadata
     id="metadata5">
    <rdf:RDF>
      <cc:Work
         rdf:about="">
        <dc:format>image/svg+xml</dc:format>
        <dc:type
           rdf:resource="http://purl.org/dc/dcmitype/StillImage" />
        <dc:title></dc:title>
      </cc:Work>
    </rdf:RDF>
  </metadata>
  <g
     inkscape:label="Layer 1"
     inkscape:groupmode="layer"
     id="layer1"
     transform="translate(0,378)">
    <rect
       style="opacity:1;fill:#00783a;fill-opacity:1;fill-rule:nonzero;stroke:none;stroke-width:0.36125669;stroke-linecap:butt;stroke-linejoin:miter;stroke-miterlimit:4;stroke-dasharray:none;stroke-opacity:1;paint-order:stroke fill markers"
       id="rect815"
       width="900"
       height="675"
       x="0"
       y="-378" />
    <rect
       y="-378"
       x="0"
       height="675"
       width="900"
       id="rect817"
       style="opacity:1;fill:#ffffff;fill-opacity:1;fill-rule:nonzero;stroke:none;stroke-width:0.36125669;stroke-linecap:butt;stroke-linejoin:miter;stroke-miterlimit:4;stroke-dasharray:none;stroke-opacity:1;paint-order:stroke fill markers"
       rx="100"
       ry="100" />
    <rect
       y="-348"
       x="30"
       height="615"
       width="840"
       id="rect819"
       style="opacity:1;fill:#00783a;fill-opacity:1;fill-rule:nonzero;stroke:none;stroke-width:0.33313477;stroke-linecap:butt;stroke-linejoin:miter;stroke-miterlimit:4;stroke-dasharray:none;stroke-opacity:1;paint-order:stroke fill markers"
       rx="70"
       ry="70" />
    <path
       style="opacity:1;fill:#ffffff;fill-opacity:1;fill-rule:nonzero;stroke:none;stroke-width:0.19743672;stroke-linecap:butt;stroke-linejoin:miter;stroke-miterlimit:4;stroke-dasharray:none;stroke-opacity:1;paint-order:stroke fill markers"
       d="m 349.99994,-165.49993 100.00002,124.999996 -100.00002,125 z"
       id="rect821"
       inkscape:connector-curvature="0"
       sodipodi:nodetypes="cccc" />
    <path
       d="m 274.99374,145.15217 c -1.0613,2.7108 -2.064,5.3966 -3.7436,7.8229 l 1.5626,1.2383 h -9.6982 c 0,-13.8729 -10.259,-22.8454 -23.7309,-22.8454 -12.2336,0 -22.846,14.7288 -19.6924,26.2984 h -85.0172 l 0.3342,-4.0747 c 0,-10.4483 -9.1969,-22.2254 -20.3107,-22.2254 -15.1816,0 -25.2634,11.1864 -23.1409,26.2984 -2.9163,-2.9535 -4.4539,-6.434 -6.8688,-9.7105 h -4.6879 v -3.1291 c 0.084,-0.3347 0.1671,-0.6694 0.3343,-0.9455 l 0.9442,-1.5645 1.2368,-0.9455 c -0.6686,-3.422 -1.2368,-7.0866 -1.2368,-10.6258 0,-1.6817 0.4178,-3.6562 0.585,-5.3128 0.1671,-0.4184 0.752,-1.1797 1.2367,-1.2718 l 25.3219,-23.4653 c 0.7521,-0.5857 1.6796,-1.447504 2.5069,-1.890904 0.9693,-0.502 3.777,-1.2383 4.9803,-1.5646 h 3.1252 c 7.5457,-1.1797 15.8309,-1.2383 23.436,-1.2383 h 17.5105 c 11.4973,0 23.5537,1.2718 34.9917,2.51 2.3899,0.059 6.0416,1.949504 7.8131,3.422004 l 20.3107,17.2372 46.9011,7.2038 2.181,0.5856 1.5626,1.5646 c 0.4178,0.5857 0.8523,1.2718 1.2367,1.8574 0.8356,2.6272 1.2702,5.7229 1.2702,8.4714 h 0.9108 c 0.8356,0 1.9721,0.6693 2.5069,1.2382 0.084,0.4184 0.3342,1.1212 0.3342,1.5646 0,0.4184 -0.2507,1.1212 -0.3342,1.5646 -0.585,0.8367 -1.6796,1.1546 -2.5069,1.5646 l -2.181,0.3346"
       style="fill:#ffffff;fill-opacity:1;fill-rule:nonzero;stroke:none;stroke-width:29.49747849"
       id="path1104"
       inkscape:connector-curvature="0" />
    <path
       d="m 226.55924,153.26877 c 0,-8.4119 6.8104,-14.3741 15.0053,-14.3741 6.3675,0 11.6144,4.0161 13.4419,10.1238 l 0.5849,2.0666 v 3.4554 c 0,5.9906 -6.6599,13.4596 -12.8235,13.4596 h -3.4177 c -3.7686,0 -9.0498,-3.7483 -10.9366,-6.8775 -1.2702,-2.0331 -1.8885,-5.4634 -1.8885,-7.848"
       style="fill:#ffffff;fill-opacity:1;fill-rule:nonzero;stroke:none;stroke-width:29.49747849"
       id="path1116"
       inkscape:connector-curvature="0" />
    <path
       d="m 98.44384,153.26877 c 0,-8.1743 7.0193,-14.3741 14.9752,-14.3741 6.3926,0 11.6152,4.0161 13.4427,10.1238 l 0.585,2.0666 v 3.4554 c 0,6.1663 -4.7798,11.2751 -10.4946,12.8396 l -2.298,0.5857 h -3.1252 c -7.2783,0 -13.1185,-7.9066 -13.1185,-14.7288"
       style="fill:#ffffff;fill-opacity:1;fill-rule:nonzero;stroke:none;stroke-width:29.49747849"
       id="path1118"
       inkscape:connector-curvature="0" />
    <path
       d="m 152.18374,102.58977 -0.585,-1.5646 -1.2701,-0.9455 -1.8551,-0.334604 c -6.6934,0.084 -14.7104,-0.3347 -21.2541,0.585604 -1.1532,0.03 -3.7436,0.6694 -4.6879,1.2718 -0.6685,0.4183 -1.5292,1.3303 -2.181,1.8574 -2.3898,2.7108 -10.3174,9.9464 -10.3174,13.7842 0,2.1837 2.8578,4.6937 4.9803,4.6937 h 35.9636 l 1.8551,-0.3346 1.2701,-1.2383 0.585,-1.5646 v -1.2383 l -2.5069,-15.0241"
       style="fill:#00783a;fill-opacity:1;fill-rule:nonzero;stroke:none;stroke-width:29.49747849"
       id="path1128"
       inkscape:connector-curvature="0" />
    <path
       d="m 204.36174,121.98217 1.5626,-0.3347 1.5626,-1.2383 0.4179,-1.0374 0.2506,-2.0917 -0.9442,-1.5646 -10.6425,-10.6559 c -0.1671,-0.1673 -2.0891,-1.7988 -2.181,-1.8574 -0.7521,-0.4183 -3.9525,-1.2968 -5.0138,-1.5646 -9.8762,-0.8367 -19.7809,-1.506 -29.6855,-1.890904 -0.8858,0.059 -2.1225,0.669404 -2.7993,1.271804 -0.585,0.753 -0.9109,2.2172 -0.9443,3.1291 0.5014,2.6272 1.3286,17.8279 5.6321,17.8279 h 42.804"
       style="fill:#00783a;fill-opacity:1;fill-rule:nonzero;stroke:none;stroke-width:29.49747849"
       id="path1130"
       inkscape:connector-curvature="0" />
    <path
       inkscape:connector-curvature="0"
       id="path5168"
       style="fill:#ffffff;fill-opacity:1;fill-rule:nonzero;stroke:none;stroke-width:29.49747849"
       d="m 274.99374,-26.847834 c -1.0613,2.7108 -2.064,5.3966 -3.7436,7.8229 l 1.5626,1.2383 h -9.6982 c 0,-13.8729 -10.259,-22.8454 -23.7309,-22.8454 -12.2336,0 -22.846,14.7288 -19.6924,26.2984 h -85.0172 l 0.3342,-4.0747 c 0,-10.4483 -9.1969,-22.2254 -20.3107,-22.2254 -15.1816,0 -25.2634,11.1864 -23.1409,26.2984 -2.9163,-2.9535 -4.4539,-6.434 -6.8688,-9.7105 h -4.6879 v -3.1291 c 0.084,-0.3347 0.1671,-0.6694 0.3343,-0.9455 l 0.9442,-1.5645 1.2368,-0.9455 c -0.6686,-3.422 -1.2368,-7.0866 -1.2368,-10.6258 0,-1.6817 0.4178,-3.6562 0.585,-5.3128 0.1671,-0.4184 0.752,-1.1797 1.2367,-1.2718 l 25.3219,-23.4653 c 0.7521,-0.5857 1.6796,-1.4475 2.5069,-1.8909 0.9693,-0.502 3.777,-1.2383 4.9803,-1.5646 h 3.1252 c 7.5457,-1.1797 15.8309,-1.2383 23.436,-1.2383 h 17.5105 c 11.4973,0 23.5537,1.2718 34.9917,2.51 2.3899,0.059 6.0416,1.9495 7.8131,3.422 l 20.3107,17.2372 46.9011,7.2038 2.181,0.5856 1.5626,1.5646 c 0.4178,0.5857 0.8523,1.2718 1.2367,1.8574 0.8356,2.6272 1.2702,5.7229 1.2702,8.4714 h 0.9108 c 0.8356,0 1.9721,0.6693 2.5069,1.2382 0.084,0.4184 0.3342,1.1212 0.3342,1.5646 0,0.4184 -0.2507,1.1212 -0.3342,1.5646 -0.585,0.8367 -1.6796,1.1546 -2.5069,1.5646 l -2.181,0.3346" />
    <path
       inkscape:connector-curvature="0"
       id="path5170"
       style="fill:#ffffff;fill-opacity:1;fill-rule:nonzero;stroke:none;stroke-width:29.49747849"
       d="m 226.55924,-18.731234 c 0,-8.4119 6.8104,-14.3741 15.0053,-14.3741 6.3675,0 11.6144,4.0161 13.4419,10.1238 l 0.5849,2.0666 v 3.4554 c 0,5.9906 -6.6599,13.4595998 -12.8235,13.4595998 h -3.4177 c -3.7686,0 -9.0498,-3.7483 -10.9366,-6.8774998 -1.2702,-2.0331 -1.8885,-5.4634 -1.8885,-7.848" />
    <path
       inkscape:connector-curvature="0"
       id="path5172"
       style="fill:#ffffff;fill-opacity:1;fill-rule:nonzero;stroke:none;stroke-width:29.49747849"
       d="m 98.44384,-18.731234 c 0,-8.1743 7.0193,-14.3741 14.9752,-14.3741 6.3926,0 11.6152,4.0161 13.4427,10.1238 l 0.585,2.0666 v 3.4554 c 0,6.1663 -4.7798,11.2750998 -10.4946,12.8395998 l -2.298,0.5857 h -3.1252 c -7.2783,0 -13.1185,-7.9065998 -13.1185,-14.7287998" />
    <path
       inkscape:connector-curvature="0"
       id="path5174"
       style="fill:#00783a;fill-opacity:1;fill-rule:nonzero;stroke:none;stroke-width:29.49747849"
       d="m 152.18374,-69.410234 -0.585,-1.5646 -1.2701,-0.9455 -1.8551,-0.3346 c -6.6934,0.084 -14.7104,-0.3347 -21.2541,0.5856 -1.1532,0.03 -3.7436,0.6694 -4.6879,1.2718 -0.6685,0.4183 -1.5292,1.3303 -2.181,1.8574 -2.3898,2.7108 -10.3174,9.9464 -10.3174,13.7842 0,2.1837 2.8578,4.6937 4.9803,4.6937 h 35.9636 l 1.8551,-0.3346 1.2701,-1.2383 0.585,-1.5646 v -1.2383 l -2.5069,-15.0241" />
    <path
       inkscape:connector-curvature="0"
       id="path5176"
       style="fill:#00783a;fill-opacity:1;fill-rule:nonzero;stroke:none;stroke-width:29.49747849"
       d="m 204.36174,-50.017834 1.5626,-0.3347 1.5626,-1.2383 0.4179,-1.0374 0.2506,-2.0917 -0.9442,-1.5646 -10.6425,-10.6559 c -0.1671,-0.1673 -2.0891,-1.7988 -2.181,-1.8574 -0.7521,-0.4183 -3.9525,-1.2968 -5.0138,-1.5646 -9.8762,-0.8367 -19.7809,-1.506 -29.6855,-1.8909 -0.8858,0.059 -2.1225,0.6694 -2.7993,1.2718 -0.585,0.753 -0.9109,2.2172 -0.9443,3.1291 0.5014,2.6272 1.3286,17.8279 5.6321,17.8279 h 42.804" />
    <path
       d="m 274.99374,-198.84783 c -1.0613,2.7108 -2.064,5.3966 -3.7436,7.8229 l 1.5626,1.2383 h -9.6982 c 0,-13.8729 -10.259,-22.8454 -23.7309,-22.8454 -12.2336,0 -22.846,14.7288 -19.6924,26.2984 h -85.0172 l 0.3342,-4.0747 c 0,-10.4483 -9.1969,-22.2254 -20.3107,-22.2254 -15.1816,0 -25.2634,11.1864 -23.1409,26.2984 -2.9163,-2.9535 -4.4539,-6.434 -6.8688,-9.7105 h -4.6879 v -3.1291 c 0.084,-0.3347 0.1671,-0.6694 0.3343,-0.9455 l 0.9442,-1.5645 1.2368,-0.9455 c -0.6686,-3.422 -1.2368,-7.0866 -1.2368,-10.6258 0,-1.6817 0.4178,-3.6562 0.585,-5.3128 0.1671,-0.4184 0.752,-1.1797 1.2367,-1.2718 l 25.3219,-23.4653 c 0.7521,-0.5857 1.6796,-1.4475 2.5069,-1.8909 0.9693,-0.502 3.777,-1.2383 4.9803,-1.5646 h 3.1252 c 7.5457,-1.1797 15.8309,-1.2383 23.436,-1.2383 h 17.5105 c 11.4973,0 23.5537,1.2718 34.9917,2.51 2.3899,0.059 6.0416,1.9495 7.8131,3.422 l 20.3107,17.2372 46.9011,7.2038 2.181,0.5856 1.5626,1.5646 c 0.4178,0.5857 0.8523,1.2718 1.2367,1.8574 0.8356,2.6272 1.2702,5.7229 1.2702,8.4714 h 0.9108 c 0.8356,0 1.9721,0.6693 2.5069,1.2382 0.084,0.4184 0.3342,1.1212 0.3342,1.5646 0,0.4184 -0.2507,1.1212 -0.3342,1.5646 -0.585,0.8367 -1.6796,1.1546 -2.5069,1.5646 l -2.181,0.3346"
       style="fill:#ffffff;fill-opacity:1;fill-rule:nonzero;stroke:none;stroke-width:29.49747849"
       id="path5178"
       inkscape:connector-curvature="0" />
    <path
       d="m 226.55924,-190.73123 c 0,-8.4119 6.8104,-14.3741 15.0053,-14.3741 6.3675,0 11.6144,4.0161 13.4419,10.1238 l 0.5849,2.0666 v 3.4554 c 0,5.9906 -6.6599,13.4596 -12.8235,13.4596 h -3.4177 c -3.7686,0 -9.0498,-3.7483 -10.9366,-6.8775 -1.2702,-2.0331 -1.8885,-5.4634 -1.8885,-7.848"
       style="fill:#ffffff;fill-opacity:1;fill-rule:nonzero;stroke:none;stroke-width:29.49747849"
       id="path5180"
       inkscape:connector-curvature="0" />
    <path
       d="m 98.44384,-190.73123 c 0,-8.1743 7.0193,-14.3741 14.9752,-14.3741 6.3926,0 11.6152,4.0161 13.4427,10.1238 l 0.585,2.0666 v 3.4554 c 0,6.1663 -4.7798,11.2751 -10.4946,12.8396 l -2.298,0.5857 h -3.1252 c -7.2783,0 -13.1185,-7.9066 -13.1185,-14.7288"
       style="fill:#ffffff;fill-opacity:1;fill-rule:nonzero;stroke:none;stroke-width:29.49747849"
       id="path5182"
       inkscape:connector-curvature="0" />
    <path
       d="m 152.18374,-241.41023 -0.585,-1.5646 -1.2701,-0.9455 -1.8551,-0.3346 c -6.6934,0.084 -14.7104,-0.3347 -21.2541,0.5856 -1.1532,0.03 -3.7436,0.6694 -4.6879,1.2718 -0.6685,0.4183 -1.5292,1.3303 -2.181,1.8574 -2.3898,2.7108 -10.3174,9.9464 -10.3174,13.7842 0,2.1837 2.8578,4.6937 4.9803,4.6937 h 35.9636 l 1.8551,-0.3346 1.2701,-1.2383 0.585,-1.5646 v -1.2383 l -2.5069,-15.0241"
       style="fill:#00783a;fill-opacity:1;fill-rule:nonzero;stroke:none;stroke-width:29.49747849"
       id="path5184"
       inkscape:connector-curvature="0" />
    <path
       d="m 204.36174,-222.01783 1.5626,-0.3347 1.5626,-1.2383 0.4179,-1.0374 0.2506,-2.0917 -0.9442,-1.5646 -10.6425,-10.6559 c -0.1671,-0.1673 -2.0891,-1.7988 -2.181,-1.8574 -0.7521,-0.4183 -3.9525,-1.2968 -5.0138,-1.5646 -9.8762,-0.8367 -19.7809,-1.506 -29.6855,-1.8909 -0.8858,0.059 -2.1225,0.6694 -2.7993,1.2718 -0.585,0.753 -0.9109,2.2172 -0.9443,3.1291 0.5014,2.6272 1.3286,17.8279 5.6321,17.8279 h 42.804"
       style="fill:#00783a;fill-opacity:1;fill-rule:nonzero;stroke:none;stroke-width:29.49747849"
       id="path5186"
       inkscape:connector-curvature="0" />
    <path
       style="opacity:1;fill:#ffffff;fill-opacity:1;stroke:none;stroke-width:15.31669521;stroke-linejoin:round;stroke-miterlimit:4;stroke-dasharray:none;stroke-opacity:1"
       d="m 500,-20.0973 7.51673,-161.0738 c 0.49917,-10.6965 8.62089,-19.3289 19.32891,-19.3289 h 266.30875 c 10.70821,0 19.32886,8.6207 19.32886,19.3289 L 820,-20.0973 811.30203,35.7417 820,42.1846 V 86.2114 H 792.08057 V 119.5 H 739.46314 V 86.2114 H 580.53699 V 119.5 H 527.91957 V 86.2114 H 500 V 42.1846 l 8.69814,-6.4429 z"
       id="rect62424"
       inkscape:connector-curvature="0"
       sodipodi:nodetypes="csssscccccccccccccccc" />
    <path
       inkscape:connector-curvature="0"
       id="path62466"
       style="fill:#00783a;fill-opacity:1;fill-rule:evenodd;stroke:none;stroke-width:8.1068325"
       d="m 579.46191,-190.3036 h 161.07635 v 35.8691 H 579.46191 Z" />
    <path
       inkscape:connector-curvature="0"
       id="path62472"
       style="fill:#00783a;fill-opacity:1;fill-rule:evenodd;stroke:none;stroke-width:8.06811428"
       d="m 530.07283,33.1655 h 259.85451 v 11.6 H 530.07283 Z" />
    <path
       style="opacity:1;fill:#00783a;fill-opacity:1;stroke:none;stroke-width:11.65412235;stroke-linejoin:round;stroke-miterlimit:4;stroke-dasharray:none;stroke-opacity:1"
       d="M 527.07049,-144.2308 H 651.20008 V -40.4999 H 523.41933 c -6.54368,0 -12.04859,-5.2725 -11.81192,-11.8121 l 2.89938,-80.1068 c 0.23639,-6.5396 6.01975,-11.812 12.5637,-11.812 z"
       id="rect62516"
       inkscape:connector-curvature="0"
       sodipodi:nodetypes="sccssss" />
    <circle
       style="opacity:1;fill:#00783a;fill-opacity:1;stroke:none;stroke-width:3.80764866;stroke-linejoin:round;stroke-miterlimit:4;stroke-dasharray:none;stroke-opacity:1"
       id="path62560"
       cx="532.53455"
       cy="9.430954"
       r="12.134543" />
    <circle
       r="12.134543"
       cy="9.430954"
       cx="567.97461"
       id="circle5127"
       style="opacity:1;fill:#00783a;fill-opacity:1;stroke:none;stroke-width:3.80764866;stroke-linejoin:round;stroke-miterlimit:4;stroke-dasharray:none;stroke-opacity:1" />
    <circle
       r="12.134543"
       cy="9.430954"
       cx="752.02551"
       id="circle5131"
       style="opacity:1;fill:#00783a;fill-opacity:1;stroke:none;stroke-width:3.80764866;stroke-linejoin:round;stroke-miterlimit:4;stroke-dasharray:none;stroke-opacity:1" />
    <circle
       style="opacity:1;fill:#00783a;fill-opacity:1;stroke:none;stroke-width:3.80764866;stroke-linejoin:round;stroke-miterlimit:4;stroke-dasharray:none;stroke-opacity:1"
       id="circle5133"
       cx="787.46539"
       cy="9.430954"
       r="12.134543" />
    <path
       sodipodi:nodetypes="sccssss"
       inkscape:connector-curvature="0"
       id="path5155"
       d="M 792.92966,-144.2308 H 668.80004 v 103.7309 h 127.78061 c 6.54383,0 12.04866,-5.2725 11.812,-11.8121 l -2.89932,-80.1068 c -0.23667,-6.5396 -6.01982,-11.812 -12.56367,-11.812 z"
       style="opacity:1;fill:#00783a;fill-opacity:1;stroke:none;stroke-width:11.65412235;stroke-linejoin:round;stroke-miterlimit:4;stroke-dasharray:none;stroke-opacity:1" />
  </g>
</svg>
