<?xml version="1.0" encoding="UTF-8" standalone="no"?>
<!-- Created with Inkscape (http://www.inkscape.org/) -->

<svg
   xmlns:dc="http://purl.org/dc/elements/1.1/"
   xmlns:cc="http://creativecommons.org/ns#"
   xmlns:rdf="http://www.w3.org/1999/02/22-rdf-syntax-ns#"
   xmlns:svg="http://www.w3.org/2000/svg"
   xmlns="http://www.w3.org/2000/svg"
   xmlns:sodipodi="http://sodipodi.sourceforge.net/DTD/sodipodi-0.dtd"
   xmlns:inkscape="http://www.inkscape.org/namespaces/inkscape"
   width="908.79999"
   height="1445.1899"
   viewBox="0 0 240.45332 382.37319"
   version="1.1"
   id="svg4543"
   inkscape:version="0.92.1 r15371"
   sodipodi:docname="SADC_road_sign_R1.2.svg">
  <defs
     id="defs4537" />
  <sodipodi:namedview
     id="base"
     pagecolor="#ffffff"
     bordercolor="#666666"
     borderopacity="1.0"
     inkscape:pageopacity="0.0"
     inkscape:pageshadow="2"
     inkscape:zoom="0.53646818"
     inkscape:cx="455.06804"
     inkscape:cy="826.37788"
     inkscape:document-units="px"
     inkscape:current-layer="layer1"
     showgrid="false"
     inkscape:snap-global="false"
     units="px"
     fit-margin-top="0"
     fit-margin-left="0"
     fit-margin-right="0"
     fit-margin-bottom="0"
     inkscape:measure-start="0,0"
     inkscape:measure-end="0,0"
     inkscape:window-width="1920"
     inkscape:window-height="1057"
     inkscape:window-x="-8"
     inkscape:window-y="-8"
     inkscape:window-maximized="1" />
  <metadata
     id="metadata4540">
    <rdf:RDF>
      <cc:Work
         rdf:about="">
        <dc:format>image/svg+xml</dc:format>
        <dc:type
           rdf:resource="http://purl.org/dc/dcmitype/StillImage" />
        <dc:title></dc:title>
      </cc:Work>
    </rdf:RDF>
  </metadata>
  <g
     inkscape:label="Layer 1"
     inkscape:groupmode="layer"
     id="layer1"
     transform="translate(-177.43934,302.38138)">
    <path
       sodipodi:nodetypes="cccc"
       style="opacity:1;fill:none;fill-opacity:1;stroke:#000000;stroke-width:15.875;stroke-linecap:butt;stroke-linejoin:round;stroke-miterlimit:4;stroke-dasharray:none;stroke-dashoffset:0;stroke-opacity:1"
       inkscape:transform-center-y="122.39878"
       d="m 297.6659,71.94932 -112.18382,-194.30819 224.36773,1.3e-4 z"
       id="path4501"
       inkscape:connector-curvature="0"
       inkscape:transform-center-x="-0.0013776848" />
    <path
       inkscape:transform-center-x="-0.0013776848"
       inkscape:connector-curvature="0"
       id="path4575"
       d="m 297.6659,71.94932 -112.18382,-194.30819 224.36773,1.3e-4 z"
       inkscape:transform-center-y="122.39878"
       style="opacity:1;fill:none;fill-opacity:1;stroke:#fffff4;stroke-width:13.75833321;stroke-linecap:butt;stroke-linejoin:round;stroke-miterlimit:4;stroke-dasharray:none;stroke-dashoffset:0;stroke-opacity:1"
       sodipodi:nodetypes="cccc" />
    <path
       sodipodi:nodetypes="cccc"
       style="opacity:1;fill:#e20a16;fill-opacity:1;stroke:#e20a16;stroke-width:5.82083321;stroke-linecap:butt;stroke-linejoin:round;stroke-miterlimit:4;stroke-dasharray:none;stroke-dashoffset:0;stroke-opacity:1"
       inkscape:transform-center-y="122.39847"
       d="m 297.66594,71.94884 -112.18358,-194.30771 224.36722,1.4e-4 z"
       id="path4577"
       inkscape:connector-curvature="0"
       inkscape:transform-center-x="-0.0013812723" />
    <path
       style="fill:#ffffff;fill-opacity:1;stroke:none;stroke-width:5.82083321;stroke-linecap:square;stroke-linejoin:round;stroke-miterlimit:4;stroke-dasharray:none;stroke-opacity:1;paint-order:normal"
       d="m 369.52176,-99.075614 -143.71167,9e-5 71.8559,124.457984 z"
       id="path4579"
       inkscape:connector-curvature="0"
       sodipodi:nodetypes="cccc" />
    <path
       style="fill:#000000;fill-opacity:1;stroke:none;stroke-width:2.38124967;stroke-linecap:square;stroke-linejoin:round;stroke-miterlimit:4;stroke-dasharray:none;stroke-opacity:1;paint-order:normal"
       d="m 311.95335,-17.05479 v -44.449957 c 0,-7.915268 -6.37221,-14.287498 -14.2875,-14.287498 h -22.22496 v 14.287498 h 19.84373 c 1.3192,0 2.38123,1.062041 2.38123,2.381251 v 42.068706 z"
       id="rect5186"
       inkscape:connector-curvature="0"
       sodipodi:nodetypes="cssccsscc" />
    <path
       sodipodi:nodetypes="ccccccccc"
       style="fill:#2b1100;fill-opacity:1;stroke:none;stroke-width:0.26458332"
       d="m 217.23266,-255.1588 47.11672,-47.11672 66.63325,10e-6 47.11672,47.1167 v 66.63327 l -47.11672,47.11668 h -66.63326 l -47.11671,-47.11669 z"
       id="path4275"
       inkscape:connector-curvature="0" />
    <path
       sodipodi:nodetypes="ccccccccc"
       style="fill:#ffffff;fill-opacity:1;stroke:none;stroke-width:0.26458332"
       d="m 218.29095,-188.96397 v -65.75631 l 46.49682,-46.49684 h 65.75631 l 46.49687,46.49686 -3e-5,65.75629 -46.49684,46.49683 -65.7563,3e-5 z"
       id="path4275-3"
       inkscape:connector-curvature="0" />
    <path
       inkscape:connector-curvature="0"
       id="path835"
       d="m 267.52764,-294.60255 h 60.27664 l 42.62213,42.62209 -10e-6,60.27664 -42.62214,42.62214 -60.27662,-3e-5 -42.62212,-42.6221 -2e-5,-60.27664 z"
       style="fill:#e20a16;fill-opacity:1;stroke:none;stroke-width:0.26458332"
       sodipodi:nodetypes="ccccccccc" />
    <path
       style="fill:#000000;fill-opacity:1;stroke:none;stroke-width:0.18752341;stroke-linecap:butt;stroke-linejoin:round;stroke-miterlimit:22.9260006;stroke-dasharray:none;stroke-opacity:1"
       d="m 254.27423,-68.648559 28.40138,-21.018991 c 0.38367,-0.25983 0.84674,-0.41224 1.34519,-0.41224 1.32559,0 2.4003,1.07473 2.4003,2.4003 0,0.12436 -0.0101,0.24719 -0.0278,0.36625 l -3.54406,11.52095 3.17499,-1e-6 v 14.287501 l -3.17499,-1.9e-5 3.54406,11.52097 c 0.0177,0.11904 0.0278,0.24188 0.0278,0.36625 0,1.325541 -1.07471,2.400301 -2.4003,2.400301 -0.49845,0 -0.96152,-0.15243 -1.34519,-0.41226 z"
       id="path13341"
       inkscape:connector-curvature="0"
       sodipodi:nodetypes="ccssccccccsscc" />
    <path
       d="m 264.70407,-233.4305 h -7.82787 v -1.76512 q 0,-2.68602 -1.30464,-4.60462 -1.2279,-1.99535 -4.22091,-1.99535 -1.61162,0 -2.68603,0.61396 -0.99767,0.61394 -1.61162,1.61163 -0.53721,0.92091 -0.76744,2.22557 -0.23023,1.22788 -0.23023,2.60927 0,1.61163 0.0767,2.76278 0.15349,1.07442 0.61396,1.9186 0.46046,0.76745 1.30464,1.38139 0.92093,0.61394 2.4558,1.2279 l 5.98602,2.37906 q 2.60928,0.99766 4.2209,2.37905 1.61162,1.30463 2.45581,3.1465 0.92092,1.76509 1.22789,4.14417 0.30698,2.3023 0.30698,5.29532 0,3.45345 -0.6907,6.44647 -0.69069,2.91626 -2.30231,5.0651 -1.53487,2.07209 -4.14416,3.29999 -2.60929,1.22788 -6.36974,1.22788 -2.83951,0 -5.29532,-0.99766 -2.4558,-0.99767 -4.2209,-2.68603 -1.76511,-1.76511 -2.83952,-4.14417 -0.99767,-2.37905 -0.99767,-5.14183 v -2.91626 h 7.82786 v 2.45578 q 0,2.14884 1.2279,3.91395 1.30465,1.68836 4.29765,1.68836 1.99534,0 3.06976,-0.53721 1.15115,-0.61396 1.68836,-1.61163 0.61395,-1.07439 0.76744,-2.60929 0.15348,-1.53488 0.15348,-3.37672 0,-2.14881 -0.15348,-3.5302 -0.15349,-1.38139 -0.6907,-2.22557 -0.46046,-0.84418 -1.38138,-1.38139 -0.84419,-0.53721 -2.30232,-1.15115 l -5.60229,-2.30233 q -5.06509,-2.07208 -6.8302,-5.4488 -1.68837,-3.45347 -1.68837,-8.59531 0,-3.06974 0.84419,-5.83252 0.84418,-2.76278 2.4558,-4.75811 1.68836,-1.99536 4.22091,-3.14651 2.53254,-1.2279 5.90927,-1.2279 2.91626,0 5.29532,1.07442 2.4558,1.07442 4.14416,2.83951 1.76511,1.76511 2.68603,3.99068 0.92093,2.14884 0.92093,4.45114 z"
       style="font-style:normal;font-variant:normal;font-weight:normal;font-stretch:normal;font-size:290.05523682px;line-height:1.25;font-family:'DIN 1451 Std';-inkscape-font-specification:'DIN 1451 Std';letter-spacing:5.6500001px;word-spacing:0px;fill:#ffffff;fill-opacity:1;stroke:none;stroke-width:0.3997072"
       id="path921"
       inkscape:connector-curvature="0" />
    <path
       d="m 277.19166,-241.79559 h -9.05577 v -7.36741 h 25.9394 v 7.36741 h -9.05577 v 47.27419 h -7.82786 z"
       style="font-style:normal;font-variant:normal;font-weight:normal;font-stretch:normal;font-size:290.05523682px;line-height:1.25;font-family:'DIN 1451 Std';-inkscape-font-specification:'DIN 1451 Std';letter-spacing:5.6500001px;word-spacing:0px;fill:#ffffff;fill-opacity:1;stroke:none;stroke-width:0.3997072"
       id="path923"
       inkscape:connector-curvature="0" />
    <path
       d="m 297.66604,-236.27004 q 0,-3.29996 1.15116,-5.83252 1.15115,-2.53254 2.993,-4.14417 1.9186,-1.68836 4.22091,-2.53254 2.37906,-0.84418 4.75811,-0.84418 2.37906,0 4.68137,0.84418 2.37906,0.84418 4.22091,2.53254 1.9186,1.61163 3.06975,4.14417 1.15116,2.53256 1.15116,5.83252 v 28.85567 q 0,3.37672 -1.15116,5.90926 -1.15115,2.45581 -3.06975,4.1442 -1.84185,1.6116 -4.22091,2.45578 -2.30231,0.84418 -4.68137,0.84418 -2.37905,0 -4.75811,-0.84418 -2.30231,-0.84418 -4.22091,-2.45578 -1.84185,-1.68839 -2.993,-4.1442 -1.15116,-2.53254 -1.15116,-5.90926 z m 7.82786,28.85567 q 0,2.83951 1.53488,4.2209 1.61162,1.30466 3.76044,1.30466 2.14883,0 3.68371,-1.30466 1.61162,-1.38139 1.61162,-4.2209 v -28.85567 q 0,-2.8395 -1.61162,-4.14416 -1.53488,-1.38139 -3.68371,-1.38139 -2.14882,0 -3.76044,1.38139 -1.53488,1.30466 -1.53488,4.14416 z"
       style="font-style:normal;font-variant:normal;font-weight:normal;font-stretch:normal;font-size:290.05523682px;line-height:1.25;font-family:'DIN 1451 Std';-inkscape-font-specification:'DIN 1451 Std';letter-spacing:5.6500001px;word-spacing:0px;fill:#ffffff;fill-opacity:1;stroke:none;stroke-width:0.3997072"
       id="path925"
       inkscape:connector-curvature="0" />
    <path
       d="m 332.29788,-249.163 h 11.7418 q 3.22324,0 5.67904,0.84421 2.4558,0.84418 4.45114,2.99299 1.99534,2.14884 2.76277,5.06511 0.76744,2.83951 0.76744,7.7511 0,3.60696 -0.46046,6.21625 -0.38372,2.53254 -1.76511,4.75811 -1.61162,2.68605 -4.29765,4.22092 -2.68603,1.45812 -7.06043,1.45812 h -3.99067 v 21.33479 h -7.82787 z m 7.82787,25.93941 h 3.76044 q 2.37906,0 3.6837,-0.69069 1.30465,-0.6907 1.9186,-1.84185 0.61395,-1.2279 0.69069,-2.91626 0.15349,-1.68836 0.15349,-3.76045 0,-1.9186 -0.15349,-3.60695 -0.0767,-1.76512 -0.69069,-2.99302 -0.53721,-1.30464 -1.76511,-1.99533 -1.2279,-0.76745 -3.53021,-0.76745 h -4.06742 z"
       style="font-style:normal;font-variant:normal;font-weight:normal;font-stretch:normal;font-size:290.05523682px;line-height:1.25;font-family:'DIN 1451 Std';-inkscape-font-specification:'DIN 1451 Std';letter-spacing:5.6500001px;word-spacing:0px;fill:#ffffff;fill-opacity:1;stroke:none;stroke-width:0.3997072"
       id="path927"
       inkscape:connector-curvature="0" />
  </g>
</svg>
