<?xml version="1.0" encoding="UTF-8" standalone="no"?>
<!-- Created with Inkscape (http://www.inkscape.org/) -->

<svg
   xmlns:dc="http://purl.org/dc/elements/1.1/"
   xmlns:cc="http://creativecommons.org/ns#"
   xmlns:rdf="http://www.w3.org/1999/02/22-rdf-syntax-ns#"
   xmlns:svg="http://www.w3.org/2000/svg"
   xmlns="http://www.w3.org/2000/svg"
   xmlns:sodipodi="http://sodipodi.sourceforge.net/DTD/sodipodi-0.dtd"
   xmlns:inkscape="http://www.inkscape.org/namespaces/inkscape"
   width="1300.8"
   height="608.79999"
   viewBox="0 0 1300.8001 608.80001"
   id="svg14167"
   version="1.1"
   inkscape:version="0.92.1 r15371"
   sodipodi:docname="SADC_road_sign_R1.5.svg">
  <defs
     id="defs14169" />
  <sodipodi:namedview
     id="base"
     pagecolor="#ffffff"
     bordercolor="#666666"
     borderopacity="1.0"
     inkscape:pageopacity="0.0"
     inkscape:pageshadow="2"
     inkscape:zoom="0.49497475"
     inkscape:cx="891.92141"
     inkscape:cy="365.37027"
     inkscape:document-units="px"
     inkscape:current-layer="layer1"
     showgrid="false"
     units="px"
     fit-margin-top="0"
     fit-margin-left="0"
     fit-margin-right="0"
     fit-margin-bottom="0"
     inkscape:window-width="1920"
     inkscape:window-height="1057"
     inkscape:window-x="-8"
     inkscape:window-y="-8"
     inkscape:window-maximized="1"
     inkscape:snap-global="false" />
  <metadata
     id="metadata14172">
    <rdf:RDF>
      <cc:Work
         rdf:about="">
        <dc:format>image/svg+xml</dc:format>
        <dc:type
           rdf:resource="http://purl.org/dc/dcmitype/StillImage" />
        <dc:title></dc:title>
      </cc:Work>
    </rdf:RDF>
  </metadata>
  <g
     inkscape:label="Layer 1"
     inkscape:groupmode="layer"
     id="layer1"
     transform="translate(-1437.1995,-398.3636)">
    <path
       sodipodi:nodetypes="ccccccccc"
       style="fill:#2b1100;fill-opacity:1;stroke:none"
       d="m 1437.5995,576.84249 178.0789,-178.07897 251.8422,4e-5 178.0789,178.07891 10e-5,251.84228 -178.079,178.07885 H 1615.6784 L 1437.5995,828.68469 Z"
       id="path4275"
       inkscape:connector-curvature="0" />
    <path
       sodipodi:nodetypes="ccccccccc"
       style="fill:#ffffff;fill-opacity:1;stroke:none"
       d="m 1441.5993,827.02769 v -248.5278 l 175.736,-175.73613 248.5278,2e-5 175.7362,175.73621 -10e-5,248.52771 -175.7361,175.7361 -248.5277,1e-4 z"
       id="path4275-3"
       inkscape:connector-curvature="0" />
    <path
       inkscape:connector-curvature="0"
       id="path835"
       d="m 1627.6908,427.76372 227.8171,2e-5 161.0916,161.09138 -10e-5,227.81723 -161.0915,161.09158 -227.8171,-10e-5 -161.0915,-161.09145 -10e-5,-227.8172 z"
       style="fill:#e20a16;fill-opacity:1;stroke:none;stroke-width:1"
       sodipodi:nodetypes="ccccccccc" />
    <path
       inkscape:connector-curvature="0"
       id="path4491"
       d="m 2137.5995,827.02769 v -248.5278 l 175.736,-175.73613 248.5273,2e-5 175.7367,175.73621 -10e-5,248.52771 -175.7366,175.7361 -248.5273,1e-4 z"
       style="fill:#000000;fill-opacity:1;stroke:none"
       sodipodi:nodetypes="ccccccccc" />
    <path
       sodipodi:nodetypes="ccccccccc"
       style="fill:#ffd70a;fill-opacity:1;stroke:none;stroke-width:1"
       d="m 2323.6909,427.76372 227.8167,2e-5 161.0919,161.09138 v 227.81723 l -161.0919,161.09158 -227.8167,-10e-5 -161.0915,-161.09145 -1e-4,-227.8172 z"
       id="path4493"
       inkscape:connector-curvature="0" />
    <g
       aria-label="GO"
       style="font-style:normal;font-variant:normal;font-weight:normal;font-stretch:normal;font-size:309.27835083px;line-height:7731.95898438px;font-family:'DIN 1451 Engschrift';-inkscape-font-specification:'DIN 1451 Engschrift';letter-spacing:0px;word-spacing:0px;fill:#d40000;fill-opacity:1;stroke:none;stroke-width:1"
       id="text4497"
       transform="translate(697.51432,1.8206465)">
      <g
         aria-label="GO"
         style="font-style:normal;font-variant:normal;font-weight:normal;font-stretch:normal;font-size:309.27835083px;line-height:7731.95898438px;font-family:'DIN 1451 Engschrift';-inkscape-font-specification:'DIN 1451 Engschrift';letter-spacing:0px;word-spacing:0px;fill:#d40000;fill-opacity:1;stroke:none;stroke-width:0.99999994"
         id="text4516" />
    </g>
    <g
       aria-label="GO"
       style="font-style:normal;font-variant:normal;font-weight:normal;font-stretch:normal;font-size:290.05523682px;line-height:1.25;font-family:'DIN 1451 Std';-inkscape-font-specification:'DIN 1451 Std';letter-spacing:0px;word-spacing:0px;fill:#000000;fill-opacity:1;stroke:none;stroke-width:1.5107044"
       id="text61"
       transform="translate(763.41438,474.02001)">
      <path
         d="m 1559.8352,174.21349 q 0,-12.47237 4.3508,-22.0442 4.3508,-9.57182 11.3121,-15.66298 7.2514,-6.38121 15.9531,-9.57182 8.9917,-3.19061 17.9834,-3.19061 8.9917,0 17.6934,3.19061 8.9917,3.19061 15.953,9.57182 7.2514,6.09116 11.6022,15.66298 4.3508,9.57183 4.3508,22.0442 v 10.44199 h -29.5856 v -10.44199 q 0,-10.73204 -6.0912,-15.66298 -5.8011,-5.221 -13.9226,-5.221 -8.1215,0 -14.2127,5.221 -5.8011,4.93094 -5.8011,15.66298 v 109.06077 q 0,10.73204 5.8011,15.95304 6.0912,4.93094 14.2127,4.93094 8.1215,0 13.9226,-4.93094 6.0912,-5.221 6.0912,-15.95304 v -38.8674 h -23.4945 v -26.10497 h 53.0801 v 64.97237 q 0,12.76243 -4.3508,22.33425 -4.3508,9.28177 -11.6022,15.66299 -6.9613,6.09116 -15.953,9.28176 -8.7017,3.19061 -17.6934,3.19061 -8.9917,0 -17.9834,-3.19061 -8.7017,-3.1906 -15.9531,-9.28176 -6.9613,-6.38122 -11.3121,-15.66299 -4.3508,-9.57182 -4.3508,-22.33425 z"
         style="fill:#000000;stroke:none;stroke-width:1.5107044"
         id="path63"
         inkscape:connector-curvature="0" />
      <path
         d="m 1683.3367,174.21349 q 0,-12.47237 4.3509,-22.0442 4.3508,-9.57182 11.3121,-15.66298 7.2514,-6.38121 15.9531,-9.57182 8.9917,-3.19061 17.9834,-3.19061 8.9917,0 17.6934,3.19061 8.9917,3.19061 15.953,9.57182 7.2514,6.09116 11.6022,15.66298 4.3508,9.57183 4.3508,22.0442 v 109.06077 q 0,12.76243 -4.3508,22.33425 -4.3508,9.28177 -11.6022,15.66299 -6.9613,6.09116 -15.953,9.28176 -8.7017,3.19061 -17.6934,3.19061 -8.9917,0 -17.9834,-3.19061 -8.7017,-3.1906 -15.9531,-9.28176 -6.9613,-6.38122 -11.3121,-15.66299 -4.3509,-9.57182 -4.3509,-22.33425 z m 29.5857,109.06077 q 0,10.73204 5.8011,15.95304 6.0911,4.93094 14.2127,4.93094 8.1215,0 13.9226,-4.93094 6.0912,-5.221 6.0912,-15.95304 V 174.21349 q 0,-10.73204 -6.0912,-15.66298 -5.8011,-5.221 -13.9226,-5.221 -8.1216,0 -14.2127,5.221 -5.8011,4.93094 -5.8011,15.66298 z"
         style="fill:#000000;stroke:none;stroke-width:1.5107044"
         id="path65"
         inkscape:connector-curvature="0" />
    </g>
    <path
       d="m 1617.0188,658.96563 h -29.5857 v -6.6713 q 0,-10.1519 -4.9309,-17.4033 -4.6409,-7.5415 -15.9531,-7.5415 -6.0911,0 -10.1519,2.3205 -3.7707,2.3204 -6.0911,6.0912 -2.0304,3.4806 -2.9006,8.4116 -0.8702,4.6408 -0.8702,9.8618 0,6.0912 0.2901,10.442 0.5801,4.0608 2.3204,7.2514 1.7404,2.9006 4.931,5.221 3.4806,2.3204 9.2817,4.6409 l 22.6243,8.9917 q 9.8619,3.7707 15.9531,8.9917 6.0911,4.9309 9.2818,11.8923 3.4806,6.6712 4.6408,15.663 1.1603,8.7016 1.1603,20.0138 0,13.0524 -2.6106,24.3646 -2.6104,11.0221 -8.7016,19.1437 -5.8011,7.8315 -15.663,12.4724 -9.8619,4.6408 -24.0746,4.6408 -10.732,0 -20.0138,-3.7707 -9.2818,-3.7707 -15.953,-10.1519 -6.6713,-6.6713 -10.7321,-15.663 -3.7707,-8.9917 -3.7707,-19.4337 v -11.0221 h 29.5857 v 9.2817 q 0,8.1216 4.6408,14.7929 4.931,6.3812 16.2431,6.3812 7.5415,0 11.6022,-2.0304 4.3509,-2.3205 6.3812,-6.0912 2.3205,-4.0607 2.9006,-9.8619 0.5801,-5.8011 0.5801,-12.7624 0,-8.1215 -0.5801,-13.3425 -0.5801,-5.221 -2.6105,-8.4116 -1.7403,-3.1906 -5.221,-5.221 -3.1906,-2.0304 -8.7016,-4.3508 l -21.1741,-8.7017 q -19.1436,-7.8315 -25.8149,-20.5939 -6.3812,-13.0525 -6.3812,-32.4862 0,-11.6022 3.1906,-22.0442 3.1906,-10.442 9.2818,-17.9834 6.3812,-7.5415 15.953,-11.8923 9.5718,-4.6409 22.3343,-4.6409 11.0221,0 20.0138,4.0608 9.2817,4.0608 15.663,10.732 6.6712,6.6713 10.1519,15.0829 3.4806,8.1216 3.4806,16.8232 z"
       style="font-style:normal;font-variant:normal;font-weight:normal;font-stretch:normal;font-size:290.05523682px;line-height:1.25;font-family:'DIN 1451 Std';-inkscape-font-specification:'DIN 1451 Std';letter-spacing:5.6500001px;word-spacing:0px;fill:#ffffff;fill-opacity:1;stroke:none;stroke-width:1.5107044"
       id="path921"
       inkscape:connector-curvature="0" />
    <path
       d="m 1664.2159,627.34953 h -34.2265 v -27.8453 h 98.0387 v 27.8453 h -34.2265 v 178.6741 h -29.5857 z"
       style="font-style:normal;font-variant:normal;font-weight:normal;font-stretch:normal;font-size:290.05523682px;line-height:1.25;font-family:'DIN 1451 Std';-inkscape-font-specification:'DIN 1451 Std';letter-spacing:5.6500001px;word-spacing:0px;fill:#ffffff;fill-opacity:1;stroke:none;stroke-width:1.5107044"
       id="path923"
       inkscape:connector-curvature="0" />
    <path
       d="m 1741.5994,648.23353 q 0,-12.4723 4.3509,-22.0442 4.3508,-9.5718 11.3121,-15.663 7.2514,-6.3812 15.953,-9.5718 8.9917,-3.1906 17.9835,-3.1906 8.9917,0 17.6933,3.1906 8.9917,3.1906 15.9531,9.5718 7.2513,6.0912 11.6022,15.663 4.3508,9.5719 4.3508,22.0442 v 109.0608 q 0,12.7624 -4.3508,22.3342 -4.3509,9.2818 -11.6022,15.6631 -6.9614,6.0911 -15.9531,9.2817 -8.7016,3.1906 -17.6933,3.1906 -8.9918,0 -17.9835,-3.1906 -8.7016,-3.1906 -15.953,-9.2817 -6.9613,-6.3813 -11.3121,-15.6631 -4.3509,-9.5718 -4.3509,-22.3342 z m 29.5857,109.0608 q 0,10.732 5.8011,15.953 6.0911,4.931 14.2127,4.931 8.1215,0 13.9226,-4.931 6.0912,-5.221 6.0912,-15.953 v -109.0608 q 0,-10.732 -6.0912,-15.663 -5.8011,-5.221 -13.9226,-5.221 -8.1216,0 -14.2127,5.221 -5.8011,4.931 -5.8011,15.663 z"
       style="font-style:normal;font-variant:normal;font-weight:normal;font-stretch:normal;font-size:290.05523682px;line-height:1.25;font-family:'DIN 1451 Std';-inkscape-font-specification:'DIN 1451 Std';letter-spacing:5.6500001px;word-spacing:0px;fill:#ffffff;fill-opacity:1;stroke:none;stroke-width:1.5107044"
       id="path925"
       inkscape:connector-curvature="0" />
    <path
       d="m 1872.4914,599.50423 h 44.3785 q 12.1823,0 21.4641,3.1907 9.2817,3.1906 16.8232,11.3121 7.5414,8.1216 10.4419,19.1437 2.9006,10.732 2.9006,29.2955 0,13.6326 -1.7403,23.4945 -1.4503,9.5718 -6.6713,17.9834 -6.0912,10.152 -16.2431,15.9531 -10.1519,5.511 -26.6851,5.511 h -15.0828 v 80.6354 h -29.5857 z m 29.5857,98.0387 h 14.2127 q 8.9917,0 13.9226,-2.6105 4.931,-2.6105 7.2514,-6.9613 2.3204,-4.6409 2.6105,-11.0221 0.5801,-6.3812 0.5801,-14.2127 0,-7.2514 -0.5801,-13.6326 -0.2901,-6.6713 -2.6105,-11.3122 -2.0304,-4.9309 -6.6713,-7.5414 -4.6409,-2.9006 -13.3425,-2.9006 h -15.3729 z"
       style="font-style:normal;font-variant:normal;font-weight:normal;font-stretch:normal;font-size:290.05523682px;line-height:1.25;font-family:'DIN 1451 Std';-inkscape-font-specification:'DIN 1451 Std';letter-spacing:5.6500001px;word-spacing:0px;fill:#ffffff;fill-opacity:1;stroke:none;stroke-width:1.5107044"
       id="path927"
       inkscape:connector-curvature="0" />
  </g>
</svg>
