<?xml version="1.0" encoding="UTF-8" standalone="no"?>
<!-- Created with Inkscape (http://www.inkscape.org/) -->

<svg
   xmlns:dc="http://purl.org/dc/elements/1.1/"
   xmlns:cc="http://creativecommons.org/ns#"
   xmlns:rdf="http://www.w3.org/1999/02/22-rdf-syntax-ns#"
   xmlns:svg="http://www.w3.org/2000/svg"
   xmlns="http://www.w3.org/2000/svg"
   xmlns:sodipodi="http://sodipodi.sourceforge.net/DTD/sodipodi-0.dtd"
   xmlns:inkscape="http://www.inkscape.org/namespaces/inkscape"
   width="908.79999"
   height="908.79999"
   viewBox="0 0 908.8 908.80001"
   id="svg2"
   version="1.1"
   inkscape:version="0.91 r13725"
   sodipodi:docname="drawing 1.svg">
  <defs
     id="defs4">
    <pattern
       y="0"
       x="0"
       height="6"
       width="6"
       patternUnits="userSpaceOnUse"
       id="EMFhbasepattern" />
  </defs>
  <sodipodi:namedview
     id="base"
     pagecolor="#ffffff"
     bordercolor="#666666"
     borderopacity="1.0"
     inkscape:pageopacity="0.0"
     inkscape:pageshadow="2"
     inkscape:zoom="0.49497475"
     inkscape:cx="843.82542"
     inkscape:cy="321.89097"
     inkscape:document-units="px"
     inkscape:current-layer="layer1"
     showgrid="false"
     units="px"
     fit-margin-top="0"
     fit-margin-left="0"
     fit-margin-right="0"
     fit-margin-bottom="0"
     inkscape:window-width="1920"
     inkscape:window-height="1057"
     inkscape:window-x="-8"
     inkscape:window-y="-8"
     inkscape:window-maximized="1" />
  <metadata
     id="metadata7">
    <rdf:RDF>
      <cc:Work
         rdf:about="">
        <dc:format>image/svg+xml</dc:format>
        <dc:type
           rdf:resource="http://purl.org/dc/dcmitype/StillImage" />
        <dc:title></dc:title>
      </cc:Work>
    </rdf:RDF>
  </metadata>
  <g
     inkscape:label="Layer 1"
     inkscape:groupmode="layer"
     id="layer1"
     transform="translate(0,-143.56211)">
    <circle
       style="fill:#000000;fill-opacity:1;stroke:none;stroke-width:12;stroke-miterlimit:2.61299992;stroke-dasharray:none;stroke-opacity:1"
       id="path4136"
       cx="454.39999"
       cy="597.96216"
       r="454" />
    <circle
       r="450"
       cy="597.96216"
       cx="454.39999"
       id="circle4138"
       style="fill:#ffffff;fill-opacity:1;stroke:none;stroke-width:12;stroke-miterlimit:2.61299992;stroke-dasharray:none;stroke-opacity:1" />
    <circle
       style="fill:#00559b;fill-opacity:1;stroke:none;stroke-width:12;stroke-miterlimit:2.61299992;stroke-dasharray:none;stroke-opacity:1"
       id="circle4140"
       cx="454.39999"
       cy="597.96216"
       r="405" />
    <flowRoot
       xml:space="preserve"
       id="flowRoot4142"
       style="font-style:normal;font-weight:normal;font-size:40px;line-height:125%;font-family:sans-serif;letter-spacing:0px;word-spacing:0px;fill:#000000;fill-opacity:1;stroke:none;stroke-width:1px;stroke-linecap:butt;stroke-linejoin:miter;stroke-opacity:1"><flowRegion
         id="flowRegion4144"><rect
           id="rect4146"
           width="159.6041"
           height="284.86301"
           x="-395.9798"
           y="193.73254" /></flowRegion><flowPara
         id="flowPara4148" /></flowRoot>    <g
       style="font-style:normal;font-variant:normal;font-weight:normal;font-stretch:normal;font-size:276.38327026px;line-height:125%;font-family:'DIN 1451 Mittelschrift';-inkscape-font-specification:'DIN 1451 Mittelschrift';letter-spacing:0px;word-spacing:0px;fill:#000000;fill-opacity:1;stroke:none;stroke-width:5;stroke-linecap:butt;stroke-linejoin:miter;stroke-miterlimit:4;stroke-dasharray:none;stroke-opacity:1"
       id="text4170" />
    <g
       style="font-style:normal;font-variant:normal;font-weight:normal;font-stretch:normal;font-size:594.22418213px;line-height:125%;font-family:'DIN 1451 Mittelschrift';-inkscape-font-specification:'DIN 1451 Mittelschrift';letter-spacing:0px;word-spacing:0px;fill:#000000;fill-opacity:1;stroke:#000000;stroke-width:9.99988461;stroke-linecap:butt;stroke-linejoin:miter;stroke-miterlimit:4;stroke-dasharray:none;stroke-opacity:1"
       id="text5413"
       transform="translate(-9.9999959,0)" />
    <path
       d="M 305.75862,528.23509 C 437.68517,589.70419 374.974,780.8844 232.21962,753.2494 80.442022,709.1892 130.70873,494.65989 286.0204,521.05269 l 41.24349,-125.53369 1.76854,-4.4755 4.5116,-8.0817 7.18096,-7.1794 8.04568,-5.3388 8.94798,-2.7069 9.88792,-1.7745 33.16022,0 4.474,1.7745 4.51159,2.7069 1.76855,4.4726 0,4.4724 -2.67087,4.5146 -3.60927,2.6768 -4.474,0.9024 -33.16022,0 -7.18096,0.8723 -6.27863,3.6062 -4.474,4.4756 -2.70695,6.2801 -10.75265,30.4894 0.90233,3.5701 1.80464,1.8047 2.67085,0.9023 217.87245,0 8.98559,-23.31 0,-1.8045 -0.90231,-2.6769 -2.70696,-1.8047 -51.0938,-9.8504 -1.80465,-0.9023 0,-2.7069 2.70695,-3.5731 3.57168,-2.707 92.37491,0 3.57167,0.9022 2.70697,2.707 0.9023,3.5732 0,6.2771 -0.9023,3.5732 -2.70697,2.707 -3.57167,0.9024 -14.36192,0 -2.66784,0.9023 -1.80465,2.6769 -9.8879,25.1113 33.1978,84.29179 c 100.57097,-31.8428 188.05833,76.7723 138.95713,168.54721 -51.54497,98.804 -198.81094,77.8249 -221.44411,-31.39171 l -49.28918,0 -8.12087,-0.9024 -7.14336,-3.5701 -6.27863,-5.3778 -2.70696,-2.707 -140.76176,-159.5631 -12.51967,39.4403"
       style="fill:#ffffff;fill-opacity:1;fill-rule:evenodd;stroke:none"
       id="path28262"
       inkscape:connector-curvature="0" />
    <path
       d="M 298.57766,550.64279 C 404.82572,604.40589 346.28778,758.4018 231.31731,728.174 116.83557,687.0433 160.56047,523.98829 278.83945,544.36559 l -30.49087,92.3344 0,5.3777 1.80464,3.6093 3.57168,3.5702 4.51158,0.9024 4.43642,-0.9024 3.60926,-2.6769 1.76554,-3.6092 30.52846,-92.3373"
       style="fill:#00559b;fill-opacity:1;fill-rule:evenodd;stroke:none"
       id="path28264"
       inkscape:connector-curvature="0" />
    <path
       d="m 624.01405,545.26799 c 79.78002,-19.9654 145.12296,59.0236 111.2108,133.5792 -42.10821,78.76341 -153.01824,68.50111 -178.43356,-17.9321 l 105.79689,0 4.474,-2.7069 2.70696,-3.5702 0.9023,-4.4755 -0.9023,-4.4725 -3.60928,-3.6092 -4.474,-1.7746 -37.67181,-95.0413"
       style="fill:#00559b;fill-opacity:1;fill-rule:evenodd;stroke:none"
       id="path28266"
       inkscape:connector-curvature="0" />
    <path
       d="m 604.31342,553.31059 34.96486,86.9986 -86.99859,0 c 0,-35.4161 20.52775,-70.4922 52.03373,-86.9986"
       style="fill:#00559b;fill-opacity:1;fill-rule:nonzero;stroke:none"
       id="path28268"
       inkscape:connector-curvature="0" />
    <path
       d="m 551.41496,460.074 -69.065,180.23519 -154.18375,-172.15339 -0.90232,-0.9024 0,-2.6768 0.90232,-2.707 3.57168,-1.8047 219.67707,0"
       style="fill:#00559b;fill-opacity:1;fill-rule:evenodd;stroke:none"
       id="path28270"
       inkscape:connector-curvature="0" />
    <path
       d="m 596.23015,530.90599 -25.07696,-62.75019 -4.5116,10.7525 -61.84644,161.40089 23.30991,0 c 0.93842,-46.8815 25.94167,-88.1626 68.12509,-109.4032"
       style="fill:#00559b;fill-opacity:1;fill-rule:nonzero;stroke:none"
       id="path28272"
       inkscape:connector-curvature="0" />
  </g>
</svg>
