<?xml version="1.0" encoding="UTF-8" standalone="no"?>
<!-- Created with Inkscape (http://www.inkscape.org/) -->

<svg
   xmlns:dc="http://purl.org/dc/elements/1.1/"
   xmlns:cc="http://creativecommons.org/ns#"
   xmlns:rdf="http://www.w3.org/1999/02/22-rdf-syntax-ns#"
   xmlns:svg="http://www.w3.org/2000/svg"
   xmlns="http://www.w3.org/2000/svg"
   xmlns:sodipodi="http://sodipodi.sourceforge.net/DTD/sodipodi-0.dtd"
   xmlns:inkscape="http://www.inkscape.org/namespaces/inkscape"
   width="908.79999"
   height="908.79999"
   viewBox="0 0 908.8 908.80001"
   id="svg2"
   version="1.1"
   inkscape:version="0.91 r13725"
   sodipodi:docname="drawing 1.svg">
  <defs
     id="defs4">
    <pattern
       y="0"
       x="0"
       height="6"
       width="6"
       patternUnits="userSpaceOnUse"
       id="EMFhbasepattern" />
  </defs>
  <sodipodi:namedview
     id="base"
     pagecolor="#ffffff"
     bordercolor="#666666"
     borderopacity="1.0"
     inkscape:pageopacity="0.0"
     inkscape:pageshadow="2"
     inkscape:zoom="0.49497475"
     inkscape:cx="538.86974"
     inkscape:cy="114.79412"
     inkscape:document-units="px"
     inkscape:current-layer="layer1"
     showgrid="false"
     units="px"
     fit-margin-top="0"
     fit-margin-left="0"
     fit-margin-right="0"
     fit-margin-bottom="0"
     inkscape:window-width="1920"
     inkscape:window-height="1057"
     inkscape:window-x="-8"
     inkscape:window-y="-8"
     inkscape:window-maximized="1" />
  <metadata
     id="metadata7">
    <rdf:RDF>
      <cc:Work
         rdf:about="">
        <dc:format>image/svg+xml</dc:format>
        <dc:type
           rdf:resource="http://purl.org/dc/dcmitype/StillImage" />
        <dc:title></dc:title>
      </cc:Work>
    </rdf:RDF>
  </metadata>
  <g
     inkscape:label="Layer 1"
     inkscape:groupmode="layer"
     id="layer1"
     transform="translate(0,-143.56208)">
    <circle
       style="fill:#000000;fill-opacity:1;stroke:none;stroke-width:12;stroke-miterlimit:2.61299992;stroke-dasharray:none;stroke-opacity:1"
       id="path4136"
       cx="454.39999"
       cy="597.96216"
       r="454" />
    <circle
       r="450"
       cy="597.96216"
       cx="454.39999"
       id="circle4138"
       style="fill:#ffffff;fill-opacity:1;stroke:none;stroke-width:12;stroke-miterlimit:2.61299992;stroke-dasharray:none;stroke-opacity:1" />
    <circle
       style="fill:#00559b;fill-opacity:1;stroke:none;stroke-width:12;stroke-miterlimit:2.61299992;stroke-dasharray:none;stroke-opacity:1"
       id="circle4140"
       cx="454.39999"
       cy="597.96216"
       r="405" />
    <flowRoot
       xml:space="preserve"
       id="flowRoot4142"
       style="font-style:normal;font-weight:normal;font-size:40px;line-height:125%;font-family:sans-serif;letter-spacing:0px;word-spacing:0px;fill:#000000;fill-opacity:1;stroke:none;stroke-width:1px;stroke-linecap:butt;stroke-linejoin:miter;stroke-opacity:1"><flowRegion
         id="flowRegion4144"><rect
           id="rect4146"
           width="159.6041"
           height="284.86301"
           x="-395.9798"
           y="193.73254" /></flowRegion><flowPara
         id="flowPara4148" /></flowRoot>    <g
       style="font-style:normal;font-variant:normal;font-weight:normal;font-stretch:normal;font-size:276.38327026px;line-height:125%;font-family:'DIN 1451 Mittelschrift';-inkscape-font-specification:'DIN 1451 Mittelschrift';letter-spacing:0px;word-spacing:0px;fill:#000000;fill-opacity:1;stroke:none;stroke-width:5;stroke-linecap:butt;stroke-linejoin:miter;stroke-miterlimit:4;stroke-dasharray:none;stroke-opacity:1"
       id="text4170" />
    <g
       style="font-style:normal;font-variant:normal;font-weight:normal;font-stretch:normal;font-size:594.22418213px;line-height:125%;font-family:'DIN 1451 Mittelschrift';-inkscape-font-specification:'DIN 1451 Mittelschrift';letter-spacing:0px;word-spacing:0px;fill:#000000;fill-opacity:1;stroke:#000000;stroke-width:9.99988461;stroke-linecap:butt;stroke-linejoin:miter;stroke-miterlimit:4;stroke-dasharray:none;stroke-opacity:1"
       id="text5413"
       transform="translate(-9.9999959,0)" />
    <path
       d="m 718.7976,536.32591 c -79.1558,36.8813 -41.5292,151.5895 44.1234,135.0086 91.06649,-26.4363 60.90649,-155.1537 -32.2804,-139.3181 l -24.7461,-75.3201 -1.0611,-2.6854 -2.707,-4.8489 -4.3085,-4.3078 -4.8275,-3.2032 -5.3688,-1.6242 -5.9327,-1.0647 -19.8961,0 -2.6844,1.0647 -2.707,1.6242 -1.0611,2.6835 0,2.6836 1.6025,2.7086 2.1656,1.6062 2.6844,0.5413 19.8961,0 4.3085,0.5235 3.7673,2.1637 2.6844,2.6853 1.6241,3.768 6.4516,18.2936 -0.5414,2.1422 -1.0828,1.0828 -1.6025,0.5415 -130.7234,0 -5.3914,-13.9862 0,-1.0826 0.5414,-1.6061 1.6242,-1.0829 30.6563,-5.9102 1.0827,-0.5414 0,-1.6241 -1.6241,-2.1439 -2.143,-1.6242 -55.425,0 -2.143,0.5414 -1.6241,1.6241 -0.5414,2.1439 0,3.7663 0.5414,2.144 1.6241,1.6241 2.143,0.5414 8.6172,0 1.6007,0.5415 1.0828,1.6061 5.9327,15.0668 -19.9186,50.575 c -60.3426,-19.1056 -112.835,46.0633 -83.3743,101.1283 30.927,59.2823 119.2865,46.6949 132.8664,-18.835 l 29.5736,0 4.8724,-0.5414 4.2861,-2.142 3.7671,-3.2268 1.6242,-1.6242 84.457,-95.7377 7.5118,23.6641"
       style="fill:#ffffff;fill-opacity:1;fill-rule:evenodd;stroke:none"
       id="path28262"
       inkscape:connector-curvature="0" />
    <path
       d="m 723.1062,549.77041 c -63.7488,32.2579 -28.626,124.6553 40.3562,106.5188 68.68909,-24.6785 42.4541,-122.5113 -28.5133,-110.285 l 18.2946,55.4006 0,3.2265 -1.0828,2.1657 -2.1431,2.142 -2.7069,0.5415 -2.6619,-0.5415 -2.1655,-1.606 -1.0593,-2.1656 -18.3171,-55.4024"
       style="fill:#00559b;fill-opacity:1;fill-rule:evenodd;stroke:none"
       id="path28264"
       inkscape:connector-curvature="0" />
    <path
       d="m 527.8445,546.54561 c -47.868,-11.9792 -87.0738,35.4142 -66.7265,80.1474 25.2649,47.2581 91.8109,41.1008 107.0601,-10.7591 l -63.4781,0 -2.6844,-1.6242 -1.6242,-2.1422 -0.5414,-2.6852 0.5414,-2.6835 2.1656,-2.1656 2.6844,-1.0647 22.6031,-57.0247"
       style="fill:#00559b;fill-opacity:1;fill-rule:evenodd;stroke:none"
       id="path28266"
       inkscape:connector-curvature="0" />
    <path
       d="m 539.6648,551.37131 -20.9789,52.199 52.1992,0 c 0,-21.2497 -12.3167,-42.2953 -31.2203,-52.199"
       style="fill:#00559b;fill-opacity:1;fill-rule:nonzero;stroke:none"
       id="path28268"
       inkscape:connector-curvature="0" />
    <path
       d="m 571.4039,495.42921 41.439,108.1411 92.5102,-103.292 0.5414,-0.5415 0,-1.6061 -0.5414,-1.6242 -2.143,-1.0828 -131.8062,0"
       style="fill:#00559b;fill-opacity:1;fill-rule:evenodd;stroke:none"
       id="path28270"
       inkscape:connector-curvature="0" />
    <path
       d="m 544.5148,537.92841 15.0462,-37.6501 2.7069,6.4515 37.1079,96.8405 -13.986,0 c -0.563,-28.1289 -15.565,-52.8976 -40.875,-65.6419"
       style="fill:#00559b;fill-opacity:1;fill-rule:nonzero;stroke:none"
       id="path28272"
       inkscape:connector-curvature="0" />
    <path
       d="m 304.52303,592.32401 -11.97557,-62.3437 29.73084,8.6833 6.57344,85.4565 c 1.10867,0.9773 4.4642,1.2456 5.8181,1.2456 2.66871,0 6.57353,-0.5884 9.06542,-1.6585 6.20076,-2.8053 11.5262,-11.353 11.14554,-18.1714 l 0,-85.4564 -95.35569,-57.0052 c -4.70943,-3.0806 -12.14819,-5.7792 -17.75527,-5.7792 l -6.61273,0 c -11.76854,0 -28.72819,12.7372 -32.22393,23.9515 l -30.56178,71.8536 -37.96942,24.7823 c -3.94392,1.5209 -8.65335,8.5846 -8.65335,12.807 l 0,4.1198 c 0,1.2755 2.42338,7.5064 3.70856,8.2414 l 68.94717,-16.9247 18.17033,-22.671 9.48877,28.8691 z"
       style="fill:#ffffff;fill-opacity:1;fill-rule:nonzero;stroke:none;stroke-width:0.02928053;stroke-linecap:butt;stroke-linejoin:miter;stroke-miterlimit:3.86400008;stroke-dasharray:none;stroke-opacity:1"
       id="path31408"
       inkscape:connector-curvature="0"
       sodipodi:nodetypes="ccccsccccsscccssccccc" />
    <path
       d="m 263.23078,665.19681 51.1906,157.7249 c 16.16402,0.7879 29.73184,-10.0016 29.73184,-26.8226 0,-1.4521 -0.58839,-3.4935 -0.78386,-4.9555 l -35.0914,-178.8054 -73.07248,0 -53.68029,100.7557 -22.28998,104.4585 c 1.27541,1.1379 10.38312,2.0803 12.39053,2.0803 13.46481,0 26.20169,-10.3138 30.52747,-22.7049 l 23.95204,-74.7258 z"
       style="fill:#ffffff;fill-opacity:1;fill-rule:nonzero;stroke:none;stroke-width:0.02928053;stroke-linecap:butt;stroke-linejoin:miter;stroke-miterlimit:3.86400008;stroke-dasharray:none;stroke-opacity:1"
       id="path31410"
       inkscape:connector-curvature="0"
       sodipodi:nodetypes="ccscccccsccc" />
    <circle
       style="fill:#ffffff;fill-opacity:1;stroke:none;stroke-width:15.61041641;stroke-linecap:square;stroke-linejoin:round;stroke-miterlimit:4;stroke-dasharray:none;stroke-opacity:1;paint-order:normal"
       id="path33753"
       cx="-226.67273"
       cy="417.07211"
       r="32.910046"
       transform="scale(-1,1)" />
    <rect
       style="fill:#ffffff;fill-opacity:1;stroke:none;stroke-width:4;stroke-miterlimit:4;stroke-dasharray:none;stroke-opacity:1"
       id="rect5543"
       width="37.5"
       height="840"
       x="-416.90012"
       y="177.96211"
       transform="scale(-1,1)" />
  </g>
</svg>
