<?xml version="1.0" encoding="UTF-8" standalone="no"?>
<!-- Created with Inkscape (http://www.inkscape.org/) -->

<svg
   width="908.79999"
   height="908.79999"
   viewBox="0 0 908.8 908.80001"
   id="svg2"
   version="1.1"
   inkscape:version="1.4.2 (f4327f4, 2025-05-13)"
   sodipodi:docname="SADC_road_sign_R116.svg"
   xmlns:inkscape="http://www.inkscape.org/namespaces/inkscape"
   xmlns:sodipodi="http://sodipodi.sourceforge.net/DTD/sodipodi-0.dtd"
   xmlns="http://www.w3.org/2000/svg"
   xmlns:svg="http://www.w3.org/2000/svg"
   xmlns:rdf="http://www.w3.org/1999/02/22-rdf-syntax-ns#"
   xmlns:cc="http://creativecommons.org/ns#"
   xmlns:dc="http://purl.org/dc/elements/1.1/">
  <defs
     id="defs4">
    <pattern
       y="0"
       x="0"
       height="6"
       width="6"
       patternUnits="userSpaceOnUse"
       id="EMFhbasepattern" />
  </defs>
  <sodipodi:namedview
     id="base"
     pagecolor="#ffffff"
     bordercolor="#666666"
     borderopacity="1.0"
     inkscape:pageopacity="0.0"
     inkscape:pageshadow="2"
     inkscape:zoom="0.35"
     inkscape:cx="362.85714"
     inkscape:cy="311.42857"
     inkscape:document-units="px"
     inkscape:current-layer="layer1"
     showgrid="false"
     units="px"
     fit-margin-top="0"
     fit-margin-left="0"
     fit-margin-right="0"
     fit-margin-bottom="0"
     inkscape:window-width="1920"
     inkscape:window-height="991"
     inkscape:window-x="-9"
     inkscape:window-y="-9"
     inkscape:window-maximized="1"
     inkscape:showpageshadow="2"
     inkscape:pagecheckerboard="0"
     inkscape:deskcolor="#d1d1d1" />
  <metadata
     id="metadata7">
    <rdf:RDF>
      <cc:Work
         rdf:about="">
        <dc:format>image/svg+xml</dc:format>
        <dc:type
           rdf:resource="http://purl.org/dc/dcmitype/StillImage" />
        <dc:title />
      </cc:Work>
    </rdf:RDF>
  </metadata>
  <g
     inkscape:label="Layer 1"
     inkscape:groupmode="layer"
     id="layer1"
     transform="translate(0,-143.5621)">
    <circle
       style="fill:#000000;fill-opacity:1;stroke:none;stroke-width:12;stroke-miterlimit:2.61299992;stroke-dasharray:none;stroke-opacity:1"
       id="path4136"
       cx="454.39999"
       cy="597.96216"
       r="454" />
    <circle
       r="450"
       cy="597.96216"
       cx="454.39999"
       id="circle4138"
       style="fill:#ffffff;fill-opacity:1;stroke:none;stroke-width:12;stroke-miterlimit:2.61299992;stroke-dasharray:none;stroke-opacity:1" />
    <circle
       style="fill:#00559b;fill-opacity:1;stroke:none;stroke-width:12;stroke-miterlimit:2.61299992;stroke-dasharray:none;stroke-opacity:1"
       id="circle4140"
       cx="454.39999"
       cy="597.96216"
       r="405" />
    <g
       style="font-style:normal;font-variant:normal;font-weight:normal;font-stretch:normal;font-size:276.38327026px;line-height:125%;font-family:'DIN 1451 Mittelschrift';-inkscape-font-specification:'DIN 1451 Mittelschrift';letter-spacing:0px;word-spacing:0px;fill:#000000;fill-opacity:1;stroke:none;stroke-width:5;stroke-linecap:butt;stroke-linejoin:miter;stroke-miterlimit:4;stroke-dasharray:none;stroke-opacity:1"
       id="text4170" />
    <g
       style="font-style:normal;font-variant:normal;font-weight:normal;font-stretch:normal;font-size:594.22418213px;line-height:125%;font-family:'DIN 1451 Mittelschrift';-inkscape-font-specification:'DIN 1451 Mittelschrift';letter-spacing:0px;word-spacing:0px;fill:#000000;fill-opacity:1;stroke:#000000;stroke-width:9.99988461;stroke-linecap:butt;stroke-linejoin:miter;stroke-miterlimit:4;stroke-dasharray:none;stroke-opacity:1"
       id="text5413"
       transform="translate(-9.9999959,0)" />
    <path
       id="path235"
       style="fill:#ffffff;fill-opacity:1;fill-rule:evenodd;stroke-width:1.8191;stroke-linecap:round;stroke-linejoin:round;stroke-miterlimit:5.6;stroke-dasharray:1.8191, 14.5528;paint-order:stroke fill markers"
       d="m 390.02684,309.78303 c -25.42087,0 -46.01254,19.94386 -47.04516,45.10223 h 31.62012 c 5.94923,0 10.73875,4.7895 10.73875,10.73884 0,5.94901 -4.78952,10.73852 -10.73875,10.73852 h -22.26406 c -5.20606,0 -9.39744,4.1915 -9.39744,9.39768 v 6.40834 24.6762 h 9.39192 9.72587 c 13.59478,-21.4102 37.34873,-33.04954 61.29173,-31.98421 9.5263,0.42367 19.12399,2.85617 28.05989,7.37418 3.142,-7.28485 4.8878,-15.35352 4.8877,-23.84537 0,-28.6687 -28.65635,-58.60591 -63.34421,-58.60641 z m 32.50879,93.39196 c -17.95719,-0.79867 -35.72719,8.03101 -45.67072,24.5797 l -6.70654,11.16101 -76.23379,127.21467 c 18.63483,9.46651 41.64642,3.23617 52.67809,-14.51702 l 31.37726,-50.50057 22.62561,-37.65888 112.94037,67.86309 35.7765,-59.07541 -102.8999,-61.83008 c -7.5222,-4.51968 -15.72448,-6.87335 -23.88688,-7.23651 z m -106.94865,72.46126 c -1.73177,0.0167 -3.40896,0.608 -4.76634,1.6835 l -78.20989,62.05075 h -36.57137 c -3.6444,0 -6.57962,13.73269 -6.57962,30.78938 0,17.05652 2.93522,30.78654 6.57962,30.78654 0,0 11.48435,-6.22684 17.43426,-8.90885 5.28624,-2.383 13.66892,-5.68251 18.76453,-6.20984 v 16.36069 c -46.61992,12.32585 -79.09344,54.5014 -79.09306,102.72314 8.2e-4,58.68007 47.57026,106.24967 106.25042,106.25047 49.73445,2e-4 92.81458,-34.49905 103.68373,-83.03128 h 13.22265 c -3.08694,15.53952 -9.21078,30.00538 -17.72129,42.75073 h 123.23759 84.2954 c 20.153,25.44353 50.8303,40.27985 83.2882,40.28055 58.6812,7e-4 106.2523,-47.56923 106.2531,-106.25047 5e-4,-58.68225 -47.5709,-106.25365 -106.2531,-106.25298 -56.5594,10e-4 -103.2044,44.30939 -106.1097,100.79397 -1.3589,3.91367 -3.0228,7.93834 -4.7995,10.51251 -3.8522,5.58084 -9.2022,10.46002 -15.3174,13.39085 -4.1786,2.00284 -10.3938,3.05184 -13.6891,2.42601 L 364.93114,575.56372 H 275.91902 V 565.6447 L 322.357,487.3961 c 2.64059,-4.45501 0.27789,-10.19851 -4.7332,-11.50602 -0.66477,-0.17416 -1.34966,-0.2595 -2.03682,-0.25383 z m 247.01603,4.75534 -35.2852,59.42308 H 424.6304 c -16.97307,0 -30.6348,13.66468 -30.6348,30.63771 0,8.31867 3.28258,15.84318 8.62743,21.35319 L 521.00591,713.9089 c 0.8433,-0.66267 1.6591,-1.35967 2.4453,-2.08917 15.8945,-14.76935 16.8052,-39.62805 2.034,-55.52091 l -61.6726,-66.37275 h 122.5725 v -0.1 c 16.2341,1.10017 31.7115,-7.00651 40.0516,-20.97786 12.2399,-20.5057 5.5389,-47.0514 -14.967,-59.29091 z M 259.39553,639.19313 c 4.84644,-1.6e-4 9.67803,0.53584 14.40664,1.59801 l -21.24566,42.44705 c -9.45578,2.98451 -15.88511,11.75502 -15.88594,21.6707 -5.3e-4,12.55135 10.17368,22.7267 22.72496,22.72753 12.55237,6.7e-4 22.72825,-10.17518 22.72772,-22.72753 -6.2e-4,-4.63301 -1.41714,-9.15501 -4.05979,-12.96035 l 20.07823,-40.11789 c 16.95004,12.37235 26.9722,32.09571 26.97245,53.08091 1.2e-4,36.29538 -29.42316,65.71875 -65.71861,65.71875 -36.29544,0 -65.71872,-29.42337 -65.7186,-65.71875 7e-5,-36.29539 29.42327,-65.71843 65.7186,-65.71843 z m 390.00628,0 c 36.2952,0 65.7185,29.42304 65.7185,65.71843 2e-4,36.29538 -29.4232,65.71875 -65.7185,65.71875 -36.2955,0 -65.7188,-29.42337 -65.7187,-65.71875 5e-4,-17.57153 7.0377,-34.41088 19.5401,-46.7579 l 24.6734,39.40839 c -0.8079,2.36517 -1.22,4.8475 -1.2199,7.34684 -5e-4,12.55135 10.1737,22.7267 22.7251,22.72753 12.5523,6.7e-4 22.7282,-10.17518 22.7277,-22.72753 -7e-4,-12.40402 -9.9472,-22.51653 -22.3497,-22.7222 l -24.1352,-38.55022 c 7.5761,-2.937 15.6315,-4.44367 23.7572,-4.44334 z"
       sodipodi:nodetypes="scsssssccccccccsccccccccccccccssccccccccccccccccscccccccccsscccccccccccccccccccssccsscccccsccc" />
  </g>
</svg>
