<?xml version="1.0" encoding="UTF-8" standalone="no"?>
<!-- Created with Inkscape (http://www.inkscape.org/) -->

<svg
   xmlns:dc="http://purl.org/dc/elements/1.1/"
   xmlns:cc="http://creativecommons.org/ns#"
   xmlns:rdf="http://www.w3.org/1999/02/22-rdf-syntax-ns#"
   xmlns:svg="http://www.w3.org/2000/svg"
   xmlns="http://www.w3.org/2000/svg"
   xmlns:sodipodi="http://sodipodi.sourceforge.net/DTD/sodipodi-0.dtd"
   xmlns:inkscape="http://www.inkscape.org/namespaces/inkscape"
   width="908.79999"
   height="908.79999"
   viewBox="0 0 908.8 908.80001"
   id="svg2"
   version="1.1"
   inkscape:version="0.91 r13725"
   sodipodi:docname="drawing 1.svg">
  <defs
     id="defs4">
    <pattern
       y="0"
       x="0"
       height="6"
       width="6"
       patternUnits="userSpaceOnUse"
       id="EMFhbasepattern" />
    <pattern
       y="0"
       x="0"
       height="6"
       width="6"
       patternUnits="userSpaceOnUse"
       id="EMFhbasepattern-1" />
  </defs>
  <sodipodi:namedview
     id="base"
     pagecolor="#ffffff"
     bordercolor="#666666"
     borderopacity="1.0"
     inkscape:pageopacity="0.0"
     inkscape:pageshadow="2"
     inkscape:zoom="0.49497475"
     inkscape:cx="130.11767"
     inkscape:cy="359.60941"
     inkscape:document-units="px"
     inkscape:current-layer="layer1"
     showgrid="false"
     units="px"
     fit-margin-top="0"
     fit-margin-left="0"
     fit-margin-right="0"
     fit-margin-bottom="0"
     inkscape:window-width="1920"
     inkscape:window-height="1057"
     inkscape:window-x="-8"
     inkscape:window-y="-8"
     inkscape:window-maximized="1" />
  <metadata
     id="metadata7">
    <rdf:RDF>
      <cc:Work
         rdf:about="">
        <dc:format>image/svg+xml</dc:format>
        <dc:type
           rdf:resource="http://purl.org/dc/dcmitype/StillImage" />
        <dc:title></dc:title>
      </cc:Work>
    </rdf:RDF>
  </metadata>
  <g
     inkscape:label="Layer 1"
     inkscape:groupmode="layer"
     id="layer1"
     transform="translate(0,-143.56202)">
    <circle
       style="fill:#000000;fill-opacity:1;stroke:none;stroke-width:12;stroke-miterlimit:2.61299992;stroke-dasharray:none;stroke-opacity:1"
       id="path4136"
       cx="454.39999"
       cy="597.96204"
       r="454" />
    <circle
       r="450"
       cy="597.96204"
       cx="454.39999"
       id="circle4138"
       style="fill:#ffffff;fill-opacity:1;stroke:none;stroke-width:12;stroke-miterlimit:2.61299992;stroke-dasharray:none;stroke-opacity:1" />
    <circle
       style="fill:#00559b;fill-opacity:1;stroke:none;stroke-width:12;stroke-miterlimit:2.61299992;stroke-dasharray:none;stroke-opacity:1"
       id="circle4140"
       cx="454.39999"
       cy="597.96204"
       r="405" />
    <flowRoot
       xml:space="preserve"
       id="flowRoot4142"
       style="font-style:normal;font-weight:normal;font-size:40px;line-height:125%;font-family:sans-serif;letter-spacing:0px;word-spacing:0px;fill:#000000;fill-opacity:1;stroke:none;stroke-width:1px;stroke-linecap:butt;stroke-linejoin:miter;stroke-opacity:1"><flowRegion
         id="flowRegion4144"><rect
           id="rect4146"
           width="159.6041"
           height="284.86301"
           x="-395.9798"
           y="193.73254" /></flowRegion><flowPara
         id="flowPara4148" /></flowRoot>    <g
       style="font-style:normal;font-variant:normal;font-weight:normal;font-stretch:normal;font-size:276.38327026px;line-height:125%;font-family:'DIN 1451 Mittelschrift';-inkscape-font-specification:'DIN 1451 Mittelschrift';letter-spacing:0px;word-spacing:0px;fill:#000000;fill-opacity:1;stroke:none;stroke-width:5;stroke-linecap:butt;stroke-linejoin:miter;stroke-miterlimit:4;stroke-dasharray:none;stroke-opacity:1"
       id="text4170" />
    <g
       style="font-style:normal;font-variant:normal;font-weight:normal;font-stretch:normal;font-size:594.22418213px;line-height:125%;font-family:'DIN 1451 Mittelschrift';-inkscape-font-specification:'DIN 1451 Mittelschrift';letter-spacing:0px;word-spacing:0px;fill:#000000;fill-opacity:1;stroke:#000000;stroke-width:9.99988461;stroke-linecap:butt;stroke-linejoin:miter;stroke-miterlimit:4;stroke-dasharray:none;stroke-opacity:1"
       id="text5413"
       transform="translate(-9.9999959,0)" />
    <path
       inkscape:connector-curvature="0"
       id="path13379-7"
       style="fill:#ffffff;fill-opacity:1;fill-rule:evenodd;stroke:none"
       d="m 375.48066,480.36158 -65.66751,56.6046 -155.0444,23.7125 c -2.0052,0.3849 -3.8489,0.9718 -5.4708,1.8359 -2.2938,1.0933 -3.9311,2.3507 -5.4677,3.6333 -1.8942,1.8231 -2.6923,3.6463 -3.6716,5.4694 -0.4032,0.9301 -0.6753,1.8603 -0.8873,2.7904 -7.4963,30.7502 -4.3968,46.1634 11.8563,72.0942 l -5.5274,4.6599 109.7938,0 0,10.8 485.00011,0 c 27.5004,-26.581 38.9246,-70.8023 30.0515,-107.6717 l -4.5896,-0.9179 -80.2805,-76.6838 c -2.8359,-2.4948 -6.4457,-5.7565 -8.0503,-6.7467 -1.9439,-1.1421 -5.2076,-2.9114 -9.2829,-3.3122 0,0 -14.5746,-1.8678 -17.8135,-2.1923 -23.9052,-2.638 -24.2321,-1.7841 -33.247,-2.3573 l -53.8109,-0.9181 -53.8143,0 -54.5255,2.042 c -16.2787,0.8564 -29.2516,1.1448 -54.0175,6.1809 -7.667,1.266 -5.3847,0.9647 -7.591,1.5482 -3.1749,0.7151 -6.176,2.0598 -9.7329,3.9212 -3.6089,2.2695 -6.8892,4.3747 -8.2245,5.5075"
       sodipodi:nodetypes="cccccccccccccccccccccccccc" />
    <circle
       r="70.900002"
       cy="648.46204"
       cx="249.90012"
       id="circle13389-4"
       style="opacity:1;fill:#00559b;fill-opacity:1;stroke:none;stroke-width:2.4000001;stroke-linejoin:miter;stroke-miterlimit:4;stroke-dasharray:none;stroke-dashoffset:0;stroke-opacity:1" />
    <circle
       style="opacity:1;fill:#ffffff;fill-opacity:1;stroke:none;stroke-width:2.4000001;stroke-linejoin:miter;stroke-miterlimit:4;stroke-dasharray:none;stroke-dashoffset:0;stroke-opacity:1"
       id="circle5498"
       cx="249.90012"
       cy="648.46204"
       r="47.5" />
    <circle
       style="opacity:1;fill:#00559b;fill-opacity:1;stroke:none;stroke-width:2.4000001;stroke-linejoin:miter;stroke-miterlimit:4;stroke-dasharray:none;stroke-dashoffset:0;stroke-opacity:1"
       id="circle5557"
       cx="668.90015"
       cy="648.46204"
       r="70.900002" />
    <circle
       r="47.5"
       cy="648.46204"
       cx="668.90015"
       id="circle5559"
       style="opacity:1;fill:#ffffff;fill-opacity:1;stroke:none;stroke-width:2.4000001;stroke-linejoin:miter;stroke-miterlimit:4;stroke-dasharray:none;stroke-dashoffset:0;stroke-opacity:1" />
    <path
       inkscape:connector-curvature="0"
       id="path13381-3-9"
       style="fill:#00559b;fill-opacity:1;fill-rule:nonzero;stroke:none"
       d="m 516.46156,475.36188 c 1.9681,0.2438 4.3403,0.2703 5.5029,0.9478 1.1961,0.5222 3.8272,2.5608 3.797,2.7419 0.8876,0.6584 2.1815,2.9917 2.6389,4.8015 0.3711,1.8455 0.3056,3.7349 0,5.6481 l -9.2012,45.2609 c -0.4223,1.9334 -1.0114,3.5329 -1.8168,4.6996 -1.1564,2.2518 -3.264,3.6802 -3.264,3.6802 -1.7236,0.8678 -3.451,0.7919 -5.0134,1.0199 l -138.6122,0 c -1.4316,-0.1056 -2.6861,0.1789 -4.5822,-0.9479 -1.3312,-0.9374 -4.6193,-3.7522 -4.6193,-3.7522 0,0 -1.746,-1.2706 -2.7408,-4.6996 -0.2793,-1.6497 -0.1034,-3.1855 0,-4.7393 0.1488,-0.9945 0.2572,-2.0916 2.1102,-5.2732 l 2.0168,-2.558 c 6.6878,-6.0951 36.8975,-36.7111 46.5458,-39.1062 6.2396,-1.5491 11.7815,-2.7042 20.201,-3.9438 22.4429,-3.3042 75.4535,-3.476 87.025,-3.7797"
       sodipodi:nodetypes="ccccccccccccccccssc" />
    <path
       inkscape:connector-curvature="0"
       id="path13383-8-6"
       style="fill:#00559b;fill-opacity:1;fill-rule:nonzero;stroke:none"
       d="m 627.26356,476.02338 c 2.0089,0.324 4.2953,0.3716 6.0268,0.9721 5.4251,2.1498 6.3868,2.713 8.7511,4.9061 l 30.7051,32.575 c 1.1249,1.0154 3.8484,4.6321 4.722,6.7791 5.1542,13.523 -0.097,22.7384 -14.6977,22.9061 l -115.6183,0 c -1.8174,-0.2358 -5.5034,-0.9102 -5.5034,-0.9102 0,0 -2.1002,-0.5886 -3.6536,-2.8958 -0.845,-1.2439 -1.636,-2.2048 -2.7393,-4.8053 -0.3201,-1.3971 -0.6699,-2.7462 0,-5.7266 l 7.3105,-43.9701 c 0.592,-1.9047 0.5265,-3.7002 1.8465,-5.7265 1.1428,-1.2538 1.5514,-2.3699 3.6566,-3.8043 0.8717,-0.8011 3.1698,-0.8895 5.5008,-0.9611 l 55.0601,0"
       sodipodi:nodetypes="cccccccccccccccc" />
  </g>
</svg>
