<?xml version="1.0" encoding="UTF-8" standalone="no"?>
<!-- Created with Inkscape (http://www.inkscape.org/) -->

<svg
   xmlns:dc="http://purl.org/dc/elements/1.1/"
   xmlns:cc="http://creativecommons.org/ns#"
   xmlns:rdf="http://www.w3.org/1999/02/22-rdf-syntax-ns#"
   xmlns:svg="http://www.w3.org/2000/svg"
   xmlns="http://www.w3.org/2000/svg"
   xmlns:sodipodi="http://sodipodi.sourceforge.net/DTD/sodipodi-0.dtd"
   xmlns:inkscape="http://www.inkscape.org/namespaces/inkscape"
   width="908.79999"
   height="908.79999"
   viewBox="0 0 908.80001 908.80002"
   id="svg2"
   version="1.1"
   inkscape:version="0.91 r13725"
   sodipodi:docname="drawing 1.svg">
  <defs
     id="defs4">
    <pattern
       y="0"
       x="0"
       height="6"
       width="6"
       patternUnits="userSpaceOnUse"
       id="EMFhbasepattern" />
    <pattern
       y="0"
       x="0"
       height="6"
       width="6"
       patternUnits="userSpaceOnUse"
       id="EMFhbasepattern-1" />
  </defs>
  <sodipodi:namedview
     id="base"
     pagecolor="#ffffff"
     bordercolor="#666666"
     borderopacity="1.0"
     inkscape:pageopacity="0.0"
     inkscape:pageshadow="2"
     inkscape:zoom="0.7"
     inkscape:cx="462.69965"
     inkscape:cy="461.87201"
     inkscape:document-units="px"
     inkscape:current-layer="layer1"
     showgrid="false"
     units="px"
     fit-margin-top="0"
     fit-margin-left="0"
     fit-margin-right="0"
     fit-margin-bottom="0"
     inkscape:window-width="1920"
     inkscape:window-height="1057"
     inkscape:window-x="-8"
     inkscape:window-y="-8"
     inkscape:window-maximized="1" />
  <metadata
     id="metadata7">
    <rdf:RDF>
      <cc:Work
         rdf:about="">
        <dc:format>image/svg+xml</dc:format>
        <dc:type
           rdf:resource="http://purl.org/dc/dcmitype/StillImage" />
        <dc:title></dc:title>
      </cc:Work>
    </rdf:RDF>
  </metadata>
  <g
     inkscape:label="Layer 1"
     inkscape:groupmode="layer"
     id="layer1"
     transform="translate(-4.3999939,-139.162)">
    <circle
       style="fill:#000000;fill-opacity:1;stroke:none;stroke-width:12;stroke-miterlimit:2.61299992;stroke-dasharray:none;stroke-opacity:1"
       id="path4136"
       cx="458.79996"
       cy="593.56207"
       r="454" />
    <circle
       r="450"
       cy="593.56207"
       cx="458.79996"
       id="circle4138"
       style="fill:#ffffff;fill-opacity:1;stroke:none;stroke-width:12;stroke-miterlimit:2.61299992;stroke-dasharray:none;stroke-opacity:1" />
    <circle
       style="fill:#00559b;fill-opacity:1;stroke:none;stroke-width:12;stroke-miterlimit:2.61299992;stroke-dasharray:none;stroke-opacity:1"
       id="circle4140"
       cx="458.79996"
       cy="593.56207"
       r="405" />
    <flowRoot
       xml:space="preserve"
       id="flowRoot4142"
       style="font-style:normal;font-weight:normal;font-size:40px;line-height:125%;font-family:sans-serif;letter-spacing:0px;word-spacing:0px;fill:#000000;fill-opacity:1;stroke:none;stroke-width:1px;stroke-linecap:butt;stroke-linejoin:miter;stroke-opacity:1"><flowRegion
         id="flowRegion4144"><rect
           id="rect4146"
           width="159.6041"
           height="284.86301"
           x="-395.9798"
           y="193.73254" /></flowRegion><flowPara
         id="flowPara4148" /></flowRoot>    <g
       style="font-style:normal;font-variant:normal;font-weight:normal;font-stretch:normal;font-size:276.38327026px;line-height:125%;font-family:'DIN 1451 Mittelschrift';-inkscape-font-specification:'DIN 1451 Mittelschrift';letter-spacing:0px;word-spacing:0px;fill:#000000;fill-opacity:1;stroke:none;stroke-width:5;stroke-linecap:butt;stroke-linejoin:miter;stroke-miterlimit:4;stroke-dasharray:none;stroke-opacity:1"
       id="text4170" />
    <g
       style="font-style:normal;font-variant:normal;font-weight:normal;font-stretch:normal;font-size:594.22418213px;line-height:125%;font-family:'DIN 1451 Mittelschrift';-inkscape-font-specification:'DIN 1451 Mittelschrift';letter-spacing:0px;word-spacing:0px;fill:#000000;fill-opacity:1;stroke:#000000;stroke-width:9.99988461;stroke-linecap:butt;stroke-linejoin:miter;stroke-miterlimit:4;stroke-dasharray:none;stroke-opacity:1"
       id="text5413"
       transform="translate(-9.9999959,0)" />
    <path
       d="m 150.00086,690.96209 c -1.5302,0 -2.6068,-0.3415 -3.6,-0.9 -1.6578,-1.1048 -2.2045,-1.9081 -2.7,-2.7 -0.6428,-1.4673 -0.8808,-2.9733 -0.9,-4.5 4.4251,-6.7322 5.1816,-12.5418 2.7231,-20.82461 -0.402,-1.2864 -1.2335,-2.8366 -2.7231,-4.4754 -0.02,-2.0492 0.3019,-3.5112 0.9,-4.5 0.7513,-1.0275 1.6571,-1.9225 2.7,-2.7 l 10.899,-8.2 0,-63.2 c 0.1197,-1.84508 0.1057,-3.72359 0.9,-5.4 1.3642,-2.83721 1.7282,-2.8948 3.6,-4.6 l 4.5,-3.5 2.7,0 59.60011,-85.70001 -0.4,0 c -10.5739,-7.31595 -5.5903,-15.55685 4,-19.0495 167.96601,-16.3769 329.39612,-16.2634 497.39993,-0.8698 l 45.2,119.11931 0,58.7 c -0.062,2.8782 -0.4736,4.0404 -0.9,5.5 -0.709,1.8103 -1.6592,3.2287 -2.7,4.5 -1.5261,1.5534 -3.0148,2.1713 -4.5,2.7 l -5.4,1.8 c 1.4391,0.1934 2.8358,0.3125 4.5,0.9 1.6396,0.6208 3.1549,1.4903 4.5,2.7 1.8665,1.5701 2.8435,3.0467 3.6,4.5 0.8208,1.9892 0.8762,3.7919 0.9,5.40001 -0.024,1.8722 -0.1066,3.4355 -0.9,5.4 -0.5609,1.6418 -1.4034,3.0061 -2.7,4.6 -1.4178,1.7412 -3.7383,2.5637 -4.4,2.8 -0.8538,0.3331 -2.6073,1.1443 -5.5,1.7 l -62.5,10.8"
       style="fill:#ffffff;fill-opacity:1;fill-rule:evenodd;stroke:none"
       id="path28563-2"
       inkscape:connector-curvature="0"
       sodipodi:nodetypes="ccccccccccccccccccccccccccccccccc" />
    <path
       inkscape:connector-curvature="0"
       id="path34924"
       style="fill:#ffffff;fill-opacity:1;fill-rule:evenodd;stroke:none"
       d="m 290.83217,690.28579 c -2.2315,53.3958 -77.7466,57.814 -83.9074,3.5873 -2.9088,-56.52978 78.1246,-63.02475 83.9074,-3.5873" />
    <path
       inkscape:connector-curvature="0"
       id="path35084"
       style="fill:#00559b;fill-opacity:1;fill-rule:nonzero;stroke:none"
       d="m 310.56407,471.56207 c 6.2753,0.0402 10.0068,0.81551 12.5961,3.6 1.2855,0.98773 2.7381,1.84521 5.4983,5.5 0.9015,1.75863 1.8728,3.20312 2.69911,5.3 0.5157,1.54856 1.1077,2.7963 0.8998,7.2 l 0,43.30001 c -0.092,2.39332 0.1996,4.71288 -0.8998,7.3 -1.18911,2.99403 -1.80851,3.63767 -2.69911,5.4 -1.0732,1.59882 -1.0398,3.07494 -5.4983,5.5 -1.9215,0.88888 -3.2947,1.73556 -6.1981,2.7 -1.3675,0.4427 -2.9183,0.81072 -5.3984,0.8 l -76.7763,0 c -1.466,0.1265 -2.7473,0.35405 -5.3983,1.9 -1.5248,1.08321 -2.4659,2.4 -3.6989,3.6 -2.5639,2.45782 -3.4896,6.2837 -6.298,9 -0.664,0.49284 -1.2522,0.94549 -2.5992,1.8 -0.871,0.57231 -1.795,0.82682 -2.7492,0.9 l -17.1447,0 c -1.4417,-0.0235 -2.6659,-0.30093 -3.608,-0.90757 -1.2677,-0.7015 -2.0291,-1.69245 -2.7218,-2.72266 -0.7935,-1.02936 -0.7997,-2.32124 -0.8679,-3.59242 -0.029,-1.57665 0.4426,-2.56832 0.8997,-3.57735 0.6206,-1.23252 37.855,-52.93334 56.7825,-79.40001 1.6939,-2.25376 1.86,-2.72406 4.7009,-5.72973 2.5194,-2.66558 5.943,-3.75133 9.6946,-4.07027"
       sodipodi:nodetypes="cccccccccccccccccccccccsc" />
    <path
       style="fill:#00559b;fill-opacity:1;stroke:none;stroke-width:26;stroke-miterlimit:4;stroke-dasharray:none;stroke-opacity:1"
       d="m 551.79999,466.19205 144.37331,7.67002 c 12.7665,0.67823 22.1979,4.85343 26.9957,17.7 l 15.0136,40.20001 c 4.8005,12.85375 -2.1094,26.4 -16.1986,26.4 l -169.18401,-3e-5 c -13.7143,0 -23,-9.28683 -23,-22.99997 l 0,-47.00001 c 0,-11.3389 9.0561,-22.65769 22,-21.97002 z"
       id="rect4156"
       inkscape:connector-curvature="0"
       sodipodi:nodetypes="sssssssss" />
    <path
       style="fill:#00559b;fill-opacity:1;stroke:none;stroke-width:26;stroke-miterlimit:4;stroke-dasharray:none;stroke-opacity:1"
       d="m 370.30008,468.66639 c 28.6093,-0.96085 41.2765,-1.48266 59.3004,-2.24429 23.5931,-0.38087 43.3137,-0.22052 64.69961,-0.25562 12.752,-0.0209 21,10.75752 21,21.99898 l 0,46.99772 c 0,12.74139 -10.258,22.9989 -23,22.9989 l -122.00001,0 c -13.6795,0 -23,-10.00751 -23,-22.9989 l 0,-43.99787 c 0,-14.15553 9.737,-22.05348 23,-22.49892 z"
       id="rect4179"
       inkscape:connector-curvature="0"
       sodipodi:nodetypes="scssssssss" />
    <circle
       style="fill:#00559b;fill-opacity:1;stroke:none;stroke-width:26;stroke-miterlimit:4;stroke-dasharray:none;stroke-opacity:1"
       id="path5529"
       cx="248.80005"
       cy="690.56201"
       r="63.500004" />
    <circle
       r="42.000004"
       cy="690.56201"
       cx="248.80005"
       id="circle5570"
       style="fill:#ffffff;fill-opacity:1;stroke:none;stroke-width:26;stroke-miterlimit:4;stroke-dasharray:none;stroke-opacity:1" />
    <circle
       r="63.500004"
       cy="690.56201"
       cx="634.80017"
       id="circle5591"
       style="fill:#00559b;fill-opacity:1;stroke:none;stroke-width:26;stroke-miterlimit:4;stroke-dasharray:none;stroke-opacity:1" />
    <circle
       style="fill:#ffffff;fill-opacity:1;stroke:none;stroke-width:26;stroke-miterlimit:4;stroke-dasharray:none;stroke-opacity:1"
       id="circle5593"
       cx="634.80017"
       cy="690.56201"
       r="42.000004" />
  </g>
</svg>
