<?xml version="1.0" encoding="UTF-8" standalone="no"?>
<!-- Created with Inkscape (http://www.inkscape.org/) -->

<svg
   xmlns:dc="http://purl.org/dc/elements/1.1/"
   xmlns:cc="http://creativecommons.org/ns#"
   xmlns:rdf="http://www.w3.org/1999/02/22-rdf-syntax-ns#"
   xmlns:svg="http://www.w3.org/2000/svg"
   xmlns="http://www.w3.org/2000/svg"
   xmlns:sodipodi="http://sodipodi.sourceforge.net/DTD/sodipodi-0.dtd"
   xmlns:inkscape="http://www.inkscape.org/namespaces/inkscape"
   width="908.79999"
   height="908.79999"
   viewBox="0 0 908.8 908.80001"
   id="svg2"
   version="1.1"
   inkscape:version="0.91 r13725"
   sodipodi:docname="drawing 1.svg">
  <defs
     id="defs4">
    <pattern
       y="0"
       x="0"
       height="6"
       width="6"
       patternUnits="userSpaceOnUse"
       id="EMFhbasepattern" />
    <pattern
       y="0"
       x="0"
       height="6"
       width="6"
       patternUnits="userSpaceOnUse"
       id="EMFhbasepattern-1" />
  </defs>
  <sodipodi:namedview
     id="base"
     pagecolor="#ffffff"
     bordercolor="#666666"
     borderopacity="1.0"
     inkscape:pageopacity="0.0"
     inkscape:pageshadow="2"
     inkscape:zoom="0.49497475"
     inkscape:cx="-56.047047"
     inkscape:cy="124.6565"
     inkscape:document-units="px"
     inkscape:current-layer="layer1"
     showgrid="false"
     units="px"
     fit-margin-top="0"
     fit-margin-left="0"
     fit-margin-right="0"
     fit-margin-bottom="0"
     inkscape:window-width="1920"
     inkscape:window-height="1057"
     inkscape:window-x="-8"
     inkscape:window-y="-8"
     inkscape:window-maximized="1" />
  <metadata
     id="metadata7">
    <rdf:RDF>
      <cc:Work
         rdf:about="">
        <dc:format>image/svg+xml</dc:format>
        <dc:type
           rdf:resource="http://purl.org/dc/dcmitype/StillImage" />
        <dc:title></dc:title>
      </cc:Work>
    </rdf:RDF>
  </metadata>
  <g
     inkscape:label="Layer 1"
     inkscape:groupmode="layer"
     id="layer1"
     transform="translate(0,-143.56206)">
    <circle
       style="fill:#000000;fill-opacity:1;stroke:none;stroke-width:12;stroke-miterlimit:2.61299992;stroke-dasharray:none;stroke-opacity:1"
       id="path4136"
       cx="454.39999"
       cy="597.96204"
       r="454" />
    <circle
       r="450"
       cy="597.96204"
       cx="454.39999"
       id="circle4138"
       style="fill:#ffffff;fill-opacity:1;stroke:none;stroke-width:12;stroke-miterlimit:2.61299992;stroke-dasharray:none;stroke-opacity:1" />
    <circle
       style="fill:#00559b;fill-opacity:1;stroke:none;stroke-width:12;stroke-miterlimit:2.61299992;stroke-dasharray:none;stroke-opacity:1"
       id="circle4140"
       cx="454.39999"
       cy="597.96204"
       r="405" />
    <flowRoot
       xml:space="preserve"
       id="flowRoot4142"
       style="font-style:normal;font-weight:normal;font-size:40px;line-height:125%;font-family:sans-serif;letter-spacing:0px;word-spacing:0px;fill:#000000;fill-opacity:1;stroke:none;stroke-width:1px;stroke-linecap:butt;stroke-linejoin:miter;stroke-opacity:1"><flowRegion
         id="flowRegion4144"><rect
           id="rect4146"
           width="159.6041"
           height="284.86301"
           x="-395.9798"
           y="193.73254" /></flowRegion><flowPara
         id="flowPara4148" /></flowRoot>    <g
       style="font-style:normal;font-variant:normal;font-weight:normal;font-stretch:normal;font-size:276.38327026px;line-height:125%;font-family:'DIN 1451 Mittelschrift';-inkscape-font-specification:'DIN 1451 Mittelschrift';letter-spacing:0px;word-spacing:0px;fill:#000000;fill-opacity:1;stroke:none;stroke-width:5;stroke-linecap:butt;stroke-linejoin:miter;stroke-miterlimit:4;stroke-dasharray:none;stroke-opacity:1"
       id="text4170" />
    <g
       style="font-style:normal;font-variant:normal;font-weight:normal;font-stretch:normal;font-size:594.22418213px;line-height:125%;font-family:'DIN 1451 Mittelschrift';-inkscape-font-specification:'DIN 1451 Mittelschrift';letter-spacing:0px;word-spacing:0px;fill:#000000;fill-opacity:1;stroke:#000000;stroke-width:9.99988461;stroke-linecap:butt;stroke-linejoin:miter;stroke-miterlimit:4;stroke-dasharray:none;stroke-opacity:1"
       id="text5413"
       transform="translate(-9.9999959,0)" />
    <path
       sodipodi:nodetypes="ccccccccccccccccccc"
       inkscape:connector-curvature="0"
       id="path4191"
       d="m 331.58525,279.21207 c -22.18709,66.7405 -47.6567,147.3103 -75.2987,224.5403 -9.81859,25.69 -22.45551,31.526 -40.22749,31.5995 l -9.6591,0 0,43.8602 137.83999,0 0,-42.78 c -6.62,0 -12.2352,0.1686 -18.18604,-0.046 -29.96584,-3.1027 -11.7253,-40.524 -6.8935,-54.0145 l 47.91924,-146.3275 45.8071,146.4682 c 4.894,13.5878 22.9431,50.7798 -6.9374,53.8738 -6.1898,0.1185 -12.7983,0.046 -18.1896,0.046 l 0,42.7792 165.74,0 0,-44.329 c -19.1505,0.3176 -32.0792,-3.2169 -37.2743,-18.6122 l -73.6557,-237.058 z"
       style="fill:#ffffff;fill-opacity:1;fill-rule:nonzero;stroke:none" />
    <path
       style="fill:#ffffff;fill-opacity:1;fill-rule:nonzero;stroke:none"
       d="m 577.21445,916.71217 c 22.1871,-66.7405 47.6567,-147.3103 75.2987,-224.5403 9.8186,-25.69 22.4555,-31.526 40.2275,-31.5995 l 9.6591,0 0,-43.8602 -137.84,0 0,42.78 c 6.62,0 12.2352,-0.1686 18.186,0.046 29.9659,3.1027 11.7253,40.524 6.8935,54.0145 l -47.9192,146.3275 -45.8071,-146.4682 c -4.894,-13.5878 -22.9431,-50.7798 6.9374,-53.8738 6.1898,-0.1185 12.7983,-0.046 18.1896,-0.046 l 0,-42.7792 -165.74,0 0,44.329 c 19.1505,-0.3176 32.0792,3.2169 37.2743,18.6122 l 73.6557,237.058 z"
       id="path5511"
       inkscape:connector-curvature="0"
       sodipodi:nodetypes="ccccccccccccccccccc" />
    <rect
       style="fill:#ffffff;fill-opacity:1;stroke:none;stroke-width:4;stroke-miterlimit:4;stroke-dasharray:none;stroke-opacity:1"
       id="rect6814"
       width="200"
       height="37.5"
       x="286.39999"
       y="447.9621" />
  </g>
</svg>
