<?xml version="1.0" encoding="UTF-8" standalone="no"?>
<!-- Created with Inkscape (http://www.inkscape.org/) -->

<svg
   xmlns:dc="http://purl.org/dc/elements/1.1/"
   xmlns:cc="http://creativecommons.org/ns#"
   xmlns:rdf="http://www.w3.org/1999/02/22-rdf-syntax-ns#"
   xmlns:svg="http://www.w3.org/2000/svg"
   xmlns="http://www.w3.org/2000/svg"
   xmlns:sodipodi="http://sodipodi.sourceforge.net/DTD/sodipodi-0.dtd"
   xmlns:inkscape="http://www.inkscape.org/namespaces/inkscape"
   width="908.79999"
   height="908.79999"
   viewBox="0 0 908.8 908.8"
   id="svg4153"
   version="1.1"
   inkscape:version="0.91 r13725"
   sodipodi:docname="drawing 1.svg">
  <defs
     id="defs4155">
    <pattern
       y="0"
       x="0"
       height="6"
       width="6"
       patternUnits="userSpaceOnUse"
       id="EMFhbasepattern" />
    <pattern
       y="0"
       x="0"
       height="6"
       width="6"
       patternUnits="userSpaceOnUse"
       id="EMFhbasepattern-3" />
    <pattern
       y="0"
       x="0"
       height="6"
       width="6"
       patternUnits="userSpaceOnUse"
       id="EMFhbasepattern-5" />
    <pattern
       y="0"
       x="0"
       height="6"
       width="6"
       patternUnits="userSpaceOnUse"
       id="EMFhbasepattern-2" />
  </defs>
  <sodipodi:namedview
     id="base"
     pagecolor="#ffffff"
     bordercolor="#666666"
     borderopacity="1.0"
     inkscape:pageopacity="0.0"
     inkscape:pageshadow="2"
     inkscape:zoom="0.7"
     inkscape:cx="746.62755"
     inkscape:cy="492.02574"
     inkscape:document-units="px"
     inkscape:current-layer="layer1"
     showgrid="false"
     units="px"
     inkscape:window-width="1920"
     inkscape:window-height="1057"
     inkscape:window-x="-8"
     inkscape:window-y="-8"
     inkscape:window-maximized="1" />
  <metadata
     id="metadata4158">
    <rdf:RDF>
      <cc:Work
         rdf:about="">
        <dc:format>image/svg+xml</dc:format>
        <dc:type
           rdf:resource="http://purl.org/dc/dcmitype/StillImage" />
        <dc:title></dc:title>
      </cc:Work>
    </rdf:RDF>
  </metadata>
  <g
     inkscape:label="Layer 1"
     inkscape:groupmode="layer"
     id="layer1"
     transform="translate(0,-143.56199)">
    <circle
       style="fill:#000000;fill-opacity:1;stroke:none;stroke-width:12;stroke-miterlimit:2.61299992;stroke-dasharray:none;stroke-opacity:1"
       id="path4136"
       cx="454.39999"
       cy="597.96216"
       r="454" />
    <circle
       r="450"
       cy="597.96216"
       cx="454.39999"
       id="circle4138"
       style="fill:#ffffff;fill-opacity:1;stroke:none;stroke-width:12;stroke-miterlimit:2.61299992;stroke-dasharray:none;stroke-opacity:1" />
    <circle
       style="fill:#00559b;fill-opacity:1;stroke:none;stroke-width:12;stroke-miterlimit:2.61299992;stroke-dasharray:none;stroke-opacity:1"
       id="circle4140"
       cx="454.39999"
       cy="597.96216"
       r="405" />
    <path
       d="m 124.801,568.95596 c -15.74031,-54.6591 -6.10328,-96.0095 12.59104,-133.9736 0.0532,-0.1136 0.32684,-0.2795 0.50806,-0.2604 l -7.2,-13.56 c 5.00644,-1.7579 6.46229,-2.5491 18.45018,-5.4 10.87484,-2.3254 8.7979,-1.8798 17.94982,-2.7 l 576.17965,0 c 7.2468,0.2235 12.5879,1.157 18.0203,2.6997 l 17.1,5.4003 c 1.7646,0.4653 2.8836,1.199 3.5,1.9 1.1186,1.1367 1.7112,2.2722 1.8,3.6 0.1621,2.6006 -1.1559,8.0885 -6.3,8.1 l -2.64,0 c 26.6012,37.7514 13.1764,85.1882 17.14,127.92 l -67.9999,6.2796"
       style="fill:#ffffff;fill-opacity:1;fill-rule:evenodd;stroke:none"
       id="path8418"
       inkscape:connector-curvature="0"
       sodipodi:nodetypes="ccccccccccccccc" />
    <rect
       style="fill:#ffffff;fill-opacity:1;stroke:none;stroke-width:26;stroke-miterlimit:4;stroke-dasharray:none;stroke-opacity:1"
       id="rect34417"
       width="73.800011"
       height="30.000004"
       x="400.89993"
       y="405.96201"
       rx="11"
       ry="10" />
    <rect
       style="fill:#00559b;fill-opacity:1;stroke:none;stroke-width:26;stroke-miterlimit:4;stroke-dasharray:none;stroke-opacity:1"
       id="rect34488"
       width="54.000004"
       height="126.00002"
       x="144.50009"
       y="429.26181"
       rx="10"
       ry="10" />
    <rect
       rx="7"
       y="429.26181"
       x="209.7001"
       height="58.600002"
       width="54.200008"
       id="rect34508"
       style="fill:#00559b;fill-opacity:1;stroke:none;stroke-width:26;stroke-miterlimit:4;stroke-dasharray:none;stroke-opacity:1"
       ry="7" />
    <rect
       style="fill:#00559b;fill-opacity:1;stroke:none;stroke-width:26;stroke-miterlimit:4;stroke-dasharray:none;stroke-opacity:1"
       id="rect34512"
       width="114.20001"
       height="58.600002"
       x="275.10007"
       y="429.26181"
       rx="7"
       ry="7" />
    <rect
       ry="7"
       rx="7"
       y="429.26181"
       x="400.50003"
       height="58.600002"
       width="114.20001"
       id="rect34588"
       style="fill:#00559b;fill-opacity:1;stroke:none;stroke-width:26;stroke-miterlimit:4;stroke-dasharray:none;stroke-opacity:1" />
    <rect
       style="fill:#00559b;fill-opacity:1;stroke:none;stroke-width:26;stroke-miterlimit:4;stroke-dasharray:none;stroke-opacity:1"
       id="rect34590"
       width="114.20001"
       height="58.600002"
       x="525.90002"
       y="429.26181"
       rx="7"
       ry="7" />
    <path
       style="fill:#00559b;fill-opacity:1;stroke:none;stroke-width:26;stroke-miterlimit:4;stroke-dasharray:none;stroke-opacity:1"
       d="m 765.30505,487.86126 -106.6491,0 c -4.075,0 -7.3555,-3.122 -7.3555,-7 l 0,-44.6 c 0,-3.878 3.2805,-7 7.3555,-7 l 87.2491,0 c 5.2625,0 6.9627,3.3982 8.4,7 l 17,42.6001 c 0.8007,2.0064 -0.8,8.9999 -6,8.9999 z"
       id="rect34592"
       inkscape:connector-curvature="0"
       sodipodi:nodetypes="sssssssss" />
    <circle
       style="fill:#00559b;fill-opacity:1;stroke:none;stroke-width:26;stroke-miterlimit:4;stroke-dasharray:none;stroke-opacity:1"
       id="path34613"
       cx="258.30002"
       cy="567.46198"
       r="47.400005" />
    <circle
       r="30.500002"
       cy="567.46198"
       cx="258.30002"
       id="circle34644"
       style="fill:#ffffff;fill-opacity:1;stroke:none;stroke-width:26;stroke-miterlimit:4;stroke-dasharray:none;stroke-opacity:1" />
    <circle
       r="47.400005"
       cy="567.46198"
       cx="595.2998"
       id="circle34655"
       style="fill:#00559b;fill-opacity:1;stroke:none;stroke-width:26;stroke-miterlimit:4;stroke-dasharray:none;stroke-opacity:1" />
    <circle
       style="fill:#ffffff;fill-opacity:1;stroke:none;stroke-width:26;stroke-miterlimit:4;stroke-dasharray:none;stroke-opacity:1"
       id="circle34657"
       cx="595.2998"
       cy="567.46198"
       r="30.500002" />
    <path
       d="m 248.20827,801.18496 c -1.02175,0 -1.74062,-0.2282 -2.4038,-0.6011 -1.10695,-0.7376 -1.47199,-1.274 -1.80285,-1.8028 -0.42921,-0.9797 -0.58812,-1.9853 -0.60094,-3.0048 2.95473,-4.4951 3.45986,-8.3744 1.81827,-13.905 -0.26843,-0.8589 -0.82364,-1.8941 -1.81827,-2.9884 -0.0133,-1.3682 0.20158,-2.3444 0.60094,-3.0047 0.50166,-0.6861 1.10648,-1.2837 1.80285,-1.8028 l 7.2775,-5.4754 0,-42.1999 c 0.0799,-1.232 0.0706,-2.4864 0.60095,-3.6057 0.9109,-1.8945 1.15396,-1.9329 2.40379,-3.0716 l 3.00476,-2.3369 1.80284,0 39.79628,-57.2238 -0.26709,0 c -7.06042,-4.885 -3.73276,-10.3876 2.67088,-12.7198 112.15457,-10.9352 219.94497,-10.8594 332.12477,-0.5808 l 30.181,79.5386 0,39.1952 c -0.041,1.9219 -0.3163,2.6978 -0.6009,3.6725 -0.4735,1.2088 -1.108,2.1558 -1.8029,3.0047 -1.0191,1.0372 -2.0131,1.4499 -3.0047,1.8029 l -3.6058,1.2019 c 0.9609,0.1292 1.8936,0.2087 3.0047,0.6009 1.0949,0.4146 2.1066,0.9951 3.0049,1.8029 1.2462,1.0484 1.8986,2.0343 2.4038,3.0047 0.548,1.3283 0.585,2.5319 0.6009,3.6057 -0.016,1.2502 -0.071,2.2941 -0.6009,3.6057 -0.3746,1.0963 -0.9372,2.0073 -1.8029,3.0715 -0.9468,1.1627 -2.4962,1.712 -2.938,1.8697 -0.5701,0.2223 -1.7409,0.764 -3.6725,1.1351 l -41.7325,7.2115"
       style="fill:#ffffff;fill-opacity:1;fill-rule:evenodd;stroke:none"
       id="path28563-2"
       inkscape:connector-curvature="0"
       sodipodi:nodetypes="ccccccccccccccccccccccccccccccccc" />
    <path
       inkscape:connector-curvature="0"
       id="path34924"
       style="fill:#ffffff;fill-opacity:1;fill-rule:evenodd;stroke:none"
       d="m 342.24437,800.73326 c -1.49002,35.6536 -51.91308,38.6037 -56.02678,2.3953 -1.94226,-37.7461 52.16548,-42.0829 56.02678,-2.3953" />
    <path
       inkscape:connector-curvature="0"
       id="path35084"
       style="fill:#00559b;fill-opacity:1;fill-rule:nonzero;stroke:none"
       d="m 355.41979,654.68666 c 4.19015,0.027 6.68175,0.5446 8.41068,2.4038 0.85836,0.6597 1.8283,1.2321 3.67134,3.6725 0.60194,1.1744 1.25051,2.1388 1.80225,3.539 0.34434,1.034 0.73964,1.8671 0.60082,4.8076 l 0,28.9123 c -0.0615,1.5981 0.13327,3.1469 -0.60082,4.8744 -0.79399,1.9992 -1.20758,2.4289 -1.80225,3.6056 -0.7166,1.0677 -0.6943,2.0533 -3.67134,3.6725 -1.28302,0.5936 -2.19993,1.1589 -4.1386,1.8029 -0.91311,0.2956 -1.94861,0.5414 -3.60463,0.5342 l -51.26519,0 c -0.97888,0.084 -1.83443,0.2364 -3.60456,1.2686 -1.01815,0.7234 -1.64654,1.6025 -2.46984,2.4038 -1.71197,1.6412 -2.33007,4.1958 -4.2053,6.0095 -0.44337,0.3291 -0.83612,0.6313 -1.73555,1.2019 -0.58158,0.3821 -1.19855,0.5521 -1.8357,0.601 l -11.44789,0 c -0.96264,-0.015 -1.78007,-0.201 -2.40914,-0.606 -0.84647,-0.4684 -1.35487,-1.1301 -1.8174,-1.818 -0.52983,-0.6873 -0.53397,-1.5499 -0.57951,-2.3987 -0.0194,-1.0528 0.29553,-1.715 0.60075,-2.3888 0.41438,-0.8229 25.27659,-35.3446 37.91489,-53.017 1.13106,-1.5048 1.24196,-1.8189 3.13889,-3.8259 1.68227,-1.7798 3.96827,-2.5048 6.4733,-2.7178"
       sodipodi:nodetypes="cccccccccccccccccccccccsc" />
    <path
       style="fill:#00559b;fill-opacity:1;stroke:none;stroke-width:26;stroke-miterlimit:4;stroke-dasharray:none;stroke-opacity:1"
       d="m 516.49825,651.10106 96.4012,5.1214 c 8.5245,0.453 14.822,3.2408 18.0256,11.8187 l 10.0249,26.8424 c 3.2054,8.5827 -1.4085,17.6279 -10.8162,17.6279 l -112.9678,0 c -9.1573,0 -15.3576,-6.2011 -15.3576,-15.3576 l 0,-31.383 c 0,-7.5711 6.047,-15.129 14.6899,-14.6698 z"
       id="rect4156"
       inkscape:connector-curvature="0"
       sodipodi:nodetypes="sssssssss" />
    <path
       style="fill:#00559b;fill-opacity:1;stroke:none;stroke-width:26;stroke-miterlimit:4;stroke-dasharray:none;stroke-opacity:1"
       d="m 395.30685,652.75316 c 19.1031,-0.6415 27.5612,-0.9899 39.5962,-1.4984 15.7536,-0.2544 28.9215,-0.1474 43.2013,-0.1708 8.5148,-0.014 14.0221,7.1831 14.0221,14.6892 l 0,31.3814 c 0,8.5077 -6.8494,15.3569 -15.3576,15.3569 l -81.462,0 c -9.13414,0 -15.35764,-6.6822 -15.35764,-15.3569 l 0,-29.3783 c 0,-9.452 6.50161,-14.7256 15.35764,-15.0231 z"
       id="rect4179"
       inkscape:connector-curvature="0"
       sodipodi:nodetypes="scssssssss" />
    <circle
       style="fill:#00559b;fill-opacity:1;stroke:none;stroke-width:26;stroke-miterlimit:4;stroke-dasharray:none;stroke-opacity:1"
       id="path5529"
       cx="314.17862"
       cy="800.91754"
       r="42.400322" />
    <circle
       r="28.044308"
       cy="800.91754"
       cx="314.17862"
       id="circle5570"
       style="fill:#ffffff;fill-opacity:1;stroke:none;stroke-width:26;stroke-miterlimit:4;stroke-dasharray:none;stroke-opacity:1" />
    <circle
       r="42.400322"
       cy="800.91754"
       cx="571.91919"
       id="circle5591"
       style="fill:#00559b;fill-opacity:1;stroke:none;stroke-width:26;stroke-miterlimit:4;stroke-dasharray:none;stroke-opacity:1" />
    <circle
       style="fill:#ffffff;fill-opacity:1;stroke:none;stroke-width:26;stroke-miterlimit:4;stroke-dasharray:none;stroke-opacity:1"
       id="circle5593"
       cx="571.91919"
       cy="800.91754"
       r="28.044308" />
  </g>
</svg>
