<?xml version="1.0" encoding="UTF-8" standalone="no"?>
<!-- Created with Inkscape (http://www.inkscape.org/) -->

<svg
   xmlns:dc="http://purl.org/dc/elements/1.1/"
   xmlns:cc="http://creativecommons.org/ns#"
   xmlns:rdf="http://www.w3.org/1999/02/22-rdf-syntax-ns#"
   xmlns:svg="http://www.w3.org/2000/svg"
   xmlns="http://www.w3.org/2000/svg"
   xmlns:sodipodi="http://sodipodi.sourceforge.net/DTD/sodipodi-0.dtd"
   xmlns:inkscape="http://www.inkscape.org/namespaces/inkscape"
   width="908.79999"
   height="908.79999"
   viewBox="0 0 908.8 908.8"
   id="svg4153"
   version="1.1"
   inkscape:version="0.91 r13725"
   sodipodi:docname="drawing 1.svg">
  <defs
     id="defs4155">
    <pattern
       y="0"
       x="0"
       height="6"
       width="6"
       patternUnits="userSpaceOnUse"
       id="EMFhbasepattern" />
    <pattern
       y="0"
       x="0"
       height="6"
       width="6"
       patternUnits="userSpaceOnUse"
       id="EMFhbasepattern-3" />
    <pattern
       y="0"
       x="0"
       height="6"
       width="6"
       patternUnits="userSpaceOnUse"
       id="EMFhbasepattern-5" />
    <pattern
       y="0"
       x="0"
       height="6"
       width="6"
       patternUnits="userSpaceOnUse"
       id="EMFhbasepattern-2" />
  </defs>
  <sodipodi:namedview
     id="base"
     pagecolor="#ffffff"
     bordercolor="#666666"
     borderopacity="1.0"
     inkscape:pageopacity="0.0"
     inkscape:pageshadow="2"
     inkscape:zoom="0.7"
     inkscape:cx="528.77041"
     inkscape:cy="490.59717"
     inkscape:document-units="px"
     inkscape:current-layer="layer1"
     showgrid="false"
     units="px"
     inkscape:window-width="1920"
     inkscape:window-height="1057"
     inkscape:window-x="-8"
     inkscape:window-y="-8"
     inkscape:window-maximized="1" />
  <metadata
     id="metadata4158">
    <rdf:RDF>
      <cc:Work
         rdf:about="">
        <dc:format>image/svg+xml</dc:format>
        <dc:type
           rdf:resource="http://purl.org/dc/dcmitype/StillImage" />
        <dc:title></dc:title>
      </cc:Work>
    </rdf:RDF>
  </metadata>
  <g
     inkscape:label="Layer 1"
     inkscape:groupmode="layer"
     id="layer1"
     transform="translate(0,-143.56198)">
    <circle
       style="fill:#000000;fill-opacity:1;stroke:none;stroke-width:12;stroke-miterlimit:2.61299992;stroke-dasharray:none;stroke-opacity:1"
       id="path4136"
       cx="454.39999"
       cy="597.96216"
       r="454" />
    <circle
       r="450"
       cy="597.96216"
       cx="454.39999"
       id="circle4138"
       style="fill:#ffffff;fill-opacity:1;stroke:none;stroke-width:12;stroke-miterlimit:2.61299992;stroke-dasharray:none;stroke-opacity:1" />
    <circle
       style="fill:#00559b;fill-opacity:1;stroke:none;stroke-width:12;stroke-miterlimit:2.61299992;stroke-dasharray:none;stroke-opacity:1"
       id="circle4140"
       cx="454.39999"
       cy="597.96216"
       r="405" />
    <path
       d="m 124.80109,544.95574 c -15.74031,-54.6591 -6.10328,-96.0095 12.59104,-133.9736 0.0532,-0.1136 0.32684,-0.2795 0.50806,-0.2604 l -7.2,-13.56 c 5.00644,-1.7579 6.46229,-2.5491 18.45018,-5.4 10.87484,-2.3254 8.7979,-1.8798 17.94982,-2.7 l 576.17966,0 c 7.2468,0.2235 12.5879,1.157 18.0203,2.6997 l 17.1,5.4003 c 1.7646,0.4653 2.8836,1.199 3.5,1.9 1.1186,1.1367 1.7112,2.2722 1.8,3.6 0.1621,2.6006 -1.1559,8.0885 -6.3,8.1 l -2.64,0 c 26.6012,37.7514 13.1764,85.1882 17.14,127.92 l -67.9999,6.2796"
       style="fill:#ffffff;fill-opacity:1;fill-rule:evenodd;stroke:none"
       id="path8418"
       inkscape:connector-curvature="0"
       sodipodi:nodetypes="ccccccccccccccc" />
    <rect
       style="fill:#ffffff;fill-opacity:1;stroke:none;stroke-width:26;stroke-miterlimit:4;stroke-dasharray:none;stroke-opacity:1"
       id="rect34417"
       width="73.800011"
       height="30.000004"
       x="400.90005"
       y="381.96198"
       rx="11"
       ry="10" />
    <rect
       style="fill:#00559b;fill-opacity:1;stroke:none;stroke-width:26;stroke-miterlimit:4;stroke-dasharray:none;stroke-opacity:1"
       id="rect34488"
       width="54.000004"
       height="126.00002"
       x="144.50021"
       y="405.26178"
       rx="10"
       ry="10" />
    <rect
       rx="7"
       y="405.26178"
       x="209.70023"
       height="58.600002"
       width="54.200008"
       id="rect34508"
       style="fill:#00559b;fill-opacity:1;stroke:none;stroke-width:26;stroke-miterlimit:4;stroke-dasharray:none;stroke-opacity:1"
       ry="7" />
    <rect
       style="fill:#00559b;fill-opacity:1;stroke:none;stroke-width:26;stroke-miterlimit:4;stroke-dasharray:none;stroke-opacity:1"
       id="rect34512"
       width="114.20001"
       height="58.600002"
       x="275.10019"
       y="405.26178"
       rx="7"
       ry="7" />
    <rect
       ry="7"
       rx="7"
       y="405.26178"
       x="400.50015"
       height="58.600002"
       width="114.20001"
       id="rect34588"
       style="fill:#00559b;fill-opacity:1;stroke:none;stroke-width:26;stroke-miterlimit:4;stroke-dasharray:none;stroke-opacity:1" />
    <rect
       style="fill:#00559b;fill-opacity:1;stroke:none;stroke-width:26;stroke-miterlimit:4;stroke-dasharray:none;stroke-opacity:1"
       id="rect34590"
       width="114.20001"
       height="58.600002"
       x="525.90002"
       y="405.26178"
       rx="7"
       ry="7" />
    <path
       style="fill:#00559b;fill-opacity:1;stroke:none;stroke-width:26;stroke-miterlimit:4;stroke-dasharray:none;stroke-opacity:1"
       d="m 765.30515,463.86104 -106.6491,0 c -4.075,0 -7.3555,-3.122 -7.3555,-7 l 0,-44.6 c 0,-3.878 3.2805,-7 7.3555,-7 l 87.2491,0 c 5.2625,0 6.9627,3.3982 8.4,7 l 17,42.6001 c 0.8007,2.0064 -0.8,8.9999 -6,8.9999 z"
       id="rect34592"
       inkscape:connector-curvature="0"
       sodipodi:nodetypes="sssssssss" />
    <circle
       style="fill:#00559b;fill-opacity:1;stroke:none;stroke-width:26;stroke-miterlimit:4;stroke-dasharray:none;stroke-opacity:1"
       id="path34613"
       cx="258.30014"
       cy="543.46198"
       r="47.400005" />
    <circle
       r="30.500002"
       cy="543.46198"
       cx="258.30014"
       id="circle34644"
       style="fill:#ffffff;fill-opacity:1;stroke:none;stroke-width:26;stroke-miterlimit:4;stroke-dasharray:none;stroke-opacity:1" />
    <circle
       r="47.400005"
       cy="543.46198"
       cx="595.2998"
       id="circle34655"
       style="fill:#00559b;fill-opacity:1;stroke:none;stroke-width:26;stroke-miterlimit:4;stroke-dasharray:none;stroke-opacity:1" />
    <circle
       style="fill:#ffffff;fill-opacity:1;stroke:none;stroke-width:26;stroke-miterlimit:4;stroke-dasharray:none;stroke-opacity:1"
       id="circle34657"
       cx="595.2998"
       cy="543.46198"
       r="30.500002" />
    <path
       d="m 686.74735,783.76054 c 3.9953,-0.013 9.3445,-2.994 10.2248,-7.5457 5.8744,-29.8075 1.0077,-121.0418 -13.7195,-150.3048 -0.7641,-1.1608 -0.4659,-1.1863 -4.051,-4.1159 -1.2261,-0.8526 -1.8545,-1.647 -4.8019,-2.6677 -1.7493,-0.4622 -3.2707,-0.6053 -4.8018,-0.762 l -384.83204,0 c -26.7814,0.032 -47.39982,6.6001 -68.29265,17.8352 l 5.4878,10.9756 -15.70121,54.0396 -0.76219,6.8598 0,53.1249 -2.66768,0 c -2.39932,1.5481 -2.70186,2.1601 -3.42988,5.4878 l 0,11.5854 c 0.94874,4.0188 4.32502,5.4963 6.09756,5.4878"
       style="fill:#ffffff;fill-opacity:1;fill-rule:evenodd;stroke:none"
       id="path8933"
       inkscape:connector-curvature="0"
       sodipodi:nodetypes="cccccccccccccccc" />
    <path
       style="fill:#00559b;fill-opacity:1;fill-rule:evenodd;stroke:none"
       d="m 288.69091,747.17494 c 13.32676,-0.01 11.29897,3.7763 20.16005,36.8905 l -75.91429,0 c 8.86107,-33.1142 6.83329,-36.8989 20.16005,-36.8905 4.1507,0 31.44349,0 35.59419,0 z"
       id="path36445"
       inkscape:connector-curvature="0"
       sodipodi:nodetypes="ccccc" />
    <path
       sodipodi:nodetypes="ccccc"
       inkscape:connector-curvature="0"
       id="path36453"
       d="m 573.59925,747.17494 c 13.3267,-0.01 11.299,3.7763 20.16,36.8906 l -75.9142,0 c 8.861,-33.1143 6.8333,-36.899 20.16,-36.8906 4.1507,0 31.4435,0 35.5942,0 z"
       style="fill:#00559b;fill-opacity:1;fill-rule:evenodd;stroke:none" />
    <circle
       style="fill:#ffffff;fill-opacity:1;stroke:none;stroke-width:26;stroke-miterlimit:4;stroke-dasharray:none;stroke-opacity:1"
       id="path36514"
       cx="270.89401"
       cy="783.60846"
       r="28.353643" />
    <circle
       r="28.353643"
       cy="783.60846"
       cx="555.80249"
       id="circle36525"
       style="fill:#ffffff;fill-opacity:1;stroke:none;stroke-width:26;stroke-miterlimit:4;stroke-dasharray:none;stroke-opacity:1" />
    <path
       style="fill:#00559b;fill-opacity:1;stroke:none;stroke-width:26;stroke-miterlimit:4;stroke-dasharray:none;stroke-opacity:1"
       d="m 249.24285,641.23024 56.86451,0 c 6.33384,0 11.43292,5.0991 11.43292,11.433 l 0,33.9176 c 0,6.3339 -5.09908,11.4329 -11.43292,11.4329 l -77.44377,0 c -6.33384,0 -13.26928,-7.6576 -11.43291,-13.7195 l 7.8506,-25.9146 c 3.56174,-11.7571 17.49089,-17.1494 24.16157,-17.1494 z"
       id="rect36553"
       inkscape:connector-curvature="0"
       sodipodi:nodetypes="sssssssss" />
    <path
       style="fill:#00559b;fill-opacity:1;stroke:none;stroke-width:26;stroke-miterlimit:4;stroke-dasharray:none;stroke-opacity:1"
       d="m 664.65975,632.46504 -25.3206,0 c -6.3338,0 -11.4329,5.0991 -11.4329,11.4329 l 0,42.6829 c 0,6.3339 5.0991,11.4329 11.4329,11.4329 l 38.2779,0 c 6.3338,0 12.578,-6.423 11.4329,-12.6524 l -7.622,-41.4634 c -0.3937,-2.1423 -5.6512,-11.4329 -16.7682,-11.4329 z"
       id="rect36574"
       inkscape:connector-curvature="0"
       sodipodi:nodetypes="sssssssss" />
    <rect
       style="fill:#00559b;fill-opacity:1;stroke:none;stroke-width:26;stroke-miterlimit:4;stroke-dasharray:none;stroke-opacity:1"
       id="rect36604"
       width="54.573135"
       height="124.99992"
       x="325.71103"
       y="-766.23053"
       rx="11.43292"
       ry="11.43292"
       transform="scale(1,-1)" />
    <rect
       style="fill:#00559b;fill-opacity:1;stroke:none;stroke-width:26;stroke-miterlimit:4;stroke-dasharray:none;stroke-opacity:1"
       id="rect36624"
       width="71.646294"
       height="65.548737"
       x="388.45486"
       y="-698.01422"
       rx="11.43292"
       ry="11.43292"
       transform="scale(1,-1)" />
    <rect
       ry="11.43292"
       rx="11.43292"
       y="-698.01422"
       x="468.27194"
       height="65.548737"
       width="71.646294"
       id="rect36626"
       style="fill:#00559b;fill-opacity:1;stroke:none;stroke-width:26;stroke-miterlimit:4;stroke-dasharray:none;stroke-opacity:1"
       transform="scale(1,-1)" />
    <rect
       style="fill:#00559b;fill-opacity:1;stroke:none;stroke-width:26;stroke-miterlimit:4;stroke-dasharray:none;stroke-opacity:1"
       id="rect36628"
       width="71.646294"
       height="65.548737"
       x="548.08911"
       y="-698.01422"
       rx="11.43292"
       ry="11.43292"
       transform="scale(1,-1)" />
  </g>
</svg>
