<?xml version="1.0" encoding="UTF-8" standalone="no"?>
<!-- Created with Inkscape (http://www.inkscape.org/) -->

<svg
   xmlns:dc="http://purl.org/dc/elements/1.1/"
   xmlns:cc="http://creativecommons.org/ns#"
   xmlns:rdf="http://www.w3.org/1999/02/22-rdf-syntax-ns#"
   xmlns:svg="http://www.w3.org/2000/svg"
   xmlns="http://www.w3.org/2000/svg"
   xmlns:sodipodi="http://sodipodi.sourceforge.net/DTD/sodipodi-0.dtd"
   xmlns:inkscape="http://www.inkscape.org/namespaces/inkscape"
   width="908.79999"
   height="908.79999"
   viewBox="0 0 908.8 908.8"
   id="svg4153"
   version="1.1"
   inkscape:version="0.91 r13725"
   sodipodi:docname="drawing 1.svg">
  <defs
     id="defs4155">
    <pattern
       y="0"
       x="0"
       height="6"
       width="6"
       patternUnits="userSpaceOnUse"
       id="EMFhbasepattern" />
    <pattern
       y="0"
       x="0"
       height="6"
       width="6"
       patternUnits="userSpaceOnUse"
       id="EMFhbasepattern-3" />
    <pattern
       y="0"
       x="0"
       height="6"
       width="6"
       patternUnits="userSpaceOnUse"
       id="EMFhbasepattern-5" />
    <pattern
       y="0"
       x="0"
       height="6"
       width="6"
       patternUnits="userSpaceOnUse"
       id="EMFhbasepattern-2" />
  </defs>
  <sodipodi:namedview
     id="base"
     pagecolor="#ffffff"
     bordercolor="#666666"
     borderopacity="1.0"
     inkscape:pageopacity="0.0"
     inkscape:pageshadow="2"
     inkscape:zoom="0.7"
     inkscape:cx="310.91327"
     inkscape:cy="489.1686"
     inkscape:document-units="px"
     inkscape:current-layer="layer1"
     showgrid="false"
     units="px"
     inkscape:window-width="1920"
     inkscape:window-height="1057"
     inkscape:window-x="-8"
     inkscape:window-y="-8"
     inkscape:window-maximized="1" />
  <metadata
     id="metadata4158">
    <rdf:RDF>
      <cc:Work
         rdf:about="">
        <dc:format>image/svg+xml</dc:format>
        <dc:type
           rdf:resource="http://purl.org/dc/dcmitype/StillImage" />
        <dc:title></dc:title>
      </cc:Work>
    </rdf:RDF>
  </metadata>
  <g
     inkscape:label="Layer 1"
     inkscape:groupmode="layer"
     id="layer1"
     transform="translate(0,-143.56197)">
    <circle
       style="fill:#000000;fill-opacity:1;stroke:none;stroke-width:12;stroke-miterlimit:2.61299992;stroke-dasharray:none;stroke-opacity:1"
       id="path4136"
       cx="454.39999"
       cy="597.96216"
       r="454" />
    <circle
       r="450"
       cy="597.96216"
       cx="454.39999"
       id="circle4138"
       style="fill:#ffffff;fill-opacity:1;stroke:none;stroke-width:12;stroke-miterlimit:2.61299992;stroke-dasharray:none;stroke-opacity:1" />
    <circle
       style="fill:#00559b;fill-opacity:1;stroke:none;stroke-width:12;stroke-miterlimit:2.61299992;stroke-dasharray:none;stroke-opacity:1"
       id="circle4140"
       cx="454.39999"
       cy="597.96216"
       r="405" />
    <path
       d="m 207.41108,458.66186 c -11.77608,-40.8931 -4.56615,-71.8293 9.41997,-100.2321 0.0398,-0.085 0.24453,-0.2091 0.38011,-0.1948 l -5.38668,-10.1449 c 3.74557,-1.3152 4.83475,-1.9071 13.80347,-4.04 8.13599,-1.7398 6.58214,-1.4064 13.42913,-2.02 l 431.06777,0 c 5.4216,0.1672 9.4175,0.8656 13.4818,2.0197 l 12.7933,4.0403 c 1.3203,0.3481 2.1574,0.8971 2.6185,1.4215 0.8369,0.8504 1.2803,1.6999 1.3468,2.6933 0.1212,1.9456 -0.8648,6.0514 -4.7134,6.06 l -1.9751,0 c 19.9016,28.2437 9.8579,63.7334 12.8232,95.7031 l -50.874,4.6981"
       style="fill:#ffffff;fill-opacity:1;fill-rule:evenodd;stroke:none"
       id="path8418"
       inkscape:connector-curvature="0"
       sodipodi:nodetypes="ccccccccccccccc" />
    <rect
       style="fill:#ffffff;fill-opacity:1;stroke:none;stroke-width:26;stroke-miterlimit:4;stroke-dasharray:none;stroke-opacity:1"
       id="rect34417"
       width="55.213345"
       height="22.44445"
       x="413.97403"
       y="336.71786"
       rx="8.2296305"
       ry="7.481482" />
    <rect
       style="fill:#00559b;fill-opacity:1;stroke:none;stroke-width:26;stroke-miterlimit:4;stroke-dasharray:none;stroke-opacity:1"
       id="rect34488"
       width="40.400005"
       height="94.266685"
       x="222.1489"
       y="354.14951"
       rx="7.481482"
       ry="7.481482" />
    <rect
       rx="5.2370377"
       y="354.14951"
       x="270.92819"
       height="43.841488"
       width="40.549637"
       id="rect34508"
       style="fill:#00559b;fill-opacity:1;stroke:none;stroke-width:26;stroke-miterlimit:4;stroke-dasharray:none;stroke-opacity:1"
       ry="5.2370377" />
    <rect
       style="fill:#00559b;fill-opacity:1;stroke:none;stroke-width:26;stroke-miterlimit:4;stroke-dasharray:none;stroke-opacity:1"
       id="rect34512"
       width="85.438538"
       height="43.841488"
       x="319.85703"
       y="354.14951"
       rx="5.2370377"
       ry="5.2370377" />
    <rect
       ry="5.2370377"
       rx="5.2370377"
       y="354.14951"
       x="413.67484"
       height="43.841488"
       width="85.438538"
       id="rect34588"
       style="fill:#00559b;fill-opacity:1;stroke:none;stroke-width:26;stroke-miterlimit:4;stroke-dasharray:none;stroke-opacity:1" />
    <rect
       style="fill:#00559b;fill-opacity:1;stroke:none;stroke-width:26;stroke-miterlimit:4;stroke-dasharray:none;stroke-opacity:1"
       id="rect34590"
       width="85.438538"
       height="43.841488"
       x="507.49252"
       y="354.14951"
       rx="5.2370377"
       ry="5.2370377" />
    <path
       style="fill:#00559b;fill-opacity:1;stroke:none;stroke-width:26;stroke-miterlimit:4;stroke-dasharray:none;stroke-opacity:1"
       d="m 686.60295,397.99106 -79.7893,0 c -3.0487,0 -5.503,-2.3357 -5.503,-5.2371 l 0,-33.3674 c 0,-2.9013 2.4543,-5.237 5.503,-5.237 l 65.2753,0 c 3.9371,0 5.2091,2.5424 6.2844,5.237 l 12.7185,31.8712 c 0.5991,1.5011 -0.5985,6.7333 -4.4889,6.7333 z"
       id="rect34592"
       inkscape:connector-curvature="0"
       sodipodi:nodetypes="sssssssss" />
    <circle
       style="fill:#00559b;fill-opacity:1;stroke:none;stroke-width:26;stroke-miterlimit:4;stroke-dasharray:none;stroke-opacity:1"
       id="path34613"
       cx="307.28812"
       cy="457.54355"
       r="35.462231" />
    <circle
       r="22.818521"
       cy="457.54355"
       cx="307.28812"
       id="circle34644"
       style="fill:#ffffff;fill-opacity:1;stroke:none;stroke-width:26;stroke-miterlimit:4;stroke-dasharray:none;stroke-opacity:1" />
    <circle
       r="35.462231"
       cy="457.54355"
       cx="559.41382"
       id="circle34655"
       style="fill:#00559b;fill-opacity:1;stroke:none;stroke-width:26;stroke-miterlimit:4;stroke-dasharray:none;stroke-opacity:1" />
    <circle
       style="fill:#ffffff;fill-opacity:1;stroke:none;stroke-width:26;stroke-miterlimit:4;stroke-dasharray:none;stroke-opacity:1"
       id="circle34657"
       cx="559.41382"
       cy="457.54355"
       r="22.818521" />
    <path
       d="m 628.66235,656.14946 c 2.9485,-0.01 6.8963,-2.2096 7.5459,-5.5688 4.3353,-21.9979 0.7437,-89.3288 -10.125,-110.9249 -0.5639,-0.8567 -0.3438,-0.8756 -2.9896,-3.0375 -0.9049,-0.6293 -1.3687,-1.2155 -3.5438,-1.9688 -1.291,-0.3412 -2.4137,-0.4468 -3.5437,-0.5624 l -284.00613,0 c -19.76468,0.024 -34.98108,4.8709 -50.39998,13.1624 l 4.04999,8.1 -11.5875,39.8812 -0.56249,5.0625 0,39.2063 -1.96875,0 c -1.7707,1.1425 -1.99397,1.5941 -2.53125,4.0499 l 0,8.55 c 0.70017,2.9659 3.19186,4.0563 4.5,4.0501"
       style="fill:#ffffff;fill-opacity:1;fill-rule:evenodd;stroke:none"
       id="path8933"
       inkscape:connector-curvature="0"
       sodipodi:nodetypes="cccccccccccccccc" />
    <path
       style="fill:#00559b;fill-opacity:1;fill-rule:evenodd;stroke:none"
       d="m 334.89666,629.14916 c 9.83516,-0.01 8.33864,2.787 14.87813,27.2253 l -56.02476,0 c 6.53947,-24.4383 5.04297,-27.2314 14.87812,-27.2253 3.06322,0 23.2053,0 26.26851,0 z"
       id="path36445"
       inkscape:connector-curvature="0"
       sodipodi:nodetypes="ccccc" />
    <path
       sodipodi:nodetypes="ccccc"
       inkscape:connector-curvature="0"
       id="path36453"
       d="m 545.15905,629.14916 c 9.8351,-0.01 8.3387,2.787 14.8781,27.2254 l -56.0247,0 c 6.5394,-24.4384 5.043,-27.2315 14.8781,-27.2254 3.0632,0 23.2053,0 26.2685,0 z"
       style="fill:#00559b;fill-opacity:1;fill-rule:evenodd;stroke:none" />
    <circle
       style="fill:#ffffff;fill-opacity:1;stroke:none;stroke-width:26;stroke-miterlimit:4;stroke-dasharray:none;stroke-opacity:1"
       id="path36514"
       cx="321.76254"
       cy="656.03717"
       r="20.924992" />
    <circle
       r="20.924992"
       cy="656.03717"
       cx="532.02502"
       id="circle36525"
       style="fill:#ffffff;fill-opacity:1;stroke:none;stroke-width:26;stroke-miterlimit:4;stroke-dasharray:none;stroke-opacity:1" />
    <path
       style="fill:#00559b;fill-opacity:1;stroke:none;stroke-width:26;stroke-miterlimit:4;stroke-dasharray:none;stroke-opacity:1"
       d="m 305.784,550.96196 41.966,0 c 4.67438,0 8.4375,3.7632 8.4375,8.4376 l 0,25.0312 c 0,4.6744 -3.76312,8.4375 -8.4375,8.4375 l -57.1535,0 c -4.67438,0 -9.79273,-5.6513 -8.43749,-10.125 l 5.79374,-19.125 c 2.62857,-8.6767 12.90828,-12.6563 17.83125,-12.6563 z"
       id="rect36553"
       inkscape:connector-curvature="0"
       sodipodi:nodetypes="sssssssss" />
    <path
       style="fill:#00559b;fill-opacity:1;stroke:none;stroke-width:26;stroke-miterlimit:4;stroke-dasharray:none;stroke-opacity:1"
       d="m 612.36175,544.49326 -18.6866,0 c -4.6744,0 -8.4375,3.7632 -8.4375,8.4375 l 0,31.5 c 0,4.6744 3.7631,8.4375 8.4375,8.4375 l 28.2491,0 c 4.6743,0 9.2825,-4.7402 8.4375,-9.3375 l -5.6251,-30.6 c -0.2906,-1.581 -4.1706,-8.4375 -12.3749,-8.4375 z"
       id="rect36574"
       inkscape:connector-curvature="0"
       sodipodi:nodetypes="sssssssss" />
    <rect
       style="fill:#00559b;fill-opacity:1;stroke:none;stroke-width:26;stroke-miterlimit:4;stroke-dasharray:none;stroke-opacity:1"
       id="rect36604"
       width="40.274979"
       height="92.249954"
       x="362.2175"
       y="-643.21246"
       rx="8.4374962"
       ry="8.4374962"
       transform="scale(1,-1)" />
    <rect
       style="fill:#00559b;fill-opacity:1;stroke:none;stroke-width:26;stroke-miterlimit:4;stroke-dasharray:none;stroke-opacity:1"
       id="rect36624"
       width="52.874969"
       height="48.374969"
       x="408.52255"
       y="-592.86871"
       rx="8.4374962"
       ry="8.4374962"
       transform="scale(1,-1)" />
    <rect
       ry="8.4374962"
       rx="8.4374962"
       y="-592.86871"
       x="467.42746"
       height="48.374969"
       width="52.874969"
       id="rect36626"
       style="fill:#00559b;fill-opacity:1;stroke:none;stroke-width:26;stroke-miterlimit:4;stroke-dasharray:none;stroke-opacity:1"
       transform="scale(1,-1)" />
    <rect
       style="fill:#00559b;fill-opacity:1;stroke:none;stroke-width:26;stroke-miterlimit:4;stroke-dasharray:none;stroke-opacity:1"
       id="rect36628"
       width="52.874969"
       height="48.374969"
       x="526.33252"
       y="-592.86871"
       rx="8.4374962"
       ry="8.4374962"
       transform="scale(1,-1)" />
    <path
       d="m 298.42783,854.20446 c -0.77091,0 -1.3133,-0.1722 -1.81367,-0.4534 -0.8352,-0.5567 -1.11062,-0.9614 -1.36026,-1.3604 -0.32384,-0.7391 -0.44374,-1.4979 -0.45342,-2.2671 2.22936,-3.3916 2.61048,-6.3185 1.3719,-10.4914 -0.20253,-0.648 -0.62144,-1.429 -1.3719,-2.2547 -0.0101,-1.0323 0.1521,-1.7689 0.45342,-2.267 0.37851,-0.5177 0.83485,-0.9686 1.36026,-1.3602 l 5.49089,-4.1312 0,-31.84 c 0.0603,-0.9295 0.0532,-1.8759 0.45341,-2.7205 0.68728,-1.4294 0.87066,-1.4584 1.81368,-2.3175 l 2.26708,-1.7633 1.36026,0 30.02639,-43.1754 -0.20152,0 c -5.32711,-3.6858 -2.81638,-7.8375 2.01519,-9.5971 84.62081,-8.2507 165.94901,-8.1935 250.58891,-0.4382 l 22.7716,60.012 0,29.5729 c -0.031,1.4501 -0.2385,2.0355 -0.4534,2.7709 -0.3572,0.912 -0.8359,1.6266 -1.3603,2.2671 -0.7688,0.7826 -1.5188,1.0939 -2.267,1.3603 l -2.7205,0.9068 c 0.7249,0.097 1.4286,0.1574 2.2671,0.4534 0.8259,0.3128 1.5894,0.7508 2.267,1.3602 0.9403,0.7911 1.4326,1.535 1.8137,2.2671 0.4136,1.0022 0.4414,1.9104 0.4534,2.7206 -0.012,0.9432 -0.053,1.7308 -0.4534,2.7205 -0.2825,0.8271 -0.707,1.5144 -1.3603,2.3174 -0.7142,0.8773 -1.8833,1.2917 -2.2167,1.4107 -0.4301,0.1677 -1.3135,0.5764 -2.7708,0.8564 l -31.4874,5.4411"
       style="fill:#ffffff;fill-opacity:1;fill-rule:evenodd;stroke:none"
       id="path28563-2"
       inkscape:connector-curvature="0"
       sodipodi:nodetypes="ccccccccccccccccccccccccccccccccc" />
    <path
       inkscape:connector-curvature="0"
       id="path34924"
       style="fill:#ffffff;fill-opacity:1;fill-rule:evenodd;stroke:none"
       d="m 369.3783,853.86366 c -1.12423,26.9007 -39.16855,29.1266 -42.27235,1.8073 -1.46544,-28.4796 39.35899,-31.7517 42.27235,-1.8073" />
    <path
       inkscape:connector-curvature="0"
       id="path35084"
       style="fill:#00559b;fill-opacity:1;fill-rule:nonzero;stroke:none"
       d="m 379.31916,743.67116 c 3.1615,0.02 5.0414,0.4109 6.3459,1.8137 0.6476,0.4977 1.3794,0.9296 2.77,2.7709 0.4542,0.886 0.9435,1.6137 1.3598,2.6701 0.2598,0.7802 0.5581,1.4088 0.4533,3.6274 l 0,21.8144 c -0.046,1.2058 0.1006,2.3743 -0.4533,3.6777 -0.599,1.5084 -0.9111,1.8326 -1.3598,2.7205 -0.5406,0.8056 -0.5238,1.5492 -2.77,2.7709 -0.968,0.4478 -1.6599,0.8744 -3.1226,1.3603 -0.6889,0.223 -1.4702,0.4085 -2.7197,0.403 l -38.6797,0 c -0.73857,0.064 -1.38408,0.1784 -2.71965,0.9572 -0.76819,0.5458 -1.24231,1.2091 -1.86349,1.8137 -1.29169,1.2382 -1.75805,3.1657 -3.17292,4.5341 -0.33452,0.2484 -0.63086,0.4764 -1.30947,0.9069 -0.43881,0.2884 -0.90432,0.4166 -1.38504,0.4534 l -8.63746,0 c -0.72633,-0.012 -1.34307,-0.1516 -1.8177,-0.4572 -0.63866,-0.3534 -1.02225,-0.8526 -1.37123,-1.3717 -0.39977,-0.5186 -0.40289,-1.1694 -0.43725,-1.8098 -0.0146,-0.7944 0.22298,-1.2939 0.45327,-1.8023 0.31265,-0.6209 19.07125,-26.6676 28.60688,-40.0015 0.85338,-1.1354 0.93707,-1.3724 2.3683,-2.8866 1.26927,-1.343 2.99407,-1.8899 4.88411,-2.0506"
       sodipodi:nodetypes="cccccccccccccccccccccccsc" />
    <path
       style="fill:#00559b;fill-opacity:1;stroke:none;stroke-width:26;stroke-miterlimit:4;stroke-dasharray:none;stroke-opacity:1"
       d="m 500.85325,740.96576 72.7349,3.8642 c 6.4318,0.3417 11.1833,2.4451 13.6004,8.9172 l 7.5638,20.2526 c 2.4185,6.4758 -1.0627,13.3003 -8.1608,13.3003 l -85.2345,0 c -6.9092,0 -11.5873,-4.6787 -11.5873,-11.5873 l 0,-23.6786 c 0,-5.7124 4.5624,-11.4148 11.0835,-11.0684 z"
       id="rect4156"
       inkscape:connector-curvature="0"
       sodipodi:nodetypes="sssssssss" />
    <path
       style="fill:#00559b;fill-opacity:1;stroke:none;stroke-width:26;stroke-miterlimit:4;stroke-dasharray:none;stroke-opacity:1"
       d="m 409.41405,742.21236 c 14.4132,-0.484 20.7949,-0.7469 29.8753,-1.1306 11.8862,-0.1919 21.8215,-0.1112 32.5956,-0.1288 6.4244,-0.011 10.5797,5.4196 10.5797,11.083 l 0,23.6773 c 0,6.4191 -5.1679,11.5868 -11.5873,11.5868 l -61.4633,0 c -6.8917,0 -11.5874,-5.0417 -11.5874,-11.5868 l 0,-22.166 c 0,-7.1315 4.9055,-11.1105 11.5874,-11.3349 z"
       id="rect4179"
       inkscape:connector-curvature="0"
       sodipodi:nodetypes="scssssssss" />
    <circle
       style="fill:#00559b;fill-opacity:1;stroke:none;stroke-width:26;stroke-miterlimit:4;stroke-dasharray:none;stroke-opacity:1"
       id="path5529"
       cx="348.20261"
       cy="854.00299"
       r="31.991146" />
    <circle
       r="21.1595"
       cy="854.00299"
       cx="348.20261"
       id="circle5570"
       style="fill:#ffffff;fill-opacity:1;stroke:none;stroke-width:26;stroke-miterlimit:4;stroke-dasharray:none;stroke-opacity:1" />
    <circle
       r="31.991146"
       cy="854.00299"
       cx="542.66858"
       id="circle5591"
       style="fill:#00559b;fill-opacity:1;stroke:none;stroke-width:26;stroke-miterlimit:4;stroke-dasharray:none;stroke-opacity:1" />
    <circle
       style="fill:#ffffff;fill-opacity:1;stroke:none;stroke-width:26;stroke-miterlimit:4;stroke-dasharray:none;stroke-opacity:1"
       id="circle5593"
       cx="542.66858"
       cy="854.00299"
       r="21.1595" />
  </g>
</svg>
