<?xml version="1.0" encoding="UTF-8" standalone="no"?>
<!-- Created with Inkscape (http://www.inkscape.org/) -->

<svg
   xmlns:dc="http://purl.org/dc/elements/1.1/"
   xmlns:cc="http://creativecommons.org/ns#"
   xmlns:rdf="http://www.w3.org/1999/02/22-rdf-syntax-ns#"
   xmlns:svg="http://www.w3.org/2000/svg"
   xmlns="http://www.w3.org/2000/svg"
   xmlns:sodipodi="http://sodipodi.sourceforge.net/DTD/sodipodi-0.dtd"
   xmlns:inkscape="http://www.inkscape.org/namespaces/inkscape"
   width="908.79999"
   height="908.79999"
   viewBox="0 0 908.8 908.80001"
   id="svg2"
   version="1.1"
   inkscape:version="0.91 r13725"
   sodipodi:docname="drawing 1.svg">
  <defs
     id="defs4">
    <pattern
       y="0"
       x="0"
       height="6"
       width="6"
       patternUnits="userSpaceOnUse"
       id="EMFhbasepattern" />
    <pattern
       y="0"
       x="0"
       height="6"
       width="6"
       patternUnits="userSpaceOnUse"
       id="EMFhbasepattern-1" />
  </defs>
  <sodipodi:namedview
     id="base"
     pagecolor="#ffffff"
     bordercolor="#666666"
     borderopacity="1.0"
     inkscape:pageopacity="0.0"
     inkscape:pageshadow="2"
     inkscape:zoom="0.49497475"
     inkscape:cx="456.92451"
     inkscape:cy="363.65003"
     inkscape:document-units="px"
     inkscape:current-layer="layer1"
     showgrid="false"
     units="px"
     fit-margin-top="0"
     fit-margin-left="0"
     fit-margin-right="0"
     fit-margin-bottom="0"
     inkscape:window-width="1920"
     inkscape:window-height="1057"
     inkscape:window-x="-8"
     inkscape:window-y="-8"
     inkscape:window-maximized="1" />
  <metadata
     id="metadata7">
    <rdf:RDF>
      <cc:Work
         rdf:about="">
        <dc:format>image/svg+xml</dc:format>
        <dc:type
           rdf:resource="http://purl.org/dc/dcmitype/StillImage" />
        <dc:title></dc:title>
      </cc:Work>
    </rdf:RDF>
  </metadata>
  <g
     inkscape:label="Layer 1"
     inkscape:groupmode="layer"
     id="layer1"
     transform="translate(0,-143.56204)">
    <circle
       style="fill:#000000;fill-opacity:1;stroke:none;stroke-width:12;stroke-miterlimit:2.61299992;stroke-dasharray:none;stroke-opacity:1"
       id="path4136"
       cx="454.39999"
       cy="597.96204"
       r="454" />
    <circle
       r="450"
       cy="597.96204"
       cx="454.39999"
       id="circle4138"
       style="fill:#ffffff;fill-opacity:1;stroke:none;stroke-width:12;stroke-miterlimit:2.61299992;stroke-dasharray:none;stroke-opacity:1" />
    <circle
       style="fill:#00559b;fill-opacity:1;stroke:none;stroke-width:12;stroke-miterlimit:2.61299992;stroke-dasharray:none;stroke-opacity:1"
       id="circle4140"
       cx="454.39999"
       cy="597.96204"
       r="405" />
    <flowRoot
       xml:space="preserve"
       id="flowRoot4142"
       style="font-style:normal;font-weight:normal;font-size:40px;line-height:125%;font-family:sans-serif;letter-spacing:0px;word-spacing:0px;fill:#000000;fill-opacity:1;stroke:none;stroke-width:1px;stroke-linecap:butt;stroke-linejoin:miter;stroke-opacity:1"><flowRegion
         id="flowRegion4144"><rect
           id="rect4146"
           width="159.6041"
           height="284.86301"
           x="-395.9798"
           y="193.73254" /></flowRegion><flowPara
         id="flowPara4148" /></flowRoot>    <g
       style="font-style:normal;font-variant:normal;font-weight:normal;font-stretch:normal;font-size:276.38327026px;line-height:125%;font-family:'DIN 1451 Mittelschrift';-inkscape-font-specification:'DIN 1451 Mittelschrift';letter-spacing:0px;word-spacing:0px;fill:#000000;fill-opacity:1;stroke:none;stroke-width:5;stroke-linecap:butt;stroke-linejoin:miter;stroke-miterlimit:4;stroke-dasharray:none;stroke-opacity:1"
       id="text4170" />
    <g
       style="font-style:normal;font-variant:normal;font-weight:normal;font-stretch:normal;font-size:594.22418213px;line-height:125%;font-family:'DIN 1451 Mittelschrift';-inkscape-font-specification:'DIN 1451 Mittelschrift';letter-spacing:0px;word-spacing:0px;fill:#000000;fill-opacity:1;stroke:#000000;stroke-width:9.99988461;stroke-linecap:butt;stroke-linejoin:miter;stroke-miterlimit:4;stroke-dasharray:none;stroke-opacity:1"
       id="text5413"
       transform="translate(-9.9999959,0)" />
    <path
       inkscape:connector-curvature="0"
       id="path31046"
       style="fill:#ffffff;fill-opacity:1;fill-rule:nonzero;stroke:none"
       d="m 172.49442,504.86385 c -35.0983,133.4782 3.2833,275.17 128.7546,347.6108 14.8382,8.5669 30.6576,15.4341 46.2083,22.5403 l 22.4787,-58.7092 c -10.7861,-4.8675 -22.2937,-9.7683 -32.5236,-15.6746 -96.7426,-55.8543 -128.8211,-156.9114 -107.235,-262.457 l 13.858,24.6057 c 0.054,0.5889 1.0238,2.6829 1.4161,2.9093 l 3.8893,2.2455 c 0.5568,0.3215 2.2481,-0.2709 3.5904,1.027 l 1.6901,-1.1159 1.9904,0.1033 5.0524,-3.3164 0.8906,-1.5426 c 0,0 0.051,-1.7486 0.1213,-2.0217 0.3687,-1.321 1.3345,-1.635 1.0074,-3.5564 l -8.8635,-134.0206 -122.6075,53.9322 -3.3488,2.25 -2.6977,4.6724 -0.097,1.3037 c -0.1948,3.8093 0.259,5.5112 2.3072,8.6101 l 0.7439,1.1269 2.3532,1.3586 c 0.523,0.3019 2.2482,-0.2709 3.5579,1.0081 l 37.464,7.1169" />
    <path
       d="m 675.97845,400.37365 c -98.04643,-97.1351 -239.94593,-134.7416 -365.41713,-62.3006 -14.8383,8.5668 -28.6951,18.8332 -42.6246,28.7474 l 39.6043,48.8217 c 9.6084,-6.9073 19.6064,-14.4228 29.8364,-20.329 96.7425,-55.8544 200.2998,-33.1066 280.9119,38.3603 l -28.2382,-0.3015 c -0.5369,-0.2478 -2.8353,-0.4548 -3.2275,-0.2283 l -3.8893,2.2455 c -0.5569,0.3215 -0.8895,2.0824 -2.6847,2.5959 l 0.1214,2.0216 -1.0847,1.6721 0.3459,6.0337 0.8906,1.5426 c 0,0 1.489,0.9182 1.6903,1.1159 0.9596,0.9798 0.7486,1.9732 2.5762,2.6506 l 120.49703,59.3343 14.597,-133.1472 -0.2741,-4.0253 -2.6976,-4.6724 -1.0804,-0.7361 c -3.2015,-2.0733 -4.9023,-2.5313 -8.6101,-2.307 l -1.3479,0.081 -2.3532,1.3587 c -0.5229,0.3019 -0.8895,2.0824 -2.652,2.5771 l -24.8954,28.8864"
       style="fill:#ffffff;fill-opacity:1;fill-rule:nonzero;stroke:none"
       id="path31059"
       inkscape:connector-curvature="0" />
    <path
       inkscape:connector-curvature="0"
       id="path31090"
       style="fill:#ffffff;fill-opacity:1;fill-rule:nonzero;stroke:none"
       d="m 514.72752,888.64865 c 133.1447,-36.3431 236.66263,-140.4284 236.66253,-285.3102 10e-5,-17.1337 -1.9625,-34.2672 -3.5837,-51.2877 l -62.083,9.8875 c 1.1777,11.7748 2.6873,24.1911 2.6873,36.0036 0,111.7087 -71.47883,190.018 -173.67703,224.0967 l 14.3802,-24.3042 c 0.4831,-0.3411 1.8115,-2.2281 1.8115,-2.681 l 0,-4.491 c 0,-0.643 -1.3587,-1.8115 -0.9058,-3.6229 l -1.8114,-0.9057 -0.9058,-1.7754 -5.3983,-2.7173 -1.7812,0 c 0,0 -1.5397,0.8304 -1.8115,0.9058 -1.3284,0.3412 -2.0832,-0.3382 -3.5836,0.9058 l -111.6335,74.6863 108.0103,79.215 3.6231,1.7753 5.3952,0 1.1777,-0.5676 c 3.3963,-1.736 4.6433,-2.9799 6.3029,-6.3031 l 0.6039,-1.2078 -10e-5,-2.7173 c 0,-0.6038 -1.3587,-1.8115 -0.9059,-3.5852 l -12.5686,-36.0033" />
  </g>
</svg>
