<?xml version="1.0" encoding="UTF-8" standalone="no"?>
<!-- Created with Inkscape (http://www.inkscape.org/) -->

<svg
   xmlns:dc="http://purl.org/dc/elements/1.1/"
   xmlns:cc="http://creativecommons.org/ns#"
   xmlns:rdf="http://www.w3.org/1999/02/22-rdf-syntax-ns#"
   xmlns:svg="http://www.w3.org/2000/svg"
   xmlns="http://www.w3.org/2000/svg"
   xmlns:sodipodi="http://sodipodi.sourceforge.net/DTD/sodipodi-0.dtd"
   xmlns:inkscape="http://www.inkscape.org/namespaces/inkscape"
   width="908.79999"
   height="908.79999"
   viewBox="0 0 908.8 908.8"
   id="svg4153"
   version="1.1"
   inkscape:version="0.91 r13725"
   sodipodi:docname="drawing 1.svg">
  <defs
     id="defs4155">
    <pattern
       y="0"
       x="0"
       height="6"
       width="6"
       patternUnits="userSpaceOnUse"
       id="EMFhbasepattern" />
    <pattern
       y="0"
       x="0"
       height="6"
       width="6"
       patternUnits="userSpaceOnUse"
       id="EMFhbasepattern-3" />
    <pattern
       y="0"
       x="0"
       height="6"
       width="6"
       patternUnits="userSpaceOnUse"
       id="EMFhbasepattern-5" />
    <pattern
       y="0"
       x="0"
       height="6"
       width="6"
       patternUnits="userSpaceOnUse"
       id="EMFhbasepattern-2" />
  </defs>
  <sodipodi:namedview
     id="base"
     pagecolor="#ffffff"
     bordercolor="#666666"
     borderopacity="1.0"
     inkscape:pageopacity="0.0"
     inkscape:pageshadow="2"
     inkscape:zoom="0.7"
     inkscape:cx="419.74284"
     inkscape:cy="411.0547"
     inkscape:document-units="px"
     inkscape:current-layer="layer1"
     showgrid="false"
     units="px"
     inkscape:window-width="1920"
     inkscape:window-height="1057"
     inkscape:window-x="-8"
     inkscape:window-y="-8"
     inkscape:window-maximized="1" />
  <metadata
     id="metadata4158">
    <rdf:RDF>
      <cc:Work
         rdf:about="">
        <dc:format>image/svg+xml</dc:format>
        <dc:type
           rdf:resource="http://purl.org/dc/dcmitype/StillImage" />
        <dc:title></dc:title>
      </cc:Work>
    </rdf:RDF>
  </metadata>
  <g
     inkscape:label="Layer 1"
     inkscape:groupmode="layer"
     id="layer1"
     transform="translate(0,-143.5619)">
    <circle
       style="fill:#000000;fill-opacity:1;stroke:none;stroke-width:12;stroke-miterlimit:2.61299992;stroke-dasharray:none;stroke-opacity:1"
       id="path4136"
       cx="454.39999"
       cy="597.96216"
       r="454" />
    <circle
       r="450"
       cy="597.96216"
       cx="454.39999"
       id="circle4138"
       style="fill:#ffffff;fill-opacity:1;stroke:none;stroke-width:12;stroke-miterlimit:2.61299992;stroke-dasharray:none;stroke-opacity:1" />
    <circle
       style="fill:#00559b;fill-opacity:1;stroke:none;stroke-width:12;stroke-miterlimit:2.61299992;stroke-dasharray:none;stroke-opacity:1"
       id="circle4140"
       cx="454.39999"
       cy="597.96216"
       r="405" />
    <path
       sodipodi:nodetypes="ccccccccccccccccccccccccc"
       inkscape:connector-curvature="0"
       id="path13401"
       d="m 500.06666,576.2951 c -0.9982,0.08 -3.70126,0.7819 -4.8,1.4667 -1.66486,1.0369 -3.03893,2.2306 -3.2,3.1999 l -248.00001,0 0,10.3333 7.86667,0 c -9.50873,20.8287 -23.258,43.6697 -22.50334,67.4667 l -0.03,25.3333 c 0.0427,2.66 0.6624,4.2782 0.9336,4.6667 0.14827,0.2135 2.79947,2.8003 2.79947,2.8003 0.30772,0.4167 6.31132,4.3553 9.46693,6.533 1.02067,0.6023 3.36093,1.5402 4.66666,1.8667 l 414.26668,0 c 1.30573,-0.3265 3.64599,-1.2644 4.66666,-1.8667 3.15561,-2.1777 9.15921,-6.1163 9.46693,-6.533 0,0 2.6512,-2.5868 2.79947,-2.8003 0.2712,-0.3885 0.89093,-2.0067 0.9336,-4.6667 l -0.03,-25.3333 c 0.75466,-23.797 -12.99473,-46.638 -22.5034,-67.4667 l 7.86666,0 0,-10.3333 -83.60029,0 c -0.16114,-0.9693 -1.53494,-2.163 -3.19976,-3.1999 -1.09877,-0.6848 -3.8021,-1.3862 -4.80023,-1.4667 z"
       style="fill:#ffffff;fill-opacity:1;fill-rule:evenodd;stroke:none" />
    <path
       style="fill:#00559b;fill-opacity:1;stroke:none;stroke-width:8.05000019;stroke-miterlimit:4;stroke-dasharray:none;stroke-opacity:1"
       d="m 646.06006,591.2951 -10.3934,0 c -2.21599,0 -4,1.7841 -4,4.0001 l 0,55.8666 c 0,2.2161 1.78401,4.0001 4,4.0001 l 10.26007,0 c 0,0 9.7496,-1.1211 13.20007,-2.4669 1.53486,-0.5987 2.30919,-1.5795 3.19999,-2.4666 5.63434,-5.6113 5.93061,-14.0393 5.86667,-14.9 -0.37294,-5.0184 -15.65033,-37.7357 -16.80006,-40.0332 -0.73834,-1.4755 -1.45067,-4.0001 -5.33334,-4.0001 z"
       id="rect13459"
       inkscape:connector-curvature="0"
       sodipodi:nodetypes="ssssscsssss" />
    <rect
       style="fill:#00559b;fill-opacity:1;stroke:none;stroke-width:8.05000019;stroke-miterlimit:4;stroke-dasharray:none;stroke-opacity:1"
       id="rect13471"
       width="43.066658"
       height="98.399979"
       x="581.53333"
       y="591.29492"
       rx="5.3333325" />
    <rect
       style="fill:#00559b;fill-opacity:1;stroke:none;stroke-width:8.05000019;stroke-miterlimit:4;stroke-dasharray:none;stroke-opacity:1"
       id="rect13518"
       width="75.06665"
       height="63.733322"
       x="499.26669"
       y="591.29492"
       rx="5.3333325" />
    <path
       sodipodi:nodetypes="ssssscsssss"
       inkscape:connector-curvature="0"
       id="path13549"
       d="m 262.73987,591.2951 10.39344,0 c 2.216,0 4.00001,1.7841 4.00001,4.0001 l 0,55.8666 c 0,2.2161 -1.78401,4.0001 -4.00001,4.0001 l -10.26011,0 c 0,0 -9.74959,-1.1211 -13.20002,-2.4669 -1.53486,-0.5987 -2.30919,-1.5795 -3.19999,-2.4666 -5.63434,-5.6113 -5.93061,-14.0393 -5.86666,-14.9 0.37292,-5.0184 15.65031,-37.7357 16.80001,-40.0332 0.73833,-1.4755 1.45066,-4.0001 5.33333,-4.0001 z"
       style="fill:#00559b;fill-opacity:1;stroke:none;stroke-width:8.05000019;stroke-miterlimit:4;stroke-dasharray:none;stroke-opacity:1" />
    <rect
       rx="5.3333325"
       y="591.29492"
       x="417.00009"
       height="63.733322"
       width="75.06665"
       id="rect13560"
       style="fill:#00559b;fill-opacity:1;stroke:none;stroke-width:8.05000019;stroke-miterlimit:4;stroke-dasharray:none;stroke-opacity:1" />
    <rect
       style="fill:#00559b;fill-opacity:1;stroke:none;stroke-width:8.05000019;stroke-miterlimit:4;stroke-dasharray:none;stroke-opacity:1"
       id="rect13562"
       width="75.06665"
       height="63.733322"
       x="334.73349"
       y="591.29492"
       rx="5.3333325" />
    <rect
       rx="5.3333325"
       y="591.29492"
       x="284.46683"
       height="98.399979"
       width="43.066658"
       id="rect13564"
       style="fill:#00559b;fill-opacity:1;stroke:none;stroke-width:8.05000019;stroke-miterlimit:4;stroke-dasharray:none;stroke-opacity:1" />
    <path
       style="fill:#ffffff;fill-opacity:1;stroke:none;stroke-width:8.05000019;stroke-miterlimit:4;stroke-dasharray:none;stroke-opacity:1"
       d="m 288.46664,729.9617 c -10.30927,0 -19.73333,-8.3573 -19.73333,-18.6668 0.008,-0.9829 0,-2.9334 0,-2.9334 l 123.86664,0 c 0,0 -0.008,1.9505 0,2.9334 0,10.3095 -9.42406,18.6668 -19.73331,18.6668 -8.06091,0 -15.15102,-5.1099 -17.86668,-12.2669 l -48.66666,0 c -2.71565,7.157 -9.80577,12.2669 -17.86666,12.2669 z"
       id="path13586"
       inkscape:connector-curvature="0"
       sodipodi:nodetypes="sccccsccs" />
    <path
       sodipodi:nodetypes="sccccsccs"
       inkscape:connector-curvature="0"
       id="path14848"
       d="m 620.33334,729.9617 c 10.30926,0 19.73333,-8.3573 19.73333,-18.6668 -0.008,-0.9829 0,-2.9334 0,-2.9334 l -123.86668,0 c 0,0 0.008,1.9505 0,2.9334 0,10.3095 9.424,18.6668 19.73333,18.6668 8.06086,0 15.151,-5.1099 17.86666,-12.2669 l 48.6667,0 c 2.7156,7.157 9.80572,12.2669 17.86666,12.2669 z"
       style="fill:#ffffff;fill-opacity:1;stroke:none;stroke-width:8.05000019;stroke-miterlimit:4;stroke-dasharray:none;stroke-opacity:1" />
    <path
       style="fill:#ffffff;fill-opacity:1;stroke:none;stroke-width:8.05000019;stroke-miterlimit:4;stroke-dasharray:none;stroke-opacity:1"
       d="m 536.59993,506.8951 -59.46665,38.6666 59.46665,38.6667 59.46695,-38.6667 z m 0,5.0867 51.64007,33.5799 -51.64007,33.5773 -51.63983,-33.5773 z"
       id="path14889"
       inkscape:connector-curvature="0"
       sodipodi:nodetypes="cccccccccc" />
    <path
       d="m 293.73715,931.7699 c -0.79416,0 -1.3529,-0.1772 -1.86836,-0.4671 -0.86037,-0.5733 -1.1441,-0.9902 -1.40126,-1.4012 -0.33361,-0.7615 -0.45713,-1.5431 -0.46709,-2.3354 2.29657,-3.494 2.68918,-6.5092 1.41325,-10.8078 -0.20863,-0.6676 -0.64017,-1.4722 -1.41325,-2.3227 -0.0104,-1.0635 0.15668,-1.8222 0.46709,-2.3355 0.38991,-0.5332 0.86001,-0.9977 1.40126,-1.4012 l 5.65644,-4.2557 0,-32.8 c 0.0622,-0.9575 0.0549,-1.9325 0.46709,-2.8025 0.70801,-1.4725 0.89692,-1.5024 1.86836,-2.3874 l 2.33544,-1.8164 1.40126,0 30.93172,-44.4772 -0.2076,0 c -5.48772,-3.7969 -2.90129,-8.0738 2.07595,-9.8865 87.17224,-8.4994 170.95244,-8.4405 258.1443,-0.4514 l 23.45823,61.8214 0,30.4646 c -0.0321,1.4937 -0.24579,2.0969 -0.46709,2.8544 -0.36796,0.9395 -0.8611,1.6757 -1.40126,2.3354 -0.79203,0.8062 -1.56465,1.127 -2.33545,1.4013 l -2.80253,0.9342 c 0.74688,0.1003 1.47175,0.1622 2.33545,0.467 0.85093,0.3222 1.63735,0.7735 2.33544,1.4013 0.96869,0.8149 1.47574,1.5812 1.86835,2.3355 0.42598,1.0324 0.45474,1.9679 0.46709,2.8025 -0.0125,0.9717 -0.0554,1.783 -0.46709,2.8025 -0.2911,0.8522 -0.72835,1.5601 -1.40126,2.3874 -0.73582,0.9037 -1.94013,1.3306 -2.28355,1.4532 -0.44311,0.1729 -1.35315,0.5939 -2.85443,0.8822 l -32.43671,5.6051"
       style="fill:#ffffff;fill-opacity:1;fill-rule:evenodd;stroke:none"
       id="path28563-2"
       inkscape:connector-curvature="0"
       sodipodi:nodetypes="ccccccccccccccccccccccccccccccccc" />
    <path
       inkscape:connector-curvature="0"
       id="path34924"
       style="fill:#ffffff;fill-opacity:1;fill-rule:evenodd;stroke:none"
       d="m 366.82682,931.4189 c -1.15812,27.7118 -40.3495,30.0047 -43.54688,1.8618 -1.50963,-29.3382 40.54568,-32.7091 43.54688,-1.8618" />
    <path
       inkscape:connector-curvature="0"
       id="path35084"
       style="fill:#00559b;fill-opacity:1;fill-rule:nonzero;stroke:none"
       d="m 377.06743,817.9041 c 3.2568,0.02 5.19341,0.4232 6.53721,1.8683 0.66716,0.5127 1.42105,0.9576 2.85356,2.8544 0.46786,0.9128 0.97196,1.6624 1.4008,2.7506 0.26764,0.8038 0.57488,1.4513 0.46698,3.7368 l 0,22.4722 c -0.0477,1.2421 0.10359,2.4459 -0.46698,3.7885 -0.61713,1.5539 -0.9386,1.888 -1.4008,2.8025 -0.55698,0.8299 -0.53965,1.5959 -2.85356,2.8545 -0.99723,0.4613 -1.7099,0.9007 -3.21672,1.4013 -0.70972,0.2297 -1.51457,0.4208 -2.80171,0.4151 l -39.84594,0 c -0.76083,0.066 -1.4258,0.1838 -2.80164,0.9862 -0.79135,0.5622 -1.27978,1.2455 -1.91969,1.8683 -1.33063,1.2756 -1.81106,3.2612 -3.26857,4.6709 -0.34462,0.2558 -0.64989,0.4907 -1.34896,0.9342 -0.45203,0.297 -0.93158,0.4291 -1.4268,0.467 l -8.89788,0 c -0.74822,-0.012 -1.38357,-0.1561 -1.87251,-0.471 -0.65792,-0.364 -1.05308,-0.8784 -1.41258,-1.413 -0.41181,-0.5342 -0.41504,-1.2047 -0.45043,-1.8644 -0.0151,-0.8183 0.2297,-1.3329 0.46694,-1.8566 0.32207,-0.6397 19.64626,-27.4717 29.46939,-41.2076 0.87912,-1.1697 0.96532,-1.4138 2.43972,-2.9737 1.30754,-1.3834 3.08434,-1.9468 5.03137,-2.1124"
       sodipodi:nodetypes="cccccccccccccccccccccccsc" />
    <path
       style="fill:#00559b;fill-opacity:1;stroke:none;stroke-width:26;stroke-miterlimit:4;stroke-dasharray:none;stroke-opacity:1"
       d="m 502.26584,815.1171 74.92792,3.9806 c 6.62566,0.3521 11.52044,2.5189 14.01043,9.1861 l 7.79187,20.8633 c 2.4914,6.671 -1.09475,13.7012 -8.40687,13.7012 l -87.80437,0 c -7.11755,0 -11.9367,-4.8197 -11.9367,-11.9366 l 0,-24.3925 c 0,-5.8847 4.7,-11.759 11.41772,-11.4021 z"
       id="rect4156"
       inkscape:connector-curvature="0"
       sodipodi:nodetypes="sssssssss" />
    <path
       style="fill:#00559b;fill-opacity:1;stroke:none;stroke-width:26;stroke-miterlimit:4;stroke-dasharray:none;stroke-opacity:1"
       d="m 408.06966,816.4012 c 14.84788,-0.4986 21.42199,-0.7695 30.77617,-1.1647 12.24452,-0.1977 22.47927,-0.1145 33.57828,-0.1327 6.61813,-0.011 10.89873,5.5831 10.89873,11.4172 l 0,24.3912 c 0,6.6126 -5.32376,11.9361 -11.9367,11.9361 l -63.31648,0 c -7.09948,0 -11.9367,-5.1937 -11.9367,-11.9361 l 0,-22.8342 c 0,-7.3467 5.05338,-11.4456 11.9367,-11.6768 z"
       id="rect4179"
       inkscape:connector-curvature="0"
       sodipodi:nodetypes="scssssssss" />
    <circle
       style="fill:#00559b;fill-opacity:1;stroke:none;stroke-width:26;stroke-miterlimit:4;stroke-dasharray:none;stroke-opacity:1"
       id="path5529"
       cx="345.01273"
       cy="931.56445"
       r="32.955704" />
    <circle
       r="21.797474"
       cy="931.56445"
       cx="345.01273"
       id="circle5570"
       style="fill:#ffffff;fill-opacity:1;stroke:none;stroke-width:26;stroke-miterlimit:4;stroke-dasharray:none;stroke-opacity:1" />
    <circle
       r="32.955704"
       cy="931.56445"
       cx="545.34198"
       id="circle5591"
       style="fill:#00559b;fill-opacity:1;stroke:none;stroke-width:26;stroke-miterlimit:4;stroke-dasharray:none;stroke-opacity:1" />
    <circle
       style="fill:#ffffff;fill-opacity:1;stroke:none;stroke-width:26;stroke-miterlimit:4;stroke-dasharray:none;stroke-opacity:1"
       id="circle5593"
       cx="545.34198"
       cy="931.56445"
       r="21.797474" />
    <path
       d="m 198.04507,447.9573 c -12.2424,-42.5127 -4.7469,-74.6741 9.7931,-104.2017 0.041,-0.088 0.2542,-0.2174 0.3952,-0.2026 l -5.6,-10.5466 c 3.8939,-1.3673 5.0261,-1.9827 14.3501,-4.2 8.4582,-1.8087 6.8428,-1.4621 13.9609,-2.1 l 448.1398,0 c 5.6364,0.1738 9.7906,0.8998 14.0158,2.0997 l 13.3,4.2003 c 1.3725,0.3619 2.2428,0.9325 2.7222,1.4778 0.8701,0.8841 1.331,1.7672 1.4,2.8 0.1261,2.0226 -0.899,6.291 -4.9,6.2999 l -2.0533,0 c 20.6898,29.3622 10.2483,66.2576 13.3311,99.4934 l -52.8889,4.8842"
       style="fill:#ffffff;fill-opacity:1;fill-rule:evenodd;stroke:none"
       id="path8418"
       inkscape:connector-curvature="0"
       sodipodi:nodetypes="ccccccccccccccc" />
    <rect
       style="fill:#ffffff;fill-opacity:1;stroke:none;stroke-width:26;stroke-miterlimit:4;stroke-dasharray:none;stroke-opacity:1"
       id="rect34417"
       width="57.400017"
       height="23.33334"
       x="412.78885"
       y="321.18457"
       rx="8.5555573"
       ry="7.7777786" />
    <rect
       style="fill:#00559b;fill-opacity:1;stroke:none;stroke-width:26;stroke-miterlimit:4;stroke-dasharray:none;stroke-opacity:1"
       id="rect34488"
       width="42.000008"
       height="98.000046"
       x="213.36658"
       y="339.30664"
       rx="7.7777786"
       ry="7.7777786" />
    <rect
       rx="5.4444451"
       y="339.30664"
       x="264.07779"
       height="45.577789"
       width="42.155571"
       id="rect34508"
       style="fill:#00559b;fill-opacity:1;stroke:none;stroke-width:26;stroke-miterlimit:4;stroke-dasharray:none;stroke-opacity:1"
       ry="5.4444451" />
    <rect
       style="fill:#00559b;fill-opacity:1;stroke:none;stroke-width:26;stroke-miterlimit:4;stroke-dasharray:none;stroke-opacity:1"
       id="rect34512"
       width="88.822243"
       height="45.577789"
       x="314.94437"
       y="339.30664"
       rx="5.4444451"
       ry="5.4444451" />
    <rect
       ry="5.4444451"
       rx="5.4444451"
       y="339.30664"
       x="412.47781"
       height="45.577789"
       width="88.822243"
       id="rect34588"
       style="fill:#00559b;fill-opacity:1;stroke:none;stroke-width:26;stroke-miterlimit:4;stroke-dasharray:none;stroke-opacity:1" />
    <rect
       style="fill:#00559b;fill-opacity:1;stroke:none;stroke-width:26;stroke-miterlimit:4;stroke-dasharray:none;stroke-opacity:1"
       id="rect34590"
       width="88.822243"
       height="45.577789"
       x="510.01114"
       y="339.30664"
       rx="5.4444451"
       ry="5.4444451" />
    <path
       style="fill:#00559b;fill-opacity:1;stroke:none;stroke-width:26;stroke-miterlimit:4;stroke-dasharray:none;stroke-opacity:1"
       d="m 696.21497,384.8836 -82.9493,0 c -3.1694,0 -5.7209,-2.4282 -5.7209,-5.4444 l 0,-34.6889 c 0,-3.0163 2.5515,-5.4445 5.7209,-5.4445 l 67.8604,0 c 4.093,0 5.4154,2.6431 6.5333,5.4445 l 13.2223,33.1334 c 0.6228,1.5605 -0.6222,6.9999 -4.6667,6.9999 z"
       id="rect34592"
       inkscape:connector-curvature="0"
       sodipodi:nodetypes="sssssssss" />
    <circle
       style="fill:#00559b;fill-opacity:1;stroke:none;stroke-width:26;stroke-miterlimit:4;stroke-dasharray:none;stroke-opacity:1"
       id="path34613"
       cx="301.87772"
       cy="446.79492"
       r="36.866676" />
    <circle
       r="23.722227"
       cy="446.79492"
       cx="301.87772"
       id="circle34644"
       style="fill:#ffffff;fill-opacity:1;stroke:none;stroke-width:26;stroke-miterlimit:4;stroke-dasharray:none;stroke-opacity:1" />
    <circle
       r="36.866676"
       cy="446.79492"
       cx="563.98895"
       id="circle34655"
       style="fill:#00559b;fill-opacity:1;stroke:none;stroke-width:26;stroke-miterlimit:4;stroke-dasharray:none;stroke-opacity:1" />
    <circle
       style="fill:#ffffff;fill-opacity:1;stroke:none;stroke-width:26;stroke-miterlimit:4;stroke-dasharray:none;stroke-opacity:1"
       id="circle34657"
       cx="563.98895"
       cy="446.79492"
       r="23.722227" />
  </g>
</svg>
