<?xml version="1.0" encoding="UTF-8" standalone="no"?>
<!-- Created with Inkscape (http://www.inkscape.org/) -->

<svg
   xmlns:dc="http://purl.org/dc/elements/1.1/"
   xmlns:cc="http://creativecommons.org/ns#"
   xmlns:rdf="http://www.w3.org/1999/02/22-rdf-syntax-ns#"
   xmlns:svg="http://www.w3.org/2000/svg"
   xmlns="http://www.w3.org/2000/svg"
   xmlns:sodipodi="http://sodipodi.sourceforge.net/DTD/sodipodi-0.dtd"
   xmlns:inkscape="http://www.inkscape.org/namespaces/inkscape"
   width="908.79999"
   height="795.19"
   viewBox="0 0 240.45332 210.39403"
   version="1.1"
   id="svg4543"
   inkscape:version="0.92.0 r15299"
   sodipodi:docname="YIELD.svg">
  <defs
     id="defs4537" />
  <sodipodi:namedview
     id="base"
     pagecolor="#ffffff"
     bordercolor="#666666"
     borderopacity="1.0"
     inkscape:pageopacity="0.0"
     inkscape:pageshadow="2"
     inkscape:zoom="0.53646817"
     inkscape:cx="599.44755"
     inkscape:cy="446.85602"
     inkscape:document-units="px"
     inkscape:current-layer="layer1"
     showgrid="false"
     inkscape:snap-global="false"
     units="px"
     fit-margin-top="0"
     fit-margin-left="0"
     fit-margin-right="0"
     fit-margin-bottom="0"
     inkscape:measure-start="0,0"
     inkscape:measure-end="0,0"
     inkscape:window-width="1920"
     inkscape:window-height="1057"
     inkscape:window-x="-8"
     inkscape:window-y="-8"
     inkscape:window-maximized="1" />
  <metadata
     id="metadata4540">
    <rdf:RDF>
      <cc:Work
         rdf:about="">
        <dc:format>image/svg+xml</dc:format>
        <dc:type
           rdf:resource="http://purl.org/dc/dcmitype/StillImage" />
        <dc:title></dc:title>
      </cc:Work>
    </rdf:RDF>
  </metadata>
  <g
     inkscape:label="Layer 1"
     inkscape:groupmode="layer"
     id="layer1"
     transform="translate(-3.96875,-82.637188)">
    <path
       sodipodi:nodetypes="cccc"
       style="opacity:1;fill:none;fill-opacity:1;stroke:#000000;stroke-width:15.875;stroke-linecap:butt;stroke-linejoin:round;stroke-miterlimit:4;stroke-dasharray:none;stroke-dashoffset:0;stroke-opacity:1"
       inkscape:transform-center-y="122.39878"
       d="M 124.19532,284.98867 12.011502,90.680457 l 224.367728,1.3e-4 z"
       id="path4501"
       inkscape:connector-curvature="0"
       inkscape:transform-center-x="-0.0013776848" />
    <path
       inkscape:transform-center-x="-0.0013776848"
       inkscape:connector-curvature="0"
       id="path4575"
       d="M 124.19532,284.98867 12.011502,90.680457 l 224.367728,1.3e-4 z"
       inkscape:transform-center-y="122.39878"
       style="opacity:1;fill:none;fill-opacity:1;stroke:#fffff4;stroke-width:13.75833321;stroke-linecap:butt;stroke-linejoin:round;stroke-miterlimit:4;stroke-dasharray:none;stroke-dashoffset:0;stroke-opacity:1"
       sodipodi:nodetypes="cccc" />
    <path
       sodipodi:nodetypes="cccc"
       style="opacity:1;fill:#e20a16;fill-opacity:1;stroke:#e20a16;stroke-width:5.82083321;stroke-linecap:butt;stroke-linejoin:round;stroke-miterlimit:4;stroke-dasharray:none;stroke-dashoffset:0;stroke-opacity:1"
       inkscape:transform-center-y="122.39847"
       d="M 124.19536,284.98819 12.011782,90.680457 236.379,90.680597 Z"
       id="path4577"
       inkscape:connector-curvature="0"
       inkscape:transform-center-x="-0.0013812723" />
    <path
       style="fill:#ffffff;fill-opacity:1;stroke:none;stroke-width:5.82083321;stroke-linecap:square;stroke-linejoin:round;stroke-miterlimit:4;stroke-dasharray:none;stroke-opacity:1;paint-order:normal"
       d="m 196.05118,113.96372 -143.711668,9e-5 71.855898,124.45798 z"
       id="path4579"
       inkscape:connector-curvature="0"
       sodipodi:nodetypes="cccc" />
    <path
       d="m 90.539776,164.34606 10.294004,-2.77805 c -2.347131,-8.76564 0.45873,-18.25054 7.25521,-24.28307 l -1.17739,4.64803 -0.051,0.47656 0.10193,0.47657 0.15291,0.43145 0.32365,0.37768 0.42305,0.26071 0.42304,0.16056 0.48421,0.0535 0.47657,-0.10703 0.42303,-0.26963 0.37717,-0.31474 14.14194,-17.66616 -21.45092,-7.3092 -0.20388,-0.0535 -0.47656,-0.0535 -0.47656,0.10703 -0.43069,0.21662 -0.36953,0.36851 -0.20387,0.37768 -0.15291,0.47656 v 0.47657 l 0.15291,0.48548 0.27013,0.42253 4.0546,4.96272 c -12.487728,8.42399 -18.19654,23.49193 -14.348616,38.0564 z"
       style="fill:#000000;fill-opacity:1;fill-rule:nonzero;stroke:none;stroke-width:0.01164177;stroke-linecap:butt;stroke-linejoin:miter;stroke-miterlimit:3.86400008;stroke-dasharray:none;stroke-opacity:1"
       id="path33838"
       inkscape:connector-curvature="0" />
    <path
       d="m 130.43927,131.9536 c 8.78353,2.35555 15.60729,9.54781 17.44117,18.46631 l -3.47025,-3.36242 -0.36953,-0.26962 -0.43069,-0.16056 -0.47656,-0.0535 -0.4842,0.0535 -0.42305,0.21663 -0.36953,0.31473 -0.27013,0.43145 -0.15292,0.42254 v 0.48549 l 0.10193,0.47656 8.21727,21.13644 17.06373,-14.94206 0.15291,-0.16054 0.27014,-0.43146 0.1529,-0.42253 v -0.48549 l -0.10193,-0.47656 -0.27013,-0.42254 -0.31346,-0.32365 -0.43069,-0.26962 -0.47656,-0.0994 h -0.48421 l -6.3472,1.06092 c -0.88176,-14.87911 -11.36385,-27.63651 -25.76649,-31.48442 z"
       style="fill:#000000;fill-opacity:1;fill-rule:nonzero;stroke:none;stroke-width:0.01164177;stroke-linecap:butt;stroke-linejoin:miter;stroke-miterlimit:3.86400008;stroke-dasharray:none;stroke-opacity:1"
       id="path33840"
       inkscape:connector-curvature="0" />
    <path
       d="m 106.43479,192.57594 2.29362,-6.03257 c 13.38656,6.65289 29.52444,3.99174 40.11508,-6.563 l -7.52484,-7.52498 c -6.61709,6.38319 -15.9312,8.76565 -24.69664,5.81679 l 4.63896,-1.27652 0.42305,-0.21662 0.37717,-0.26963 0.27014,-0.42253 0.15291,-0.43145 0.051,-0.48549 -0.10193,-0.46739 -0.20388,-0.43145 -0.32366,-0.37768 -0.42304,-0.26071 -0.43069,-0.10703 -22.404038,-3.41637 4.378248,22.19731 0.051,0.26962 0.20387,0.42254 0.36953,0.32366 0.37718,0.26963 0.47656,0.1529 h 0.4842 l 0.47657,-0.1529 0.43069,-0.21663 0.31346,-0.37768 z"
       style="fill:#000000;fill-opacity:1;fill-rule:nonzero;stroke:none;stroke-width:0.01164177;stroke-linecap:butt;stroke-linejoin:miter;stroke-miterlimit:3.86400008;stroke-dasharray:none;stroke-opacity:1"
       id="path33842"
       inkscape:connector-curvature="0" />
  </g>
</svg>
