<?xml version="1.0" encoding="UTF-8" standalone="no"?>
<!-- Created with Inkscape (http://www.inkscape.org/) -->

<svg
   xmlns:dc="http://purl.org/dc/elements/1.1/"
   xmlns:cc="http://creativecommons.org/ns#"
   xmlns:rdf="http://www.w3.org/1999/02/22-rdf-syntax-ns#"
   xmlns:svg="http://www.w3.org/2000/svg"
   xmlns="http://www.w3.org/2000/svg"
   xmlns:sodipodi="http://sodipodi.sourceforge.net/DTD/sodipodi-0.dtd"
   xmlns:inkscape="http://www.inkscape.org/namespaces/inkscape"
   width="900.79999"
   height="900.79999"
   viewBox="0 0 900.79997 900.8"
   id="svg4143"
   version="1.1"
   inkscape:version="0.91 r13725"
   sodipodi:docname="11.svg">
  <defs
     id="defs4145" />
  <sodipodi:namedview
     id="base"
     pagecolor="#ffffff"
     bordercolor="#666666"
     borderopacity="1.0"
     inkscape:pageopacity="0.0"
     inkscape:pageshadow="2"
     inkscape:zoom="0.7"
     inkscape:cx="497.93504"
     inkscape:cy="423.56985"
     inkscape:document-units="px"
     inkscape:current-layer="layer1"
     showgrid="false"
     units="px"
     fit-margin-top="0"
     fit-margin-left="0"
     fit-margin-right="0"
     fit-margin-bottom="0"
     inkscape:window-width="1920"
     inkscape:window-height="1057"
     inkscape:window-x="-8"
     inkscape:window-y="-8"
     inkscape:window-maximized="1" />
  <metadata
     id="metadata4148">
    <rdf:RDF>
      <cc:Work
         rdf:about="">
        <dc:format>image/svg+xml</dc:format>
        <dc:type
           rdf:resource="http://purl.org/dc/dcmitype/StillImage" />
        <dc:title></dc:title>
      </cc:Work>
    </rdf:RDF>
  </metadata>
  <g
     inkscape:label="Layer 1"
     inkscape:groupmode="layer"
     id="layer1"
     transform="translate(83.472962,2542.0304)">
    <circle
       style="fill:#e20a16;fill-opacity:1;stroke:none;stroke-width:8.05000019;stroke-miterlimit:4;stroke-dasharray:none;stroke-opacity:1"
       id="path4702"
       cx="366.92703"
       cy="-2091.6304"
       r="450" />
    <circle
       cy="-2091.6304"
       cx="366.92703"
       id="circle4704"
       style="fill:#ffffff;fill-opacity:1;stroke:none;stroke-width:8.05000019;stroke-miterlimit:4;stroke-dasharray:none;stroke-opacity:1"
       r="375" />
    <path
       style="fill:#000000;fill-opacity:1;fill-rule:nonzero;stroke:none"
       d="m 269.22782,-2248.2302 c 3.00086,0.1388 4.66237,-0.015 8.21094,0.9609 3.18762,1.2362 4.411,1.8402 7.17187,3.3574 2.09503,1.1917 4.70235,3.0391 7.03711,5.5821 1.66085,1.9046 3.08827,4.0413 4.47852,6.2988 1.39959,2.4787 2.65791,4.5818 3.60156,8.1016 l 16.19922,78.8992 c 0.40087,1.7155 0.92435,3.4659 1.74023,5.3 0.73879,1.5189 2.65549,3.9298 4.48047,5.3594 2.22863,1.8615 5.75787,4.0586 6.3086,4.4804 1.40167,1.1519 2.58772,2.2313 3.57031,4.5098 0.70292,2.0404 0.76783,3.975 0.90039,6.25 l 0,77.1003 -261.999999,0 0,-77.1003 c 0.13256,-2.275 0.19747,-4.2096 0.90039,-6.25 0.98259,-2.2785 2.16863,-3.3579 3.57031,-4.5098 0.55073,-0.4218 4.079975,-2.6189 6.308595,-4.4804 1.82499,-1.4296 3.74169,-3.8405 4.48047,-5.3594 0.81589,-1.8341 1.33936,-3.5845 1.74023,-5.3 l 16.199224,-78.8992 c 0.94365,-3.5198 2.20197,-5.6229 3.60156,-8.1016 1.39025,-2.2575 2.81767,-4.3942 4.47852,-6.2988 2.33477,-2.543 4.94209,-4.3904 7.03711,-5.5821 2.76088,-1.5172 3.98425,-2.1212 7.17187,-3.3574 3.54856,-0.976 5.21008,-0.8221 8.21094,-0.9609 z"
       id="path7798"
       inkscape:connector-curvature="0"
       sodipodi:nodetypes="ccccccccccccccccccccccccccc" />
    <path
       style="fill:#000000;fill-opacity:1;fill-rule:nonzero;stroke:none"
       d="m 317.52682,-1959.6303 0,-45.6004 c 10.54552,-1.4621 16.35734,-7.9557 15.27052,-18.8 l -261.740809,0 c -1.08683,10.8443 4.72501,17.3379 15.270535,18.8 l 0,45.6004 47.000004,0 0,-45.6004 137.19975,0 0,45.6004 z"
       id="path7800"
       inkscape:connector-curvature="0"
       sodipodi:nodetypes="ccccccccccc" />
    <path
       style="fill:#ffffff;fill-opacity:1;fill-rule:nonzero;stroke:none"
       d="m 262.32684,-2223.8298 c 2.10717,0.075 3.36391,0.5495 4.19922,0.9004 1.51328,0.6783 2.49741,1.029 4,2.0996 1.79122,1.3852 3.16561,2.778 4.06054,4.1914 0.8591,1.682 1.17234,2.9872 1.80079,5.3984 l 14.33984,68.0098 -177.60019,0 14.33984,-68.0098 c 0.62844,-2.4112 0.94169,-3.7164 1.80078,-5.3984 0.89494,-1.4134 2.26933,-2.8062 4.06055,-4.1914 1.50259,-1.0706 2.48672,-1.4213 4,-2.0996 0.83531,-0.3509 2.09205,-0.8254 4.19922,-0.9004 z"
       id="path17734"
       inkscape:connector-curvature="0"
       sodipodi:nodetypes="ccccccccccccc" />
    <path
       sodipodi:nodetypes="ccccccccccccccccccccccccccc"
       inkscape:connector-curvature="0"
       id="path20709"
       d="m 464.62626,-2248.2302 c -3.00086,0.1388 -4.66237,-0.015 -8.21094,0.9609 -3.18762,1.2362 -4.411,1.8402 -7.17187,3.3574 -2.09503,1.1917 -4.70235,3.0391 -7.03711,5.5821 -1.66085,1.9046 -3.08827,4.0413 -4.47852,6.2988 -1.39959,2.4787 -2.65791,4.5818 -3.60156,8.1016 l -16.19922,78.8992 c -0.40087,1.7155 -0.92435,3.4659 -1.74023,5.3 -0.73879,1.5189 -2.65549,3.9298 -4.48047,5.3594 -2.22863,1.8615 -5.75787,4.0586 -6.3086,4.4804 -1.40167,1.1519 -2.58772,2.2313 -3.57031,4.5098 -0.70292,2.0404 -0.76783,3.975 -0.90039,6.25 l 0,77.1003 262,0 0,-77.1003 c -0.13256,-2.275 -0.19747,-4.2096 -0.90039,-6.25 -0.98259,-2.2785 -2.16863,-3.3579 -3.57031,-4.5098 -0.55073,-0.4218 -4.07998,-2.6189 -6.3086,-4.4804 -1.82499,-1.4296 -3.74169,-3.8405 -4.48047,-5.3594 -0.81589,-1.8341 -1.33936,-3.5845 -1.74023,-5.3 l -16.19922,-78.8992 c -0.94365,-3.5198 -2.20197,-5.6229 -3.60156,-8.1016 -1.39025,-2.2575 -2.81767,-4.3942 -4.47852,-6.2988 -2.33477,-2.543 -4.94209,-4.3904 -7.03711,-5.5821 -2.76088,-1.5172 -3.98425,-2.1212 -7.17187,-3.3574 -3.54856,-0.976 -5.21008,-0.8221 -8.21094,-0.9609 z"
       style="fill:#000000;fill-opacity:1;fill-rule:nonzero;stroke:none" />
    <path
       sodipodi:nodetypes="ccccccccccc"
       inkscape:connector-curvature="0"
       id="path20711"
       d="m 416.32726,-1959.6303 0,-45.6004 c -10.54552,-1.4621 -16.35734,-7.9557 -15.27052,-18.8 l 261.74081,0 c 1.08683,10.8443 -4.72501,17.3379 -15.27054,18.8 l 0,45.6004 -47,0 0,-45.6004 -137.19975,0 0,45.6004 z"
       style="fill:#000000;fill-opacity:1;fill-rule:nonzero;stroke:none" />
    <path
       sodipodi:nodetypes="ccccccccccccc"
       inkscape:connector-curvature="0"
       id="path20713"
       d="m 471.52724,-2223.8298 c -2.10717,0.075 -3.36391,0.5495 -4.19922,0.9004 -1.51328,0.6783 -2.49741,1.029 -4,2.0996 -1.79122,1.3852 -3.16561,2.778 -4.06054,4.1914 -0.8591,1.682 -1.17234,2.9872 -1.80079,5.3984 l -14.33984,68.0098 177.60019,0 -14.33984,-68.0098 c -0.62844,-2.4112 -0.94169,-3.7164 -1.80078,-5.3984 -0.89494,-1.4134 -2.26933,-2.8062 -4.06055,-4.1914 -1.50259,-1.0706 -2.48672,-1.4213 -4,-2.0996 -0.83531,-0.3509 -2.09205,-0.8254 -4.19922,-0.9004 z"
       style="fill:#ffffff;fill-opacity:1;fill-rule:nonzero;stroke:none" />
    <rect
       transform="matrix(0.93969262,0.34202014,-0.34202014,0.93969262,0,0)"
       style="fill:#e20a16;fill-opacity:1;stroke:none;stroke-width:8.05000019;stroke-miterlimit:4;stroke-dasharray:none;stroke-opacity:1"
       id="rect22162"
       width="75"
       height="800"
       x="-262.58093"
       y="-2490.9856" />
  </g>
</svg>
