<?xml version="1.0" encoding="UTF-8" standalone="no"?>
<!-- Created with Inkscape (http://www.inkscape.org/) -->

<svg
   xmlns:dc="http://purl.org/dc/elements/1.1/"
   xmlns:cc="http://creativecommons.org/ns#"
   xmlns:rdf="http://www.w3.org/1999/02/22-rdf-syntax-ns#"
   xmlns:svg="http://www.w3.org/2000/svg"
   xmlns="http://www.w3.org/2000/svg"
   xmlns:sodipodi="http://sodipodi.sourceforge.net/DTD/sodipodi-0.dtd"
   xmlns:inkscape="http://www.inkscape.org/namespaces/inkscape"
   width="900.79999"
   height="900.79999"
   viewBox="0 0 900.79999 900.79999"
   id="svg4143"
   version="1.1"
   inkscape:version="0.91 r13725"
   sodipodi:docname="11.svg">
  <defs
     id="defs4145" />
  <sodipodi:namedview
     id="base"
     pagecolor="#ffffff"
     bordercolor="#666666"
     borderopacity="1.0"
     inkscape:pageopacity="0.0"
     inkscape:pageshadow="2"
     inkscape:zoom="0.49497475"
     inkscape:cx="330.76602"
     inkscape:cy="340.40721"
     inkscape:document-units="px"
     inkscape:current-layer="layer1"
     showgrid="false"
     units="px"
     fit-margin-top="0"
     fit-margin-left="0"
     fit-margin-right="0"
     fit-margin-bottom="0"
     inkscape:window-width="1920"
     inkscape:window-height="1057"
     inkscape:window-x="-8"
     inkscape:window-y="-8"
     inkscape:window-maximized="1" />
  <metadata
     id="metadata4148">
    <rdf:RDF>
      <cc:Work
         rdf:about="">
        <dc:format>image/svg+xml</dc:format>
        <dc:type
           rdf:resource="http://purl.org/dc/dcmitype/StillImage" />
        <dc:title></dc:title>
      </cc:Work>
    </rdf:RDF>
  </metadata>
  <g
     inkscape:label="Layer 1"
     inkscape:groupmode="layer"
     id="layer1"
     transform="translate(-322.92859,1494.2509)">
    <circle
       style="fill:#e20a16;fill-opacity:1;stroke:none;stroke-width:8.05000019;stroke-miterlimit:4;stroke-dasharray:none;stroke-opacity:1"
       id="path4702"
       cx="773.32861"
       cy="-1043.851"
       r="450" />
    <circle
       cy="-1043.851"
       cx="773.32861"
       id="circle4704"
       style="fill:#ffffff;fill-opacity:1;stroke:none;stroke-width:8.05000019;stroke-miterlimit:4;stroke-dasharray:none;stroke-opacity:1"
       r="375" />
    <path
       sodipodi:nodetypes="ccccccccccccccccccccccc"
       inkscape:connector-curvature="0"
       id="path9323"
       d="m 503.32859,-891.85089 0,-87 36.4,0 0,87 z m 43,0 0,-87 36.4,0 0,35.5 79.2,0 0,-35.5 36.4,0 0,87 -36.4,0 0,-35.5 -79.2,0 0,35.5 z m 158.6,0 0,-87 36.4,0 0,87 z"
       style="opacity:1;fill:#000000;fill-opacity:1;stroke:none;stroke-width:1;stroke-linejoin:miter;stroke-miterlimit:4;stroke-dasharray:none;stroke-dashoffset:0;stroke-opacity:1" />
    <path
       sodipodi:nodetypes="csssscc"
       inkscape:connector-curvature="0"
       id="path9325"
       d="m 741.32859,-993.85087 0,-217.20003 c 0,-11.5232 -9.2768,-20.8 -20.8,-20.8 l -196.4,0 c -11.5232,0 -20.8,9.2768 -20.8,20.8 l 0,217.20003 z"
       style="fill:#000000;fill-opacity:1;stroke:none;stroke-width:8.05000019;stroke-miterlimit:4;stroke-dasharray:none;stroke-opacity:1" />
    <ellipse
       ry="14.7"
       rx="18.700001"
       cy="-935.35095"
       cx="622.32861"
       id="ellipse9327"
       style="fill:#000000;fill-opacity:1;stroke:none;stroke-width:8.05000019;stroke-miterlimit:4;stroke-dasharray:none;stroke-opacity:1" />
    <path
       style="opacity:1;fill:#000000;fill-opacity:1;stroke:none;stroke-width:1;stroke-linejoin:miter;stroke-miterlimit:4;stroke-dasharray:none;stroke-dashoffset:0;stroke-opacity:1"
       d="m 1043.3285,-891.85089 0,-87 -36.4,0 0,87 z m -43,0 0,-87 -36.39996,0 0,35.5 -79.2,0 0,-35.5 -36.4,0 0,87 36.4,0 0,-35.5 79.2,0 0,35.5 z m -158.59996,0 0,-87 -36.4,0 0,87 z"
       id="path9351"
       inkscape:connector-curvature="0"
       sodipodi:nodetypes="ccccccccccccccccccccccc" />
    <path
       style="fill:#000000;fill-opacity:1;stroke:none;stroke-width:8.05000019;stroke-miterlimit:4;stroke-dasharray:none;stroke-opacity:1"
       d="m 805.32854,-993.85087 0,-217.20003 c 0,-11.5232 9.2768,-20.8 20.8,-20.8 l 196.39996,0 c 11.5232,0 20.8,9.2768 20.8,20.8 l 0,217.20003 z"
       id="path9353"
       inkscape:connector-curvature="0"
       sodipodi:nodetypes="csssscc" />
    <ellipse
       style="fill:#000000;fill-opacity:1;stroke:none;stroke-width:8.05000019;stroke-miterlimit:4;stroke-dasharray:none;stroke-opacity:1"
       id="ellipse9355"
       cx="924.32861"
       cy="-935.35095"
       rx="18.700001"
       ry="14.7" />
    <rect
       y="-1645.3927"
       x="477.67328"
       height="800"
       width="75"
       id="rect4144"
       style="fill:#e20a16;fill-opacity:1;stroke:none;stroke-width:8.05000019;stroke-miterlimit:4;stroke-dasharray:none;stroke-opacity:1"
       transform="matrix(0.93969262,0.34202014,-0.34202014,0.93969262,0,0)" />
  </g>
</svg>
