<?xml version="1.0" encoding="UTF-8" standalone="no"?>
<!-- Created with Inkscape (http://www.inkscape.org/) -->

<svg
   xmlns:dc="http://purl.org/dc/elements/1.1/"
   xmlns:cc="http://creativecommons.org/ns#"
   xmlns:rdf="http://www.w3.org/1999/02/22-rdf-syntax-ns#"
   xmlns:svg="http://www.w3.org/2000/svg"
   xmlns="http://www.w3.org/2000/svg"
   xmlns:sodipodi="http://sodipodi.sourceforge.net/DTD/sodipodi-0.dtd"
   xmlns:inkscape="http://www.inkscape.org/namespaces/inkscape"
   width="900.79999"
   height="900.79999"
   viewBox="0 0 900.8 900.8"
   id="svg4157"
   version="1.1"
   inkscape:version="0.91 r13725"
   sodipodi:docname="11.svg">
  <defs
     id="defs4159" />
  <sodipodi:namedview
     id="base"
     pagecolor="#ffffff"
     bordercolor="#666666"
     borderopacity="1.0"
     inkscape:pageopacity="0.0"
     inkscape:pageshadow="2"
     inkscape:zoom="0.49497475"
     inkscape:cx="632.125"
     inkscape:cy="518.02242"
     inkscape:document-units="px"
     inkscape:current-layer="layer1"
     showgrid="false"
     units="px"
     inkscape:window-width="1920"
     inkscape:window-height="1057"
     inkscape:window-x="-8"
     inkscape:window-y="-8"
     inkscape:window-maximized="1" />
  <metadata
     id="metadata4162">
    <rdf:RDF>
      <cc:Work
         rdf:about="">
        <dc:format>image/svg+xml</dc:format>
        <dc:type
           rdf:resource="http://purl.org/dc/dcmitype/StillImage" />
        <dc:title></dc:title>
      </cc:Work>
    </rdf:RDF>
  </metadata>
  <g
     inkscape:label="Layer 1"
     inkscape:groupmode="layer"
     id="layer1"
     transform="translate(0,-151.56212)">
    <circle
       r="450"
       cy="601.96216"
       cx="450.39999"
       id="circle4138"
       style="fill:#e20a16;fill-opacity:1;stroke:none;stroke-width:10;stroke-miterlimit:4;stroke-dasharray:none;stroke-opacity:1" />
    <circle
       style="fill:#ffffff;fill-opacity:1;stroke:none;stroke-width:10;stroke-miterlimit:4;stroke-dasharray:none;stroke-opacity:1"
       id="circle4140"
       cx="450.39999"
       cy="601.96216"
       r="375" />
    <rect
       y="3.3187058"
       x="576.87238"
       height="860"
       width="75"
       id="rect45103"
       style="fill:#e20a16;fill-opacity:1;stroke:none;stroke-width:4;stroke-miterlimit:4;stroke-dasharray:none;stroke-opacity:1"
       transform="matrix(0.95105652,0.30901699,-0.30901699,0.95105652,0,0)" />
    <path
       id="path45123"
       d="m 446.74249,376.98619 c -107.66177,1.54451 -203.72935,77.35333 -120.98942,205.31403 53.0214,68.09495 249.39335,57.84333 217.47499,139.27844 -36.17664,57.2043 -156.76638,39.11521 -193.20682,-25.17372 l -76.38545,53.02282 c 99.41043,171.16071 459.0683,108.34367 340.58982,-120.39815 -41.3393,-58.5986 -117.57483,-59.69181 -177.94459,-88.97232 -23.02497,-7.98899 -51.17474,-12.21035 -48.49917,-43.1113 6.74541,-27.47161 30.63602,-25.9278 53.88704,-28.7918 39.60588,-0.97979 78.6877,17.67317 103.33309,48.53635 L 616.93816,459.1854 C 580.11149,401.86802 511.33954,376.05949 446.74249,376.98619 Z"
       style="fill:#000000;fill-opacity:1;fill-rule:evenodd;stroke:none"
       inkscape:connector-curvature="0" />
  </g>
</svg>
