<?xml version="1.0" encoding="UTF-8" standalone="no"?>
<!-- Created with Inkscape (http://www.inkscape.org/) -->

<svg
   xmlns:dc="http://purl.org/dc/elements/1.1/"
   xmlns:cc="http://creativecommons.org/ns#"
   xmlns:rdf="http://www.w3.org/1999/02/22-rdf-syntax-ns#"
   xmlns:svg="http://www.w3.org/2000/svg"
   xmlns="http://www.w3.org/2000/svg"
   xmlns:sodipodi="http://sodipodi.sourceforge.net/DTD/sodipodi-0.dtd"
   xmlns:inkscape="http://www.inkscape.org/namespaces/inkscape"
   width="900.79999"
   height="900.79999"
   viewBox="0 0 900.80001 900.80002"
   id="svg4157"
   version="1.1"
   inkscape:version="0.91 r13725"
   sodipodi:docname="11.svg">
  <defs
     id="defs4159">
    <pattern
       y="0"
       x="0"
       height="6"
       width="6"
       patternUnits="userSpaceOnUse"
       id="EMFhbasepattern" />
    <pattern
       y="0"
       x="0"
       height="6"
       width="6"
       patternUnits="userSpaceOnUse"
       id="EMFhbasepattern-3" />
    <pattern
       y="0"
       x="0"
       height="6"
       width="6"
       patternUnits="userSpaceOnUse"
       id="EMFhbasepattern-5" />
  </defs>
  <sodipodi:namedview
     id="base"
     pagecolor="#ffffff"
     bordercolor="#666666"
     borderopacity="1.0"
     inkscape:pageopacity="0.0"
     inkscape:pageshadow="2"
     inkscape:zoom="0.49497475"
     inkscape:cx="132.82799"
     inkscape:cy="393.10036"
     inkscape:document-units="px"
     inkscape:current-layer="layer1"
     showgrid="false"
     units="px"
     inkscape:window-width="1920"
     inkscape:window-height="1057"
     inkscape:window-x="-8"
     inkscape:window-y="-8"
     inkscape:window-maximized="1"
     fit-margin-top="0"
     fit-margin-left="0"
     fit-margin-right="0"
     fit-margin-bottom="0" />
  <metadata
     id="metadata4162">
    <rdf:RDF>
      <cc:Work
         rdf:about="">
        <dc:format>image/svg+xml</dc:format>
        <dc:type
           rdf:resource="http://purl.org/dc/dcmitype/StillImage" />
        <dc:title></dc:title>
      </cc:Work>
    </rdf:RDF>
  </metadata>
  <g
     inkscape:label="Layer 1"
     inkscape:groupmode="layer"
     id="layer1"
     transform="translate(-279.0088,1253.8379)">
    <circle
       r="450"
       cy="-803.43787"
       cx="729.40875"
       id="circle4138"
       style="fill:#e20a16;fill-opacity:1;stroke:none;stroke-width:10;stroke-miterlimit:4;stroke-dasharray:none;stroke-opacity:1" />
    <circle
       style="fill:#ffffff;fill-opacity:1;stroke:none;stroke-width:10;stroke-miterlimit:4;stroke-dasharray:none;stroke-opacity:1"
       id="circle4140"
       cx="729.40875"
       cy="-803.43787"
       r="375" />
    <path
       inkscape:connector-curvature="0"
       id="path13379-7"
       style="fill:#000000;fill-opacity:1;fill-rule:evenodd;stroke:none"
       d="m 650.4894,-921.03814 -65.6675,56.60461 -155.04441,23.7125 c -2.0052,0.3849 -3.8489,0.9718 -5.4708,1.8359 -2.2938,1.0933 -3.9311,2.3507 -5.4677,3.6333 -1.8942,1.8231 -2.6923,3.6463 -3.6716,5.4694 -0.4032,0.9301 -0.6753,1.8603 -0.8873,2.7904 -7.4963,30.7502 -4.3968,46.1634 11.8563,72.0942 l -5.5274,4.6599 109.79381,0 0,10.8 485.0001,0 c 27.5004,-26.581 38.9246,-70.8023 30.0515,-107.6717 l -4.5896,-0.9179 -80.28047,-76.68381 c -2.8359,-2.4948 -6.4457,-5.7565 -8.0503,-6.7467 -1.94391,-1.1421 -5.20761,-2.9114 -9.28291,-3.3122 0,0 -14.5746,-1.8678 -17.8135,-2.1923 -23.9052,-2.638 -24.2321,-1.7841 -33.247,-2.3573 l -53.8109,-0.9181 -53.81431,0 -54.5255,2.042 c -16.2787,0.8564 -29.2516,1.1448 -54.0175,6.1809 -7.667,1.266 -5.3847,0.9647 -7.591,1.5482 -3.1749,0.7151 -6.176,2.0598 -9.7329,3.9212 -3.60891,2.2695 -6.88921,4.3747 -8.22451,5.5075"
       sodipodi:nodetypes="cccccccccccccccccccccccccc" />
    <circle
       r="70.900009"
       cy="-752.93768"
       cx="524.90894"
       id="circle13389-4"
       style="opacity:1;fill:#ffffff;fill-opacity:1;stroke:none;stroke-width:2.4000001;stroke-linejoin:miter;stroke-miterlimit:4;stroke-dasharray:none;stroke-dashoffset:0;stroke-opacity:1" />
    <circle
       style="opacity:1;fill:#000000;fill-opacity:1;stroke:none;stroke-width:2.4000001;stroke-linejoin:miter;stroke-miterlimit:4;stroke-dasharray:none;stroke-dashoffset:0;stroke-opacity:1"
       id="circle5498"
       cx="524.90894"
       cy="-752.93768"
       r="47.500004" />
    <circle
       style="opacity:1;fill:#ffffff;fill-opacity:1;stroke:none;stroke-width:2.4000001;stroke-linejoin:miter;stroke-miterlimit:4;stroke-dasharray:none;stroke-dashoffset:0;stroke-opacity:1"
       id="circle5557"
       cx="943.90894"
       cy="-752.93768"
       r="70.900009" />
    <circle
       r="47.500004"
       cy="-752.93768"
       cx="943.90894"
       id="circle5559"
       style="opacity:1;fill:#000000;fill-opacity:1;stroke:none;stroke-width:2.4000001;stroke-linejoin:miter;stroke-miterlimit:4;stroke-dasharray:none;stroke-dashoffset:0;stroke-opacity:1" />
    <path
       inkscape:connector-curvature="0"
       id="path13381-3-9"
       style="fill:#ffffff;fill-opacity:1;fill-rule:nonzero;stroke:none"
       d="m 791.47031,-926.03784 c 1.9681,0.2438 4.3403,0.2703 5.5029,0.9478 1.1961,0.5222 3.8272,2.5608 3.797,2.7419 0.8876,0.6584 2.1815,2.9917 2.6389,4.8015 0.37111,1.8455 0.30561,3.7349 0,5.6481 l -9.2012,45.26091 c -0.4223,1.9334 -1.0114,3.5329 -1.8168,4.6996 -1.1564,2.2518 -3.264,3.6802 -3.264,3.6802 -1.7236,0.8678 -3.451,0.7919 -5.0134,1.0199 l -138.61221,0 c -1.4316,-0.1056 -2.6861,0.1789 -4.5822,-0.9479 -1.3312,-0.9374 -4.6193,-3.7522 -4.6193,-3.7522 0,0 -1.746,-1.2706 -2.7408,-4.6996 -0.2793,-1.6497 -0.1034,-3.1855 0,-4.7393 0.1488,-0.9945 0.2572,-2.0916 2.1102,-5.2732 l 2.0168,-2.558 c 6.6878,-6.09511 36.89751,-36.71111 46.54581,-39.10621 6.2396,-1.5491 11.7815,-2.7042 20.201,-3.9438 22.4429,-3.3042 75.4535,-3.476 87.025,-3.7797"
       sodipodi:nodetypes="ccccccccccccccccssc" />
    <path
       inkscape:connector-curvature="0"
       id="path13383-8-6"
       style="fill:#ffffff;fill-opacity:1;fill-rule:nonzero;stroke:none"
       d="m 902.27232,-925.37634 c 2.0089,0.324 4.2953,0.3716 6.0268,0.9721 5.4251,2.1498 6.3868,2.713 8.7511,4.9061 l 30.7051,32.575 c 1.1249,1.0154 3.84841,4.63211 4.72201,6.77911 5.1542,13.523 -0.097,22.7384 -14.69771,22.9061 l -115.6183,0 c -1.8174,-0.2358 -5.5034,-0.9102 -5.5034,-0.9102 0,0 -2.1002,-0.5886 -3.6536,-2.8958 -0.845,-1.2439 -1.636,-2.2048 -2.7393,-4.8053 -0.3201,-1.3971 -0.6699,-2.7462 0,-5.7266 l 7.3105,-43.97011 c 0.592,-1.9047 0.5265,-3.7002 1.8465,-5.7265 1.1428,-1.2538 1.5514,-2.3699 3.6566,-3.8043 0.8717,-0.8011 3.1698,-0.8895 5.5008,-0.9611 l 55.0601,0"
       sodipodi:nodetypes="cccccccccccccccc" />
    <rect
       transform="matrix(0.8660254,0.5,-0.5,0.8660254,0,0)"
       style="fill:#e20a16;fill-opacity:1;stroke:none;stroke-width:4;stroke-miterlimit:4;stroke-dasharray:none;stroke-opacity:1"
       id="rect4239"
       width="75"
       height="860"
       x="192.46759"
       y="-1490.502" />
  </g>
</svg>
