<?xml version="1.0" encoding="UTF-8" standalone="no"?>
<!-- Created with Inkscape (http://www.inkscape.org/) -->

<svg
   xmlns:dc="http://purl.org/dc/elements/1.1/"
   xmlns:cc="http://creativecommons.org/ns#"
   xmlns:rdf="http://www.w3.org/1999/02/22-rdf-syntax-ns#"
   xmlns:svg="http://www.w3.org/2000/svg"
   xmlns="http://www.w3.org/2000/svg"
   xmlns:sodipodi="http://sodipodi.sourceforge.net/DTD/sodipodi-0.dtd"
   xmlns:inkscape="http://www.inkscape.org/namespaces/inkscape"
   width="900.79999"
   height="900.79999"
   viewBox="0 0 900.80001 900.80002"
   id="svg4157"
   version="1.1"
   inkscape:version="0.91 r13725"
   sodipodi:docname="11.svg">
  <defs
     id="defs4159">
    <pattern
       y="0"
       x="0"
       height="6"
       width="6"
       patternUnits="userSpaceOnUse"
       id="EMFhbasepattern" />
    <pattern
       y="0"
       x="0"
       height="6"
       width="6"
       patternUnits="userSpaceOnUse"
       id="EMFhbasepattern-3" />
    <pattern
       y="0"
       x="0"
       height="6"
       width="6"
       patternUnits="userSpaceOnUse"
       id="EMFhbasepattern-5" />
  </defs>
  <sodipodi:namedview
     id="base"
     pagecolor="#ffffff"
     bordercolor="#666666"
     borderopacity="1.0"
     inkscape:pageopacity="0.0"
     inkscape:pageshadow="2"
     inkscape:zoom="0.49497475"
     inkscape:cx="426.01645"
     inkscape:cy="390.92277"
     inkscape:document-units="px"
     inkscape:current-layer="layer1"
     showgrid="false"
     units="px"
     inkscape:window-width="1920"
     inkscape:window-height="1057"
     inkscape:window-x="-8"
     inkscape:window-y="-8"
     inkscape:window-maximized="1"
     fit-margin-top="0"
     fit-margin-left="0"
     fit-margin-right="0"
     fit-margin-bottom="0" />
  <metadata
     id="metadata4162">
    <rdf:RDF>
      <cc:Work
         rdf:about="">
        <dc:format>image/svg+xml</dc:format>
        <dc:type
           rdf:resource="http://purl.org/dc/dcmitype/StillImage" />
        <dc:title></dc:title>
      </cc:Work>
    </rdf:RDF>
  </metadata>
  <g
     inkscape:label="Layer 1"
     inkscape:groupmode="layer"
     id="layer1"
     transform="translate(-279.0088,1253.8379)">
    <circle
       r="450"
       cy="-803.43787"
       cx="729.40875"
       id="circle4138"
       style="fill:#e20a16;fill-opacity:1;stroke:none;stroke-width:10;stroke-miterlimit:4;stroke-dasharray:none;stroke-opacity:1" />
    <circle
       style="fill:#ffffff;fill-opacity:1;stroke:none;stroke-width:10;stroke-miterlimit:4;stroke-dasharray:none;stroke-opacity:1"
       id="circle4140"
       cx="729.40875"
       cy="-803.43787"
       r="375" />
    <path
       style="fill:#000000;fill-opacity:1;fill-rule:nonzero;stroke:none"
       d="m 766.90873,-1028.4379 7,31.41981 93.2422,0 c 3.5326,0.1418 7.2376,0.2325 8.9355,0.8985 5.5284,1.4567 6.4315,1.9883 8.0743,2.6679 2.7916,1.5021 5.5501,3.1036 8.0742,5.4082 2.1591,2.3776 4.0222,4.7552 5.3691,7.1328 1.1323,1.2265 2.8511,4.799 4.5059,8.1153 l 59.09959,162.3574 5.459,6.1992 c 3.5335,5.3719 6.4013,12.1702 8.9375,19.7031 2.0321,5.7898 1.2374,7.8106 1.8027,11.6446 l 0,64.5528 c -0.2827,3.3299 -1.1469,4.536 -1.8027,6.2735 -0.7768,1.7586 -1.5233,3.7207 -3.416,5.4707 -0.8994,1.1608 -5.647,4.6631 -9.0411,4.957 l -4.6002,0.3398 0,104.8594 -56.43999,0 0,-68 c -57.1472,8.635 -114.9808,12.5438 -172.7,12.4004 -57.7192,0.1434 -115.5528,-3.7654 -172.7,-12.4004 l 0,68 -56.4401,0 0,-104.8594 -4.6002,-0.3398 c -3.3941,-0.2939 -8.1417,-3.7961 -9.041,-4.957 -1.8928,-1.75 -2.6393,-3.7121 -3.4161,-5.4707 -0.6558,-1.7375 -1.52,-2.9436 -1.8027,-6.2735 l 0,-64.5528 c 0.5653,-3.834 -0.2294,-5.8548 1.8027,-11.6446 2.5362,-7.5329 5.4039,-14.3313 8.9375,-19.7031 l 5.459,-6.1992 59.0997,-162.3574 c 1.6548,-3.3163 3.3736,-6.8888 4.5059,-8.1153 1.3469,-2.3776 3.21,-4.7552 5.3691,-7.1328 2.5241,-2.3046 5.2827,-3.9061 8.0743,-5.4082 1.6428,-0.6796 2.5458,-1.2112 8.0742,-2.6679 1.6979,-0.666 5.4029,-0.7567 8.9355,-0.8985 l 93.2422,0 7,-31.41981 z"
       id="path5666"
       inkscape:connector-curvature="0"
       sodipodi:nodetypes="cccccccccccccccccccccccccccccccccccccccccc" />
    <path
       style="fill:#ffffff;fill-opacity:1;fill-rule:evenodd;stroke:none"
       d="m 536.60873,-867.41809 36.8301,-99.707 c 1.1402,-2.8839 2.5867,-5.3134 3.5801,-6.2832 1.215,-1.4498 3.4513,-3.6301 10.7851,-3.6094 l 0.014,0 0,0 283.1802,0 c 7.3469,-0.024 9.585,2.1586 10.8008,3.6094 0.9935,0.9698 2.44,3.3993 3.5801,6.2832 l 36.82998,99.707 z"
       id="path5668"
       inkscape:connector-curvature="0"
       sodipodi:nodetypes="ccccccccccc" />
    <path
       sodipodi:nodetypes="ccccc"
       inkscape:connector-curvature="0"
       id="path5670"
       d="m 591.20873,-793.33799 12.8,51.9 -89.6,0 0,-51.9 z"
       style="fill:#ffffff;fill-opacity:1;fill-rule:nonzero;stroke:none" />
    <circle
       r="37.000004"
       cy="-859.41785"
       cx="626.80878"
       id="circle5676"
       style="opacity:1;fill:#000000;fill-opacity:1;stroke:none;stroke-width:2.4000001;stroke-linejoin:miter;stroke-miterlimit:4;stroke-dasharray:none;stroke-dashoffset:0;stroke-opacity:1" />
    <path
       style="fill:#ffffff;fill-opacity:1;fill-rule:evenodd;stroke:none"
       d="m 514.40873,-726.43789 429.99998,0 0,-7.2 -106.89998,0 6,-22.3001 -228.2,0 6,22.3001 -106.9,0 z"
       id="path7091"
       inkscape:connector-curvature="0"
       sodipodi:nodetypes="ccccccccc" />
    <path
       style="fill:#ffffff;fill-opacity:1;fill-rule:nonzero;stroke:none"
       d="m 867.60873,-793.33799 -12.8,51.9 89.59998,0 0,-51.9 z"
       id="path7129"
       inkscape:connector-curvature="0"
       sodipodi:nodetypes="ccccc" />
    <rect
       style="fill:#e20a16;fill-opacity:1;stroke:none;stroke-width:4;stroke-miterlimit:4;stroke-dasharray:none;stroke-opacity:1"
       id="rect5567"
       width="75"
       height="860"
       x="192.46759"
       y="-1490.502"
       transform="matrix(0.8660254,0.5,-0.5,0.8660254,0,0)" />
  </g>
</svg>
