<?xml version="1.0" encoding="UTF-8" standalone="no"?>
<!-- Created with Inkscape (http://www.inkscape.org/) -->

<svg
   xmlns:dc="http://purl.org/dc/elements/1.1/"
   xmlns:cc="http://creativecommons.org/ns#"
   xmlns:rdf="http://www.w3.org/1999/02/22-rdf-syntax-ns#"
   xmlns:svg="http://www.w3.org/2000/svg"
   xmlns="http://www.w3.org/2000/svg"
   xmlns:sodipodi="http://sodipodi.sourceforge.net/DTD/sodipodi-0.dtd"
   xmlns:inkscape="http://www.inkscape.org/namespaces/inkscape"
   width="900.79999"
   height="900.79999"
   viewBox="0 0 900.8 900.8"
   id="svg4168"
   version="1.1"
   inkscape:version="0.91 r13725"
   sodipodi:docname="11.svg">
  <defs
     id="defs4170">
    <pattern
       y="0"
       x="0"
       height="6"
       width="6"
       patternUnits="userSpaceOnUse"
       id="EMFhbasepattern" />
    <pattern
       y="0"
       x="0"
       height="6"
       width="6"
       patternUnits="userSpaceOnUse"
       id="EMFhbasepattern-5" />
    <pattern
       y="0"
       x="0"
       height="6"
       width="6"
       patternUnits="userSpaceOnUse"
       id="EMFhbasepattern-0" />
  </defs>
  <sodipodi:namedview
     id="base"
     pagecolor="#ffffff"
     bordercolor="#666666"
     borderopacity="1.0"
     inkscape:pageopacity="0.0"
     inkscape:pageshadow="2"
     inkscape:zoom="0.49497475"
     inkscape:cx="665.38895"
     inkscape:cy="494.32699"
     inkscape:document-units="px"
     inkscape:current-layer="layer1"
     showgrid="false"
     showguides="false"
     units="px"
     inkscape:window-width="1920"
     inkscape:window-height="1057"
     inkscape:window-x="-8"
     inkscape:window-y="-8"
     inkscape:window-maximized="1" />
  <metadata
     id="metadata4173">
    <rdf:RDF>
      <cc:Work
         rdf:about="">
        <dc:format>image/svg+xml</dc:format>
        <dc:type
           rdf:resource="http://purl.org/dc/dcmitype/StillImage" />
        <dc:title></dc:title>
      </cc:Work>
    </rdf:RDF>
  </metadata>
  <g
     inkscape:label="Layer 1"
     inkscape:groupmode="layer"
     id="layer1"
     transform="translate(0,-151.56212)">
    <circle
       r="450"
       cy="601.9621"
       cx="450.39999"
       id="circle4138"
       style="fill:#e20a16;fill-opacity:1;stroke:none;stroke-width:10;stroke-miterlimit:4;stroke-dasharray:none;stroke-opacity:1" />
    <circle
       style="fill:#ffffff;fill-opacity:1;stroke:none;stroke-width:10;stroke-miterlimit:4;stroke-dasharray:none;stroke-opacity:1"
       id="circle4140"
       cx="450.39999"
       cy="601.9621"
       r="375" />
    <path
       d="m 141.60089,699.36214 c -1.5302,0 -2.6068,-0.3415 -3.6,-0.9 -1.6578,-1.1048 -2.2045,-1.9081 -2.7,-2.7 -0.6428,-1.4673 -0.8808,-2.9733 -0.9,-4.5 4.4251,-6.7322 5.1816,-12.5418 2.7231,-20.8246 -0.402,-1.2864 -1.2335,-2.8366 -2.7231,-4.4754 -0.02,-2.0492 0.3019,-3.5112 0.9,-4.5 0.7513,-1.0275 1.6571,-1.9225 2.7,-2.7 l 10.899,-8.2 0,-63.2 c 0.1197,-1.84508 0.1057,-3.72359 0.9,-5.4 1.3642,-2.83721 1.7282,-2.8948 3.6,-4.6 l 4.5,-3.5 2.7,0 59.6001,-85.7 -0.4,0 c -10.5739,-7.31595 -5.5903,-15.55685 4,-19.0495 167.966,-16.3769 329.3961,-16.2634 497.3999,-0.8698 l 45.2,119.1193 0,58.7 c -0.062,2.8782 -0.4736,4.0404 -0.9,5.5 -0.709,1.8103 -1.6592,3.2287 -2.7,4.5 -1.5261,1.5534 -3.0148,2.1713 -4.5,2.7 l -5.4,1.8 c 1.4391,0.1934 2.8358,0.3125 4.5,0.9 1.6396,0.6208 3.1549,1.4903 4.5,2.7 1.8665,1.5701 2.8435,3.0467 3.6,4.5 0.8208,1.9892 0.8762,3.7919 0.9,5.4 -0.024,1.8722 -0.1066,3.4355 -0.9,5.4 -0.5609,1.6418 -1.4034,3.0061 -2.7,4.6 -1.4178,1.7412 -3.7383,2.5637 -4.4,2.8 -0.8538,0.3331 -2.6073,1.1443 -5.5,1.7 l -62.5,10.8"
       style="fill:#000000;fill-opacity:1;fill-rule:evenodd;stroke:none"
       id="path28563-2"
       inkscape:connector-curvature="0"
       sodipodi:nodetypes="ccccccccccccccccccccccccccccccccc" />
    <path
       inkscape:connector-curvature="0"
       id="path34924"
       style="fill:#aa8800;fill-opacity:1;fill-rule:evenodd;stroke:none"
       d="m 282.43219,698.68584 c -2.2315,53.3958 -77.7466,57.814 -83.9074,3.5873 -2.9088,-56.52977 78.1246,-63.02474 83.9074,-3.5873" />
    <path
       inkscape:connector-curvature="0"
       id="path35084"
       style="fill:#ffffff;fill-opacity:1;fill-rule:nonzero;stroke:none"
       d="m 302.16409,479.96214 c 6.2753,0.0402 10.0068,0.81551 12.5961,3.6 1.2855,0.98773 2.7381,1.84521 5.4983,5.5 0.9015,1.75863 1.8728,3.20312 2.6991,5.3 0.5157,1.54856 1.1077,2.7963 0.8998,7.2 l 0,43.3 c -0.092,2.39332 0.1996,4.71288 -0.8998,7.3 -1.1891,2.99403 -1.8085,3.63767 -2.6991,5.4 -1.0732,1.59882 -1.0398,3.07494 -5.4983,5.5 -1.9215,0.88888 -3.2947,1.73556 -6.1981,2.7 -1.3675,0.4427 -2.9183,0.81072 -5.3984,0.8 l -76.7763,0 c -1.466,0.1265 -2.7473,0.35405 -5.3983,1.9 -1.5248,1.08321 -2.4659,2.4 -3.6989,3.6 -2.5639,2.45782 -3.4896,6.2837 -6.298,9 -0.664,0.49284 -1.2522,0.94549 -2.5992,1.8 -0.871,0.57231 -1.795,0.82682 -2.7492,0.9 l -17.1447,0 c -1.4417,-0.0235 -2.6659,-0.30093 -3.608,-0.90757 -1.2677,-0.7015 -2.0291,-1.69245 -2.7218,-2.72266 -0.7935,-1.02936 -0.7997,-2.32124 -0.8679,-3.59242 -0.029,-1.57665 0.4426,-2.56832 0.8997,-3.57735 0.6206,-1.23252 37.855,-52.93333 56.7825,-79.4 1.6939,-2.25376 1.86,-2.72406 4.7009,-5.72973 2.5194,-2.66558 5.943,-3.75133 9.6946,-4.07027"
       sodipodi:nodetypes="cccccccccccccccccccccccsc" />
    <path
       style="fill:#ffffff;fill-opacity:1;stroke:none;stroke-width:26;stroke-miterlimit:4;stroke-dasharray:none;stroke-opacity:1"
       d="m 543.39999,474.59212 144.3733,7.67002 c 12.7665,0.67823 22.1979,4.85343 26.9957,17.7 l 15.0136,40.2 c 4.8005,12.85375 -2.1094,26.4 -16.1986,26.4 l -169.184,-3e-5 c -13.7143,0 -23,-9.28683 -23,-22.99997 l 0,-47 c 0,-11.3389 9.0561,-22.65769 22,-21.97002 z"
       id="rect4156"
       inkscape:connector-curvature="0"
       sodipodi:nodetypes="sssssssss" />
    <path
       style="fill:#ffffff;fill-opacity:1;stroke:none;stroke-width:26;stroke-miterlimit:4;stroke-dasharray:none;stroke-opacity:1"
       d="m 361.90009,477.06646 c 28.6093,-0.96085 41.2765,-1.48266 59.3004,-2.24429 23.5931,-0.38087 43.3137,-0.22052 64.6996,-0.25562 12.752,-0.0209 21,10.75752 21,21.99898 l 0,46.99771 c 0,12.74139 -10.258,22.9989 -23,22.9989 l -122,0 c -13.6795,0 -23,-10.00751 -23,-22.9989 l 0,-43.99786 c 0,-14.15553 9.737,-22.05348 23,-22.49892 z"
       id="rect4179"
       inkscape:connector-curvature="0"
       sodipodi:nodetypes="scssssssss" />
    <circle
       style="fill:#ffffff;fill-opacity:1;stroke:none;stroke-width:26;stroke-miterlimit:4;stroke-dasharray:none;stroke-opacity:1"
       id="path5529"
       cx="240.40007"
       cy="698.9621"
       r="63.5" />
    <circle
       r="42"
       cy="698.9621"
       cx="240.40007"
       id="circle5570"
       style="fill:#000000;fill-opacity:1;stroke:none;stroke-width:26;stroke-miterlimit:4;stroke-dasharray:none;stroke-opacity:1" />
    <circle
       r="63.5"
       cy="698.9621"
       cx="626.40015"
       id="circle5591"
       style="fill:#ffffff;fill-opacity:1;stroke:none;stroke-width:26;stroke-miterlimit:4;stroke-dasharray:none;stroke-opacity:1" />
    <circle
       style="fill:#000000;fill-opacity:1;stroke:none;stroke-width:26;stroke-miterlimit:4;stroke-dasharray:none;stroke-opacity:1"
       id="circle5593"
       cx="626.40015"
       cy="698.9621"
       r="42" />
    <rect
       y="-133.88551"
       x="653.53894"
       height="860"
       width="75"
       id="rect5601"
       style="fill:#e20a16;fill-opacity:1;stroke:none;stroke-width:26;stroke-miterlimit:4;stroke-dasharray:none;stroke-opacity:1"
       transform="matrix(0.8660254,0.5,-0.5,0.8660254,0,0)" />
  </g>
</svg>
