<?xml version="1.0" encoding="UTF-8" standalone="no"?>
<!-- Created with Inkscape (http://www.inkscape.org/) -->

<svg
   xmlns:dc="http://purl.org/dc/elements/1.1/"
   xmlns:cc="http://creativecommons.org/ns#"
   xmlns:rdf="http://www.w3.org/1999/02/22-rdf-syntax-ns#"
   xmlns:svg="http://www.w3.org/2000/svg"
   xmlns="http://www.w3.org/2000/svg"
   xmlns:sodipodi="http://sodipodi.sourceforge.net/DTD/sodipodi-0.dtd"
   xmlns:inkscape="http://www.inkscape.org/namespaces/inkscape"
   width="900.79999"
   height="900.79999"
   viewBox="0 0 900.8 900.8"
   id="svg4240"
   version="1.1"
   inkscape:version="0.91 r13725"
   sodipodi:docname="11.svg">
  <defs
     id="defs4242">
    <pattern
       y="0"
       x="0"
       height="6"
       width="6"
       patternUnits="userSpaceOnUse"
       id="EMFhbasepattern" />
    <pattern
       y="0"
       x="0"
       height="6"
       width="6"
       patternUnits="userSpaceOnUse"
       id="EMFhbasepattern-4" />
  </defs>
  <sodipodi:namedview
     id="base"
     pagecolor="#ffffff"
     bordercolor="#666666"
     borderopacity="1.0"
     inkscape:pageopacity="0.0"
     inkscape:pageshadow="2"
     inkscape:zoom="0.57443122"
     inkscape:cx="380.51653"
     inkscape:cy="484.67534"
     inkscape:document-units="px"
     inkscape:current-layer="layer1"
     showgrid="false"
     units="px"
     inkscape:window-width="1920"
     inkscape:window-height="1057"
     inkscape:window-x="-8"
     inkscape:window-y="-8"
     inkscape:window-maximized="1" />
  <metadata
     id="metadata4245">
    <rdf:RDF>
      <cc:Work
         rdf:about="">
        <dc:format>image/svg+xml</dc:format>
        <dc:type
           rdf:resource="http://purl.org/dc/dcmitype/StillImage" />
        <dc:title></dc:title>
      </cc:Work>
    </rdf:RDF>
  </metadata>
  <g
     inkscape:label="Layer 1"
     inkscape:groupmode="layer"
     id="layer1"
     transform="translate(0,-151.56211)">
    <circle
       r="450"
       cy="601.96216"
       cx="450.39999"
       id="circle4138"
       style="fill:#e20a16;fill-opacity:1;stroke:none;stroke-width:10;stroke-miterlimit:4;stroke-dasharray:none;stroke-opacity:1" />
    <circle
       style="fill:#ffffff;fill-opacity:1;stroke:none;stroke-width:10;stroke-miterlimit:4;stroke-dasharray:none;stroke-opacity:1"
       id="circle4140"
       cx="450.39999"
       cy="601.96216"
       r="375" />
    <path
       d="m 120.80097,666.95661 c -15.74031,-54.6591 -6.10328,-96.0095 12.59104,-133.9736 0.0532,-0.1136 0.32684,-0.2795 0.50806,-0.2604 l -7.2,-13.56 c 5.00644,-1.7579 6.46229,-2.5491 18.45018,-5.4 10.87484,-2.3254 8.7979,-1.8798 17.94982,-2.7 l 576.17957,0 c 7.2468,0.2235 12.5879,1.157 18.0203,2.6997 l 17.1,5.4003 c 1.7646,0.4653 2.8836,1.199 3.5,1.9 1.1186,1.1367 1.7112,2.2722 1.8,3.6 0.1621,2.6006 -1.1559,8.0885 -6.3,8.1 l -2.64,0 c 26.6012,37.7514 13.1764,85.1882 17.14,127.92 l -67.9999,6.2796"
       style="fill:#000000;fill-opacity:1;fill-rule:evenodd;stroke:none"
       id="path8418"
       inkscape:connector-curvature="0"
       sodipodi:nodetypes="ccccccccccccccc" />
    <rect
       style="fill:#000000;fill-opacity:1;stroke:none;stroke-width:26;stroke-miterlimit:4;stroke-dasharray:none;stroke-opacity:1"
       id="rect34417"
       width="73.800011"
       height="30.000004"
       x="396.89999"
       y="503.96216"
       rx="11"
       ry="10" />
    <rect
       style="fill:#ffffff;fill-opacity:1;stroke:none;stroke-width:26;stroke-miterlimit:4;stroke-dasharray:none;stroke-opacity:1"
       id="rect34488"
       width="54.000004"
       height="126.00002"
       x="140.50003"
       y="527.26221"
       rx="10"
       ry="10" />
    <rect
       rx="7"
       y="527.26221"
       x="205.70004"
       height="58.600002"
       width="54.200008"
       id="rect34508"
       style="fill:#ffffff;fill-opacity:1;stroke:none;stroke-width:26;stroke-miterlimit:4;stroke-dasharray:none;stroke-opacity:1"
       ry="7" />
    <rect
       style="fill:#ffffff;fill-opacity:1;stroke:none;stroke-width:26;stroke-miterlimit:4;stroke-dasharray:none;stroke-opacity:1"
       id="rect34512"
       width="114.20001"
       height="58.600002"
       x="271.10001"
       y="527.26221"
       rx="7"
       ry="7" />
    <rect
       ry="7"
       rx="7"
       y="527.26221"
       x="396.50003"
       height="58.600002"
       width="114.20001"
       id="rect34588"
       style="fill:#ffffff;fill-opacity:1;stroke:none;stroke-width:26;stroke-miterlimit:4;stroke-dasharray:none;stroke-opacity:1" />
    <rect
       style="fill:#ffffff;fill-opacity:1;stroke:none;stroke-width:26;stroke-miterlimit:4;stroke-dasharray:none;stroke-opacity:1"
       id="rect34590"
       width="114.20001"
       height="58.600002"
       x="521.90015"
       y="527.26221"
       rx="7"
       ry="7" />
    <path
       style="fill:#ffffff;fill-opacity:1;stroke:none;stroke-width:26;stroke-miterlimit:4;stroke-dasharray:none;stroke-opacity:1"
       d="m 761.30494,585.86191 -106.6491,0 c -4.075,0 -7.3555,-3.122 -7.3555,-7 l 0,-44.6 c 0,-3.878 3.2805,-7 7.3555,-7 l 87.2491,0 c 5.2625,0 6.9627,3.3982 8.4,7 l 17,42.6001 c 0.8007,2.0064 -0.8,8.9999 -6,8.9999 z"
       id="rect34592"
       inkscape:connector-curvature="0"
       sodipodi:nodetypes="sssssssss" />
    <circle
       style="fill:#ffffff;fill-opacity:1;stroke:none;stroke-width:26;stroke-miterlimit:4;stroke-dasharray:none;stroke-opacity:1"
       id="path34613"
       cx="254.29996"
       cy="665.46216"
       r="47.400005" />
    <circle
       r="30.500002"
       cy="665.46216"
       cx="254.29996"
       id="circle34644"
       style="fill:#000000;fill-opacity:1;stroke:none;stroke-width:26;stroke-miterlimit:4;stroke-dasharray:none;stroke-opacity:1" />
    <circle
       r="47.400005"
       cy="665.46216"
       cx="591.30005"
       id="circle34655"
       style="fill:#ffffff;fill-opacity:1;stroke:none;stroke-width:26;stroke-miterlimit:4;stroke-dasharray:none;stroke-opacity:1" />
    <circle
       style="fill:#000000;fill-opacity:1;stroke:none;stroke-width:26;stroke-miterlimit:4;stroke-dasharray:none;stroke-opacity:1"
       id="circle34657"
       cx="591.30005"
       cy="665.46216"
       r="30.500002" />
    <rect
       y="-133.88547"
       x="653.53894"
       height="860"
       width="75"
       id="rect5601"
       style="fill:#e20a16;fill-opacity:1;stroke:none;stroke-width:26;stroke-miterlimit:4;stroke-dasharray:none;stroke-opacity:1"
       transform="matrix(0.8660254,0.5,-0.5,0.8660254,0,0)" />
  </g>
</svg>
