<?xml version="1.0" encoding="UTF-8" standalone="no"?>
<!-- Created with Inkscape (http://www.inkscape.org/) -->

<svg
   xmlns:dc="http://purl.org/dc/elements/1.1/"
   xmlns:cc="http://creativecommons.org/ns#"
   xmlns:rdf="http://www.w3.org/1999/02/22-rdf-syntax-ns#"
   xmlns:svg="http://www.w3.org/2000/svg"
   xmlns="http://www.w3.org/2000/svg"
   xmlns:sodipodi="http://sodipodi.sourceforge.net/DTD/sodipodi-0.dtd"
   xmlns:inkscape="http://www.inkscape.org/namespaces/inkscape"
   width="900.79999"
   height="900.79999"
   viewBox="0 0 900.8 900.8"
   id="svg4240"
   version="1.1"
   inkscape:version="0.91 r13725"
   sodipodi:docname="11.svg">
  <defs
     id="defs4242">
    <pattern
       y="0"
       x="0"
       height="6"
       width="6"
       patternUnits="userSpaceOnUse"
       id="EMFhbasepattern" />
    <pattern
       y="0"
       x="0"
       height="6"
       width="6"
       patternUnits="userSpaceOnUse"
       id="EMFhbasepattern-4" />
    <pattern
       y="0"
       x="0"
       height="6"
       width="6"
       patternUnits="userSpaceOnUse"
       id="EMFhbasepattern-5" />
    <pattern
       y="0"
       x="0"
       height="6"
       width="6"
       patternUnits="userSpaceOnUse"
       id="EMFhbasepattern-7" />
  </defs>
  <sodipodi:namedview
     id="base"
     pagecolor="#ffffff"
     bordercolor="#666666"
     borderopacity="1.0"
     inkscape:pageopacity="0.0"
     inkscape:pageshadow="2"
     inkscape:zoom="0.57443122"
     inkscape:cx="629.13585"
     inkscape:cy="342.72699"
     inkscape:document-units="px"
     inkscape:current-layer="layer1"
     showgrid="false"
     units="px"
     inkscape:window-width="1920"
     inkscape:window-height="1057"
     inkscape:window-x="-8"
     inkscape:window-y="-8"
     inkscape:window-maximized="1" />
  <metadata
     id="metadata4245">
    <rdf:RDF>
      <cc:Work
         rdf:about="">
        <dc:format>image/svg+xml</dc:format>
        <dc:type
           rdf:resource="http://purl.org/dc/dcmitype/StillImage" />
        <dc:title></dc:title>
      </cc:Work>
    </rdf:RDF>
  </metadata>
  <g
     inkscape:label="Layer 1"
     inkscape:groupmode="layer"
     id="layer1"
     transform="translate(0,-151.56204)">
    <circle
       r="450"
       cy="601.96204"
       cx="450.39999"
       id="circle4138"
       style="fill:#e20a16;fill-opacity:1;stroke:none;stroke-width:10;stroke-miterlimit:4;stroke-dasharray:none;stroke-opacity:1" />
    <circle
       style="fill:#ffffff;fill-opacity:1;stroke:none;stroke-width:10;stroke-miterlimit:4;stroke-dasharray:none;stroke-opacity:1"
       id="circle4140"
       cx="450.39999"
       cy="601.96204"
       r="375" />
    <path
       style="font-style:normal;font-variant:normal;font-weight:normal;font-stretch:normal;font-size:236.25559998px;line-height:125%;font-family:'DIN 1451 Engschrift';-inkscape-font-specification:'DIN 1451 Engschrift';letter-spacing:0px;word-spacing:0px;fill:#000000;fill-opacity:1;fill-rule:evenodd;stroke:none;stroke-width:1px;stroke-linecap:butt;stroke-linejoin:miter;stroke-opacity:1"
       d="m 333.90001,471.56248 c -14.404,0 -26,11.596 -26,26 l 0,125.5996 -9.7,0 0,-68.4004 c 0,-8.6424 -6.9576,-15.5996 -15.6,-15.5996 l -101,0 c -1.9469,0 -12.1335,4.175 -16.2,11.8 l -30.4004,64.2 -6.0996,6.0996 c -1.9422,1.9772 -3.6949,3.7504 -5.3,7.2004 -2.1489,4.6183 -3.2937,7.8973 -3.6004,15.1004 l 0,23.29959 c -4.0046,0.4451 -7.0996,3.7724 -7.0996,7.8996 l 0,21.40042 169.2,0 c 3.0972,-59.17351 65.2216,-56.96911 109.5,-52.59961 l 0,52.59961 396.3001,0 0,-198.59961 c 0,-14.404 -11.596,-26 -26,-26 z"
       id="path14783"
       inkscape:connector-curvature="0"
       sodipodi:nodetypes="ssccsssccccccscccccsss" />
    <path
       inkscape:connector-curvature="0"
       id="path14879"
       style="font-style:normal;font-variant:normal;font-weight:normal;font-stretch:normal;font-size:236.25559998px;line-height:125%;font-family:'DIN 1451 Engschrift';-inkscape-font-specification:'DIN 1451 Engschrift';letter-spacing:0px;word-spacing:0px;fill:#ffffff;fill-opacity:1;fill-rule:nonzero;stroke:none;stroke-width:1px;stroke-linecap:butt;stroke-linejoin:miter;stroke-opacity:1"
       d="m 447.62001,491.16198 -26.72,19.6 0,33.8 21.4,-16 0,147.99999 32,0 0,-185.39999"
       sodipodi:nodetypes="ccccccc" />
    <path
       style="font-style:normal;font-variant:normal;font-weight:normal;font-stretch:normal;font-size:236.25559998px;line-height:125%;font-family:'DIN 1451 Engschrift';-inkscape-font-specification:'DIN 1451 Engschrift';letter-spacing:0px;word-spacing:0px;fill:#ffffff;fill-opacity:1;stroke:none;stroke-width:26;stroke-linecap:butt;stroke-linejoin:miter;stroke-miterlimit:4;stroke-dasharray:none;stroke-opacity:1"
       d="m 185.19061,555.46199 84.5094,0 c 6.648,0 12,5.352 12,12 l 0,27.7 c 0,6.648 -5.352,12 -12,12 l -97.5094,0 c -9.023,0 -11.7241,-8.7225 -10,-12.3998 l 12.8,-27.3002 c 2.8222,-6.0192 3.552,-12 10.2,-12 z"
       id="rect15007"
       inkscape:connector-curvature="0"
       sodipodi:nodetypes="sssssssss" />
    <circle
       r="52.000015"
       cy="695.96204"
       cx="204.09999"
       id="circle4242"
       style="font-style:normal;font-variant:normal;font-weight:normal;font-stretch:normal;font-size:236.25559998px;line-height:125%;font-family:'DIN 1451 Engschrift';-inkscape-font-specification:'DIN 1451 Engschrift';letter-spacing:0px;word-spacing:0px;fill:#ffffff;fill-opacity:1;stroke:none;stroke-width:26;stroke-linecap:butt;stroke-linejoin:miter;stroke-miterlimit:4;stroke-dasharray:none;stroke-opacity:1" />
    <circle
       style="font-style:normal;font-variant:normal;font-weight:normal;font-stretch:normal;font-size:236.25559998px;line-height:125%;font-family:'DIN 1451 Engschrift';-inkscape-font-specification:'DIN 1451 Engschrift';letter-spacing:0px;word-spacing:0px;fill:#000000;fill-opacity:1;stroke:none;stroke-width:26;stroke-linecap:butt;stroke-linejoin:miter;stroke-miterlimit:4;stroke-dasharray:none;stroke-opacity:1"
       id="circle4244"
       cx="204.09999"
       cy="695.96204"
       r="36.400009" />
    <circle
       r="36.400009"
       cy="695.96204"
       cx="334.10001"
       id="circle4258"
       style="font-style:normal;font-variant:normal;font-weight:normal;font-stretch:normal;font-size:236.25559998px;line-height:125%;font-family:'DIN 1451 Engschrift';-inkscape-font-specification:'DIN 1451 Engschrift';letter-spacing:0px;word-spacing:0px;fill:#000000;fill-opacity:1;stroke:none;stroke-width:26;stroke-linecap:butt;stroke-linejoin:miter;stroke-miterlimit:4;stroke-dasharray:none;stroke-opacity:1" />
    <circle
       style="font-style:normal;font-variant:normal;font-weight:normal;font-stretch:normal;font-size:236.25559998px;line-height:125%;font-family:'DIN 1451 Engschrift';-inkscape-font-specification:'DIN 1451 Engschrift';letter-spacing:0px;word-spacing:0px;fill:#ffffff;fill-opacity:1;stroke:none;stroke-width:26;stroke-linecap:butt;stroke-linejoin:miter;stroke-miterlimit:4;stroke-dasharray:none;stroke-opacity:1"
       id="circle4287"
       cx="678.7002"
       cy="695.96204"
       r="52.000015" />
    <circle
       r="36.400009"
       cy="695.96204"
       cx="678.7002"
       id="circle4289"
       style="font-style:normal;font-variant:normal;font-weight:normal;font-stretch:normal;font-size:236.25559998px;line-height:125%;font-family:'DIN 1451 Engschrift';-inkscape-font-specification:'DIN 1451 Engschrift';letter-spacing:0px;word-spacing:0px;fill:#000000;fill-opacity:1;stroke:none;stroke-width:26;stroke-linecap:butt;stroke-linejoin:miter;stroke-miterlimit:4;stroke-dasharray:none;stroke-opacity:1" />
    <g
       style="font-style:normal;font-variant:normal;font-weight:normal;font-stretch:normal;font-size:224.19358826px;line-height:125%;font-family:'DIN 1451 Engschrift';-inkscape-font-specification:'DIN 1451 Engschrift';letter-spacing:0px;word-spacing:0px;fill:#000000;fill-opacity:1;stroke:none;stroke-width:1px;stroke-linecap:butt;stroke-linejoin:miter;stroke-opacity:1"
       id="text4291"
       transform="translate(-780.88779,6904.2824)">
      <path
         d="m 1490.1057,-6293.5216 4.9323,0 0,20.4016 -6.7259,0 c -4.0355,0 -7.6225,-0.3737 -10.7612,-1.121 -3.1387,-0.8968 -6.2027,-2.6156 -9.192,-5.1564 -2.9893,-2.5409 -5.0817,-5.3059 -6.2774,-8.2952 -1.1957,-3.1387 -1.7936,-6.95 -1.7936,-11.4339 l 0,-62.9937 -10.5,0 0,-20.6 10.5,0 0,-29.3999 21.5226,0 0,29.3999 13.2774,0 0,20.6 -13.2774,0 0,59.1824 c 0,3.5871 0.4484,6.0533 1.3452,7.3984 1.0463,1.3452 3.3629,2.0178 6.95,2.0178 z"
         id="path4296"
         inkscape:connector-curvature="0"
         sodipodi:nodetypes="sccscscsccccccccccscs"
         style="fill:#ffffff" />
    </g>
    <path
       style="font-style:normal;font-variant:normal;font-weight:normal;font-stretch:normal;font-size:236.25559998px;line-height:125%;font-family:'DIN 1451 Engschrift';-inkscape-font-specification:'DIN 1451 Engschrift';letter-spacing:0px;word-spacing:0px;fill:#ffffff;fill-opacity:1;stroke:none;stroke-width:8.05000019;stroke-linecap:butt;stroke-linejoin:miter;stroke-miterlimit:4;stroke-dasharray:none;stroke-opacity:1"
       d="m 569.49961,488.56198 c 29.5836,0 53.4,24.084 53.4,54 l 0,81.6 c 0,29.91599 -23.8164,53.99999 -53.4,53.99999 -29.5836,0 -53.4001,-24.084 -53.4001,-53.99999 l 0,-81.6 c 0,-29.916 23.8165,-54 53.4001,-54 z"
       id="rect7204"
       inkscape:connector-curvature="0" />
    <path
       style="font-style:normal;font-variant:normal;font-weight:normal;font-stretch:normal;font-size:236.25559998px;line-height:125%;font-family:'DIN 1451 Engschrift';-inkscape-font-specification:'DIN 1451 Engschrift';letter-spacing:0px;word-spacing:0px;fill:#000000;fill-opacity:1;stroke:none;stroke-width:8.05000019;stroke-linecap:butt;stroke-linejoin:miter;stroke-miterlimit:4;stroke-dasharray:none;stroke-opacity:1"
       d="m 569.49941,520.56218 c 11.8557,0 21.4001,9.812 21.4001,22 l 0,81.6 c 0,12.188 -9.5444,21.99999 -21.4001,21.99999 -11.8556,0 -21.4,-9.81199 -21.4,-21.99999 l 0,-81.6 c 0,-12.188 9.5444,-22 21.4,-22 z"
       id="rect7212"
       inkscape:connector-curvature="0" />
    <rect
       style="fill:#e20a16;fill-opacity:1;stroke:none;stroke-width:8.05000019;stroke-miterlimit:4;stroke-dasharray:none;stroke-opacity:1"
       id="rect4286"
       width="75"
       height="800"
       x="-60.923187"
       y="346.51447"
       transform="matrix(0.8660254,-0.5,0.5,0.8660254,0,0)" />
  </g>
</svg>
