<?xml version="1.0" encoding="UTF-8" standalone="no"?>
<!-- Created with Inkscape (http://www.inkscape.org/) -->

<svg
   xmlns:dc="http://purl.org/dc/elements/1.1/"
   xmlns:cc="http://creativecommons.org/ns#"
   xmlns:rdf="http://www.w3.org/1999/02/22-rdf-syntax-ns#"
   xmlns:svg="http://www.w3.org/2000/svg"
   xmlns="http://www.w3.org/2000/svg"
   xmlns:sodipodi="http://sodipodi.sourceforge.net/DTD/sodipodi-0.dtd"
   xmlns:inkscape="http://www.inkscape.org/namespaces/inkscape"
   width="900.79999"
   height="900.79999"
   viewBox="0 0 900.8 900.8"
   id="svg4243"
   version="1.1"
   inkscape:version="0.91 r13725"
   sodipodi:docname="11.svg">
  <defs
     id="defs4245">
    <pattern
       y="0"
       x="0"
       height="6"
       width="6"
       patternUnits="userSpaceOnUse"
       id="EMFhbasepattern" />
    <pattern
       y="0"
       x="0"
       height="6"
       width="6"
       patternUnits="userSpaceOnUse"
       id="EMFhbasepattern-5" />
  </defs>
  <sodipodi:namedview
     id="base"
     pagecolor="#ffffff"
     bordercolor="#666666"
     borderopacity="1.0"
     inkscape:pageopacity="0.0"
     inkscape:pageshadow="2"
     inkscape:zoom="0.7"
     inkscape:cx="485.17629"
     inkscape:cy="461.27664"
     inkscape:document-units="px"
     inkscape:current-layer="layer1"
     showgrid="false"
     units="px"
     inkscape:window-width="1920"
     inkscape:window-height="1057"
     inkscape:window-x="-8"
     inkscape:window-y="-8"
     inkscape:window-maximized="1" />
  <metadata
     id="metadata4248">
    <rdf:RDF>
      <cc:Work
         rdf:about="">
        <dc:format>image/svg+xml</dc:format>
        <dc:type
           rdf:resource="http://purl.org/dc/dcmitype/StillImage" />
        <dc:title></dc:title>
      </cc:Work>
    </rdf:RDF>
  </metadata>
  <g
     inkscape:label="Layer 1"
     inkscape:groupmode="layer"
     id="layer1"
     transform="translate(0,-151.562)">
    <circle
       style="fill:#e20a16;fill-opacity:1;stroke:none;stroke-width:8.05000019;stroke-miterlimit:4;stroke-dasharray:none;stroke-opacity:1"
       id="path4791"
       cx="450.39999"
       cy="601.96204"
       r="450" />
    <circle
       cy="601.96204"
       cx="450.39999"
       id="circle4793"
       style="fill:#ffffff;fill-opacity:1;stroke:none;stroke-width:8.05000019;stroke-miterlimit:4;stroke-dasharray:none;stroke-opacity:1"
       r="375" />
    <path
       d="m 478.29925,704.08133 -13.84694,2.79134 c -23.99143,3.99853 -50.20843,5.58269 -74.50166,4.22482 l -1.3942,7.01645 c -0.75448,1.92219 -4.48896,6.56381 -5.62065,8.44965 -2.33876,6.22423 -2.82768,37.64753 -2.82768,44.96508 0,26.10433 1.99779,53.1131 7.05412,78.72657 l -2.82771,5.62065 -4.22488,2.79162 -9.80781,7.05383 c -0.90533,1.09256 -4.45122,8.82721 -5.62065,11.24127 l -1.43343,7.01619 -4.18719,4.22508 -12.67471,1.39767 c -4.67758,-0.60385 -12.3352,-4.26329 -16.86191,-5.62116 l 0,-4.22458 c 2.41423,-2.94231 13.35374,-15.31512 14.07044,-18.25771 3.24414,-1.20716 6.79005,-2.4536 9.84553,-4.22508 l 5.62065,-1.39422 2.79148,-5.62063 c 0.90531,-8.97816 2.82765,-19.16271 2.82765,-28.10291 l 0,-26.70736 c 0,-12.33543 -8.37435,-39.64612 -12.67472,-52.0192 l -35.11954,23.87514 c -1.54507,1.54519 -4.33804,4.07414 -5.6206,5.62091 -7.99714,14.03263 -12.67472,38.74061 -12.67472,54.84795 0,4.18691 2.56514,20.1815 5.62062,23.87836 0.41346,1.20742 1.1679,5.84667 1.43345,7.01645 l 4.1872,2.82768 4.22489,4.22483 c -0.30177,1.16791 -2.5651,10.71303 -2.79144,11.241 l -5.62065,7.01671 c -2.11243,2.11215 -7.6576,6.56355 -9.84551,8.44992 -1.24335,0 -7.39359,-1.24669 -8.44983,-1.39739 -10.78858,-30.10283 -12.90102,-63.82639 -5.62065,-97.02169 -1.13163,-15.76828 4.18723,-33.57312 15.4662,-44.96509 1.77448,-2.67672 3.58363,-5.99817 5.62066,-8.44966 l 28.10311,-33.72434 0,-4.22483 C 303.87128,666.28046 273.0521,593.96649 277.50333,548.02081 c -1.13167,-6.75244 -5.24343,-19.99311 -9.84553,-25.27416 -2.03702,1.62081 -4.75302,4.37582 -7.01636,5.62091 l -8.41209,2.79136 -8.44983,0 -4.22489,-2.79136 c -12.75016,7.20482 -25.68893,14.4099 -37.94872,22.48254 l -5.62062,2.79108 -4.22492,-1.39395 -14.03271,-8.41198 C 177.01244,539.30983 174.9,529.69094 174.9,525.5412 c 0,-3.50823 0.98076,-7.73306 1.39422,-11.24127 0.64278,-2.33874 1.54811,-4.94145 2.82766,-7.01591 19.69107,-20.82302 36.85475,-45.60688 53.41488,-68.88111 l 14.07046,-14.07056 c 7.28041,-3.65918 6.67682,-3.96111 14.97575,-5.13032 1.28254,-0.18042 1.99777,-0.49217 3.28186,-0.49217 l 8.4498,2.82797 3.73453,-2.33873 7.50674,-4.71566 c 3.39502,-2.71599 6.71458,-6.71452 9.8078,-9.80753 l -2.79144,23.87809 66.05182,-47.7941 c 6.26196,-9.39285 31.23413,-16.86217 42.1736,-16.86217 18.67264,0 41.75867,7.13 52.01917,23.87834 20.74729,34.51604 37.26967,111.50745 37.94872,151.8325 23.38783,1.5091 46.85115,2.22729 70.27674,2.79162 l 11.24127,1.43347 -92.98284,160.24448"
       style="fill:#000000;fill-opacity:1;fill-rule:evenodd;stroke:none"
       id="path7150"
       inkscape:connector-curvature="0"
       sodipodi:nodetypes="cccccsccccccccccccccsscccscccccccccccccccccccccccsccccccccccccsccccc" />
    <path
       d="m 551.62872,725.13038 4.18717,1.43321 c 2.03703,1.4335 8.3744,5.5453 9.84557,7.01672 1.4727,1.47248 5.58292,7.84581 7.01632,9.8452 l 2.8277,7.01644 -1.39721,5.6209 -16.86194,29.53666 -2.82767,7.01591 -4.22488,4.22508 c -2.00079,3.13069 -3.69681,7.50649 -4.22494,11.24127 l 4.22494,5.62038 11.24125,8.44993 7.05407,4.18741 9.84559,19.69067 c 6.97857,-6.07299 11.20348,-20.4829 11.2412,-29.4982 l -1.43338,-4.22536 -4.18722,-4.22483 -7.05409,-2.8277 -4.22495,-2.79132 0,-4.22483 1.4335,-7.01672 c 2.18791,-2.18776 5.16796,-4.60183 7.01636,-7.01591 2.52891,-3.28217 4.82847,-7.73332 7.0164,-11.27895 5.24335,9.73217 9.84547,19.69067 9.84547,30.93194 0,4.48908 -0.94153,9.58173 -1.39719,14.07056 l -7.0164,28.10291 c -1.1317,3.35751 -4.07401,12.56172 -5.62061,15.46635 l -8.44983,11.24155 c -1.43344,1.05594 -4.14941,3.47 -5.62062,4.22455 -1.88611,0.94186 -6.26189,2.07315 -8.44979,2.79161 l -14.03273,15.4661 0,7.05412 4.22485,4.18715 7.0164,1.43349 c 4.37578,0.37701 13.54235,-0.98086 18.25763,-1.43349 l 1.43345,-15.42842 2.79146,-4.22483 5.6206,-1.43374 c 1.32181,0.37755 9.50605,-2.29946 11.24127,-2.79134 l 4.22494,-5.62065 0,-19.69118 c 5.9224,-22.14268 10.7886,-37.72233 25.3117,-56.2061 l 2.79144,-8.44991 0,-5.62036 -4.22493,-7.01644 c -2.97852,-6.90343 -7.01634,-22.36952 -7.01634,-29.53666 0,-5.92258 0.94158,-12.33543 1.39423,-18.25746 0.90535,-7.80867 4.60212,-18.52196 8.44984,-25.31209 6.71454,-6.22421 13.91955,-30.25326 15.46616,-39.34417 0.45267,-5.46968 1.39421,-11.42992 1.39421,-16.86192 l 0,-25.31183 c 0,-6.94082 -2.97856,-16.89985 -4.22493,-23.91576 24.97225,23.72714 40.77792,56.80967 40.77792,91.36339 0,11.84486 -1.69606,25.00989 -4.22491,36.55256 -0.71826,23.95423 9.20422,46.24813 22.97292,65.14683 2.2241,3.05561 4.82843,6.90343 7.95938,9.35518 -7.61988,-11.35429 -11.24127,-31.49811 -11.24127,-44.96482 0,-14.90046 8.9025,-35.45921 16.8619,-47.79437 4.82846,-4.71512 11.24127,-31.15877 11.24127,-37.9489 0,-34.10082 -21.464,-68.46589 -53.41484,-81.51792 -10.71314,-1.65952 -26.02843,-8.52526 -35.11953,-14.07028 l -85.74294,147.56972"
       style="fill:#000000;fill-opacity:1;fill-rule:nonzero;stroke:none"
       id="path7154"
       inkscape:connector-curvature="0" />
    <path
       d="m 389.95065,481.97192 c 5.54521,14.97607 10.56229,30.32862 16.86192,44.96508 -16.18294,-8.71392 -52.32095,-29.38596 -63.22273,-43.56927 8.29894,-1.88611 18.25767,-2.79161 26.70748,-2.79161 6.4128,0 13.24053,0.94158 19.65333,1.39421"
       style="fill:#ffffff;fill-opacity:1;fill-rule:nonzero;stroke:none"
       id="path7156"
       inkscape:connector-curvature="0" />
    <path
       d="m 333.74432,472.12619 c -9.73234,-10.29754 -19.20064,-21.16182 -29.53657,-30.9322 18.14443,-3.09326 58.9223,-27.31094 74.50165,-37.94864 -0.18126,16.82425 1.24332,35.7232 5.62063,52.0192 -16.67331,4.18715 -35.15729,9.05325 -50.58571,16.86164"
       style="fill:#ffffff;fill-opacity:1;fill-rule:nonzero;stroke:none"
       id="path7158"
       inkscape:connector-curvature="0" />
    <rect
       y="-103.48565"
       x="766.03888"
       height="800"
       width="75"
       id="rect14780"
       style="fill:#e20a16;fill-opacity:1;stroke:none;stroke-width:8.05000019;stroke-miterlimit:4;stroke-dasharray:none;stroke-opacity:1"
       transform="matrix(0.8660254,0.5,-0.5,0.8660254,0,0)" />
    <circle
       style="fill:#000000;fill-opacity:1;stroke:none;stroke-width:8.05000019;stroke-miterlimit:4;stroke-dasharray:none;stroke-opacity:1"
       id="path14800"
       cx="399.10001"
       cy="325.26202"
       r="30.200001" />
  </g>
</svg>
