<?xml version="1.0" encoding="UTF-8" standalone="no"?>
<!-- Created with Inkscape (http://www.inkscape.org/) -->

<svg
   xmlns:dc="http://purl.org/dc/elements/1.1/"
   xmlns:cc="http://creativecommons.org/ns#"
   xmlns:rdf="http://www.w3.org/1999/02/22-rdf-syntax-ns#"
   xmlns:svg="http://www.w3.org/2000/svg"
   xmlns="http://www.w3.org/2000/svg"
   xmlns:sodipodi="http://sodipodi.sourceforge.net/DTD/sodipodi-0.dtd"
   xmlns:inkscape="http://www.inkscape.org/namespaces/inkscape"
   width="900.79999"
   height="900.79999"
   viewBox="0 0 900.79995 900.79998"
   id="svg4143"
   version="1.1"
   inkscape:version="0.91 r13725"
   sodipodi:docname="11.svg">
  <defs
     id="defs4145" />
  <sodipodi:namedview
     id="base"
     pagecolor="#ffffff"
     bordercolor="#666666"
     borderopacity="1.0"
     inkscape:pageopacity="0.0"
     inkscape:pageshadow="2"
     inkscape:zoom="0.48148337"
     inkscape:cx="402.79777"
     inkscape:cy="305.57443"
     inkscape:document-units="px"
     inkscape:current-layer="layer1"
     showgrid="false"
     units="px"
     fit-margin-top="0"
     fit-margin-left="0"
     fit-margin-right="0"
     fit-margin-bottom="0"
     inkscape:window-width="1920"
     inkscape:window-height="1057"
     inkscape:window-x="-8"
     inkscape:window-y="-8"
     inkscape:window-maximized="1" />
  <metadata
     id="metadata4148">
    <rdf:RDF>
      <cc:Work
         rdf:about="">
        <dc:format>image/svg+xml</dc:format>
        <dc:type
           rdf:resource="http://purl.org/dc/dcmitype/StillImage" />
        <dc:title></dc:title>
      </cc:Work>
    </rdf:RDF>
  </metadata>
  <g
     inkscape:label="Layer 1"
     inkscape:groupmode="layer"
     id="layer1"
     transform="translate(-213.65873,3797.6614)">
    <circle
       style="fill:#e20a16;fill-opacity:1;stroke:none;stroke-width:8.05000019;stroke-miterlimit:4;stroke-dasharray:none;stroke-opacity:1"
       id="path4702"
       cx="664.05872"
       cy="-3347.2615"
       r="450" />
    <circle
       cy="-3347.2615"
       cx="664.05872"
       id="circle4704"
       style="fill:#ffffff;fill-opacity:1;stroke:none;stroke-width:8.05000019;stroke-miterlimit:4;stroke-dasharray:none;stroke-opacity:1"
       r="375" />
    <path
       style="fill:#000000;fill-opacity:1;stroke:none;stroke-width:8.05000019;stroke-miterlimit:4;stroke-dasharray:none;stroke-opacity:1"
       d="m 364.05868,-3478.5115 131.25,131.25 -131.25,131.25 z"
       id="rect4159"
       inkscape:connector-curvature="0"
       sodipodi:nodetypes="cccc" />
    <path
       sodipodi:nodetypes="cccc"
       inkscape:connector-curvature="0"
       id="path5434"
       d="m 964.05868,-3478.5115 -131.25,131.25 131.25,131.25 z"
       style="fill:#000000;fill-opacity:1;stroke:none;stroke-width:8.05000019;stroke-miterlimit:4;stroke-dasharray:none;stroke-opacity:1" />
    <g
       style="font-style:normal;font-variant:normal;font-weight:normal;font-stretch:normal;font-size:195.04762268px;line-height:125%;font-family:'DIN 1451 Mittelschrift';-inkscape-font-specification:'DIN 1451 Mittelschrift';letter-spacing:0px;word-spacing:0px;fill:#000000;fill-opacity:1;stroke:none;stroke-width:1px;stroke-linecap:butt;stroke-linejoin:miter;stroke-opacity:1"
       id="text5463"
       transform="translate(297.53164,-1256.031)">
      <path
         d="m 271.62704,-1793.2305 0,-135.8686 27.35738,0 0,14.5289 0.52358,0 c 8.63918,-10.7335 20.41987,-16.1003 35.34207,-16.1003 9.51182,0 17.06019,1.7017 22.64511,5.105 5.58492,3.4033 10.82078,7.5919 15.70758,12.566 10.73352,-11.7807 25.04488,-17.671 42.93408,-17.671 10.55899,0 20.72528,4.0142 30.49888,12.0425 9.86087,8.0283 14.79131,19.7218 14.79131,35.0803 l 0,90.3172 -27.35737,0 0,-80.8927 c 0,-9.1628 -2.5743,-16.3185 -7.7229,-21.467 -5.1486,-5.1487 -11.51889,-7.723 -19.11089,-7.723 -7.85379,0 -14.35499,2.5743 -19.50359,7.723 -5.06133,5.1485 -7.592,12.3042 -7.592,21.467 l 0,80.8927 -27.22648,0 0,-80.8927 c 0,-9.1628 -2.5743,-16.3185 -7.7229,-21.467 -5.1486,-5.1487 -11.51889,-7.723 -19.11089,-7.723 -7.85379,0 -14.35499,2.5743 -19.50359,7.723 -5.06133,5.1485 -7.592,12.3042 -7.592,21.467 l 0,80.8927 z"
         id="path5468"
         inkscape:connector-curvature="0"
         sodipodi:nodetypes="cccccsscscsccssscsccssscscc"
         style="fill:#000000;stroke:none" />
    </g>
    <path
       inkscape:connector-curvature="0"
       id="path5902"
       style="font-style:normal;font-variant:normal;font-weight:normal;font-stretch:normal;font-size:32px;line-height:125%;font-family:'DIN 1451 Mittelschrift';-inkscape-font-specification:'DIN 1451 Mittelschrift';letter-spacing:0px;word-spacing:0px;fill:#000000;fill-opacity:1;stroke:#000000;stroke-width:5;stroke-linecap:butt;stroke-linejoin:miter;stroke-miterlimit:4;stroke-dasharray:none;stroke-opacity:1"
       d="m 539.40868,-3265.8066 0,-25.261 73.4621,-91.8915 q 4.253,-5.4135 5.5419,-9.9245 1.2888,-4.5102 1.2888,-8.7641 0,-9.7943 -6.9597,-18.1721 -6.9595,-8.5054 -18.9454,-8.5054 -10.9548,0 -18.8166,7.3464 -7.7329,7.2166 -8.6349,19.8475 l -26.9362,0 q 0.1285,-22.8123 15.5946,-38.4065 15.4658,-15.7236 36.7311,-15.7236 23.4562,0 39.0508,15.8527 15.7235,15.7236 15.7235,38.0197 0,19.074 -11.2127,32.993 l -60.445,75.7818 71.6577,0 0,26.8076 -107.1,0 z" />
    <path
       inkscape:connector-curvature="0"
       id="path5904"
       style="font-style:normal;font-variant:normal;font-weight:normal;font-stretch:normal;font-size:32px;line-height:125%;font-family:'DIN 1451 Mittelschrift';-inkscape-font-specification:'DIN 1451 Mittelschrift';letter-spacing:0px;word-spacing:0px;fill:#000000;fill-opacity:1;stroke:#000000;stroke-width:5;stroke-linecap:butt;stroke-linejoin:miter;stroke-miterlimit:4;stroke-dasharray:none;stroke-opacity:1"
       d="m 761.72828,-3266.2066 0,-159.559 -26.7223,19.4927 0,-28.5309 26.7223,-19.4926 26.9806,0 0,188.0898 -26.9806,0 z" />
    <path
       sodipodi:nodetypes="ccccc"
       inkscape:connector-curvature="0"
       id="path5906"
       d="m 679.50868,-3293.9113 0,45.6 29.3,-18.22 0,-27.38 z"
       style="fill:#000000;fill-opacity:1;fill-rule:nonzero;stroke:none" />
  </g>
</svg>
