<?xml version="1.0" encoding="UTF-8" standalone="no"?>
<!-- Created with Inkscape (http://www.inkscape.org/) -->

<svg
   xmlns:osb="http://www.openswatchbook.org/uri/2009/osb"
   xmlns:dc="http://purl.org/dc/elements/1.1/"
   xmlns:cc="http://creativecommons.org/ns#"
   xmlns:rdf="http://www.w3.org/1999/02/22-rdf-syntax-ns#"
   xmlns:svg="http://www.w3.org/2000/svg"
   xmlns="http://www.w3.org/2000/svg"
   xmlns:sodipodi="http://sodipodi.sourceforge.net/DTD/sodipodi-0.dtd"
   xmlns:inkscape="http://www.inkscape.org/namespaces/inkscape"
   width="900.79999"
   height="900.79999"
   viewBox="0 0 900.79999 900.80004"
   id="svg4143"
   version="1.1"
   inkscape:version="0.91 r13725"
   sodipodi:docname="11.svg">
  <defs
     id="defs4145">
    <linearGradient
       id="linearGradient7315"
       osb:paint="solid">
      <stop
         style="stop-color:#ff0000;stop-opacity:1;"
         offset="0"
         id="stop7317" />
    </linearGradient>
  </defs>
  <sodipodi:namedview
     id="base"
     pagecolor="#ffffff"
     bordercolor="#666666"
     borderopacity="1.0"
     inkscape:pageopacity="0.0"
     inkscape:pageshadow="2"
     inkscape:zoom="0.54275184"
     inkscape:cx="279.72581"
     inkscape:cy="482.04052"
     inkscape:document-units="px"
     inkscape:current-layer="layer1"
     showgrid="false"
     units="px"
     fit-margin-top="0"
     fit-margin-left="0"
     fit-margin-right="0"
     fit-margin-bottom="0"
     inkscape:window-width="1920"
     inkscape:window-height="1057"
     inkscape:window-x="-8"
     inkscape:window-y="-8"
     inkscape:window-maximized="1" />
  <metadata
     id="metadata4148">
    <rdf:RDF>
      <cc:Work
         rdf:about="">
        <dc:format>image/svg+xml</dc:format>
        <dc:type
           rdf:resource="http://purl.org/dc/dcmitype/StillImage" />
        <dc:title></dc:title>
      </cc:Work>
    </rdf:RDF>
  </metadata>
  <g
     inkscape:label="Layer 1"
     inkscape:groupmode="layer"
     id="layer1"
     transform="translate(-805.4543,5795.4954)">
    <circle
       style="fill:#e20a16;fill-opacity:1;stroke:none;stroke-width:8.05000019;stroke-miterlimit:4;stroke-dasharray:none;stroke-opacity:1"
       id="path4702"
       cx="1255.8542"
       cy="-5345.0952"
       r="450" />
    <circle
       cy="-5345.0952"
       cx="1255.8542"
       id="circle4704"
       style="fill:#ffffff;fill-opacity:1;stroke:none;stroke-width:8.05000019;stroke-miterlimit:4;stroke-dasharray:none;stroke-opacity:1"
       r="375" />
    <g
       style="font-style:normal;font-variant:normal;font-weight:normal;font-stretch:normal;font-size:139.41456604px;line-height:125%;font-family:'DIN 1451 Mittelschrift';-inkscape-font-specification:'DIN 1451 Mittelschrift';letter-spacing:0px;word-spacing:0px;fill:#000000;fill-opacity:1;stroke:none;stroke-width:1px;stroke-linecap:butt;stroke-linejoin:miter;stroke-opacity:1"
       id="text7210"
       transform="matrix(1.66,0,0,1.66,-694.36135,2649.7279)" />
    <g
       style="font-style:normal;font-variant:normal;font-weight:normal;font-stretch:normal;font-size:54.21686935px;line-height:125%;font-family:'DIN 1451 Mittelschrift';-inkscape-font-specification:'DIN 1451 Mittelschrift';letter-spacing:0px;word-spacing:0px;fill:#000000;fill-opacity:1;stroke:none;stroke-width:1px;stroke-linecap:butt;stroke-linejoin:miter;stroke-opacity:1"
       id="text4170"
       transform="matrix(-6.9952783,0,0,6.9952783,5529.681,25774.451)" />
    <path
       style="fill:#000000;fill-opacity:1;fill-rule:nonzero;stroke:none"
       d="m 1343.3317,-5287.8467 c 2.2435,0.09 4.5964,0.1476 5.6747,0.5706 3.511,0.9251 4.0846,1.2628 5.1278,1.6943 1.773,0.954 3.5249,1.971 5.1278,3.4347 1.3713,1.5099 2.5545,3.0199 3.4099,4.5299 0.7191,0.7789 1.8107,3.0477 2.8616,5.1539 l 37.533,103.11 3.4669,3.937 c 2.2441,3.4116 4.0654,7.729 5.676,12.513 1.2906,3.677 0.7858,4.9603 1.1449,7.3953 l 0,40.9962 c -0.1795,2.1147 -0.7284,2.8806 -1.1449,3.9841 -0.4933,1.1169 -0.9674,2.3629 -2.1694,3.4744 -0.5712,0.7372 -3.5863,2.9614 -5.7418,3.148 l -2.9216,0.2159 0,66.5941 -35.8439,0 0,-43.1855 c -36.2931,5.4839 -73.0221,7.9663 -109.6784,7.8753 -36.6564,0.091 -73.3854,-2.3914 -109.6784,-7.8753 l 0,43.1855 -35.8439,0 0,-66.5941 -2.9216,-0.2159 c -2.1554,-0.1866 -5.1706,-2.4108 -5.7417,-3.148 -1.2021,-1.1115 -1.6762,-2.3575 -2.1695,-3.4744 -0.4165,-1.1035 -0.9654,-1.8694 -1.1449,-3.9841 l 0,-40.9962 c 0.359,-2.435 -0.1457,-3.7183 1.1449,-7.3953 1.6107,-4.784 3.432,-9.1015 5.676,-12.513 l 3.4669,-3.937 37.533,-103.11 c 1.0509,-2.1062 2.1425,-4.375 2.8616,-5.1539 0.8554,-1.51 2.0386,-3.02 3.4099,-4.5299 1.6029,-1.4637 3.3549,-2.4807 5.1278,-3.4347 1.0433,-0.4315 1.6168,-0.7692 5.1278,-1.6943 1.0783,-0.423 3.4312,-0.4806 5.6747,-0.5706 z"
       id="path5666"
       inkscape:connector-curvature="0"
       sodipodi:nodetypes="cccccccccccccccccccccccccccccccccccccc" />
    <path
       style="fill:#ffffff;fill-opacity:1;fill-rule:evenodd;stroke:none"
       d="m 1133.4107,-5205.5403 23.3902,-63.322 c 0.7241,-1.8315 1.6427,-3.3744 2.2736,-3.9903 0.7716,-0.9207 2.1919,-2.3054 6.8494,-2.2922 l 0.01,0 0,0 179.8422,0 c 4.6658,-0.015 6.0873,1.3708 6.8593,2.2922 0.631,0.6159 1.5496,2.1588 2.2737,3.9903 l 23.3901,63.322 z"
       id="path5668"
       inkscape:connector-curvature="0"
       sodipodi:nodetypes="ccccccccccc" />
    <path
       sodipodi:nodetypes="ccccc"
       inkscape:connector-curvature="0"
       id="path5670"
       d="m 1168.0861,-5158.4935 8.1291,32.9607 -56.9032,0 0,-32.9607 z"
       style="fill:#ffffff;fill-opacity:1;fill-rule:nonzero;stroke:none" />
    <path
       style="fill:#ffffff;fill-opacity:1;fill-rule:evenodd;stroke:none"
       d="m 1119.312,-5116.0066 273.0846,0 0,-4.5725 -67.8901,0 3.8105,-14.1623 -144.9254,0 3.8105,14.1623 -67.8901,0 z"
       id="path7091"
       inkscape:connector-curvature="0"
       sodipodi:nodetypes="ccccccccc" />
    <path
       style="fill:#ffffff;fill-opacity:1;fill-rule:nonzero;stroke:none"
       d="m 1343.6224,-5158.4935 -8.129,32.9607 56.9032,0 0,-32.9607 z"
       id="path7129"
       inkscape:connector-curvature="0"
       sodipodi:nodetypes="ccccc" />
    <path
       d="m 1187.2076,-5623.7577 11.2072,0 c 10.833,-18.3277 36.3509,-25.1174 55.4775,-15.1546 18.4218,-47.0657 -57.9438,-75.6606 -66.6847,-24.1081 l 18.4912,0 1.1279,0.564 2.7971,1.1279 2.2313,2.2312 1.6918,2.8197 -0.564,3.361 -1.673,2.7952 -2.2556,1.6918 -3.3592,0.5452 -12.8764,0 -2.8197,0.5638 -1.673,2.2558 -1.1278,2.2313 0,19.0796"
       style="fill:#000000;fill-opacity:1;fill-rule:nonzero;stroke:none"
       id="path8490"
       inkscape:connector-curvature="0" />
    <path
       d="m 1292.5441,-5552.5144 21.3128,-35.3397 c -105.9493,-72.7695 -90.3943,-51.5752 -156.9136,58.3198 l 1.1279,0.5639 5.6148,1.1279 6.1563,0 5.5923,-1.1279 5.5923,-2.7952 4.5114,-3.925 3.9006,-4.4869 32.5199,-54.9832 70.5853,42.6463"
       style="fill:#000000;fill-opacity:1;fill-rule:evenodd;stroke:none"
       id="path8492"
       inkscape:connector-curvature="0" />
    <path
       d="m 1299.8282,-5473.4233 c 9.9177,9.0474 8.4609,27.4221 -2.7952,34.7758 l -72.2771,-75.1663 -2.7971,-3.925 -1.6917,-4.487 -0.564,-5.0528 0.564,-5.0509 2.2331,-4.4889 3.3592,-3.9231 4.4889,-2.8196 5.0509,-1.673 66.1227,0 21.8504,-37.007 c 16.9893,10.2917 51.0376,22.3222 40.9094,49.3439 l -2.7952,5.6148 -3.3836,4.489 -5.0284,3.923 -5.6168,2.2558 -5.5923,1.109 -82.3808,0 40.3436,42.0823"
       style="fill:#000000;fill-opacity:1;fill-rule:evenodd;stroke:none"
       id="path8494"
       inkscape:connector-curvature="0" />
    <path
       d="m 1326.1694,-5403.3079 c 62.1263,70.6097 160.9551,-20.2075 95.8212,-88.631 -27.5142,-24.4596 -69.621,-22.3449 -93.5655,5.5923 -11.9121,12.5474 -13.9328,25.5423 -16.8239,41.5203 l -2.2332,5.0509 -3.9231,4.4888 -4.4888,3.3592 -5.051,1.6918 -5.5923,0.5452 -90.2063,-93.0955 -56.0396,0 0,-7.8481 29.1364,-47.6766 0.5639,-2.2556 -0.5639,-2.7952 -2.2557,-1.1279 -2.2332,-0.564 -1.673,0.564 -48.7555,39.2627 -24.1081,0 -1.6729,9.5398 -0.564,10.1038 0.564,9.5172 1.6729,7.8707 8.976,-5.051 9.5153,-3.361 5.6168,-1.6918 0,11.773 c -130.05732,57.0735 29.1364,209.0998 80.689,76.8355 l 9.5154,0 -2.2313,7.8705 -3.3836,9.5398 -5.0283,8.976 128.3166,0"
       style="fill:#000000;fill-opacity:1;fill-rule:evenodd;stroke:none"
       id="path8496"
       inkscape:connector-curvature="0" />
    <path
       d="m 1145.7343,-5450.9826 12.3369,-26.3637 c 37.9243,26.1983 10.3857,85.1535 -33.6253,73.4745 -51.8346,-15.4836 -32.661,-89.994 20.1605,-79.6552 l -13.4403,27.4916 -3.9231,1.673 -2.7971,3.3836 -2.2313,3.3591 -0.5639,4.4889 1.109,3.923 1.6918,3.925 3.3592,2.7953 c 12.1489,7.8724 26.1287,-6.8611 17.9292,-18.4913"
       style="fill:#ffffff;fill-opacity:1;fill-rule:nonzero;stroke:none"
       id="path8498"
       inkscape:connector-curvature="0" />
    <path
       d="m 1362.0485,-5481.2713 c 15.2506,-8.0585 38.8886,-0.9962 48.7349,13.4404 12.7824,17.1999 9.7973,40.5333 -5.5923,54.9832 -41.8963,34.5181 -93.2835,-22.1342 -55.4776,-60.5756 l 15.6961,25.2359 -0.564,4.489 0.564,3.923 1.673,3.925 c 6.4156,7.2596 11.0906,6.7201 19.0551,2.7951 l 2.7971,-3.359 1.6918,-3.9251 0,-4.4869 -1.1279,-3.925 -2.2331,-3.3591 -3.3836,-2.8197 -3.9005,-1.1091 -2.2557,-0.5639 -15.6716,-24.6719"
       style="fill:#ffffff;fill-opacity:1;fill-rule:evenodd;stroke:none"
       id="path8500"
       inkscape:connector-curvature="0" />
    <rect
       style="fill:#e20a16;fill-opacity:1;stroke:none;stroke-width:6.80000019;stroke-miterlimit:4;stroke-dasharray:none;stroke-opacity:1"
       id="rect7108"
       width="75.000008"
       height="860.00006"
       x="-1622.4458"
       y="-5686.915"
       transform="matrix(0.8660254,0.5,-0.5,0.8660254,0,0)" />
  </g>
</svg>
