<?xml version="1.0" encoding="UTF-8" standalone="no"?>
<!-- Created with Inkscape (http://www.inkscape.org/) -->

<svg
   xmlns:osb="http://www.openswatchbook.org/uri/2009/osb"
   xmlns:dc="http://purl.org/dc/elements/1.1/"
   xmlns:cc="http://creativecommons.org/ns#"
   xmlns:rdf="http://www.w3.org/1999/02/22-rdf-syntax-ns#"
   xmlns:svg="http://www.w3.org/2000/svg"
   xmlns="http://www.w3.org/2000/svg"
   xmlns:sodipodi="http://sodipodi.sourceforge.net/DTD/sodipodi-0.dtd"
   xmlns:inkscape="http://www.inkscape.org/namespaces/inkscape"
   width="900.79999"
   height="900.79999"
   viewBox="0 0 900.80001 900.80004"
   id="svg4143"
   version="1.1"
   inkscape:version="0.91 r13725"
   sodipodi:docname="11.svg">
  <defs
     id="defs4145">
    <linearGradient
       id="linearGradient7315"
       osb:paint="solid">
      <stop
         style="stop-color:#ff0000;stop-opacity:1;"
         offset="0"
         id="stop7317" />
    </linearGradient>
  </defs>
  <sodipodi:namedview
     id="base"
     pagecolor="#ffffff"
     bordercolor="#666666"
     borderopacity="1.0"
     inkscape:pageopacity="0.0"
     inkscape:pageshadow="2"
     inkscape:zoom="0.54275184"
     inkscape:cx="589.33841"
     inkscape:cy="324.27847"
     inkscape:document-units="px"
     inkscape:current-layer="layer1"
     showgrid="false"
     units="px"
     fit-margin-top="0"
     fit-margin-left="0"
     fit-margin-right="0"
     fit-margin-bottom="0"
     inkscape:window-width="1920"
     inkscape:window-height="1057"
     inkscape:window-x="-8"
     inkscape:window-y="-8"
     inkscape:window-maximized="1" />
  <metadata
     id="metadata4148">
    <rdf:RDF>
      <cc:Work
         rdf:about="">
        <dc:format>image/svg+xml</dc:format>
        <dc:type
           rdf:resource="http://purl.org/dc/dcmitype/StillImage" />
        <dc:title></dc:title>
      </cc:Work>
    </rdf:RDF>
  </metadata>
  <g
     inkscape:label="Layer 1"
     inkscape:groupmode="layer"
     id="layer1"
     transform="translate(-219.31793,5168.9172)">
    <circle
       style="fill:#e20a16;fill-opacity:1;stroke:none;stroke-width:8.05000019;stroke-miterlimit:4;stroke-dasharray:none;stroke-opacity:1"
       id="path4702"
       cx="669.7179"
       cy="-4718.5171"
       r="450" />
    <circle
       cy="-4718.5171"
       cx="669.7179"
       id="circle4704"
       style="fill:#ffffff;fill-opacity:1;stroke:none;stroke-width:8.05000019;stroke-miterlimit:4;stroke-dasharray:none;stroke-opacity:1"
       r="375" />
    <g
       style="font-style:normal;font-variant:normal;font-weight:normal;font-stretch:normal;font-size:139.41456604px;line-height:125%;font-family:'DIN 1451 Mittelschrift';-inkscape-font-specification:'DIN 1451 Mittelschrift';letter-spacing:0px;word-spacing:0px;fill:#000000;fill-opacity:1;stroke:none;stroke-width:1px;stroke-linecap:butt;stroke-linejoin:miter;stroke-opacity:1"
       id="text7210"
       transform="matrix(1.66,0,0,1.66,-694.36135,2649.7279)" />
    <g
       style="font-style:normal;font-variant:normal;font-weight:normal;font-stretch:normal;font-size:54.21686935px;line-height:125%;font-family:'DIN 1451 Mittelschrift';-inkscape-font-specification:'DIN 1451 Mittelschrift';letter-spacing:0px;word-spacing:0px;fill:#000000;fill-opacity:1;stroke:none;stroke-width:1px;stroke-linecap:butt;stroke-linejoin:miter;stroke-opacity:1"
       id="text4170"
       transform="matrix(-6.9952783,0,0,6.9952783,5529.681,25774.451)" />
    <path
       style="color:#000000;font-style:normal;font-variant:normal;font-weight:normal;font-stretch:normal;font-size:medium;line-height:normal;font-family:sans-serif;text-indent:0;text-align:start;text-decoration:none;text-decoration-line:none;text-decoration-style:solid;text-decoration-color:#000000;letter-spacing:normal;word-spacing:normal;text-transform:none;direction:ltr;block-progression:tb;writing-mode:lr-tb;baseline-shift:baseline;text-anchor:start;white-space:normal;clip-rule:nonzero;display:inline;overflow:visible;visibility:visible;opacity:1;isolation:auto;mix-blend-mode:normal;color-interpolation:sRGB;color-interpolation-filters:linearRGB;solid-color:#000000;solid-opacity:1;fill:#000000;fill-opacity:1;fill-rule:nonzero;stroke:none;stroke-width:15.36748028px;stroke-linecap:butt;stroke-linejoin:miter;stroke-miterlimit:4;stroke-dasharray:none;stroke-dashoffset:0;stroke-opacity:1;color-rendering:auto;image-rendering:auto;shape-rendering:auto;text-rendering:auto;enable-background:accumulate"
       d="m 453.80529,-4546.517 c -1.08916,-30.5562 8.01702,-56.961 26.37018,-76.7493 18.35435,-19.7894 45.6621,-31.251 78.35466,-31.251 l 222.37551,0 c 32.6925,0 60.0003,11.4616 78.3545,31.251 18.3531,19.7883 27.4593,46.1931 26.3702,76.7493 l -23.0361,0 c 0.9123,-25.5653 -6.519,-46.2896 -20.2354,-61.0784 -13.7114,-14.7834 -33.9975,-23.874 -61.424,-23.874 l -222.434,0 c -27.42651,0 -47.71254,9.0906 -61.42397,23.874 -13.71636,14.7888 -21.14773,35.5131 -20.23539,61.0784 z"
       id="path4210"
       inkscape:connector-curvature="0"
       sodipodi:nodetypes="cssssccsssscc" />
    <circle
       style="opacity:1;fill:#000000;fill-opacity:1;stroke:none;stroke-width:3.9000001;stroke-linejoin:miter;stroke-miterlimit:4;stroke-dasharray:none;stroke-dashoffset:0;stroke-opacity:1"
       id="path4236"
       cx="570.7179"
       cy="-4537.5171"
       r="81" />
    <circle
       cy="-4537.5171"
       cx="570.7179"
       id="circle4258"
       style="opacity:1;fill:#ffffff;fill-opacity:1;stroke:none;stroke-width:3.9000001;stroke-linejoin:miter;stroke-miterlimit:4;stroke-dasharray:none;stroke-dashoffset:0;stroke-opacity:1"
       r="45" />
    <circle
       r="81"
       cy="-4537.5171"
       cx="768.71777"
       id="circle4208"
       style="opacity:1;fill:#000000;fill-opacity:1;stroke:none;stroke-width:3.9000001;stroke-linejoin:miter;stroke-miterlimit:4;stroke-dasharray:none;stroke-dashoffset:0;stroke-opacity:1" />
    <circle
       r="45"
       style="opacity:1;fill:#ffffff;fill-opacity:1;stroke:none;stroke-width:3.9000001;stroke-linejoin:miter;stroke-miterlimit:4;stroke-dasharray:none;stroke-dashoffset:0;stroke-opacity:1"
       id="circle4210"
       cx="768.71777"
       cy="-4537.5171" />
    <path
       style="font-style:normal;font-variant:normal;font-weight:normal;font-stretch:normal;font-size:224.19358826px;line-height:125%;font-family:'DIN 1451 Engschrift';-inkscape-font-specification:'DIN 1451 Engschrift';letter-spacing:0px;word-spacing:0px;fill:#000000;fill-opacity:1;stroke:none;stroke-width:1px;stroke-linecap:butt;stroke-linejoin:miter;stroke-opacity:1"
       sodipodi:nodetypes="sccscscsccccccccccscs"
       inkscape:connector-curvature="0"
       id="path4221"
       d="m 871.05991,-4733.7076 8.9909,0 0,37.1904 -12.2606,0 c -7.3563,0 -13.8953,-0.6812 -19.6169,-2.0435 -5.7213,-1.635 -11.3068,-4.7681 -16.7561,-9.3998 -5.4493,-4.6319 -9.2636,-9.6721 -11.4433,-15.1215 -2.1797,-5.7216 -3.2696,-12.6691 -3.2696,-20.843 l 0,-114.8326 -19.1407,0 0,-37.5519 19.1407,0 0,-53.5938 39.2342,0 0,53.5938 24.2035,0 0,37.5519 -24.2035,0 0,107.8848 c 0,6.5392 0.8173,11.0348 2.4519,13.4867 1.9074,2.4524 6.1305,3.6785 12.6695,3.6785 z" />
    <path
       inkscape:connector-curvature="0"
       id="path4223"
       style="fill:#000000;fill-opacity:1;fill-rule:nonzero;stroke:none"
       d="m 493.38923,-4949.2448 36.09528,0 0,252.7277 -43.99996,0 0,-200.8255 -28.19065,21.439 0,-46.3013 36.09533,-27.0399" />
    <path
       inkscape:connector-curvature="0"
       id="path4225"
       style="fill:#000000;fill-opacity:1;fill-rule:nonzero;stroke:none"
       d="m 588.21341,-4879.295 42.8784,0 c 2.5436,-15.0801 12.2626,-29.3438 29.3412,-29.3438 13.961,0 29.3124,13.6871 29.3124,28.1931 0,9.3266 -3.3915,11.657 -6.7515,19.1983 l -94.7805,118.4605 0,46.2698 144.4103,0 0,-42.8783 -91.3889,0 75.6135,-94.7805 c 8.8712,-13.9003 15.7754,-28.3143 15.7754,-45.1191 0,-39.0944 -33.0066,-72.2221 -72.1907,-72.2221 -38.1228,0 -73.4308,33.1592 -72.2196,72.2221" />
  </g>
</svg>
