<?xml version="1.0" encoding="UTF-8" standalone="no"?>
<!-- Created with Inkscape (http://www.inkscape.org/) -->

<svg
   xmlns:dc="http://purl.org/dc/elements/1.1/"
   xmlns:cc="http://creativecommons.org/ns#"
   xmlns:rdf="http://www.w3.org/1999/02/22-rdf-syntax-ns#"
   xmlns:svg="http://www.w3.org/2000/svg"
   xmlns="http://www.w3.org/2000/svg"
   xmlns:sodipodi="http://sodipodi.sourceforge.net/DTD/sodipodi-0.dtd"
   xmlns:inkscape="http://www.inkscape.org/namespaces/inkscape"
   width="600"
   height="800"
   viewBox="0 0 600.00002 800.00001"
   id="svg2"
   version="1.1"
   inkscape:version="0.91 r13725"
   sodipodi:docname="33.svg">
  <defs
     id="defs4">
    <pattern
       y="0"
       x="0"
       height="6"
       width="6"
       patternUnits="userSpaceOnUse"
       id="EMFhbasepattern" />
    <pattern
       y="0"
       x="0"
       height="6"
       width="6"
       patternUnits="userSpaceOnUse"
       id="EMFhbasepattern-6" />
    <pattern
       y="0"
       x="0"
       height="6"
       width="6"
       patternUnits="userSpaceOnUse"
       id="EMFhbasepattern-3" />
    <pattern
       y="0"
       x="0"
       height="6"
       width="6"
       patternUnits="userSpaceOnUse"
       id="EMFhbasepattern-0" />
    <pattern
       y="0"
       x="0"
       height="6"
       width="6"
       patternUnits="userSpaceOnUse"
       id="EMFhbasepattern-2" />
    <pattern
       y="0"
       x="0"
       height="6"
       width="6"
       patternUnits="userSpaceOnUse"
       id="EMFhbasepattern-65" />
    <pattern
       y="0"
       x="0"
       height="6"
       width="6"
       patternUnits="userSpaceOnUse"
       id="EMFhbasepattern-28" />
    <pattern
       y="0"
       x="0"
       height="6"
       width="6"
       patternUnits="userSpaceOnUse"
       id="EMFhbasepattern-5" />
    <pattern
       y="0"
       x="0"
       height="6"
       width="6"
       patternUnits="userSpaceOnUse"
       id="EMFhbasepattern-7" />
    <pattern
       y="0"
       x="0"
       height="6"
       width="6"
       patternUnits="userSpaceOnUse"
       id="EMFhbasepattern-79" />
    <pattern
       y="0"
       x="0"
       height="6"
       width="6"
       patternUnits="userSpaceOnUse"
       id="EMFhbasepattern-30" />
    <pattern
       y="0"
       x="0"
       height="6"
       width="6"
       patternUnits="userSpaceOnUse"
       id="EMFhbasepattern-1" />
    <pattern
       y="0"
       x="0"
       height="6"
       width="6"
       patternUnits="userSpaceOnUse"
       id="EMFhbasepattern-13" />
    <pattern
       y="0"
       x="0"
       height="6"
       width="6"
       patternUnits="userSpaceOnUse"
       id="EMFhbasepattern-05" />
    <pattern
       y="0"
       x="0"
       height="6"
       width="6"
       patternUnits="userSpaceOnUse"
       id="EMFhbasepattern-20" />
    <pattern
       y="0"
       x="0"
       height="6"
       width="6"
       patternUnits="userSpaceOnUse"
       id="EMFhbasepattern-9" />
    <pattern
       y="0"
       x="0"
       height="6"
       width="6"
       patternUnits="userSpaceOnUse"
       id="EMFhbasepattern-95" />
  </defs>
  <sodipodi:namedview
     id="base"
     pagecolor="#ffffff"
     bordercolor="#666666"
     borderopacity="1.0"
     inkscape:pageopacity="0.0"
     inkscape:pageshadow="2"
     inkscape:zoom="0.64"
     inkscape:cx="254.61968"
     inkscape:cy="289.25479"
     inkscape:document-units="px"
     inkscape:current-layer="layer1"
     showgrid="false"
     fit-margin-top="0"
     fit-margin-left="0"
     fit-margin-right="0"
     fit-margin-bottom="0"
     units="px"
     inkscape:window-width="1920"
     inkscape:window-height="1057"
     inkscape:window-x="-8"
     inkscape:window-y="-8"
     inkscape:window-maximized="1"
     showguides="true" />
  <metadata
     id="metadata7">
    <rdf:RDF>
      <cc:Work
         rdf:about="">
        <dc:format>image/svg+xml</dc:format>
        <dc:type
           rdf:resource="http://purl.org/dc/dcmitype/StillImage" />
        <dc:title></dc:title>
      </cc:Work>
    </rdf:RDF>
  </metadata>
  <g
     inkscape:label="Layer 1"
     inkscape:groupmode="layer"
     id="layer1"
     transform="translate(-1552.8237,7367.797)">
    <rect
       style="opacity:1;fill:#00559b;fill-opacity:1;stroke:none;stroke-width:2.4000001;stroke-linejoin:miter;stroke-miterlimit:4;stroke-dasharray:none;stroke-dashoffset:0;stroke-opacity:1"
       id="rect4182"
       width="600"
       height="800"
       x="1552.8237"
       y="-7367.7969" />
    <rect
       y="-7367.7969"
       x="1552.8237"
       height="800"
       width="600"
       id="rect4184"
       style="opacity:1;fill:#ffffff;fill-opacity:1;stroke:none;stroke-width:2.4000001;stroke-linejoin:miter;stroke-miterlimit:4;stroke-dasharray:none;stroke-dashoffset:0;stroke-opacity:1"
       rx="106.4"
       ry="106.4" />
    <rect
       ry="80"
       rx="80"
       style="opacity:1;fill:#00559b;fill-opacity:1;stroke:none;stroke-width:2.4000001;stroke-linejoin:miter;stroke-miterlimit:4;stroke-dasharray:none;stroke-dashoffset:0;stroke-opacity:1"
       id="rect4195"
       width="547.20007"
       height="747.20007"
       x="1579.2236"
       y="-7341.397" />
    <path
       style="fill:#ffffff;fill-opacity:1;fill-rule:nonzero;stroke:none"
       d="m 1733.6236,-6941.3975 140.7891,0 c 98.6403,1.9085 129.6548,131.8318 41.5879,177.1367 l 56.8229,122.0634 -64.0098,0 -52.8101,-111.7001 -61.58,0 0,111.7001 -60.8,0 z"
       id="path6490"
       inkscape:connector-curvature="0"
       sodipodi:nodetypes="cccccccccc" />
    <path
       style="opacity:1;fill:#00559b;fill-opacity:1;stroke:none;stroke-width:25;stroke-linejoin:miter;stroke-miterlimit:4;stroke-dasharray:none;stroke-dashoffset:0;stroke-opacity:1"
       d="m 1794.4236,-6814.5975 79.65,0 c 18.3651,0 33.15,-14.7626 33.15,-33.1 0,-18.3374 -14.7849,-33.1 -33.15,-33.1 l -79.65,0 z"
       id="rect13342"
       inkscape:connector-curvature="0"
       sodipodi:nodetypes="cssscc" />
    <path
       d="m 1746.6702,-7159.2141 c 71.4973,33.3137 37.5111,136.9226 -39.8543,121.9467 -82.2554,-23.8799 -55.0135,-140.142 29.1573,-125.8385 l 22.3518,-68.0334 0.9567,-2.4246 2.4451,-4.3808 3.8918,-3.8917 4.3603,-2.8933 4.8492,-1.467 5.3587,-0.9585 17.9712,0 2.4246,0.9585 2.4451,1.467 0.9568,2.4246 0,2.4248 -1.4474,2.445 -1.9561,1.4474 -2.4246,0.4891 -17.9712,0 -3.8917,0.4694 -3.4026,1.9561 -2.4247,2.4247 -1.467,3.4027 -5.8274,16.5244 0.4891,1.9356 0.978,0.9781 1.4475,0.489 118.0753,0 4.8697,-12.6327 0,-0.9781 -0.489,-1.4458 -1.4669,-0.978 -27.6902,-5.3384 -0.9781,-0.489 0,-1.4671 1.467,-1.9355 1.9357,-1.4671 50.0624,0 1.9357,0.489 1.467,1.4671 0.489,1.9356 0,3.4027 -0.489,1.9357 -1.467,1.467 -1.9357,0.4889 -7.7835,0 -1.4474,0.4891 -0.978,1.4458 -5.3587,13.6108 17.9914,45.6816 c 54.5042,-17.258 101.9178,41.6066 75.3075,91.343 -27.9347,53.5464 -107.7451,42.177 -120.0111,-17.0136 l -26.7121,0 -4.4012,-0.4889 -3.8713,-1.9357 -3.4027,-2.9137 -1.467,-1.4671 -76.2854,-86.4731 -6.7851,21.3739"
       style="fill:#ffffff;fill-opacity:1;fill-rule:evenodd;stroke:none"
       id="path8610"
       inkscape:connector-curvature="0" />
    <path
       d="m 1742.7785,-7147.0703 c 57.5808,29.1367 25.8564,112.5944 -36.4516,96.2125 -62.0431,-22.2907 -38.3465,-110.6588 25.7544,-99.6153 l -16.5243,50.042 0,2.9137 0.978,1.956 1.9356,1.9357 2.4451,0.489 2.4044,-0.489 1.9558,-1.4474 0.9585,-1.9561 16.5449,-50.042"
       style="fill:#00559b;fill-opacity:1;fill-rule:evenodd;stroke:none"
       id="path8612"
       inkscape:connector-curvature="0" />
    <path
       d="m 1919.1479,-7149.984 c 43.2366,-10.8193 78.6491,31.9892 60.2704,72.3937 -22.8204,42.6864 -82.9278,37.124 -96.7016,-9.7191 l 57.3363,0 2.4247,-1.4669 1.467,-1.9357 0.489,-2.4247 -0.489,-2.4247 -1.9559,-1.956 -2.4247,-0.9584 -20.4162,-51.509"
       style="fill:#00559b;fill-opacity:1;fill-rule:evenodd;stroke:none"
       id="path8614"
       inkscape:connector-curvature="0" />
    <path
       d="m 1908.4712,-7145.6238 18.9491,47.1487 -47.1486,0 c 0,-19.1936 11.1249,-38.2038 28.1995,-47.1487"
       style="fill:#00559b;fill-opacity:1;fill-rule:nonzero;stroke:none"
       id="path8616"
       inkscape:connector-curvature="0" />
    <path
       d="m 1879.803,-7196.1547 -37.4296,97.6796 -83.5595,-93.2989 -0.4889,-0.489 0,-1.4475 0.4889,-1.4671 1.9357,-0.9779 119.0534,0"
       style="fill:#00559b;fill-opacity:1;fill-rule:evenodd;stroke:none"
       id="path8618"
       inkscape:connector-curvature="0" />
    <path
       d="m 1904.0905,-7157.7674 -13.5904,-34.0066 -2.4451,5.8274 -33.5175,87.4715 12.6328,0 c 0.5085,-25.4081 14.059,-47.7802 36.9202,-59.2923"
       style="fill:#00559b;fill-opacity:1;fill-rule:nonzero;stroke:none"
       id="path8620"
       inkscape:connector-curvature="0" />
    <rect
       style="opacity:1;fill:#ffd70a;fill-opacity:1;stroke:none;stroke-width:25;stroke-linejoin:miter;stroke-miterlimit:4;stroke-dasharray:none;stroke-dashoffset:0;stroke-opacity:1"
       id="rect4231"
       width="32"
       height="80"
       x="-2100.8237"
       y="-6767.7969"
       transform="scale(-1,1)" />
    <rect
       y="-6927.7969"
       x="-2100.8237"
       height="80"
       width="32"
       id="rect4251"
       style="opacity:1;fill:#ffd70a;fill-opacity:1;stroke:none;stroke-width:25;stroke-linejoin:miter;stroke-miterlimit:4;stroke-dasharray:none;stroke-dashoffset:0;stroke-opacity:1"
       transform="scale(-1,1)" />
    <rect
       y="-7087.7969"
       x="-2100.8237"
       height="80"
       width="32"
       id="rect4263"
       style="opacity:1;fill:#ffd70a;fill-opacity:1;stroke:none;stroke-width:25;stroke-linejoin:miter;stroke-miterlimit:4;stroke-dasharray:none;stroke-dashoffset:0;stroke-opacity:1"
       transform="scale(-1,1)" />
    <rect
       style="opacity:1;fill:#ffd70a;fill-opacity:1;stroke:none;stroke-width:25;stroke-linejoin:miter;stroke-miterlimit:4;stroke-dasharray:none;stroke-dashoffset:0;stroke-opacity:1"
       id="rect4265"
       width="32"
       height="80"
       x="-2100.8237"
       y="-7247.7969"
       transform="scale(-1,1)" />
  </g>
</svg>
