<?xml version="1.0" encoding="UTF-8" standalone="no"?>
<!-- Created with Inkscape (http://www.inkscape.org/) -->

<svg
   xmlns:dc="http://purl.org/dc/elements/1.1/"
   xmlns:cc="http://creativecommons.org/ns#"
   xmlns:rdf="http://www.w3.org/1999/02/22-rdf-syntax-ns#"
   xmlns:svg="http://www.w3.org/2000/svg"
   xmlns="http://www.w3.org/2000/svg"
   xmlns:sodipodi="http://sodipodi.sourceforge.net/DTD/sodipodi-0.dtd"
   xmlns:inkscape="http://www.inkscape.org/namespaces/inkscape"
   width="600"
   height="800"
   viewBox="0 0 600.00002 800.00008"
   id="svg2"
   version="1.1"
   inkscape:version="0.91 r13725"
   sodipodi:docname="11.svg">
  <defs
     id="defs4" />
  <sodipodi:namedview
     id="base"
     pagecolor="#ffffff"
     bordercolor="#666666"
     borderopacity="1.0"
     inkscape:pageopacity="0.0"
     inkscape:pageshadow="2"
     inkscape:zoom="0.57421876"
     inkscape:cx="389.06634"
     inkscape:cy="169.75679"
     inkscape:document-units="px"
     inkscape:current-layer="layer1"
     showgrid="false"
     fit-margin-top="0"
     fit-margin-left="0"
     fit-margin-right="0"
     fit-margin-bottom="0"
     units="px"
     inkscape:window-width="1920"
     inkscape:window-height="1057"
     inkscape:window-x="-8"
     inkscape:window-y="-8"
     inkscape:window-maximized="1" />
  <metadata
     id="metadata7">
    <rdf:RDF>
      <cc:Work
         rdf:about="">
        <dc:format>image/svg+xml</dc:format>
        <dc:type
           rdf:resource="http://purl.org/dc/dcmitype/StillImage" />
        <dc:title></dc:title>
      </cc:Work>
    </rdf:RDF>
  </metadata>
  <g
     inkscape:label="Layer 1"
     inkscape:groupmode="layer"
     id="layer1"
     transform="translate(583.87939,2200.1564)">
    <rect
       style="opacity:1;fill:#00559b;fill-opacity:1;stroke:none;stroke-width:2.4000001;stroke-linejoin:miter;stroke-miterlimit:4;stroke-dasharray:none;stroke-dashoffset:0;stroke-opacity:1"
       id="rect4182"
       width="600"
       height="800"
       x="-583.87939"
       y="-2200.1562" />
    <rect
       y="-2200.1562"
       x="-583.87939"
       height="800"
       width="600"
       id="rect4184"
       style="opacity:1;fill:#ffffff;fill-opacity:1;stroke:none;stroke-width:2.4000001;stroke-linejoin:miter;stroke-miterlimit:4;stroke-dasharray:none;stroke-dashoffset:0;stroke-opacity:1"
       rx="106.4"
       ry="106.4" />
    <rect
       ry="80"
       rx="80"
       style="opacity:1;fill:#00559b;fill-opacity:1;stroke:none;stroke-width:2.4000001;stroke-linejoin:miter;stroke-miterlimit:4;stroke-dasharray:none;stroke-dashoffset:0;stroke-opacity:1"
       id="rect4195"
       width="547.20007"
       height="747.20007"
       x="-557.47937"
       y="-2173.7563" />
    <path
       inkscape:connector-curvature="0"
       id="path31783"
       style="fill:#ffffff;fill-opacity:1;fill-rule:evenodd;stroke:none"
       d="m -249.49996,-2125.7567 c 52.2254,0.3693 94.74837,44.5972 92.00487,95.7185 -10.1706,105.5548 -114.45707,93.8116 -194.38427,89.3619 l 0,114.1196 -55.2,0 0,-299.2"
       sodipodi:nodetypes="cccccc" />
    <path
       style="opacity:1;fill:#00559b;fill-opacity:1;stroke:none;stroke-width:25;stroke-linejoin:miter;stroke-miterlimit:4;stroke-dasharray:none;stroke-dashoffset:0;stroke-opacity:1"
       d="m -351.87936,-1995.7567 102.01,0 c 21.052,0 38,-16.725 38,-37.5 0,-20.775 -16.948,-37.5 -38,-37.5 l -102.01,0 z"
       id="rect31810"
       inkscape:connector-curvature="0"
       sodipodi:nodetypes="cssscc" />
    <path
       d="m -392.86347,-1651.532 c 96.73168,45.0716 50.75035,185.2483 -53.92043,164.9868 -111.28684,-32.3081 -74.43014,-189.6039 39.44797,-170.2521 l 30.2407,-92.0452 1.29444,-3.2804 3.30804,-5.9269 5.26533,-5.2652 5.8992,-3.9145 6.56082,-1.9848 7.25005,-1.2967 24.31387,0 3.28041,1.2967 3.30813,1.9848 1.29444,3.2804 0,3.2806 -1.95833,3.3079 -2.64644,1.9583 -3.2804,0.6616 -24.31388,0 -5.26522,0.6351 -4.60363,2.6465 -3.2805,3.2805 -1.98472,4.6036 -7.88413,22.3566 0.66171,2.6188 1.32312,1.3233 1.95843,0.6615 159.74901,0 6.58834,-17.0913 0,-1.3233 -0.66151,-1.9561 -1.98473,-1.3232 -37.46322,-7.2225 -1.32322,-0.6615 0,-1.9849 1.98473,-2.6187 2.61889,-1.9849 67.73148,0 2.6188,0.6616 1.98482,1.9849 0.6616,2.6187 0,4.6037 -0.6616,2.6189 -1.98482,1.9847 -2.6188,0.6615 -10.53055,0 -1.95834,0.6617 -1.32321,1.9561 -7.24995,18.4146 24.34131,61.8045 c 73.741009,-23.349 137.888723,56.2913 101.886577,123.5817 -37.793947,72.4452 -145.772747,57.0631 -162.367907,-23.0183 l -36.13992,0 -5.95447,-0.6615 -5.23769,-2.6189 -4.60361,-3.942 -1.98483,-1.9849 -103.20969,-116.993 -9.17981,28.9175"
       style="fill:#ffffff;fill-opacity:1;fill-rule:evenodd;stroke:none"
       id="path8610"
       inkscape:connector-curvature="0" />
    <path
       d="m -398.1287,-1635.1021 c 77.9035,39.4202 34.98221,152.3336 -49.3169,130.1699 -83.94057,-30.158 -51.88052,-149.7149 34.84434,-134.7737 l -22.3565,67.7039 0,3.9421 1.32313,2.6463 2.61888,2.6189 3.30805,0.6616 3.25287,-0.6616 2.64623,-1.9583 1.29683,-2.6464 22.38413,-67.7039"
       style="fill:#00559b;fill-opacity:1;fill-rule:evenodd;stroke:none"
       id="path8612"
       inkscape:connector-curvature="0" />
    <path
       d="m -159.51131,-1639.0442 c 58.4966,-14.6379 106.407588,43.2796 81.542429,97.9445 -30.874689,57.7522 -112.196549,50.2265 -130.831599,-13.1494 l 77.5726,0 3.2805,-1.9847 1.98482,-2.6189 0.66161,-3.2804 -0.66161,-3.2805 -2.64634,-2.6463 -3.2805,-1.2967 -27.62191,-69.6887"
       style="fill:#00559b;fill-opacity:1;fill-rule:evenodd;stroke:none"
       id="path8614"
       inkscape:connector-curvature="0" />
    <path
       d="m -173.95615,-1633.145 25.637,63.7894 -63.78937,0 c 0,-25.9678 15.05137,-51.6876 38.15237,-63.7894"
       style="fill:#00559b;fill-opacity:1;fill-rule:nonzero;stroke:none"
       id="path8616"
       inkscape:connector-curvature="0" />
    <path
       d="m -212.74259,-1701.5104 -50.64002,132.1548 -113.0511,-126.228 -0.66152,-0.6616 0,-1.9583 0.66152,-1.9849 2.6188,-1.3231 161.07232,0"
       style="fill:#00559b;fill-opacity:1;fill-rule:evenodd;stroke:none"
       id="path8618"
       inkscape:connector-curvature="0" />
    <path
       d="m -179.88308,-1649.5747 -18.38695,-46.0089 -3.30804,7.8841 -45.34725,118.3439 17.09146,0 c 0.688,-34.3757 19.02093,-64.6439 49.95078,-80.2191"
       style="fill:#00559b;fill-opacity:1;fill-rule:nonzero;stroke:none"
       id="path8620"
       inkscape:connector-curvature="0" />
  </g>
</svg>
