<?xml version="1.0" encoding="UTF-8" standalone="no"?>
<!-- Created with Inkscape (http://www.inkscape.org/) -->

<svg
   xmlns:dc="http://purl.org/dc/elements/1.1/"
   xmlns:cc="http://creativecommons.org/ns#"
   xmlns:rdf="http://www.w3.org/1999/02/22-rdf-syntax-ns#"
   xmlns:svg="http://www.w3.org/2000/svg"
   xmlns="http://www.w3.org/2000/svg"
   xmlns:sodipodi="http://sodipodi.sourceforge.net/DTD/sodipodi-0.dtd"
   xmlns:inkscape="http://www.inkscape.org/namespaces/inkscape"
   width="600"
   height="800"
   viewBox="0 0 600.00002 800.00008"
   id="svg2"
   version="1.1"
   inkscape:version="0.91 r13725"
   sodipodi:docname="11.svg">
  <defs
     id="defs4" />
  <sodipodi:namedview
     id="base"
     pagecolor="#ffffff"
     bordercolor="#666666"
     borderopacity="1.0"
     inkscape:pageopacity="0.0"
     inkscape:pageshadow="2"
     inkscape:zoom="0.57421876"
     inkscape:cx="14.040837"
     inkscape:cy="255.99356"
     inkscape:document-units="px"
     inkscape:current-layer="layer1"
     showgrid="false"
     fit-margin-top="0"
     fit-margin-left="0"
     fit-margin-right="0"
     fit-margin-bottom="0"
     units="px"
     inkscape:window-width="1920"
     inkscape:window-height="1057"
     inkscape:window-x="-8"
     inkscape:window-y="-8"
     inkscape:window-maximized="1" />
  <metadata
     id="metadata7">
    <rdf:RDF>
      <cc:Work
         rdf:about="">
        <dc:format>image/svg+xml</dc:format>
        <dc:type
           rdf:resource="http://purl.org/dc/dcmitype/StillImage" />
        <dc:title></dc:title>
      </cc:Work>
    </rdf:RDF>
  </metadata>
  <g
     inkscape:label="Layer 1"
     inkscape:groupmode="layer"
     id="layer1"
     transform="translate(979.87976,1804.1563)">
    <rect
       style="opacity:1;fill:#00559b;fill-opacity:1;stroke:none;stroke-width:2.4000001;stroke-linejoin:miter;stroke-miterlimit:4;stroke-dasharray:none;stroke-dashoffset:0;stroke-opacity:1"
       id="rect4182"
       width="600"
       height="800"
       x="-979.87976"
       y="-1804.1562" />
    <rect
       y="-1804.1562"
       x="-979.87976"
       height="800"
       width="600"
       id="rect4184"
       style="opacity:1;fill:#ffffff;fill-opacity:1;stroke:none;stroke-width:2.4000001;stroke-linejoin:miter;stroke-miterlimit:4;stroke-dasharray:none;stroke-dashoffset:0;stroke-opacity:1"
       rx="106.4"
       ry="106.4" />
    <rect
       ry="80"
       rx="80"
       style="opacity:1;fill:#00559b;fill-opacity:1;stroke:none;stroke-width:2.4000001;stroke-linejoin:miter;stroke-miterlimit:4;stroke-dasharray:none;stroke-dashoffset:0;stroke-opacity:1"
       id="rect4195"
       width="547.20007"
       height="747.20007"
       x="-953.47974"
       y="-1777.7563" />
    <path
       inkscape:connector-curvature="0"
       id="path31783"
       style="fill:#ffffff;fill-opacity:1;fill-rule:evenodd;stroke:none"
       d="m -645.50036,-1729.7563 c 52.2254,0.3693 94.74837,44.5972 92.00487,95.7185 -10.1706,105.5548 -114.45707,93.8116 -194.38427,89.3619 l 0,114.1196 -55.2,0 0,-299.2"
       sodipodi:nodetypes="cccccc" />
    <path
       style="opacity:1;fill:#00559b;fill-opacity:1;stroke:none;stroke-width:25;stroke-linejoin:miter;stroke-miterlimit:4;stroke-dasharray:none;stroke-dashoffset:0;stroke-opacity:1"
       d="m -747.87976,-1599.7563 102.01,0 c 21.052,0 38,-16.725 38,-37.5 0,-20.775 -16.948,-37.5 -38,-37.5 l -102.01,0 z"
       id="rect31810"
       inkscape:connector-curvature="0"
       sodipodi:nodetypes="cssscc" />
    <path
       d="m -819.56022,-1199.7192 c 3.81565,-25.772 -13.4551,-48.0284 -39.99557,-42.3063 l 28.81653,-58.2383 -27.24483,0 c -8.93519,27.6464 -70.65441,98.3356 -25.60342,132.4753 25.93814,20.1839 64.19606,0.5623 64.02729,-31.9307"
       style="fill:#ffffff;fill-opacity:1;fill-rule:nonzero;stroke:none"
       id="path6980"
       inkscape:connector-curvature="0" />
    <path
       d="m -714.73135,-1198.9159 0,-64.6645 -0.77649,-8.7692 -3.21312,-7.966 -4.78491,-7.1947 -6.42634,-6.3941 -8.00064,-3.9817 -7.99813,-3.2132 c -26.44153,-4.9214 -46.82627,12.684 -48.83453,39.1255 l 0,63.0579 0.8033,0.8033 0.80331,8.7692 3.21312,8.8041 4.78771,7.1626 6.39143,5.5882 8.00074,4.7875 7.99803,3.2133 c 23.09456,4.2172 49.43696,-13.1204 48.03112,-39.1282"
       style="fill:#ffffff;fill-opacity:1;fill-rule:nonzero;stroke:none"
       id="path6982"
       inkscape:connector-curvature="0" />
    <path
       d="m -537.40587,-1239.8835 13.76022,0 0,-13.7174 -13.76022,0 0,13.7174 z"
       style="fill:#ffffff;fill-opacity:1;fill-rule:nonzero;stroke:none"
       id="path6986"
       inkscape:connector-curvature="0" />
    <path
       d="m -537.40587,-1160.0904 13.76022,0 0,-66.0996 -13.76022,0 0,66.0996 z"
       style="fill:#ffffff;fill-opacity:1;fill-rule:nonzero;stroke:none"
       id="path6988"
       inkscape:connector-curvature="0" />
    <path
       d="m -579.9131,-1214.9468 5.02051,1.2317 c 1.49947,0.5088 4.05124,2.3296 4.98839,3.7487 0.88364,1.2853 1.09782,2.8115 2.51696,3.7165 l 0,46.1542 13.75502,0 0,-42.4055 c 0,-6.8627 -3.21312,-11.3799 -6.25758,-17.4393 l -3.74882,-3.7487 c -1.82069,-0.9103 -8.33536,-3.7487 -10.0089,-3.7487 l -11.24597,0 c -1.90112,0 -12.48303,7.0636 -13.75491,8.7371 -1.63332,-4.6858 -4.78752,-3.9173 -7.49735,-7.4973 -2.51705,0.6426 -4.15037,-1.2318 -4.98849,-1.2318 l -10.0062,0 c -5.08753,0 -9.10395,4.1183 -12.51785,7.4974 l 0,-7.4974 -13.75762,0 0,67.3422 13.75762,0 0,-41.1336 c 0,-1.0978 -0.2678,-2.7793 0,-3.7487 0.66936,-2.6776 6.19065,-7.8989 8.76913,-8.737 1.87441,-0.6426 2.24925,0.6694 4.98579,-1.2318 l 5.02051,1.2318 c 1.71365,2.5437 3.54784,0.8568 5.82381,5.39 l 1.66023,3.347 0,44.8823 13.75762,0 0,-41.1336 c 0,-7.1626 6.5922,-13.7228 13.7227,-13.7228"
       style="fill:#ffffff;fill-opacity:1;fill-rule:evenodd;stroke:none"
       id="path6990"
       inkscape:connector-curvature="0" />
    <path
       d="m -476.12052,-1213.7097 3.74872,0 3.74873,1.2317 c 0.93715,2.6509 3.07927,4.3511 4.98569,6.2254 l 0,46.1542 13.75762,0 0,-47.3938 c -2.54377,-7.7304 -3.98431,-12.6518 -8.73712,-16.1997 -1.23166,-0.9371 -2.77665,-1.0442 -3.74862,-2.5169 -2.51695,0.6426 -4.15027,-1.2318 -5.0205,-1.2318 l -10.0064,0 c -0.83001,0 -2.49014,1.8744 -4.98839,1.2318 -1.90112,2.5437 -5.18657,3.9146 -7.49735,6.2575 l 0,-7.4973 -13.75492,0 0,67.3421 13.75492,0 0,-44.8822 c 0.2678,-0.2678 6.0595,-7.2965 7.49735,-8.7371 l 6.26027,0"
       style="fill:#ffffff;fill-opacity:1;fill-rule:evenodd;stroke:none"
       id="path6992"
       inkscape:connector-curvature="0" />
    <path
       d="m -843.55712,-1199.7192 c 3.6818,-26.3076 -30.19006,-29.4191 -32.03225,-6.3914 -4.65117,26.4067 30.15794,31.0926 32.03225,6.3914"
       style="fill:#00559b;fill-opacity:1;fill-rule:nonzero;stroke:none"
       id="path6994"
       inkscape:connector-curvature="0" />
    <path
       d="m -770.7605,-1198.9159 c 3.41389,11.0452 6.49316,16.2666 19.2467,15.1634 l 4.78481,-1.6066 4.78772,-3.181 2.40982,-4.7849 0.8033,-5.5909 0,-63.0579 -0.8033,-5.5882 -2.40982,-4.7876 -3.98441,-3.1784 -5.58812,-2.4099 -5.62303,0 -4.78762,2.4099 -4.81963,3.1784 -2.40991,4.7876 -1.60651,5.5882 0,63.0579"
       style="fill:#00559b;fill-opacity:1;fill-rule:evenodd;stroke:none"
       id="path6996"
       inkscape:connector-curvature="0" />
  </g>
</svg>
