<?xml version="1.0" encoding="UTF-8" standalone="no"?>
<!-- Created with Inkscape (http://www.inkscape.org/) -->

<svg
   width="600"
   height="800"
   viewBox="0 0 600.00002 800.00008"
   id="svg2"
   version="1.1"
   inkscape:version="1.4.2 (f4327f4, 2025-05-13)"
   sodipodi:docname="SADC_road_sign_R307-P.svg"
   xmlns:inkscape="http://www.inkscape.org/namespaces/inkscape"
   xmlns:sodipodi="http://sodipodi.sourceforge.net/DTD/sodipodi-0.dtd"
   xmlns="http://www.w3.org/2000/svg"
   xmlns:svg="http://www.w3.org/2000/svg"
   xmlns:rdf="http://www.w3.org/1999/02/22-rdf-syntax-ns#"
   xmlns:cc="http://creativecommons.org/ns#"
   xmlns:dc="http://purl.org/dc/elements/1.1/">
  <defs
     id="defs4" />
  <sodipodi:namedview
     id="base"
     pagecolor="#ffffff"
     bordercolor="#666666"
     borderopacity="1.0"
     inkscape:pageopacity="0.0"
     inkscape:pageshadow="2"
     inkscape:zoom="0.40603398"
     inkscape:cx="563.99221"
     inkscape:cy="187.17645"
     inkscape:document-units="px"
     inkscape:current-layer="layer1"
     showgrid="false"
     fit-margin-top="0"
     fit-margin-left="0"
     fit-margin-right="0"
     fit-margin-bottom="0"
     units="px"
     inkscape:window-width="1920"
     inkscape:window-height="991"
     inkscape:window-x="-9"
     inkscape:window-y="-9"
     inkscape:window-maximized="1"
     inkscape:showpageshadow="2"
     inkscape:pagecheckerboard="0"
     inkscape:deskcolor="#d1d1d1" />
  <metadata
     id="metadata7">
    <rdf:RDF>
      <cc:Work
         rdf:about="">
        <dc:format>image/svg+xml</dc:format>
        <dc:type
           rdf:resource="http://purl.org/dc/dcmitype/StillImage" />
        <dc:title />
      </cc:Work>
    </rdf:RDF>
  </metadata>
  <g
     inkscape:label="Layer 1"
     inkscape:groupmode="layer"
     id="layer1"
     transform="translate(847.87964,1936.1566)">
    <rect
       style="opacity:1;fill:#00559b;fill-opacity:1;stroke:none;stroke-width:2.4000001;stroke-linejoin:miter;stroke-miterlimit:4;stroke-dasharray:none;stroke-dashoffset:0;stroke-opacity:1"
       id="rect4182"
       width="600"
       height="800"
       x="-847.87964"
       y="-1936.1565" />
    <rect
       y="-1936.1565"
       x="-847.87964"
       height="800"
       width="600"
       id="rect4184"
       style="opacity:1;fill:#ffffff;fill-opacity:1;stroke:none;stroke-width:2.4000001;stroke-linejoin:miter;stroke-miterlimit:4;stroke-dasharray:none;stroke-dashoffset:0;stroke-opacity:1"
       rx="106.4"
       ry="106.4" />
    <rect
       ry="80"
       rx="80"
       style="opacity:1;fill:#00559b;fill-opacity:1;stroke:none;stroke-width:2.4000001;stroke-linejoin:miter;stroke-miterlimit:4;stroke-dasharray:none;stroke-dashoffset:0;stroke-opacity:1"
       id="rect4195"
       width="547.20007"
       height="747.20007"
       x="-821.47961"
       y="-1909.7566" />
    <path
       id="path235"
       style="fill:#ffffff;fill-opacity:1;fill-rule:evenodd;stroke-width:1.09146;stroke-linecap:round;stroke-linejoin:round;stroke-miterlimit:5.6;stroke-dasharray:1.09146, 8.73168;paint-order:stroke fill markers"
       d="m -586.50345,-1513.3837 c -15.2525,0 -27.60749,11.9663 -28.22706,27.0613 h 18.97205 c 3.56953,0 6.44324,2.8737 6.44324,6.4433 0,3.5694 -2.87371,6.4431 -6.44324,6.4431 h -13.35842 c -3.12363,0 -5.63846,2.5149 -5.63846,5.6386 v 3.845 14.8057 h 5.63515 5.83551 c 8.15686,-12.8461 22.40921,-19.8297 36.77499,-19.1905 5.71577,0.2542 11.47437,1.7137 16.83589,4.4245 1.88521,-4.3709 2.93271,-9.2121 2.93266,-14.3072 0,-17.2012 -17.19381,-35.1635 -38.0065,-35.1638 z m 19.50525,56.0351 c -10.7743,-0.4792 -21.43629,4.8186 -27.4024,14.7478 l -4.02392,6.6966 -45.74021,76.3287 c 11.18088,5.6799 24.98782,1.9417 31.60681,-8.7102 l 18.82633,-30.3003 13.57535,-22.5953 67.76415,40.7178 21.46587,-35.4452 -61.73986,-37.098 c -4.5133,-2.7118 -9.43469,-4.124 -14.33212,-4.3419 z m -64.16911,43.4767 c -1.03906,0.01 -2.04537,0.3648 -2.8598,1.0101 l -46.92587,37.2304 h -21.94279 c -2.18664,0 -3.94777,8.2396 -3.94777,18.4736 0,10.2339 1.76113,18.4719 3.94777,18.4719 0,0 6.8906,-3.7361 10.46054,-5.3453 3.17174,-1.4298 8.20134,-3.4095 11.2587,-3.7259 v 9.8164 c -27.97191,7.3955 -47.456,32.7008 -47.45577,61.6338 4.9e-4,35.208 28.54212,63.7497 63.75017,63.7502 29.84063,1e-4 55.68867,-20.6994 62.21015,-49.8187 h 7.93358 c -1.85216,9.3237 -5.52646,18.0032 -10.63276,25.6504 h 73.94244 50.5772 c 12.09175,15.2661 30.49811,24.1679 49.97279,24.1683 35.2087,4e-4 63.75134,-28.5415 63.75183,-63.7502 3.4e-4,-35.2093 -28.54255,-63.7521 -63.75183,-63.7517 -33.93554,6e-4 -61.9225,26.5856 -63.66571,60.4763 -0.81532,2.3482 -1.81364,4.763 -2.87966,6.3075 -2.3113,3.3485 -5.52131,6.276 -9.19044,8.0345 -2.50718,1.2017 -6.23626,1.8311 -8.21343,1.4556 l -86.73288,-90.1308 h -53.4072 v -5.9514 l 27.86275,-46.9491 c 1.58435,-2.673 0.16673,-6.1191 -2.83992,-6.9036 -0.39886,-0.1045 -0.80979,-0.1557 -1.22209,-0.1523 z m 148.20945,2.8532 -21.17112,35.6538 h -61.61236 c -10.18383,0 -18.38086,8.1988 -18.38086,18.3826 0,4.9912 1.96955,9.5059 5.17645,12.8119 l 71.02965,73.2619 c 0.50595,-0.3976 0.99542,-0.8158 1.46716,-1.2535 9.53671,-8.8616 10.08313,-23.7768 1.22041,-33.3125 l -37.0035,-39.8236 h 73.54336 v -0.06 c 9.74049,0.6601 19.0269,-4.2039 24.03093,-12.5867 7.3439,-12.3034 3.32333,-28.2308 -8.98015,-35.5745 z m -181.92427,95.2808 c 2.90786,-10e-5 5.80681,0.3215 8.64397,0.9588 l -12.74738,25.4682 c -5.67346,1.7907 -9.53105,7.053 -9.53155,13.0024 -3.2e-4,7.5308 6.1042,13.636 13.63496,13.6365 7.53141,4e-4 13.63693,-6.1051 13.63661,-13.6365 -3.7e-4,-2.7798 -0.85028,-5.493 -2.43587,-7.7762 l 12.04692,-24.0707 c 10.17001,7.4234 16.1833,19.2574 16.18345,31.8485 7e-5,21.7772 -17.65387,39.4312 -39.43111,39.4312 -21.77724,0 -39.43118,-17.654 -39.43111,-39.4312 4e-5,-21.7772 17.65394,-39.431 39.43111,-39.431 z m 234.0034,0 c 21.77717,0 39.43108,17.6538 39.43112,39.431 7e-5,21.7772 -17.65387,39.4312 -39.43112,39.4312 -21.77724,0 -39.43116,-17.654 -39.43109,-39.4312 2.9e-4,-10.5429 4.2226,-20.6465 11.724,-28.0547 l 14.80406,23.645 c -0.48471,1.4191 -0.732,2.9085 -0.73193,4.4081 -3.2e-4,7.5308 6.1042,13.636 13.63496,13.6365 7.53141,4e-4 13.63695,-6.1051 13.63663,-13.6365 -4.1e-4,-7.4424 -5.96834,-13.5099 -13.40976,-13.6333 l -14.48115,-23.1301 c 4.54575,-1.7622 9.3789,-2.6662 14.25428,-2.666 z"
       sodipodi:nodetypes="scsssssccccccccsccccccccccccccssccccccccccccccccscccccccccsscccccccccccccccccccssccsscccccsccc" />
    <path
       id="rect2"
       style="opacity:1;fill:#ffffff;fill-rule:evenodd;stroke-width:1.886"
       d="m -671.07961,-1861.7562 v 299.1992 h 60.79883 v -111.6992 h 94.64614 c 51.9375,0 93.75,-41.8125 93.75,-93.75 0,-51.9375 -41.8125,-93.75 -93.75,-93.75 h -94.64614 -30.40039 z m 60.79883,60.5996 h 94.65005 c 18.3651,0 33.15039,14.7622 33.15039,33.0996 0,18.3374 -14.78529,33.0996 -33.15039,33.0996 h -94.65005 z"
       sodipodi:nodetypes="ccccsssccccssscc" />
  </g>
</svg>
