<?xml version="1.0" encoding="UTF-8" standalone="no"?>
<!-- Created with Inkscape (http://www.inkscape.org/) -->

<svg
   xmlns:dc="http://purl.org/dc/elements/1.1/"
   xmlns:cc="http://creativecommons.org/ns#"
   xmlns:rdf="http://www.w3.org/1999/02/22-rdf-syntax-ns#"
   xmlns:svg="http://www.w3.org/2000/svg"
   xmlns="http://www.w3.org/2000/svg"
   xmlns:sodipodi="http://sodipodi.sourceforge.net/DTD/sodipodi-0.dtd"
   xmlns:inkscape="http://www.inkscape.org/namespaces/inkscape"
   width="600"
   height="800"
   viewBox="0 0 600.00002 800.00008"
   id="svg2"
   version="1.1"
   inkscape:version="0.91 r13725"
   sodipodi:docname="11.svg">
  <defs
     id="defs4" />
  <sodipodi:namedview
     id="base"
     pagecolor="#ffffff"
     bordercolor="#666666"
     borderopacity="1.0"
     inkscape:pageopacity="0.0"
     inkscape:pageshadow="2"
     inkscape:zoom="0.81206796"
     inkscape:cx="249.86819"
     inkscape:cy="398.99704"
     inkscape:document-units="px"
     inkscape:current-layer="layer1"
     showgrid="false"
     fit-margin-top="0"
     fit-margin-left="0"
     fit-margin-right="0"
     fit-margin-bottom="0"
     units="px"
     inkscape:window-width="1920"
     inkscape:window-height="1057"
     inkscape:window-x="-8"
     inkscape:window-y="-8"
     inkscape:window-maximized="1" />
  <metadata
     id="metadata7">
    <rdf:RDF>
      <cc:Work
         rdf:about="">
        <dc:format>image/svg+xml</dc:format>
        <dc:type
           rdf:resource="http://purl.org/dc/dcmitype/StillImage" />
        <dc:title></dc:title>
      </cc:Work>
    </rdf:RDF>
  </metadata>
  <g
     inkscape:label="Layer 1"
     inkscape:groupmode="layer"
     id="layer1"
     transform="translate(821.47961,1962.5566)">
    <rect
       style="opacity:1;fill:#00559b;fill-opacity:1;stroke:none;stroke-width:2.4000001;stroke-linejoin:miter;stroke-miterlimit:4;stroke-dasharray:none;stroke-dashoffset:0;stroke-opacity:1"
       id="rect4182"
       width="600"
       height="800"
       x="-821.47961"
       y="-1962.5565" />
    <rect
       y="-1962.5565"
       x="-821.47961"
       height="800"
       width="600"
       id="rect4184"
       style="opacity:1;fill:#ffffff;fill-opacity:1;stroke:none;stroke-width:2.4000001;stroke-linejoin:miter;stroke-miterlimit:4;stroke-dasharray:none;stroke-dashoffset:0;stroke-opacity:1"
       rx="106.4"
       ry="106.4" />
    <rect
       ry="80"
       rx="80"
       style="opacity:1;fill:#00559b;fill-opacity:1;stroke:none;stroke-width:2.4000001;stroke-linejoin:miter;stroke-miterlimit:4;stroke-dasharray:none;stroke-dashoffset:0;stroke-opacity:1"
       id="rect4195"
       width="547.20007"
       height="747.20007"
       x="-795.07959"
       y="-1936.1566" />
    <path
       inkscape:connector-curvature="0"
       id="path31783"
       style="fill:#ffffff;fill-opacity:1;fill-rule:evenodd;stroke:none"
       d="m -487.10018,-1888.1566 c 52.2254,0.3693 94.74837,44.5972 92.00487,95.7185 -10.1706,105.5548 -114.45707,93.8116 -194.38427,89.3619 l 0,114.1196 -55.2,0 0,-299.2"
       sodipodi:nodetypes="cccccc" />
    <path
       style="opacity:1;fill:#00559b;fill-opacity:1;stroke:none;stroke-width:25;stroke-linejoin:miter;stroke-miterlimit:4;stroke-dasharray:none;stroke-dashoffset:0;stroke-opacity:1"
       d="m -589.47958,-1758.1566 102.01,0 c 21.052,0 38,-16.725 38,-37.5 0,-20.775 -16.948,-37.5 -38,-37.5 l -102.01,0 z"
       id="rect31810"
       inkscape:connector-curvature="0"
       sodipodi:nodetypes="cssscc" />
    <path
       inkscape:connector-curvature="0"
       id="path13379"
       style="fill:#ffffff;fill-opacity:1;fill-rule:evenodd;stroke:none"
       d="m -583.32407,-1466.1598 -51.4635,44.3609 -121.513,18.5836 -4.2874,1.4387 -4.2851,2.8475 -2.8774,4.2863 -0.6954,2.1868 c -5.8748,24.0988 -3.4458,36.1782 9.2918,56.5003 l -4.3136,3.6065 87.2261,0 0,8.5476 c 0,0 378.8609,-8e-4 378.8609,0 21.552,-20.8317 30.5441,-55.5259 23.5903,-84.4205 l -2.1581,-0.7194 -1.4388,0 -62.9157,-60.097 -6.4217,-5.0056 -7.1623,-2.8775 -6.4143,-0.6882 -7.8843,-0.7481 -25.7175,-2.1293 -42.1716,-0.7194 -42.1741,0 -42.891,2.1581 -42.174,4.2862 -5.7237,1.4388 -7.8531,2.8475 -6.4455,4.3162"
       sodipodi:nodetypes="cccccccccccccccccccccccccccc" />
    <path
       inkscape:connector-curvature="0"
       id="path13381"
       style="fill:#00559b;fill-opacity:1;fill-rule:nonzero;stroke:none"
       d="m -473.94687,-1466.8728 4.2851,0.7194 2.8774,2.1581 2.134,3.5669 0,4.2862 -7.1649,34.3497 -1.4146,3.5669 -2.8775,2.8475 -3.568,0.7193 -107.9338,0 -3.5681,-0.7193 -3.5968,-2.8475 -2.1341,-3.5669 0,-3.5968 1.4388,-4.2862 1.4387,-1.4388 c 43.3418,-44.0611 58.2375,-30.6629 120.0743,-35.7585" />
    <path
       inkscape:connector-curvature="0"
       id="path13383"
       style="fill:#00559b;fill-opacity:1;fill-rule:nonzero;stroke:none"
       d="m -389.58307,-1465.4393 3.5659,0 6.446,2.1294 5.0048,4.2866 26.4389,22.9017 2.1582,4.3166 c 2.7579,9.0827 -2.1823,16.0371 -11.4507,17.1462 l -90.0769,0 -4.2876,-0.7194 -2.8466,-2.1295 -2.1343,-3.5971 0,-4.2866 5.6955,-32.9136 1.4388,-4.2866 2.8488,-2.8477 4.2855,-0.7195 42.8968,0 10.0121,0.7195" />
    <ellipse
       cy="-1334.0865"
       cx="-681.72015"
       id="circle13389"
       style="opacity:1;fill:#00559b;fill-opacity:1;stroke:none;stroke-width:2.4000001;stroke-linejoin:miter;stroke-miterlimit:4;stroke-dasharray:none;stroke-dashoffset:0;stroke-opacity:1"
       rx="55.950001"
       ry="55.950005" />
    <ellipse
       cy="-1334.0865"
       cx="-681.72015"
       id="circle13391"
       style="opacity:1;fill:#ffffff;fill-opacity:1;stroke:none;stroke-width:2.4000001;stroke-linejoin:miter;stroke-miterlimit:4;stroke-dasharray:none;stroke-dashoffset:0;stroke-opacity:1"
       rx="37.380001"
       ry="37.380005" />
    <ellipse
       style="opacity:1;fill:#00559b;fill-opacity:1;stroke:none;stroke-width:2.4000001;stroke-linejoin:miter;stroke-miterlimit:4;stroke-dasharray:none;stroke-dashoffset:0;stroke-opacity:1"
       id="circle13411"
       cx="-353.02957"
       cy="-1334.0865"
       rx="55.950001"
       ry="55.950005" />
    <ellipse
       style="opacity:1;fill:#ffffff;fill-opacity:1;stroke:none;stroke-width:2.4000001;stroke-linejoin:miter;stroke-miterlimit:4;stroke-dasharray:none;stroke-dashoffset:0;stroke-opacity:1"
       id="circle13413"
       cx="-353.02957"
       cy="-1334.0865"
       rx="37.380001"
       ry="37.380005" />
  </g>
</svg>
