<?xml version="1.0" encoding="UTF-8" standalone="no"?>
<!-- Created with Inkscape (http://www.inkscape.org/) -->

<svg
   xmlns:dc="http://purl.org/dc/elements/1.1/"
   xmlns:cc="http://creativecommons.org/ns#"
   xmlns:rdf="http://www.w3.org/1999/02/22-rdf-syntax-ns#"
   xmlns:svg="http://www.w3.org/2000/svg"
   xmlns="http://www.w3.org/2000/svg"
   xmlns:sodipodi="http://sodipodi.sourceforge.net/DTD/sodipodi-0.dtd"
   xmlns:inkscape="http://www.inkscape.org/namespaces/inkscape"
   width="600"
   height="800"
   viewBox="0 0 600.00001 800.00003"
   id="svg2"
   version="1.1"
   inkscape:version="0.91 r13725"
   sodipodi:docname="33.svg">
  <defs
     id="defs4">
    <pattern
       y="0"
       x="0"
       height="6"
       width="6"
       patternUnits="userSpaceOnUse"
       id="EMFhbasepattern" />
    <pattern
       y="0"
       x="0"
       height="6"
       width="6"
       patternUnits="userSpaceOnUse"
       id="EMFhbasepattern-6" />
    <pattern
       y="0"
       x="0"
       height="6"
       width="6"
       patternUnits="userSpaceOnUse"
       id="EMFhbasepattern-3" />
    <pattern
       y="0"
       x="0"
       height="6"
       width="6"
       patternUnits="userSpaceOnUse"
       id="EMFhbasepattern-0" />
    <pattern
       y="0"
       x="0"
       height="6"
       width="6"
       patternUnits="userSpaceOnUse"
       id="EMFhbasepattern-2" />
    <pattern
       y="0"
       x="0"
       height="6"
       width="6"
       patternUnits="userSpaceOnUse"
       id="EMFhbasepattern-65" />
    <pattern
       y="0"
       x="0"
       height="6"
       width="6"
       patternUnits="userSpaceOnUse"
       id="EMFhbasepattern-28" />
    <pattern
       y="0"
       x="0"
       height="6"
       width="6"
       patternUnits="userSpaceOnUse"
       id="EMFhbasepattern-5" />
    <pattern
       y="0"
       x="0"
       height="6"
       width="6"
       patternUnits="userSpaceOnUse"
       id="EMFhbasepattern-7" />
  </defs>
  <sodipodi:namedview
     id="base"
     pagecolor="#ffffff"
     bordercolor="#666666"
     borderopacity="1.0"
     inkscape:pageopacity="0.0"
     inkscape:pageshadow="2"
     inkscape:zoom="0.64"
     inkscape:cx="528.72826"
     inkscape:cy="358.87217"
     inkscape:document-units="px"
     inkscape:current-layer="layer1"
     showgrid="false"
     fit-margin-top="0"
     fit-margin-left="0"
     fit-margin-right="0"
     fit-margin-bottom="0"
     units="px"
     inkscape:window-width="1920"
     inkscape:window-height="1057"
     inkscape:window-x="-8"
     inkscape:window-y="-8"
     inkscape:window-maximized="1"
     showguides="false" />
  <metadata
     id="metadata7">
    <rdf:RDF>
      <cc:Work
         rdf:about="">
        <dc:format>image/svg+xml</dc:format>
        <dc:type
           rdf:resource="http://purl.org/dc/dcmitype/StillImage" />
        <dc:title></dc:title>
      </cc:Work>
    </rdf:RDF>
  </metadata>
  <g
     inkscape:label="Layer 1"
     inkscape:groupmode="layer"
     id="layer1"
     transform="translate(-515.00005,2950.0813)">
    <rect
       style="opacity:1;fill:#00559b;fill-opacity:1;stroke:none;stroke-width:2.4000001;stroke-linejoin:miter;stroke-miterlimit:4;stroke-dasharray:none;stroke-dashoffset:0;stroke-opacity:1"
       id="rect4182"
       width="600"
       height="800"
       x="515.00006"
       y="-2950.0813" />
    <rect
       y="-2950.0813"
       x="515.00006"
       height="800"
       width="600"
       id="rect4184"
       style="opacity:1;fill:#ffffff;fill-opacity:1;stroke:none;stroke-width:2.4000001;stroke-linejoin:miter;stroke-miterlimit:4;stroke-dasharray:none;stroke-dashoffset:0;stroke-opacity:1"
       rx="106.4"
       ry="106.4" />
    <rect
       ry="80"
       rx="80"
       style="opacity:1;fill:#00559b;fill-opacity:1;stroke:none;stroke-width:2.4000001;stroke-linejoin:miter;stroke-miterlimit:4;stroke-dasharray:none;stroke-dashoffset:0;stroke-opacity:1"
       id="rect4195"
       width="547.20007"
       height="747.20007"
       x="541.40002"
       y="-2923.6812" />
    <path
       style="fill:#ffffff;fill-opacity:1;fill-rule:nonzero;stroke:none"
       d="m 695.80003,-2523.6814 140.78914,0 c 98.64029,1.9085 129.65479,131.8318 41.58789,177.1367 L 935,-2224.4813 l -64.0099,0 -52.81006,-111.7001 -61.58001,0 0,111.7001 -60.8,0 z"
       id="path6490"
       inkscape:connector-curvature="0"
       sodipodi:nodetypes="cccccccccc" />
    <path
       style="opacity:1;fill:#00559b;fill-opacity:1;stroke:none;stroke-width:25;stroke-linejoin:miter;stroke-miterlimit:4;stroke-dasharray:none;stroke-dashoffset:0;stroke-opacity:1"
       d="m 756.60003,-2396.8814 79.65002,0 c 18.3651,0 33.15,-14.7626 33.15,-33.1 0,-18.3374 -14.7849,-33.1 -33.15,-33.1 l -79.65002,0 z"
       id="rect13342"
       inkscape:connector-curvature="0"
       sodipodi:nodetypes="cssscc" />
    <path
       style="fill:#ffffff;fill-opacity:1;fill-rule:nonzero;stroke:none"
       d="m 840.33715,-2873.6814 4.7838,21.324 63.2859,0 6.0653,0.6117 5.4793,1.8112 5.4813,3.6701 3.6443,4.8419 3.0583,5.507 40.1466,110.1398 3.6701,4.2579 3.6443,6.6769 2.4229,6.7047 1.2233,7.9022 0,43.8147 -1.2233,4.2579 -1.835,3.6443 -3.6206,2.4467 -4.2678,1.2194 -1.8539,0 0,71.1696 -38.3105,0 0,-46.2119 c -38.7877,5.8609 -77.9562,8.5757 -117.1321,8.4783 -39.176,0.097 -78.3444,-2.6174 -117.1321,-8.4783 l 0,46.2119 -38.3105,0 0,-71.1696 -1.8539,0 -4.2679,-1.2194 -3.6205,-2.4467 -1.835,-3.6443 -1.2234,-4.2579 0,-43.8147 1.2234,-7.9022 2.4229,-6.7047 3.6443,-6.6769 3.67,-4.2579 40.1467,-110.1398 3.0583,-5.507 3.6443,-4.8419 5.4813,-3.6701 5.4793,-1.8112 6.0652,-0.6117 63.286,0 4.7837,-21.324 z"
       id="path13364"
       inkscape:connector-curvature="0"
       sodipodi:nodetypes="cccccccccccccccccccccccccccccccccccccccccccccc" />
    <path
       style="fill:#00559b;fill-opacity:1;fill-rule:evenodd;stroke:none"
       d="m 719.00855,-2838.5733 0.01,0 -3.6522,0.6117 -3.678,1.839 -1.8172,3.6502 -0.6136,0.6136 -24.9974,67.6349 261.4865,0 -24.9974,-67.6349 -0.6136,-0.6136 -1.8172,-3.6502 -3.678,-1.839 -3.6522,-0.6117 0.01,0 -191.9816,0 z"
       id="path13366"
       inkscape:connector-curvature="0"
       sodipodi:nodetypes="cccccccccccccccc" />
    <path
       style="fill:#00559b;fill-opacity:1;fill-rule:nonzero;stroke:none"
       d="m 721.16415,-2714.1544 8.7,35.2703 -60.8108,0 0,-35.2703 z"
       id="path13368"
       inkscape:connector-curvature="0"
       sodipodi:nodetypes="ccccc" />
    <path
       style="fill:#00559b;fill-opacity:1;fill-rule:evenodd;stroke:none"
       d="m 892.12775,-2688.8165 -3.75,15.2027 72.5676,0 0,4.8648 -291.8919,0 0,-4.8648 72.5675,0 -3.75,-15.2027 z"
       id="path13372"
       inkscape:connector-curvature="0"
       sodipodi:nodetypes="ccccccccc" />
    <path
       sodipodi:nodetypes="ccccc"
       inkscape:connector-curvature="0"
       id="path13402"
       d="m 908.83445,-2714.1544 -8.7,35.2703 60.8109,0 0,-35.2703 z"
       style="fill:#00559b;fill-opacity:1;fill-rule:nonzero;stroke:none" />
    <ellipse
       style="opacity:1;fill:#ffffff;fill-opacity:1;stroke:none;stroke-width:2.4000001;stroke-linejoin:miter;stroke-miterlimit:4;stroke-dasharray:none;stroke-dashoffset:0;stroke-opacity:1"
       id="path13416"
       cx="745.67493"
       cy="-2759.1545"
       rx="25.337837"
       ry="25.337839" />
  </g>
</svg>
