<?xml version="1.0" encoding="UTF-8" standalone="no"?>
<!-- Created with Inkscape (http://www.inkscape.org/) -->

<svg
   xmlns:dc="http://purl.org/dc/elements/1.1/"
   xmlns:cc="http://creativecommons.org/ns#"
   xmlns:rdf="http://www.w3.org/1999/02/22-rdf-syntax-ns#"
   xmlns:svg="http://www.w3.org/2000/svg"
   xmlns="http://www.w3.org/2000/svg"
   xmlns:sodipodi="http://sodipodi.sourceforge.net/DTD/sodipodi-0.dtd"
   xmlns:inkscape="http://www.inkscape.org/namespaces/inkscape"
   width="600"
   height="800"
   viewBox="0 0 600.00001 800.00002"
   id="svg2"
   version="1.1"
   inkscape:version="0.91 r13725"
   sodipodi:docname="33.svg">
  <defs
     id="defs4">
    <pattern
       y="0"
       x="0"
       height="6"
       width="6"
       patternUnits="userSpaceOnUse"
       id="EMFhbasepattern" />
    <pattern
       y="0"
       x="0"
       height="6"
       width="6"
       patternUnits="userSpaceOnUse"
       id="EMFhbasepattern-6" />
    <pattern
       y="0"
       x="0"
       height="6"
       width="6"
       patternUnits="userSpaceOnUse"
       id="EMFhbasepattern-3" />
    <pattern
       y="0"
       x="0"
       height="6"
       width="6"
       patternUnits="userSpaceOnUse"
       id="EMFhbasepattern-0" />
    <pattern
       y="0"
       x="0"
       height="6"
       width="6"
       patternUnits="userSpaceOnUse"
       id="EMFhbasepattern-2" />
    <pattern
       y="0"
       x="0"
       height="6"
       width="6"
       patternUnits="userSpaceOnUse"
       id="EMFhbasepattern-65" />
    <pattern
       y="0"
       x="0"
       height="6"
       width="6"
       patternUnits="userSpaceOnUse"
       id="EMFhbasepattern-28" />
    <pattern
       y="0"
       x="0"
       height="6"
       width="6"
       patternUnits="userSpaceOnUse"
       id="EMFhbasepattern-5" />
    <pattern
       y="0"
       x="0"
       height="6"
       width="6"
       patternUnits="userSpaceOnUse"
       id="EMFhbasepattern-7" />
  </defs>
  <sodipodi:namedview
     id="base"
     pagecolor="#ffffff"
     bordercolor="#666666"
     borderopacity="1.0"
     inkscape:pageopacity="0.0"
     inkscape:pageshadow="2"
     inkscape:zoom="0.64"
     inkscape:cx="248.25951"
     inkscape:cy="360.27209"
     inkscape:document-units="px"
     inkscape:current-layer="layer1"
     showgrid="false"
     fit-margin-top="0"
     fit-margin-left="0"
     fit-margin-right="0"
     fit-margin-bottom="0"
     units="px"
     inkscape:window-width="1920"
     inkscape:window-height="1057"
     inkscape:window-x="-8"
     inkscape:window-y="-8"
     inkscape:window-maximized="1"
     showguides="false" />
  <metadata
     id="metadata7">
    <rdf:RDF>
      <cc:Work
         rdf:about="">
        <dc:format>image/svg+xml</dc:format>
        <dc:type
           rdf:resource="http://purl.org/dc/dcmitype/StillImage" />
        <dc:title></dc:title>
      </cc:Work>
    </rdf:RDF>
  </metadata>
  <g
     inkscape:label="Layer 1"
     inkscape:groupmode="layer"
     id="layer1"
     transform="translate(-565.00005,3323.6814)">
    <rect
       style="opacity:1;fill:#00559b;fill-opacity:1;stroke:none;stroke-width:2.4000001;stroke-linejoin:miter;stroke-miterlimit:4;stroke-dasharray:none;stroke-dashoffset:0;stroke-opacity:1"
       id="rect4182"
       width="600"
       height="800"
       x="565.00006"
       y="-3323.6814" />
    <rect
       y="-3323.6814"
       x="565.00006"
       height="800"
       width="600"
       id="rect4184"
       style="opacity:1;fill:#ffffff;fill-opacity:1;stroke:none;stroke-width:2.4000001;stroke-linejoin:miter;stroke-miterlimit:4;stroke-dasharray:none;stroke-dashoffset:0;stroke-opacity:1"
       rx="106.4"
       ry="106.4" />
    <rect
       ry="80"
       rx="80"
       style="opacity:1;fill:#00559b;fill-opacity:1;stroke:none;stroke-width:2.4000001;stroke-linejoin:miter;stroke-miterlimit:4;stroke-dasharray:none;stroke-dashoffset:0;stroke-opacity:1"
       id="rect4195"
       width="547.20007"
       height="747.20007"
       x="591.40002"
       y="-3297.2812" />
    <path
       style="fill:#ffffff;fill-opacity:1;fill-rule:nonzero;stroke:none"
       d="m 745.80002,-2897.2815 140.78914,0 c 98.64029,1.9085 129.65474,131.8318 41.58789,177.1367 l 56.82294,122.0634 -64.0099,0 -52.81006,-111.7001 -61.58001,0 0,111.7001 -60.8,0 z"
       id="path6490"
       inkscape:connector-curvature="0"
       sodipodi:nodetypes="cccccccccc" />
    <path
       style="opacity:1;fill:#00559b;fill-opacity:1;stroke:none;stroke-width:25;stroke-linejoin:miter;stroke-miterlimit:4;stroke-dasharray:none;stroke-dashoffset:0;stroke-opacity:1"
       d="m 806.60002,-2770.4815 79.65002,0 c 18.3651,0 33.15,-14.7626 33.15,-33.1 0,-18.3374 -14.7849,-33.1 -33.15,-33.1 l -79.65002,0 z"
       id="rect13342"
       inkscape:connector-curvature="0"
       sodipodi:nodetypes="cssscc" />
    <path
       inkscape:connector-curvature="0"
       id="path13371"
       style="fill:#ffffff;fill-opacity:1;fill-rule:evenodd;stroke:none"
       d="m 620.71524,-3018.0807 -2.8426,-0.7469 -2.1544,-2.1257 -0.7182,-3.5607 c 3.5009,-5.3262 4.0994,-9.9042 2.1544,-16.4572 l -0.7181,-0.6894 -1.4363,-2.8726 0.7182,-3.5607 2.1544,-2.1257 8.5577,-6.4632 0,-50.0002 0.7182,-4.2788 2.8725,-3.5607 3.5607,-2.8427 2.1544,0 47.1275,-67.8635 0,0.7181 c -7.4506,-5.5655 -4.3686,-12.3579 2.8725,-15.7392 132.8845,-12.9562 260.6224,-12.8664 393.53686,-0.6894 l 35.727,94.255 0,46.4395 -0.718,4.2788 -2.1258,3.5907 -3.5906,2.1544 -4.2789,1.4052 3.5607,0.7181 3.5608,2.1544 2.8725,3.5607 0.7181,4.2789 -0.7181,4.2789 -2.1257,3.5907 -3.5906,2.1544 -4.2789,1.4051 -49.9997,8.5937"
       sodipodi:nodetypes="cccccccccccccccccccccccccccccccccc" />
    <path
       inkscape:connector-curvature="0"
       id="path13373"
       style="fill:#00559b;fill-opacity:1;fill-rule:nonzero;stroke:none"
       d="m 747.16644,-3191.6597 0.6895,0 5.0269,0.7181 4.9671,2.1545 4.3088,4.2789 2.1232,4.2789 0.7182,5.7151 0,34.261 -0.7182,5.7151 -2.1232,4.2789 -4.3088,4.3088 -4.9671,2.1543 -4.3088,0.6895 -60.7122,0 -4.2789,1.4362 -2.8725,2.8725 -4.9671,7.1216 -2.1544,1.4363 -2.1544,0.7181 -13.5547,0 -2.8726,-0.7181 -2.1544,-2.1546 -0.6894,-2.8425 0.6894,-2.8725 45.003,-62.8367 3.5907,-4.2789 4.9671,-2.1544 2.8725,-0.7181 37.8815,-3.5608" />
    <path
       inkscape:connector-curvature="0"
       id="path13375"
       style="fill:#00559b;fill-opacity:1;fill-rule:nonzero;stroke:none"
       d="m 792.13954,-3193.8141 -3.5607,0.7182 -4.9971,2.1543 -3.5906,3.5609 -2.8426,4.997 -0.7181,4.997 0,37.1335 0.7181,5.7151 2.8426,4.2789 3.5906,4.3088 4.9971,2.1543 4.2788,0.6895 100,0 4.2789,-0.6895 5.0269,-2.1543 4.2789,-4.3088 2.1257,-4.2789 1.4363,-5.7151 0,-39.288 -1.4363,-4.967 -2.1257,-5.027 -4.2789,-3.5607 -5.0269,-2.8725 -46.4093,0 -58.5877,2.1543" />
    <path
       inkscape:connector-curvature="0"
       id="path13377"
       style="fill:#00559b;fill-opacity:1;fill-rule:nonzero;stroke:none"
       d="m 1086.4244,-3142.3778 -13.5548,-35.7271 -2.8726,-4.2788 -4.2788,-3.5609 -4.997,-2.1542 -2.1544,-0.6894 -3.5608,0 -58.58756,-4.3089 -58.5578,-2.1545 -4.997,0 -4.997,2.8726 -3.5907,3.5908 -2.8426,4.2788 -0.7181,5.7152 0,38.5398 0.7181,5.7151 2.8426,4.2789 3.5907,4.3088 4.997,2.1543 4.2789,0.6895 136.41536,0 2.1544,-0.6895 4.9969,-1.4362 3.5908,-2.8725 2.1256,-4.2789 1.4362,-4.997 -1.4362,-4.9971" />
    <ellipse
       style="opacity:1;fill:#00559b;fill-opacity:1;stroke:none;stroke-width:2.4000001;stroke-linejoin:miter;stroke-miterlimit:4;stroke-dasharray:none;stroke-dashoffset:0;stroke-opacity:1"
       id="path13379"
       cx="698.815"
       cy="-3017.7566"
       rx="50"
       ry="50.000023" />
    <ellipse
       cy="-3017.7566"
       cx="698.815"
       id="circle13381"
       style="opacity:1;fill:#ffffff;fill-opacity:1;stroke:none;stroke-width:2.4000001;stroke-linejoin:miter;stroke-miterlimit:4;stroke-dasharray:none;stroke-dashoffset:0;stroke-opacity:1"
       rx="33.215"
       ry="33.215019" />
    <ellipse
       cy="-3017.7566"
       cx="1003.9351"
       id="circle13373"
       style="opacity:1;fill:#00559b;fill-opacity:1;stroke:none;stroke-width:2.4000001;stroke-linejoin:miter;stroke-miterlimit:4;stroke-dasharray:none;stroke-dashoffset:0;stroke-opacity:1"
       rx="50"
       ry="50.000023" />
    <ellipse
       style="opacity:1;fill:#ffffff;fill-opacity:1;stroke:none;stroke-width:2.4000001;stroke-linejoin:miter;stroke-miterlimit:4;stroke-dasharray:none;stroke-dashoffset:0;stroke-opacity:1"
       id="circle13375"
       cx="1003.9351"
       cy="-3017.7566"
       rx="33.215"
       ry="33.215019" />
  </g>
</svg>
