<?xml version="1.0" encoding="UTF-8" standalone="no"?>
<!-- Created with Inkscape (http://www.inkscape.org/) -->

<svg
   xmlns:dc="http://purl.org/dc/elements/1.1/"
   xmlns:cc="http://creativecommons.org/ns#"
   xmlns:rdf="http://www.w3.org/1999/02/22-rdf-syntax-ns#"
   xmlns:svg="http://www.w3.org/2000/svg"
   xmlns="http://www.w3.org/2000/svg"
   xmlns:sodipodi="http://sodipodi.sourceforge.net/DTD/sodipodi-0.dtd"
   xmlns:inkscape="http://www.inkscape.org/namespaces/inkscape"
   width="600"
   height="800"
   viewBox="0 0 600.00002 800.00008"
   id="svg2"
   version="1.1"
   inkscape:version="0.91 r13725"
   sodipodi:docname="11.svg">
  <defs
     id="defs4" />
  <sodipodi:namedview
     id="base"
     pagecolor="#ffffff"
     bordercolor="#666666"
     borderopacity="1.0"
     inkscape:pageopacity="0.0"
     inkscape:pageshadow="2"
     inkscape:zoom="0.81206796"
     inkscape:cx="255.80038"
     inkscape:cy="333.28172"
     inkscape:document-units="px"
     inkscape:current-layer="layer1"
     showgrid="false"
     fit-margin-top="0"
     fit-margin-left="0"
     fit-margin-right="0"
     fit-margin-bottom="0"
     units="px"
     inkscape:window-width="1920"
     inkscape:window-height="1057"
     inkscape:window-x="-8"
     inkscape:window-y="-8"
     inkscape:window-maximized="1" />
  <metadata
     id="metadata7">
    <rdf:RDF>
      <cc:Work
         rdf:about="">
        <dc:format>image/svg+xml</dc:format>
        <dc:type
           rdf:resource="http://purl.org/dc/dcmitype/StillImage" />
        <dc:title></dc:title>
      </cc:Work>
    </rdf:RDF>
  </metadata>
  <g
     inkscape:label="Layer 1"
     inkscape:groupmode="layer"
     id="layer1"
     transform="translate(768.67957,2015.3566)">
    <rect
       style="opacity:1;fill:#00559b;fill-opacity:1;stroke:none;stroke-width:2.4000001;stroke-linejoin:miter;stroke-miterlimit:4;stroke-dasharray:none;stroke-dashoffset:0;stroke-opacity:1"
       id="rect4182"
       width="600"
       height="800"
       x="-768.67957"
       y="-2015.3566" />
    <rect
       y="-2015.3566"
       x="-768.67957"
       height="800"
       width="600"
       id="rect4184"
       style="opacity:1;fill:#ffffff;fill-opacity:1;stroke:none;stroke-width:2.4000001;stroke-linejoin:miter;stroke-miterlimit:4;stroke-dasharray:none;stroke-dashoffset:0;stroke-opacity:1"
       rx="106.4"
       ry="106.4" />
    <rect
       ry="80"
       rx="80"
       style="opacity:1;fill:#00559b;fill-opacity:1;stroke:none;stroke-width:2.4000001;stroke-linejoin:miter;stroke-miterlimit:4;stroke-dasharray:none;stroke-dashoffset:0;stroke-opacity:1"
       id="rect4195"
       width="547.20007"
       height="747.20007"
       x="-742.27954"
       y="-1988.9567" />
    <path
       inkscape:connector-curvature="0"
       id="path31783"
       style="fill:#ffffff;fill-opacity:1;fill-rule:evenodd;stroke:none"
       d="m -434.30014,-1940.9566 c 52.2254,0.3693 94.74837,44.5972 92.00487,95.7185 -10.1706,105.5548 -114.45707,93.8116 -194.38427,89.3619 l 0,114.1196 -55.2,0 0,-299.2"
       sodipodi:nodetypes="cccccc" />
    <path
       style="opacity:1;fill:#00559b;fill-opacity:1;stroke:none;stroke-width:25;stroke-linejoin:miter;stroke-miterlimit:4;stroke-dasharray:none;stroke-dashoffset:0;stroke-opacity:1"
       d="m -536.67954,-1810.9566 102.01,0 c 21.052,0 38,-16.725 38,-37.5 0,-20.775 -16.948,-37.5 -38,-37.5 l -102.01,0 z"
       id="rect31810"
       inkscape:connector-curvature="0"
       sodipodi:nodetypes="cssscc" />
    <path
       inkscape:connector-curvature="0"
       id="path13371"
       style="fill:#ffffff;fill-opacity:1;fill-rule:evenodd;stroke:none"
       d="m -712.96437,-1362.5565 -2.8426,-0.7469 -2.1544,-2.1257 -0.7182,-3.5607 c 3.5009,-5.3262 4.0994,-9.9042 2.1544,-16.4572 l -0.7181,-0.6894 -1.4363,-2.8726 0.7182,-3.5607 2.1544,-2.1257 8.5577,-6.4632 0,-50.0001 0.7182,-4.2788 2.8725,-3.5607 3.5607,-2.8427 2.1544,0 47.1275,-67.8635 0,0.7181 c -7.4506,-5.5655 -4.3686,-12.3579 2.8725,-15.7392 132.8845,-12.9562 260.6224,-12.8664 393.5368,-0.6894 l 35.7271,94.255 0,46.4394 -0.7181,4.2788 -2.1257,3.5907 -3.5906,2.1544 -4.2789,1.4052 3.5607,0.7181 3.5608,2.1544 2.8725,3.5607 0.7181,4.2789 -0.7181,4.2789 -2.1257,3.5907 -3.5906,2.1544 -4.2789,1.4051 -49.9997,8.5937"
       sodipodi:nodetypes="cccccccccccccccccccccccccccccccccc" />
    <path
       inkscape:connector-curvature="0"
       id="path13373"
       style="fill:#00559b;fill-opacity:1;fill-rule:nonzero;stroke:none"
       d="m -586.51317,-1536.1354 0.6895,0 5.0269,0.7181 4.9671,2.1545 4.3088,4.2789 2.1232,4.2789 0.7182,5.7151 0,34.261 -0.7182,5.7151 -2.1232,4.2789 -4.3088,4.3088 -4.9671,2.1543 -4.3088,0.6895 -60.7122,0 -4.2789,1.4362 -2.8725,2.8725 -4.9671,7.1216 -2.1544,1.4363 -2.1544,0.7181 -13.5547,0 -2.8726,-0.7181 -2.1544,-2.1546 -0.6894,-2.8425 0.6894,-2.8725 45.003,-62.8367 3.5907,-4.2789 4.9671,-2.1544 2.8725,-0.7181 37.8815,-3.5608" />
    <path
       inkscape:connector-curvature="0"
       id="path13375"
       style="fill:#00559b;fill-opacity:1;fill-rule:nonzero;stroke:none"
       d="m -541.54007,-1538.2898 -3.5607,0.7182 -4.9971,2.1543 -3.5906,3.5609 -2.8426,4.997 -0.7181,4.997 0,37.1335 0.7181,5.7151 2.8426,4.2789 3.5906,4.3088 4.9971,2.1543 4.2788,0.6895 100,0 4.2789,-0.6895 5.0269,-2.1543 4.2789,-4.3088 2.1257,-4.2789 1.4363,-5.7151 0,-39.288 -1.4363,-4.967 -2.1257,-5.027 -4.2789,-3.5607 -5.0269,-2.8725 -46.4093,0 -58.5877,2.1543" />
    <path
       inkscape:connector-curvature="0"
       id="path13377"
       style="fill:#00559b;fill-opacity:1;fill-rule:nonzero;stroke:none"
       d="m -247.25527,-1486.8535 -13.5547,-35.7271 -2.8726,-4.2788 -4.2788,-3.5609 -4.997,-2.1542 -2.1544,-0.6894 -3.5608,0 -58.5876,-4.3089 -58.5578,-2.1545 -4.997,0 -4.997,2.8726 -3.5907,3.5908 -2.8426,4.2788 -0.7181,5.7152 0,38.5398 0.7181,5.7151 2.8426,4.2789 3.5907,4.3088 4.997,2.1543 4.2789,0.6895 136.4153,0 2.1544,-0.6895 4.997,-1.4362 3.5907,-2.8725 2.1256,-4.2789 1.4363,-4.997 -1.4363,-4.9971" />
    <ellipse
       style="opacity:1;fill:#00559b;fill-opacity:1;stroke:none;stroke-width:2.4000001;stroke-linejoin:miter;stroke-miterlimit:4;stroke-dasharray:none;stroke-dashoffset:0;stroke-opacity:1"
       id="path13379"
       cx="-634.86462"
       cy="-1362.2316"
       rx="50"
       ry="50.000004" />
    <ellipse
       cy="-1362.2316"
       cx="-634.86462"
       id="circle13381"
       style="opacity:1;fill:#ffffff;fill-opacity:1;stroke:none;stroke-width:2.4000001;stroke-linejoin:miter;stroke-miterlimit:4;stroke-dasharray:none;stroke-dashoffset:0;stroke-opacity:1"
       rx="33.215"
       ry="33.215004" />
    <ellipse
       cy="-1362.2316"
       cx="-329.74451"
       id="circle13373"
       style="opacity:1;fill:#00559b;fill-opacity:1;stroke:none;stroke-width:2.4000001;stroke-linejoin:miter;stroke-miterlimit:4;stroke-dasharray:none;stroke-dashoffset:0;stroke-opacity:1"
       rx="50"
       ry="50.000004" />
    <ellipse
       style="opacity:1;fill:#ffffff;fill-opacity:1;stroke:none;stroke-width:2.4000001;stroke-linejoin:miter;stroke-miterlimit:4;stroke-dasharray:none;stroke-dashoffset:0;stroke-opacity:1"
       id="circle13375"
       cx="-329.74451"
       cy="-1362.2316"
       rx="33.215"
       ry="33.215004" />
  </g>
</svg>
