<?xml version="1.0" encoding="UTF-8" standalone="no"?>
<!-- Created with Inkscape (http://www.inkscape.org/) -->

<svg
   xmlns:dc="http://purl.org/dc/elements/1.1/"
   xmlns:cc="http://creativecommons.org/ns#"
   xmlns:rdf="http://www.w3.org/1999/02/22-rdf-syntax-ns#"
   xmlns:svg="http://www.w3.org/2000/svg"
   xmlns="http://www.w3.org/2000/svg"
   xmlns:sodipodi="http://sodipodi.sourceforge.net/DTD/sodipodi-0.dtd"
   xmlns:inkscape="http://www.inkscape.org/namespaces/inkscape"
   width="600"
   height="800"
   viewBox="0 0 600.00001 800.00002"
   id="svg2"
   version="1.1"
   inkscape:version="0.91 r13725"
   sodipodi:docname="33.svg">
  <defs
     id="defs4">
    <pattern
       y="0"
       x="0"
       height="6"
       width="6"
       patternUnits="userSpaceOnUse"
       id="EMFhbasepattern" />
    <pattern
       y="0"
       x="0"
       height="6"
       width="6"
       patternUnits="userSpaceOnUse"
       id="EMFhbasepattern-6" />
    <pattern
       y="0"
       x="0"
       height="6"
       width="6"
       patternUnits="userSpaceOnUse"
       id="EMFhbasepattern-3" />
    <pattern
       y="0"
       x="0"
       height="6"
       width="6"
       patternUnits="userSpaceOnUse"
       id="EMFhbasepattern-0" />
    <pattern
       y="0"
       x="0"
       height="6"
       width="6"
       patternUnits="userSpaceOnUse"
       id="EMFhbasepattern-2" />
    <pattern
       y="0"
       x="0"
       height="6"
       width="6"
       patternUnits="userSpaceOnUse"
       id="EMFhbasepattern-65" />
    <pattern
       y="0"
       x="0"
       height="6"
       width="6"
       patternUnits="userSpaceOnUse"
       id="EMFhbasepattern-28" />
    <pattern
       y="0"
       x="0"
       height="6"
       width="6"
       patternUnits="userSpaceOnUse"
       id="EMFhbasepattern-5" />
    <pattern
       y="0"
       x="0"
       height="6"
       width="6"
       patternUnits="userSpaceOnUse"
       id="EMFhbasepattern-7" />
    <pattern
       y="0"
       x="0"
       height="6"
       width="6"
       patternUnits="userSpaceOnUse"
       id="EMFhbasepattern-79" />
    <pattern
       y="0"
       x="0"
       height="6"
       width="6"
       patternUnits="userSpaceOnUse"
       id="EMFhbasepattern-30" />
    <pattern
       y="0"
       x="0"
       height="6"
       width="6"
       patternUnits="userSpaceOnUse"
       id="EMFhbasepattern-1" />
  </defs>
  <sodipodi:namedview
     id="base"
     pagecolor="#ffffff"
     bordercolor="#666666"
     borderopacity="1.0"
     inkscape:pageopacity="0.0"
     inkscape:pageshadow="2"
     inkscape:zoom="0.64"
     inkscape:cx="44.19486"
     inkscape:cy="391.22765"
     inkscape:document-units="px"
     inkscape:current-layer="layer1"
     showgrid="false"
     fit-margin-top="0"
     fit-margin-left="0"
     fit-margin-right="0"
     fit-margin-bottom="0"
     units="px"
     inkscape:window-width="1920"
     inkscape:window-height="1057"
     inkscape:window-x="-8"
     inkscape:window-y="-8"
     inkscape:window-maximized="1"
     showguides="false" />
  <metadata
     id="metadata7">
    <rdf:RDF>
      <cc:Work
         rdf:about="">
        <dc:format>image/svg+xml</dc:format>
        <dc:type
           rdf:resource="http://purl.org/dc/dcmitype/StillImage" />
        <dc:title></dc:title>
      </cc:Work>
    </rdf:RDF>
  </metadata>
  <g
     inkscape:label="Layer 1"
     inkscape:groupmode="layer"
     id="layer1"
     transform="translate(-623.92502,3697.2815)">
    <rect
       style="opacity:1;fill:#00559b;fill-opacity:1;stroke:none;stroke-width:2.4000001;stroke-linejoin:miter;stroke-miterlimit:4;stroke-dasharray:none;stroke-dashoffset:0;stroke-opacity:1"
       id="rect4182"
       width="600"
       height="800"
       x="623.92505"
       y="-3697.2815" />
    <rect
       y="-3697.2815"
       x="623.92505"
       height="800"
       width="600"
       id="rect4184"
       style="opacity:1;fill:#ffffff;fill-opacity:1;stroke:none;stroke-width:2.4000001;stroke-linejoin:miter;stroke-miterlimit:4;stroke-dasharray:none;stroke-dashoffset:0;stroke-opacity:1"
       rx="106.4"
       ry="106.4" />
    <rect
       ry="80"
       rx="80"
       style="opacity:1;fill:#00559b;fill-opacity:1;stroke:none;stroke-width:2.4000001;stroke-linejoin:miter;stroke-miterlimit:4;stroke-dasharray:none;stroke-dashoffset:0;stroke-opacity:1"
       id="rect4195"
       width="547.20007"
       height="747.20007"
       x="650.32501"
       y="-3670.8813" />
    <path
       style="fill:#ffffff;fill-opacity:1;fill-rule:nonzero;stroke:none"
       d="m 804.72498,-3270.8816 140.78914,0 c 98.64028,1.9085 129.65478,131.8318 41.58789,177.1367 l 56.82289,122.0634 -64.00985,0 -52.81006,-111.7001 -61.58001,0 0,111.7001 -60.8,0 z"
       id="path6490"
       inkscape:connector-curvature="0"
       sodipodi:nodetypes="cccccccccc" />
    <path
       style="opacity:1;fill:#00559b;fill-opacity:1;stroke:none;stroke-width:25;stroke-linejoin:miter;stroke-miterlimit:4;stroke-dasharray:none;stroke-dashoffset:0;stroke-opacity:1"
       d="m 865.52498,-3144.0816 79.65002,0 c 18.3651,0 33.15,-14.7626 33.15,-33.1 0,-18.3374 -14.7849,-33.1 -33.15,-33.1 l -79.65002,0 z"
       id="rect13342"
       inkscape:connector-curvature="0"
       sodipodi:nodetypes="cssscc" />
    <path
       inkscape:connector-curvature="0"
       id="path13415"
       style="fill:#ffffff;fill-opacity:1;fill-rule:evenodd;stroke:none"
       d="m 1060.7678,-3430.8655 6.8501,28.7473 93.6367,0 4.7578,-1.3757 3.4394,-2.0636 2.035,-4.0986 c 5.8755,-29.8079 1.0604,-121.2377 -13.6715,-150.501 l -4.0986,-4.1272 -4.7865,-2.7229 -4.7864,-0.6878 -384.80788,0 c -23.8463,-0.4013 -47.4346,6.5634 -68.3287,17.7987 l 5.4743,10.9486 -15.7351,53.3389 0,0.6879 -0.6879,6.85 0,53.3676 -2.7228,0 -2.0637,2.7228 -1.347,2.7515 0,11.6365 1.347,2.7228 2.0637,2.0637 2.7228,0.6878 27.343,0 7.5379,-28.7473 1.3471,-3.4107 3.4394,-3.4107 4.0985,-1.3758 2.035,0 c 55.6318,3.8406 43.9093,-13.4995 57.4088,36.9445 l 209.1422,0 6.85,-28.7473 2.03498,-3.4107 3.4394,-3.4107 4.0985,-1.3758 40.9858,0 4.0986,0.6879 3.4394,2.0338 2.7228,4.1272 0.6879,1.3483" />
    <path
       inkscape:connector-curvature="0"
       id="path13417"
       style="fill:#00559b;fill-opacity:1;fill-rule:nonzero;stroke:none"
       d="m 792.15322,-3533.4733 -0.6879,-4.8152 -2.7228,-3.4107 -3.4107,-2.0636 -4.7865,-0.658 -55.3738,0 c -27.5149,5.0157 -22.4705,20.2922 -31.4415,42.3902 l 0,4.1272 1.3757,4.0986 2.7229,3.4107 3.4393,2.0636 3.4107,0.6879 76.5546,0 4.0986,-1.3758 3.4107,-2.0361 2.7228,-4.1272 0.6879,-4.0986 0,-34.193" />
    <path
       inkscape:connector-curvature="0"
       id="path13419"
       style="fill:#00559b;fill-opacity:1;fill-rule:nonzero;stroke:none"
       d="m 800.35042,-3430.8655 0,-102.6078 0.6878,-4.1273 2.7229,-3.4107 3.4393,-2.7515 4.0986,-0.658 32.1294,0 4.0986,0.658 4.0986,2.0636 2.035,3.4107 1.3757,4.8152 0,102.6078 -1.3757,4.1272 -2.035,4.0986 -3.4107,2.0361 -4.7865,1.3757 -31.4415,0 -4.7865,-0.6878 -3.4393,-2.7229 -2.7229,-3.4393 -0.6878,-4.0986 0,-0.6879" />
    <path
       inkscape:connector-curvature="0"
       id="path13421"
       style="fill:#00559b;fill-opacity:1;fill-rule:nonzero;stroke:none"
       d="m 863.23352,-3499.2803 0,-42.4189 0.6878,-4.7864 2.0637,-3.4107 4.0985,-2.7515 4.0986,-0.6879 49.2116,0 4.0986,0.6879 3.4107,2.7515 2.7515,3.4107 0.6592,4.0986 0,43.1067 -0.6592,4.0986 -2.0636,4.1272 -4.0986,2.0361 -4.0986,1.3758 -49.2116,0 -4.0986,-0.6879 -3.4393,-2.7228 -2.7229,-3.4394 -0.6878,-4.0986 0,-0.6878" />
    <path
       inkscape:connector-curvature="0"
       id="path13423"
       style="fill:#00559b;fill-opacity:1;fill-rule:nonzero;stroke:none"
       d="m 942.51092,-3499.2803 0,-42.4189 0.6879,-4.7864 2.7514,-3.4107 3.4108,-2.7515 4.0985,-0.6879 49.89948,0 4.0986,0.6879 3.4107,2.7515 2.7228,3.4107 0.7166,4.0986 0,43.1067 -0.7166,4.0986 -2.0349,4.1272 -3.4107,2.0361 -4.7865,1.3758 -49.21158,0 -4.0986,-0.6879 -4.0986,-2.7228 -2.0636,-3.4394 -1.3757,-4.0986 0,-0.6878" />
    <path
       inkscape:connector-curvature="0"
       id="path13425"
       style="fill:#00559b;fill-opacity:1;fill-rule:nonzero;stroke:none"
       d="m 1022.4762,-3499.2803 0,-42.4189 1.3757,-4.7864 2.0636,-3.4107 3.4107,-2.7515 4.7865,-0.6879 48.5237,0 4.0986,0.6879 3.4394,2.7515 2.7228,3.4107 1.3758,4.0986 0,43.1067 -1.3758,4.0986 -2.0636,4.1272 -3.4107,2.0361 -4.7865,1.3758 -48.5237,0 -4.0986,-0.6879 -3.4107,-2.7228 -2.7515,-3.4394 -1.3757,-4.0986 0,-0.6878" />
    <path
       inkscape:connector-curvature="0"
       id="path13427"
       style="fill:#00559b;fill-opacity:1;fill-rule:nonzero;stroke:none"
       d="m 1161.9139,-3501.3152 -6.8215,-37.6325 -0.6878,-2.7515 -2.0637,-4.7864 -4.0985,-3.4107 -4.7865,-2.7515 -5.4743,-0.6879 -24.5915,0 -4.7864,0.6879 -3.4108,2.7515 -2.0636,3.4107 -0.6592,4.7864 0,42.4189 0.6592,4.0986 2.0636,4.1272 3.4108,2.0361 4.7864,1.3758 36.9159,0 2.7228,-0.6879 4.0986,-1.3757 2.7515,-2.7229 2.035,-4.0985 0,-4.7865" />
    <ellipse
       style="opacity:1;fill:#ffffff;fill-opacity:1;stroke:none;stroke-width:2.4000001;stroke-linejoin:miter;stroke-miterlimit:4;stroke-dasharray:none;stroke-dashoffset:0;stroke-opacity:1"
       id="path13429"
       cx="745.3501"
       cy="-3402.416"
       rx="28.365"
       ry="28.365002" />
    <ellipse
       cy="-3402.416"
       cx="1029.6995"
       id="circle13431"
       style="opacity:1;fill:#ffffff;fill-opacity:1;stroke:none;stroke-width:2.4000001;stroke-linejoin:miter;stroke-miterlimit:4;stroke-dasharray:none;stroke-dashoffset:0;stroke-opacity:1"
       rx="28.365"
       ry="28.365002" />
  </g>
</svg>
