<?xml version="1.0" encoding="UTF-8" standalone="no"?>
<!-- Created with Inkscape (http://www.inkscape.org/) -->

<svg
   xmlns:dc="http://purl.org/dc/elements/1.1/"
   xmlns:cc="http://creativecommons.org/ns#"
   xmlns:rdf="http://www.w3.org/1999/02/22-rdf-syntax-ns#"
   xmlns:svg="http://www.w3.org/2000/svg"
   xmlns="http://www.w3.org/2000/svg"
   xmlns:sodipodi="http://sodipodi.sourceforge.net/DTD/sodipodi-0.dtd"
   xmlns:inkscape="http://www.inkscape.org/namespaces/inkscape"
   width="600"
   height="800"
   viewBox="0 0 600.00002 800.00008"
   id="svg2"
   version="1.1"
   inkscape:version="0.91 r13725"
   sodipodi:docname="SADC_road_sign_R321-P.svg">
  <defs
     id="defs4" />
  <sodipodi:namedview
     id="base"
     pagecolor="#ffffff"
     bordercolor="#666666"
     borderopacity="1.0"
     inkscape:pageopacity="0.0"
     inkscape:pageshadow="2"
     inkscape:zoom="0.81206796"
     inkscape:cx="126.38298"
     inkscape:cy="392.58554"
     inkscape:document-units="px"
     inkscape:current-layer="layer1"
     showgrid="false"
     fit-margin-top="0"
     fit-margin-left="0"
     fit-margin-right="0"
     fit-margin-bottom="0"
     units="px"
     inkscape:window-width="1920"
     inkscape:window-height="1057"
     inkscape:window-x="-8"
     inkscape:window-y="-8"
     inkscape:window-maximized="1" />
  <metadata
     id="metadata7">
    <rdf:RDF>
      <cc:Work
         rdf:about="">
        <dc:format>image/svg+xml</dc:format>
        <dc:type
           rdf:resource="http://purl.org/dc/dcmitype/StillImage" />
        <dc:title></dc:title>
      </cc:Work>
    </rdf:RDF>
  </metadata>
  <g
     inkscape:label="Layer 1"
     inkscape:groupmode="layer"
     id="layer1"
     transform="translate(742.27954,2041.7567)">
    <rect
       style="opacity:1;fill:#00559b;fill-opacity:1;stroke:none;stroke-width:2.4000001;stroke-linejoin:miter;stroke-miterlimit:4;stroke-dasharray:none;stroke-dashoffset:0;stroke-opacity:1"
       id="rect4182"
       width="600"
       height="800"
       x="-742.27954"
       y="-2041.7566" />
    <rect
       y="-2041.7566"
       x="-742.27954"
       height="800"
       width="600"
       id="rect4184"
       style="opacity:1;fill:#ffffff;fill-opacity:1;stroke:none;stroke-width:2.4000001;stroke-linejoin:miter;stroke-miterlimit:4;stroke-dasharray:none;stroke-dashoffset:0;stroke-opacity:1"
       rx="106.4"
       ry="106.4" />
    <rect
       ry="80"
       rx="80"
       style="opacity:1;fill:#00559b;fill-opacity:1;stroke:none;stroke-width:2.4000001;stroke-linejoin:miter;stroke-miterlimit:4;stroke-dasharray:none;stroke-dashoffset:0;stroke-opacity:1"
       id="rect4195"
       width="547.20007"
       height="747.20007"
       x="-715.87952"
       y="-2015.3567" />
    <path
       inkscape:connector-curvature="0"
       id="path31783"
       style="fill:#ffffff;fill-opacity:1;fill-rule:evenodd;stroke:none"
       d="m -407.90011,-1967.3567 c 52.2254,0.3693 94.74837,44.5972 92.00487,95.7185 -10.1706,105.5548 -114.45707,93.8116 -194.38427,89.3619 l 0,114.1196 -55.2,0 0,-299.2"
       sodipodi:nodetypes="cccccc" />
    <path
       style="opacity:1;fill:#00559b;fill-opacity:1;stroke:none;stroke-width:25;stroke-linejoin:miter;stroke-miterlimit:4;stroke-dasharray:none;stroke-dashoffset:0;stroke-opacity:1"
       d="m -510.27951,-1837.3567 102.01,0 c 21.052,0 38,-16.725 38,-37.5 0,-20.775 -16.948,-37.5 -38,-37.5 l -102.01,0 z"
       id="rect31810"
       inkscape:connector-curvature="0"
       sodipodi:nodetypes="cssscc" />
    <path
       inkscape:connector-curvature="0"
       id="path13415"
       style="fill:#ffffff;fill-opacity:1;fill-rule:evenodd;stroke:none"
       d="m -305.43674,-1428.1411 6.8501,28.7473 93.6367,0 4.7578,-1.3757 3.4394,-2.0636 2.035,-4.0986 c 5.8755,-29.8079 1.0604,-121.2377 -13.6715,-150.501 l -4.0986,-4.1272 -4.7865,-2.7229 -4.7864,-0.6878 -384.8079,0 c -23.8463,-0.4013 -47.4346,6.5634 -68.3287,17.7987 l 5.4743,10.9486 -15.7351,53.3389 0,0.6879 -0.6879,6.85 0,53.3676 -2.7228,0 -2.0637,2.7228 -1.347,2.7515 0,11.6365 1.347,2.7228 2.0637,2.0637 2.7228,0.6878 27.343,0 7.5379,-28.7473 1.3471,-3.4107 3.4394,-3.4107 4.0985,-1.3758 2.035,0 c 55.6318,3.8406 43.9093,-13.4995 57.4088,36.9445 l 209.1422,0 6.85,-28.7473 2.035,-3.4107 3.4394,-3.4107 4.0985,-1.3758 40.9858,0 4.0986,0.6879 3.4394,2.0338 2.7228,4.1272 0.6879,1.3483" />
    <path
       inkscape:connector-curvature="0"
       id="path13417"
       style="fill:#00559b;fill-opacity:1;fill-rule:nonzero;stroke:none"
       d="m -574.05134,-1530.7489 -0.6879,-4.8152 -2.7228,-3.4107 -3.4107,-2.0636 -4.7865,-0.658 -55.3738,0 c -27.5149,5.0157 -22.4705,20.2922 -31.4415,42.3902 l 0,4.1272 1.3757,4.0986 2.7229,3.4107 3.4393,2.0636 3.4107,0.6879 76.5546,0 4.0986,-1.3758 3.4107,-2.0361 2.7228,-4.1272 0.6879,-4.0986 0,-34.193" />
    <path
       inkscape:connector-curvature="0"
       id="path13419"
       style="fill:#00559b;fill-opacity:1;fill-rule:nonzero;stroke:none"
       d="m -565.85414,-1428.1411 0,-102.6078 0.6878,-4.1273 2.7229,-3.4107 3.4393,-2.7515 4.0986,-0.658 32.1294,0 4.0986,0.658 4.0986,2.0636 2.035,3.4107 1.3757,4.8152 0,102.6078 -1.3757,4.1272 -2.035,4.0986 -3.4107,2.0361 -4.7865,1.3757 -31.4415,0 -4.7865,-0.6878 -3.4393,-2.7229 -2.7229,-3.4393 -0.6878,-4.0986 0,-0.6879" />
    <path
       inkscape:connector-curvature="0"
       id="path13421"
       style="fill:#00559b;fill-opacity:1;fill-rule:nonzero;stroke:none"
       d="m -502.97104,-1496.5559 0,-42.4189 0.6878,-4.7864 2.0637,-3.4107 4.0985,-2.7515 4.0986,-0.6879 49.2116,0 4.0986,0.6879 3.4107,2.7515 2.7515,3.4107 0.6592,4.0986 0,43.1067 -0.6592,4.0986 -2.0636,4.1272 -4.0986,2.0361 -4.0986,1.3758 -49.2116,0 -4.0986,-0.6879 -3.4393,-2.7228 -2.7229,-3.4394 -0.6878,-4.0986 0,-0.6878" />
    <path
       inkscape:connector-curvature="0"
       id="path13423"
       style="fill:#00559b;fill-opacity:1;fill-rule:nonzero;stroke:none"
       d="m -423.69364,-1496.5559 0,-42.4189 0.6879,-4.7864 2.7514,-3.4107 3.4108,-2.7515 4.0985,-0.6879 49.8995,0 4.0986,0.6879 3.4107,2.7515 2.7228,3.4107 0.7166,4.0986 0,43.1067 -0.7166,4.0986 -2.0349,4.1272 -3.4107,2.0361 -4.7865,1.3758 -49.2116,0 -4.0986,-0.6879 -4.0986,-2.7228 -2.0636,-3.4394 -1.3757,-4.0986 0,-0.6878" />
    <path
       inkscape:connector-curvature="0"
       id="path13425"
       style="fill:#00559b;fill-opacity:1;fill-rule:nonzero;stroke:none"
       d="m -343.72834,-1496.5559 0,-42.4189 1.3757,-4.7864 2.0636,-3.4107 3.4107,-2.7515 4.7865,-0.6879 48.5237,0 4.0986,0.6879 3.4394,2.7515 2.7228,3.4107 1.3758,4.0986 0,43.1067 -1.3758,4.0986 -2.0636,4.1272 -3.4107,2.0361 -4.7865,1.3758 -48.5237,0 -4.0986,-0.6879 -3.4107,-2.7228 -2.7515,-3.4394 -1.3757,-4.0986 0,-0.6878" />
    <path
       inkscape:connector-curvature="0"
       id="path13427"
       style="fill:#00559b;fill-opacity:1;fill-rule:nonzero;stroke:none"
       d="m -204.29064,-1498.5908 -6.8215,-37.6325 -0.6878,-2.7515 -2.0637,-4.7864 -4.0985,-3.4107 -4.7865,-2.7515 -5.4743,-0.6879 -24.5915,0 -4.7864,0.6879 -3.4108,2.7515 -2.0636,3.4107 -0.6592,4.7864 0,42.4189 0.6592,4.0986 2.0636,4.1272 3.4108,2.0361 4.7864,1.3758 36.9159,0 2.7228,-0.6879 4.0986,-1.3757 2.7515,-2.7229 2.035,-4.0985 0,-4.7865" />
    <ellipse
       style="opacity:1;fill:#ffffff;fill-opacity:1;stroke:none;stroke-width:2.4000001;stroke-linejoin:miter;stroke-miterlimit:4;stroke-dasharray:none;stroke-dashoffset:0;stroke-opacity:1"
       id="path13429"
       cx="-620.85449"
       cy="-1399.6917"
       rx="28.365"
       ry="28.365004" />
    <ellipse
       cy="-1399.6917"
       cx="-336.50504"
       id="circle13431"
       style="opacity:1;fill:#ffffff;fill-opacity:1;stroke:none;stroke-width:2.4000001;stroke-linejoin:miter;stroke-miterlimit:4;stroke-dasharray:none;stroke-dashoffset:0;stroke-opacity:1"
       rx="28.365"
       ry="28.365004" />
  </g>
</svg>
