<?xml version="1.0" encoding="UTF-8" standalone="no"?>
<!-- Created with Inkscape (http://www.inkscape.org/) -->

<svg
   xmlns:dc="http://purl.org/dc/elements/1.1/"
   xmlns:cc="http://creativecommons.org/ns#"
   xmlns:rdf="http://www.w3.org/1999/02/22-rdf-syntax-ns#"
   xmlns:svg="http://www.w3.org/2000/svg"
   xmlns="http://www.w3.org/2000/svg"
   xmlns:sodipodi="http://sodipodi.sourceforge.net/DTD/sodipodi-0.dtd"
   xmlns:inkscape="http://www.inkscape.org/namespaces/inkscape"
   width="600"
   height="800"
   viewBox="0 0 600.00002 800.00008"
   id="svg2"
   version="1.1"
   inkscape:version="0.91 r13725"
   sodipodi:docname="11.svg">
  <defs
     id="defs4" />
  <sodipodi:namedview
     id="base"
     pagecolor="#ffffff"
     bordercolor="#666666"
     borderopacity="1.0"
     inkscape:pageopacity="0.0"
     inkscape:pageshadow="2"
     inkscape:zoom="0.81206796"
     inkscape:cx="305.17734"
     inkscape:cy="391.57563"
     inkscape:document-units="px"
     inkscape:current-layer="layer1"
     showgrid="false"
     fit-margin-top="0"
     fit-margin-left="0"
     fit-margin-right="0"
     fit-margin-bottom="0"
     units="px"
     inkscape:window-width="1920"
     inkscape:window-height="1057"
     inkscape:window-x="-8"
     inkscape:window-y="-8"
     inkscape:window-maximized="1" />
  <metadata
     id="metadata7">
    <rdf:RDF>
      <cc:Work
         rdf:about="">
        <dc:format>image/svg+xml</dc:format>
        <dc:type
           rdf:resource="http://purl.org/dc/dcmitype/StillImage" />
        <dc:title></dc:title>
      </cc:Work>
    </rdf:RDF>
  </metadata>
  <g
     inkscape:label="Layer 1"
     inkscape:groupmode="layer"
     id="layer1"
     transform="translate(715.87952,2068.1567)">
    <rect
       style="opacity:1;fill:#00559b;fill-opacity:1;stroke:none;stroke-width:2.4000001;stroke-linejoin:miter;stroke-miterlimit:4;stroke-dasharray:none;stroke-dashoffset:0;stroke-opacity:1"
       id="rect4182"
       width="600"
       height="800"
       x="-715.87952"
       y="-2068.1567" />
    <rect
       y="-2068.1567"
       x="-715.87952"
       height="800"
       width="600"
       id="rect4184"
       style="opacity:1;fill:#ffffff;fill-opacity:1;stroke:none;stroke-width:2.4000001;stroke-linejoin:miter;stroke-miterlimit:4;stroke-dasharray:none;stroke-dashoffset:0;stroke-opacity:1"
       rx="106.4"
       ry="106.4" />
    <rect
       ry="80"
       rx="80"
       style="opacity:1;fill:#00559b;fill-opacity:1;stroke:none;stroke-width:2.4000001;stroke-linejoin:miter;stroke-miterlimit:4;stroke-dasharray:none;stroke-dashoffset:0;stroke-opacity:1"
       id="rect4195"
       width="547.20007"
       height="747.20007"
       x="-689.47949"
       y="-2041.7567" />
    <path
       inkscape:connector-curvature="0"
       id="path31783"
       style="fill:#ffffff;fill-opacity:1;fill-rule:evenodd;stroke:none"
       d="m -381.50009,-1993.7568 c 52.2254,0.3693 94.74837,44.5972 92.00487,95.7185 -10.1706,105.5548 -114.45707,93.8116 -194.38427,89.3619 l 0,114.1196 -55.2,0 0,-299.2"
       sodipodi:nodetypes="cccccc" />
    <path
       style="opacity:1;fill:#00559b;fill-opacity:1;stroke:none;stroke-width:25;stroke-linejoin:miter;stroke-miterlimit:4;stroke-dasharray:none;stroke-dashoffset:0;stroke-opacity:1"
       d="m -483.87949,-1863.7568 102.01,0 c 21.052,0 38,-16.725 38,-37.5 0,-20.775 -16.948,-37.5 -38,-37.5 l -102.01,0 z"
       id="rect31810"
       inkscape:connector-curvature="0"
       sodipodi:nodetypes="cssscc" />
    <path
       inkscape:connector-curvature="0"
       id="path13409"
       style="fill:#ffffff;fill-opacity:1;fill-rule:nonzero;stroke:none"
       d="m -165.87964,-1421.5397 0,-59.2092 -365,0 0,-62.9144 -1.4361,-5.7143 -3.5602,-5.7143 -4.9962,-3.5601 -4.9963,-2.8721 -6.4323,-0.7181 -69.2238,0 -4.2783,0.7181 -5.7142,2.1253 -4.9962,3.5901 -3.5602,4.2782 -2.1541,5.7143 -14.9887,65.0109 0,45.6842 c -12.2363,0.3901 -7.5991,10.5908 -8.5864,18.5788 l 0.718,3.5602 2.8721,2.8721 3.5602,1.405 1.3442,0.718 480,0 4.2782,-2.1254 3.5901,-2.8721 2.8422,-4.2782 0.718,-4.2782"
       sodipodi:nodetypes="ccccccccccccccccccccccccccc" />
    <path
       inkscape:connector-curvature="0"
       id="path13411"
       style="fill:#ffffff;fill-opacity:1;fill-rule:nonzero;stroke:none"
       d="m -313.73724,-1493.8441 107.8,0 0,-95 -107.8,0 0,95 z" />
    <path
       inkscape:connector-curvature="0"
       id="path13413"
       style="fill:#ffffff;fill-opacity:1;fill-rule:nonzero;stroke:none"
       d="m -516.59384,-1493.8441 175.8999,0 0,-122.1429 -175.8999,0 0,122.1429 z" />
    <path
       inkscape:connector-curvature="0"
       id="path13415"
       style="fill:#00559b;fill-opacity:1;fill-rule:nonzero;stroke:none"
       d="m -615.09234,-1545.8174 -3.5601,0 -4.2783,2.1541 -3.5602,3.5602 -1.436,4.2782 -7.8683,33.5675 0,4.2782 1.436,2.8721 2.8422,2.1541 3.5901,0.718 69.2592,0 4.9963,-1.436 3.5602,-2.8721 2.1541,-4.2782 1.436,-4.9963 0,-28.5713 -2.154,-4.2782 -2.8422,-4.3081 -4.3082,-2.1254 -4.2782,-0.718 -54.9886,0" />
    <ellipse
       style="opacity:1;fill:#00559b;fill-opacity:1;stroke:none;stroke-width:2.4000001;stroke-linejoin:miter;stroke-miterlimit:4;stroke-dasharray:none;stroke-dashoffset:0;stroke-opacity:1"
       id="path13417"
       cx="-573.7395"
       cy="-1408.1267"
       rx="48.215"
       ry="48.215004" />
    <ellipse
       cy="-1408.1267"
       cx="-573.7395"
       id="circle13419"
       style="opacity:1;fill:#ffffff;fill-opacity:1;stroke:none;stroke-width:2.4000001;stroke-linejoin:miter;stroke-miterlimit:4;stroke-dasharray:none;stroke-dashoffset:0;stroke-opacity:1"
       rx="34.999996"
       ry="35" />
    <ellipse
       cy="-1408.1267"
       cx="-244.44952"
       id="circle13401"
       style="opacity:1;fill:#00559b;fill-opacity:1;stroke:none;stroke-width:2.4000001;stroke-linejoin:miter;stroke-miterlimit:4;stroke-dasharray:none;stroke-dashoffset:0;stroke-opacity:1"
       rx="48.215"
       ry="48.215004" />
    <ellipse
       style="opacity:1;fill:#ffffff;fill-opacity:1;stroke:none;stroke-width:2.4000001;stroke-linejoin:miter;stroke-miterlimit:4;stroke-dasharray:none;stroke-dashoffset:0;stroke-opacity:1"
       id="circle13403"
       cx="-244.44952"
       cy="-1408.1267"
       rx="34.999996"
       ry="35" />
  </g>
</svg>
