<?xml version="1.0" encoding="UTF-8" standalone="no"?>
<!-- Created with Inkscape (http://www.inkscape.org/) -->

<svg
   xmlns:dc="http://purl.org/dc/elements/1.1/"
   xmlns:cc="http://creativecommons.org/ns#"
   xmlns:rdf="http://www.w3.org/1999/02/22-rdf-syntax-ns#"
   xmlns:svg="http://www.w3.org/2000/svg"
   xmlns="http://www.w3.org/2000/svg"
   xmlns:sodipodi="http://sodipodi.sourceforge.net/DTD/sodipodi-0.dtd"
   xmlns:inkscape="http://www.inkscape.org/namespaces/inkscape"
   width="600"
   height="800"
   viewBox="0 0 600.00002 800.00008"
   id="svg2"
   version="1.1"
   inkscape:version="0.91 r13725"
   sodipodi:docname="11.svg">
  <defs
     id="defs4" />
  <sodipodi:namedview
     id="base"
     pagecolor="#ffffff"
     bordercolor="#666666"
     borderopacity="1.0"
     inkscape:pageopacity="0.0"
     inkscape:pageshadow="2"
     inkscape:zoom="0.81206796"
     inkscape:cx="485.34455"
     inkscape:cy="338.77563"
     inkscape:document-units="px"
     inkscape:current-layer="layer1"
     showgrid="false"
     fit-margin-top="0"
     fit-margin-left="0"
     fit-margin-right="0"
     fit-margin-bottom="0"
     units="px"
     inkscape:window-width="1920"
     inkscape:window-height="1057"
     inkscape:window-x="-8"
     inkscape:window-y="-8"
     inkscape:window-maximized="1" />
  <metadata
     id="metadata7">
    <rdf:RDF>
      <cc:Work
         rdf:about="">
        <dc:format>image/svg+xml</dc:format>
        <dc:type
           rdf:resource="http://purl.org/dc/dcmitype/StillImage" />
        <dc:title></dc:title>
      </cc:Work>
    </rdf:RDF>
  </metadata>
  <g
     inkscape:label="Layer 1"
     inkscape:groupmode="layer"
     id="layer1"
     transform="translate(663.07947,2120.9567)">
    <rect
       style="opacity:1;fill:#00559b;fill-opacity:1;stroke:none;stroke-width:2.4000001;stroke-linejoin:miter;stroke-miterlimit:4;stroke-dasharray:none;stroke-dashoffset:0;stroke-opacity:1"
       id="rect4182"
       width="600"
       height="800"
       x="-663.07947"
       y="-2120.9565" />
    <rect
       y="-2120.9565"
       x="-663.07947"
       height="800"
       width="600"
       id="rect4184"
       style="opacity:1;fill:#ffffff;fill-opacity:1;stroke:none;stroke-width:2.4000001;stroke-linejoin:miter;stroke-miterlimit:4;stroke-dasharray:none;stroke-dashoffset:0;stroke-opacity:1"
       rx="106.4"
       ry="106.4" />
    <rect
       ry="80"
       rx="80"
       style="opacity:1;fill:#00559b;fill-opacity:1;stroke:none;stroke-width:2.4000001;stroke-linejoin:miter;stroke-miterlimit:4;stroke-dasharray:none;stroke-dashoffset:0;stroke-opacity:1"
       id="rect4195"
       width="547.20007"
       height="747.20007"
       x="-636.67944"
       y="-2094.5566" />
    <path
       inkscape:connector-curvature="0"
       id="path31783"
       style="fill:#ffffff;fill-opacity:1;fill-rule:evenodd;stroke:none"
       d="m -328.70004,-2046.5567 c 52.2254,0.3693 94.74837,44.5972 92.00487,95.7185 -10.1706,105.5548 -114.45707,93.8116 -194.38427,89.3619 l 0,114.1196 -55.2,0 0,-299.2"
       sodipodi:nodetypes="cccccc" />
    <path
       style="opacity:1;fill:#00559b;fill-opacity:1;stroke:none;stroke-width:25;stroke-linejoin:miter;stroke-miterlimit:4;stroke-dasharray:none;stroke-dashoffset:0;stroke-opacity:1"
       d="m -431.07944,-1916.5567 102.01,0 c 21.052,0 38,-16.725 38,-37.5 0,-20.775 -16.948,-37.5 -38,-37.5 l -102.01,0 z"
       id="rect31810"
       inkscape:connector-curvature="0"
       sodipodi:nodetypes="cssscc" />
    <path
       inkscape:connector-curvature="0"
       id="path4186"
       style="fill:#ffffff;fill-opacity:1;fill-rule:evenodd;stroke:none"
       d="m -406.61517,-1477.6595 0,-38.9732 c -32.8043,-3.2361 -78.8399,-4.8673 -81.1345,38.9732 l -125.3298,0 0,-16.4851 0.6638,-1.9915 1.9693,-2.6553 2.6553,-0.6639 0,-17.1766 0.6639,-4.5915 1.9694,-6.6107 3.9565,-5.3106 4.6179,-4.5915 22.4332,-47.547 3.2904,-3.9553 3.9564,-2.6553 4.6468,-1.9915 74.509,0 4.618,0.6638 3.2926,2.6554 2.6553,3.2914 1.3055,4.6192 0,50.9063 7.2555,0 0,-93.2432 1.3055,-5.2553 1.9916,-5.283 3.9563,-3.983 4.6181,-3.2915 5.2554,-1.3011 319.27387,0 5.2839,0.6373 5.282,2.6553 3.9564,3.2915 3.2904,5.283 1.3277,5.283 0,149.2967"
       sodipodi:nodetypes="ccccccccccccccccccccccccccccccccccccc" />
    <path
       inkscape:connector-curvature="0"
       id="path4188"
       style="fill:#00559b;fill-opacity:1;fill-rule:nonzero;stroke:none"
       d="m -487.75257,-1572.7533 -0.6638,-2.6277 -1.9915,-3.9553 -2.6287,-1.9915 -3.9544,-0.6639 -61.9863,0 -3.2904,1.9915 -2.6553,3.2915 -10.566,22.4597 -1.3056,3.2915 1.3056,3.2915 1.9916,2.6553 3.2903,1.3277 75.8715,0 3.2904,-1.9916 2.6288,-3.2914 0.6638,-3.9554 0,-19.8319" />
    <rect
       style="opacity:1;fill:#000000;fill-opacity:1;stroke:none;stroke-width:2.4000001;stroke-linejoin:miter;stroke-miterlimit:4;stroke-dasharray:none;stroke-dashoffset:0;stroke-opacity:1"
       id="rect4169"
       width="78.979774"
       height="140.72122"
       x="-314.09094"
       y="-1631.5734"
       rx="39.489883"
       ry="39.489891" />
    <rect
       ry="15.797643"
       rx="15.798154"
       y="-1607.8815"
       x="-290.39917"
       height="93.337753"
       width="31.59631"
       id="rect4171"
       style="opacity:1;fill:#ffffff;fill-opacity:1;stroke:none;stroke-width:2.4000001;stroke-linejoin:miter;stroke-miterlimit:4;stroke-dasharray:none;stroke-dashoffset:0;stroke-opacity:1" />
    <path
       sodipodi:nodetypes="cccccccc"
       inkscape:connector-curvature="0"
       id="path4220"
       d="m -345.9953,-1491.9515 -24.03487,0 0,-109.9044 -15.4768,11.5871 0,-25.1934 19.7576,-14.7918 19.75407,0 z"
       style="opacity:1;fill:#000000;fill-opacity:1;stroke:none;stroke-width:2.4000001;stroke-linejoin:miter;stroke-miterlimit:4;stroke-dasharray:none;stroke-dashoffset:0;stroke-opacity:1" />
    <path
       style="opacity:1;fill:#000000;fill-opacity:1;stroke:none;stroke-width:2.4000001;stroke-linejoin:miter;stroke-miterlimit:4;stroke-dasharray:none;stroke-dashoffset:0;stroke-opacity:1"
       d="m -193.5545,-1629.8143 0,21.9877 -7.2559,0 0,15.3914 7.2559,0 0,48.3729 c 0,9.7449 7.8452,17.5902 17.5902,17.5902 l 8.795,0 0,-15.3914 -8.795,0 c -1.2182,0 -2.1988,-0.9807 -2.1988,-2.1988 l 0,-48.3729 10.5541,0 0,-15.3914 -10.5541,0 0,-21.9877 z"
       id="rect4257"
       inkscape:connector-curvature="0"
       sodipodi:nodetypes="cccccssccsscccccc" />
    <ellipse
       style="opacity:1;fill:#00559b;fill-opacity:1;stroke:none;stroke-width:2.4000001;stroke-linejoin:miter;stroke-miterlimit:4;stroke-dasharray:none;stroke-dashoffset:0;stroke-opacity:1"
       id="path4325"
       cx="-545.78949"
       cy="-1477.6566"
       rx="39.029999"
       ry="39.030003" />
    <ellipse
       cy="-1477.6566"
       cx="-545.78949"
       id="circle4327"
       style="opacity:1;fill:#ffffff;fill-opacity:1;stroke:none;stroke-width:2.4000001;stroke-linejoin:miter;stroke-miterlimit:4;stroke-dasharray:none;stroke-dashoffset:0;stroke-opacity:1"
       rx="27.049999"
       ry="27.050001" />
    <ellipse
       style="opacity:1;fill:#ffffff;fill-opacity:1;stroke:none;stroke-width:2.4000001;stroke-linejoin:miter;stroke-miterlimit:4;stroke-dasharray:none;stroke-dashoffset:0;stroke-opacity:1"
       id="circle13393"
       cx="-448.82941"
       cy="-1477.6566"
       rx="27.049999"
       ry="27.050001" />
    <ellipse
       cy="-1477.6566"
       cx="-193.54945"
       id="circle13395"
       style="opacity:1;fill:#00559b;fill-opacity:1;stroke:none;stroke-width:2.4000001;stroke-linejoin:miter;stroke-miterlimit:4;stroke-dasharray:none;stroke-dashoffset:0;stroke-opacity:1"
       rx="39.029999"
       ry="39.030003" />
    <ellipse
       style="opacity:1;fill:#ffffff;fill-opacity:1;stroke:none;stroke-width:2.4000001;stroke-linejoin:miter;stroke-miterlimit:4;stroke-dasharray:none;stroke-dashoffset:0;stroke-opacity:1"
       id="circle13397"
       cx="-193.54945"
       cy="-1477.6566"
       rx="27.049999"
       ry="27.050001" />
  </g>
</svg>
