<?xml version="1.0" encoding="UTF-8" standalone="no"?>
<!-- Created with Inkscape (http://www.inkscape.org/) -->

<svg
   xmlns:dc="http://purl.org/dc/elements/1.1/"
   xmlns:cc="http://creativecommons.org/ns#"
   xmlns:rdf="http://www.w3.org/1999/02/22-rdf-syntax-ns#"
   xmlns:svg="http://www.w3.org/2000/svg"
   xmlns="http://www.w3.org/2000/svg"
   xmlns:sodipodi="http://sodipodi.sourceforge.net/DTD/sodipodi-0.dtd"
   xmlns:inkscape="http://www.inkscape.org/namespaces/inkscape"
   width="600"
   height="800"
   viewBox="0 0 600.00002 800.00008"
   id="svg2"
   version="1.1"
   inkscape:version="0.91 r13725"
   sodipodi:docname="11.svg">
  <defs
     id="defs4" />
  <sodipodi:namedview
     id="base"
     pagecolor="#ffffff"
     bordercolor="#666666"
     borderopacity="1.0"
     inkscape:pageopacity="0.0"
     inkscape:pageshadow="2"
     inkscape:zoom="0.57421876"
     inkscape:cx="97.977927"
     inkscape:cy="209.60039"
     inkscape:document-units="px"
     inkscape:current-layer="layer1"
     showgrid="false"
     fit-margin-top="0"
     fit-margin-left="0"
     fit-margin-right="0"
     fit-margin-bottom="0"
     units="px"
     inkscape:window-width="1920"
     inkscape:window-height="1057"
     inkscape:window-x="-8"
     inkscape:window-y="-8"
     inkscape:window-maximized="1" />
  <metadata
     id="metadata7">
    <rdf:RDF>
      <cc:Work
         rdf:about="">
        <dc:format>image/svg+xml</dc:format>
        <dc:type
           rdf:resource="http://purl.org/dc/dcmitype/StillImage" />
        <dc:title></dc:title>
      </cc:Work>
    </rdf:RDF>
  </metadata>
  <g
     inkscape:label="Layer 1"
     inkscape:groupmode="layer"
     id="layer1"
     transform="translate(979.87976,1804.1563)">
    <rect
       style="opacity:1;fill:#00559b;fill-opacity:1;stroke:none;stroke-width:2.4000001;stroke-linejoin:miter;stroke-miterlimit:4;stroke-dasharray:none;stroke-dashoffset:0;stroke-opacity:1"
       id="rect4182"
       width="600"
       height="800"
       x="-979.87976"
       y="-1804.1562" />
    <rect
       y="-1804.1562"
       x="-979.87976"
       height="800"
       width="600"
       id="rect4184"
       style="opacity:1;fill:#ffffff;fill-opacity:1;stroke:none;stroke-width:2.4000001;stroke-linejoin:miter;stroke-miterlimit:4;stroke-dasharray:none;stroke-dashoffset:0;stroke-opacity:1"
       rx="106.4"
       ry="106.4" />
    <rect
       ry="80"
       rx="80"
       style="opacity:1;fill:#00559b;fill-opacity:1;stroke:none;stroke-width:2.4000001;stroke-linejoin:miter;stroke-miterlimit:4;stroke-dasharray:none;stroke-dashoffset:0;stroke-opacity:1"
       id="rect4195"
       width="547.20007"
       height="747.20007"
       x="-953.47974"
       y="-1777.7563" />
    <path
       inkscape:connector-curvature="0"
       id="path31783"
       style="fill:#ffffff;fill-opacity:1;fill-rule:evenodd;stroke:none"
       d="m -645.50036,-1729.7563 c 52.2254,0.3693 94.74837,44.5972 92.00487,95.7185 -10.1706,105.5548 -114.45707,93.8116 -194.38427,89.3619 l 0,114.1196 -55.2,0 0,-299.2"
       sodipodi:nodetypes="cccccc" />
    <path
       style="opacity:1;fill:#00559b;fill-opacity:1;stroke:none;stroke-width:25;stroke-linejoin:miter;stroke-miterlimit:4;stroke-dasharray:none;stroke-dashoffset:0;stroke-opacity:1"
       d="m -747.87976,-1599.7563 102.01,0 c 21.052,0 38,-16.725 38,-37.5 0,-20.775 -16.948,-37.5 -38,-37.5 l -102.01,0 z"
       id="rect31810"
       inkscape:connector-curvature="0"
       sodipodi:nodetypes="cssscc" />
    <path
       style="fill:#ffffff;fill-opacity:1;fill-rule:nonzero;stroke:none"
       d="m -622.31388,-1080.5562 c 10.4164,-31.3336 22.374,-69.1595 35.3515,-105.4178 4.6096,-12.0611 10.5425,-14.801 18.8862,-14.8355 l 4.5348,0 0,-20.5917 -64.7159,0 0,20.0855 c 3.1081,-7e-4 5.7464,-0.08 8.5402,0.02 14.0685,1.4567 5.5048,19.0254 3.2364,25.359 l -22.4973,68.6982 -21.5058,-68.7643 c -2.2977,-6.3793 -10.7714,-23.8403 3.257,-25.2929 2.906,-0.056 6.0104,-0.022 8.5415,-0.022 l 0,-20.0842 -77.8141,0 0,20.8118 c 8.9908,-0.1491 15.0607,1.5103 17.4997,8.7381 l 34.5813,111.2952 z"
       id="path4149"
       inkscape:connector-curvature="0"
       sodipodi:nodetypes="ccccccccccccccccccc" />
    <path
       sodipodi:nodetypes="cccccccccccccccccccccc"
       inkscape:connector-curvature="0"
       id="path4172"
       d="m -737.44458,-1380.556 c -10.4164,31.3337 -22.3744,69.1591 -35.352,105.4174 -4.6096,12.061 -10.5429,14.8018 -18.8866,14.8363 l -4.5346,0 0,20.5911 64.7166,0 0,-20.0848 c -3.1081,7e-4 -5.7471,0.079 -8.5409,-0.022 -14.0686,-1.4567 -5.5043,-19.0247 -3.2358,-25.3582 3.8981,0.015 44.0028,0.066 44.0028,0.066 2.2976,6.3792 10.7706,23.8396 -3.2578,25.2922 -2.906,0.056 -6.0098,0.022 -8.5409,0.022 l 0,20.0847 77.8138,0 0,-20.8111 c -8.9908,0.1491 -15.0608,-1.5111 -17.4999,-8.739 l -34.5814,-111.295 z m 16.6634,26.6812 16.2451,51.683 -33.3268,0 z"
       style="fill:#ffffff;fill-opacity:1;fill-rule:nonzero;stroke:none" />
  </g>
</svg>
