<?xml version="1.0" encoding="UTF-8" standalone="no"?>
<!-- Created with Inkscape (http://www.inkscape.org/) -->

<svg
   xmlns:dc="http://purl.org/dc/elements/1.1/"
   xmlns:cc="http://creativecommons.org/ns#"
   xmlns:rdf="http://www.w3.org/1999/02/22-rdf-syntax-ns#"
   xmlns:svg="http://www.w3.org/2000/svg"
   xmlns="http://www.w3.org/2000/svg"
   xmlns:sodipodi="http://sodipodi.sourceforge.net/DTD/sodipodi-0.dtd"
   xmlns:inkscape="http://www.inkscape.org/namespaces/inkscape"
   width="600"
   height="800"
   viewBox="0 0 600.00002 800.00008"
   id="svg2"
   version="1.1"
   inkscape:version="0.91 r13725"
   sodipodi:docname="11.svg">
  <defs
     id="defs4" />
  <sodipodi:namedview
     id="base"
     pagecolor="#ffffff"
     bordercolor="#666666"
     borderopacity="1.0"
     inkscape:pageopacity="0.0"
     inkscape:pageshadow="2"
     inkscape:zoom="0.81206796"
     inkscape:cx="291.39969"
     inkscape:cy="313.01084"
     inkscape:document-units="px"
     inkscape:current-layer="layer1"
     showgrid="false"
     fit-margin-top="0"
     fit-margin-left="0"
     fit-margin-right="0"
     fit-margin-bottom="0"
     units="px"
     inkscape:window-width="1920"
     inkscape:window-height="1057"
     inkscape:window-x="-8"
     inkscape:window-y="-8"
     inkscape:window-maximized="1" />
  <metadata
     id="metadata7">
    <rdf:RDF>
      <cc:Work
         rdf:about="">
        <dc:format>image/svg+xml</dc:format>
        <dc:type
           rdf:resource="http://purl.org/dc/dcmitype/StillImage" />
        <dc:title></dc:title>
      </cc:Work>
    </rdf:RDF>
  </metadata>
  <g
     inkscape:label="Layer 1"
     inkscape:groupmode="layer"
     id="layer1"
     transform="translate(874.27966,1909.7565)">
    <rect
       style="opacity:1;fill:#00559b;fill-opacity:1;stroke:none;stroke-width:2.4000001;stroke-linejoin:miter;stroke-miterlimit:4;stroke-dasharray:none;stroke-dashoffset:0;stroke-opacity:1"
       id="rect4182"
       width="600"
       height="800"
       x="-874.27966"
       y="-1909.7565" />
    <rect
       y="-1909.7565"
       x="-874.27966"
       height="800"
       width="600"
       id="rect4184"
       style="opacity:1;fill:#ffffff;fill-opacity:1;stroke:none;stroke-width:2.4000001;stroke-linejoin:miter;stroke-miterlimit:4;stroke-dasharray:none;stroke-dashoffset:0;stroke-opacity:1"
       rx="106.4"
       ry="106.4" />
    <rect
       ry="80"
       rx="80"
       style="opacity:1;fill:#00559b;fill-opacity:1;stroke:none;stroke-width:2.4000001;stroke-linejoin:miter;stroke-miterlimit:4;stroke-dasharray:none;stroke-dashoffset:0;stroke-opacity:1"
       id="rect4195"
       width="547.20007"
       height="747.20007"
       x="-847.87964"
       y="-1883.3566" />
    <path
       inkscape:connector-curvature="0"
       id="path31783"
       style="fill:#ffffff;fill-opacity:1;fill-rule:evenodd;stroke:none"
       d="m -539.90023,-1835.3565 c 52.2254,0.3693 94.74837,44.5972 92.00487,95.7185 -10.1706,105.5548 -114.45707,93.8116 -194.38427,89.3619 l 0,114.1196 -55.2,0 0,-299.2"
       sodipodi:nodetypes="cccccc" />
    <path
       style="opacity:1;fill:#00559b;fill-opacity:1;stroke:none;stroke-width:25;stroke-linejoin:miter;stroke-miterlimit:4;stroke-dasharray:none;stroke-dashoffset:0;stroke-opacity:1"
       d="m -642.27963,-1705.3565 102.01,0 c 21.052,0 38,-16.725 38,-37.5 0,-20.775 -16.948,-37.5 -38,-37.5 l -102.01,0 z"
       id="rect31810"
       inkscape:connector-curvature="0"
       sodipodi:nodetypes="cssscc" />
    <path
       inkscape:connector-curvature="0"
       id="path4195"
       style="fill:#ffffff;fill-opacity:1;fill-rule:evenodd;stroke:none"
       d="m -405.31994,-1425.3769 0,34.7155 0.59825,0.5982 9.89273,8.6725 0,-58.8633 0.62317,-3.713 1.86949,-3.1157 3.71304,-2.4667 3.71302,-1.2464 3.71303,0.6232 3.08986,2.4666 2.49266,3.0899 1.21934,3.739 0,90.4889 0.62315,1.2463 4.33621,12.3854 3.11583,12.3854 1.84456,13.0346 c 1.21934,23.7323 -3.21969,42.8167 -14.22895,63.8484 -53.20274,91.5794 -188.24787,69.7427 -210.52603,-34.0923 l 10.51591,0 3.71303,12.3854 0.62317,1.8696 19.1883,-8.0752 -1.84457,-6.1798 29.10702,-1.8695 28.45789,-3.713 24.14766,-3.713 3.73899,-1.2463 3.71301,-3.1159 1.84458,-3.713 1.24633,-4.3362 -1.24633,-4.3362 -1.84458,-3.713 -3.08985,-3.0899 -4.36215,-1.2463 -4.3362,0 -23.52449,3.7389 -28.48385,3.064 -28.48386,1.8695 0,-2.4667 1.86951,-11.1651 3.08985,-11.165 -19.1883,-7.426 -3.71303,11.7622 -1.84456,12.4114 -0.64809,8.6723 -10.51592,-0.6231 c 2.85618,-58.3439 45.43914,-104.1986 104.01669,-109.7031 l -7.42605,-2.4927 -3.71302,-2.4667 -2.46671,-3.0898 -0.62316,-3.7131 0,-3.739 2.49266,-3.713 1.22141,-1.2464 35.28673,13.0086 c 16.2542,-13.372 48.86654,-35.2608 56.99365,-1.2214" />
    <path
       inkscape:connector-curvature="0"
       id="path4197"
       style="fill:#ffffff;fill-opacity:1;fill-rule:nonzero;stroke:none"
       d="m -643.10462,-1357.8153 7.42606,36.559 2.49266,11.7883 -19.18831,-2.4668 -27.88664,-4.9852 -6.80289,-21.681 -11.13908,13.6317 -24.77087,5.5825 c 71.09281,21.0838 154.07766,25.9393 227.22171,13.6318 l 17.34476,-2.4667 2.46669,0 2.49266,1.8445 1.24632,2.4668 -0.62316,2.4926 -1.84455,2.4667 -1.86949,0.6481 -21.0578,3.713 -28.48386,3.0899 c -73.40369,7.6857 -158.85523,-1.8176 -228.49399,-26.6404 l -26.58834,-9.9447 -2.51867,-1.8445 -0.59825,-3.1158 1.24634,-2.4667 1.86955,-1.8446 3.06388,-0.6481 1.86945,0.6481 26.61434,9.8928 9.29556,3.0898 1.86956,-3.0898 3.08988,-2.4668 22.27812,-14.878 17.96794,-41.5445 1.84456,-3.713 3.739,-4.3102 4.93339,-3.739 5.58252,-1.8694 c 24.27747,-5.3489 35.105,22.9013 35.90991,42.1676" />
    <path
       inkscape:connector-curvature="0"
       id="path4199"
       style="fill:#ffffff;fill-opacity:1;fill-rule:nonzero;stroke:none"
       d="m -628.25251,-1283.4509 -29.08106,-3.713 -28.50981,-4.9593 -21.655,41.5183 -13.00854,60.7586 3.08978,1.2193 5.58258,0 5.55655,-1.2193 4.36216,-3.0899 3.71303,-3.739 2.46669,-4.9333 14.2549,-44.037 21.03183,-29.7562 30.35336,88.6453 4.93339,0 4.95935,-1.8695 3.71304,-3.0898 2.49265,-3.7131 1.24633,-4.9594 0,-4.9593 -15.50123,-78.1034" />
    <path
       inkscape:connector-curvature="0"
       id="path4201"
       style="fill:#00559b;fill-opacity:1;fill-rule:evenodd;stroke:none"
       d="m -553.32171,-1373.9397 14.85212,14.8781 -6.8029,8.6723 -6.20569,9.9188 -0.59823,1.8695 -19.18832,-7.4262 3.71303,-7.452 6.17973,-10.5418 8.04922,-9.9187" />
    <path
       inkscape:connector-curvature="0"
       id="path4203"
       style="fill:#00559b;fill-opacity:1;fill-rule:evenodd;stroke:none"
       d="m -547.76515,-1378.8992 14.25491,14.8782 1.84456,-1.8695 9.29556,-6.8029 9.89274,-5.5825 -8.02326,-19.2143 -11.16503,6.1797 -9.89274,7.452 -6.20571,4.9593" />
    <path
       inkscape:connector-curvature="0"
       id="path4205"
       style="fill:#00559b;fill-opacity:1;fill-rule:evenodd;stroke:none"
       d="m -513.69877,-1399.9829 8.04922,19.2143 2.46669,-1.2193 10.54187,-2.4927 11.13909,-1.2463 0,-21.0578 -12.3854,1.2213 -12.38542,3.1159 -7.42606,2.4667" />
    <path
       inkscape:connector-curvature="0"
       id="path4207"
       style="fill:#00559b;fill-opacity:1;fill-rule:evenodd;stroke:none"
       d="m -474.07583,-1406.7858 0,21.0578 2.49265,0 11.13907,1.8695 11.1391,3.0899 7.42603,-19.2143 -11.76224,-3.713 -12.38541,-2.4667 -8.0492,-0.6232" />
    <path
       inkscape:connector-curvature="0"
       id="path4209"
       style="fill:#00559b;fill-opacity:1;fill-rule:evenodd;stroke:none"
       d="m -434.42695,-1397.4902 -8.07519,19.2143 1.8695,1.2463 9.9187,5.5824 8.64644,7.4262 14.87807,-14.8782 -9.91873,-8.0491 -10.51591,-6.8289 -6.80288,-3.713" />
    <path
       inkscape:connector-curvature="0"
       id="path4211"
       style="fill:#00559b;fill-opacity:1;fill-rule:evenodd;stroke:none"
       d="m -402.25605,-1373.9397 -14.22894,14.8781 1.24634,1.8446 6.80288,9.3214 5.55655,9.2956 19.21427,-7.426 -6.17973,-11.191 -6.82884,-10.516 -5.58252,-6.2057" />
    <path
       inkscape:connector-curvature="0"
       id="path4213"
       style="fill:#00559b;fill-opacity:1;fill-rule:evenodd;stroke:none"
       d="m -381.19825,-1339.2242 -18.56514,7.426 0.62318,2.4927 2.46669,11.165 1.24632,11.1391 21.03185,0 -1.21934,-12.3854 -3.08986,-12.4114 -2.49267,-7.426" />
    <path
       inkscape:connector-curvature="0"
       id="path4215"
       style="fill:#00559b;fill-opacity:1;fill-rule:evenodd;stroke:none"
       d="m -374.39535,-1299.5493 -21.03185,0 0,2.4666 -1.24632,11.1651 -3.08987,10.5159 18.56514,8.0752 3.71303,-11.7623 2.49266,-12.4113 0.59824,-8.0492" />
    <path
       inkscape:connector-curvature="0"
       id="path4217"
       style="fill:#00559b;fill-opacity:1;fill-rule:evenodd;stroke:none"
       d="m -383.66496,-1260.5237 -19.21425,-8.0492 -1.22142,2.4668 -5.58252,9.9447 -6.80288,8.6723 14.22894,14.2549 8.04923,-9.2955 6.82884,-10.5418 3.71304,-7.4522" />
    <path
       inkscape:connector-curvature="0"
       id="path4219"
       style="fill:#00559b;fill-opacity:1;fill-rule:evenodd;stroke:none"
       d="m -422.0675,-1242.5297 14.87807,14.8781 -6.20569,4.9593 -10.51591,7.4261 -10.51592,5.5825 -8.07519,-18.5911 9.91872,-5.5825 8.67239,-6.8289 1.84456,-1.8446" />
    <path
       inkscape:connector-curvature="0"
       id="path4221"
       style="fill:#00559b;fill-opacity:1;fill-rule:evenodd;stroke:none"
       d="m -449.30501,-1225.7822 7.42603,19.2144 -7.42603,2.4666 -12.38545,2.4927 -12.38538,1.2214 0,-20.4606 11.13907,-1.2193 11.13907,-2.4927 2.49267,-1.2214" />
    <path
       inkscape:connector-curvature="0"
       id="path4223"
       style="fill:#00559b;fill-opacity:1;fill-rule:evenodd;stroke:none"
       d="m -481.5019,-1220.8487 0,20.4605 -8.04923,-0.6231 -12.3854,-1.8695 -11.76224,-3.687 8.04922,-19.2144 10.54188,3.0899 11.13906,1.8446 2.46671,0" />
    <path
       inkscape:connector-curvature="0"
       id="path4225"
       style="fill:#00559b;fill-opacity:1;fill-rule:evenodd;stroke:none"
       d="m -512.47842,-1228.2748 -8.02324,18.5911 -6.82885,-3.1158 -11.13908,-6.8029 -9.29556,-8.0492 14.25492,-14.8781 9.29555,7.4261 9.26957,5.5824 2.4667,1.2464" />
    <path
       inkscape:connector-curvature="0"
       id="path4227"
       style="fill:#00559b;fill-opacity:1;fill-rule:evenodd;stroke:none"
       d="m -538.46959,-1247.4891 -14.85212,14.2549 -4.95935,-5.5824 -7.42608,-10.5419 -5.55655,-11.1652 19.18831,-8.0492 4.9334,9.9188 6.80287,9.2956 1.86952,1.8694" />
    <circle
       style="opacity:1;fill:#ffffff;fill-opacity:1;stroke:none;stroke-width:1;stroke-linejoin:miter;stroke-miterlimit:4;stroke-dasharray:none;stroke-dashoffset:0;stroke-opacity:1"
       id="path4229"
       cx="-681.53967"
       cy="-1425.3765"
       r="19.139999" />
    <circle
       cy="-1468.0564"
       cx="-412.67969"
       id="ellipse4240"
       style="opacity:1;fill:#ffffff;fill-opacity:1;stroke:none;stroke-width:1;stroke-linejoin:miter;stroke-miterlimit:4;stroke-dasharray:none;stroke-dashoffset:0;stroke-opacity:1"
       r="17.5" />
  </g>
</svg>
