<?xml version="1.0" encoding="UTF-8" standalone="no"?>
<!-- Created with Inkscape (http://www.inkscape.org/) -->

<svg
   xmlns:dc="http://purl.org/dc/elements/1.1/"
   xmlns:cc="http://creativecommons.org/ns#"
   xmlns:rdf="http://www.w3.org/1999/02/22-rdf-syntax-ns#"
   xmlns:svg="http://www.w3.org/2000/svg"
   xmlns="http://www.w3.org/2000/svg"
   xmlns:sodipodi="http://sodipodi.sourceforge.net/DTD/sodipodi-0.dtd"
   xmlns:inkscape="http://www.inkscape.org/namespaces/inkscape"
   width="600"
   height="800"
   viewBox="0 0 600.00002 800.00008"
   id="svg2"
   version="1.1"
   inkscape:version="0.91 r13725"
   sodipodi:docname="11.svg">
  <defs
     id="defs4" />
  <sodipodi:namedview
     id="base"
     pagecolor="#ffffff"
     bordercolor="#666666"
     borderopacity="1.0"
     inkscape:pageopacity="0.0"
     inkscape:pageshadow="2"
     inkscape:zoom="0.57421876"
     inkscape:cx="301.75181"
     inkscape:cy="226.58324"
     inkscape:document-units="px"
     inkscape:current-layer="layer1"
     showgrid="false"
     fit-margin-top="0"
     fit-margin-left="0"
     fit-margin-right="0"
     fit-margin-bottom="0"
     units="px"
     inkscape:window-width="1920"
     inkscape:window-height="1057"
     inkscape:window-x="-8"
     inkscape:window-y="-8"
     inkscape:window-maximized="1" />
  <metadata
     id="metadata7">
    <rdf:RDF>
      <cc:Work
         rdf:about="">
        <dc:format>image/svg+xml</dc:format>
        <dc:type
           rdf:resource="http://purl.org/dc/dcmitype/StillImage" />
        <dc:title></dc:title>
      </cc:Work>
    </rdf:RDF>
  </metadata>
  <g
     inkscape:label="Layer 1"
     inkscape:groupmode="layer"
     id="layer1"
     transform="translate(979.87976,1804.1563)">
    <rect
       style="opacity:1;fill:#00559b;fill-opacity:1;stroke:none;stroke-width:2.4000001;stroke-linejoin:miter;stroke-miterlimit:4;stroke-dasharray:none;stroke-dashoffset:0;stroke-opacity:1"
       id="rect4182"
       width="600"
       height="800"
       x="-979.87976"
       y="-1804.1562" />
    <rect
       y="-1804.1562"
       x="-979.87976"
       height="800"
       width="600"
       id="rect4184"
       style="opacity:1;fill:#ffffff;fill-opacity:1;stroke:none;stroke-width:2.4000001;stroke-linejoin:miter;stroke-miterlimit:4;stroke-dasharray:none;stroke-dashoffset:0;stroke-opacity:1"
       rx="106.4"
       ry="106.4" />
    <rect
       ry="80"
       rx="80"
       style="opacity:1;fill:#00559b;fill-opacity:1;stroke:none;stroke-width:2.4000001;stroke-linejoin:miter;stroke-miterlimit:4;stroke-dasharray:none;stroke-dashoffset:0;stroke-opacity:1"
       id="rect4195"
       width="547.20007"
       height="747.20007"
       x="-953.47974"
       y="-1777.7563" />
    <path
       inkscape:connector-curvature="0"
       id="path31783"
       style="fill:#ffffff;fill-opacity:1;fill-rule:evenodd;stroke:none"
       d="m -645.50034,-1729.7564 c 52.2254,0.3693 94.74837,44.5972 92.00487,95.7185 -10.1706,105.5548 -114.45707,93.8116 -194.38427,89.3619 l 0,114.1196 -55.2,0 0,-299.2"
       sodipodi:nodetypes="cccccc" />
    <path
       style="opacity:1;fill:#00559b;fill-opacity:1;stroke:none;stroke-width:25;stroke-linejoin:miter;stroke-miterlimit:4;stroke-dasharray:none;stroke-dashoffset:0;stroke-opacity:1"
       d="m -747.87974,-1599.7564 102.01,0 c 21.052,0 38,-16.725 38,-37.5 0,-20.775 -16.948,-37.5 -38,-37.5 l -102.01,0 z"
       id="rect31810"
       inkscape:connector-curvature="0"
       sodipodi:nodetypes="cssscc" />
    <path
       style="opacity:1;fill:#ffffff;fill-opacity:1;stroke:none;stroke-width:6;stroke-linejoin:miter;stroke-miterlimit:4;stroke-dasharray:none;stroke-dashoffset:0;stroke-opacity:1"
       d="m -812.97976,-1230.5562 133.1,-175.3 133.1,175.3 -133.1,175.3 z"
       id="rect13361"
       inkscape:connector-curvature="0"
       sodipodi:nodetypes="ccccc" />
    <path
       inkscape:connector-curvature="0"
       id="path13375"
       d="m -645.09756,-1301.0562 c -21.0807,0 -40.6042,18.3334 -39.9344,39.9332 l 23.7086,0 c 1.4066,-8.3385 6.7822,-16.2245 16.2258,-16.2245 7.719,0 16.2077,7.5688 16.2077,15.5886 0,5.1571 -1.8758,6.4466 -3.7344,10.6153 l -52.4077,65.5025 0,25.5849 79.852,0 0,-23.7087 -50.534,0 41.8106,-52.409 c 4.906,-7.6849 8.7234,-15.6556 8.7234,-24.9491 0,-21.6159 -18.2508,-39.9332 -39.9176,-39.9332 z"
       style="fill:#000000;fill-opacity:1;fill-rule:nonzero;stroke:none" />
    <path
       style="opacity:1;fill:#000000;fill-opacity:1;stroke:none;stroke-width:2.4000001;stroke-linejoin:miter;stroke-miterlimit:4;stroke-dasharray:none;stroke-dashoffset:0;stroke-opacity:1"
       d="m -717.04086,-1160.1562 -24.2946,0 0,-111.0944 -15.6443,11.7126 0,-25.4662 19.9715,-14.952 19.9674,0 z"
       id="path13377"
       inkscape:connector-curvature="0"
       sodipodi:nodetypes="cccccccc" />
  </g>
</svg>
