<?xml version="1.0" encoding="UTF-8" standalone="no"?>
<!-- Created with Inkscape (http://www.inkscape.org/) -->

<svg
   xmlns:dc="http://purl.org/dc/elements/1.1/"
   xmlns:cc="http://creativecommons.org/ns#"
   xmlns:rdf="http://www.w3.org/1999/02/22-rdf-syntax-ns#"
   xmlns:svg="http://www.w3.org/2000/svg"
   xmlns="http://www.w3.org/2000/svg"
   xmlns:sodipodi="http://sodipodi.sourceforge.net/DTD/sodipodi-0.dtd"
   xmlns:inkscape="http://www.inkscape.org/namespaces/inkscape"
   width="600"
   height="800"
   viewBox="0 0 600.00002 800.00008"
   id="svg2"
   version="1.1"
   inkscape:version="0.91 r13725"
   sodipodi:docname="11.svg">
  <defs
     id="defs4" />
  <sodipodi:namedview
     id="base"
     pagecolor="#ffffff"
     bordercolor="#666666"
     borderopacity="1.0"
     inkscape:pageopacity="0.0"
     inkscape:pageshadow="2"
     inkscape:zoom="0.81206796"
     inkscape:cx="308.01802"
     inkscape:cy="392.58554"
     inkscape:document-units="px"
     inkscape:current-layer="layer1"
     showgrid="false"
     fit-margin-top="0"
     fit-margin-left="0"
     fit-margin-right="0"
     fit-margin-bottom="0"
     units="px"
     inkscape:window-width="1920"
     inkscape:window-height="1057"
     inkscape:window-x="-8"
     inkscape:window-y="-8"
     inkscape:window-maximized="1" />
  <metadata
     id="metadata7">
    <rdf:RDF>
      <cc:Work
         rdf:about="">
        <dc:format>image/svg+xml</dc:format>
        <dc:type
           rdf:resource="http://purl.org/dc/dcmitype/StillImage" />
        <dc:title></dc:title>
      </cc:Work>
    </rdf:RDF>
  </metadata>
  <g
     inkscape:label="Layer 1"
     inkscape:groupmode="layer"
     id="layer1"
     transform="translate(742.27954,2041.7567)">
    <rect
       style="opacity:1;fill:#00559b;fill-opacity:1;stroke:none;stroke-width:2.4000001;stroke-linejoin:miter;stroke-miterlimit:4;stroke-dasharray:none;stroke-dashoffset:0;stroke-opacity:1"
       id="rect4182"
       width="600"
       height="800"
       x="-742.27954"
       y="-2041.7566" />
    <rect
       y="-2041.7566"
       x="-742.27954"
       height="800"
       width="600"
       id="rect4184"
       style="opacity:1;fill:#ffffff;fill-opacity:1;stroke:none;stroke-width:2.4000001;stroke-linejoin:miter;stroke-miterlimit:4;stroke-dasharray:none;stroke-dashoffset:0;stroke-opacity:1"
       rx="106.4"
       ry="106.4" />
    <rect
       ry="80"
       rx="80"
       style="opacity:1;fill:#00559b;fill-opacity:1;stroke:none;stroke-width:2.4000001;stroke-linejoin:miter;stroke-miterlimit:4;stroke-dasharray:none;stroke-dashoffset:0;stroke-opacity:1"
       id="rect4195"
       width="547.20007"
       height="747.20007"
       x="-715.87952"
       y="-2015.3567" />
    <path
       inkscape:connector-curvature="0"
       id="path31783"
       style="fill:#ffffff;fill-opacity:1;fill-rule:evenodd;stroke:none"
       d="m -407.90011,-1967.3567 c 52.2254,0.3693 94.74837,44.5972 92.00487,95.7185 -10.1706,105.5548 -114.45707,93.8116 -194.38427,89.3619 l 0,114.1196 -55.2,0 0,-299.2"
       sodipodi:nodetypes="cccccc" />
    <path
       style="opacity:1;fill:#00559b;fill-opacity:1;stroke:none;stroke-width:25;stroke-linejoin:miter;stroke-miterlimit:4;stroke-dasharray:none;stroke-dashoffset:0;stroke-opacity:1"
       d="m -510.27951,-1837.3567 102.01,0 c 21.052,0 38,-16.725 38,-37.5 0,-20.775 -16.948,-37.5 -38,-37.5 l -102.01,0 z"
       id="rect31810"
       inkscape:connector-curvature="0"
       sodipodi:nodetypes="cssscc" />
    <path
       inkscape:connector-curvature="0"
       id="path13371-6"
       style="fill:#ffffff;fill-opacity:1;fill-rule:evenodd;stroke:none"
       d="m -686.56434,-1380.6271 -2.8426,-0.7469 -2.1544,-2.1257 -0.7182,-3.5607 c 3.5009,-5.3262 4.0994,-9.9042 2.1544,-16.4572 l -0.7181,-0.6894 -1.4363,-2.8726 0.7182,-3.5607 2.1544,-2.1257 8.5577,-6.4632 0,-50.0001 0.7182,-4.2788 2.8725,-3.5607 3.5607,-2.8427 2.1544,0 47.1275,-67.8635 0,0.7181 c -7.4506,-5.5655 -4.3686,-12.3579 2.8725,-15.7392 132.8845,-12.9562 260.6224,-12.8664 393.53677,-0.6894 l 35.7271,94.255 0,46.4394 -0.7181,4.2788 -2.1257,3.5907 -3.5907,2.1544 -4.2788,1.4052 3.5607,0.7181 3.5608,2.1544 2.8725,3.5607 0.7181,4.2789 -0.7181,4.2789 -2.1257,3.5907 -3.5907,2.1544 -4.2788,1.4051 -49.9998,8.5937"
       sodipodi:nodetypes="cccccccccccccccccccccccccccccccccc" />
    <path
       inkscape:connector-curvature="0"
       id="path13373-6"
       style="fill:#00559b;fill-opacity:1;fill-rule:nonzero;stroke:none"
       d="m -560.11314,-1554.206 0.6894,0 5.0269,0.7181 4.9671,2.1545 4.3088,4.2789 2.1233,4.2789 0.7181,5.7151 0,34.261 -0.7181,5.7151 -2.1233,4.2789 -4.3088,4.3088 -4.9671,2.1543 -4.3087,0.6895 -60.7122,0 -4.2789,1.4362 -2.8725,2.8725 -4.9671,7.1216 -2.1544,1.4363 -2.1544,0.7181 -13.5547,0 -2.8726,-0.7181 -2.1544,-2.1546 -0.6894,-2.8425 0.6894,-2.8725 45.003,-62.8367 3.5907,-4.2789 4.9671,-2.1544 2.8725,-0.7181 37.8815,-3.5608" />
    <path
       inkscape:connector-curvature="0"
       id="path13377-4"
       style="fill:#00559b;fill-opacity:1;fill-rule:nonzero;stroke:none"
       d="m -220.85527,-1504.9241 -13.5547,-35.7271 -2.8726,-4.2788 -4.2789,-3.5609 -4.997,-2.1542 -2.1543,-0.6894 -3.5608,0 -58.58767,-4.3089 -58.5577,-2.1545 -4.997,0 -4.997,2.8726 -3.5907,3.5908 -2.8426,4.2788 -0.7181,5.7152 0,38.5398 0.7181,5.7151 2.8426,4.2789 3.5907,4.3088 4.997,2.1543 4.2789,0.6895 136.41527,0 2.1544,-0.6895 4.997,-1.4362 3.5906,-2.8725 2.1257,-4.2789 1.4363,-4.997 -1.4363,-4.9971" />
    <ellipse
       style="opacity:1;fill:#00559b;fill-opacity:1;stroke:none;stroke-width:2.4000001;stroke-linejoin:miter;stroke-miterlimit:4;stroke-dasharray:none;stroke-dashoffset:0;stroke-opacity:1"
       id="path13379-2"
       cx="-608.46454"
       cy="-1380.3016"
       rx="50"
       ry="50.000004" />
    <ellipse
       cy="-1380.3016"
       cx="-608.46454"
       id="circle13381-2"
       style="opacity:1;fill:#ffffff;fill-opacity:1;stroke:none;stroke-width:2.4000001;stroke-linejoin:miter;stroke-miterlimit:4;stroke-dasharray:none;stroke-dashoffset:0;stroke-opacity:1"
       rx="33.215"
       ry="33.215004" />
    <ellipse
       cy="-1380.3016"
       cx="-303.34442"
       id="circle13373-5"
       style="opacity:1;fill:#00559b;fill-opacity:1;stroke:none;stroke-width:2.4000001;stroke-linejoin:miter;stroke-miterlimit:4;stroke-dasharray:none;stroke-dashoffset:0;stroke-opacity:1"
       rx="50"
       ry="50.000004" />
    <ellipse
       style="opacity:1;fill:#ffffff;fill-opacity:1;stroke:none;stroke-width:2.4000001;stroke-linejoin:miter;stroke-miterlimit:4;stroke-dasharray:none;stroke-dashoffset:0;stroke-opacity:1"
       id="circle13375-0"
       cx="-303.34442"
       cy="-1380.3016"
       rx="33.215"
       ry="33.215004" />
    <ellipse
       style="opacity:1;fill:#00559b;fill-opacity:1;stroke:none;stroke-width:6;stroke-linejoin:miter;stroke-miterlimit:4;stroke-dasharray:none;stroke-dashoffset:0;stroke-opacity:1"
       id="path13365"
       cx="-456.2796"
       cy="-1472.2266"
       rx="122"
       ry="122.00001" />
    <ellipse
       style="opacity:1;fill:#ffffff;fill-opacity:1;stroke:none;stroke-width:6;stroke-linejoin:miter;stroke-miterlimit:4;stroke-dasharray:none;stroke-dashoffset:0;stroke-opacity:1"
       id="circle13497-6"
       cx="-456.2796"
       cy="-1472.2266"
       rx="115"
       ry="115.00001" />
    <ellipse
       style="opacity:1;fill:#e20a16;fill-opacity:1;stroke:none;stroke-width:6;stroke-linejoin:miter;stroke-miterlimit:4;stroke-dasharray:none;stroke-dashoffset:0;stroke-opacity:1"
       id="circle13369"
       cx="-456.2796"
       cy="-1472.2266"
       rx="95"
       ry="95.000008" />
    <path
       style="opacity:1;fill:#ffffff;fill-opacity:1;stroke:none;stroke-width:6;stroke-linejoin:miter;stroke-miterlimit:4;stroke-dasharray:none;stroke-dashoffset:0;stroke-opacity:1"
       d="m -472.68034,-1550.2269 -50.5997,133 33.7502,0 8.4719,-25.3 49.5561,0 8.472,25.3 33.7499,0 -50.5995,-133 z m 16.4004,33.7 16.4081,49 -32.8161,0 z"
       id="path13427"
       inkscape:connector-curvature="0"
       sodipodi:nodetypes="ccccccccccccc" />
  </g>
</svg>
