<?xml version="1.0" encoding="UTF-8" standalone="no"?>
<!-- Created with Inkscape (http://www.inkscape.org/) -->

<svg
   xmlns:dc="http://purl.org/dc/elements/1.1/"
   xmlns:cc="http://creativecommons.org/ns#"
   xmlns:rdf="http://www.w3.org/1999/02/22-rdf-syntax-ns#"
   xmlns:svg="http://www.w3.org/2000/svg"
   xmlns="http://www.w3.org/2000/svg"
   xmlns:sodipodi="http://sodipodi.sourceforge.net/DTD/sodipodi-0.dtd"
   xmlns:inkscape="http://www.inkscape.org/namespaces/inkscape"
   width="600"
   height="800"
   viewBox="0 0 600.00002 800.00007"
   id="svg2"
   version="1.1"
   inkscape:version="0.91 r13725"
   sodipodi:docname="33.svg">
  <defs
     id="defs4" />
  <sodipodi:namedview
     id="base"
     pagecolor="#ffffff"
     bordercolor="#666666"
     borderopacity="1.0"
     inkscape:pageopacity="0.0"
     inkscape:pageshadow="2"
     inkscape:zoom="0.70710678"
     inkscape:cx="236.92056"
     inkscape:cy="402.82796"
     inkscape:document-units="px"
     inkscape:current-layer="layer1"
     showgrid="false"
     fit-margin-top="0"
     fit-margin-left="0"
     fit-margin-right="0"
     fit-margin-bottom="0"
     units="px"
     inkscape:window-width="1920"
     inkscape:window-height="1057"
     inkscape:window-x="-8"
     inkscape:window-y="-8"
     inkscape:window-maximized="1" />
  <metadata
     id="metadata7">
    <rdf:RDF>
      <cc:Work
         rdf:about="">
        <dc:format>image/svg+xml</dc:format>
        <dc:type
           rdf:resource="http://purl.org/dc/dcmitype/StillImage" />
        <dc:title></dc:title>
      </cc:Work>
    </rdf:RDF>
  </metadata>
  <g
     inkscape:label="Layer 1"
     inkscape:groupmode="layer"
     id="layer1"
     transform="translate(-365.00006,1829.2811)">
    <rect
       style="opacity:1;fill:#00559b;fill-opacity:1;stroke:none;stroke-width:2.4000001;stroke-linejoin:miter;stroke-miterlimit:4;stroke-dasharray:none;stroke-dashoffset:0;stroke-opacity:1"
       id="rect4182"
       width="600"
       height="800"
       x="365.00006"
       y="-1829.281" />
    <rect
       y="-1829.281"
       x="365.00006"
       height="800"
       width="600"
       id="rect4184"
       style="opacity:1;fill:#ffffff;fill-opacity:1;stroke:none;stroke-width:2.4000001;stroke-linejoin:miter;stroke-miterlimit:4;stroke-dasharray:none;stroke-dashoffset:0;stroke-opacity:1"
       rx="106.4"
       ry="106.4" />
    <rect
       ry="80"
       rx="80"
       style="opacity:1;fill:#00559b;fill-opacity:1;stroke:none;stroke-width:2.4000001;stroke-linejoin:miter;stroke-miterlimit:4;stroke-dasharray:none;stroke-dashoffset:0;stroke-opacity:1"
       id="rect4195"
       width="547.20007"
       height="747.20007"
       x="391.40002"
       y="-1802.881" />
    <path
       style="fill:#ffffff;fill-opacity:1;fill-rule:nonzero;stroke:none"
       d="m 545.80006,-1402.8812 140.78914,0 c 98.64029,1.9085 129.65479,131.8318 41.58789,177.1367 l 56.82294,122.0634 -64.0099,0 -52.81006,-111.7001 -61.58001,0 0,111.7001 -60.8,0 z"
       id="path6490"
       inkscape:connector-curvature="0"
       sodipodi:nodetypes="cccccccccc" />
    <path
       style="opacity:1;fill:#00559b;fill-opacity:1;stroke:none;stroke-width:25;stroke-linejoin:miter;stroke-miterlimit:4;stroke-dasharray:none;stroke-dashoffset:0;stroke-opacity:1"
       d="m 606.60006,-1276.0812 79.65002,0 c 18.3651,0 33.15,-14.7626 33.15,-33.1 0,-18.3374 -14.7849,-33.1 -33.15,-33.1 l -79.65002,0 z"
       id="rect13342"
       inkscape:connector-curvature="0"
       sodipodi:nodetypes="cssscc" />
    <path
       id="path24358"
       d="m 665.00008,-1469.8806 -4.1016,-0.01 c -68.8513,0.049 -141.9613,-20.6525 -200.6112,-54.7519 -30.3081,-17.5218 -45.3368,-47.8776 -45.2871,-78.2382 -0.05,-30.3607 14.979,-60.7165 45.2871,-78.2383 58.6499,-34.0995 131.7599,-54.801 200.6112,-54.752 l 4.1016,-0.01 4.1016,0.01 c 68.8514,-0.049 141.9613,20.6525 200.6113,54.752 30.308,17.5218 45.3372,47.8776 45.2871,78.2383 0.05,30.3606 -14.9791,60.7164 -45.2871,78.2382 -58.65,34.0994 -131.7599,54.8009 -200.6113,54.7519 l -4.1016,0.01 z"
       style="fill:#ffffff;fill-opacity:1;fill-rule:evenodd;stroke:none"
       inkscape:connector-curvature="0" />
    <path
       style="opacity:1;fill:#000000;fill-opacity:1;stroke:none;stroke-width:16;stroke-linejoin:miter;stroke-miterlimit:4;stroke-dasharray:none;stroke-dashoffset:0;stroke-opacity:1"
       d="m 681.90008,-1509.6806 67.6,0 c 36.287,0 65.5,-29.7036 65.5,-66.6 l 0,-53.2 c 0,-36.8964 -29.213,-66.6 -65.5,-66.6 l -67.6,0 z"
       id="rect13383"
       inkscape:connector-curvature="0"
       sodipodi:nodetypes="csssscc" />
    <path
       style="opacity:1;fill:#ffffff;fill-opacity:1;stroke:none;stroke-width:16;stroke-linejoin:miter;stroke-miterlimit:4;stroke-dasharray:none;stroke-dashoffset:0;stroke-opacity:1"
       d="m 713.70018,-1541.4806 35.7999,0 c 18.6698,0 33.7,-15.5208 33.7,-34.8 l 0,-53.1999 c 0,-19.2792 -15.0302,-34.8 -33.7,-34.8 l -35.7999,0 z"
       id="rect13385"
       inkscape:connector-curvature="0"
       sodipodi:nodetypes="csssscc" />
    <rect
       style="opacity:1;fill:#000000;fill-opacity:1;stroke:none;stroke-width:16;stroke-linejoin:miter;stroke-miterlimit:4;stroke-dasharray:none;stroke-dashoffset:0;stroke-opacity:1"
       id="rect13417"
       width="190"
       height="135"
       x="1507.8806"
       y="-650.00012"
       rx="65.000008"
       ry="65"
       transform="matrix(0,-1,-1,0,0,0)" />
    <rect
       style="opacity:1;fill:#ffffff;fill-opacity:1;stroke:none;stroke-width:16;stroke-linejoin:miter;stroke-miterlimit:4;stroke-dasharray:none;stroke-dashoffset:0;stroke-opacity:1"
       id="rect13437"
       width="80.400002"
       height="60"
       x="-1643.5806"
       y="-665.00012"
       transform="matrix(0,1,-1,0,0,0)" />
    <rect
       transform="matrix(0,-1,-1,0,0,0)"
       ry="34"
       y="-619.00012"
       x="1538.8806"
       height="73"
       width="127.99998"
       id="rect13483"
       style="opacity:1;fill:#ffffff;fill-opacity:1;stroke:none;stroke-width:16;stroke-linejoin:miter;stroke-miterlimit:4;stroke-dasharray:none;stroke-dashoffset:0;stroke-opacity:1"
       rx="34.000004" />
  </g>
</svg>
