<?xml version="1.0" encoding="UTF-8" standalone="no"?>
<!-- Created with Inkscape (http://www.inkscape.org/) -->

<svg
   xmlns:dc="http://purl.org/dc/elements/1.1/"
   xmlns:cc="http://creativecommons.org/ns#"
   xmlns:rdf="http://www.w3.org/1999/02/22-rdf-syntax-ns#"
   xmlns:svg="http://www.w3.org/2000/svg"
   xmlns="http://www.w3.org/2000/svg"
   xmlns:sodipodi="http://sodipodi.sourceforge.net/DTD/sodipodi-0.dtd"
   xmlns:inkscape="http://www.inkscape.org/namespaces/inkscape"
   width="400"
   height="800"
   viewBox="0 0 105.83333 211.66668"
   version="1.1"
   id="svg32762"
   inkscape:version="0.92.1 r15371"
   sodipodi:docname="MINI 2.svg">
  <defs
     id="defs32756" />
  <sodipodi:namedview
     id="base"
     pagecolor="#ffffff"
     bordercolor="#666666"
     borderopacity="1.0"
     inkscape:pageopacity="0.0"
     inkscape:pageshadow="2"
     inkscape:zoom="0.63753455"
     inkscape:cx="320.21134"
     inkscape:cy="335.66905"
     inkscape:document-units="px"
     inkscape:current-layer="layer1"
     showgrid="false"
     units="px"
     fit-margin-top="0"
     fit-margin-left="0"
     fit-margin-right="0"
     fit-margin-bottom="0"
     inkscape:snap-global="false"
     showguides="false"
     inkscape:window-width="1920"
     inkscape:window-height="1057"
     inkscape:window-x="-8"
     inkscape:window-y="-8"
     inkscape:window-maximized="1" />
  <metadata
     id="metadata32759">
    <rdf:RDF>
      <cc:Work
         rdf:about="">
        <dc:format>image/svg+xml</dc:format>
        <dc:type
           rdf:resource="http://purl.org/dc/dcmitype/StillImage" />
        <dc:title></dc:title>
      </cc:Work>
    </rdf:RDF>
  </metadata>
  <g
     inkscape:label="Layer 1"
     inkscape:groupmode="layer"
     id="layer1"
     transform="translate(58.411817,373.50669)">
    <rect
       style="opacity:1;fill:#00559b;fill-opacity:1;stroke:none;stroke-width:0.77721179;stroke-linejoin:round;stroke-miterlimit:4;stroke-dasharray:none;stroke-opacity:1"
       id="rect42652"
       width="105.83334"
       height="211.66667"
       x="-58.411816"
       y="-373.50668" />
    <rect
       y="-373.50668"
       x="-58.411816"
       height="211.66667"
       width="105.83334"
       id="rect42712"
       style="opacity:1;fill:#ffffff;fill-opacity:1;stroke:none;stroke-width:0.77721179;stroke-linejoin:round;stroke-miterlimit:4;stroke-dasharray:none;stroke-opacity:1"
       rx="10.583333"
       ry="10.583333" />
    <path
       style="opacity:1;fill:#00559b;fill-opacity:1;stroke:none;stroke-width:0.71865827;stroke-linejoin:round;stroke-miterlimit:4;stroke-dasharray:none;stroke-opacity:1"
       d="m 42.129857,-319.26711 v -43.65625 c 0,-2.93159 -2.36009,-5.29167 -5.29167,-5.29167 h -84.666671 c -2.931583,0 -5.291666,2.36008 -5.291666,5.29167 v 43.65625 z"
       id="rect42714"
       inkscape:connector-curvature="0"
       sodipodi:nodetypes="csssscc" />
    <path
       style="opacity:1;fill:#00559b;fill-opacity:1;stroke:none;stroke-width:3.83478808;stroke-linejoin:round;stroke-miterlimit:4;stroke-dasharray:none;stroke-opacity:1"
       d="m -53.120151,-221.37129 h 95.250008 v -92.60416 h -95.250008 z"
       id="rect42722"
       inkscape:connector-curvature="0" />
    <path
       style="opacity:1;fill:#ffffff;fill-opacity:1;stroke:none;stroke-width:3.07393169;stroke-linejoin:round;stroke-miterlimit:4;stroke-dasharray:none;stroke-opacity:1"
       d="m 21.942142,-273.15025 -2.936875,-21.96042 c -0.291447,-2.17928 -1.217007,-3.73019 -3.413125,-3.83645 l -9.8425053,-0.47625 H -16.739943 l -9.842501,0.47625 c -2.196117,0.10626 -3.121678,1.65717 -3.413125,3.83645 l -2.936875,21.96042 v 18.17688 l -0.740832,1.27 v 6.35 h 1.217083 l 1.42875,1.45521 v 9.97479 h 7.9375 v -9.97479 h 35.189585 v 9.97479 h 7.9375 v -9.97479 l 1.42875,-1.45521 h 1.217083 v -6.35 l -0.740833,-1.27 z"
       id="rect24224"
       inkscape:connector-curvature="0"
       sodipodi:nodetypes="cssccsscccccccccccccccccc" />
    <path
       d="m -13.697234,-249.78753 v -3.175 h -16.404167 v -0.9525 H 19.1111 v 0.9525 H 2.7069327 v 3.175 z"
       style="fill:#00559b;fill-opacity:1;fill-rule:evenodd;stroke:none;stroke-width:2.02383757"
       id="path24260"
       inkscape:connector-curvature="0"
       sodipodi:nodetypes="ccccccccc" />
    <rect
       style="opacity:1;fill:#00559b;fill-opacity:1;stroke:none;stroke-width:1.90145814;stroke-linejoin:round;stroke-miterlimit:4;stroke-dasharray:none;stroke-opacity:1"
       id="rect24296"
       width="9.4720831"
       height="5.1064587"
       x="-30.1014"
       y="-260.9794" />
    <rect
       y="-260.9794"
       x="9.6390123"
       height="5.1064587"
       width="9.4720831"
       id="rect24309"
       style="opacity:1;fill:#00559b;fill-opacity:1;stroke:none;stroke-width:1.90145814;stroke-linejoin:round;stroke-miterlimit:4;stroke-dasharray:none;stroke-opacity:1" />
    <path
       style="opacity:1;fill:#00559b;fill-opacity:1;stroke:none;stroke-width:3.94518375;stroke-linejoin:round;stroke-miterlimit:4;stroke-dasharray:none;stroke-opacity:1"
       d="M 15.486272,-296.77753 3.8446057,-297.3067 H -14.676192 l -11.641667,0.52917 c -0.585712,0.0266 -0.977909,0.47756 -1.058333,1.05833 l -2.637967,19.05 c -0.08042,0.58078 0.472016,1.05833 1.058333,1.05833 h 47.080064 c 0.586317,0 1.138757,-0.47755 1.058334,-1.05833 l -2.637966,-19.05 c -0.08042,-0.58078 -0.472017,-1.05833 -1.058334,-1.05833 z"
       id="rect24332"
       inkscape:connector-curvature="0"
       sodipodi:nodetypes="sccssssssss" />
    <path
       style="fill:#ffffff;stroke:none;stroke-width:0.09200737"
       d="m -20.232401,-278.78586 c -4.413919,-0.006 -5.299902,3.17081 -6.905667,3.17499 h -2.883917 v 1.05833 h 19.579167 v -1.05833 h -2.883917 c -1.605764,-0.004 -2.491748,-3.18057 -6.905666,-3.17499 z"
       id="path16"
       inkscape:connector-curvature="0"
       sodipodi:nodetypes="cccccccc" />
    <path
       sodipodi:nodetypes="csssscc"
       inkscape:connector-curvature="0"
       id="path4512"
       d="m 42.129857,-216.0796 v 43.65625 c 0,2.93159 -2.36009,5.29166 -5.29167,5.29166 h -84.666671 c -2.931583,0 -5.291666,-2.36007 -5.291666,-5.29166 v -43.65625 z"
       style="opacity:1;fill:#00559b;fill-opacity:1;stroke:none;stroke-width:0.71865827;stroke-linejoin:round;stroke-miterlimit:4;stroke-dasharray:none;stroke-opacity:1" />
    <g
       aria-label="MINI "
       style="font-style:normal;font-weight:normal;font-size:23.43006134px;line-height:1.25;font-family:sans-serif;letter-spacing:0px;word-spacing:0px;fill:#000000;fill-opacity:1;stroke:none;stroke-width:0.58575153"
       id="text4539"
       transform="matrix(1,0,0,-1,5.2916666,-530.05505)">
      <path
         d="m -31.980206,-183.53585 v 16.66875 h 2.391056 l 4.782112,-10.86843 4.679148,10.86843 h 2.391056 v -16.66875 h -2.528341 v 10.39938 h -0.04576 l -3.48934,-8.01976 h -2.105045 l -3.48934,8.01976 h -0.0572 v -10.39938 z"
         style="font-style:normal;font-variant:normal;font-weight:normal;font-stretch:normal;font-family:'DIN 1451 Mittelschrift';-inkscape-font-specification:'DIN 1451 Mittelschrift';fill:#ffffff;stroke:none;stroke-width:0.58575153"
         id="path4556"
         inkscape:connector-curvature="0" />
      <path
         d="m -14.224612,-183.53585 v 16.66875 h 2.528342 v -16.66875 z"
         style="font-style:normal;font-variant:normal;font-weight:normal;font-stretch:normal;font-family:'DIN 1451 Mittelschrift';-inkscape-font-specification:'DIN 1451 Mittelschrift';fill:#ffffff;stroke:none;stroke-width:0.58575153"
         id="path4558"
         inkscape:connector-curvature="0" />
      <path
         d="m -8.1840484,-183.53585 v 16.66875 h 2.3910557 l 7.5392631,-11.85231 h 0.04576 v 11.85231 h 2.5397819 v -16.66875 H 1.9407554 l -7.5392621,11.85232 h -0.0572 v -11.85232 z"
         style="font-style:normal;font-variant:normal;font-weight:normal;font-stretch:normal;font-family:'DIN 1451 Mittelschrift';-inkscape-font-specification:'DIN 1451 Mittelschrift';fill:#ffffff;stroke:none;stroke-width:0.58575153"
         id="path4560"
         inkscape:connector-curvature="0" />
      <path
         d="m 7.8783553,-183.53585 v 16.66875 h 2.5283417 v -16.66875 z"
         style="font-style:normal;font-variant:normal;font-weight:normal;font-stretch:normal;font-family:'DIN 1451 Mittelschrift';-inkscape-font-specification:'DIN 1451 Mittelschrift';fill:#ffffff;stroke:none;stroke-width:0.58575153"
         id="path4562"
         inkscape:connector-curvature="0" />
    </g>
    <g
       aria-label="BUSES"
       style="font-style:normal;font-weight:normal;font-size:23.03481865px;line-height:1.25;font-family:sans-serif;letter-spacing:0px;word-spacing:0px;fill:#000000;fill-opacity:1;stroke:none;stroke-width:0.57587045"
       id="text4543"
       transform="translate(5.2916666,-157.42709)">
      <path
         d="m -43.393273,-167.00207 v -16.38756 h 6.354821 q 2.395711,0 3.621685,1.23722 1.237222,1.22598 1.237222,3.16054 0,1.01227 -0.494889,1.94581 -0.494888,0.93354 -1.923317,1.57465 v 0.045 q 1.349696,0.31493 2.013297,1.42843 0.663601,1.10225 0.663601,2.35072 0,2.12577 -1.360944,3.38549 -1.349697,1.25971 -3.194282,1.25971 z m 6.309831,-7.27711 h -3.82414 v 4.93764 h 3.82414 q 1.383439,0 2.024545,-0.74233 0.652353,-0.75358 0.652353,-1.72087 0,-0.96728 -0.652353,-1.72086 -0.641106,-0.75358 -2.024545,-0.75358 z m -0.224949,-6.90595 h -3.599191 v 4.70145 h 3.599191 q 1.338449,0 1.990802,-0.6861 0.652353,-0.68609 0.652353,-1.66462 0,-0.94479 -0.652353,-1.64214 -0.652353,-0.70859 -1.990802,-0.70859 z"
         style="font-style:normal;font-variant:normal;font-weight:normal;font-stretch:normal;font-family:'DIN 1451 Mittelschrift';-inkscape-font-specification:'DIN 1451 Mittelschrift';fill:#ffffff;stroke:none;stroke-width:0.57587045"
         id="path4565"
         inkscape:connector-curvature="0" />
      <path
         d="m -29.603874,-172.54707 v -10.84256 h 2.485691 v 10.56137 q 0,1.69837 0.956035,2.59817 0.967282,0.88855 2.384463,0.88855 1.417182,0 2.373217,-0.88855 0.967282,-0.8998 0.967282,-2.59817 v -10.56137 h 2.485691 v 10.84256 q 0,2.56442 -1.698368,4.12782 -1.698368,1.55215 -4.127822,1.55215 -2.440701,0 -4.139068,-1.55215 -1.687121,-1.5634 -1.687121,-4.12782 z"
         style="font-style:normal;font-variant:normal;font-weight:normal;font-stretch:normal;font-family:'DIN 1451 Mittelschrift';-inkscape-font-specification:'DIN 1451 Mittelschrift';fill:#ffffff;stroke:none;stroke-width:0.57587045"
         id="path4567"
         inkscape:connector-curvature="0" />
      <path
         d="m -16.253128,-169.11659 1.64213,-1.86708 q 0.922293,0.74233 2.125772,1.19223 1.203479,0.4499 2.5194329,0.4499 1.518409,0 2.3844639,-0.62986 0.866055,-0.62986 0.866055,-1.65338 0,-1.93456 -2.1370189,-2.21575 -0.562374,-0.0675 -1.046015,-0.13497 -0.4836409,-0.0675 -1.1247469,-0.15746 -2.125772,-0.29244 -3.239271,-1.55215 -1.1135,-1.27097 -1.1135,-3.05931 0,-2.09203 1.394687,-3.44173 1.405933,-1.3497 3.947862,-1.3497 1.5184079,0 2.8568568,0.48364 1.338449,0.48365 2.463196,1.22598 l -1.383439,2.04704 q -0.899798,-0.56238 -1.934565,-0.91105 -1.0347669,-0.34867 -2.1145238,-0.34867 -1.147242,0 -1.945812,0.58487 -0.798571,0.58487 -0.798571,1.75461 0,0.69734 0.539879,1.3047 0.539878,0.60736 1.788347,0.79857 0.326177,0.0562 0.7873229,0.12372 0.461147,0.0562 1.057263,0.12373 2.2944829,0.28118 3.3854879,1.66462 1.102252,1.38344 1.102252,3.05931 0,2.26075 -1.563398,3.50921 -1.563399,1.24847 -4.1953069,1.24847 -3.7004169,0 -6.2648399,-2.24949 z"
         style="font-style:normal;font-variant:normal;font-weight:normal;font-stretch:normal;font-family:'DIN 1451 Mittelschrift';-inkscape-font-specification:'DIN 1451 Mittelschrift';fill:#ffffff;stroke:none;stroke-width:0.57587045"
         id="path4569"
         inkscape:connector-curvature="0" />
      <path
         d="m -1.5976722,-167.00207 v -16.38756 h 10.482642 v 2.35072 H 0.88801877 v 4.6677 H 7.7039858 v 2.21575 H 0.88801877 v 4.81392 H 8.8849698 v 2.33947 z"
         style="font-style:normal;font-variant:normal;font-weight:normal;font-stretch:normal;font-family:'DIN 1451 Mittelschrift';-inkscape-font-specification:'DIN 1451 Mittelschrift';fill:#ffffff;stroke:none;stroke-width:0.57587045"
         id="path4571"
         inkscape:connector-curvature="0" />
      <path
         d="m 9.7960128,-169.11659 1.6421302,-1.86708 q 0.922293,0.74233 2.125772,1.19223 1.203479,0.4499 2.519433,0.4499 1.518409,0 2.384464,-0.62986 0.866055,-0.62986 0.866055,-1.65338 0,-1.93456 -2.137019,-2.21575 -0.562374,-0.0675 -1.046015,-0.13497 -0.483641,-0.0675 -1.124747,-0.15746 -2.125772,-0.29244 -3.239271,-1.55215 -1.1135,-1.27097 -1.1135,-3.05931 0,-2.09203 1.394687,-3.44173 1.405933,-1.3497 3.947862,-1.3497 1.518408,0 2.856857,0.48364 1.338449,0.48365 2.463196,1.22598 l -1.383439,2.04704 q -0.899798,-0.56238 -1.934565,-0.91105 -1.034767,-0.34867 -2.114524,-0.34867 -1.147242,0 -1.945813,0.58487 -0.79857,0.58487 -0.79857,1.75461 0,0.69734 0.539879,1.3047 0.539878,0.60736 1.788347,0.79857 0.326177,0.0562 0.787323,0.12372 0.461147,0.0562 1.057263,0.12373 2.294483,0.28118 3.385488,1.66462 1.102252,1.38344 1.102252,3.05931 0,2.26075 -1.563398,3.50921 -1.563399,1.24847 -4.195307,1.24847 -3.700417,0 -6.2648402,-2.24949 z"
         style="font-style:normal;font-variant:normal;font-weight:normal;font-stretch:normal;font-family:'DIN 1451 Mittelschrift';-inkscape-font-specification:'DIN 1451 Mittelschrift';fill:#ffffff;stroke:none;stroke-width:0.57587045"
         id="path4573"
         inkscape:connector-curvature="0" />
    </g>
  </g>
</svg>
