<?xml version="1.0" encoding="UTF-8" standalone="no"?>
<!-- Created with Inkscape (http://www.inkscape.org/) -->

<svg
   xmlns:dc="http://purl.org/dc/elements/1.1/"
   xmlns:cc="http://creativecommons.org/ns#"
   xmlns:rdf="http://www.w3.org/1999/02/22-rdf-syntax-ns#"
   xmlns:svg="http://www.w3.org/2000/svg"
   xmlns="http://www.w3.org/2000/svg"
   xmlns:sodipodi="http://sodipodi.sourceforge.net/DTD/sodipodi-0.dtd"
   xmlns:inkscape="http://www.inkscape.org/namespaces/inkscape"
   width="400"
   height="800"
   viewBox="0 0 105.83333 211.66668"
   version="1.1"
   id="svg32762"
   inkscape:version="0.92.1 r15371"
   sodipodi:docname="MINI 4.svg">
  <defs
     id="defs32756" />
  <sodipodi:namedview
     id="base"
     pagecolor="#ffffff"
     bordercolor="#666666"
     borderopacity="1.0"
     inkscape:pageopacity="0.0"
     inkscape:pageshadow="2"
     inkscape:zoom="0.63753455"
     inkscape:cx="135.2761"
     inkscape:cy="343.72658"
     inkscape:document-units="px"
     inkscape:current-layer="layer1"
     showgrid="false"
     units="px"
     fit-margin-top="0"
     fit-margin-left="0"
     fit-margin-right="0"
     fit-margin-bottom="0"
     inkscape:snap-global="false"
     showguides="false"
     inkscape:window-width="1920"
     inkscape:window-height="1057"
     inkscape:window-x="-8"
     inkscape:window-y="-8"
     inkscape:window-maximized="1" />
  <metadata
     id="metadata32759">
    <rdf:RDF>
      <cc:Work
         rdf:about="">
        <dc:format>image/svg+xml</dc:format>
        <dc:type
           rdf:resource="http://purl.org/dc/dcmitype/StillImage" />
        <dc:title></dc:title>
      </cc:Work>
    </rdf:RDF>
  </metadata>
  <g
     inkscape:label="Layer 1"
     inkscape:groupmode="layer"
     id="layer1"
     transform="translate(8.140973,221.37128)">
    <rect
       style="opacity:1;fill:#00559b;fill-opacity:1;stroke:none;stroke-width:0.77721179;stroke-linejoin:round;stroke-miterlimit:4;stroke-dasharray:none;stroke-opacity:1"
       id="rect42652"
       width="105.83334"
       height="211.66667"
       x="-8.1409731"
       y="-221.37128" />
    <rect
       y="-221.37128"
       x="-8.1409731"
       height="211.66667"
       width="105.83334"
       id="rect42712"
       style="opacity:1;fill:#ffffff;fill-opacity:1;stroke:none;stroke-width:0.77721179;stroke-linejoin:round;stroke-miterlimit:4;stroke-dasharray:none;stroke-opacity:1"
       rx="10.583333"
       ry="10.583333" />
    <path
       style="opacity:1;fill:#00559b;fill-opacity:1;stroke:none;stroke-width:0.71865827;stroke-linejoin:round;stroke-miterlimit:4;stroke-dasharray:none;stroke-opacity:1"
       d="m 92.400701,-167.1317 v -43.65625 c 0,-2.93159 -2.36009,-5.29167 -5.29167,-5.29167 H 2.4423596 c -2.93158302,0 -5.291666,2.36008 -5.291666,5.29167 v 43.65625 z"
       id="rect42714"
       inkscape:connector-curvature="0"
       sodipodi:nodetypes="csssscc" />
    <path
       style="opacity:1;fill:#00559b;fill-opacity:1;stroke:none;stroke-width:3.83478808;stroke-linejoin:round;stroke-miterlimit:4;stroke-dasharray:none;stroke-opacity:1"
       d="M -2.8493074,-69.23588 H 92.400701 v -92.60416 H -2.8493074 Z"
       id="rect42722"
       inkscape:connector-curvature="0" />
    <path
       sodipodi:nodetypes="cssccc"
       inkscape:connector-curvature="0"
       id="path42724"
       d="M 42.12986,-14.996289 H 2.4423596 c -2.93158302,0 -5.291666,-2.360081 -5.291666,-5.291671 V -63.94421 H 42.12986 Z"
       style="opacity:1;fill:#ffd70a;fill-opacity:1;stroke:none;stroke-width:0.71865827;stroke-linejoin:round;stroke-miterlimit:4;stroke-dasharray:none;stroke-opacity:1" />
    <path
       style="opacity:1;fill:#007938;fill-opacity:1;stroke:none;stroke-width:0.71865827;stroke-linejoin:round;stroke-miterlimit:4;stroke-dasharray:none;stroke-opacity:1"
       d="m 47.421538,-14.996289 h 39.687503 c 2.93158,0 5.29167,-2.360081 5.29167,-5.291671 V -63.94421 H 47.421538 Z"
       id="path42729"
       inkscape:connector-curvature="0"
       sodipodi:nodetypes="cssccc" />
    <circle
       style="opacity:1;fill:#ffffff;fill-opacity:1;stroke:none;stroke-width:2.64878964;stroke-linejoin:round;stroke-miterlimit:4;stroke-dasharray:none;stroke-opacity:1"
       id="path82310"
       cx="44.775692"
       cy="-191.60565"
       r="21.166666" />
    <g
       aria-label="LOGO"
       style="font-style:normal;font-variant:normal;font-weight:normal;font-stretch:normal;font-size:18.27232933px;line-height:1.25;font-family:'DIN 1451 Std';-inkscape-font-specification:'DIN 1451 Std';letter-spacing:0px;word-spacing:0px;fill:#000000;fill-opacity:1;stroke:none;stroke-width:0.09516838"
       id="text82340"
       transform="translate(55.562511,-5.6250176)">
      <path
         d="m -25.008171,-192.48559 h 1.863778 v 11.14612 h 3.69101 v 1.86378 h -5.554788 z"
         style="font-style:normal;font-variant:normal;font-weight:normal;font-stretch:normal;font-family:'DIN 1451 Std';-inkscape-font-specification:'DIN 1451 Std';fill:#000000;stroke:none;stroke-width:0.09516838"
         id="path24389"
         inkscape:connector-curvature="0" />
      <path
         d="m -18.374737,-189.41584 q 0,-0.78571 0.274085,-1.3887 0.274085,-0.60298 0.712621,-0.9867 0.456808,-0.40199 1.004978,-0.60299 0.566442,-0.201 1.132885,-0.201 0.566442,0 1.114612,0.201 0.566442,0.201 1.004978,0.60299 0.456808,0.38372 0.730893,0.9867 0.274085,0.60299 0.274085,1.3887 v 6.8704 q 0,0.80398 -0.274085,1.40697 -0.274085,0.58471 -0.730893,0.9867 -0.438536,0.38372 -1.004978,0.58472 -0.54817,0.20099 -1.114612,0.20099 -0.566443,0 -1.132885,-0.20099 -0.54817,-0.201 -1.004978,-0.58472 -0.438536,-0.40199 -0.712621,-0.9867 -0.274085,-0.60299 -0.274085,-1.40697 z m 1.863778,6.8704 q 0,0.67607 0.365447,1.00497 0.383718,0.31063 0.895344,0.31063 0.511625,0 0.877072,-0.31063 0.383718,-0.3289 0.383718,-1.00497 v -6.8704 q 0,-0.67608 -0.383718,-0.98671 -0.365447,-0.3289 -0.877072,-0.3289 -0.511626,0 -0.895344,0.3289 -0.365447,0.31063 -0.365447,0.98671 z"
         style="font-style:normal;font-variant:normal;font-weight:normal;font-stretch:normal;font-family:'DIN 1451 Std';-inkscape-font-specification:'DIN 1451 Std';fill:#000000;stroke:none;stroke-width:0.09516838"
         id="path24391"
         inkscape:connector-curvature="0" />
      <path
         d="m -10.594722,-189.41584 q 0,-0.78571 0.274085,-1.3887 0.274085,-0.60298 0.7126207,-0.9867 0.4568082,-0.40199 1.0049781,-0.60299 0.5664422,-0.201 1.1328844,-0.201 0.5664422,0 1.1146121,0.201 0.5664422,0.201 1.0049781,0.60299 0.4568082,0.38372 0.7308932,0.9867 0.2740849,0.60299 0.2740849,1.3887 v 0.6578 h -1.8637776 v -0.6578 q 0,-0.67608 -0.3837189,-0.98671 -0.3654466,-0.3289 -0.8770718,-0.3289 -0.5116252,0 -0.8953441,0.3289 -0.3654466,0.31063 -0.3654466,0.98671 v 6.8704 q 0,0.67607 0.3654466,1.00497 0.3837189,0.31063 0.8953441,0.31063 0.5116252,0 0.8770718,-0.31063 0.3837189,-0.3289 0.3837189,-1.00497 v -2.4485 h -1.4800587 v -1.64451 h 3.3438363 v 4.09301 q 0,0.80398 -0.2740849,1.40697 -0.274085,0.58471 -0.7308932,0.9867 -0.4385359,0.38372 -1.0049781,0.58472 -0.5481699,0.20099 -1.1146121,0.20099 -0.5664422,0 -1.1328844,-0.20099 -0.5481699,-0.201 -1.0049781,-0.58472 -0.4385357,-0.40199 -0.7126207,-0.9867 -0.274085,-0.60299 -0.274085,-1.40697 z"
         style="font-style:normal;font-variant:normal;font-weight:normal;font-stretch:normal;font-family:'DIN 1451 Std';-inkscape-font-specification:'DIN 1451 Std';fill:#000000;stroke:none;stroke-width:0.09516838"
         id="path24393"
         inkscape:connector-curvature="0" />
      <path
         d="m -2.8147081,-189.41584 q 0,-0.78571 0.2740849,-1.3887 0.274085,-0.60298 0.7126209,-0.9867 0.4568082,-0.40199 1.00497814,-0.60299 0.56644221,-0.201 1.13288442,-0.201 0.56644217,0 1.11461204,0.201 0.5664422,0.201 1.0049781,0.60299 0.4568083,0.38372 0.7308932,0.9867 0.2740849,0.60299 0.2740849,1.3887 v 6.8704 q 0,0.80398 -0.2740849,1.40697 -0.2740849,0.58471 -0.7308932,0.9867 -0.4385359,0.38372 -1.0049781,0.58472 -0.54816987,0.20099 -1.11461204,0.20099 -0.56644221,0 -1.13288442,-0.20099 -0.54816994,-0.201 -1.00497814,-0.58472 -0.4385359,-0.40199 -0.7126209,-0.9867 -0.2740849,-0.60299 -0.2740849,-1.40697 z m 1.86377763,6.8704 q 0,0.67607 0.36544659,1.00497 0.38371891,0.31063 0.89534414,0.31063 0.51162517,0 0.87707174,-0.31063 0.3837189,-0.3289 0.3837189,-1.00497 v -6.8704 q 0,-0.67608 -0.3837189,-0.98671 -0.36544657,-0.3289 -0.87707174,-0.3289 -0.51162523,0 -0.89534414,0.3289 -0.36544659,0.31063 -0.36544659,0.98671 z"
         style="font-style:normal;font-variant:normal;font-weight:normal;font-stretch:normal;font-family:'DIN 1451 Std';-inkscape-font-specification:'DIN 1451 Std';fill:#000000;stroke:none;stroke-width:0.09516838"
         id="path24395"
         inkscape:connector-curvature="0" />
    </g>
    <path
       style="opacity:1;fill:#ffffff;fill-opacity:1;stroke:none;stroke-width:3.07393169;stroke-linejoin:round;stroke-miterlimit:4;stroke-dasharray:none;stroke-opacity:1"
       d="m 72.212986,-121.01484 -2.936875,-21.96042 c -0.291447,-2.17928 -1.217007,-3.73019 -3.413125,-3.83645 l -9.842505,-0.47625 h -22.48958 l -9.842501,0.47625 c -2.196117,0.10626 -3.121678,1.65717 -3.413125,3.83645 l -2.936875,21.96042 v 18.17688 l -0.740832,1.27 v 6.349998 h 1.217083 l 1.42875,1.45521 v 9.97479 h 7.9375 v -9.97479 h 35.189585 v 9.97479 h 7.9375 v -9.97479 l 1.42875,-1.45521 h 1.217083 v -6.349998 l -0.740833,-1.27 z"
       id="rect24224"
       inkscape:connector-curvature="0"
       sodipodi:nodetypes="cssccsscccccccccccccccccc" />
    <path
       d="m 36.57361,-97.652122 v -3.174998 H 20.169443 v -0.9525 h 49.212501 v 0.9525 H 52.977777 v 3.174998 z"
       style="fill:#00559b;fill-opacity:1;fill-rule:evenodd;stroke:none;stroke-width:2.02383757"
       id="path24260"
       inkscape:connector-curvature="0"
       sodipodi:nodetypes="ccccccccc" />
    <rect
       style="opacity:1;fill:#00559b;fill-opacity:1;stroke:none;stroke-width:1.90145814;stroke-linejoin:round;stroke-miterlimit:4;stroke-dasharray:none;stroke-opacity:1"
       id="rect24296"
       width="9.4720831"
       height="5.1064587"
       x="20.169445"
       y="-108.844" />
    <rect
       y="-108.844"
       x="59.909855"
       height="5.1064587"
       width="9.4720831"
       id="rect24309"
       style="opacity:1;fill:#00559b;fill-opacity:1;stroke:none;stroke-width:1.90145814;stroke-linejoin:round;stroke-miterlimit:4;stroke-dasharray:none;stroke-opacity:1" />
    <path
       style="opacity:1;fill:#00559b;fill-opacity:1;stroke:none;stroke-width:3.94518375;stroke-linejoin:round;stroke-miterlimit:4;stroke-dasharray:none;stroke-opacity:1"
       d="M 65.757116,-144.64212 54.11545,-145.17129 H 35.594652 l -11.641667,0.52917 c -0.585712,0.0266 -0.977909,0.47756 -1.058333,1.05833 l -2.637967,19.05 c -0.08042,0.58078 0.472016,1.05833 1.058333,1.05833 h 47.080064 c 0.586317,0 1.138757,-0.47755 1.058334,-1.05833 l -2.637966,-19.05 c -0.08042,-0.58078 -0.472017,-1.05833 -1.058334,-1.05833 z"
       id="rect24332"
       inkscape:connector-curvature="0"
       sodipodi:nodetypes="sccssssssss" />
    <path
       style="fill:#ffffff;stroke:none;stroke-width:0.09200737"
       d="m 30.038443,-126.65045 c -4.413919,-0.006 -5.299902,3.17081 -6.905667,3.17499 h -2.883917 v 1.05833 h 19.579167 v -1.05833 h -2.883917 c -1.605764,-0.004 -2.491748,-3.18057 -6.905666,-3.17499 z"
       id="path16"
       inkscape:connector-curvature="0"
       sodipodi:nodetypes="cccccccc" />
    <g
       aria-label="8"
       style="font-style:normal;font-variant:normal;font-weight:normal;font-stretch:normal;font-size:40.95078659px;line-height:1.25;font-family:'DIN 1451 Mittelschrift';-inkscape-font-specification:'DIN 1451 Mittelschrift';letter-spacing:0px;word-spacing:0px;fill:#000000;fill-opacity:1;stroke:none;stroke-width:1.02376962"
       id="text4522"
       transform="translate(56.09586,-5.2916777)">
      <path
         d="m -40.632081,-40.637113 q 0,2.05954 1.27971,3.1193 1.2997,1.05976 2.89934,1.05976 1.59965,0 2.87936,-1.05976 1.2997,-1.05976 1.2997,-3.1193 0,-2.03954 -1.2997,-3.0993 -1.27971,-1.07976 -2.87936,-1.07976 -1.59964,0 -2.89934,1.07976 -1.27971,1.05976 -1.27971,3.0993 z m -4.69895,12.53718 q 0,-4.25904 3.43923,-6.55853 -1.29971,-1.15973 -2.11952,-2.55942 -0.79982,-1.41968 -0.79982,-3.33925 0,-3.51921 2.39946,-5.97865 2.41945,-2.45945 5.95865,-2.45945 3.53921,0 5.93867,2.45945 2.41945,2.45944 2.41945,5.97865 0,1.91957 -0.81981,3.33925 -0.81982,1.39969 -2.07953,2.55942 3.41923,2.31948 3.41923,6.55853 0,3.87913 -2.63941,6.31858 -2.61941,2.41945 -6.2386,2.41945 -3.63918,0 -6.25859,-2.41945 -2.61941,-2.43945 -2.61941,-6.31858 z m 4.17906,-0.04 q 0,1.99955 1.39969,3.31925 1.41968,1.29971 3.29925,1.29971 1.85959,0 3.27927,-1.29971 1.43967,-1.3197 1.43967,-3.31925 0,-1.99955 -1.43967,-3.31925 -1.41968,-1.31971 -3.27927,-1.31971 -1.87957,0 -3.29925,1.31971 -1.39969,1.3197 -1.39969,3.31925 z"
         style="font-style:normal;font-variant:normal;font-weight:normal;font-stretch:normal;font-family:'DIN 1451 Mittelschrift';-inkscape-font-specification:'DIN 1451 Mittelschrift';fill:#000000;stroke:none;stroke-width:1.02376962"
         id="path4533"
         inkscape:connector-curvature="0" />
    </g>
    <g
       aria-label="10"
       style="font-style:normal;font-variant:normal;font-weight:normal;font-stretch:normal;font-size:40.95078659px;line-height:1.25;font-family:'DIN 1451 Mittelschrift';-inkscape-font-specification:'DIN 1451 Mittelschrift';letter-spacing:0px;word-spacing:0px;fill:#ffffff;fill-opacity:1;stroke:none;stroke-width:1.02376962"
       id="text4526"
       transform="translate(55.562511,-5.2916777)">
      <path
         d="m 3.9209308,-19.541863 v -24.774426 l -4.15906418,3.039317 v -4.439002 l 4.15906418,-3.01932 h 4.1990553 v 29.193431 z"
         style="font-style:normal;font-variant:normal;font-weight:normal;font-stretch:normal;font-family:'DIN 1451 Mittelschrift';-inkscape-font-specification:'DIN 1451 Mittelschrift';fill:#ffffff;stroke:none;stroke-width:1.02376962"
         id="path4528"
         inkscape:connector-curvature="0" />
      <path
         d="m 24.756243,-27.979964 v -12.377215 q 0,-2.099528 -1.139743,-3.279263 -1.119748,-1.179734 -2.959334,-1.179734 -1.859582,0 -2.97933,1.179734 -1.119748,1.179735 -1.119748,3.279263 v 12.377215 q 0,2.119523 1.119748,3.299258 1.119748,1.159739 2.97933,1.159739 1.839586,0 2.959334,-1.159739 1.139743,-1.179735 1.139743,-3.299258 z m -12.377215,0.239946 v -12.857107 q 0,-4.019096 2.519433,-6.198606 2.519433,-2.199505 5.758705,-2.199505 3.219275,0 5.738708,2.199505 2.539429,2.17951 2.539429,6.198606 v 12.857107 q 0,4.019096 -2.539429,6.198605 -2.519433,2.17951 -5.738708,2.17951 -3.239272,0 -5.758705,-2.17951 -2.519433,-2.179509 -2.519433,-6.198605 z"
         style="font-style:normal;font-variant:normal;font-weight:normal;font-stretch:normal;font-family:'DIN 1451 Mittelschrift';-inkscape-font-specification:'DIN 1451 Mittelschrift';fill:#ffffff;stroke:none;stroke-width:1.02376962"
         id="path4530"
         inkscape:connector-curvature="0" />
    </g>
  </g>
</svg>
