<?xml version="1.0" encoding="UTF-8" standalone="no"?>
<!-- Created with Inkscape (http://www.inkscape.org/) -->

<svg
   xmlns:dc="http://purl.org/dc/elements/1.1/"
   xmlns:cc="http://creativecommons.org/ns#"
   xmlns:rdf="http://www.w3.org/1999/02/22-rdf-syntax-ns#"
   xmlns:svg="http://www.w3.org/2000/svg"
   xmlns="http://www.w3.org/2000/svg"
   xmlns:sodipodi="http://sodipodi.sourceforge.net/DTD/sodipodi-0.dtd"
   xmlns:inkscape="http://www.inkscape.org/namespaces/inkscape"
   width="600"
   height="800"
   viewBox="0 0 600 800.00007"
   id="svg2"
   version="1.1"
   inkscape:version="0.91 r13725"
   sodipodi:docname="11.svg">
  <defs
     id="defs4" />
  <sodipodi:namedview
     id="base"
     pagecolor="#ffffff"
     bordercolor="#666666"
     borderopacity="1.0"
     inkscape:pageopacity="0.0"
     inkscape:pageshadow="2"
     inkscape:zoom="0.50754247"
     inkscape:cx="176.07868"
     inkscape:cy="292.46288"
     inkscape:document-units="px"
     inkscape:current-layer="layer1"
     showgrid="false"
     fit-margin-top="0"
     fit-margin-left="0"
     fit-margin-right="0"
     fit-margin-bottom="0"
     units="px"
     inkscape:window-width="1920"
     inkscape:window-height="1057"
     inkscape:window-x="-8"
     inkscape:window-y="-8"
     inkscape:window-maximized="1" />
  <metadata
     id="metadata7">
    <rdf:RDF>
      <cc:Work
         rdf:about="">
        <dc:format>image/svg+xml</dc:format>
        <dc:type
           rdf:resource="http://purl.org/dc/dcmitype/StillImage" />
        <dc:title></dc:title>
      </cc:Work>
    </rdf:RDF>
  </metadata>
  <g
     inkscape:label="Layer 1"
     inkscape:groupmode="layer"
     id="layer1"
     transform="translate(-496.19989,2508.4809)">
    <rect
       style="opacity:1;fill:#00559b;fill-opacity:1;stroke:none;stroke-width:2.4000001;stroke-linejoin:miter;stroke-miterlimit:4;stroke-dasharray:none;stroke-dashoffset:0;stroke-opacity:1"
       id="rect4182"
       width="600"
       height="800"
       x="496.19986"
       y="-2508.481" />
    <rect
       y="-2508.481"
       x="496.19986"
       height="800"
       width="600"
       id="rect4184"
       style="opacity:1;fill:#ffffff;fill-opacity:1;stroke:none;stroke-width:2.4000001;stroke-linejoin:miter;stroke-miterlimit:4;stroke-dasharray:none;stroke-dashoffset:0;stroke-opacity:1"
       rx="106.4"
       ry="106.4" />
    <rect
       ry="80"
       rx="80"
       style="opacity:1;fill:#00559b;fill-opacity:1;stroke:none;stroke-width:2.4000001;stroke-linejoin:miter;stroke-miterlimit:4;stroke-dasharray:none;stroke-dashoffset:0;stroke-opacity:1"
       id="rect4195"
       width="547.20007"
       height="747.20007"
       x="522.59985"
       y="-2482.0811" />
    <path
       style="fill:#ffffff;fill-opacity:1;fill-rule:nonzero;stroke:none"
       d="m 576.19987,-2107.681 140.78914,0 c 98.64029,1.9085 129.65479,131.8318 41.58789,177.1367 l 56.82294,122.0634 -64.0099,0 -52.81006,-111.7001 -61.58001,0 0,111.7001 -60.8,0 z"
       id="path6490"
       inkscape:connector-curvature="0"
       sodipodi:nodetypes="cccccccccc" />
    <path
       style="opacity:1;fill:#00559b;fill-opacity:1;stroke:none;stroke-width:25;stroke-linejoin:miter;stroke-miterlimit:4;stroke-dasharray:none;stroke-dashoffset:0;stroke-opacity:1"
       d="m 636.99987,-1980.881 79.65002,0 c 18.3651,0 33.15,-14.7626 33.15,-33.1 0,-18.3374 -14.7849,-33.1 -33.15,-33.1 l -79.65002,0 z"
       id="rect13342"
       inkscape:connector-curvature="0"
       sodipodi:nodetypes="cssscc" />
    <rect
       y="-2068.481"
       x="-1044.1998"
       height="80.000008"
       width="32"
       id="rect4251"
       style="opacity:1;fill:#ffd70a;fill-opacity:1;stroke:none;stroke-width:25;stroke-linejoin:miter;stroke-miterlimit:4;stroke-dasharray:none;stroke-dashoffset:0;stroke-opacity:1"
       transform="scale(-1,1)" />
    <rect
       y="-2228.481"
       x="-1044.1998"
       height="80.000008"
       width="32"
       id="rect4263"
       style="opacity:1;fill:#ffd70a;fill-opacity:1;stroke:none;stroke-width:25;stroke-linejoin:miter;stroke-miterlimit:4;stroke-dasharray:none;stroke-dashoffset:0;stroke-opacity:1"
       transform="scale(-1,1)" />
    <rect
       style="opacity:1;fill:#ffd70a;fill-opacity:1;stroke:none;stroke-width:25;stroke-linejoin:miter;stroke-miterlimit:4;stroke-dasharray:none;stroke-dashoffset:0;stroke-opacity:1"
       id="rect4265"
       width="32"
       height="80.000008"
       x="-1044.1998"
       y="-2388.481"
       transform="scale(-1,1)" />
    <path
       sodipodi:nodetypes="ccccccc"
       inkscape:connector-curvature="0"
       id="path13598"
       d="m 1009.5563,-1848.4761 -15.99998,-27.713 18.64358,-10.7639 0,-21.528 32,0 0,40.0033 z"
       style="opacity:1;fill:#ffd70a;fill-opacity:1;stroke:none;stroke-width:3;stroke-linejoin:miter;stroke-miterlimit:4;stroke-dasharray:none;stroke-dashoffset:0;stroke-opacity:1" />
    <rect
       transform="matrix(-0.5,-0.8660254,-0.8660254,0.5,0,0)"
       y="-1718.5397"
       x="1096.0491"
       height="80.000008"
       width="32"
       id="rect13609"
       style="opacity:1;fill:#ffd70a;fill-opacity:1;stroke:none;stroke-width:25;stroke-linejoin:miter;stroke-miterlimit:4;stroke-dasharray:none;stroke-dashoffset:0;stroke-opacity:1" />
    <path
       d="m 559.32377,-2324.145 c -8.6731,-29.6886 -5.8088,-57.1383 7.9633,-84.7301 l 0.5718,0 -4.5509,-8.53 11.3894,-3.4311 11.3416,-1.6927 147.72812,0 2.2874,-2.8593 2.8592,-1.6927 34.07281,0 3.4072,0.5719 2.8355,2.2636 1.1436,1.7155 169.32412,0 11.3655,1.6926 10.7698,3.4311 2.2875,1.1438 1.1207,2.2636 -0.549,2.2874 -1.1436,1.6926 -2.2636,1.1437 -1.7155,0 c 16.8695,24.0654 8.3131,53.8007 10.8149,80.773 l -42.5838,3.9571"
       style="fill:#ffffff;fill-opacity:1;fill-rule:evenodd;stroke:none"
       id="path22598"
       inkscape:connector-curvature="0"
       sodipodi:nodetypes="cccccccccccccccccccccccc" />
    <path
       d="m 605.93468,-2405.4678 0,-1.1437 -1.1438,-2.8355 -2.2636,-2.2635 -2.8353,-0.5718 -22.15931,0 -2.8353,1.1189 -2.2875,2.2874 -0.5719,3.4073 0,66.549 0.5719,2.8593 2.2875,2.2636 2.8353,1.1436 23.27911,0 2.8593,-1.1436 1.6926,-2.2636 0.5719,-2.8593 0,-66.549"
       style="fill:#00559b;fill-opacity:1;fill-rule:nonzero;stroke:none"
       id="path22600"
       inkscape:connector-curvature="0" />
    <path
       d="m 642.29478,-2412.2823 -24.9946,0 -2.2874,0.5718 -1.6928,1.6927 -0.5717,2.2874 0,28.4257 0.5717,1.7156 1.1438,1.6926 2.8354,0.5719 27.282,0 1.6927,-1.6927 0.5718,-2.2874 0,-28.4257 -0.5718,-1.7155 -1.1437,-2.2636 -2.8354,-0.5719"
       style="fill:#00559b;fill-opacity:1;fill-rule:nonzero;stroke:none"
       id="path22602"
       inkscape:connector-curvature="0" />
    <path
       d="m 721.85349,-2412.2823 -64.21411,0 -1.7155,0.5718 -1.6927,1.6927 -0.5718,2.2874 0,28.4257 0.5718,1.7156 1.1437,1.6926 2.2635,0.5719 65.92971,0 1.6927,-1.6927 0.5718,-2.2874 0,-30.1412 -1.7155,-2.2636 -2.2636,-0.5719"
       style="fill:#00559b;fill-opacity:1;fill-rule:nonzero;stroke:none"
       id="path22604"
       inkscape:connector-curvature="0" />
    <path
       d="m 800.8165,-2412.2823 -63.61841,0 -1.7155,0.5718 -2.2636,1.6927 -0.5718,2.2874 0,28.4257 0.5718,1.7156 1.6927,1.6926 2.2874,0.5719 65.33391,0 1.7156,-1.6927 1.1189,-2.2874 0,-28.4257 -0.5718,-1.7155 -1.6927,-2.2636 -2.2875,-0.5719"
       style="fill:#00559b;fill-opacity:1;fill-rule:nonzero;stroke:none"
       id="path22606"
       inkscape:connector-curvature="0" />
    <path
       d="m 879.80331,-2412.2823 -63.64211,0 -1.6927,0.5718 -1.7156,1.6927 -0.5489,2.2874 0,30.1413 1.6926,1.6926 2.2636,0.5719 65.35771,0 2.2636,-1.6927 0.5947,-2.2874 0,-28.4257 -0.5947,-1.7155 -1.7156,-2.2636 -2.2636,-0.5719"
       style="fill:#00559b;fill-opacity:1;fill-rule:nonzero;stroke:none"
       id="path22608"
       inkscape:connector-curvature="0" />
    <path
       d="m 891.19261,-2407.7314 0.5491,-1.7156 1.1436,-2.2635 2.2636,-0.5718 56.80381,0 2.2874,0.5718 1.7155,2.2635 11.3655,28.4496 0,2.2636 -1.1437,2.2874 -1.6927,1.1189 -71.02851,0 -1.7156,-1.6927 -0.5489,-2.2873 0,-28.4257"
       style="fill:#00559b;fill-opacity:1;fill-rule:nonzero;stroke:none"
       id="path22610"
       inkscape:connector-curvature="0" />
    <ellipse
       cy="-2324.9519"
       cx="643.09998"
       id="circle22614"
       style="opacity:1;fill:#00559b;fill-opacity:1;stroke:none;stroke-width:2.4000001;stroke-linejoin:miter;stroke-miterlimit:4;stroke-dasharray:none;stroke-dashoffset:0;stroke-opacity:1"
       rx="30.290005"
       ry="30.290003" />
    <circle
       style="opacity:1;fill:#ffffff;fill-opacity:1;stroke:none;stroke-width:2.4000001;stroke-linejoin:miter;stroke-miterlimit:4;stroke-dasharray:none;stroke-dashoffset:0;stroke-opacity:1"
       id="circle22618"
       cx="643.09998"
       cy="-2324.9519"
       r="19.030003" />
    <ellipse
       style="opacity:1;fill:#00559b;fill-opacity:1;stroke:none;stroke-width:2.4000001;stroke-linejoin:miter;stroke-miterlimit:4;stroke-dasharray:none;stroke-dashoffset:0;stroke-opacity:1"
       id="circle13489"
       cx="856.09985"
       cy="-2324.9519"
       rx="30.290005"
       ry="30.290003" />
    <circle
       r="19.030003"
       cy="-2324.9519"
       cx="856.09985"
       id="circle13491"
       style="opacity:1;fill:#ffffff;fill-opacity:1;stroke:none;stroke-width:2.4000001;stroke-linejoin:miter;stroke-miterlimit:4;stroke-dasharray:none;stroke-dashoffset:0;stroke-opacity:1" />
    <path
       inkscape:connector-curvature="0"
       id="path13371"
       style="fill:#ffffff;fill-opacity:1;fill-rule:evenodd;stroke:none"
       d="m 650.14308,-2153.1814 -1.3644,-0.3584 -1.0341,-1.0204 -0.3447,-1.7092 c 1.6804,-2.5564 1.9677,-4.7539 1.0341,-7.8993 l -0.3447,-0.3309 -0.6894,-1.3789 0.3447,-1.7091 1.0341,-1.0203 4.1078,-3.1024 0,-24.0001 0.3446,-2.0538 1.3789,-1.7091 1.7091,-1.3645 1.0341,0 22.6212,-32.5745 0,0.3447 c -3.5764,-2.6715 -2.097,-5.9318 1.3787,-7.5548 63.78471,-6.219 125.09882,-6.1759 188.89783,-0.3309 l 17.149,45.2423 0,22.291 -0.3448,2.0538 -1.0202,1.7236 -1.7235,1.034 -2.0539,0.6746 1.7092,0.3446 1.7091,1.0342 1.3788,1.7092 0.3448,2.0538 -0.3448,2.0538 -1.0203,1.7236 -1.7235,1.0341 -2.0538,0.6745 -24,4.1248"
       sodipodi:nodetypes="cccccccccccccccccccccccccccccccccc" />
    <path
       inkscape:connector-curvature="0"
       id="path13373"
       style="fill:#00559b;fill-opacity:1;fill-rule:nonzero;stroke:none"
       d="m 710.83959,-2236.4992 0.331,0 2.4129,0.3447 2.3842,1.0342 2.0683,2.0538 1.0192,2.0539 0.3446,2.7432 0,16.4453 -0.3446,2.7433 -1.0192,2.0539 -2.0683,2.0682 -2.3842,1.034 -2.0682,0.331 -29.14181,0 -2.0539,0.6894 -1.3788,1.3788 -2.3842,3.4183 -1.0342,0.6895 -1.034,0.3447 -6.5063,0 -1.3788,-0.3447 -1.0342,-1.0342 -0.3309,-1.3644 0.3309,-1.3788 21.60151,-30.1617 1.7235,-2.0538 2.3842,-1.0341 1.3788,-0.3447 18.1831,-1.7092" />
    <path
       inkscape:connector-curvature="0"
       id="path13375"
       style="fill:#00559b;fill-opacity:1;fill-rule:nonzero;stroke:none"
       d="m 732.42669,-2237.5333 -1.7091,0.3448 -2.3985,1.034 -1.7236,1.7092 -1.3644,2.3986 -0.3447,2.3986 0,17.824 0.3447,2.7433 1.3644,2.0539 1.7236,2.0682 2.3985,1.034 2.0538,0.331 48.00001,0 2.0539,-0.331 2.4129,-1.034 2.0539,-2.0682 1.0204,-2.0539 0.6893,-2.7433 0,-18.8582 -0.6893,-2.3842 -1.0204,-2.4129 -2.0539,-1.7091 -2.4129,-1.3789 -50.39861,1.0341"
       sodipodi:nodetypes="cccccccccccccccccccccccc" />
    <path
       inkscape:connector-curvature="0"
       id="path13377"
       style="fill:#00559b;fill-opacity:1;fill-rule:nonzero;stroke:none"
       d="m 873.68361,-2212.8438 -6.5063,-17.1491 -1.3789,-2.0538 -2.0538,-1.7092 -2.3986,-1.0341 -1.0341,-0.3309 -1.7091,0 -28.12211,-2.0682 -28.1077,-1.0342 -2.3986,0 -2.3986,1.3788 -1.7235,1.7236 -1.3645,2.0538 -0.3447,2.7433 0,18.4992 0.3447,2.7432 1.3645,2.0539 1.7235,2.0682 2.3986,1.0341 2.0538,0.331 65.47941,0 1.0341,-0.331 2.3986,-0.6894 1.7235,-1.3788 1.0203,-2.0539 0.6894,-2.3985 -0.6894,-2.3987" />
    <circle
       style="opacity:1;fill:#00559b;fill-opacity:1;stroke:none;stroke-width:2.4000001;stroke-linejoin:miter;stroke-miterlimit:4;stroke-dasharray:none;stroke-dashoffset:0;stroke-opacity:1"
       id="path13379"
       cx="687.63989"
       cy="-2153.0212"
       r="24.000011" />
    <ellipse
       cy="-2153.0212"
       cx="687.63989"
       id="circle13381"
       style="opacity:1;fill:#ffffff;fill-opacity:1;stroke:none;stroke-width:2.4000001;stroke-linejoin:miter;stroke-miterlimit:4;stroke-dasharray:none;stroke-dashoffset:0;stroke-opacity:1"
       rx="15.940002"
       ry="15.940001" />
    <circle
       cy="-2153.0212"
       cx="834.07996"
       id="ellipse13532"
       style="opacity:1;fill:#00559b;fill-opacity:1;stroke:none;stroke-width:2.4000001;stroke-linejoin:miter;stroke-miterlimit:4;stroke-dasharray:none;stroke-dashoffset:0;stroke-opacity:1"
       r="24.000011" />
    <ellipse
       style="opacity:1;fill:#ffffff;fill-opacity:1;stroke:none;stroke-width:2.4000001;stroke-linejoin:miter;stroke-miterlimit:4;stroke-dasharray:none;stroke-dashoffset:0;stroke-opacity:1"
       id="circle13534"
       cx="834.07996"
       cy="-2153.0212"
       rx="15.940002"
       ry="15.940001" />
  </g>
</svg>
