<?xml version="1.0" encoding="UTF-8" standalone="no"?>
<!-- Created with Inkscape (http://www.inkscape.org/) -->

<svg
   xmlns:dc="http://purl.org/dc/elements/1.1/"
   xmlns:cc="http://creativecommons.org/ns#"
   xmlns:rdf="http://www.w3.org/1999/02/22-rdf-syntax-ns#"
   xmlns:svg="http://www.w3.org/2000/svg"
   xmlns="http://www.w3.org/2000/svg"
   xmlns:sodipodi="http://sodipodi.sourceforge.net/DTD/sodipodi-0.dtd"
   xmlns:inkscape="http://www.inkscape.org/namespaces/inkscape"
   width="600"
   height="800"
   viewBox="0 0 600.00001 800.00002"
   id="svg2"
   version="1.1"
   inkscape:version="0.91 r13725"
   sodipodi:docname="33.svg">
  <defs
     id="defs4">
    <pattern
       y="0"
       x="0"
       height="6"
       width="6"
       patternUnits="userSpaceOnUse"
       id="EMFhbasepattern" />
    <pattern
       y="0"
       x="0"
       height="6"
       width="6"
       patternUnits="userSpaceOnUse"
       id="EMFhbasepattern-6" />
    <pattern
       y="0"
       x="0"
       height="6"
       width="6"
       patternUnits="userSpaceOnUse"
       id="EMFhbasepattern-3" />
    <pattern
       y="0"
       x="0"
       height="6"
       width="6"
       patternUnits="userSpaceOnUse"
       id="EMFhbasepattern-0" />
    <pattern
       y="0"
       x="0"
       height="6"
       width="6"
       patternUnits="userSpaceOnUse"
       id="EMFhbasepattern-2" />
    <pattern
       y="0"
       x="0"
       height="6"
       width="6"
       patternUnits="userSpaceOnUse"
       id="EMFhbasepattern-65" />
    <pattern
       y="0"
       x="0"
       height="6"
       width="6"
       patternUnits="userSpaceOnUse"
       id="EMFhbasepattern-28" />
    <pattern
       y="0"
       x="0"
       height="6"
       width="6"
       patternUnits="userSpaceOnUse"
       id="EMFhbasepattern-5" />
    <pattern
       y="0"
       x="0"
       height="6"
       width="6"
       patternUnits="userSpaceOnUse"
       id="EMFhbasepattern-7" />
    <pattern
       y="0"
       x="0"
       height="6"
       width="6"
       patternUnits="userSpaceOnUse"
       id="EMFhbasepattern-79" />
    <pattern
       y="0"
       x="0"
       height="6"
       width="6"
       patternUnits="userSpaceOnUse"
       id="EMFhbasepattern-30" />
    <pattern
       y="0"
       x="0"
       height="6"
       width="6"
       patternUnits="userSpaceOnUse"
       id="EMFhbasepattern-1" />
    <pattern
       y="0"
       x="0"
       height="6"
       width="6"
       patternUnits="userSpaceOnUse"
       id="EMFhbasepattern-13" />
    <pattern
       y="0"
       x="0"
       height="6"
       width="6"
       patternUnits="userSpaceOnUse"
       id="EMFhbasepattern-05" />
    <pattern
       y="0"
       x="0"
       height="6"
       width="6"
       patternUnits="userSpaceOnUse"
       id="EMFhbasepattern-20" />
  </defs>
  <sodipodi:namedview
     id="base"
     pagecolor="#ffffff"
     bordercolor="#666666"
     borderopacity="1.0"
     inkscape:pageopacity="0.0"
     inkscape:pageshadow="2"
     inkscape:zoom="0.90509668"
     inkscape:cx="409.07495"
     inkscape:cy="502.64037"
     inkscape:document-units="px"
     inkscape:current-layer="layer1"
     showgrid="false"
     fit-margin-top="0"
     fit-margin-left="0"
     fit-margin-right="0"
     fit-margin-bottom="0"
     units="px"
     inkscape:window-width="1920"
     inkscape:window-height="1057"
     inkscape:window-x="-8"
     inkscape:window-y="-8"
     inkscape:window-maximized="1"
     showguides="false" />
  <metadata
     id="metadata7">
    <rdf:RDF>
      <cc:Work
         rdf:about="">
        <dc:format>image/svg+xml</dc:format>
        <dc:type
           rdf:resource="http://purl.org/dc/dcmitype/StillImage" />
        <dc:title></dc:title>
      </cc:Work>
    </rdf:RDF>
  </metadata>
  <g
     inkscape:label="Layer 1"
     inkscape:groupmode="layer"
     id="layer1"
     transform="translate(-944.69729,5938.8817)">
    <rect
       style="opacity:1;fill:#00559b;fill-opacity:1;stroke:none;stroke-width:2.4000001;stroke-linejoin:miter;stroke-miterlimit:4;stroke-dasharray:none;stroke-dashoffset:0;stroke-opacity:1"
       id="rect4182"
       width="600"
       height="800"
       x="944.69727"
       y="-5938.8818" />
    <rect
       y="-5938.8818"
       x="944.69727"
       height="800"
       width="600"
       id="rect4184"
       style="opacity:1;fill:#ffffff;fill-opacity:1;stroke:none;stroke-width:2.4000001;stroke-linejoin:miter;stroke-miterlimit:4;stroke-dasharray:none;stroke-dashoffset:0;stroke-opacity:1"
       rx="106.4"
       ry="106.4" />
    <rect
       ry="80"
       rx="80"
       style="opacity:1;fill:#00559b;fill-opacity:1;stroke:none;stroke-width:2.4000001;stroke-linejoin:miter;stroke-miterlimit:4;stroke-dasharray:none;stroke-dashoffset:0;stroke-opacity:1"
       id="rect4195"
       width="547.20007"
       height="747.20007"
       x="971.09723"
       y="-5912.4819" />
    <path
       style="fill:#ffffff;fill-opacity:1;fill-rule:nonzero;stroke:none"
       d="m 1125.4972,-5512.4819 140.7891,0 c 98.6403,1.9085 129.6548,131.8318 41.5879,177.1367 l 56.8229,122.0634 -64.0098,0 -52.8101,-111.7001 -61.58,0 0,111.7001 -60.8,0 z"
       id="path6490"
       inkscape:connector-curvature="0"
       sodipodi:nodetypes="cccccccccc" />
    <path
       style="opacity:1;fill:#00559b;fill-opacity:1;stroke:none;stroke-width:25;stroke-linejoin:miter;stroke-miterlimit:4;stroke-dasharray:none;stroke-dashoffset:0;stroke-opacity:1"
       d="m 1186.2972,-5385.6819 79.65,0 c 18.3651,0 33.15,-14.7626 33.15,-33.1 0,-18.3374 -14.7849,-33.1 -33.15,-33.1 l -79.65,0 z"
       id="rect13342"
       inkscape:connector-curvature="0"
       sodipodi:nodetypes="cssscc" />
    <path
       d="m 1000.4765,-5749.5652 c -10.17971,-34.8458 -6.81781,-67.0638 9.3466,-99.4485 l 0.6712,0 -5.3415,-10.0118 13.3678,-4.0271 13.3118,-1.9867 173.3896,0 2.6848,-3.356 3.3559,-1.9867 39.9915,0 3.9991,0.6712 3.328,2.6568 1.3423,2.0135 198.7372,0 13.3398,1.9867 12.6406,4.0271 2.6848,1.3424 1.3155,2.6568 -0.6443,2.6848 -1.3424,1.9866 -2.6568,1.3424 -2.0135,0 c 19.7999,28.2458 9.7572,63.1464 12.6937,94.804 l -49.9811,4.6445"
       style="fill:#ffffff;fill-opacity:1;fill-rule:evenodd;stroke:none"
       id="path22598"
       inkscape:connector-curvature="0"
       sodipodi:nodetypes="cccccccccccccccccccccccc" />
    <path
       d="m 1055.1841,-5845.0145 0,-1.3424 -1.3424,-3.328 -2.6568,-2.6567 -3.3279,-0.6712 -26.0085,0 -3.3279,1.3133 -2.6848,2.6847 -0.6712,3.9992 0,78.1092 0.6712,3.3559 2.6848,2.6568 3.3279,1.3423 27.3229,0 3.3559,-1.3423 1.9867,-2.6568 0.6712,-3.3559 0,-78.1092"
       style="fill:#00559b;fill-opacity:1;fill-rule:nonzero;stroke:none"
       id="path22600"
       inkscape:connector-curvature="0" />
    <path
       d="m 1097.8603,-5853.0128 -29.3364,0 -2.6847,0.6712 -1.9868,1.9867 -0.6711,2.6847 0,33.3635 0.6711,2.0136 1.3424,1.9867 3.328,0.6712 32.0211,0 1.9867,-1.9867 0.6712,-2.6848 0,-33.3635 -0.6712,-2.0135 -1.3423,-2.6568 -3.328,-0.6712"
       style="fill:#00559b;fill-opacity:1;fill-rule:nonzero;stroke:none"
       id="path22602"
       inkscape:connector-curvature="0" />
    <path
       d="m 1191.239,-5853.0128 -75.3686,0 -2.0135,0.6712 -1.9867,1.9867 -0.6712,2.6847 0,33.3635 0.6712,2.0136 1.3423,1.9867 2.6568,0.6712 77.3821,0 1.9867,-1.9867 0.6712,-2.6848 0,-35.377 -2.0135,-2.6568 -2.6568,-0.6712"
       style="fill:#00559b;fill-opacity:1;fill-rule:nonzero;stroke:none"
       id="path22604"
       inkscape:connector-curvature="0" />
    <path
       d="m 1283.9185,-5853.0128 -74.6694,0 -2.0135,0.6712 -2.6568,1.9867 -0.6712,2.6847 0,33.3635 0.6712,2.0136 1.9867,1.9867 2.6847,0.6712 76.683,0 2.0136,-1.9867 1.3133,-2.6848 0,-33.3635 -0.6712,-2.0135 -1.9867,-2.6568 -2.6848,-0.6712"
       style="fill:#00559b;fill-opacity:1;fill-rule:nonzero;stroke:none"
       id="path22606"
       inkscape:connector-curvature="0" />
    <path
       d="m 1376.626,-5853.0128 -74.6973,0 -1.9867,0.6712 -2.0136,1.9867 -0.6443,2.6847 0,35.3771 1.9867,1.9867 2.6568,0.6712 76.7109,0 2.6568,-1.9867 0.698,-2.6848 0,-33.3635 -0.698,-2.0135 -2.0136,-2.6568 -2.6568,-0.6712"
       style="fill:#00559b;fill-opacity:1;fill-rule:nonzero;stroke:none"
       id="path22608"
       inkscape:connector-curvature="0" />
    <path
       d="m 1389.9938,-5847.6713 0.6444,-2.0136 1.3423,-2.6567 2.6568,-0.6712 66.6711,0 2.6848,0.6712 2.0135,2.6567 13.3398,33.3915 0,2.6568 -1.3424,2.6847 -1.9867,1.3133 -83.3668,0 -2.0136,-1.9867 -0.6443,-2.6847 0,-33.3635"
       style="fill:#00559b;fill-opacity:1;fill-rule:nonzero;stroke:none"
       id="path22610"
       inkscape:connector-curvature="0" />
    <circle
       cy="-5750.5171"
       cx="1098.8121"
       id="circle22614"
       style="opacity:1;fill:#00559b;fill-opacity:1;stroke:none;stroke-width:2.4000001;stroke-linejoin:miter;stroke-miterlimit:4;stroke-dasharray:none;stroke-dashoffset:0;stroke-opacity:1"
       r="35.555" />
    <ellipse
       style="opacity:1;fill:#ffffff;fill-opacity:1;stroke:none;stroke-width:2.4000001;stroke-linejoin:miter;stroke-miterlimit:4;stroke-dasharray:none;stroke-dashoffset:0;stroke-opacity:1"
       id="circle22618"
       cx="1098.8121"
       cy="-5750.5171"
       rx="22.334999"
       ry="22.335001" />
    <circle
       style="opacity:1;fill:#00559b;fill-opacity:1;stroke:none;stroke-width:2.4000001;stroke-linejoin:miter;stroke-miterlimit:4;stroke-dasharray:none;stroke-dashoffset:0;stroke-opacity:1"
       id="circle13421"
       cx="1348.8121"
       cy="-5750.5171"
       r="35.555" />
    <ellipse
       cy="-5750.5171"
       cx="1348.8121"
       id="circle13423"
       style="opacity:1;fill:#ffffff;fill-opacity:1;stroke:none;stroke-width:2.4000001;stroke-linejoin:miter;stroke-miterlimit:4;stroke-dasharray:none;stroke-dashoffset:0;stroke-opacity:1"
       rx="22.334999"
       ry="22.335001" />
    <path
       inkscape:connector-curvature="0"
       id="path13415"
       style="fill:#ffffff;fill-opacity:1;fill-rule:evenodd;stroke:none"
       d="m 1334.6852,-5591.9519 4.5046,18.9042 61.5756,0 3.1286,-0.9047 2.2617,-1.357 1.3383,-2.6952 c 3.8637,-19.6017 0.6973,-79.7259 -8.9904,-98.9694 l -2.6953,-2.7141 -3.1475,-1.7906 -3.1476,-0.4524 -253.0496,0 c -15.6814,-0.2638 -31.193,4.3162 -44.933,11.7045 l 3.5998,7.1999 -10.3473,35.0755 0,0.4525 -0.4524,4.5046 0,35.0944 -1.7905,0 -1.3571,1.7906 -0.8858,1.8093 0,7.6522 0.8858,1.7906 1.3571,1.357 1.7905,0.4523 17.9807,0 4.957,-18.9042 0.8859,-2.2429 2.2617,-2.2429 2.6952,-0.9047 1.3382,0 c 36.5835,2.5256 28.8747,-8.8773 37.752,24.2947 l 137.5319,0 4.5046,-18.9042 1.3382,-2.2429 2.2617,-2.2429 2.6952,-0.9047 26.9523,0 2.6953,0.4524 2.2617,1.3374 1.7905,2.714 0.4524,0.8867" />
    <path
       inkscape:connector-curvature="0"
       id="path13417"
       style="fill:#00559b;fill-opacity:1;fill-rule:nonzero;stroke:none"
       d="m 1158.0442,-5659.4268 -0.4523,-3.1664 -1.7906,-2.243 -2.2428,-1.357 -3.1476,-0.4327 -36.4138,0 c -18.0938,3.2984 -14.7767,13.3442 -20.676,27.8758 l 0,2.7141 0.9047,2.6952 1.7905,2.2429 2.2618,1.357 2.2428,0.4524 50.3423,0 2.6953,-0.9048 2.2428,-1.3389 1.7906,-2.7141 0.4523,-2.6952 0,-22.4853" />
    <path
       inkscape:connector-curvature="0"
       id="path13419"
       style="fill:#00559b;fill-opacity:1;fill-rule:nonzero;stroke:none"
       d="m 1163.4347,-5591.9519 0,-67.4749 0.4523,-2.7141 1.7906,-2.2428 2.2617,-1.8095 2.6952,-0.4327 21.1283,0 2.6952,0.4327 2.6953,1.357 1.3382,2.243 0.9046,3.1664 0,67.4749 -0.9046,2.714 -1.3382,2.6952 -2.2429,1.339 -3.1476,0.9047 -20.676,0 -3.1475,-0.4524 -2.2617,-1.7905 -1.7906,-2.2617 -0.4523,-2.6953 0,-0.4523" />
    <path
       inkscape:connector-curvature="0"
       id="path13421"
       style="fill:#00559b;fill-opacity:1;fill-rule:nonzero;stroke:none"
       d="m 1204.7865,-5636.9415 0,-27.8947 0.4524,-3.1475 1.3571,-2.2429 2.6952,-1.8094 2.6952,-0.4523 32.3616,0 2.6952,0.4523 2.2429,1.8094 1.8094,2.2429 0.4335,2.6952 0,28.347 -0.4335,2.6952 -1.3571,2.7141 -2.6952,1.3389 -2.6952,0.9048 -32.3616,0 -2.6952,-0.4524 -2.2617,-1.7905 -1.7906,-2.2617 -0.4524,-2.6953 0,-0.4523" />
    <path
       inkscape:connector-curvature="0"
       id="path13423"
       style="fill:#00559b;fill-opacity:1;fill-rule:nonzero;stroke:none"
       d="m 1256.9194,-5636.9415 0,-27.8947 0.4524,-3.1475 1.8093,-2.2429 2.243,-1.8094 2.6951,-0.4523 32.814,0 2.6952,0.4523 2.2428,1.8094 1.7906,2.2429 0.4712,2.6952 0,28.347 -0.4712,2.6952 -1.3382,2.7141 -2.2429,1.3389 -3.1475,0.9048 -32.3616,0 -2.6952,-0.4524 -2.6953,-1.7905 -1.357,-2.2617 -0.9047,-2.6953 0,-0.4523" />
    <path
       inkscape:connector-curvature="0"
       id="path13425"
       style="fill:#00559b;fill-opacity:1;fill-rule:nonzero;stroke:none"
       d="m 1309.5046,-5636.9415 0,-27.8947 0.9047,-3.1475 1.357,-2.2429 2.2429,-1.8094 3.1476,-0.4523 31.9092,0 2.6952,0.4523 2.2617,1.8094 1.7906,2.2429 0.9046,2.6952 0,28.347 -0.9046,2.6952 -1.357,2.7141 -2.243,1.3389 -3.1475,0.9048 -31.9092,0 -2.6953,-0.4524 -2.2428,-1.7905 -1.8095,-2.2617 -0.9046,-2.6953 0,-0.4523" />
    <path
       inkscape:connector-curvature="0"
       id="path13427"
       style="fill:#00559b;fill-opacity:1;fill-rule:nonzero;stroke:none"
       d="m 1401.1988,-5638.2797 -4.4857,-24.747 -0.4524,-1.8095 -1.357,-3.1475 -2.6952,-2.2429 -3.1477,-1.8094 -3.5998,-0.4523 -16.1714,0 -3.1476,0.4523 -2.2429,1.8094 -1.357,2.2429 -0.4335,3.1475 0,27.8947 0.4335,2.6952 1.357,2.7141 2.2429,1.3389 3.1476,0.9048 24.2759,0 1.7905,-0.4524 2.6953,-0.9047 1.8093,-1.7905 1.3382,-2.6952 0,-3.1476" />
    <circle
       style="opacity:1;fill:#ffffff;fill-opacity:1;stroke:none;stroke-width:2.4000001;stroke-linejoin:miter;stroke-miterlimit:4;stroke-dasharray:none;stroke-dashoffset:0;stroke-opacity:1"
       id="path13429"
       cx="1127.2672"
       cy="-5573.2319"
       r="18.65" />
    <circle
       r="18.65"
       cy="-5573.2319"
       cx="1314.2473"
       id="circle13431"
       style="opacity:1;fill:#ffffff;fill-opacity:1;stroke:none;stroke-width:2.4000001;stroke-linejoin:miter;stroke-miterlimit:4;stroke-dasharray:none;stroke-dashoffset:0;stroke-opacity:1" />
  </g>
</svg>
