<?xml version="1.0" encoding="UTF-8" standalone="no"?>
<!-- Created with Inkscape (http://www.inkscape.org/) -->

<svg
   xmlns:dc="http://purl.org/dc/elements/1.1/"
   xmlns:cc="http://creativecommons.org/ns#"
   xmlns:rdf="http://www.w3.org/1999/02/22-rdf-syntax-ns#"
   xmlns:svg="http://www.w3.org/2000/svg"
   xmlns="http://www.w3.org/2000/svg"
   xmlns:sodipodi="http://sodipodi.sourceforge.net/DTD/sodipodi-0.dtd"
   xmlns:inkscape="http://www.inkscape.org/namespaces/inkscape"
   width="600"
   height="800"
   viewBox="0 0 600.00002 800.00001"
   id="svg2"
   version="1.1"
   inkscape:version="0.91 r13725"
   sodipodi:docname="11.svg">
  <defs
     id="defs4">
    <pattern
       y="0"
       x="0"
       height="6"
       width="6"
       patternUnits="userSpaceOnUse"
       id="EMFhbasepattern" />
    <pattern
       y="0"
       x="0"
       height="6"
       width="6"
       patternUnits="userSpaceOnUse"
       id="EMFhbasepattern-6" />
    <pattern
       y="0"
       x="0"
       height="6"
       width="6"
       patternUnits="userSpaceOnUse"
       id="EMFhbasepattern-3" />
    <pattern
       y="0"
       x="0"
       height="6"
       width="6"
       patternUnits="userSpaceOnUse"
       id="EMFhbasepattern-0" />
    <pattern
       y="0"
       x="0"
       height="6"
       width="6"
       patternUnits="userSpaceOnUse"
       id="EMFhbasepattern-2" />
    <pattern
       y="0"
       x="0"
       height="6"
       width="6"
       patternUnits="userSpaceOnUse"
       id="EMFhbasepattern-65" />
    <pattern
       y="0"
       x="0"
       height="6"
       width="6"
       patternUnits="userSpaceOnUse"
       id="EMFhbasepattern-28" />
    <pattern
       y="0"
       x="0"
       height="6"
       width="6"
       patternUnits="userSpaceOnUse"
       id="EMFhbasepattern-5" />
    <pattern
       y="0"
       x="0"
       height="6"
       width="6"
       patternUnits="userSpaceOnUse"
       id="EMFhbasepattern-7" />
    <pattern
       y="0"
       x="0"
       height="6"
       width="6"
       patternUnits="userSpaceOnUse"
       id="EMFhbasepattern-79" />
    <pattern
       y="0"
       x="0"
       height="6"
       width="6"
       patternUnits="userSpaceOnUse"
       id="EMFhbasepattern-30" />
    <pattern
       y="0"
       x="0"
       height="6"
       width="6"
       patternUnits="userSpaceOnUse"
       id="EMFhbasepattern-1" />
    <pattern
       y="0"
       x="0"
       height="6"
       width="6"
       patternUnits="userSpaceOnUse"
       id="EMFhbasepattern-13" />
    <pattern
       y="0"
       x="0"
       height="6"
       width="6"
       patternUnits="userSpaceOnUse"
       id="EMFhbasepattern-05" />
    <pattern
       y="0"
       x="0"
       height="6"
       width="6"
       patternUnits="userSpaceOnUse"
       id="EMFhbasepattern-20" />
  </defs>
  <sodipodi:namedview
     id="base"
     pagecolor="#ffffff"
     bordercolor="#666666"
     borderopacity="1.0"
     inkscape:pageopacity="0.0"
     inkscape:pageshadow="2"
     inkscape:zoom="0.45254834"
     inkscape:cx="-7.8888177"
     inkscape:cy="488.27005"
     inkscape:document-units="px"
     inkscape:current-layer="layer1"
     showgrid="false"
     fit-margin-top="0"
     fit-margin-left="0"
     fit-margin-right="0"
     fit-margin-bottom="0"
     units="px"
     inkscape:window-width="1920"
     inkscape:window-height="1057"
     inkscape:window-x="-8"
     inkscape:window-y="-8"
     inkscape:window-maximized="1"
     showguides="false" />
  <metadata
     id="metadata7">
    <rdf:RDF>
      <cc:Work
         rdf:about="">
        <dc:format>image/svg+xml</dc:format>
        <dc:type
           rdf:resource="http://purl.org/dc/dcmitype/StillImage" />
        <dc:title></dc:title>
      </cc:Work>
    </rdf:RDF>
  </metadata>
  <g
     inkscape:label="Layer 1"
     inkscape:groupmode="layer"
     id="layer1"
     transform="translate(-1023.8448,5991.6817)">
    <rect
       style="opacity:1;fill:#00559b;fill-opacity:1;stroke:none;stroke-width:2.4000001;stroke-linejoin:miter;stroke-miterlimit:4;stroke-dasharray:none;stroke-dashoffset:0;stroke-opacity:1"
       id="rect4182"
       width="600"
       height="800"
       x="1023.8448"
       y="-5991.6816" />
    <rect
       y="-5991.6816"
       x="1023.8448"
       height="800"
       width="600"
       id="rect4184"
       style="opacity:1;fill:#ffffff;fill-opacity:1;stroke:none;stroke-width:2.4000001;stroke-linejoin:miter;stroke-miterlimit:4;stroke-dasharray:none;stroke-dashoffset:0;stroke-opacity:1"
       rx="106.4"
       ry="106.4" />
    <rect
       ry="80"
       rx="80"
       style="opacity:1;fill:#00559b;fill-opacity:1;stroke:none;stroke-width:2.4000001;stroke-linejoin:miter;stroke-miterlimit:4;stroke-dasharray:none;stroke-dashoffset:0;stroke-opacity:1"
       id="rect4195"
       width="547.20007"
       height="747.20007"
       x="1050.2448"
       y="-5965.2817" />
    <path
       style="fill:#ffffff;fill-opacity:1;fill-rule:nonzero;stroke:none"
       d="m 1204.6448,-5565.2818 140.7891,0 c 98.6403,1.9085 129.6548,131.8318 41.5879,177.1367 l 56.8229,122.0634 -64.0098,0 -52.8101,-111.7001 -61.58,0 0,111.7001 -60.8,0 z"
       id="path6490"
       inkscape:connector-curvature="0"
       sodipodi:nodetypes="cccccccccc" />
    <path
       style="opacity:1;fill:#00559b;fill-opacity:1;stroke:none;stroke-width:25;stroke-linejoin:miter;stroke-miterlimit:4;stroke-dasharray:none;stroke-dashoffset:0;stroke-opacity:1"
       d="m 1265.4448,-5438.4818 79.65,0 c 18.3651,0 33.15,-14.7626 33.15,-33.1 0,-18.3374 -14.7849,-33.1 -33.15,-33.1 l -79.65,0 z"
       id="rect13342"
       inkscape:connector-curvature="0"
       sodipodi:nodetypes="cssscc" />
    <path
       d="m 1086.9687,-5802.3461 c -8.6731,-29.6886 -5.8088,-57.1383 7.9633,-84.7301 l 0.5718,0 -4.5509,-8.53 11.3894,-3.4311 11.3416,-1.6927 147.7281,0 2.2874,-2.8593 2.8592,-1.6927 34.0728,0 3.4072,0.5719 2.8355,2.2636 1.1436,1.7155 169.3241,0 11.3655,1.6926 10.7698,3.4311 2.2875,1.1438 1.1207,2.2636 -0.549,2.2874 -1.1436,1.6926 -2.2636,1.1437 -1.7155,0 c 16.8695,24.0654 8.3131,53.8007 10.8149,80.773 l -42.5838,3.9571"
       style="fill:#ffffff;fill-opacity:1;fill-rule:evenodd;stroke:none"
       id="path22598"
       inkscape:connector-curvature="0"
       sodipodi:nodetypes="cccccccccccccccccccccccc" />
    <path
       d="m 1133.5796,-5883.6689 0,-1.1437 -1.1438,-2.8355 -2.2636,-2.2635 -2.8353,-0.5718 -22.1593,0 -2.8353,1.1189 -2.2875,2.2874 -0.5719,3.4073 0,66.549 0.5719,2.8593 2.2875,2.2636 2.8353,1.1436 23.2791,0 2.8593,-1.1436 1.6926,-2.2636 0.5719,-2.8593 0,-66.549"
       style="fill:#00559b;fill-opacity:1;fill-rule:nonzero;stroke:none"
       id="path22600"
       inkscape:connector-curvature="0" />
    <path
       d="m 1169.9397,-5890.4834 -24.9946,0 -2.2874,0.5718 -1.6928,1.6927 -0.5717,2.2874 0,28.4257 0.5717,1.7156 1.1438,1.6926 2.8354,0.5719 27.282,0 1.6927,-1.6927 0.5718,-2.2874 0,-28.4257 -0.5718,-1.7155 -1.1437,-2.2636 -2.8354,-0.5719"
       style="fill:#00559b;fill-opacity:1;fill-rule:nonzero;stroke:none"
       id="path22602"
       inkscape:connector-curvature="0" />
    <path
       d="m 1249.4984,-5890.4834 -64.2141,0 -1.7155,0.5718 -1.6927,1.6927 -0.5718,2.2874 0,28.4257 0.5718,1.7156 1.1437,1.6926 2.2635,0.5719 65.9297,0 1.6927,-1.6927 0.5718,-2.2874 0,-30.1412 -1.7155,-2.2636 -2.2636,-0.5719"
       style="fill:#00559b;fill-opacity:1;fill-rule:nonzero;stroke:none"
       id="path22604"
       inkscape:connector-curvature="0" />
    <path
       d="m 1328.4614,-5890.4834 -63.6184,0 -1.7155,0.5718 -2.2636,1.6927 -0.5718,2.2874 0,28.4257 0.5718,1.7156 1.6927,1.6926 2.2874,0.5719 65.3339,0 1.7156,-1.6927 1.1189,-2.2874 0,-28.4257 -0.5718,-1.7155 -1.6927,-2.2636 -2.2875,-0.5719"
       style="fill:#00559b;fill-opacity:1;fill-rule:nonzero;stroke:none"
       id="path22606"
       inkscape:connector-curvature="0" />
    <path
       d="m 1407.4482,-5890.4834 -63.6421,0 -1.6927,0.5718 -1.7156,1.6927 -0.5489,2.2874 0,30.1413 1.6926,1.6926 2.2636,0.5719 65.3577,0 2.2636,-1.6927 0.5947,-2.2874 0,-28.4257 -0.5947,-1.7155 -1.7156,-2.2636 -2.2636,-0.5719"
       style="fill:#00559b;fill-opacity:1;fill-rule:nonzero;stroke:none"
       id="path22608"
       inkscape:connector-curvature="0" />
    <path
       d="m 1418.8375,-5885.9325 0.5491,-1.7156 1.1436,-2.2635 2.2636,-0.5718 56.8038,0 2.2874,0.5718 1.7155,2.2635 11.3655,28.4496 0,2.2636 -1.1437,2.2874 -1.6927,1.1189 -71.0285,0 -1.7156,-1.6927 -0.5489,-2.2873 0,-28.4257"
       style="fill:#00559b;fill-opacity:1;fill-rule:nonzero;stroke:none"
       id="path22610"
       inkscape:connector-curvature="0" />
    <circle
       cy="-5803.1528"
       cx="1170.7449"
       id="circle22614"
       style="opacity:1;fill:#00559b;fill-opacity:1;stroke:none;stroke-width:2.4000001;stroke-linejoin:miter;stroke-miterlimit:4;stroke-dasharray:none;stroke-dashoffset:0;stroke-opacity:1"
       r="30.290001" />
    <circle
       style="opacity:1;fill:#ffffff;fill-opacity:1;stroke:none;stroke-width:2.4000001;stroke-linejoin:miter;stroke-miterlimit:4;stroke-dasharray:none;stroke-dashoffset:0;stroke-opacity:1"
       id="circle22618"
       cx="1170.7449"
       cy="-5803.1528"
       r="19.030001" />
    <circle
       r="30.290001"
       style="opacity:1;fill:#00559b;fill-opacity:1;stroke:none;stroke-width:2.4000001;stroke-linejoin:miter;stroke-miterlimit:4;stroke-dasharray:none;stroke-dashoffset:0;stroke-opacity:1"
       id="circle13489"
       cx="1383.7448"
       cy="-5803.1528" />
    <circle
       r="19.030001"
       cy="-5803.1528"
       cx="1383.7448"
       id="circle13491"
       style="opacity:1;fill:#ffffff;fill-opacity:1;stroke:none;stroke-width:2.4000001;stroke-linejoin:miter;stroke-miterlimit:4;stroke-dasharray:none;stroke-dashoffset:0;stroke-opacity:1" />
    <rect
       style="opacity:1;fill:#ffd70a;fill-opacity:1;stroke:none;stroke-width:25;stroke-linejoin:miter;stroke-miterlimit:4;stroke-dasharray:none;stroke-dashoffset:0;stroke-opacity:1"
       id="rect4231"
       width="31.999996"
       height="80"
       x="-1571.8448"
       y="-5391.6816"
       transform="scale(-1,1)" />
    <rect
       y="-5551.6816"
       x="-1571.8448"
       height="80"
       width="31.999996"
       id="rect4251"
       style="opacity:1;fill:#ffd70a;fill-opacity:1;stroke:none;stroke-width:25;stroke-linejoin:miter;stroke-miterlimit:4;stroke-dasharray:none;stroke-dashoffset:0;stroke-opacity:1"
       transform="scale(-1,1)" />
    <rect
       y="-5711.6816"
       x="-1571.8448"
       height="80"
       width="31.999996"
       id="rect4263"
       style="opacity:1;fill:#ffd70a;fill-opacity:1;stroke:none;stroke-width:25;stroke-linejoin:miter;stroke-miterlimit:4;stroke-dasharray:none;stroke-dashoffset:0;stroke-opacity:1"
       transform="scale(-1,1)" />
    <rect
       style="opacity:1;fill:#ffd70a;fill-opacity:1;stroke:none;stroke-width:25;stroke-linejoin:miter;stroke-miterlimit:4;stroke-dasharray:none;stroke-dashoffset:0;stroke-opacity:1"
       id="rect4265"
       width="31.999996"
       height="80"
       x="-1571.8448"
       y="-5871.6816"
       transform="scale(-1,1)" />
    <path
       inkscape:connector-curvature="0"
       id="path13415"
       style="fill:#ffffff;fill-opacity:1;fill-rule:evenodd;stroke:none"
       d="m 1377.1504,-5659.3801 4.1101,17.2484 56.1821,0 2.8545,-0.8255 2.0636,-1.2381 1.2211,-2.4592 c 3.5253,-17.8847 0.6362,-72.7426 -8.2029,-90.3005 l -2.4592,-2.4764 -2.8718,-1.6337 -2.8719,-0.4128 -230.8847,0 c -14.3078,-0.2407 -28.4607,3.9381 -40.9972,10.6793 l 3.2844,6.5692 -9.4409,32.0032 0,0.4129 -0.4128,4.11 0,32.0205 -1.6337,0 -1.2382,1.6337 -0.8082,1.6508 0,6.982 0.8082,1.6337 1.2382,1.2382 1.6337,0.4127 16.4058,0 4.5228,-17.2484 0.8083,-2.0464 2.0636,-2.0465 2.4591,-0.8254 1.221,0 c 33.3791,2.3043 26.3455,-8.0998 34.4452,22.1667 l 125.4853,0 4.1101,-17.2484 1.221,-2.0464 2.0635,-2.0465 2.4592,-0.8254 24.5915,0 2.4592,0.4127 2.0636,1.2203 1.6337,2.4763 0.4127,0.809" />
    <path
       inkscape:connector-curvature="0"
       id="path13417"
       style="fill:#00559b;fill-opacity:1;fill-rule:nonzero;stroke:none"
       d="m 1215.9816,-5720.9448 -0.4126,-2.889 -1.6338,-2.0466 -2.0463,-1.2381 -2.8719,-0.3948 -33.2243,0 c -16.5089,3.0095 -13.4824,12.1754 -18.865,25.4341 l 0,2.4764 0.8255,2.4591 1.6337,2.0464 2.0636,1.2382 2.0464,0.4128 45.9327,0 2.4593,-0.8256 2.0463,-1.2216 1.6338,-2.4764 0.4126,-2.4591 0,-20.5158" />
    <path
       inkscape:connector-curvature="0"
       id="path13419"
       style="fill:#00559b;fill-opacity:1;fill-rule:nonzero;stroke:none"
       d="m 1220.9,-5659.3801 0,-61.5647 0.4127,-2.4764 1.6337,-2.0463 2.0636,-1.651 2.4591,-0.3948 19.2777,0 2.4591,0.3948 2.4592,1.2381 1.221,2.0466 0.8254,2.889 0,61.5647 -0.8254,2.4763 -1.221,2.4591 -2.0464,1.2217 -2.8719,0.8255 -18.865,0 -2.8718,-0.4128 -2.0636,-1.6337 -1.6337,-2.0636 -0.4127,-2.4592 0,-0.4127" />
    <path
       inkscape:connector-curvature="0"
       id="path13421"
       style="fill:#00559b;fill-opacity:1;fill-rule:nonzero;stroke:none"
       d="m 1258.6297,-5700.429 0,-25.4514 0.4128,-2.8718 1.2382,-2.0464 2.4592,-1.6509 2.4591,-0.4127 29.527,0 2.4591,0.4127 2.0465,1.6509 1.6509,2.0464 0.3955,2.4591 0,25.8641 -0.3955,2.4591 -1.2383,2.4764 -2.4591,1.2216 -2.4591,0.8256 -29.527,0 -2.4591,-0.4128 -2.0636,-1.6337 -1.6338,-2.0636 -0.4128,-2.4592 0,-0.4127" />
    <path
       inkscape:connector-curvature="0"
       id="path13423"
       style="fill:#00559b;fill-opacity:1;fill-rule:nonzero;stroke:none"
       d="m 1306.1962,-5700.429 0,-25.4514 0.4128,-2.8718 1.6508,-2.0464 2.0466,-1.6509 2.459,-0.4127 29.9398,0 2.4591,0.4127 2.0464,1.6509 1.6337,2.0464 0.4299,2.4591 0,25.8641 -0.4299,2.4591 -1.221,2.4764 -2.0464,1.2216 -2.8718,0.8256 -29.527,0 -2.4591,-0.4128 -2.4593,-1.6337 -1.2381,-2.0636 -0.8255,-2.4592 0,-0.4127" />
    <path
       inkscape:connector-curvature="0"
       id="path13425"
       style="fill:#00559b;fill-opacity:1;fill-rule:nonzero;stroke:none"
       d="m 1354.1754,-5700.429 0,-25.4514 0.8255,-2.8718 1.2381,-2.0464 2.0465,-1.6509 2.8719,-0.4127 29.1142,0 2.4591,0.4127 2.0636,1.6509 1.6338,2.0464 0.8253,2.4591 0,25.8641 -0.8253,2.4591 -1.2382,2.4764 -2.0465,1.2216 -2.8718,0.8256 -29.1142,0 -2.4592,-0.4128 -2.0464,-1.6337 -1.651,-2.0636 -0.8254,-2.4592 0,-0.4127" />
    <path
       inkscape:connector-curvature="0"
       id="path13427"
       style="fill:#00559b;fill-opacity:1;fill-rule:nonzero;stroke:none"
       d="m 1437.838,-5701.65 -4.0928,-22.5794 -0.4127,-1.651 -1.2382,-2.8718 -2.4591,-2.0464 -2.872,-1.6509 -3.2845,-0.4127 -14.7549,0 -2.8719,0.4127 -2.0464,1.6509 -1.2382,2.0464 -0.3955,2.8718 0,25.4514 0.3955,2.4591 1.2382,2.4764 2.0464,1.2216 2.8719,0.8256 22.1495,0 1.6337,-0.4128 2.4592,-0.8255 1.6508,-1.6336 1.221,-2.4592 0,-2.8719" />
    <circle
       style="opacity:1;fill:#ffffff;fill-opacity:1;stroke:none;stroke-width:2.4000001;stroke-linejoin:miter;stroke-miterlimit:4;stroke-dasharray:none;stroke-dashoffset:0;stroke-opacity:1"
       id="path13429"
       cx="1187.8848"
       cy="-5642.2817"
       r="17" />
    <circle
       r="17"
       cy="-5642.2817"
       cx="1358.4847"
       id="circle13431"
       style="opacity:1;fill:#ffffff;fill-opacity:1;stroke:none;stroke-width:2.4000001;stroke-linejoin:miter;stroke-miterlimit:4;stroke-dasharray:none;stroke-dashoffset:0;stroke-opacity:1" />
  </g>
</svg>
