<?xml version="1.0" encoding="UTF-8" standalone="no"?>
<!-- Created with Inkscape (http://www.inkscape.org/) -->

<svg
   xmlns:dc="http://purl.org/dc/elements/1.1/"
   xmlns:cc="http://creativecommons.org/ns#"
   xmlns:rdf="http://www.w3.org/1999/02/22-rdf-syntax-ns#"
   xmlns:svg="http://www.w3.org/2000/svg"
   xmlns="http://www.w3.org/2000/svg"
   xmlns:sodipodi="http://sodipodi.sourceforge.net/DTD/sodipodi-0.dtd"
   xmlns:inkscape="http://www.inkscape.org/namespaces/inkscape"
   width="600"
   height="800"
   viewBox="0 0 600 800.00007"
   id="svg2"
   version="1.1"
   inkscape:version="0.91 r13725"
   sodipodi:docname="33.svg">
  <defs
     id="defs4" />
  <sodipodi:namedview
     id="base"
     pagecolor="#ffffff"
     bordercolor="#666666"
     borderopacity="1.0"
     inkscape:pageopacity="0.0"
     inkscape:pageshadow="2"
     inkscape:zoom="0.50754247"
     inkscape:cx="-2.5546236"
     inkscape:cy="292.46288"
     inkscape:document-units="px"
     inkscape:current-layer="layer1"
     showgrid="false"
     fit-margin-top="0"
     fit-margin-left="0"
     fit-margin-right="0"
     fit-margin-bottom="0"
     units="px"
     inkscape:window-width="1920"
     inkscape:window-height="1057"
     inkscape:window-x="-8"
     inkscape:window-y="-8"
     inkscape:window-maximized="1" />
  <metadata
     id="metadata7">
    <rdf:RDF>
      <cc:Work
         rdf:about="">
        <dc:format>image/svg+xml</dc:format>
        <dc:type
           rdf:resource="http://purl.org/dc/dcmitype/StillImage" />
        <dc:title></dc:title>
      </cc:Work>
    </rdf:RDF>
  </metadata>
  <g
     inkscape:label="Layer 1"
     inkscape:groupmode="layer"
     id="layer1"
     transform="translate(-496.19989,2508.4809)">
    <rect
       style="opacity:1;fill:#00559b;fill-opacity:1;stroke:none;stroke-width:2.4000001;stroke-linejoin:miter;stroke-miterlimit:4;stroke-dasharray:none;stroke-dashoffset:0;stroke-opacity:1"
       id="rect4182"
       width="600"
       height="800"
       x="496.19986"
       y="-2508.481" />
    <rect
       y="-2508.481"
       x="496.19986"
       height="800"
       width="600"
       id="rect4184"
       style="opacity:1;fill:#ffffff;fill-opacity:1;stroke:none;stroke-width:2.4000001;stroke-linejoin:miter;stroke-miterlimit:4;stroke-dasharray:none;stroke-dashoffset:0;stroke-opacity:1"
       rx="106.4"
       ry="106.4" />
    <rect
       ry="80"
       rx="80"
       style="opacity:1;fill:#00559b;fill-opacity:1;stroke:none;stroke-width:2.4000001;stroke-linejoin:miter;stroke-miterlimit:4;stroke-dasharray:none;stroke-dashoffset:0;stroke-opacity:1"
       id="rect4195"
       width="547.20007"
       height="747.20007"
       x="522.59985"
       y="-2482.0811" />
    <path
       style="fill:#ffffff;fill-opacity:1;fill-rule:nonzero;stroke:none"
       d="m 576.19987,-2107.681 140.78914,0 c 98.64029,1.9085 129.65479,131.8318 41.58789,177.1367 l 56.82294,122.0634 -64.0099,0 -52.81006,-111.7001 -61.58001,0 0,111.7001 -60.8,0 z"
       id="path6490"
       inkscape:connector-curvature="0"
       sodipodi:nodetypes="cccccccccc" />
    <path
       style="opacity:1;fill:#00559b;fill-opacity:1;stroke:none;stroke-width:25;stroke-linejoin:miter;stroke-miterlimit:4;stroke-dasharray:none;stroke-dashoffset:0;stroke-opacity:1"
       d="m 636.99987,-1980.881 79.65002,0 c 18.3651,0 33.15,-14.7626 33.15,-33.1 0,-18.3374 -14.7849,-33.1 -33.15,-33.1 l -79.65002,0 z"
       id="rect13342"
       inkscape:connector-curvature="0"
       sodipodi:nodetypes="cssscc" />
    <rect
       y="-2068.481"
       x="-1044.1998"
       height="80.000008"
       width="32"
       id="rect4251"
       style="opacity:1;fill:#ffd70a;fill-opacity:1;stroke:none;stroke-width:25;stroke-linejoin:miter;stroke-miterlimit:4;stroke-dasharray:none;stroke-dashoffset:0;stroke-opacity:1"
       transform="scale(-1,1)" />
    <rect
       y="-2228.481"
       x="-1044.1998"
       height="80.000008"
       width="32"
       id="rect4263"
       style="opacity:1;fill:#ffd70a;fill-opacity:1;stroke:none;stroke-width:25;stroke-linejoin:miter;stroke-miterlimit:4;stroke-dasharray:none;stroke-dashoffset:0;stroke-opacity:1"
       transform="scale(-1,1)" />
    <rect
       style="opacity:1;fill:#ffd70a;fill-opacity:1;stroke:none;stroke-width:25;stroke-linejoin:miter;stroke-miterlimit:4;stroke-dasharray:none;stroke-dashoffset:0;stroke-opacity:1"
       id="rect4265"
       width="32"
       height="80.000008"
       x="-1044.1998"
       y="-2388.481"
       transform="scale(-1,1)" />
    <path
       sodipodi:nodetypes="ccccccc"
       inkscape:connector-curvature="0"
       id="path13598"
       d="m 1009.5563,-1848.4761 -15.99998,-27.713 18.64358,-10.7639 0,-21.528 32,0 0,40.0033 z"
       style="opacity:1;fill:#ffd70a;fill-opacity:1;stroke:none;stroke-width:3;stroke-linejoin:miter;stroke-miterlimit:4;stroke-dasharray:none;stroke-dashoffset:0;stroke-opacity:1" />
    <rect
       transform="matrix(-0.5,-0.8660254,-0.8660254,0.5,0,0)"
       y="-1718.5397"
       x="1096.0491"
       height="80.000008"
       width="32"
       id="rect13609"
       style="opacity:1;fill:#ffd70a;fill-opacity:1;stroke:none;stroke-width:25;stroke-linejoin:miter;stroke-miterlimit:4;stroke-dasharray:none;stroke-dashoffset:0;stroke-opacity:1" />
    <path
       d="m 559.32377,-2319.1453 c -8.6731,-29.6886 -5.8088,-57.1383 7.9633,-84.7301 l 0.5718,0 -4.5509,-8.53 11.3894,-3.4311 11.3416,-1.6927 147.72812,0 2.2874,-2.8593 2.8592,-1.6927 34.07281,0 3.4072,0.5719 2.8355,2.2636 1.1436,1.7155 169.32412,0 11.3655,1.6926 10.7698,3.4311 2.2875,1.1438 1.1207,2.2636 -0.549,2.2874 -1.1436,1.6926 -2.2636,1.1437 -1.7155,0 c 16.8695,24.0654 8.3131,53.8007 10.8149,80.773 l -42.5838,3.9571"
       style="fill:#ffffff;fill-opacity:1;fill-rule:evenodd;stroke:none"
       id="path22598"
       inkscape:connector-curvature="0"
       sodipodi:nodetypes="cccccccccccccccccccccccc" />
    <path
       d="m 605.93468,-2400.4681 0,-1.1437 -1.1438,-2.8355 -2.2636,-2.2635 -2.8353,-0.5718 -22.15931,0 -2.8353,1.1189 -2.2875,2.2874 -0.5719,3.4073 0,66.549 0.5719,2.8593 2.2875,2.2636 2.8353,1.1436 23.27911,0 2.8593,-1.1436 1.6926,-2.2636 0.5719,-2.8593 0,-66.549"
       style="fill:#00559b;fill-opacity:1;fill-rule:nonzero;stroke:none"
       id="path22600"
       inkscape:connector-curvature="0" />
    <path
       d="m 642.29478,-2407.2826 -24.9946,0 -2.2874,0.5718 -1.6928,1.6927 -0.5717,2.2874 0,28.4257 0.5717,1.7156 1.1438,1.6926 2.8354,0.5719 27.282,0 1.6927,-1.6927 0.5718,-2.2874 0,-28.4257 -0.5718,-1.7155 -1.1437,-2.2636 -2.8354,-0.5719"
       style="fill:#00559b;fill-opacity:1;fill-rule:nonzero;stroke:none"
       id="path22602"
       inkscape:connector-curvature="0" />
    <path
       d="m 721.85349,-2407.2826 -64.21411,0 -1.7155,0.5718 -1.6927,1.6927 -0.5718,2.2874 0,28.4257 0.5718,1.7156 1.1437,1.6926 2.2635,0.5719 65.92971,0 1.6927,-1.6927 0.5718,-2.2874 0,-30.1412 -1.7155,-2.2636 -2.2636,-0.5719"
       style="fill:#00559b;fill-opacity:1;fill-rule:nonzero;stroke:none"
       id="path22604"
       inkscape:connector-curvature="0" />
    <path
       d="m 800.8165,-2407.2826 -63.61841,0 -1.7155,0.5718 -2.2636,1.6927 -0.5718,2.2874 0,28.4257 0.5718,1.7156 1.6927,1.6926 2.2874,0.5719 65.33391,0 1.7156,-1.6927 1.1189,-2.2874 0,-28.4257 -0.5718,-1.7155 -1.6927,-2.2636 -2.2875,-0.5719"
       style="fill:#00559b;fill-opacity:1;fill-rule:nonzero;stroke:none"
       id="path22606"
       inkscape:connector-curvature="0" />
    <path
       d="m 879.80331,-2407.2826 -63.64211,0 -1.6927,0.5718 -1.7156,1.6927 -0.5489,2.2874 0,30.1413 1.6926,1.6926 2.2636,0.5719 65.35771,0 2.2636,-1.6927 0.5947,-2.2874 0,-28.4257 -0.5947,-1.7155 -1.7156,-2.2636 -2.2636,-0.5719"
       style="fill:#00559b;fill-opacity:1;fill-rule:nonzero;stroke:none"
       id="path22608"
       inkscape:connector-curvature="0" />
    <path
       d="m 891.19261,-2402.7317 0.5491,-1.7156 1.1436,-2.2635 2.2636,-0.5718 56.80381,0 2.2874,0.5718 1.7155,2.2635 11.3655,28.4496 0,2.2636 -1.1437,2.2874 -1.6927,1.1189 -71.02851,0 -1.7156,-1.6927 -0.5489,-2.2873 0,-28.4257"
       style="fill:#00559b;fill-opacity:1;fill-rule:nonzero;stroke:none"
       id="path22610"
       inkscape:connector-curvature="0" />
    <ellipse
       cy="-2319.9521"
       cx="643.09991"
       id="circle22614"
       style="opacity:1;fill:#00559b;fill-opacity:1;stroke:none;stroke-width:2.4000001;stroke-linejoin:miter;stroke-miterlimit:4;stroke-dasharray:none;stroke-dashoffset:0;stroke-opacity:1"
       rx="30.290005"
       ry="30.290003" />
    <circle
       style="opacity:1;fill:#ffffff;fill-opacity:1;stroke:none;stroke-width:2.4000001;stroke-linejoin:miter;stroke-miterlimit:4;stroke-dasharray:none;stroke-dashoffset:0;stroke-opacity:1"
       id="circle22618"
       cx="643.09991"
       cy="-2319.9521"
       r="19.030003" />
    <ellipse
       style="opacity:1;fill:#00559b;fill-opacity:1;stroke:none;stroke-width:2.4000001;stroke-linejoin:miter;stroke-miterlimit:4;stroke-dasharray:none;stroke-dashoffset:0;stroke-opacity:1"
       id="circle13489"
       cx="856.09985"
       cy="-2319.9521"
       rx="30.290005"
       ry="30.290003" />
    <circle
       r="19.030003"
       cy="-2319.9521"
       cx="856.09985"
       id="circle13491"
       style="opacity:1;fill:#ffffff;fill-opacity:1;stroke:none;stroke-width:2.4000001;stroke-linejoin:miter;stroke-miterlimit:4;stroke-dasharray:none;stroke-dashoffset:0;stroke-opacity:1" />
    <path
       inkscape:connector-curvature="0"
       id="path13415"
       style="fill:#ffffff;fill-opacity:1;fill-rule:evenodd;stroke:none"
       d="m 849.5055,-2176.1793 4.11011,17.2484 56.1821,0 2.8545,-0.8255 2.0636,-1.2381 1.2211,-2.4592 c 3.5253,-17.8847 0.6362,-72.7426 -8.2029,-90.3005 l -2.4592,-2.4764 -2.8718,-1.6337 -2.8719,-0.4128 -230.88473,0 c -14.3078,-0.2407 -28.4607,3.9381 -40.9972,10.6793 l 3.2844,6.5692 -9.4409,32.0032 0,0.4129 -0.4128,4.11 0,32.0205 -1.6337,0 -1.2382,1.6337 -0.8082,1.6508 0,6.982 0.8082,1.6337 1.2382,1.2382 1.6337,0.4127 16.4058,0 4.5228,-17.2484 0.8083,-2.0464 2.0636,-2.0465 2.4591,-0.8254 1.221,0 c 33.3791,2.3043 26.3455,-8.0998 34.4452,22.1667 l 125.48532,0 4.1101,-17.2484 1.221,-2.0464 2.0635,-2.0465 2.4592,-0.8254 24.5915,0 2.4592,0.4127 2.0636,1.2203 1.6337,2.4763 0.4127,0.809" />
    <path
       inkscape:connector-curvature="0"
       id="path13417"
       style="fill:#00559b;fill-opacity:1;fill-rule:nonzero;stroke:none"
       d="m 688.33669,-2237.744 -0.4126,-2.889 -1.6338,-2.0466 -2.04631,-1.2381 -2.8719,-0.3948 -33.2243,0 c -16.5089,3.0095 -13.4824,12.1754 -18.865,25.4341 l 0,2.4764 0.8255,2.4591 1.6337,2.0464 2.0636,1.2382 2.0464,0.4128 45.9327,0 2.4593,-0.8256 2.04631,-1.2216 1.6338,-2.4764 0.4126,-2.4591 0,-20.5158" />
    <path
       inkscape:connector-curvature="0"
       id="path13419"
       style="fill:#00559b;fill-opacity:1;fill-rule:nonzero;stroke:none"
       d="m 693.25509,-2176.1793 0,-61.5647 0.4127,-2.4764 1.6337,-2.0463 2.0636,-1.651 2.4591,-0.3948 19.2777,0 2.4591,0.3948 2.4592,1.2381 1.221,2.0466 0.8254,2.889 0,61.5647 -0.8254,2.4763 -1.221,2.4591 -2.0464,1.2217 -2.8719,0.8255 -18.865,0 -2.8718,-0.4128 -2.0636,-1.6337 -1.6337,-2.0636 -0.4127,-2.4592 0,-0.4127" />
    <path
       inkscape:connector-curvature="0"
       id="path13421"
       style="fill:#00559b;fill-opacity:1;fill-rule:nonzero;stroke:none"
       d="m 730.98479,-2217.2282 0,-25.4514 0.4128,-2.8718 1.2382,-2.0464 2.4592,-1.6509 2.4591,-0.4127 29.527,0 2.45911,0.4127 2.0465,1.6509 1.6509,2.0464 0.3955,2.4591 0,25.8641 -0.3955,2.4591 -1.2383,2.4764 -2.4591,1.2216 -2.45911,0.8256 -29.527,0 -2.4591,-0.4128 -2.0636,-1.6337 -1.6338,-2.0636 -0.4128,-2.4592 0,-0.4127" />
    <path
       inkscape:connector-curvature="0"
       id="path13423"
       style="fill:#00559b;fill-opacity:1;fill-rule:nonzero;stroke:none"
       d="m 778.5513,-2217.2282 0,-25.4514 0.4128,-2.8718 1.6508,-2.0464 2.0466,-1.6509 2.459,-0.4127 29.9398,0 2.4591,0.4127 2.0464,1.6509 1.6337,2.0464 0.4299,2.4591 0,25.8641 -0.4299,2.4591 -1.221,2.4764 -2.0464,1.2216 -2.8718,0.8256 -29.527,0 -2.4591,-0.4128 -2.4593,-1.6337 -1.2381,-2.0636 -0.8255,-2.4592 0,-0.4127" />
    <path
       inkscape:connector-curvature="0"
       id="path13425"
       style="fill:#00559b;fill-opacity:1;fill-rule:nonzero;stroke:none"
       d="m 826.5305,-2217.2282 0,-25.4514 0.8255,-2.8718 1.2381,-2.0464 2.0465,-1.6509 2.8719,-0.4127 29.11421,0 2.4591,0.4127 2.0636,1.6509 1.6338,2.0464 0.8253,2.4591 0,25.8641 -0.8253,2.4591 -1.2382,2.4764 -2.0465,1.2216 -2.8718,0.8256 -29.11421,0 -2.4592,-0.4128 -2.0464,-1.6337 -1.651,-2.0636 -0.8254,-2.4592 0,-0.4127" />
    <path
       inkscape:connector-curvature="0"
       id="path13427"
       style="fill:#00559b;fill-opacity:1;fill-rule:nonzero;stroke:none"
       d="m 910.19311,-2218.4492 -4.0928,-22.5794 -0.4127,-1.651 -1.2382,-2.8718 -2.4591,-2.0464 -2.872,-1.6509 -3.2845,-0.4127 -14.7549,0 -2.8719,0.4127 -2.0464,1.6509 -1.2382,2.0464 -0.3955,2.8718 0,25.4514 0.3955,2.4591 1.2382,2.4764 2.0464,1.2216 2.8719,0.8256 22.1495,0 1.6337,-0.4128 2.4592,-0.8255 1.6508,-1.6336 1.221,-2.4592 0,-2.8719" />
    <circle
       style="opacity:1;fill:#ffffff;fill-opacity:1;stroke:none;stroke-width:2.4000001;stroke-linejoin:miter;stroke-miterlimit:4;stroke-dasharray:none;stroke-dashoffset:0;stroke-opacity:1"
       id="path13429"
       cx="660.23981"
       cy="-2159.0811"
       r="17.000002" />
    <circle
       r="17.000002"
       cy="-2159.0811"
       cx="830.83984"
       id="circle13431"
       style="opacity:1;fill:#ffffff;fill-opacity:1;stroke:none;stroke-width:2.4000001;stroke-linejoin:miter;stroke-miterlimit:4;stroke-dasharray:none;stroke-dashoffset:0;stroke-opacity:1" />
  </g>
</svg>
