<?xml version="1.0" encoding="UTF-8" standalone="no"?>
<!-- Created with Inkscape (http://www.inkscape.org/) -->

<svg
   xmlns:dc="http://purl.org/dc/elements/1.1/"
   xmlns:cc="http://creativecommons.org/ns#"
   xmlns:rdf="http://www.w3.org/1999/02/22-rdf-syntax-ns#"
   xmlns:svg="http://www.w3.org/2000/svg"
   xmlns="http://www.w3.org/2000/svg"
   xmlns:sodipodi="http://sodipodi.sourceforge.net/DTD/sodipodi-0.dtd"
   xmlns:inkscape="http://www.inkscape.org/namespaces/inkscape"
   width="600"
   height="985"
   viewBox="0 0 600.00001 985.00002"
   id="svg2"
   version="1.1"
   inkscape:version="0.91 r13725"
   sodipodi:docname="33.svg">
  <defs
     id="defs4">
    <pattern
       y="0"
       x="0"
       height="6"
       width="6"
       patternUnits="userSpaceOnUse"
       id="EMFhbasepattern" />
    <pattern
       y="0"
       x="0"
       height="6"
       width="6"
       patternUnits="userSpaceOnUse"
       id="EMFhbasepattern-6" />
    <pattern
       y="0"
       x="0"
       height="6"
       width="6"
       patternUnits="userSpaceOnUse"
       id="EMFhbasepattern-3" />
    <pattern
       y="0"
       x="0"
       height="6"
       width="6"
       patternUnits="userSpaceOnUse"
       id="EMFhbasepattern-0" />
    <pattern
       y="0"
       x="0"
       height="6"
       width="6"
       patternUnits="userSpaceOnUse"
       id="EMFhbasepattern-2" />
    <pattern
       y="0"
       x="0"
       height="6"
       width="6"
       patternUnits="userSpaceOnUse"
       id="EMFhbasepattern-65" />
    <pattern
       y="0"
       x="0"
       height="6"
       width="6"
       patternUnits="userSpaceOnUse"
       id="EMFhbasepattern-28" />
    <pattern
       y="0"
       x="0"
       height="6"
       width="6"
       patternUnits="userSpaceOnUse"
       id="EMFhbasepattern-5" />
    <pattern
       y="0"
       x="0"
       height="6"
       width="6"
       patternUnits="userSpaceOnUse"
       id="EMFhbasepattern-7" />
    <pattern
       y="0"
       x="0"
       height="6"
       width="6"
       patternUnits="userSpaceOnUse"
       id="EMFhbasepattern-79" />
    <pattern
       y="0"
       x="0"
       height="6"
       width="6"
       patternUnits="userSpaceOnUse"
       id="EMFhbasepattern-30" />
    <pattern
       y="0"
       x="0"
       height="6"
       width="6"
       patternUnits="userSpaceOnUse"
       id="EMFhbasepattern-1" />
    <pattern
       y="0"
       x="0"
       height="6"
       width="6"
       patternUnits="userSpaceOnUse"
       id="EMFhbasepattern-13" />
    <pattern
       y="0"
       x="0"
       height="6"
       width="6"
       patternUnits="userSpaceOnUse"
       id="EMFhbasepattern-05" />
    <pattern
       y="0"
       x="0"
       height="6"
       width="6"
       patternUnits="userSpaceOnUse"
       id="EMFhbasepattern-20" />
  </defs>
  <sodipodi:namedview
     id="base"
     pagecolor="#ffffff"
     bordercolor="#666666"
     borderopacity="1.0"
     inkscape:pageopacity="0.0"
     inkscape:pageshadow="2"
     inkscape:zoom="0.64"
     inkscape:cx="438.92135"
     inkscape:cy="429.29183"
     inkscape:document-units="px"
     inkscape:current-layer="layer1"
     showgrid="false"
     fit-margin-top="0"
     fit-margin-left="0"
     fit-margin-right="0"
     fit-margin-bottom="0"
     units="px"
     inkscape:window-width="1920"
     inkscape:window-height="1057"
     inkscape:window-x="-8"
     inkscape:window-y="-8"
     inkscape:window-maximized="1"
     showguides="false" />
  <metadata
     id="metadata7">
    <rdf:RDF>
      <cc:Work
         rdf:about="">
        <dc:format>image/svg+xml</dc:format>
        <dc:type
           rdf:resource="http://purl.org/dc/dcmitype/StillImage" />
        <dc:title></dc:title>
      </cc:Work>
    </rdf:RDF>
  </metadata>
  <g
     inkscape:label="Layer 1"
     inkscape:groupmode="layer"
     id="layer1"
     transform="translate(-994.69729,6497.482)">
    <rect
       style="opacity:1;fill:#00559b;fill-opacity:1;stroke:none;stroke-width:2.4000001;stroke-linejoin:miter;stroke-miterlimit:4;stroke-dasharray:none;stroke-dashoffset:0;stroke-opacity:1"
       id="rect4182"
       width="600"
       height="985"
       x="994.69727"
       y="-6497.4819" />
    <rect
       y="-6497.4819"
       x="994.69727"
       height="985"
       width="600"
       id="rect4184"
       style="opacity:1;fill:#ffffff;fill-opacity:1;stroke:none;stroke-width:2.4000001;stroke-linejoin:miter;stroke-miterlimit:4;stroke-dasharray:none;stroke-dashoffset:0;stroke-opacity:1"
       rx="106.4"
       ry="106.4" />
    <rect
       ry="80"
       rx="80"
       style="opacity:1;fill:#00559b;fill-opacity:1;stroke:none;stroke-width:2.4000001;stroke-linejoin:miter;stroke-miterlimit:4;stroke-dasharray:none;stroke-dashoffset:0;stroke-opacity:1"
       id="rect4195"
       width="547.20007"
       height="932.20001"
       x="1021.0972"
       y="-6471.082" />
    <path
       style="fill:#ffffff;fill-opacity:1;fill-rule:nonzero;stroke:none"
       d="m 1175.4972,-5886.0821 140.7891,0 c 98.6403,1.9085 129.6548,131.8318 41.5879,177.1367 l 56.8229,122.0634 -64.0098,0 -52.8101,-111.7001 -61.58,0 0,111.7001 -60.8,0 z"
       id="path6490"
       inkscape:connector-curvature="0"
       sodipodi:nodetypes="cccccccccc" />
    <path
       style="opacity:1;fill:#00559b;fill-opacity:1;stroke:none;stroke-width:25;stroke-linejoin:miter;stroke-miterlimit:4;stroke-dasharray:none;stroke-dashoffset:0;stroke-opacity:1"
       d="m 1236.2972,-5759.2821 79.65,0 c 18.3651,0 33.15,-14.7626 33.15,-33.1 0,-18.3374 -14.7849,-33.1 -33.15,-33.1 l -79.65,0 z"
       id="rect13342"
       inkscape:connector-curvature="0"
       sodipodi:nodetypes="cssscc" />
    <path
       d="m 1050.4765,-6320.2661 c -10.1797,-34.8458 -6.8178,-67.0638 9.3466,-99.4485 l 0.6712,0 -5.3415,-10.0118 13.3678,-4.0271 13.3118,-1.9867 173.3896,0 2.6848,-3.356 3.3559,-1.9867 39.9915,0 3.9991,0.6712 3.328,2.6568 1.3423,2.0135 198.7372,0 13.3398,1.9867 12.6406,4.0271 2.6848,1.3424 1.3155,2.6568 -0.6443,2.6848 -1.3424,1.9866 -2.6568,1.3424 -2.0135,0 c 19.7999,28.2458 9.7572,63.1464 12.6937,94.804 l -49.9811,4.6445"
       style="fill:#ffffff;fill-opacity:1;fill-rule:evenodd;stroke:none"
       id="path22598"
       inkscape:connector-curvature="0"
       sodipodi:nodetypes="cccccccccccccccccccccccc" />
    <path
       d="m 1105.1841,-6415.7154 0,-1.3424 -1.3424,-3.328 -2.6568,-2.6567 -3.3279,-0.6712 -26.0085,0 -3.3279,1.3133 -2.6848,2.6847 -0.6712,3.9992 0,78.1092 0.6712,3.3559 2.6848,2.6568 3.3279,1.3423 27.3229,0 3.3559,-1.3423 1.9867,-2.6568 0.6712,-3.3559 0,-78.1092"
       style="fill:#00559b;fill-opacity:1;fill-rule:nonzero;stroke:none"
       id="path22600"
       inkscape:connector-curvature="0" />
    <path
       d="m 1147.8603,-6423.7137 -29.3364,0 -2.6847,0.6712 -1.9868,1.9867 -0.6711,2.6847 0,33.3635 0.6711,2.0136 1.3424,1.9867 3.328,0.6712 32.0211,0 1.9867,-1.9867 0.6712,-2.6848 0,-33.3635 -0.6712,-2.0135 -1.3423,-2.6568 -3.328,-0.6712"
       style="fill:#00559b;fill-opacity:1;fill-rule:nonzero;stroke:none"
       id="path22602"
       inkscape:connector-curvature="0" />
    <path
       d="m 1241.239,-6423.7137 -75.3686,0 -2.0135,0.6712 -1.9867,1.9867 -0.6712,2.6847 0,33.3635 0.6712,2.0136 1.3423,1.9867 2.6568,0.6712 77.3821,0 1.9867,-1.9867 0.6712,-2.6848 0,-35.377 -2.0135,-2.6568 -2.6568,-0.6712"
       style="fill:#00559b;fill-opacity:1;fill-rule:nonzero;stroke:none"
       id="path22604"
       inkscape:connector-curvature="0" />
    <path
       d="m 1333.9185,-6423.7137 -74.6694,0 -2.0135,0.6712 -2.6568,1.9867 -0.6712,2.6847 0,33.3635 0.6712,2.0136 1.9867,1.9867 2.6847,0.6712 76.683,0 2.0136,-1.9867 1.3133,-2.6848 0,-33.3635 -0.6712,-2.0135 -1.9867,-2.6568 -2.6848,-0.6712"
       style="fill:#00559b;fill-opacity:1;fill-rule:nonzero;stroke:none"
       id="path22606"
       inkscape:connector-curvature="0" />
    <path
       d="m 1426.626,-6423.7137 -74.6973,0 -1.9867,0.6712 -2.0136,1.9867 -0.6443,2.6847 0,35.3771 1.9867,1.9867 2.6568,0.6712 76.7109,0 2.6568,-1.9867 0.698,-2.6848 0,-33.3635 -0.698,-2.0135 -2.0136,-2.6568 -2.6568,-0.6712"
       style="fill:#00559b;fill-opacity:1;fill-rule:nonzero;stroke:none"
       id="path22608"
       inkscape:connector-curvature="0" />
    <path
       d="m 1439.9938,-6418.3722 0.6444,-2.0136 1.3423,-2.6567 2.6568,-0.6712 66.6711,0 2.6848,0.6712 2.0135,2.6567 13.3398,33.3915 0,2.6568 -1.3424,2.6847 -1.9867,1.3133 -83.3668,0 -2.0136,-1.9867 -0.6443,-2.6847 0,-33.3635"
       style="fill:#00559b;fill-opacity:1;fill-rule:nonzero;stroke:none"
       id="path22610"
       inkscape:connector-curvature="0" />
    <circle
       cy="-6321.2168"
       cx="1148.8121"
       id="circle22614"
       style="opacity:1;fill:#00559b;fill-opacity:1;stroke:none;stroke-width:2.4000001;stroke-linejoin:miter;stroke-miterlimit:4;stroke-dasharray:none;stroke-dashoffset:0;stroke-opacity:1"
       r="35.555" />
    <ellipse
       style="opacity:1;fill:#ffffff;fill-opacity:1;stroke:none;stroke-width:2.4000001;stroke-linejoin:miter;stroke-miterlimit:4;stroke-dasharray:none;stroke-dashoffset:0;stroke-opacity:1"
       id="circle22618"
       cx="1148.8121"
       cy="-6321.2168"
       rx="22.334999"
       ry="22.335001" />
    <circle
       style="opacity:1;fill:#00559b;fill-opacity:1;stroke:none;stroke-width:2.4000001;stroke-linejoin:miter;stroke-miterlimit:4;stroke-dasharray:none;stroke-dashoffset:0;stroke-opacity:1"
       id="circle13421"
       cx="1398.8123"
       cy="-6321.2168"
       r="35.555" />
    <ellipse
       cy="-6321.2168"
       cx="1398.8123"
       id="circle13423"
       style="opacity:1;fill:#ffffff;fill-opacity:1;stroke:none;stroke-width:2.4000001;stroke-linejoin:miter;stroke-miterlimit:4;stroke-dasharray:none;stroke-dashoffset:0;stroke-opacity:1"
       rx="22.334999"
       ry="22.335001" />
    <path
       inkscape:connector-curvature="0"
       id="path13415"
       style="fill:#ffffff;fill-opacity:1;fill-rule:evenodd;stroke:none"
       d="m 1384.6852,-6135.4526 4.5046,18.9042 61.5756,0 3.1286,-0.9047 2.2618,-1.357 1.3382,-2.6952 c 3.8637,-19.6017 0.6973,-79.7259 -8.9904,-98.9694 l -2.6953,-2.7141 -3.1475,-1.7906 -3.1475,-0.4524 -253.0497,0 c -15.6814,-0.2638 -31.193,4.3162 -44.933,11.7045 l 3.5998,7.1999 -10.3473,35.0755 0,0.4525 -0.4524,4.5046 0,35.0944 -1.7905,0 -1.357,1.7906 -0.8859,1.8093 0,7.6522 0.8859,1.7906 1.357,1.357 1.7905,0.4523 17.9808,0 4.9569,-18.9042 0.8859,-2.2429 2.2617,-2.2429 2.6952,-0.9047 1.3382,0 c 36.5835,2.5256 28.8747,-8.8773 37.752,24.2947 l 137.5319,0 4.5046,-18.9042 1.3382,-2.2429 2.2617,-2.2429 2.6953,-0.9047 26.9523,0 2.6952,0.4524 2.2617,1.3374 1.7905,2.714 0.4524,0.8867" />
    <path
       inkscape:connector-curvature="0"
       id="path13417"
       style="fill:#00559b;fill-opacity:1;fill-rule:nonzero;stroke:none"
       d="m 1208.0442,-6202.9275 -0.4523,-3.1664 -1.7905,-2.243 -2.2429,-1.357 -3.1476,-0.4327 -36.4138,0 c -18.0938,3.2984 -14.7767,13.3442 -20.676,27.8758 l 0,2.7141 0.9047,2.6952 1.7905,2.2429 2.2618,1.357 2.2428,0.4524 50.3423,0 2.6953,-0.9048 2.2429,-1.3389 1.7905,-2.7141 0.4523,-2.6952 0,-22.4853" />
    <path
       inkscape:connector-curvature="0"
       id="path13419"
       style="fill:#00559b;fill-opacity:1;fill-rule:nonzero;stroke:none"
       d="m 1213.4347,-6135.4526 0,-67.4749 0.4523,-2.7141 1.7906,-2.2428 2.2617,-1.8095 2.6952,-0.4327 21.1283,0 2.6952,0.4327 2.6953,1.357 1.3382,2.243 0.9047,3.1664 0,67.4749 -0.9047,2.714 -1.3382,2.6952 -2.2429,1.339 -3.1476,0.9047 -20.676,0 -3.1475,-0.4524 -2.2617,-1.7905 -1.7906,-2.2617 -0.4523,-2.6953 0,-0.4523" />
    <path
       inkscape:connector-curvature="0"
       id="path13421"
       style="fill:#00559b;fill-opacity:1;fill-rule:nonzero;stroke:none"
       d="m 1254.7866,-6180.4422 0,-27.8947 0.4524,-3.1475 1.357,-2.2429 2.6952,-1.8094 2.6952,-0.4523 32.3616,0 2.6952,0.4523 2.2429,1.8094 1.8094,2.2429 0.4335,2.6952 0,28.347 -0.4335,2.6952 -1.3571,2.7141 -2.6952,1.3389 -2.6952,0.9048 -32.3616,0 -2.6952,-0.4524 -2.2617,-1.7905 -1.7905,-2.2617 -0.4524,-2.6953 0,-0.4523" />
    <path
       inkscape:connector-curvature="0"
       id="path13423"
       style="fill:#00559b;fill-opacity:1;fill-rule:nonzero;stroke:none"
       d="m 1306.9194,-6180.4422 0,-27.8947 0.4524,-3.1475 1.8093,-2.2429 2.243,-1.8094 2.6952,-0.4523 32.8139,0 2.6952,0.4523 2.2429,1.8094 1.7905,2.2429 0.4712,2.6952 0,28.347 -0.4712,2.6952 -1.3382,2.7141 -2.2429,1.3389 -3.1475,0.9048 -32.3616,0 -2.6952,-0.4524 -2.6953,-1.7905 -1.357,-2.2617 -0.9047,-2.6953 0,-0.4523" />
    <path
       inkscape:connector-curvature="0"
       id="path13425"
       style="fill:#00559b;fill-opacity:1;fill-rule:nonzero;stroke:none"
       d="m 1359.5046,-6180.4422 0,-27.8947 0.9047,-3.1475 1.357,-2.2429 2.2429,-1.8094 3.1476,-0.4523 31.9092,0 2.6952,0.4523 2.2617,1.8094 1.7906,2.2429 0.9046,2.6952 0,28.347 -0.9046,2.6952 -1.357,2.7141 -2.243,1.3389 -3.1475,0.9048 -31.9092,0 -2.6953,-0.4524 -2.2428,-1.7905 -1.8094,-2.2617 -0.9047,-2.6953 0,-0.4523" />
    <path
       inkscape:connector-curvature="0"
       id="path13427"
       style="fill:#00559b;fill-opacity:1;fill-rule:nonzero;stroke:none"
       d="m 1451.1988,-6181.7804 -4.4857,-24.747 -0.4524,-1.8095 -1.357,-3.1475 -2.6952,-2.2429 -3.1476,-1.8094 -3.5999,-0.4523 -16.1714,0 -3.1476,0.4523 -2.2428,1.8094 -1.357,2.2429 -0.4336,3.1475 0,27.8947 0.4336,2.6952 1.357,2.7141 2.2428,1.3389 3.1476,0.9048 24.2759,0 1.7905,-0.4524 2.6953,-0.9047 1.8093,-1.7905 1.3382,-2.6952 0,-3.1476" />
    <circle
       style="opacity:1;fill:#ffffff;fill-opacity:1;stroke:none;stroke-width:2.4000001;stroke-linejoin:miter;stroke-miterlimit:4;stroke-dasharray:none;stroke-dashoffset:0;stroke-opacity:1"
       id="path13429"
       cx="1177.2673"
       cy="-6116.7319"
       r="18.65" />
    <circle
       r="18.65"
       cy="-6116.7319"
       cx="1364.2473"
       id="circle13431"
       style="opacity:1;fill:#ffffff;fill-opacity:1;stroke:none;stroke-width:2.4000001;stroke-linejoin:miter;stroke-miterlimit:4;stroke-dasharray:none;stroke-dashoffset:0;stroke-opacity:1" />
    <path
       inkscape:connector-curvature="0"
       id="path13371"
       style="fill:#ffffff;fill-opacity:1;fill-rule:evenodd;stroke:none"
       d="m 1174.5092,-5932.5788 -1.3986,-0.3675 -1.0599,-1.0459 -0.3534,-1.7518 c 1.7225,-2.6205 2.0169,-4.8729 1.0599,-8.0969 l -0.3533,-0.3392 -0.7066,-1.4134 0.3534,-1.7518 1.0599,-1.0459 4.2104,-3.1799 0,-24.6001 0.3533,-2.1051 1.4133,-1.7519 1.7519,-1.3986 1.06,0 23.1867,-33.3888 0,0.3533 c -3.6657,-2.7382 -2.1494,-6.0801 1.4133,-7.7437 65.3792,-6.3744 128.2262,-6.3302 193.6201,-0.3391 l 17.5777,46.3734 0,22.8482 -0.3533,2.1051 -1.0458,1.7667 -1.7667,1.0599 -2.1051,0.6914 1.7518,0.3533 1.7519,1.06 1.4133,1.7519 0.3533,2.1052 -0.3533,2.1052 -1.0458,1.7666 -1.7667,1.06 -2.1051,0.6913 -24.5999,4.2281"
       sodipodi:nodetypes="cccccccccccccccccccccccccccccccccc" />
    <path
       inkscape:connector-curvature="0"
       id="path13373"
       style="fill:#00559b;fill-opacity:1;fill-rule:nonzero;stroke:none"
       d="m 1236.7232,-6017.98 0.3392,0 2.4732,0.3533 2.4438,1.06 2.12,2.1052 1.0446,2.1052 0.3533,2.8119 0,16.8563 -0.3533,2.8118 -1.0446,2.1053 -2.12,2.1199 -2.4438,1.0599 -2.1199,0.3392 -29.8704,0 -2.1052,0.7067 -1.4133,1.4132 -2.4438,3.5038 -1.06,0.7067 -1.0599,0.3533 -6.669,0 -1.4132,-0.3533 -1.06,-1.06 -0.3392,-1.3985 0.3392,-1.4133 22.1415,-30.9157 1.7666,-2.1051 2.4438,-1.06 1.4132,-0.3533 18.6377,-1.7519" />
    <path
       inkscape:connector-curvature="0"
       id="path13375"
       style="fill:#00559b;fill-opacity:1;fill-rule:nonzero;stroke:none"
       d="m 1258.8499,-6019.04 -1.7518,0.3534 -2.4586,1.0599 -1.7666,1.7519 -1.3986,2.4586 -0.3533,2.4585 0,18.2696 0.3533,2.8118 1.3986,2.1053 1.7666,2.1199 2.4586,1.0599 2.1051,0.3392 49.2,0 2.1052,-0.3392 2.4733,-1.0599 2.1052,-2.1199 1.0458,-2.1053 0.7067,-2.8118 0,-19.3296 -0.7067,-2.4438 -1.0458,-2.4732 -2.1052,-1.7519 -2.4733,-1.4133 -22.8334,0 -28.8251,1.0599" />
    <path
       inkscape:connector-curvature="0"
       id="path13377"
       style="fill:#00559b;fill-opacity:1;fill-rule:nonzero;stroke:none"
       d="m 1403.6381,-5993.7334 -6.669,-17.5777 -1.4132,-2.1051 -2.1053,-1.752 -2.4585,-1.0599 -1.06,-0.3392 -1.7519,0 -28.8251,-2.1199 -28.8104,-1.06 -2.4585,0 -2.4585,1.4133 -1.7667,1.7666 -1.3985,2.1052 -0.3533,2.8119 0,18.9615 0.3533,2.8118 1.3985,2.1053 1.7667,2.1199 2.4585,1.0599 2.1052,0.3393 67.1163,0 1.06,-0.3393 2.4585,-0.7066 1.7666,-1.4133 1.0458,-2.1052 0.7067,-2.4585 -0.7067,-2.4586" />
    <circle
       style="opacity:1;fill:#00559b;fill-opacity:1;stroke:none;stroke-width:2.4000001;stroke-linejoin:miter;stroke-miterlimit:4;stroke-dasharray:none;stroke-dashoffset:0;stroke-opacity:1"
       id="path13379"
       cx="1212.9272"
       cy="-5932.4219"
       r="24.599998" />
    <ellipse
       cy="-5932.4219"
       cx="1212.9272"
       id="circle13381"
       style="opacity:1;fill:#ffffff;fill-opacity:1;stroke:none;stroke-width:2.4000001;stroke-linejoin:miter;stroke-miterlimit:4;stroke-dasharray:none;stroke-dashoffset:0;stroke-opacity:1"
       rx="16.34"
       ry="16.339998" />
    <circle
       r="24.599998"
       cy="-5932.4219"
       cx="1363.0474"
       id="circle13406"
       style="opacity:1;fill:#00559b;fill-opacity:1;stroke:none;stroke-width:2.4000001;stroke-linejoin:miter;stroke-miterlimit:4;stroke-dasharray:none;stroke-dashoffset:0;stroke-opacity:1" />
    <ellipse
       ry="16.339998"
       rx="16.34"
       style="opacity:1;fill:#ffffff;fill-opacity:1;stroke:none;stroke-width:2.4000001;stroke-linejoin:miter;stroke-miterlimit:4;stroke-dasharray:none;stroke-dashoffset:0;stroke-opacity:1"
       id="ellipse13408"
       cx="1363.0474"
       cy="-5932.4219" />
  </g>
</svg>
