<?xml version="1.0" encoding="UTF-8" standalone="no"?>
<!-- Created with Inkscape (http://www.inkscape.org/) -->

<svg
   xmlns:dc="http://purl.org/dc/elements/1.1/"
   xmlns:cc="http://creativecommons.org/ns#"
   xmlns:rdf="http://www.w3.org/1999/02/22-rdf-syntax-ns#"
   xmlns:svg="http://www.w3.org/2000/svg"
   xmlns="http://www.w3.org/2000/svg"
   xmlns:sodipodi="http://sodipodi.sourceforge.net/DTD/sodipodi-0.dtd"
   xmlns:inkscape="http://www.inkscape.org/namespaces/inkscape"
   width="600"
   height="985"
   viewBox="0 0 600.00001 985.00008"
   id="svg2"
   version="1.1"
   inkscape:version="0.91 r13725"
   sodipodi:docname="11.svg">
  <defs
     id="defs4">
    <pattern
       y="0"
       x="0"
       height="6"
       width="6"
       patternUnits="userSpaceOnUse"
       id="EMFhbasepattern" />
    <pattern
       y="0"
       x="0"
       height="6"
       width="6"
       patternUnits="userSpaceOnUse"
       id="EMFhbasepattern-6" />
    <pattern
       y="0"
       x="0"
       height="6"
       width="6"
       patternUnits="userSpaceOnUse"
       id="EMFhbasepattern-3" />
    <pattern
       y="0"
       x="0"
       height="6"
       width="6"
       patternUnits="userSpaceOnUse"
       id="EMFhbasepattern-0" />
    <pattern
       y="0"
       x="0"
       height="6"
       width="6"
       patternUnits="userSpaceOnUse"
       id="EMFhbasepattern-2" />
    <pattern
       y="0"
       x="0"
       height="6"
       width="6"
       patternUnits="userSpaceOnUse"
       id="EMFhbasepattern-65" />
    <pattern
       y="0"
       x="0"
       height="6"
       width="6"
       patternUnits="userSpaceOnUse"
       id="EMFhbasepattern-28" />
    <pattern
       y="0"
       x="0"
       height="6"
       width="6"
       patternUnits="userSpaceOnUse"
       id="EMFhbasepattern-5" />
    <pattern
       y="0"
       x="0"
       height="6"
       width="6"
       patternUnits="userSpaceOnUse"
       id="EMFhbasepattern-7" />
    <pattern
       y="0"
       x="0"
       height="6"
       width="6"
       patternUnits="userSpaceOnUse"
       id="EMFhbasepattern-79" />
    <pattern
       y="0"
       x="0"
       height="6"
       width="6"
       patternUnits="userSpaceOnUse"
       id="EMFhbasepattern-30" />
    <pattern
       y="0"
       x="0"
       height="6"
       width="6"
       patternUnits="userSpaceOnUse"
       id="EMFhbasepattern-1" />
    <pattern
       y="0"
       x="0"
       height="6"
       width="6"
       patternUnits="userSpaceOnUse"
       id="EMFhbasepattern-13" />
    <pattern
       y="0"
       x="0"
       height="6"
       width="6"
       patternUnits="userSpaceOnUse"
       id="EMFhbasepattern-05" />
    <pattern
       y="0"
       x="0"
       height="6"
       width="6"
       patternUnits="userSpaceOnUse"
       id="EMFhbasepattern-20" />
  </defs>
  <sodipodi:namedview
     id="base"
     pagecolor="#ffffff"
     bordercolor="#666666"
     borderopacity="1.0"
     inkscape:pageopacity="0.0"
     inkscape:pageshadow="2"
     inkscape:zoom="0.90509668"
     inkscape:cx="321.94614"
     inkscape:cy="600.38715"
     inkscape:document-units="px"
     inkscape:current-layer="layer1"
     showgrid="false"
     fit-margin-top="0"
     fit-margin-left="0"
     fit-margin-right="0"
     fit-margin-bottom="0"
     units="px"
     inkscape:window-width="1920"
     inkscape:window-height="1057"
     inkscape:window-x="-8"
     inkscape:window-y="-8"
     inkscape:window-maximized="1"
     showguides="false" />
  <metadata
     id="metadata7">
    <rdf:RDF>
      <cc:Work
         rdf:about="">
        <dc:format>image/svg+xml</dc:format>
        <dc:type
           rdf:resource="http://purl.org/dc/dcmitype/StillImage" />
        <dc:title></dc:title>
      </cc:Work>
    </rdf:RDF>
  </metadata>
  <g
     inkscape:label="Layer 1"
     inkscape:groupmode="layer"
     id="layer1"
     transform="translate(-1222.7223,7412.9549)">
    <rect
       style="opacity:1;fill:#00559b;fill-opacity:1;stroke:none;stroke-width:2.4000001;stroke-linejoin:miter;stroke-miterlimit:4;stroke-dasharray:none;stroke-dashoffset:0;stroke-opacity:1"
       id="rect4182"
       width="600"
       height="985"
       x="1222.7223"
       y="-7412.9551" />
    <rect
       y="-7412.9551"
       x="1222.7223"
       height="985"
       width="600"
       id="rect4184"
       style="opacity:1;fill:#ffffff;fill-opacity:1;stroke:none;stroke-width:2.4000001;stroke-linejoin:miter;stroke-miterlimit:4;stroke-dasharray:none;stroke-dashoffset:0;stroke-opacity:1"
       rx="106.4"
       ry="106.4" />
    <rect
       ry="80"
       rx="80"
       style="opacity:1;fill:#00559b;fill-opacity:1;stroke:none;stroke-width:2.4000001;stroke-linejoin:miter;stroke-miterlimit:4;stroke-dasharray:none;stroke-dashoffset:0;stroke-opacity:1"
       id="rect4195"
       width="547.20007"
       height="932.20001"
       x="1249.1223"
       y="-7386.5552" />
    <path
       style="fill:#ffffff;fill-opacity:1;fill-rule:nonzero;stroke:none"
       d="m 1403.5222,-6801.5554 140.7891,0 c 98.6403,1.9085 129.6548,131.8318 41.5879,177.1367 l 56.8229,122.0634 -64.0098,0 -52.8101,-111.7001 -61.58,0 0,111.7001 -60.8,0 z"
       id="path6490"
       inkscape:connector-curvature="0"
       sodipodi:nodetypes="cccccccccc" />
    <path
       style="opacity:1;fill:#00559b;fill-opacity:1;stroke:none;stroke-width:25;stroke-linejoin:miter;stroke-miterlimit:4;stroke-dasharray:none;stroke-dashoffset:0;stroke-opacity:1"
       d="m 1464.3222,-6674.7554 79.65,0 c 18.3651,0 33.15,-14.7626 33.15,-33.1 0,-18.3374 -14.7849,-33.1 -33.15,-33.1 l -79.65,0 z"
       id="rect13342"
       inkscape:connector-curvature="0"
       sodipodi:nodetypes="cssscc" />
    <path
       d="m 1285.8462,-7215.6192 c -8.6731,-29.6886 -5.8088,-57.1383 7.9633,-84.7301 l 0.5718,0 -4.5509,-8.53 11.3894,-3.4311 11.3416,-1.6927 147.728,0 2.2874,-2.8593 2.8592,-1.6927 34.0728,0 3.4072,0.5719 2.8355,2.2636 1.1436,1.7155 169.3241,0 11.3655,1.6926 10.7698,3.4311 2.2875,1.1438 1.1208,2.2636 -0.549,2.2874 -1.1437,1.6926 -2.2636,1.1437 -1.7155,0 c 16.8695,24.0654 8.3131,53.8007 10.815,80.773 l -42.5839,3.9571"
       style="fill:#ffffff;fill-opacity:1;fill-rule:evenodd;stroke:none"
       id="path22598"
       inkscape:connector-curvature="0"
       sodipodi:nodetypes="cccccccccccccccccccccccc" />
    <path
       d="m 1332.4571,-7296.942 0,-1.1437 -1.1438,-2.8355 -2.2636,-2.2635 -2.8353,-0.5718 -22.1593,0 -2.8353,1.1189 -2.2875,2.2874 -0.5719,3.4073 0,66.549 0.5719,2.8593 2.2875,2.2636 2.8353,1.1436 23.2791,0 2.8593,-1.1436 1.6926,-2.2636 0.5719,-2.8593 0,-66.549"
       style="fill:#00559b;fill-opacity:1;fill-rule:nonzero;stroke:none"
       id="path22600"
       inkscape:connector-curvature="0" />
    <path
       d="m 1368.8172,-7303.7565 -24.9946,0 -2.2874,0.5718 -1.6928,1.6927 -0.5717,2.2874 0,28.4257 0.5717,1.7156 1.1438,1.6926 2.8354,0.5719 27.282,0 1.6927,-1.6927 0.5718,-2.2874 0,-28.4257 -0.5718,-1.7155 -1.1437,-2.2636 -2.8354,-0.5719"
       style="fill:#00559b;fill-opacity:1;fill-rule:nonzero;stroke:none"
       id="path22602"
       inkscape:connector-curvature="0" />
    <path
       d="m 1448.3758,-7303.7565 -64.214,0 -1.7155,0.5718 -1.6927,1.6927 -0.5718,2.2874 0,28.4257 0.5718,1.7156 1.1437,1.6926 2.2635,0.5719 65.9296,0 1.6927,-1.6927 0.5718,-2.2874 0,-30.1412 -1.7155,-2.2636 -2.2636,-0.5719"
       style="fill:#00559b;fill-opacity:1;fill-rule:nonzero;stroke:none"
       id="path22604"
       inkscape:connector-curvature="0" />
    <path
       d="m 1527.3388,-7303.7565 -63.6184,0 -1.7155,0.5718 -2.2636,1.6927 -0.5718,2.2874 0,28.4257 0.5718,1.7156 1.6927,1.6926 2.2874,0.5719 65.3339,0 1.7156,-1.6927 1.1189,-2.2874 0,-28.4257 -0.5718,-1.7155 -1.6927,-2.2636 -2.2875,-0.5719"
       style="fill:#00559b;fill-opacity:1;fill-rule:nonzero;stroke:none"
       id="path22606"
       inkscape:connector-curvature="0" />
    <path
       d="m 1606.3256,-7303.7565 -63.6421,0 -1.6927,0.5718 -1.7156,1.6927 -0.5489,2.2874 0,30.1413 1.6926,1.6926 2.2636,0.5719 65.3577,0 2.2636,-1.6927 0.5947,-2.2874 0,-28.4257 -0.5947,-1.7155 -1.7156,-2.2636 -2.2636,-0.5719"
       style="fill:#00559b;fill-opacity:1;fill-rule:nonzero;stroke:none"
       id="path22608"
       inkscape:connector-curvature="0" />
    <path
       d="m 1617.7149,-7299.2056 0.5491,-1.7156 1.1436,-2.2635 2.2636,-0.5718 56.8038,0 2.2874,0.5718 1.7155,2.2635 11.3655,28.4496 0,2.2636 -1.1437,2.2874 -1.6927,1.1189 -71.0285,0 -1.7156,-1.6927 -0.5489,-2.2873 0,-28.4257"
       style="fill:#00559b;fill-opacity:1;fill-rule:nonzero;stroke:none"
       id="path22610"
       inkscape:connector-curvature="0" />
    <circle
       cy="-7216.4258"
       cx="1369.6223"
       id="circle22614"
       style="opacity:1;fill:#00559b;fill-opacity:1;stroke:none;stroke-width:2.4000001;stroke-linejoin:miter;stroke-miterlimit:4;stroke-dasharray:none;stroke-dashoffset:0;stroke-opacity:1"
       r="30.290001" />
    <circle
       style="opacity:1;fill:#ffffff;fill-opacity:1;stroke:none;stroke-width:2.4000001;stroke-linejoin:miter;stroke-miterlimit:4;stroke-dasharray:none;stroke-dashoffset:0;stroke-opacity:1"
       id="circle22618"
       cx="1369.6223"
       cy="-7216.4258"
       r="19.030001" />
    <circle
       r="30.290001"
       style="opacity:1;fill:#00559b;fill-opacity:1;stroke:none;stroke-width:2.4000001;stroke-linejoin:miter;stroke-miterlimit:4;stroke-dasharray:none;stroke-dashoffset:0;stroke-opacity:1"
       id="circle13489"
       cx="1582.6223"
       cy="-7216.4258" />
    <circle
       r="19.030001"
       cy="-7216.4258"
       cx="1582.6223"
       id="circle13491"
       style="opacity:1;fill:#ffffff;fill-opacity:1;stroke:none;stroke-width:2.4000001;stroke-linejoin:miter;stroke-miterlimit:4;stroke-dasharray:none;stroke-dashoffset:0;stroke-opacity:1" />
    <rect
       style="opacity:1;fill:#ffd70a;fill-opacity:1;stroke:none;stroke-width:25;stroke-linejoin:miter;stroke-miterlimit:4;stroke-dasharray:none;stroke-dashoffset:0;stroke-opacity:1"
       id="rect4231"
       width="32"
       height="80.000008"
       x="-1770.7223"
       y="-6640.4551"
       transform="scale(-1,1)" />
    <rect
       y="-6960.4551"
       x="-1770.7223"
       height="80.000008"
       width="32"
       id="rect4251"
       style="opacity:1;fill:#ffd70a;fill-opacity:1;stroke:none;stroke-width:25;stroke-linejoin:miter;stroke-miterlimit:4;stroke-dasharray:none;stroke-dashoffset:0;stroke-opacity:1"
       transform="scale(-1,1)" />
    <rect
       y="-7120.4551"
       x="-1770.7223"
       height="80.000008"
       width="32"
       id="rect4263"
       style="opacity:1;fill:#ffd70a;fill-opacity:1;stroke:none;stroke-width:25;stroke-linejoin:miter;stroke-miterlimit:4;stroke-dasharray:none;stroke-dashoffset:0;stroke-opacity:1"
       transform="scale(-1,1)" />
    <rect
       style="opacity:1;fill:#ffd70a;fill-opacity:1;stroke:none;stroke-width:25;stroke-linejoin:miter;stroke-miterlimit:4;stroke-dasharray:none;stroke-dashoffset:0;stroke-opacity:1"
       id="rect4265"
       width="32"
       height="80.000008"
       x="-1770.7223"
       y="-7280.4551"
       transform="scale(-1,1)" />
    <rect
       transform="scale(-1,1)"
       y="-6800.4551"
       x="-1770.7223"
       height="80.000008"
       width="32"
       id="rect4196"
       style="opacity:1;fill:#ffd70a;fill-opacity:1;stroke:none;stroke-width:25;stroke-linejoin:miter;stroke-miterlimit:4;stroke-dasharray:none;stroke-dashoffset:0;stroke-opacity:1" />
    <path
       inkscape:connector-curvature="0"
       id="path13415"
       style="fill:#ffffff;fill-opacity:1;fill-rule:evenodd;stroke:none"
       d="m 1576.028,-7070.6475 4.1101,17.2484 56.1821,0 2.8545,-0.8255 2.0636,-1.2381 1.2211,-2.4592 c 3.5253,-17.8847 0.6362,-72.7426 -8.2029,-90.3005 l -2.4592,-2.4764 -2.8718,-1.6337 -2.8719,-0.4128 -230.8847,0 c -14.3078,-0.2407 -28.4607,3.9381 -40.9972,10.6793 l 3.2844,6.5692 -9.4409,32.0032 0,0.4129 -0.4128,4.11 0,32.0205 -1.6337,0 -1.2382,1.6337 -0.8082,1.6508 0,6.982 0.8082,1.6337 1.2382,1.2382 1.6337,0.4127 16.4058,0 4.5228,-17.2484 0.8083,-2.0464 2.0636,-2.0465 2.4591,-0.8254 1.221,0 c 33.3791,2.3043 26.3455,-8.0998 34.4452,22.1667 l 125.4853,0 4.1101,-17.2484 1.221,-2.0464 2.0635,-2.0465 2.4592,-0.8254 24.5915,0 2.4592,0.4127 2.0636,1.2203 1.6337,2.4763 0.4127,0.809" />
    <path
       inkscape:connector-curvature="0"
       id="path13417"
       style="fill:#00559b;fill-opacity:1;fill-rule:nonzero;stroke:none"
       d="m 1414.8592,-7132.2122 -0.4126,-2.889 -1.6338,-2.0466 -2.0463,-1.2381 -2.8719,-0.3948 -33.2243,0 c -16.5089,3.0095 -13.4824,12.1754 -18.865,25.4341 l 0,2.4764 0.8255,2.4591 1.6337,2.0464 2.0636,1.2382 2.0464,0.4128 45.9327,0 2.4593,-0.8256 2.0463,-1.2216 1.6338,-2.4764 0.4126,-2.4591 0,-20.5158" />
    <path
       inkscape:connector-curvature="0"
       id="path13419"
       style="fill:#00559b;fill-opacity:1;fill-rule:nonzero;stroke:none"
       d="m 1419.7776,-7070.6475 0,-61.5647 0.4127,-2.4764 1.6337,-2.0463 2.0636,-1.651 2.4591,-0.3948 19.2777,0 2.4591,0.3948 2.4592,1.2381 1.221,2.0466 0.8254,2.889 0,61.5647 -0.8254,2.4763 -1.221,2.4591 -2.0464,1.2217 -2.8719,0.8255 -18.865,0 -2.8718,-0.4128 -2.0636,-1.6337 -1.6337,-2.0636 -0.4127,-2.4592 0,-0.4127" />
    <path
       inkscape:connector-curvature="0"
       id="path13421"
       style="fill:#00559b;fill-opacity:1;fill-rule:nonzero;stroke:none"
       d="m 1457.5073,-7111.6964 0,-25.4514 0.4128,-2.8718 1.2382,-2.0464 2.4592,-1.6509 2.4591,-0.4127 29.527,0 2.4591,0.4127 2.0465,1.6509 1.6509,2.0464 0.3955,2.4591 0,25.8641 -0.3955,2.4591 -1.2383,2.4764 -2.4591,1.2216 -2.4591,0.8256 -29.527,0 -2.4591,-0.4128 -2.0636,-1.6337 -1.6338,-2.0636 -0.4128,-2.4592 0,-0.4127" />
    <path
       inkscape:connector-curvature="0"
       id="path13423"
       style="fill:#00559b;fill-opacity:1;fill-rule:nonzero;stroke:none"
       d="m 1505.0738,-7111.6964 0,-25.4514 0.4128,-2.8718 1.6508,-2.0464 2.0466,-1.6509 2.459,-0.4127 29.9398,0 2.4591,0.4127 2.0464,1.6509 1.6337,2.0464 0.4299,2.4591 0,25.8641 -0.4299,2.4591 -1.221,2.4764 -2.0464,1.2216 -2.8718,0.8256 -29.527,0 -2.4591,-0.4128 -2.4593,-1.6337 -1.2381,-2.0636 -0.8255,-2.4592 0,-0.4127" />
    <path
       inkscape:connector-curvature="0"
       id="path13425"
       style="fill:#00559b;fill-opacity:1;fill-rule:nonzero;stroke:none"
       d="m 1553.053,-7111.6964 0,-25.4514 0.8255,-2.8718 1.2381,-2.0464 2.0465,-1.6509 2.8719,-0.4127 29.1142,0 2.4591,0.4127 2.0636,1.6509 1.6338,2.0464 0.8253,2.4591 0,25.8641 -0.8253,2.4591 -1.2382,2.4764 -2.0465,1.2216 -2.8718,0.8256 -29.1142,0 -2.4592,-0.4128 -2.0464,-1.6337 -1.651,-2.0636 -0.8254,-2.4592 0,-0.4127" />
    <path
       inkscape:connector-curvature="0"
       id="path13427"
       style="fill:#00559b;fill-opacity:1;fill-rule:nonzero;stroke:none"
       d="m 1636.7156,-7112.9174 -4.0928,-22.5794 -0.4127,-1.651 -1.2382,-2.8718 -2.4591,-2.0464 -2.872,-1.6509 -3.2845,-0.4127 -14.7549,0 -2.8719,0.4127 -2.0464,1.6509 -1.2382,2.0464 -0.3955,2.8718 0,25.4514 0.3955,2.4591 1.2382,2.4764 2.0464,1.2216 2.8719,0.8256 22.1495,0 1.6337,-0.4128 2.4592,-0.8255 1.6508,-1.6336 1.221,-2.4592 0,-2.8719" />
    <circle
       style="opacity:1;fill:#ffffff;fill-opacity:1;stroke:none;stroke-width:2.4000001;stroke-linejoin:miter;stroke-miterlimit:4;stroke-dasharray:none;stroke-dashoffset:0;stroke-opacity:1"
       id="path13429"
       cx="1386.7622"
       cy="-7053.5552"
       r="17.000002" />
    <circle
       r="17.000002"
       cy="-7053.5552"
       cx="1557.3623"
       id="circle13431"
       style="opacity:1;fill:#ffffff;fill-opacity:1;stroke:none;stroke-width:2.4000001;stroke-linejoin:miter;stroke-miterlimit:4;stroke-dasharray:none;stroke-dashoffset:0;stroke-opacity:1" />
    <path
       inkscape:connector-curvature="0"
       id="path13371-3"
       style="fill:#ffffff;fill-opacity:1;fill-rule:evenodd;stroke:none"
       d="m 1376.6655,-6886.6551 -1.3644,-0.3584 -1.0341,-1.0204 -0.3447,-1.7092 c 1.6804,-2.5564 1.9677,-4.7539 1.0341,-7.8993 l -0.3447,-0.3309 -0.6894,-1.3789 0.3447,-1.7091 1.0341,-1.0203 4.1078,-3.1024 0,-24.0001 0.3446,-2.0538 1.3789,-1.7091 1.7091,-1.3645 1.0341,0 22.6212,-32.5745 0,0.3447 c -3.5764,-2.6715 -2.097,-5.9318 1.3787,-7.5548 63.7847,-6.219 125.0988,-6.1759 188.8978,-0.3309 l 17.149,45.2423 0,22.291 -0.3448,2.0538 -1.0202,1.7236 -1.7235,1.034 -2.0539,0.6746 1.7092,0.3446 1.7091,1.0342 1.3788,1.7092 0.3448,2.0538 -0.3448,2.0538 -1.0203,1.7236 -1.7235,1.0341 -2.0538,0.6745 -24,4.1248"
       sodipodi:nodetypes="cccccccccccccccccccccccccccccccccc" />
    <path
       inkscape:connector-curvature="0"
       id="path13373-7"
       style="fill:#00559b;fill-opacity:1;fill-rule:nonzero;stroke:none"
       d="m 1437.362,-6969.9729 0.331,0 2.4129,0.3447 2.3842,1.0342 2.0683,2.0538 1.0192,2.0539 0.3446,2.7432 0,16.4453 -0.3446,2.7433 -1.0192,2.0539 -2.0683,2.0682 -2.3842,1.034 -2.0682,0.331 -29.1418,0 -2.0539,0.6894 -1.3788,1.3788 -2.3842,3.4183 -1.0342,0.6895 -1.034,0.3447 -6.5063,0 -1.3788,-0.3447 -1.0342,-1.0342 -0.3309,-1.3644 0.3309,-1.3788 21.6015,-30.1617 1.7235,-2.0538 2.3842,-1.0341 1.3788,-0.3447 18.1831,-1.7092" />
    <path
       inkscape:connector-curvature="0"
       id="path13375-9"
       style="fill:#00559b;fill-opacity:1;fill-rule:nonzero;stroke:none"
       d="m 1458.9491,-6971.007 -1.7091,0.3448 -2.3985,1.034 -1.7236,1.7092 -1.3644,2.3986 -0.3447,2.3986 0,17.824 0.3447,2.7433 1.3644,2.0539 1.7236,2.0682 2.3985,1.034 2.0538,0.331 48,0 2.0539,-0.331 2.4129,-1.034 2.0539,-2.0682 1.0204,-2.0539 0.6893,-2.7433 0,-18.8582 -0.6893,-2.3842 -1.0204,-2.4129 -2.0539,-1.7091 -2.4129,-1.3789 -50.3986,1.0341"
       sodipodi:nodetypes="cccccccccccccccccccccccc" />
    <path
       inkscape:connector-curvature="0"
       id="path13377-4"
       style="fill:#00559b;fill-opacity:1;fill-rule:nonzero;stroke:none"
       d="m 1600.206,-6946.3175 -6.5063,-17.1491 -1.3789,-2.0538 -2.0538,-1.7092 -2.3986,-1.0341 -1.0341,-0.3309 -1.7091,0 -28.1221,-2.0682 -28.1077,-1.0342 -2.3986,0 -2.3986,1.3788 -1.7235,1.7236 -1.3645,2.0538 -0.3447,2.7433 0,18.4992 0.3447,2.7432 1.3645,2.0539 1.7235,2.0682 2.3986,1.0341 2.0538,0.331 65.4794,0 1.0341,-0.331 2.3986,-0.6894 1.7235,-1.3788 1.0203,-2.0539 0.6894,-2.3985 -0.6894,-2.3987" />
    <circle
       style="opacity:1;fill:#00559b;fill-opacity:1;stroke:none;stroke-width:2.4000001;stroke-linejoin:miter;stroke-miterlimit:4;stroke-dasharray:none;stroke-dashoffset:0;stroke-opacity:1"
       id="path13379-4"
       cx="1414.1622"
       cy="-6886.4951"
       r="24.000011" />
    <ellipse
       cy="-6886.4951"
       cx="1414.1622"
       id="circle13381-9"
       style="opacity:1;fill:#ffffff;fill-opacity:1;stroke:none;stroke-width:2.4000001;stroke-linejoin:miter;stroke-miterlimit:4;stroke-dasharray:none;stroke-dashoffset:0;stroke-opacity:1"
       rx="15.940002"
       ry="15.940001" />
    <circle
       cy="-6886.4951"
       cx="1560.6024"
       id="ellipse13532"
       style="opacity:1;fill:#00559b;fill-opacity:1;stroke:none;stroke-width:2.4000001;stroke-linejoin:miter;stroke-miterlimit:4;stroke-dasharray:none;stroke-dashoffset:0;stroke-opacity:1"
       r="24.000011" />
    <ellipse
       style="opacity:1;fill:#ffffff;fill-opacity:1;stroke:none;stroke-width:2.4000001;stroke-linejoin:miter;stroke-miterlimit:4;stroke-dasharray:none;stroke-dashoffset:0;stroke-opacity:1"
       id="circle13534"
       cx="1560.6024"
       cy="-6886.4951"
       rx="15.940002"
       ry="15.940001" />
  </g>
</svg>
