<?xml version="1.0" encoding="UTF-8" standalone="no"?>
<!-- Created with Inkscape (http://www.inkscape.org/) -->

<svg
   xmlns:dc="http://purl.org/dc/elements/1.1/"
   xmlns:cc="http://creativecommons.org/ns#"
   xmlns:rdf="http://www.w3.org/1999/02/22-rdf-syntax-ns#"
   xmlns:svg="http://www.w3.org/2000/svg"
   xmlns="http://www.w3.org/2000/svg"
   xmlns:sodipodi="http://sodipodi.sourceforge.net/DTD/sodipodi-0.dtd"
   xmlns:inkscape="http://www.inkscape.org/namespaces/inkscape"
   width="600"
   height="800"
   viewBox="0 0 600 800.00007"
   id="svg2"
   version="1.1"
   inkscape:version="0.91 r13725"
   sodipodi:docname="33.svg">
  <defs
     id="defs4" />
  <sodipodi:namedview
     id="base"
     pagecolor="#ffffff"
     bordercolor="#666666"
     borderopacity="1.0"
     inkscape:pageopacity="0.0"
     inkscape:pageshadow="2"
     inkscape:zoom="0.50754247"
     inkscape:cx="441.75164"
     inkscape:cy="292.46288"
     inkscape:document-units="px"
     inkscape:current-layer="layer1"
     showgrid="false"
     fit-margin-top="0"
     fit-margin-left="0"
     fit-margin-right="0"
     fit-margin-bottom="0"
     units="px"
     inkscape:window-width="1920"
     inkscape:window-height="1057"
     inkscape:window-x="-8"
     inkscape:window-y="-8"
     inkscape:window-maximized="1" />
  <metadata
     id="metadata7">
    <rdf:RDF>
      <cc:Work
         rdf:about="">
        <dc:format>image/svg+xml</dc:format>
        <dc:type
           rdf:resource="http://purl.org/dc/dcmitype/StillImage" />
        <dc:title></dc:title>
      </cc:Work>
    </rdf:RDF>
  </metadata>
  <g
     inkscape:label="Layer 1"
     inkscape:groupmode="layer"
     id="layer1"
     transform="translate(-496.19989,2508.4809)">
    <rect
       style="opacity:1;fill:#00559b;fill-opacity:1;stroke:none;stroke-width:2.4000001;stroke-linejoin:miter;stroke-miterlimit:4;stroke-dasharray:none;stroke-dashoffset:0;stroke-opacity:1"
       id="rect4182"
       width="600"
       height="800"
       x="496.19986"
       y="-2508.481" />
    <rect
       y="-2508.481"
       x="496.19986"
       height="800"
       width="600"
       id="rect4184"
       style="opacity:1;fill:#ffffff;fill-opacity:1;stroke:none;stroke-width:2.4000001;stroke-linejoin:miter;stroke-miterlimit:4;stroke-dasharray:none;stroke-dashoffset:0;stroke-opacity:1"
       rx="106.4"
       ry="106.4" />
    <rect
       ry="80"
       rx="80"
       style="opacity:1;fill:#00559b;fill-opacity:1;stroke:none;stroke-width:2.4000001;stroke-linejoin:miter;stroke-miterlimit:4;stroke-dasharray:none;stroke-dashoffset:0;stroke-opacity:1"
       id="rect4195"
       width="547.20007"
       height="747.20007"
       x="522.59979"
       y="-2482.0811" />
    <path
       style="fill:#ffffff;fill-opacity:1;fill-rule:nonzero;stroke:none"
       d="m 576.19985,-2107.6809 140.78914,0 c 98.64029,1.9085 129.65476,131.8318 41.58789,177.1367 l 56.82294,122.0634 -64.0099,0 -52.81006,-111.7001 -61.58001,0 0,111.7001 -60.8,0 z"
       id="path6490"
       inkscape:connector-curvature="0"
       sodipodi:nodetypes="cccccccccc" />
    <path
       style="opacity:1;fill:#00559b;fill-opacity:1;stroke:none;stroke-width:25;stroke-linejoin:miter;stroke-miterlimit:4;stroke-dasharray:none;stroke-dashoffset:0;stroke-opacity:1"
       d="m 636.99985,-1980.8809 79.65002,0 c 18.3651,0 33.15,-14.7626 33.15,-33.1 0,-18.3374 -14.7849,-33.1 -33.15,-33.1 l -79.65002,0 z"
       id="rect13342"
       inkscape:connector-curvature="0"
       sodipodi:nodetypes="cssscc" />
    <rect
       y="-2068.481"
       x="-1044.1998"
       height="80.000008"
       width="32"
       id="rect4251"
       style="opacity:1;fill:#ffd70a;fill-opacity:1;stroke:none;stroke-width:25;stroke-linejoin:miter;stroke-miterlimit:4;stroke-dasharray:none;stroke-dashoffset:0;stroke-opacity:1"
       transform="scale(-1,1)" />
    <rect
       y="-2228.481"
       x="-1044.1998"
       height="80.000008"
       width="32"
       id="rect4263"
       style="opacity:1;fill:#ffd70a;fill-opacity:1;stroke:none;stroke-width:25;stroke-linejoin:miter;stroke-miterlimit:4;stroke-dasharray:none;stroke-dashoffset:0;stroke-opacity:1"
       transform="scale(-1,1)" />
    <rect
       style="opacity:1;fill:#ffd70a;fill-opacity:1;stroke:none;stroke-width:25;stroke-linejoin:miter;stroke-miterlimit:4;stroke-dasharray:none;stroke-dashoffset:0;stroke-opacity:1"
       id="rect4265"
       width="32"
       height="80.000008"
       x="-1044.1998"
       y="-2388.481"
       transform="scale(-1,1)" />
    <path
       sodipodi:nodetypes="ccccccc"
       inkscape:connector-curvature="0"
       id="path13598"
       d="m 1009.5562,-1848.476 -15.99995,-27.713 18.64355,-10.7639 0,-21.528 32,0 0,40.0033 z"
       style="opacity:1;fill:#ffd70a;fill-opacity:1;stroke:none;stroke-width:3;stroke-linejoin:miter;stroke-miterlimit:4;stroke-dasharray:none;stroke-dashoffset:0;stroke-opacity:1" />
    <rect
       transform="matrix(-0.5,-0.8660254,-0.8660254,0.5,0,0)"
       y="-1718.5397"
       x="1096.049"
       height="80.000008"
       width="32"
       id="rect13609"
       style="opacity:1;fill:#ffd70a;fill-opacity:1;stroke:none;stroke-width:25;stroke-linejoin:miter;stroke-miterlimit:4;stroke-dasharray:none;stroke-dashoffset:0;stroke-opacity:1" />
    <path
       style="opacity:1;fill:#ffffff;fill-opacity:1;stroke:none;stroke-width:6;stroke-linejoin:miter;stroke-miterlimit:4;stroke-dasharray:none;stroke-dashoffset:0;stroke-opacity:1"
       d="m 663.09986,-2282.0807 133.10002,-175.3 133.09997,175.3 -133.09997,175.3 z"
       id="rect13361"
       inkscape:connector-curvature="0"
       sodipodi:nodetypes="ccccc" />
    <path
       inkscape:connector-curvature="0"
       id="path13375"
       d="m 830.98205,-2352.5807 c -21.08067,0 -40.60418,18.3334 -39.93438,39.9332 l 23.70861,0 c 1.4066,-8.3385 6.7822,-16.2245 16.22577,-16.2245 7.719,0 16.2077,7.5688 16.2077,15.5886 0,5.1571 -1.8758,6.4466 -3.7344,10.6153 l -52.40768,65.5025 0,25.5849 79.85198,0 0,-23.7087 -50.53397,0 41.81057,-52.409 c 4.906,-7.6849 8.7234,-15.6556 8.7234,-24.9491 0,-21.6159 -18.2508,-39.9332 -39.9176,-39.9332 z"
       style="fill:#000000;fill-opacity:1;fill-rule:nonzero;stroke:none" />
    <path
       style="opacity:1;fill:#000000;fill-opacity:1;stroke:none;stroke-width:2.4000001;stroke-linejoin:miter;stroke-miterlimit:4;stroke-dasharray:none;stroke-dashoffset:0;stroke-opacity:1"
       d="m 759.03877,-2211.6807 -24.2946,0 0,-111.0944 -15.6443,11.7126 0,-25.4662 19.9715,-14.952 19.9674,0 z"
       id="path13377"
       inkscape:connector-curvature="0"
       sodipodi:nodetypes="cccccccc" />
  </g>
</svg>
