<?xml version="1.0" encoding="UTF-8" standalone="no"?>
<!-- Created with Inkscape (http://www.inkscape.org/) -->

<svg
   xmlns:dc="http://purl.org/dc/elements/1.1/"
   xmlns:cc="http://creativecommons.org/ns#"
   xmlns:rdf="http://www.w3.org/1999/02/22-rdf-syntax-ns#"
   xmlns:svg="http://www.w3.org/2000/svg"
   xmlns="http://www.w3.org/2000/svg"
   xmlns:sodipodi="http://sodipodi.sourceforge.net/DTD/sodipodi-0.dtd"
   xmlns:inkscape="http://www.inkscape.org/namespaces/inkscape"
   width="600"
   height="800"
   viewBox="0 0 600 800.00007"
   id="svg2"
   version="1.1"
   inkscape:version="0.91 r13725"
   sodipodi:docname="33.svg">
  <defs
     id="defs4" />
  <sodipodi:namedview
     id="base"
     pagecolor="#ffffff"
     bordercolor="#666666"
     borderopacity="1.0"
     inkscape:pageopacity="0.0"
     inkscape:pageshadow="2"
     inkscape:zoom="0.50754247"
     inkscape:cx="-405.15346"
     inkscape:cy="292.46288"
     inkscape:document-units="px"
     inkscape:current-layer="layer1"
     showgrid="false"
     fit-margin-top="0"
     fit-margin-left="0"
     fit-margin-right="0"
     fit-margin-bottom="0"
     units="px"
     inkscape:window-width="1920"
     inkscape:window-height="1057"
     inkscape:window-x="-8"
     inkscape:window-y="-8"
     inkscape:window-maximized="1" />
  <metadata
     id="metadata7">
    <rdf:RDF>
      <cc:Work
         rdf:about="">
        <dc:format>image/svg+xml</dc:format>
        <dc:type
           rdf:resource="http://purl.org/dc/dcmitype/StillImage" />
        <dc:title></dc:title>
      </cc:Work>
    </rdf:RDF>
  </metadata>
  <g
     inkscape:label="Layer 1"
     inkscape:groupmode="layer"
     id="layer1"
     transform="translate(-496.19989,2508.4809)">
    <rect
       style="opacity:1;fill:#00559b;fill-opacity:1;stroke:none;stroke-width:2.4000001;stroke-linejoin:miter;stroke-miterlimit:4;stroke-dasharray:none;stroke-dashoffset:0;stroke-opacity:1"
       id="rect4182"
       width="600"
       height="800"
       x="496.19986"
       y="-2508.481" />
    <rect
       y="-2508.481"
       x="496.19986"
       height="800"
       width="600"
       id="rect4184"
       style="opacity:1;fill:#ffffff;fill-opacity:1;stroke:none;stroke-width:2.4000001;stroke-linejoin:miter;stroke-miterlimit:4;stroke-dasharray:none;stroke-dashoffset:0;stroke-opacity:1"
       rx="106.4"
       ry="106.4" />
    <rect
       ry="80"
       rx="80"
       style="opacity:1;fill:#00559b;fill-opacity:1;stroke:none;stroke-width:2.4000001;stroke-linejoin:miter;stroke-miterlimit:4;stroke-dasharray:none;stroke-dashoffset:0;stroke-opacity:1"
       id="rect4195"
       width="547.20007"
       height="747.20007"
       x="522.59985"
       y="-2482.0811" />
    <path
       style="fill:#ffffff;fill-opacity:1;fill-rule:nonzero;stroke:none"
       d="m 576.19987,-2107.681 140.78914,0 c 98.64029,1.9085 129.65479,131.8318 41.58789,177.1367 l 56.82294,122.0634 -64.0099,0 -52.81006,-111.7001 -61.58001,0 0,111.7001 -60.8,0 z"
       id="path6490"
       inkscape:connector-curvature="0"
       sodipodi:nodetypes="cccccccccc" />
    <path
       style="opacity:1;fill:#00559b;fill-opacity:1;stroke:none;stroke-width:25;stroke-linejoin:miter;stroke-miterlimit:4;stroke-dasharray:none;stroke-dashoffset:0;stroke-opacity:1"
       d="m 636.99987,-1980.881 79.65002,0 c 18.3651,0 33.15,-14.7626 33.15,-33.1 0,-18.3374 -14.7849,-33.1 -33.15,-33.1 l -79.65002,0 z"
       id="rect13342"
       inkscape:connector-curvature="0"
       sodipodi:nodetypes="cssscc" />
    <rect
       y="-2068.481"
       x="-1044.1998"
       height="80.000008"
       width="32"
       id="rect4251"
       style="opacity:1;fill:#ffd70a;fill-opacity:1;stroke:none;stroke-width:25;stroke-linejoin:miter;stroke-miterlimit:4;stroke-dasharray:none;stroke-dashoffset:0;stroke-opacity:1"
       transform="scale(-1,1)" />
    <rect
       y="-2228.481"
       x="-1044.1998"
       height="80.000008"
       width="32"
       id="rect4263"
       style="opacity:1;fill:#ffd70a;fill-opacity:1;stroke:none;stroke-width:25;stroke-linejoin:miter;stroke-miterlimit:4;stroke-dasharray:none;stroke-dashoffset:0;stroke-opacity:1"
       transform="scale(-1,1)" />
    <rect
       style="opacity:1;fill:#ffd70a;fill-opacity:1;stroke:none;stroke-width:25;stroke-linejoin:miter;stroke-miterlimit:4;stroke-dasharray:none;stroke-dashoffset:0;stroke-opacity:1"
       id="rect4265"
       width="32"
       height="80.000008"
       x="-1044.1998"
       y="-2388.481"
       transform="scale(-1,1)" />
    <path
       sodipodi:nodetypes="ccccccc"
       inkscape:connector-curvature="0"
       id="path13598"
       d="m 1009.5563,-1848.4761 -15.99998,-27.713 18.64358,-10.7639 0,-21.528 32,0 0,40.0033 z"
       style="opacity:1;fill:#ffd70a;fill-opacity:1;stroke:none;stroke-width:3;stroke-linejoin:miter;stroke-miterlimit:4;stroke-dasharray:none;stroke-dashoffset:0;stroke-opacity:1" />
    <rect
       transform="matrix(-0.5,-0.8660254,-0.8660254,0.5,0,0)"
       y="-1718.5397"
       x="1096.0491"
       height="80.000008"
       width="32"
       id="rect13609"
       style="opacity:1;fill:#ffd70a;fill-opacity:1;stroke:none;stroke-width:25;stroke-linejoin:miter;stroke-miterlimit:4;stroke-dasharray:none;stroke-dashoffset:0;stroke-opacity:1" />
    <path
       d="m 559.32378,-2342.1454 c -8.6731,-29.6886 -5.8088,-57.1383 7.9633,-84.7301 l 0.5718,0 -4.5509,-8.53 11.3894,-3.4311 11.3416,-1.6927 147.72812,0 2.2874,-2.8593 2.8592,-1.6927 34.07281,0 3.4072,0.5719 2.8355,2.2636 1.1436,1.7155 169.32412,0 11.3655,1.6926 10.7698,3.4311 2.2875,1.1438 1.1207,2.2636 -0.549,2.2874 -1.1436,1.6926 -2.2636,1.1437 -1.7155,0 c 16.8695,24.0654 8.3131,53.8007 10.8149,80.773 l -42.5838,3.9571"
       style="fill:#ffffff;fill-opacity:1;fill-rule:evenodd;stroke:none"
       id="path22598"
       inkscape:connector-curvature="0"
       sodipodi:nodetypes="cccccccccccccccccccccccc" />
    <path
       d="m 605.93469,-2423.4682 0,-1.1437 -1.1438,-2.8355 -2.2636,-2.2635 -2.8353,-0.5718 -22.15931,0 -2.8353,1.1189 -2.2875,2.2874 -0.5719,3.4073 0,66.549 0.5719,2.8593 2.2875,2.2636 2.8353,1.1436 23.27911,0 2.8593,-1.1436 1.6926,-2.2636 0.5719,-2.8593 0,-66.549"
       style="fill:#00559b;fill-opacity:1;fill-rule:nonzero;stroke:none"
       id="path22600"
       inkscape:connector-curvature="0" />
    <path
       d="m 642.29479,-2430.2827 -24.9946,0 -2.2874,0.5718 -1.6928,1.6927 -0.5717,2.2874 0,28.4257 0.5717,1.7156 1.1438,1.6926 2.8354,0.5719 27.282,0 1.6927,-1.6927 0.5718,-2.2874 0,-28.4257 -0.5718,-1.7155 -1.1437,-2.2636 -2.8354,-0.5719"
       style="fill:#00559b;fill-opacity:1;fill-rule:nonzero;stroke:none"
       id="path22602"
       inkscape:connector-curvature="0" />
    <path
       d="m 721.8535,-2430.2827 -64.21411,0 -1.7155,0.5718 -1.6927,1.6927 -0.5718,2.2874 0,28.4257 0.5718,1.7156 1.1437,1.6926 2.2635,0.5719 65.92971,0 1.6927,-1.6927 0.5718,-2.2874 0,-30.1412 -1.7155,-2.2636 -2.2636,-0.5719"
       style="fill:#00559b;fill-opacity:1;fill-rule:nonzero;stroke:none"
       id="path22604"
       inkscape:connector-curvature="0" />
    <path
       d="m 800.81651,-2430.2827 -63.61841,0 -1.7155,0.5718 -2.2636,1.6927 -0.5718,2.2874 0,28.4257 0.5718,1.7156 1.6927,1.6926 2.2874,0.5719 65.33391,0 1.7156,-1.6927 1.1189,-2.2874 0,-28.4257 -0.5718,-1.7155 -1.6927,-2.2636 -2.2875,-0.5719"
       style="fill:#00559b;fill-opacity:1;fill-rule:nonzero;stroke:none"
       id="path22606"
       inkscape:connector-curvature="0" />
    <path
       d="m 879.80332,-2430.2827 -63.64211,0 -1.6927,0.5718 -1.7156,1.6927 -0.5489,2.2874 0,30.1413 1.6926,1.6926 2.2636,0.5719 65.35771,0 2.2636,-1.6927 0.5947,-2.2874 0,-28.4257 -0.5947,-1.7155 -1.7156,-2.2636 -2.2636,-0.5719"
       style="fill:#00559b;fill-opacity:1;fill-rule:nonzero;stroke:none"
       id="path22608"
       inkscape:connector-curvature="0" />
    <path
       d="m 891.19262,-2425.7318 0.5491,-1.7156 1.1436,-2.2635 2.2636,-0.5718 56.80381,0 2.2874,0.5718 1.7155,2.2635 11.3655,28.4496 0,2.2636 -1.1437,2.2874 -1.6927,1.1189 -71.02851,0 -1.7156,-1.6927 -0.5489,-2.2873 0,-28.4257"
       style="fill:#00559b;fill-opacity:1;fill-rule:nonzero;stroke:none"
       id="path22610"
       inkscape:connector-curvature="0" />
    <ellipse
       cy="-2342.9519"
       cx="643.09991"
       id="circle22614"
       style="opacity:1;fill:#00559b;fill-opacity:1;stroke:none;stroke-width:2.4000001;stroke-linejoin:miter;stroke-miterlimit:4;stroke-dasharray:none;stroke-dashoffset:0;stroke-opacity:1"
       rx="30.290005"
       ry="30.290003" />
    <circle
       style="opacity:1;fill:#ffffff;fill-opacity:1;stroke:none;stroke-width:2.4000001;stroke-linejoin:miter;stroke-miterlimit:4;stroke-dasharray:none;stroke-dashoffset:0;stroke-opacity:1"
       id="circle22618"
       cx="643.09991"
       cy="-2342.9519"
       r="19.030003" />
    <path
       style="fill:#ffffff;fill-opacity:1;fill-rule:nonzero;stroke:none"
       d="m 608.75419,-2137.5232 c -0.1901,1.7283 0.2942,3.579 0.5361,5.2857 1.3481,9.4627 10.2603,12.8324 18.7723,13.1565 4.8827,-2.074 10.7813,-5.3358 12.8985,-10.4777 l 41.8641,0 c 2.11741,5.1419 8.01601,8.4037 12.89861,10.4777 8.512,-0.3241 17.4242,-3.6938 18.7723,-13.1565 0.2419,-1.7067 0.7262,-3.5574 0.5361,-5.2857 z"
       id="path13923"
       inkscape:connector-curvature="0"
       sodipodi:nodetypes="ccccccccc" />
    <path
       style="fill:#ffffff;fill-opacity:1;fill-rule:evenodd;stroke:none"
       d="m 696.3851,-2310.0208 -50.55371,32.8988 41.72631,26.4822 -22.45471,0 -4.0277,0.7958 -2.389,3.2083 -71.42001,0 0,8.8274 6.41651,0 c -8.13861,17.8276 -19.89401,37.3994 -19.24801,57.7676 2.6491,26.1816 -7.255,23.4045 14.4481,35.2896 l 178.51722,0 178.51683,0 c 21.7032,-11.8851 11.7991,-9.108 14.4483,-35.2896 0.6459,-20.3682 -11.1094,-39.94 -19.2481,-57.7676 l 6.4166,0 0,-8.8274 -180.13363,-0.6652 -32.4938,-0.1306 -3.2099,-2.4125 -3.2301,-0.7958 -22.4564,0 41.7279,-26.4822 z"
       id="path13925"
       inkscape:connector-curvature="0"
       sodipodi:nodetypes="cccccccccccccccccccccccc" />
    <path
       inkscape:connector-curvature="0"
       id="path13933"
       style="fill:#00559b;fill-opacity:1;fill-rule:nonzero;stroke:none"
       d="m 795.53001,-2183.3326 -56.27541,0 -3.216,-1.6174 -0.794,-2.4168 0,-46.6299 0.794,-3.2151 c 0.6041,-0.259 2.5462,-0.9702 3.216,-0.7976 l 56.27541,0 c 0.6732,-0.1726 2.61,0.5386 3.2141,0.7976 l 0.8114,3.2151 0,46.6299 -0.8114,2.4168 -3.2141,1.6174" />
    <path
       inkscape:connector-curvature="0"
       id="path13935"
       style="fill:#00559b;fill-opacity:1;fill-rule:nonzero;stroke:none"
       d="m 668.51479,-2238.0111 57.07471,0 2.4167,0.7975 c 0.259,0.6042 0.9668,2.5462 0.7941,3.2152 l 0,46.6299 -0.7941,2.4168 -2.4167,1.6174 -57.07471,0 -2.4167,-1.6174 -1.6226,-2.4168 0,-46.6299 1.6226,-3.2152 2.4167,-0.7975" />
    <path
       inkscape:connector-curvature="0"
       id="path13937"
       style="fill:#00559b;fill-opacity:1;fill-rule:nonzero;stroke:none"
       d="m 625.09989,-2153.5981 -2.4167,-1.5968 -0.8113,-2.4167 0,-76.386 0.8113,-3.2151 c 0.6042,-0.259 2.5463,-0.9702 3.2159,-0.7976 l 28.9353,0 2.4168,0.7976 1.6225,2.4167 0,77.1844 -0.8112,2.4167 -3.216,1.5968 -29.7345,0" />
    <path
       inkscape:connector-curvature="0"
       id="path13939"
       style="fill:#00559b;fill-opacity:1;fill-rule:nonzero;stroke:none"
       d="m 612.21879,-2238.0111 -9.6462,0 -3.2143,1.5967 c -2.0508,4.5962 -15.27721,32.6475 -15.27721,36.1863 0,5.2866 2.7396,10.7674 6.4302,14.4788 7.63861,2.2873 13.48541,2.8267 21.70751,2.4167 l 2.4168,-0.8199 c 0.2588,-0.6042 0.9666,-2.5462 0.8285,-3.2152 l 0,-46.6299 c 0.1726,-0.6681 -0.5697,-2.611 -0.8285,-3.2151 l -2.4168,-0.7976" />
    <path
       inkscape:connector-curvature="0"
       id="path13941"
       style="fill:#00559b;fill-opacity:1;fill-rule:nonzero;stroke:none"
       d="m 695.0559,-2250.8716 -41.81831,-26.5409 43.41501,-28.1377 44.2141,28.1377 -41.7973,26.5409 -4.0135,0" />
    <path
       d="m 866.28512,-2238.0111 -57.07461,0 -2.4167,0.7975 c -0.259,0.6042 -0.9667,2.5462 -0.7941,3.2152 l 0,46.6299 0.7941,2.4168 2.4167,1.6174 57.07461,0 2.4167,-1.6174 1.6227,-2.4168 0,-46.6299 -1.6227,-3.2152 -2.4167,-0.7975"
       style="fill:#00559b;fill-opacity:1;fill-rule:nonzero;stroke:none"
       id="path13994"
       inkscape:connector-curvature="0" />
    <path
       d="m 909.70002,-2153.5981 2.4167,-1.5968 0.8113,-2.4167 0,-76.386 -0.8113,-3.2151 c -0.6041,-0.259 -2.5462,-0.9702 -3.216,-0.7976 l -28.9351,0 -2.4168,0.7976 -1.6226,2.4167 0,77.1844 0.8113,2.4167 3.216,1.5968 29.7344,0"
       style="fill:#00559b;fill-opacity:1;fill-rule:nonzero;stroke:none"
       id="path13996"
       inkscape:connector-curvature="0" />
    <path
       d="m 922.58122,-2238.0111 9.6461,0 3.2144,1.5967 c 2.05071,4.5962 15.27721,32.6475 15.27721,36.1863 0,5.2866 -2.7396,10.7674 -6.4303,14.4788 -7.6386,2.2873 -13.48541,2.8267 -21.70741,2.4167 l -2.4168,-0.8199 c -0.259,-0.6042 -0.9666,-2.5462 -0.8286,-3.2152 l 0,-46.6299 c -0.1725,-0.6681 0.5696,-2.611 0.8286,-3.2151 l 2.4168,-0.7976"
       style="fill:#00559b;fill-opacity:1;fill-rule:nonzero;stroke:none"
       id="path13998"
       inkscape:connector-curvature="0" />
    <path
       sodipodi:nodetypes="ccccccccc"
       inkscape:connector-curvature="0"
       id="path14012"
       d="m 926.04572,-2137.5232 c 0.19,1.7283 -0.2942,3.579 -0.5362,5.2857 -1.348,9.4627 -10.2602,12.8324 -18.7722,13.1565 -4.8826,-2.074 -10.7813,-5.3358 -12.8985,-10.4777 l -41.86411,0 c -2.1172,5.1419 -8.0159,8.4037 -12.8985,10.4777 -8.512,-0.3241 -17.4242,-3.6938 -18.7722,-13.1565 -0.2421,-1.7067 -0.7262,-3.5574 -0.5362,-5.2857 z"
       style="fill:#ffffff;fill-opacity:1;fill-rule:nonzero;stroke:none" />
    <ellipse
       style="opacity:1;fill:#00559b;fill-opacity:1;stroke:none;stroke-width:2.4000001;stroke-linejoin:miter;stroke-miterlimit:4;stroke-dasharray:none;stroke-dashoffset:0;stroke-opacity:1"
       id="circle13489"
       cx="856.09985"
       cy="-2342.9519"
       rx="30.290005"
       ry="30.290003" />
    <circle
       r="19.030003"
       cy="-2342.9519"
       cx="856.09985"
       id="circle13491"
       style="opacity:1;fill:#ffffff;fill-opacity:1;stroke:none;stroke-width:2.4000001;stroke-linejoin:miter;stroke-miterlimit:4;stroke-dasharray:none;stroke-dashoffset:0;stroke-opacity:1" />
  </g>
</svg>
