<?xml version="1.0" encoding="UTF-8" standalone="no"?>
<!-- Created with Inkscape (http://www.inkscape.org/) -->

<svg
   xmlns:dc="http://purl.org/dc/elements/1.1/"
   xmlns:cc="http://creativecommons.org/ns#"
   xmlns:rdf="http://www.w3.org/1999/02/22-rdf-syntax-ns#"
   xmlns:svg="http://www.w3.org/2000/svg"
   xmlns="http://www.w3.org/2000/svg"
   xmlns:sodipodi="http://sodipodi.sourceforge.net/DTD/sodipodi-0.dtd"
   xmlns:inkscape="http://www.inkscape.org/namespaces/inkscape"
   width="600"
   height="800"
   viewBox="0 0 600.00001 800.00007"
   id="svg2"
   version="1.1"
   inkscape:version="0.91 r13725"
   sodipodi:docname="33.svg">
  <defs
     id="defs4" />
  <sodipodi:namedview
     id="base"
     pagecolor="#ffffff"
     bordercolor="#666666"
     borderopacity="1.0"
     inkscape:pageopacity="0.0"
     inkscape:pageshadow="2"
     inkscape:zoom="0.71777344"
     inkscape:cx="7.1450609"
     inkscape:cy="320.01341"
     inkscape:document-units="px"
     inkscape:current-layer="layer1"
     showgrid="false"
     fit-margin-top="0"
     fit-margin-left="0"
     fit-margin-right="0"
     fit-margin-bottom="0"
     units="px"
     inkscape:window-width="1920"
     inkscape:window-height="1057"
     inkscape:window-x="-8"
     inkscape:window-y="-8"
     inkscape:window-maximized="1" />
  <metadata
     id="metadata7">
    <rdf:RDF>
      <cc:Work
         rdf:about="">
        <dc:format>image/svg+xml</dc:format>
        <dc:type
           rdf:resource="http://purl.org/dc/dcmitype/StillImage" />
        <dc:title></dc:title>
      </cc:Work>
    </rdf:RDF>
  </metadata>
  <g
     inkscape:label="Layer 1"
     inkscape:groupmode="layer"
     id="layer1"
     transform="translate(-444.19995,1908.4809)">
    <rect
       style="opacity:1;fill:#00559b;fill-opacity:1;stroke:none;stroke-width:2.4000001;stroke-linejoin:miter;stroke-miterlimit:4;stroke-dasharray:none;stroke-dashoffset:0;stroke-opacity:1"
       id="rect4182"
       width="600"
       height="800"
       x="444.19992"
       y="-1908.4808" />
    <rect
       y="-1908.4808"
       x="444.19992"
       height="800"
       width="600"
       id="rect4184"
       style="opacity:1;fill:#ffffff;fill-opacity:1;stroke:none;stroke-width:2.4000001;stroke-linejoin:miter;stroke-miterlimit:4;stroke-dasharray:none;stroke-dashoffset:0;stroke-opacity:1"
       rx="106.4"
       ry="106.4" />
    <rect
       ry="80"
       rx="80"
       style="opacity:1;fill:#00559b;fill-opacity:1;stroke:none;stroke-width:2.4000001;stroke-linejoin:miter;stroke-miterlimit:4;stroke-dasharray:none;stroke-dashoffset:0;stroke-opacity:1"
       id="rect4195"
       width="547.20007"
       height="747.20007"
       x="470.59988"
       y="-1882.0808" />
    <path
       style="fill:#ffffff;fill-opacity:1;fill-rule:nonzero;stroke:none"
       d="m 624.99993,-1482.081 140.78914,0 c 98.64029,1.9085 129.65479,131.8318 41.58789,177.1367 l 56.82294,122.0634 -64.0099,0 -52.81006,-111.7001 -61.58001,0 0,111.7001 -60.8,0 z"
       id="path6490"
       inkscape:connector-curvature="0"
       sodipodi:nodetypes="cccccccccc" />
    <path
       style="opacity:1;fill:#00559b;fill-opacity:1;stroke:none;stroke-width:25;stroke-linejoin:miter;stroke-miterlimit:4;stroke-dasharray:none;stroke-dashoffset:0;stroke-opacity:1"
       d="m 685.79993,-1355.281 79.65002,0 c 18.3651,0 33.15,-14.7626 33.15,-33.1 0,-18.3374 -14.7849,-33.1 -33.15,-33.1 l -79.65002,0 z"
       id="rect13342"
       inkscape:connector-curvature="0"
       sodipodi:nodetypes="cssscc" />
    <rect
       y="-1308.481"
       x="496.19995"
       height="80.000008"
       width="32"
       id="rect13459"
       style="opacity:1;fill:#ffd70a;fill-opacity:1;stroke:none;stroke-width:25;stroke-linejoin:miter;stroke-miterlimit:4;stroke-dasharray:none;stroke-dashoffset:0;stroke-opacity:1" />
    <rect
       style="opacity:1;fill:#ffd70a;fill-opacity:1;stroke:none;stroke-width:25;stroke-linejoin:miter;stroke-miterlimit:4;stroke-dasharray:none;stroke-dashoffset:0;stroke-opacity:1"
       id="rect13461"
       width="32"
       height="80.000008"
       x="496.19995"
       y="-1468.481" />
    <rect
       style="opacity:1;fill:#ffd70a;fill-opacity:1;stroke:none;stroke-width:25;stroke-linejoin:miter;stroke-miterlimit:4;stroke-dasharray:none;stroke-dashoffset:0;stroke-opacity:1"
       id="rect13463"
       width="32"
       height="80.000008"
       x="496.19995"
       y="-1628.481" />
    <rect
       y="-1788.481"
       x="496.19995"
       height="80.000008"
       width="32"
       id="rect13465"
       style="opacity:1;fill:#ffd70a;fill-opacity:1;stroke:none;stroke-width:25;stroke-linejoin:miter;stroke-miterlimit:4;stroke-dasharray:none;stroke-dashoffset:0;stroke-opacity:1" />
    <path
       sodipodi:nodetypes="cccccccccccccccccccccccc"
       inkscape:connector-curvature="0"
       id="path13467"
       style="fill:#ffffff;fill-opacity:1;fill-rule:evenodd;stroke:none"
       d="m 564.92378,-1656.7249 c -8.67307,-29.6886 -5.80871,-57.1383 7.96335,-84.7301 l 0.57185,0 -4.55096,-8.5301 11.38934,-3.4311 11.3417,-1.6927 147.72795,0 2.28741,-2.8592 2.85926,-1.6927 34.07273,0 3.40728,0.5719 2.83543,2.2635 1.14369,1.7156 169.32405,0 11.36552,1.6926 10.76985,3.4311 2.2874,1.1438 1.12083,2.2636 -0.54898,2.2873 -1.14371,1.6927 -2.26357,1.1437 -1.71554,0 c 16.86958,24.0654 8.31318,53.8007 10.81503,80.773 l -42.58387,3.9571" />
    <path
       inkscape:connector-curvature="0"
       id="path13469"
       style="fill:#00559b;fill-opacity:1;fill-rule:nonzero;stroke:none"
       d="m 611.53468,-1738.0477 0,-1.1437 -1.14371,-2.8355 -2.26357,-2.2636 -2.83543,-0.5718 -22.15919,0 -2.83542,1.1189 -2.2874,2.2874 -0.57185,3.4073 0,66.5491 0.57185,2.8593 2.2874,2.2635 2.83542,1.1437 23.27906,0 2.85926,-1.1437 1.69268,-2.2635 0.57184,-2.8593 0,-66.5491" />
    <path
       inkscape:connector-curvature="0"
       id="path13471"
       style="fill:#00559b;fill-opacity:1;fill-rule:nonzero;stroke:none"
       d="m 647.89481,-1744.8623 -24.99461,0 -2.2874,0.5718 -1.69268,1.6928 -0.57184,2.2874 0,28.4257 0.57184,1.7156 1.1437,1.6926 2.83543,0.5719 27.28202,0 1.69267,-1.6928 0.57185,-2.2873 0,-28.4257 -0.57185,-1.7156 -1.1437,-2.2635 -2.83543,-0.5719" />
    <path
       inkscape:connector-curvature="0"
       id="path13473"
       style="fill:#00559b;fill-opacity:1;fill-rule:nonzero;stroke:none"
       d="m 727.45347,-1744.8623 -64.21401,0 -1.71555,0.5718 -1.69267,1.6928 -0.57185,2.2874 0,28.4257 0.57185,1.7156 1.1437,1.6926 2.26357,0.5719 65.92955,0 1.69269,-1.6928 0.57185,-2.2873 0,-30.1413 -1.71555,-2.2635 -2.26358,-0.5719" />
    <path
       inkscape:connector-curvature="0"
       id="path13475"
       style="fill:#00559b;fill-opacity:1;fill-rule:nonzero;stroke:none"
       d="m 806.41646,-1744.8623 -63.61834,0 -1.71555,0.5718 -2.26357,1.6928 -0.57185,2.2874 0,28.4257 0.57185,1.7156 1.69268,1.6926 2.28739,0.5719 65.33388,0 1.71556,-1.6928 1.11893,-2.2873 0,-28.4257 -0.57185,-1.7156 -1.69269,-2.2635 -2.2874,-0.5719" />
    <path
       inkscape:connector-curvature="0"
       id="path13477"
       style="fill:#00559b;fill-opacity:1;fill-rule:nonzero;stroke:none"
       d="m 885.40327,-1744.8623 -63.64217,0 -1.69267,0.5718 -1.71556,1.6928 -0.54897,2.2874 0,30.1413 1.69267,1.6926 2.26358,0.5719 65.35771,0 2.26357,-1.6928 0.59473,-2.2873 0,-28.4257 -0.59473,-1.7156 -1.71554,-2.2635 -2.26358,-0.5719" />
    <path
       inkscape:connector-curvature="0"
       id="path13479"
       style="fill:#00559b;fill-opacity:1;fill-rule:nonzero;stroke:none"
       d="m 896.79261,-1740.3113 0.54897,-1.7156 1.14371,-2.2636 2.26357,-0.5718 56.8038,0 2.2874,0.5718 1.71553,2.2636 11.36553,28.4496 0,2.2636 -1.14371,2.2874 -1.69266,1.1188 -71.02855,0 -1.71556,-1.6926 -0.54898,-2.2874 0,-28.4257" />
    <ellipse
       ry="30.289999"
       rx="30.290001"
       style="opacity:1;fill:#00559b;fill-opacity:1;stroke:none;stroke-width:2.4000001;stroke-linejoin:miter;stroke-miterlimit:4;stroke-dasharray:none;stroke-dashoffset:0;stroke-opacity:1"
       id="ellipse13481"
       cx="648.71002"
       cy="-1657.511" />
    <circle
       r="19.030001"
       cy="-1657.511"
       cx="648.71002"
       id="circle13483"
       style="opacity:1;fill:#ffffff;fill-opacity:1;stroke:none;stroke-width:2.4000001;stroke-linejoin:miter;stroke-miterlimit:4;stroke-dasharray:none;stroke-dashoffset:0;stroke-opacity:1" />
    <ellipse
       cy="-1657.511"
       cx="862.16998"
       id="ellipse13485"
       style="opacity:1;fill:#00559b;fill-opacity:1;stroke:none;stroke-width:2.4000001;stroke-linejoin:miter;stroke-miterlimit:4;stroke-dasharray:none;stroke-dashoffset:0;stroke-opacity:1"
       rx="30.290001"
       ry="30.289999" />
    <circle
       style="opacity:1;fill:#ffffff;fill-opacity:1;stroke:none;stroke-width:2.4000001;stroke-linejoin:miter;stroke-miterlimit:4;stroke-dasharray:none;stroke-dashoffset:0;stroke-opacity:1"
       id="circle13487"
       cx="862.16998"
       cy="-1657.511"
       r="19.030001" />
  </g>
</svg>
