<?xml version="1.0" encoding="UTF-8" standalone="no"?>
<!-- Created with Inkscape (http://www.inkscape.org/) -->

<svg
   xmlns:dc="http://purl.org/dc/elements/1.1/"
   xmlns:cc="http://creativecommons.org/ns#"
   xmlns:rdf="http://www.w3.org/1999/02/22-rdf-syntax-ns#"
   xmlns:svg="http://www.w3.org/2000/svg"
   xmlns="http://www.w3.org/2000/svg"
   xmlns:sodipodi="http://sodipodi.sourceforge.net/DTD/sodipodi-0.dtd"
   xmlns:inkscape="http://www.inkscape.org/namespaces/inkscape"
   width="600"
   height="800"
   viewBox="0 0 600.00003 800.00004"
   id="svg2"
   version="1.1"
   inkscape:version="0.91 r13725"
   sodipodi:docname="33.svg">
  <defs
     id="defs4">
    <pattern
       y="0"
       x="0"
       height="6"
       width="6"
       patternUnits="userSpaceOnUse"
       id="EMFhbasepattern" />
    <pattern
       y="0"
       x="0"
       height="6"
       width="6"
       patternUnits="userSpaceOnUse"
       id="EMFhbasepattern-6" />
    <pattern
       y="0"
       x="0"
       height="6"
       width="6"
       patternUnits="userSpaceOnUse"
       id="EMFhbasepattern-3" />
    <pattern
       y="0"
       x="0"
       height="6"
       width="6"
       patternUnits="userSpaceOnUse"
       id="EMFhbasepattern-0" />
    <pattern
       y="0"
       x="0"
       height="6"
       width="6"
       patternUnits="userSpaceOnUse"
       id="EMFhbasepattern-2" />
    <pattern
       y="0"
       x="0"
       height="6"
       width="6"
       patternUnits="userSpaceOnUse"
       id="EMFhbasepattern-65" />
    <pattern
       y="0"
       x="0"
       height="6"
       width="6"
       patternUnits="userSpaceOnUse"
       id="EMFhbasepattern-28" />
    <pattern
       y="0"
       x="0"
       height="6"
       width="6"
       patternUnits="userSpaceOnUse"
       id="EMFhbasepattern-5" />
    <pattern
       y="0"
       x="0"
       height="6"
       width="6"
       patternUnits="userSpaceOnUse"
       id="EMFhbasepattern-7" />
    <pattern
       y="0"
       x="0"
       height="6"
       width="6"
       patternUnits="userSpaceOnUse"
       id="EMFhbasepattern-79" />
    <pattern
       y="0"
       x="0"
       height="6"
       width="6"
       patternUnits="userSpaceOnUse"
       id="EMFhbasepattern-30" />
    <pattern
       y="0"
       x="0"
       height="6"
       width="6"
       patternUnits="userSpaceOnUse"
       id="EMFhbasepattern-1" />
    <pattern
       y="0"
       x="0"
       height="6"
       width="6"
       patternUnits="userSpaceOnUse"
       id="EMFhbasepattern-13" />
    <pattern
       y="0"
       x="0"
       height="6"
       width="6"
       patternUnits="userSpaceOnUse"
       id="EMFhbasepattern-05" />
    <pattern
       y="0"
       x="0"
       height="6"
       width="6"
       patternUnits="userSpaceOnUse"
       id="EMFhbasepattern-20" />
  </defs>
  <sodipodi:namedview
     id="base"
     pagecolor="#ffffff"
     bordercolor="#666666"
     borderopacity="1.0"
     inkscape:pageopacity="0.0"
     inkscape:pageshadow="2"
     inkscape:zoom="0.64"
     inkscape:cx="164.38788"
     inkscape:cy="334.58238"
     inkscape:document-units="px"
     inkscape:current-layer="layer1"
     showgrid="false"
     fit-margin-top="0"
     fit-margin-left="0"
     fit-margin-right="0"
     fit-margin-bottom="0"
     units="px"
     inkscape:window-width="1920"
     inkscape:window-height="1057"
     inkscape:window-x="-8"
     inkscape:window-y="-8"
     inkscape:window-maximized="1"
     showguides="false" />
  <metadata
     id="metadata7">
    <rdf:RDF>
      <cc:Work
         rdf:about="">
        <dc:format>image/svg+xml</dc:format>
        <dc:type
           rdf:resource="http://purl.org/dc/dcmitype/StillImage" />
        <dc:title></dc:title>
      </cc:Work>
    </rdf:RDF>
  </metadata>
  <g
     inkscape:label="Layer 1"
     inkscape:groupmode="layer"
     id="layer1"
     transform="translate(-1050.2448,6018.0817)">
    <rect
       style="opacity:1;fill:#00559b;fill-opacity:1;stroke:none;stroke-width:2.4000001;stroke-linejoin:miter;stroke-miterlimit:4;stroke-dasharray:none;stroke-dashoffset:0;stroke-opacity:1"
       id="rect4182"
       width="600"
       height="800"
       x="1050.2448"
       y="-6018.0815" />
    <rect
       y="-6018.0815"
       x="1050.2448"
       height="800"
       width="600"
       id="rect4184"
       style="opacity:1;fill:#ffffff;fill-opacity:1;stroke:none;stroke-width:2.4000001;stroke-linejoin:miter;stroke-miterlimit:4;stroke-dasharray:none;stroke-dashoffset:0;stroke-opacity:1"
       rx="106.4"
       ry="106.4" />
    <rect
       ry="80"
       rx="80"
       style="opacity:1;fill:#00559b;fill-opacity:1;stroke:none;stroke-width:2.4000001;stroke-linejoin:miter;stroke-miterlimit:4;stroke-dasharray:none;stroke-dashoffset:0;stroke-opacity:1"
       id="rect4195"
       width="547.20007"
       height="747.20007"
       x="1076.6448"
       y="-5991.6816" />
    <path
       style="fill:#ffffff;fill-opacity:1;fill-rule:nonzero;stroke:none"
       d="m 1231.0448,-5591.6818 140.7891,0 c 98.6403,1.9085 129.6548,131.8318 41.5879,177.1367 l 56.8229,122.0634 -64.0098,0 -52.8101,-111.7001 -61.58,0 0,111.7001 -60.8,0 z"
       id="path6490"
       inkscape:connector-curvature="0"
       sodipodi:nodetypes="cccccccccc" />
    <path
       style="opacity:1;fill:#00559b;fill-opacity:1;stroke:none;stroke-width:25;stroke-linejoin:miter;stroke-miterlimit:4;stroke-dasharray:none;stroke-dashoffset:0;stroke-opacity:1"
       d="m 1291.8448,-5464.8818 79.65,0 c 18.3651,0 33.15,-14.7626 33.15,-33.1 0,-18.3374 -14.7849,-33.1 -33.15,-33.1 l -79.65,0 z"
       id="rect13342"
       inkscape:connector-curvature="0"
       sodipodi:nodetypes="cssscc" />
    <path
       sodipodi:nodetypes="cccccccccccccccccccccccc"
       inkscape:connector-curvature="0"
       id="path4178"
       style="fill:#ffffff;fill-opacity:1;fill-rule:evenodd;stroke:none"
       d="m 1170.9686,-5833.7459 c -8.6731,-29.6886 -5.8088,-57.1383 7.9633,-84.7301 l 0.5718,0 -4.5509,-8.53 11.3894,-3.4311 11.3416,-1.6927 147.7281,0 2.2874,-2.8593 2.8592,-1.6927 34.0728,0 3.4072,0.5719 2.8355,2.2636 1.1436,1.7155 169.3241,0 11.3655,1.6926 10.7698,3.4311 2.2875,1.1438 1.1207,2.2636 -0.549,2.2874 -1.1436,1.6926 -2.2636,1.1437 -1.7155,0 c 16.8695,24.0654 8.3131,53.8007 10.8149,80.773 l -42.5838,3.9571" />
    <path
       inkscape:connector-curvature="0"
       id="path4180"
       style="fill:#00559b;fill-opacity:1;fill-rule:nonzero;stroke:none"
       d="m 1217.5795,-5915.0687 0,-1.1437 -1.1438,-2.8355 -2.2636,-2.2635 -2.8353,-0.5718 -22.1593,0 -2.8353,1.1189 -2.2875,2.2874 -0.5719,3.4073 0,66.549 0.5719,2.8593 2.2875,2.2636 2.8353,1.1436 23.2791,0 2.8593,-1.1436 1.6926,-2.2636 0.5719,-2.8593 0,-66.549" />
    <path
       inkscape:connector-curvature="0"
       id="path4182"
       style="fill:#00559b;fill-opacity:1;fill-rule:nonzero;stroke:none"
       d="m 1253.9396,-5921.8832 -24.9946,0 -2.2874,0.5718 -1.6928,1.6927 -0.5717,2.2874 0,28.4257 0.5717,1.7156 1.1438,1.6926 2.8354,0.5719 27.282,0 1.6927,-1.6927 0.5718,-2.2874 0,-28.4257 -0.5718,-1.7155 -1.1437,-2.2636 -2.8354,-0.5719" />
    <path
       inkscape:connector-curvature="0"
       id="path4184"
       style="fill:#00559b;fill-opacity:1;fill-rule:nonzero;stroke:none"
       d="m 1333.4983,-5921.8832 -64.2141,0 -1.7155,0.5718 -1.6927,1.6927 -0.5718,2.2874 0,28.4257 0.5718,1.7156 1.1437,1.6926 2.2635,0.5719 65.9297,0 1.6927,-1.6927 0.5718,-2.2874 0,-30.1412 -1.7155,-2.2636 -2.2636,-0.5719" />
    <path
       inkscape:connector-curvature="0"
       id="path4186"
       style="fill:#00559b;fill-opacity:1;fill-rule:nonzero;stroke:none"
       d="m 1412.4613,-5921.8832 -63.6184,0 -1.7155,0.5718 -2.2636,1.6927 -0.5718,2.2874 0,28.4257 0.5718,1.7156 1.6927,1.6926 2.2874,0.5719 65.3339,0 1.7156,-1.6927 1.1189,-2.2874 0,-28.4257 -0.5718,-1.7155 -1.6927,-2.2636 -2.2875,-0.5719" />
    <path
       inkscape:connector-curvature="0"
       id="path4188"
       style="fill:#00559b;fill-opacity:1;fill-rule:nonzero;stroke:none"
       d="m 1491.4481,-5921.8832 -63.6421,0 -1.6927,0.5718 -1.7156,1.6927 -0.5489,2.2874 0,30.1413 1.6926,1.6926 2.2636,0.5719 65.3577,0 2.2636,-1.6927 0.5947,-2.2874 0,-28.4257 -0.5947,-1.7155 -1.7156,-2.2636 -2.2636,-0.5719" />
    <path
       inkscape:connector-curvature="0"
       id="path4190"
       style="fill:#00559b;fill-opacity:1;fill-rule:nonzero;stroke:none"
       d="m 1502.8374,-5917.3323 0.5491,-1.7156 1.1436,-2.2635 2.2636,-0.5718 56.8038,0 2.2874,0.5718 1.7155,2.2635 11.3655,28.4496 0,2.2636 -1.1437,2.2874 -1.6927,1.1189 -71.0285,0 -1.7156,-1.6927 -0.5489,-2.2873 0,-28.4257" />
    <circle
       r="30.290001"
       style="opacity:1;fill:#00559b;fill-opacity:1;stroke:none;stroke-width:2.4000001;stroke-linejoin:miter;stroke-miterlimit:4;stroke-dasharray:none;stroke-dashoffset:0;stroke-opacity:1"
       id="circle4192"
       cx="1254.7448"
       cy="-5834.5527" />
    <circle
       r="19.030001"
       cy="-5834.5527"
       cx="1254.7448"
       id="circle4194"
       style="opacity:1;fill:#ffffff;fill-opacity:1;stroke:none;stroke-width:2.4000001;stroke-linejoin:miter;stroke-miterlimit:4;stroke-dasharray:none;stroke-dashoffset:0;stroke-opacity:1" />
    <circle
       cy="-5834.5527"
       cx="1467.7446"
       id="circle4196"
       style="opacity:1;fill:#00559b;fill-opacity:1;stroke:none;stroke-width:2.4000001;stroke-linejoin:miter;stroke-miterlimit:4;stroke-dasharray:none;stroke-dashoffset:0;stroke-opacity:1"
       r="30.290001" />
    <circle
       style="opacity:1;fill:#ffffff;fill-opacity:1;stroke:none;stroke-width:2.4000001;stroke-linejoin:miter;stroke-miterlimit:4;stroke-dasharray:none;stroke-dashoffset:0;stroke-opacity:1"
       id="circle4198"
       cx="1467.7446"
       cy="-5834.5527"
       r="19.030001" />
    <rect
       y="-5418.0815"
       x="1102.2448"
       height="80"
       width="31.999996"
       id="rect4200"
       style="opacity:1;fill:#ffd70a;fill-opacity:1;stroke:none;stroke-width:25;stroke-linejoin:miter;stroke-miterlimit:4;stroke-dasharray:none;stroke-dashoffset:0;stroke-opacity:1" />
    <rect
       style="opacity:1;fill:#ffd70a;fill-opacity:1;stroke:none;stroke-width:25;stroke-linejoin:miter;stroke-miterlimit:4;stroke-dasharray:none;stroke-dashoffset:0;stroke-opacity:1"
       id="rect4202"
       width="31.999996"
       height="80"
       x="1102.2448"
       y="-5578.0815" />
    <rect
       style="opacity:1;fill:#ffd70a;fill-opacity:1;stroke:none;stroke-width:25;stroke-linejoin:miter;stroke-miterlimit:4;stroke-dasharray:none;stroke-dashoffset:0;stroke-opacity:1"
       id="rect4204"
       width="31.999996"
       height="80"
       x="1102.2448"
       y="-5738.0815" />
    <rect
       y="-5898.0815"
       x="1102.2448"
       height="80"
       width="31.999996"
       id="rect4206"
       style="opacity:1;fill:#ffd70a;fill-opacity:1;stroke:none;stroke-width:25;stroke-linejoin:miter;stroke-miterlimit:4;stroke-dasharray:none;stroke-dashoffset:0;stroke-opacity:1" />
    <path
       sodipodi:nodetypes="cccccccccccccccccccccccccccccccccc"
       d="m 1261.788,-5662.7823 -1.3644,-0.3584 -1.0341,-1.0204 -0.3447,-1.7092 c 1.6804,-2.5564 1.9677,-4.7539 1.0341,-7.8993 l -0.3447,-0.3309 -0.6894,-1.3789 0.3447,-1.7091 1.0341,-1.0203 4.1078,-3.1024 0,-24.0001 0.3446,-2.0538 1.3789,-1.7091 1.7091,-1.3645 1.0341,0 22.6212,-32.5745 0,0.3447 c -3.5764,-2.6715 -2.097,-5.9318 1.3787,-7.5548 63.7847,-6.219 125.0988,-6.1759 188.8978,-0.3309 l 17.149,45.2423 0,22.291 -0.3448,2.0538 -1.0202,1.7236 -1.7235,1.034 -2.0539,0.6746 1.7092,0.3446 1.7091,1.0342 1.3788,1.7092 0.3448,2.0538 -0.3448,2.0538 -1.0203,1.7236 -1.7235,1.0341 -2.0538,0.6745 -24,4.1248"
       style="fill:#ffffff;fill-opacity:1;fill-rule:evenodd;stroke:none"
       id="path4208"
       inkscape:connector-curvature="0" />
    <path
       d="m 1322.4845,-5746.1001 0.331,0 2.4129,0.3447 2.3842,1.0342 2.0683,2.0538 1.0192,2.0539 0.3446,2.7432 0,16.4453 -0.3446,2.7433 -1.0192,2.0539 -2.0683,2.0682 -2.3842,1.034 -2.0682,0.331 -29.1418,0 -2.0539,0.6894 -1.3788,1.3788 -2.3842,3.4183 -1.0342,0.6895 -1.034,0.3447 -6.5063,0 -1.3788,-0.3447 -1.0342,-1.0342 -0.3309,-1.3644 0.3309,-1.3788 21.6015,-30.1617 1.7235,-2.0538 2.3842,-1.0341 1.3788,-0.3447 18.1831,-1.7092"
       style="fill:#00559b;fill-opacity:1;fill-rule:nonzero;stroke:none"
       id="path4210"
       inkscape:connector-curvature="0" />
    <path
       sodipodi:nodetypes="cccccccccccccccccccccccc"
       d="m 1344.0716,-5747.1342 -1.7091,0.3448 -2.3985,1.034 -1.7236,1.7092 -1.3644,2.3986 -0.3447,2.3986 0,17.824 0.3447,2.7433 1.3644,2.0539 1.7236,2.0682 2.3985,1.034 2.0538,0.331 48,0 2.0539,-0.331 2.4129,-1.034 2.0539,-2.0682 1.0204,-2.0539 0.6893,-2.7433 0,-18.8582 -0.6893,-2.3842 -1.0204,-2.4129 -2.0539,-1.7091 -2.4129,-1.3789 -50.3986,1.0341"
       style="fill:#00559b;fill-opacity:1;fill-rule:nonzero;stroke:none"
       id="path4212"
       inkscape:connector-curvature="0" />
    <path
       d="m 1485.3285,-5722.4447 -6.5063,-17.1491 -1.3789,-2.0538 -2.0538,-1.7092 -2.3986,-1.0341 -1.0341,-0.3309 -1.7091,0 -28.1221,-2.0682 -28.1077,-1.0342 -2.3986,0 -2.3986,1.3788 -1.7235,1.7236 -1.3645,2.0538 -0.3447,2.7433 0,18.4992 0.3447,2.7432 1.3645,2.0539 1.7235,2.0682 2.3986,1.0341 2.0538,0.331 65.4794,0 1.0341,-0.331 2.3986,-0.6894 1.7235,-1.3788 1.0203,-2.0539 0.6894,-2.3985 -0.6894,-2.3987"
       style="fill:#00559b;fill-opacity:1;fill-rule:nonzero;stroke:none"
       id="path4214"
       inkscape:connector-curvature="0" />
    <ellipse
       ry="24.00001"
       rx="24.000008"
       cy="-5662.6221"
       cx="1299.2848"
       id="ellipse4216"
       style="opacity:1;fill:#00559b;fill-opacity:1;stroke:none;stroke-width:2.4000001;stroke-linejoin:miter;stroke-miterlimit:4;stroke-dasharray:none;stroke-dashoffset:0;stroke-opacity:1" />
    <circle
       r="15.940001"
       style="opacity:1;fill:#ffffff;fill-opacity:1;stroke:none;stroke-width:2.4000001;stroke-linejoin:miter;stroke-miterlimit:4;stroke-dasharray:none;stroke-dashoffset:0;stroke-opacity:1"
       id="circle4218"
       cx="1299.2848"
       cy="-5662.6221" />
    <ellipse
       style="opacity:1;fill:#00559b;fill-opacity:1;stroke:none;stroke-width:2.4000001;stroke-linejoin:miter;stroke-miterlimit:4;stroke-dasharray:none;stroke-dashoffset:0;stroke-opacity:1"
       id="ellipse4220"
       cx="1445.7249"
       cy="-5662.6221"
       rx="24.000008"
       ry="24.00001" />
    <circle
       cy="-5662.6221"
       cx="1445.7249"
       id="circle4222"
       style="opacity:1;fill:#ffffff;fill-opacity:1;stroke:none;stroke-width:2.4000001;stroke-linejoin:miter;stroke-miterlimit:4;stroke-dasharray:none;stroke-dashoffset:0;stroke-opacity:1"
       r="15.940001" />
  </g>
</svg>
