<?xml version="1.0" encoding="UTF-8" standalone="no"?>
<!-- Created with Inkscape (http://www.inkscape.org/) -->

<svg
   xmlns:dc="http://purl.org/dc/elements/1.1/"
   xmlns:cc="http://creativecommons.org/ns#"
   xmlns:rdf="http://www.w3.org/1999/02/22-rdf-syntax-ns#"
   xmlns:svg="http://www.w3.org/2000/svg"
   xmlns="http://www.w3.org/2000/svg"
   xmlns:sodipodi="http://sodipodi.sourceforge.net/DTD/sodipodi-0.dtd"
   xmlns:inkscape="http://www.inkscape.org/namespaces/inkscape"
   width="600"
   height="800"
   viewBox="0 0 600.00001 800.00001"
   id="svg2"
   version="1.1"
   inkscape:version="0.91 r13725"
   sodipodi:docname="33.svg">
  <defs
     id="defs4">
    <pattern
       y="0"
       x="0"
       height="6"
       width="6"
       patternUnits="userSpaceOnUse"
       id="EMFhbasepattern" />
    <pattern
       y="0"
       x="0"
       height="6"
       width="6"
       patternUnits="userSpaceOnUse"
       id="EMFhbasepattern-6" />
    <pattern
       y="0"
       x="0"
       height="6"
       width="6"
       patternUnits="userSpaceOnUse"
       id="EMFhbasepattern-3" />
    <pattern
       y="0"
       x="0"
       height="6"
       width="6"
       patternUnits="userSpaceOnUse"
       id="EMFhbasepattern-0" />
    <pattern
       y="0"
       x="0"
       height="6"
       width="6"
       patternUnits="userSpaceOnUse"
       id="EMFhbasepattern-2" />
    <pattern
       y="0"
       x="0"
       height="6"
       width="6"
       patternUnits="userSpaceOnUse"
       id="EMFhbasepattern-65" />
    <pattern
       y="0"
       x="0"
       height="6"
       width="6"
       patternUnits="userSpaceOnUse"
       id="EMFhbasepattern-28" />
    <pattern
       y="0"
       x="0"
       height="6"
       width="6"
       patternUnits="userSpaceOnUse"
       id="EMFhbasepattern-5" />
    <pattern
       y="0"
       x="0"
       height="6"
       width="6"
       patternUnits="userSpaceOnUse"
       id="EMFhbasepattern-7" />
    <pattern
       y="0"
       x="0"
       height="6"
       width="6"
       patternUnits="userSpaceOnUse"
       id="EMFhbasepattern-79" />
    <pattern
       y="0"
       x="0"
       height="6"
       width="6"
       patternUnits="userSpaceOnUse"
       id="EMFhbasepattern-30" />
    <pattern
       y="0"
       x="0"
       height="6"
       width="6"
       patternUnits="userSpaceOnUse"
       id="EMFhbasepattern-1" />
    <pattern
       y="0"
       x="0"
       height="6"
       width="6"
       patternUnits="userSpaceOnUse"
       id="EMFhbasepattern-13" />
    <pattern
       y="0"
       x="0"
       height="6"
       width="6"
       patternUnits="userSpaceOnUse"
       id="EMFhbasepattern-05" />
    <pattern
       y="0"
       x="0"
       height="6"
       width="6"
       patternUnits="userSpaceOnUse"
       id="EMFhbasepattern-20" />
  </defs>
  <sodipodi:namedview
     id="base"
     pagecolor="#ffffff"
     bordercolor="#666666"
     borderopacity="1.0"
     inkscape:pageopacity="0.0"
     inkscape:pageshadow="2"
     inkscape:zoom="0.67469174"
     inkscape:cx="397.03301"
     inkscape:cy="265.33941"
     inkscape:document-units="px"
     inkscape:current-layer="layer1"
     showgrid="false"
     fit-margin-top="0"
     fit-margin-left="0"
     fit-margin-right="0"
     fit-margin-bottom="0"
     units="px"
     inkscape:window-width="1920"
     inkscape:window-height="1057"
     inkscape:window-x="-8"
     inkscape:window-y="-8"
     inkscape:window-maximized="1"
     showguides="false" />
  <metadata
     id="metadata7">
    <rdf:RDF>
      <cc:Work
         rdf:about="">
        <dc:format>image/svg+xml</dc:format>
        <dc:type
           rdf:resource="http://purl.org/dc/dcmitype/StillImage" />
        <dc:title></dc:title>
      </cc:Work>
    </rdf:RDF>
  </metadata>
  <g
     inkscape:label="Layer 1"
     inkscape:groupmode="layer"
     id="layer1"
     transform="translate(-997.44489,5965.2818)">
    <rect
       style="opacity:1;fill:#00559b;fill-opacity:1;stroke:none;stroke-width:2.4000001;stroke-linejoin:miter;stroke-miterlimit:4;stroke-dasharray:none;stroke-dashoffset:0;stroke-opacity:1"
       id="rect4182"
       width="600"
       height="800"
       x="997.44489"
       y="-5965.2817" />
    <rect
       y="-5965.2817"
       x="997.44489"
       height="800"
       width="600"
       id="rect4184"
       style="opacity:1;fill:#ffffff;fill-opacity:1;stroke:none;stroke-width:2.4000001;stroke-linejoin:miter;stroke-miterlimit:4;stroke-dasharray:none;stroke-dashoffset:0;stroke-opacity:1"
       rx="106.4"
       ry="106.4" />
    <rect
       ry="80"
       rx="80"
       style="opacity:1;fill:#00559b;fill-opacity:1;stroke:none;stroke-width:2.4000001;stroke-linejoin:miter;stroke-miterlimit:4;stroke-dasharray:none;stroke-dashoffset:0;stroke-opacity:1"
       id="rect4195"
       width="547.20007"
       height="747.20007"
       x="1023.8448"
       y="-5938.8818" />
    <path
       style="fill:#ffffff;fill-opacity:1;fill-rule:nonzero;stroke:none"
       d="m 1178.2449,-5538.882 140.7891,0 c 98.6403,1.9085 129.6548,131.8318 41.5879,177.1367 l 56.8229,122.0634 -64.0098,0 -52.8101,-111.7001 -61.58,0 0,111.7001 -60.8,0 z"
       id="path6490"
       inkscape:connector-curvature="0"
       sodipodi:nodetypes="cccccccccc" />
    <path
       style="opacity:1;fill:#00559b;fill-opacity:1;stroke:none;stroke-width:25;stroke-linejoin:miter;stroke-miterlimit:4;stroke-dasharray:none;stroke-dashoffset:0;stroke-opacity:1"
       d="m 1239.0449,-5412.082 79.65,0 c 18.3651,0 33.15,-14.7626 33.15,-33.1 0,-18.3374 -14.7849,-33.1 -33.15,-33.1 l -79.65,0 z"
       id="rect13342"
       inkscape:connector-curvature="0"
       sodipodi:nodetypes="cssscc" />
    <path
       sodipodi:nodetypes="cccccccccccccccccccccccc"
       inkscape:connector-curvature="0"
       id="path4181"
       style="fill:#ffffff;fill-opacity:1;fill-rule:evenodd;stroke:none"
       d="m 1118.1687,-5798.9465 c -8.6731,-29.6886 -5.8088,-57.1383 7.9633,-84.7301 l 0.5718,0 -4.5509,-8.53 11.3894,-3.4311 11.3416,-1.6927 147.7281,0 2.2874,-2.8593 2.8592,-1.6927 34.0728,0 3.4072,0.5719 2.8355,2.2636 1.1436,1.7155 169.3241,0 11.3655,1.6926 10.7698,3.4311 2.2875,1.1438 1.1207,2.2636 -0.549,2.2874 -1.1436,1.6926 -2.2636,1.1437 -1.7155,0 c 16.8695,24.0654 8.3131,53.8007 10.8149,80.773 l -42.5838,3.9571" />
    <path
       inkscape:connector-curvature="0"
       id="path4183"
       style="fill:#00559b;fill-opacity:1;fill-rule:nonzero;stroke:none"
       d="m 1164.7796,-5880.2693 0,-1.1437 -1.1438,-2.8355 -2.2636,-2.2635 -2.8353,-0.5718 -22.1593,0 -2.8353,1.1189 -2.2875,2.2874 -0.5719,3.4073 0,66.549 0.5719,2.8593 2.2875,2.2636 2.8353,1.1436 23.2791,0 2.8593,-1.1436 1.6926,-2.2636 0.5719,-2.8593 0,-66.549" />
    <path
       inkscape:connector-curvature="0"
       id="path4185"
       style="fill:#00559b;fill-opacity:1;fill-rule:nonzero;stroke:none"
       d="m 1201.1397,-5887.0838 -24.9946,0 -2.2874,0.5718 -1.6928,1.6927 -0.5717,2.2874 0,28.4257 0.5717,1.7156 1.1438,1.6926 2.8354,0.5719 27.282,0 1.6927,-1.6927 0.5718,-2.2874 0,-28.4257 -0.5718,-1.7155 -1.1437,-2.2636 -2.8354,-0.5719" />
    <path
       inkscape:connector-curvature="0"
       id="path4187"
       style="fill:#00559b;fill-opacity:1;fill-rule:nonzero;stroke:none"
       d="m 1280.6984,-5887.0838 -64.2141,0 -1.7155,0.5718 -1.6927,1.6927 -0.5718,2.2874 0,28.4257 0.5718,1.7156 1.1437,1.6926 2.2635,0.5719 65.9297,0 1.6927,-1.6927 0.5718,-2.2874 0,-30.1412 -1.7155,-2.2636 -2.2636,-0.5719" />
    <path
       inkscape:connector-curvature="0"
       id="path4189"
       style="fill:#00559b;fill-opacity:1;fill-rule:nonzero;stroke:none"
       d="m 1359.6614,-5887.0838 -63.6184,0 -1.7155,0.5718 -2.2636,1.6927 -0.5718,2.2874 0,28.4257 0.5718,1.7156 1.6927,1.6926 2.2874,0.5719 65.3339,0 1.7156,-1.6927 1.1189,-2.2874 0,-28.4257 -0.5718,-1.7155 -1.6927,-2.2636 -2.2875,-0.5719" />
    <path
       inkscape:connector-curvature="0"
       id="path4191"
       style="fill:#00559b;fill-opacity:1;fill-rule:nonzero;stroke:none"
       d="m 1438.6482,-5887.0838 -63.6421,0 -1.6927,0.5718 -1.7156,1.6927 -0.5489,2.2874 0,30.1413 1.6926,1.6926 2.2636,0.5719 65.3577,0 2.2636,-1.6927 0.5947,-2.2874 0,-28.4257 -0.5947,-1.7155 -1.7156,-2.2636 -2.2636,-0.5719" />
    <path
       inkscape:connector-curvature="0"
       id="path4193"
       style="fill:#00559b;fill-opacity:1;fill-rule:nonzero;stroke:none"
       d="m 1450.0375,-5882.5329 0.5491,-1.7156 1.1436,-2.2635 2.2636,-0.5718 56.8038,0 2.2874,0.5718 1.7155,2.2635 11.3655,28.4496 0,2.2636 -1.1437,2.2874 -1.6927,1.1189 -71.0285,0 -1.7156,-1.6927 -0.5489,-2.2873 0,-28.4257" />
    <circle
       r="30.290001"
       style="opacity:1;fill:#00559b;fill-opacity:1;stroke:none;stroke-width:2.4000001;stroke-linejoin:miter;stroke-miterlimit:4;stroke-dasharray:none;stroke-dashoffset:0;stroke-opacity:1"
       id="circle4195"
       cx="1201.9449"
       cy="-5799.7529" />
    <circle
       r="19.030001"
       cy="-5799.7529"
       cx="1201.9449"
       id="circle4197"
       style="opacity:1;fill:#ffffff;fill-opacity:1;stroke:none;stroke-width:2.4000001;stroke-linejoin:miter;stroke-miterlimit:4;stroke-dasharray:none;stroke-dashoffset:0;stroke-opacity:1" />
    <path
       sodipodi:nodetypes="ccccccccc"
       inkscape:connector-curvature="0"
       id="path4199"
       d="m 1167.5991,-5594.3243 c -0.1901,1.7283 0.2942,3.579 0.5361,5.2857 1.3481,9.4627 10.2603,12.8324 18.7723,13.1565 4.8827,-2.074 10.7813,-5.3358 12.8985,-10.4777 l 41.8641,0 c 2.1174,5.1419 8.016,8.4037 12.8986,10.4777 8.512,-0.3241 17.4242,-3.6938 18.7723,-13.1565 0.2419,-1.7067 0.7262,-3.5574 0.5361,-5.2857 z"
       style="fill:#ffffff;fill-opacity:1;fill-rule:nonzero;stroke:none" />
    <path
       sodipodi:nodetypes="cccccccccccccccccccccccc"
       inkscape:connector-curvature="0"
       id="path4201"
       d="m 1255.23,-5766.8219 -50.5537,32.8988 41.7263,26.4822 -22.4547,0 -4.0277,0.7958 -2.389,3.2083 -71.42,0 0,8.8274 6.4165,0 c -8.1386,17.8276 -19.894,37.3994 -19.248,57.7676 2.6491,26.1816 -7.255,23.4045 14.4481,35.2896 l 178.5172,0 178.5168,0 c 21.7032,-11.8851 11.7991,-9.108 14.4483,-35.2896 0.6459,-20.3682 -11.1094,-39.94 -19.2481,-57.7676 l 6.4166,0 0,-8.8274 -180.1336,-0.6652 -32.4938,-0.1306 -3.2099,-2.4125 -3.2301,-0.7958 -22.4564,0 41.7279,-26.4822 z"
       style="fill:#ffffff;fill-opacity:1;fill-rule:evenodd;stroke:none" />
    <path
       d="m 1354.3749,-5640.1337 -56.2754,0 -3.216,-1.6174 -0.794,-2.4168 0,-46.6299 0.794,-3.2151 c 0.6041,-0.259 2.5462,-0.9702 3.216,-0.7976 l 56.2754,0 c 0.6732,-0.1726 2.61,0.5386 3.2141,0.7976 l 0.8114,3.2151 0,46.6299 -0.8114,2.4168 -3.2141,1.6174"
       style="fill:#00559b;fill-opacity:1;fill-rule:nonzero;stroke:none"
       id="path4203"
       inkscape:connector-curvature="0" />
    <path
       d="m 1227.3597,-5694.8122 57.0747,0 2.4167,0.7975 c 0.259,0.6042 0.9668,2.5462 0.7941,3.2152 l 0,46.6299 -0.7941,2.4168 -2.4167,1.6174 -57.0747,0 -2.4167,-1.6174 -1.6226,-2.4168 0,-46.6299 1.6226,-3.2152 2.4167,-0.7975"
       style="fill:#00559b;fill-opacity:1;fill-rule:nonzero;stroke:none"
       id="path4205"
       inkscape:connector-curvature="0" />
    <path
       d="m 1183.9448,-5610.3992 -2.4167,-1.5968 -0.8113,-2.4167 0,-76.386 0.8113,-3.2151 c 0.6042,-0.259 2.5463,-0.9702 3.2159,-0.7976 l 28.9353,0 2.4168,0.7976 1.6225,2.4167 0,77.1844 -0.8112,2.4167 -3.216,1.5968 -29.7345,0"
       style="fill:#00559b;fill-opacity:1;fill-rule:nonzero;stroke:none"
       id="path4207"
       inkscape:connector-curvature="0" />
    <path
       d="m 1171.0637,-5694.8122 -9.6462,0 -3.2143,1.5967 c -2.0508,4.5962 -15.2772,32.6475 -15.2772,36.1863 0,5.2866 2.7396,10.7674 6.4302,14.4788 7.6386,2.2873 13.4854,2.8267 21.7075,2.4167 l 2.4168,-0.8199 c 0.2588,-0.6042 0.9666,-2.5462 0.8285,-3.2152 l 0,-46.6299 c 0.1726,-0.6681 -0.5697,-2.611 -0.8285,-3.2151 l -2.4168,-0.7976"
       style="fill:#00559b;fill-opacity:1;fill-rule:nonzero;stroke:none"
       id="path4209"
       inkscape:connector-curvature="0" />
    <path
       d="m 1253.9008,-5707.6727 -41.8183,-26.5409 43.415,-28.1377 44.2141,28.1377 -41.7973,26.5409 -4.0135,0"
       style="fill:#00559b;fill-opacity:1;fill-rule:nonzero;stroke:none"
       id="path4211"
       inkscape:connector-curvature="0" />
    <path
       inkscape:connector-curvature="0"
       id="path4213"
       style="fill:#00559b;fill-opacity:1;fill-rule:nonzero;stroke:none"
       d="m 1425.13,-5694.8122 -57.0746,0 -2.4167,0.7975 c -0.259,0.6042 -0.9667,2.5462 -0.7941,3.2152 l 0,46.6299 0.7941,2.4168 2.4167,1.6174 57.0746,0 2.4167,-1.6174 1.6227,-2.4168 0,-46.6299 -1.6227,-3.2152 -2.4167,-0.7975" />
    <path
       inkscape:connector-curvature="0"
       id="path4215"
       style="fill:#00559b;fill-opacity:1;fill-rule:nonzero;stroke:none"
       d="m 1468.5449,-5610.3992 2.4167,-1.5968 0.8113,-2.4167 0,-76.386 -0.8113,-3.2151 c -0.6041,-0.259 -2.5462,-0.9702 -3.216,-0.7976 l -28.9351,0 -2.4168,0.7976 -1.6226,2.4167 0,77.1844 0.8113,2.4167 3.216,1.5968 29.7344,0" />
    <path
       inkscape:connector-curvature="0"
       id="path4217"
       style="fill:#00559b;fill-opacity:1;fill-rule:nonzero;stroke:none"
       d="m 1481.4261,-5694.8122 9.6461,0 3.2144,1.5967 c 2.0507,4.5962 15.2772,32.6475 15.2772,36.1863 0,5.2866 -2.7396,10.7674 -6.4303,14.4788 -7.6386,2.2873 -13.4854,2.8267 -21.7074,2.4167 l -2.4168,-0.8199 c -0.259,-0.6042 -0.9666,-2.5462 -0.8286,-3.2152 l 0,-46.6299 c -0.1725,-0.6681 0.5696,-2.611 0.8286,-3.2151 l 2.4168,-0.7976" />
    <path
       style="fill:#ffffff;fill-opacity:1;fill-rule:nonzero;stroke:none"
       d="m 1484.8906,-5594.3243 c 0.19,1.7283 -0.2942,3.579 -0.5362,5.2857 -1.348,9.4627 -10.2602,12.8324 -18.7722,13.1565 -4.8826,-2.074 -10.7813,-5.3358 -12.8985,-10.4777 l -41.8641,0 c -2.1172,5.1419 -8.0159,8.4037 -12.8985,10.4777 -8.512,-0.3241 -17.4242,-3.6938 -18.7722,-13.1565 -0.2421,-1.7067 -0.7262,-3.5574 -0.5362,-5.2857 z"
       id="path4219"
       inkscape:connector-curvature="0"
       sodipodi:nodetypes="ccccccccc" />
    <circle
       cy="-5799.7529"
       cx="1414.9448"
       id="circle4221"
       style="opacity:1;fill:#00559b;fill-opacity:1;stroke:none;stroke-width:2.4000001;stroke-linejoin:miter;stroke-miterlimit:4;stroke-dasharray:none;stroke-dashoffset:0;stroke-opacity:1"
       r="30.290001" />
    <circle
       style="opacity:1;fill:#ffffff;fill-opacity:1;stroke:none;stroke-width:2.4000001;stroke-linejoin:miter;stroke-miterlimit:4;stroke-dasharray:none;stroke-dashoffset:0;stroke-opacity:1"
       id="circle4223"
       cx="1414.9448"
       cy="-5799.7529"
       r="19.030001" />
    <rect
       y="-5365.2817"
       x="1049.4448"
       height="80"
       width="31.999996"
       id="rect4225"
       style="opacity:1;fill:#ffd70a;fill-opacity:1;stroke:none;stroke-width:25;stroke-linejoin:miter;stroke-miterlimit:4;stroke-dasharray:none;stroke-dashoffset:0;stroke-opacity:1" />
    <rect
       style="opacity:1;fill:#ffd70a;fill-opacity:1;stroke:none;stroke-width:25;stroke-linejoin:miter;stroke-miterlimit:4;stroke-dasharray:none;stroke-dashoffset:0;stroke-opacity:1"
       id="rect4227"
       width="31.999996"
       height="80"
       x="1049.4448"
       y="-5525.2817" />
    <rect
       style="opacity:1;fill:#ffd70a;fill-opacity:1;stroke:none;stroke-width:25;stroke-linejoin:miter;stroke-miterlimit:4;stroke-dasharray:none;stroke-dashoffset:0;stroke-opacity:1"
       id="rect4229"
       width="31.999996"
       height="80"
       x="1049.4448"
       y="-5685.2817" />
    <rect
       y="-5845.2817"
       x="1049.4448"
       height="80"
       width="31.999996"
       id="rect4232"
       style="opacity:1;fill:#ffd70a;fill-opacity:1;stroke:none;stroke-width:25;stroke-linejoin:miter;stroke-miterlimit:4;stroke-dasharray:none;stroke-dashoffset:0;stroke-opacity:1" />
  </g>
</svg>
