<?xml version="1.0" encoding="UTF-8" standalone="no"?>
<!-- Created with Inkscape (http://www.inkscape.org/) -->

<svg
   xmlns:dc="http://purl.org/dc/elements/1.1/"
   xmlns:cc="http://creativecommons.org/ns#"
   xmlns:rdf="http://www.w3.org/1999/02/22-rdf-syntax-ns#"
   xmlns:svg="http://www.w3.org/2000/svg"
   xmlns="http://www.w3.org/2000/svg"
   xmlns:sodipodi="http://sodipodi.sourceforge.net/DTD/sodipodi-0.dtd"
   xmlns:inkscape="http://www.inkscape.org/namespaces/inkscape"
   width="900"
   height="870"
   viewBox="0 0 238.12499 230.1875"
   version="1.1"
   id="svg866"
   inkscape:version="0.92.1 r15371"
   sodipodi:docname="66.svg">
  <defs
     id="defs860" />
  <sodipodi:namedview
     id="base"
     pagecolor="#ffffff"
     bordercolor="#666666"
     borderopacity="1.0"
     inkscape:pageopacity="0.0"
     inkscape:pageshadow="2"
     inkscape:zoom="0.7"
     inkscape:cx="586.42869"
     inkscape:cy="463.42696"
     inkscape:document-units="px"
     inkscape:current-layer="layer1"
     showgrid="false"
     units="px"
     fit-margin-top="0"
     fit-margin-left="0"
     fit-margin-right="0"
     fit-margin-bottom="0"
     inkscape:window-width="1920"
     inkscape:window-height="1057"
     inkscape:window-x="-8"
     inkscape:window-y="-8"
     inkscape:window-maximized="1" />
  <metadata
     id="metadata863">
    <rdf:RDF>
      <cc:Work
         rdf:about="">
        <dc:format>image/svg+xml</dc:format>
        <dc:type
           rdf:resource="http://purl.org/dc/dcmitype/StillImage" />
        <dc:title></dc:title>
      </cc:Work>
    </rdf:RDF>
  </metadata>
  <g
     inkscape:label="Layer 1"
     inkscape:groupmode="layer"
     id="layer1"
     transform="translate(-16.413328,-37.421986)">
    <rect
       style="fill:#00559b;fill-opacity:1;stroke:none;stroke-width:2.93688321;stroke-linejoin:round;stroke-miterlimit:4;stroke-dasharray:none;stroke-opacity:1"
       id="rect1411"
       width="238.125"
       height="230.1875"
       x="16.413328"
       y="37.421986" />
    <rect
       ry="15.875"
       rx="15.875"
       y="37.421986"
       x="16.413328"
       height="230.1875"
       width="238.125"
       id="rect10931"
       style="opacity:1;fill:#ffffff;fill-opacity:1;stroke:none;stroke-width:16.03814697;stroke-linecap:butt;stroke-linejoin:round;stroke-miterlimit:4;stroke-dasharray:none;stroke-dashoffset:0;stroke-opacity:1" />
    <rect
       ry="6.6145835"
       rx="6.6145835"
       y="46.6824"
       x="25.673746"
       height="211.66667"
       width="219.60417"
       id="rect10944"
       style="opacity:1;fill:#00559b;fill-opacity:1;stroke:none;stroke-width:15.79744053;stroke-linecap:butt;stroke-linejoin:round;stroke-miterlimit:4;stroke-dasharray:none;stroke-dashoffset:0;stroke-opacity:1" />
    <path
       inkscape:connector-curvature="0"
       id="path10970"
       style="fill:#ffffff;fill-opacity:1;fill-rule:evenodd;stroke:none;stroke-width:0.39095452"
       d="M 135.47583,67.319907 34.934161,237.97615 H 236.0175 Z"
       sodipodi:nodetypes="cccc" />
    <path
       d="M 45.173536,230.03865 H 64.647418 L 86.634062,201.77011 H 74.321539 Z"
       style="fill:#000000;fill-opacity:1;fill-rule:nonzero;stroke:none;stroke-width:0.81971729;stroke-linecap:butt;stroke-linejoin:miter;stroke-miterlimit:3.86400008;stroke-dasharray:none;stroke-opacity:1"
       id="path6382"
       inkscape:connector-curvature="0"
       sodipodi:nodetypes="ccccc" />
    <path
       d="m 106.20121,221.67358 -2.95153,8.36507 H 84.523344 l 16.244986,-28.26854 h 5.52806 l -2.2189,11.53841 c -0.0279,0.57279 -0.11207,1.18504 -0.11207,1.7679 0,2.70601 0.78107,4.40476 2.24243,6.59724 z"
       style="fill:#000000;fill-opacity:1;fill-rule:nonzero;stroke:none;stroke-width:0.81971729;stroke-linecap:butt;stroke-linejoin:miter;stroke-miterlimit:3.86400008;stroke-dasharray:none;stroke-opacity:1"
       id="path6384"
       inkscape:connector-curvature="0"
       sodipodi:nodetypes="ccccccscc" />
    <path
       sodipodi:nodetypes="ccccc"
       inkscape:connector-curvature="0"
       id="path14143"
       style="fill:#000000;fill-opacity:1;fill-rule:nonzero;stroke:none;stroke-width:0.81971729;stroke-linecap:butt;stroke-linejoin:miter;stroke-miterlimit:3.86400008;stroke-dasharray:none;stroke-opacity:1"
       d="M 225.77811,230.03865 H 206.30422 L 184.31758,201.77011 H 196.6301 Z" />
    <path
       sodipodi:nodetypes="ccccc"
       inkscape:connector-curvature="0"
       id="path14145"
       style="fill:#000000;fill-opacity:1;fill-rule:nonzero;stroke:none;stroke-width:0.81971729;stroke-linecap:butt;stroke-linejoin:miter;stroke-miterlimit:3.86400008;stroke-dasharray:none;stroke-opacity:1"
       d="m 167.70195,230.03865 h 18.72634 l -16.24498,-28.26854 h -10.61642 z" />
    <path
       d="m 117.95634,156.14955 3.42886,-17.85026 -8.51256,2.48609 -1.88212,24.46797 c -0.31743,0.28095 -1.27819,0.35678 -1.66585,0.35678 -0.76408,0 -1.88213,-0.16853 -2.59562,-0.47478 -1.7754,-0.80339 -3.30021,-3.25075 -3.19122,-5.2028 v -24.46799 l 27.30239,-16.32198 c 1.34841,-0.88209 3.47827,-1.6546 5.08373,-1.6546 h 1.89335 c 3.36956,0 8.22547,3.64684 9.22638,6.85769 l 8.75049,20.57337 10.87143,7.09561 c 1.12924,0.43543 2.47768,2.45803 2.47768,3.6668 v 1.17984 c 0,0.36519 -0.69387,2.14902 -1.06187,2.35969 l -19.74103,-4.84607 -5.20255,-6.49111 -2.71681,8.26581 z"
       style="fill:#000000;fill-opacity:1;fill-rule:nonzero;stroke:none;stroke-width:0.038622;stroke-linecap:butt;stroke-linejoin:miter;stroke-miterlimit:3.86400008;stroke-dasharray:none;stroke-opacity:1"
       id="path31408"
       inkscape:connector-curvature="0"
       sodipodi:nodetypes="ccccsccccsscccssccccc" />
    <path
       d="m 129.77921,177.01463 -14.657,45.16016 c -4.62806,0.22487 -8.51284,-2.86391 -8.51284,-7.6802 0,-0.41574 0.1685,-1.00007 0.22459,-1.41863 l 10.0474,-51.19591 h 20.92221 l 15.36981,28.84857 6.38212,29.90872 c -0.36521,0.32587 -2.97296,0.59556 -3.54768,0.59556 -3.85528,0 -7.50213,-2.95298 -8.74068,-6.50096 l -6.85797,-21.3956 z"
       style="fill:#000000;fill-opacity:1;fill-rule:nonzero;stroke:none;stroke-width:0.038622;stroke-linecap:butt;stroke-linejoin:miter;stroke-miterlimit:3.86400008;stroke-dasharray:none;stroke-opacity:1"
       id="path31410"
       inkscape:connector-curvature="0"
       sodipodi:nodetypes="ccscccccsccc" />
    <circle
       style="fill:#000000;fill-opacity:1;stroke:none;stroke-width:20.59066772;stroke-linecap:square;stroke-linejoin:round;stroke-miterlimit:4;stroke-dasharray:none;stroke-opacity:1;paint-order:normal"
       id="path33753"
       cx="140.25003"
       cy="105.97116"
       r="9.4228468" />
    <path
       sodipodi:nodetypes="ccccc"
       inkscape:connector-curvature="0"
       id="path8600"
       d="m 129.50802,201.77011 -3.45506,28.26854 h 18.8457 c -0.46726,-6.37712 -1.93655,-22.44767 -4.83706,-28.26854 z"
       style="fill:#000000;fill-opacity:1;fill-rule:evenodd;stroke:none;stroke-width:0.03769138;stroke-linecap:butt;stroke-linejoin:miter;stroke-miterlimit:3.86400008;stroke-dasharray:none;stroke-opacity:1" />
  </g>
</svg>
