<?xml version="1.0" encoding="UTF-8" standalone="no"?>
<!-- Created with Inkscape (http://www.inkscape.org/) -->

<svg
   xmlns:dc="http://purl.org/dc/elements/1.1/"
   xmlns:cc="http://creativecommons.org/ns#"
   xmlns:rdf="http://www.w3.org/1999/02/22-rdf-syntax-ns#"
   xmlns:svg="http://www.w3.org/2000/svg"
   xmlns="http://www.w3.org/2000/svg"
   xmlns:sodipodi="http://sodipodi.sourceforge.net/DTD/sodipodi-0.dtd"
   xmlns:inkscape="http://www.inkscape.org/namespaces/inkscape"
   width="900"
   height="870"
   viewBox="0 0 238.12499 230.1875"
   version="1.1"
   id="svg866"
   inkscape:version="0.92.1 r15371"
   sodipodi:docname="66.svg">
  <defs
     id="defs860" />
  <sodipodi:namedview
     id="base"
     pagecolor="#ffffff"
     bordercolor="#666666"
     borderopacity="1.0"
     inkscape:pageopacity="0.0"
     inkscape:pageshadow="2"
     inkscape:zoom="0.7"
     inkscape:cx="629.01094"
     inkscape:cy="412.66184"
     inkscape:document-units="px"
     inkscape:current-layer="layer1"
     showgrid="false"
     units="px"
     fit-margin-top="0"
     fit-margin-left="0"
     fit-margin-right="0"
     fit-margin-bottom="0"
     inkscape:window-width="1920"
     inkscape:window-height="1057"
     inkscape:window-x="-8"
     inkscape:window-y="-8"
     inkscape:window-maximized="1" />
  <metadata
     id="metadata863">
    <rdf:RDF>
      <cc:Work
         rdf:about="">
        <dc:format>image/svg+xml</dc:format>
        <dc:type
           rdf:resource="http://purl.org/dc/dcmitype/StillImage" />
        <dc:title></dc:title>
      </cc:Work>
    </rdf:RDF>
  </metadata>
  <g
     inkscape:label="Layer 1"
     inkscape:groupmode="layer"
     id="layer1"
     transform="translate(-16.413328,-37.421986)">
    <rect
       style="fill:#00559b;fill-opacity:1;stroke:none;stroke-width:2.93688321;stroke-linejoin:round;stroke-miterlimit:4;stroke-dasharray:none;stroke-opacity:1"
       id="rect1411"
       width="238.125"
       height="230.1875"
       x="16.413328"
       y="37.421986" />
    <rect
       ry="15.875"
       rx="15.875"
       y="37.421986"
       x="16.413328"
       height="230.1875"
       width="238.125"
       id="rect10931"
       style="opacity:1;fill:#ffffff;fill-opacity:1;stroke:none;stroke-width:16.03814697;stroke-linecap:butt;stroke-linejoin:round;stroke-miterlimit:4;stroke-dasharray:none;stroke-dashoffset:0;stroke-opacity:1" />
    <rect
       ry="6.6145835"
       rx="6.6145835"
       y="46.6824"
       x="25.673746"
       height="211.66667"
       width="219.60417"
       id="rect10944"
       style="opacity:1;fill:#00559b;fill-opacity:1;stroke:none;stroke-width:15.79744053;stroke-linecap:butt;stroke-linejoin:round;stroke-miterlimit:4;stroke-dasharray:none;stroke-dashoffset:0;stroke-opacity:1" />
    <path
       sodipodi:nodetypes="cccc"
       inkscape:connector-curvature="0"
       id="path4488"
       d="M 40.756161,232.15372 135.47579,68.094372 230.19549,232.1537 Z"
       style="fill:#e20a16;fill-opacity:1;stroke:#e20a16;stroke-width:11.64485168;stroke-linejoin:round;stroke-miterlimit:4;stroke-dasharray:none;stroke-opacity:1" />
    <path
       style="fill:#ffffff;fill-opacity:1;stroke:none;stroke-width:11.64485073;stroke-linejoin:round;stroke-miterlimit:4;stroke-dasharray:none;stroke-opacity:1"
       d="m 135.47586,91.384232 -74.550129,129.124528 149.100219,9e-5 z"
       id="rect5050"
       inkscape:connector-curvature="0"
       sodipodi:nodetypes="cccc" />
    <path
       d="m 68.517941,213.52194 h 14.43962 l 16.30279,-20.96073 h -9.12956 z"
       style="fill:#000000;fill-opacity:1;fill-rule:nonzero;stroke:none;stroke-width:0.60780907;stroke-linecap:butt;stroke-linejoin:miter;stroke-miterlimit:3.86400008;stroke-dasharray:none;stroke-opacity:1"
       id="path6382-9"
       inkscape:connector-curvature="0"
       sodipodi:nodetypes="ccccc" />
    <path
       d="m 113.76912,207.31935 -2.18851,6.20259 H 97.695281 l 12.045429,-20.96073 h 4.09898 l -1.64527,8.55557 c -0.0207,0.42472 -0.0831,0.87869 -0.0831,1.31087 0,2.00648 0.57916,3.26607 1.66274,4.89176 z"
       style="fill:#000000;fill-opacity:1;fill-rule:nonzero;stroke:none;stroke-width:0.60780907;stroke-linecap:butt;stroke-linejoin:miter;stroke-miterlimit:3.86400008;stroke-dasharray:none;stroke-opacity:1"
       id="path6384-6"
       inkscape:connector-curvature="0"
       sodipodi:nodetypes="ccccccscc" />
    <path
       sodipodi:nodetypes="ccccc"
       inkscape:connector-curvature="0"
       id="path14143-2"
       style="fill:#000000;fill-opacity:1;fill-rule:nonzero;stroke:none;stroke-width:0.60780907;stroke-linecap:butt;stroke-linejoin:miter;stroke-miterlimit:3.86400008;stroke-dasharray:none;stroke-opacity:1"
       d="m 202.43374,213.52194 h -14.43962 l -16.30279,-20.96073 h 9.12957 z" />
    <path
       sodipodi:nodetypes="ccccc"
       inkscape:connector-curvature="0"
       id="path14145-6"
       style="fill:#000000;fill-opacity:1;fill-rule:nonzero;stroke:none;stroke-width:0.60780907;stroke-linecap:butt;stroke-linejoin:miter;stroke-miterlimit:3.86400008;stroke-dasharray:none;stroke-opacity:1"
       d="m 159.37108,213.52194 h 13.88532 l -12.04543,-20.96073 h -7.87193 z" />
    <path
       d="m 122.48539,158.7342 2.54245,-13.23573 -6.31195,1.84341 -1.39556,18.14266 c -0.23537,0.20831 -0.94776,0.26454 -1.2352,0.26454 -0.56656,0 -1.39558,-0.12496 -1.92463,-0.35204 -1.31642,-0.5957 -2.44706,-2.41038 -2.36624,-3.85781 v -18.14267 l 20.24435,-12.10252 c 0.99982,-0.65406 2.57909,-1.22686 3.76951,-1.22686 h 1.4039 c 2.49849,0 6.09908,2.70408 6.84123,5.08487 l 6.48837,15.25487 8.06102,5.26131 c 0.83731,0.32286 1.83716,1.82259 1.83716,2.71887 v 0.87485 c 0,0.27078 -0.51449,1.59346 -0.78736,1.74967 l -14.6377,-3.59329 -3.85762,-4.81308 -2.01448,6.12899 z"
       style="fill:#000000;fill-opacity:1;fill-rule:nonzero;stroke:none;stroke-width:0.02863768;stroke-linecap:butt;stroke-linejoin:miter;stroke-miterlimit:3.86400008;stroke-dasharray:none;stroke-opacity:1"
       id="path31408-0"
       inkscape:connector-curvature="0"
       sodipodi:nodetypes="ccccsccccsscccssccccc" />
    <path
       d="m 131.25189,174.20537 -10.86797,33.48562 c -3.43164,0.16674 -6.31214,-2.12355 -6.31214,-5.69475 0,-0.30827 0.12493,-0.74154 0.16651,-1.0519 l 7.45002,-37.96105 h 15.51353 l 11.3965,21.39081 4.73225,22.1769 c -0.27079,0.24162 -2.2044,0.4416 -2.63055,0.4416 -2.85864,0 -5.56273,-2.18959 -6.48109,-4.82038 l -5.0851,-15.86453 z"
       style="fill:#000000;fill-opacity:1;fill-rule:nonzero;stroke:none;stroke-width:0.02863768;stroke-linecap:butt;stroke-linejoin:miter;stroke-miterlimit:3.86400008;stroke-dasharray:none;stroke-opacity:1"
       id="path31410-6"
       inkscape:connector-curvature="0"
       sodipodi:nodetypes="ccscccccsccc" />
    <circle
       style="fill:#000000;fill-opacity:1;stroke:none;stroke-width:15.26769543;stroke-linecap:square;stroke-linejoin:round;stroke-miterlimit:4;stroke-dasharray:none;stroke-opacity:1;paint-order:normal"
       id="path33753-0"
       cx="139.01585"
       cy="121.5276"
       r="6.9869108" />
    <path
       sodipodi:nodetypes="ccccc"
       inkscape:connector-curvature="0"
       id="path8600-5"
       d="m 131.05079,192.56121 -2.56187,20.96073 h 13.97383 c -0.34647,-4.72855 -1.43593,-16.64464 -3.58662,-20.96073 z"
       style="fill:#000000;fill-opacity:1;fill-rule:evenodd;stroke:none;stroke-width:0.02794764;stroke-linecap:butt;stroke-linejoin:miter;stroke-miterlimit:3.86400008;stroke-dasharray:none;stroke-opacity:1" />
  </g>
</svg>
