<?xml version="1.0" encoding="UTF-8" standalone="no"?>
<!-- Created with Inkscape (http://www.inkscape.org/) -->

<svg
   xmlns:dc="http://purl.org/dc/elements/1.1/"
   xmlns:cc="http://creativecommons.org/ns#"
   xmlns:rdf="http://www.w3.org/1999/02/22-rdf-syntax-ns#"
   xmlns:svg="http://www.w3.org/2000/svg"
   xmlns="http://www.w3.org/2000/svg"
   xmlns:sodipodi="http://sodipodi.sourceforge.net/DTD/sodipodi-0.dtd"
   xmlns:inkscape="http://www.inkscape.org/namespaces/inkscape"
   width="450"
   height="600"
   viewBox="0 0 450 600"
   id="svg2"
   version="1.1"
   inkscape:version="0.91 r13725"
   sodipodi:docname="SADC_road_sign_R403-600.svg">
  <defs
     id="defs4" />
  <sodipodi:namedview
     id="base"
     pagecolor="#ffffff"
     bordercolor="#666666"
     borderopacity="1.0"
     inkscape:pageopacity="0.0"
     inkscape:pageshadow="2"
     inkscape:zoom="0.95671488"
     inkscape:cx="-35.834262"
     inkscape:cy="198.21803"
     inkscape:document-units="px"
     inkscape:current-layer="layer1"
     showgrid="false"
     units="px"
     fit-margin-top="0"
     fit-margin-left="0"
     fit-margin-right="0"
     fit-margin-bottom="0"
     inkscape:window-width="1920"
     inkscape:window-height="1057"
     inkscape:window-x="-8"
     inkscape:window-y="-8"
     inkscape:window-maximized="1" />
  <metadata
     id="metadata7">
    <rdf:RDF>
      <cc:Work
         rdf:about="">
        <dc:format>image/svg+xml</dc:format>
        <dc:type
           rdf:resource="http://purl.org/dc/dcmitype/StillImage" />
        <dc:title></dc:title>
      </cc:Work>
    </rdf:RDF>
  </metadata>
  <g
     inkscape:label="Layer 1"
     inkscape:groupmode="layer"
     id="layer1"
     transform="translate(18.571428,786.20923)">
    <rect
       style="fill:#00559b;fill-opacity:1;stroke:none"
       id="rect4136"
       width="450"
       height="600"
       x="-18.571428"
       y="-786.20923" />
    <rect
       y="-786.20923"
       x="-18.571428"
       height="600"
       width="450"
       id="rect4138"
       style="fill:#e20a16;fill-opacity:1;stroke:none"
       rx="80"
       ry="80" />
    <rect
       y="-766.20923"
       x="1.4285583"
       height="560"
       width="410"
       id="rect4160"
       style="fill:#00559b;fill-opacity:1;stroke:none"
       rx="60"
       ry="60" />
    <path
       inkscape:connector-curvature="0"
       id="path13453"
       style="fill:#ffffff;fill-opacity:1;fill-rule:nonzero;stroke:none"
       d="m 302.05253,-329.57501 40.03899,2.37876 1.18187,16.12536 25.71446,17.35232 2.37975,2.97968 0.60094,3.58064 -0.60094,3.58063 -2.37975,2.37875 -2.97868,1.80283 -3.60567,0.57691 -2.98069,-1.17585 -33.45266,-14.34758 -2.40377,-10.14096 -1.18187,-2.40379 -1.80284,-1.77879 -2.40378,0 -2.37774,1.20189 -0.60094,0.5769 -11.34384,42.41677 -1.80284,3.58062 -2.40379,2.40379 -3.5556,0.57691 -3.60567,0 -3.57964,-1.7788 -2.37974,-2.97969 -0.60095,-3.58064 0,-3.00473 16.12539,-60.31992" />
    <path
       inkscape:connector-curvature="0"
       id="path13455"
       style="fill:#ffffff;fill-opacity:1;fill-rule:nonzero;stroke:none"
       d="m 301.45157,-336.73628 40.03901,2.37876 -1.80284,-22.71075 12.56978,7.16127 -1.80284,29.2961 0,1.77881 1.80284,2.40378 2.37774,1.17585 2.37976,0 3.00473,-1.17585 1.20188,-2.40378 4.15655,-32.25076 0,-3.58064 -1.78281,-3.60567 -2.37974,-2.97969 -23.3107,-19.10507 -0.60093,-0.60094 -3.58165,-1.80284 -4.18058,0 c -35.55594,4.88268 -36.25705,-2.50394 -46.02241,31.67485 l -13.14669,-4.18158 -2.97869,-0.60095 -2.98069,1.20189 -2.40378,2.97969 -0.60096,2.97969 0.60096,2.97969 1.7828,2.40379 1.20188,1.17584 22.11082,7.18632 3.00471,0.60095 3.57964,-1.20191 1.80284,-2.37874 5.35843,-7.78725 0.60094,8.98914" />
    <circle
       style="opacity:1;fill:#ffffff;fill-opacity:1;stroke:none;stroke-width:1.00171852;stroke-linejoin:miter;stroke-miterlimit:4;stroke-dasharray:none;stroke-dashoffset:0;stroke-opacity:1"
       id="path13466"
       cx="233.57854"
       cy="-266.03922"
       r="16.5" />
    <circle
       style="opacity:1;fill:#ffffff;fill-opacity:1;stroke:none;stroke-width:2;stroke-linejoin:miter;stroke-miterlimit:4;stroke-dasharray:none;stroke-dashoffset:0;stroke-opacity:1"
       id="path13477"
       cx="310.40854"
       cy="-405.51923"
       r="16.73" />
    <path
       style="fill:#ffffff;fill-opacity:1;fill-rule:nonzero;stroke:none"
       d="m 157.62855,-570.90888 c 45.17771,80.94267 125.24452,136.25587 217.39999,148.09443 l 0,-14.91766 c -82.62056,-10.53707 -158.5068,-61.4196 -200.68107,-133.17677 l -16.71892,0 z"
       id="path13531"
       inkscape:connector-curvature="0" />
    <path
       style="opacity:1;fill:#ffffff;fill-opacity:1;stroke:none;stroke-width:2;stroke-linejoin:miter;stroke-miterlimit:4;stroke-dasharray:none;stroke-dashoffset:0;stroke-opacity:1"
       d="m 184.52855,-576.30923 128.49999,0 0,-69.8 36,0 0,69.8 26,0 0,-91.36528 -95.25,-61.48293 -40.11705,25.8953 0,-10.94709 -27.64118,0 1e-5,28.78909 -27.49177,17.74563 z"
       id="rect13554"
       inkscape:connector-curvature="0"
       sodipodi:nodetypes="cccccccccccccc" />
    <path
       d="m 210.02855,-598.10923 70.99999,-0.2 0,-47.8 -70.99999,0 z"
       style="fill:#00559b;fill-opacity:1;fill-rule:nonzero;stroke:none"
       id="path13628"
       inkscape:connector-curvature="0"
       sodipodi:nodetypes="ccccc" />
    <path
       style="fill:#ffffff;fill-opacity:1;fill-rule:nonzero;stroke:none"
       d="m 72.373307,-649.80859 c -23.8088,-0.0771 -20.27317,4.90526 -27.6455,41.55365 -1.21281,3.41202 -1.48769,2.94882 -3.87433,5.07348 l -1.16335,0.83673 -1.011,1.35029 -0.51012,1.35034 -0.34046,1.69307 0,30.01785 104.000003,0 0,-30.01785 -0.34049,-1.69307 -0.51007,-1.35034 -1.01103,-1.35029 -1.16333,-0.83673 c -2.38661,-2.12466 -2.66151,-1.66146 -3.87435,-5.07348 -7.37235,-36.64839 -3.83671,-41.63075 -27.64549,-41.55365 z"
       id="path11256"
       inkscape:connector-curvature="0"
       sodipodi:nodetypes="ccccccccccccccccc" />
    <path
       style="fill:#ffffff;fill-opacity:1;fill-rule:nonzero;stroke:none"
       d="m 141.78447,-560.85922 c 0.38994,4.08693 -1.82389,7.2525 -6.0603,7.24 l 0,18.41 -18.33547,0 0,-18.41 -55.120353,0 0,18.41 -18.33548,0 0,-18.41 c -4.2364,0.0126 -6.45021,-3.15307 -6.06027,-7.24 z"
       id="path11262"
       inkscape:connector-curvature="0"
       sodipodi:nodetypes="ccccccccccc" />
    <path
       style="fill:#00559b;fill-opacity:1;fill-rule:nonzero;stroke:none"
       d="m 54.378547,-607.74946 c 9.22161,-37.97002 -1.65906,-31.56616 35.44999,-31.81569 37.109073,0.24953 26.228393,-6.15433 35.450013,31.81569 z"
       id="path11264"
       inkscape:connector-curvature="0"
       sodipodi:nodetypes="cccc" />
    <circle
       style="opacity:1;fill:#00559b;fill-opacity:1;stroke:none;stroke-width:2;stroke-linejoin:miter;stroke-miterlimit:4;stroke-dasharray:none;stroke-dashoffset:0;stroke-opacity:1"
       id="path13718"
       cx="60.238556"
       cy="-585.08319"
       r="7.4699998" />
    <path
       d="m 67.375247,-378.87862 7.02382,-36.56518 -17.43747,5.09262 -3.8554,50.12111 c -0.65025,0.57552 -2.61828,0.73085 -3.41238,0.73085 -1.56519,0 -3.85543,-0.34523 -5.317,-0.97257 -3.63676,-1.64569 -6.76025,-6.65895 -6.53699,-10.65761 l 0,-50.12119 55.92727,-33.43457 c 2.76213,-1.80689 7.125033,-3.38931 10.413693,-3.38931 l 3.87845,0 c 6.90234,0 16.84936,7.47028 18.89966,14.04752 l 17.92486,42.14331 22.26943,14.53494 c 2.31318,0.89195 5.07536,5.03511 5.07536,7.51118 l 0,2.41685 c 0,0.74806 -1.42133,4.40211 -2.17515,4.83367 l -40.43828,-9.92686 -10.65712,-13.29664 -5.56523,16.93199 z"
       style="fill:#ffffff;fill-opacity:1;fill-rule:nonzero;stroke:none;stroke-width:0.02928053;stroke-linecap:butt;stroke-linejoin:miter;stroke-miterlimit:3.86400008;stroke-dasharray:none;stroke-opacity:1"
       id="path31408"
       inkscape:connector-curvature="0"
       sodipodi:nodetypes="ccccsccccsscccssccccc" />
    <path
       d="m 91.590547,-336.14056 -30.02396,92.50776 c -9.48031,0.46066 -17.43804,-5.86655 -17.43804,-15.7324 0,-0.85163 0.34518,-2.04857 0.46007,-2.90598 l 20.58149,-104.87164 42.857863,0 31.48412,59.0945 13.07337,61.26617 c -0.74809,0.66752 -6.08986,1.21996 -7.26719,1.21996 -7.89731,0 -15.36766,-6.04898 -17.90475,-13.31682 l -14.04813,-43.82756 z"
       style="fill:#ffffff;fill-opacity:1;fill-rule:nonzero;stroke:none;stroke-width:0.02928053;stroke-linecap:butt;stroke-linejoin:miter;stroke-miterlimit:3.86400008;stroke-dasharray:none;stroke-opacity:1"
       id="path31410"
       inkscape:connector-curvature="0"
       sodipodi:nodetypes="ccscccccsccc" />
    <circle
       style="fill:#ffffff;fill-opacity:1;stroke:none;stroke-width:15.61041641;stroke-linecap:square;stroke-linejoin:round;stroke-miterlimit:4;stroke-dasharray:none;stroke-opacity:1;paint-order:normal"
       id="path33753"
       cx="113.02853"
       cy="-481.70923"
       r="19.299999" />
    <circle
       r="7.4699998"
       cy="-585.08319"
       cx="119.41855"
       id="circle24570"
       style="opacity:1;fill:#00559b;fill-opacity:1;stroke:none;stroke-width:2;stroke-linejoin:miter;stroke-miterlimit:4;stroke-dasharray:none;stroke-dashoffset:0;stroke-opacity:1" />
  </g>
</svg>
