<?xml version="1.0" encoding="UTF-8" standalone="no"?>
<!-- Created with Inkscape (http://www.inkscape.org/) -->

<svg
   xmlns:dc="http://purl.org/dc/elements/1.1/"
   xmlns:cc="http://creativecommons.org/ns#"
   xmlns:rdf="http://www.w3.org/1999/02/22-rdf-syntax-ns#"
   xmlns:svg="http://www.w3.org/2000/svg"
   xmlns="http://www.w3.org/2000/svg"
   xmlns:sodipodi="http://sodipodi.sourceforge.net/DTD/sodipodi-0.dtd"
   xmlns:inkscape="http://www.inkscape.org/namespaces/inkscape"
   width="900"
   height="340"
   viewBox="0 0 238.12498 89.958336"
   version="1.1"
   id="svg8"
   inkscape:version="0.92.1 r15371"
   sodipodi:docname="11.svg">
  <defs
     id="defs2" />
  <sodipodi:namedview
     id="base"
     pagecolor="#ffffff"
     bordercolor="#666666"
     borderopacity="1.0"
     inkscape:pageopacity="0.0"
     inkscape:pageshadow="2"
     inkscape:zoom="1"
     inkscape:cx="299.07605"
     inkscape:cy="137.75605"
     inkscape:document-units="px"
     inkscape:current-layer="layer1"
     showgrid="false"
     units="px"
     fit-margin-top="0"
     fit-margin-left="0"
     fit-margin-right="0"
     fit-margin-bottom="0"
     inkscape:window-width="1920"
     inkscape:window-height="1057"
     inkscape:window-x="-8"
     inkscape:window-y="-8"
     inkscape:window-maximized="1" />
  <metadata
     id="metadata5">
    <rdf:RDF>
      <cc:Work
         rdf:about="">
        <dc:format>image/svg+xml</dc:format>
        <dc:type
           rdf:resource="http://purl.org/dc/dcmitype/StillImage" />
        <dc:title></dc:title>
      </cc:Work>
    </rdf:RDF>
  </metadata>
  <g
     inkscape:label="Layer 1"
     inkscape:groupmode="layer"
     id="layer1"
     transform="translate(-38.181377,-71.660329)">
    <rect
       style="fill:#ffffff;fill-opacity:1;stroke:none;stroke-width:0.12757738"
       id="rect10"
       width="238.125"
       height="89.958336"
       x="38.181377"
       y="71.660324" />
    <rect
       y="71.660324"
       x="38.181377"
       height="89.958336"
       width="238.125"
       id="rect12"
       style="fill:#e20a16;fill-opacity:1;stroke:none;stroke-width:0.12757738"
       rx="21.166666"
       ry="21.166666" />
    <rect
       ry="10.583333"
       rx="10.583333"
       style="fill:#ffffff;fill-opacity:1;stroke:none;stroke-width:0.10648944"
       id="rect8693"
       width="216.95833"
       height="68.791664"
       x="48.764709"
       y="82.243675" />
    <g
       aria-label="06:00-09:00"
       style="font-style:normal;font-variant:normal;font-weight:normal;font-stretch:normal;font-size:51.16252136px;line-height:1.25;font-family:'DIN 1451 Std';-inkscape-font-specification:'DIN 1451 Std';letter-spacing:0px;word-spacing:0px;fill:#000000;fill-opacity:1;stroke:none;stroke-width:1.37042475"
       id="text4499"
       transform="translate(6.6756124,-100.54165)">
      <path
         d="m 56.773472,206.48818 q 0,-1.84185 0.61395,-3.2744 0.665113,-1.43255 1.739526,-2.4558 1.074413,-1.02325 2.455801,-1.53488 1.43255,-0.56279 2.967426,-0.56279 1.534876,0 2.916264,0.56279 1.43255,0.51163 2.506963,1.53488 1.074413,1.02325 1.688364,2.4558 0.665112,1.43255 0.665112,3.2744 v 21.38593 q 0,1.84185 -0.665112,3.2744 -0.613951,1.43255 -1.688364,2.4558 -1.074413,1.02325 -2.506963,1.58604 -1.381388,0.51163 -2.916264,0.51163 -1.534876,0 -2.967426,-0.51163 -1.381388,-0.56279 -2.455801,-1.58604 -1.074413,-1.02325 -1.739526,-2.4558 -0.61395,-1.43255 -0.61395,-3.2744 z m 5.218577,21.38593 q 0,1.12558 0.716275,1.89302 0.716276,0.71627 1.841851,0.71627 1.125576,0 1.841851,-0.71627 0.716275,-0.76744 0.716275,-1.89302 v -21.38593 q 0,-1.12558 -0.716275,-1.84185 -0.716275,-0.76744 -1.841851,-0.76744 -1.125575,0 -1.841851,0.76744 -0.716275,0.71627 -0.716275,1.84185 z"
         style="font-style:normal;font-variant:normal;font-weight:normal;font-stretch:normal;font-family:'DIN 1451 Std';-inkscape-font-specification:'DIN 1451 Std';fill:#000000;stroke-width:1.37042475"
         id="path4525"
         inkscape:connector-curvature="0" />
      <path
         d="m 83.485104,214.26488 0.102325,0.10233 q 0.255813,-0.20465 0.767438,-0.30698 0.562788,-0.15349 1.432551,-0.15349 1.381388,0 2.558126,0.66512 1.176738,0.66511 1.841851,1.68836 0.358137,0.56279 0.562787,1.12557 0.20465,0.56279 0.306975,1.48372 0.153488,0.92092 0.20465,2.35347 0.05116,1.38139 0.05116,3.53022 0,1.79069 -0.05116,2.96742 -0.05116,1.12558 -0.20465,1.94418 -0.102325,0.76744 -0.358137,1.33023 -0.20465,0.56278 -0.562788,1.17673 -1.02325,1.68837 -2.762776,2.60929 -1.688363,0.92093 -3.837189,0.92093 -2.148826,0 -3.837189,-0.92093 -1.688364,-0.97209 -2.711614,-2.60929 -0.4093,-0.61395 -0.665113,-1.17673 -0.20465,-0.56279 -0.358137,-1.33023 -0.102325,-0.8186 -0.153488,-1.94418 -0.05116,-1.17673 -0.05116,-2.96742 0,-1.68837 0.05116,-2.76278 0.05116,-1.12557 0.153488,-1.89301 0.102325,-0.8186 0.306975,-1.43255 0.20465,-0.66511 0.460462,-1.38139 l 6.855778,-18.31618 h 5.832528 z m 2.609289,6.85578 q 0,-1.17674 -0.767438,-1.89301 -0.767438,-0.71628 -1.790688,-0.71628 -1.023251,0 -1.790688,0.71628 -0.767438,0.71627 -0.767438,1.89301 v 6.75345 q 0,1.17674 0.767438,1.89302 0.767437,0.71627 1.790688,0.71627 1.02325,0 1.790688,-0.71627 0.767438,-0.71628 0.767438,-1.89302 z"
         style="font-style:normal;font-variant:normal;font-weight:normal;font-stretch:normal;font-family:'DIN 1451 Std';-inkscape-font-specification:'DIN 1451 Std';fill:#000000;stroke-width:1.37042475"
         id="path4527"
         inkscape:connector-curvature="0" />
      <path
         d="m 95.154955,225.19175 h 5.218575 v 5.21857 h -5.218575 z m 0,-11.6139 h 5.218575 v 5.21858 h -5.218575 z"
         style="font-style:normal;font-variant:normal;font-weight:normal;font-stretch:normal;font-family:'DIN 1451 Std';-inkscape-font-specification:'DIN 1451 Std';fill:#000000;stroke-width:1.37042475"
         id="path4529"
         inkscape:connector-curvature="0" />
      <path
         d="m 104.33863,206.48818 q 0,-1.84185 0.61395,-3.2744 0.66511,-1.43255 1.73952,-2.4558 1.07442,-1.02325 2.4558,-1.53488 1.43256,-0.56279 2.96743,-0.56279 1.53488,0 2.91626,0.56279 1.43255,0.51163 2.50697,1.53488 1.07441,1.02325 1.68836,2.4558 0.66511,1.43255 0.66511,3.2744 v 21.38593 q 0,1.84185 -0.66511,3.2744 -0.61395,1.43255 -1.68836,2.4558 -1.07442,1.02325 -2.50697,1.58604 -1.38138,0.51163 -2.91626,0.51163 -1.53487,0 -2.96743,-0.51163 -1.38138,-0.56279 -2.4558,-1.58604 -1.07441,-1.02325 -1.73952,-2.4558 -0.61395,-1.43255 -0.61395,-3.2744 z m 5.21857,21.38593 q 0,1.12558 0.71628,1.89302 0.71628,0.71627 1.84185,0.71627 1.12558,0 1.84185,-0.71627 0.71628,-0.76744 0.71628,-1.89302 v -21.38593 q 0,-1.12558 -0.71628,-1.84185 -0.71627,-0.76744 -1.84185,-0.76744 -1.12557,0 -1.84185,0.76744 -0.71628,0.71627 -0.71628,1.84185 z"
         style="font-style:normal;font-variant:normal;font-weight:normal;font-stretch:normal;font-family:'DIN 1451 Std';-inkscape-font-specification:'DIN 1451 Std';fill:#000000;stroke-width:1.37042475"
         id="path4531"
         inkscape:connector-curvature="0" />
      <path
         d="m 123.32472,206.48818 q 0,-1.84185 0.61395,-3.2744 0.66511,-1.43255 1.73953,-2.4558 1.07441,-1.02325 2.4558,-1.53488 1.43255,-0.56279 2.96742,-0.56279 1.53488,0 2.91627,0.56279 1.43255,0.51163 2.50696,1.53488 1.07441,1.02325 1.68837,2.4558 0.66511,1.43255 0.66511,3.2744 v 21.38593 q 0,1.84185 -0.66511,3.2744 -0.61396,1.43255 -1.68837,2.4558 -1.07441,1.02325 -2.50696,1.58604 -1.38139,0.51163 -2.91627,0.51163 -1.53487,0 -2.96742,-0.51163 -1.38139,-0.56279 -2.4558,-1.58604 -1.07442,-1.02325 -1.73953,-2.4558 -0.61395,-1.43255 -0.61395,-3.2744 z m 5.21858,21.38593 q 0,1.12558 0.71627,1.89302 0.71628,0.71627 1.84185,0.71627 1.12558,0 1.84186,-0.71627 0.71627,-0.76744 0.71627,-1.89302 v -21.38593 q 0,-1.12558 -0.71627,-1.84185 -0.71628,-0.76744 -1.84186,-0.76744 -1.12557,0 -1.84185,0.76744 -0.71627,0.71627 -0.71627,1.84185 z"
         style="font-style:normal;font-variant:normal;font-weight:normal;font-stretch:normal;font-family:'DIN 1451 Std';-inkscape-font-specification:'DIN 1451 Std';fill:#000000;stroke-width:1.37042475"
         id="path4533"
         inkscape:connector-curvature="0" />
      <path
         d="m 142.80365,219.37092 h 15.39992 v 5.21857 h -15.39992 z"
         style="font-style:normal;font-variant:normal;font-weight:normal;font-stretch:normal;font-family:'DIN 1451 Std';-inkscape-font-specification:'DIN 1451 Std';fill:#000000;stroke-width:1.37042475"
         id="path4535"
         inkscape:connector-curvature="0" />
      <path
         d="m 162.25833,206.48818 q 0,-1.84185 0.61395,-3.2744 0.66512,-1.43255 1.73953,-2.4558 1.07441,-1.02325 2.4558,-1.53488 1.43255,-0.56279 2.96743,-0.56279 1.53487,0 2.91626,0.56279 1.43255,0.51163 2.50696,1.53488 1.07442,1.02325 1.68837,2.4558 0.66511,1.43255 0.66511,3.2744 v 21.38593 q 0,1.84185 -0.66511,3.2744 -0.61395,1.43255 -1.68837,2.4558 -1.07441,1.02325 -2.50696,1.58604 -1.38139,0.51163 -2.91626,0.51163 -1.53488,0 -2.96743,-0.51163 -1.38139,-0.56279 -2.4558,-1.58604 -1.07441,-1.02325 -1.73953,-2.4558 -0.61395,-1.43255 -0.61395,-3.2744 z m 5.21858,21.38593 q 0,1.12558 0.71627,1.89302 0.71628,0.71627 1.84186,0.71627 1.12557,0 1.84185,-0.71627 0.71627,-0.76744 0.71627,-1.89302 v -21.38593 q 0,-1.12558 -0.71627,-1.84185 -0.71628,-0.76744 -1.84185,-0.76744 -1.12558,0 -1.84186,0.76744 -0.71627,0.71627 -0.71627,1.84185 z"
         style="font-style:normal;font-variant:normal;font-weight:normal;font-stretch:normal;font-family:'DIN 1451 Std';-inkscape-font-specification:'DIN 1451 Std';fill:#000000;stroke-width:1.37042475"
         id="path4537"
         inkscape:connector-curvature="0" />
      <path
         d="m 189.07229,220.09741 -0.10233,-0.10233 q -0.25581,0.20465 -0.8186,0.35814 -0.51162,0.10233 -1.38138,0.10233 -1.38139,0 -2.55813,-0.66512 -1.17674,-0.66511 -1.84185,-1.68836 -0.35814,-0.51162 -0.56279,-1.07441 -0.20465,-0.61395 -0.35814,-1.53488 -0.10232,-0.92092 -0.15348,-2.30231 -0.0512,-1.43255 -0.0512,-3.58138 0,-1.79069 0.0512,-2.91626 0.0512,-1.17674 0.15348,-1.94418 0.15349,-0.8186 0.35814,-1.38139 0.25581,-0.56278 0.61395,-1.17673 1.02325,-1.68837 2.71162,-2.60929 1.73952,-0.92093 3.88835,-0.92093 2.14882,0 3.83719,0.97209 1.68836,0.92093 2.71161,2.55813 0.35814,0.61395 0.61395,1.17673 0.25581,0.56279 0.35814,1.38139 0.15349,0.76744 0.20465,1.94418 0.0512,1.12557 0.0512,2.91626 0,1.68836 -0.0512,2.81394 -0.0512,1.07441 -0.20465,1.89301 -0.10233,0.76744 -0.30698,1.43255 -0.15348,0.61395 -0.4093,1.33023 l -6.85578,18.31618 h -5.83252 z m -2.60929,-6.85578 q 0,1.17674 0.76744,1.89301 0.76744,0.71628 1.79069,0.71628 1.02325,0 1.79069,-0.71628 0.76743,-0.71627 0.76743,-1.89301 v -6.75345 q 0,-1.17674 -0.76743,-1.89302 -0.76744,-0.71627 -1.79069,-0.71627 -1.02325,0 -1.79069,0.71627 -0.76744,0.71628 -0.76744,1.89302 z"
         style="font-style:normal;font-variant:normal;font-weight:normal;font-stretch:normal;font-family:'DIN 1451 Std';-inkscape-font-specification:'DIN 1451 Std';fill:#000000;stroke-width:1.37042475"
         id="path4539"
         inkscape:connector-curvature="0" />
      <path
         d="m 200.63982,225.19175 h 5.21858 v 5.21857 h -5.21858 z m 0,-11.6139 h 5.21858 v 5.21858 h -5.21858 z"
         style="font-style:normal;font-variant:normal;font-weight:normal;font-stretch:normal;font-family:'DIN 1451 Std';-inkscape-font-specification:'DIN 1451 Std';fill:#000000;stroke-width:1.37042475"
         id="path4541"
         inkscape:connector-curvature="0" />
      <path
         d="m 209.82349,206.48818 q 0,-1.84185 0.61396,-3.2744 0.66511,-1.43255 1.73952,-2.4558 1.07441,-1.02325 2.4558,-1.53488 1.43255,-0.56279 2.96743,-0.56279 1.53487,0 2.91626,0.56279 1.43255,0.51163 2.50697,1.53488 1.07441,1.02325 1.68836,2.4558 0.66511,1.43255 0.66511,3.2744 v 21.38593 q 0,1.84185 -0.66511,3.2744 -0.61395,1.43255 -1.68836,2.4558 -1.07442,1.02325 -2.50697,1.58604 -1.38139,0.51163 -2.91626,0.51163 -1.53488,0 -2.96743,-0.51163 -1.38139,-0.56279 -2.4558,-1.58604 -1.07441,-1.02325 -1.73952,-2.4558 -0.61396,-1.43255 -0.61396,-3.2744 z m 5.21858,21.38593 q 0,1.12558 0.71628,1.89302 0.71627,0.71627 1.84185,0.71627 1.12557,0 1.84185,-0.71627 0.71627,-0.76744 0.71627,-1.89302 v -21.38593 q 0,-1.12558 -0.71627,-1.84185 -0.71628,-0.76744 -1.84185,-0.76744 -1.12558,0 -1.84185,0.76744 -0.71628,0.71627 -0.71628,1.84185 z"
         style="font-style:normal;font-variant:normal;font-weight:normal;font-stretch:normal;font-family:'DIN 1451 Std';-inkscape-font-specification:'DIN 1451 Std';fill:#000000;stroke-width:1.37042475"
         id="path4543"
         inkscape:connector-curvature="0" />
      <path
         d="m 228.80958,206.48818 q 0,-1.84185 0.61395,-3.2744 0.66511,-1.43255 1.73952,-2.4558 1.07442,-1.02325 2.45581,-1.53488 1.43255,-0.56279 2.96742,-0.56279 1.53488,0 2.91627,0.56279 1.43255,0.51163 2.50696,1.53488 1.07441,1.02325 1.68836,2.4558 0.66512,1.43255 0.66512,3.2744 v 21.38593 q 0,1.84185 -0.66512,3.2744 -0.61395,1.43255 -1.68836,2.4558 -1.07441,1.02325 -2.50696,1.58604 -1.38139,0.51163 -2.91627,0.51163 -1.53487,0 -2.96742,-0.51163 -1.38139,-0.56279 -2.45581,-1.58604 -1.07441,-1.02325 -1.73952,-2.4558 -0.61395,-1.43255 -0.61395,-3.2744 z m 5.21858,21.38593 q 0,1.12558 0.71627,1.89302 0.71628,0.71627 1.84185,0.71627 1.12558,0 1.84185,-0.71627 0.71628,-0.76744 0.71628,-1.89302 v -21.38593 q 0,-1.12558 -0.71628,-1.84185 -0.71627,-0.76744 -1.84185,-0.76744 -1.12557,0 -1.84185,0.76744 -0.71627,0.71627 -0.71627,1.84185 z"
         style="font-style:normal;font-variant:normal;font-weight:normal;font-stretch:normal;font-family:'DIN 1451 Std';-inkscape-font-specification:'DIN 1451 Std';fill:#000000;stroke-width:1.37042475"
         id="path4545"
         inkscape:connector-curvature="0" />
    </g>
    <g
       transform="matrix(-1,0,0,1,7.0419068,100.54166)"
       id="g4523"
       style="font-style:normal;font-variant:normal;font-weight:normal;font-stretch:normal;font-size:51.16252136px;line-height:0;font-family:'DIN 1451 Std';-inkscape-font-specification:'DIN 1451 Std';letter-spacing:0px;word-spacing:0px;fill:#d40000;fill-opacity:1;stroke:none;stroke-width:1.37042475"
       aria-label="06:00-09:00" />
  </g>
</svg>
