<?xml version="1.0" encoding="UTF-8" standalone="no"?>
<!-- Created with Inkscape (http://www.inkscape.org/) -->

<svg
   xmlns:dc="http://purl.org/dc/elements/1.1/"
   xmlns:cc="http://creativecommons.org/ns#"
   xmlns:rdf="http://www.w3.org/1999/02/22-rdf-syntax-ns#"
   xmlns:svg="http://www.w3.org/2000/svg"
   xmlns="http://www.w3.org/2000/svg"
   xmlns:sodipodi="http://sodipodi.sourceforge.net/DTD/sodipodi-0.dtd"
   xmlns:inkscape="http://www.inkscape.org/namespaces/inkscape"
   width="900"
   height="540"
   viewBox="0 0 238.12499 142.87501"
   version="1.1"
   id="svg8"
   inkscape:version="0.92.1 r15371"
   sodipodi:docname="11.svg">
  <defs
     id="defs2" />
  <sodipodi:namedview
     id="base"
     pagecolor="#ffffff"
     bordercolor="#666666"
     borderopacity="1.0"
     inkscape:pageopacity="0.0"
     inkscape:pageshadow="2"
     inkscape:zoom="0.86718751"
     inkscape:cx="397.66992"
     inkscape:cy="224.32156"
     inkscape:document-units="px"
     inkscape:current-layer="layer1"
     showgrid="false"
     units="px"
     fit-margin-top="0"
     fit-margin-left="0"
     fit-margin-right="0"
     fit-margin-bottom="0"
     inkscape:window-width="1920"
     inkscape:window-height="1057"
     inkscape:window-x="-8"
     inkscape:window-y="-8"
     inkscape:window-maximized="1"
     inkscape:snap-global="false" />
  <metadata
     id="metadata5">
    <rdf:RDF>
      <cc:Work
         rdf:about="">
        <dc:format>image/svg+xml</dc:format>
        <dc:type
           rdf:resource="http://purl.org/dc/dcmitype/StillImage" />
        <dc:title></dc:title>
      </cc:Work>
    </rdf:RDF>
  </metadata>
  <g
     inkscape:label="Layer 1"
     inkscape:groupmode="layer"
     id="layer1"
     transform="translate(-545.57159,330.98029)">
    <rect
       style="fill:#ffffff;fill-opacity:1;stroke:none;stroke-width:0.16077965"
       id="rect10"
       width="238.125"
       height="142.875"
       x="545.57159"
       y="-330.98029" />
    <rect
       y="-330.98029"
       x="545.57159"
       height="142.875"
       width="238.125"
       id="rect12"
       style="fill:#e20a16;fill-opacity:1;stroke:none;stroke-width:0.16077967"
       rx="21.166666"
       ry="21.166666" />
    <rect
       ry="10.583333"
       rx="10.583333"
       style="fill:#ffffff;fill-opacity:1;stroke:none;stroke-width:0.14164419"
       id="rect8693"
       width="216.95833"
       height="121.70834"
       x="556.15497"
       y="-320.39694" />
    <flowRoot
       xml:space="preserve"
       id="flowRoot14458"
       style="font-style:normal;font-weight:normal;font-size:37.33333206px;line-height:1.25;font-family:sans-serif;letter-spacing:0px;word-spacing:0px;fill:#000000;fill-opacity:1;stroke:none"
       transform="matrix(0.26458334,0,0,0.26458334,332.87915,-130.07065)"><flowRegion
         id="flowRegion14460"><rect
           id="rect14462"
           width="1209.6576"
           height="530.45044"
           x="-187.96396"
           y="85.657661" /></flowRegion><flowPara
         id="flowPara14464"></flowPara></flowRoot>    <g
       aria-label="07:00-09:00"
       style="font-style:normal;font-variant:normal;font-weight:normal;font-stretch:normal;font-size:51.16252518px;line-height:1.25;font-family:'DIN 1451 Std';-inkscape-font-specification:'DIN 1451 Std';letter-spacing:0px;word-spacing:0px;fill:#000000;fill-opacity:1;stroke:none;stroke-width:1.37042475"
       id="text14501"
       transform="translate(8.8095988,-17.097448)">
      <path
         d="m 562.0297,-279.59663 q 0,-1.84185 0.61395,-3.2744 0.66512,-1.43255 1.73953,-2.4558 1.07441,-1.02325 2.4558,-1.53487 1.43255,-0.56279 2.96743,-0.56279 1.53487,0 2.91626,0.56279 1.43255,0.51162 2.50696,1.53487 1.07442,1.02325 1.68837,2.4558 0.66511,1.43255 0.66511,3.2744 v 21.38594 q 0,1.84185 -0.66511,3.2744 -0.61395,1.43255 -1.68837,2.4558 -1.07441,1.02325 -2.50696,1.58604 -1.38139,0.51163 -2.91626,0.51163 -1.53488,0 -2.96743,-0.51163 -1.38139,-0.56279 -2.4558,-1.58604 -1.07441,-1.02325 -1.73953,-2.4558 -0.61395,-1.43255 -0.61395,-3.2744 z m 5.21858,21.38594 q 0,1.12558 0.71627,1.89301 0.71628,0.71628 1.84186,0.71628 1.12557,0 1.84185,-0.71628 0.71627,-0.76743 0.71627,-1.89301 v -21.38594 q 0,-1.12557 -0.71627,-1.84185 -0.71628,-0.76743 -1.84185,-0.76743 -1.12558,0 -1.84186,0.76743 -0.71627,0.71628 -0.71627,1.84185 z"
         style="font-style:normal;font-variant:normal;font-weight:normal;font-stretch:normal;font-family:'DIN 1451 Std';-inkscape-font-specification:'DIN 1451 Std';fill:#000000;fill-opacity:1;stroke:none;stroke-width:1.37042475"
         id="path14563"
         inkscape:connector-curvature="0" />
      <path
         d="m 591.35063,-282.20591 h -5.73021 v 4.19532 h -4.60462 v -9.10693 h 15.5534 v 5.21858 l -8.85111,31.20914 h -5.52556 z"
         style="font-style:normal;font-variant:normal;font-weight:normal;font-stretch:normal;font-family:'DIN 1451 Std';-inkscape-font-specification:'DIN 1451 Std';fill:#000000;fill-opacity:1;stroke:none;stroke-width:1.37042475"
         id="path14565"
         inkscape:connector-curvature="0" />
      <path
         d="m 600.41119,-260.89307 h 5.21858 v 5.21858 h -5.21858 z m 0,-11.61389 h 5.21858 v 5.21858 h -5.21858 z"
         style="font-style:normal;font-variant:normal;font-weight:normal;font-stretch:normal;font-family:'DIN 1451 Std';-inkscape-font-specification:'DIN 1451 Std';fill:#000000;fill-opacity:1;stroke:none;stroke-width:1.37042475"
         id="path14567"
         inkscape:connector-curvature="0" />
      <path
         d="m 609.59486,-279.59663 q 0,-1.84185 0.61395,-3.2744 0.66512,-1.43255 1.73953,-2.4558 1.07441,-1.02325 2.4558,-1.53487 1.43255,-0.56279 2.96743,-0.56279 1.53487,0 2.91626,0.56279 1.43255,0.51162 2.50697,1.53487 1.07441,1.02325 1.68836,2.4558 0.66511,1.43255 0.66511,3.2744 v 21.38594 q 0,1.84185 -0.66511,3.2744 -0.61395,1.43255 -1.68836,2.4558 -1.07442,1.02325 -2.50697,1.58604 -1.38139,0.51163 -2.91626,0.51163 -1.53488,0 -2.96743,-0.51163 -1.38139,-0.56279 -2.4558,-1.58604 -1.07441,-1.02325 -1.73953,-2.4558 -0.61395,-1.43255 -0.61395,-3.2744 z m 5.21858,21.38594 q 0,1.12558 0.71628,1.89301 0.71627,0.71628 1.84185,0.71628 1.12557,0 1.84185,-0.71628 0.71627,-0.76743 0.71627,-1.89301 v -21.38594 q 0,-1.12557 -0.71627,-1.84185 -0.71628,-0.76743 -1.84185,-0.76743 -1.12558,0 -1.84185,0.76743 -0.71628,0.71628 -0.71628,1.84185 z"
         style="font-style:normal;font-variant:normal;font-weight:normal;font-stretch:normal;font-family:'DIN 1451 Std';-inkscape-font-specification:'DIN 1451 Std';fill:#000000;fill-opacity:1;stroke:none;stroke-width:1.37042475"
         id="path14569"
         inkscape:connector-curvature="0" />
      <path
         d="m 628.58096,-279.59663 q 0,-1.84185 0.61395,-3.2744 0.66511,-1.43255 1.73952,-2.4558 1.07442,-1.02325 2.4558,-1.53487 1.43255,-0.56279 2.96743,-0.56279 1.53488,0 2.91626,0.56279 1.43255,0.51162 2.50697,1.53487 1.07441,1.02325 1.68836,2.4558 0.66511,1.43255 0.66511,3.2744 v 21.38594 q 0,1.84185 -0.66511,3.2744 -0.61395,1.43255 -1.68836,2.4558 -1.07442,1.02325 -2.50697,1.58604 -1.38138,0.51163 -2.91626,0.51163 -1.53488,0 -2.96743,-0.51163 -1.38138,-0.56279 -2.4558,-1.58604 -1.07441,-1.02325 -1.73952,-2.4558 -0.61395,-1.43255 -0.61395,-3.2744 z m 5.21857,21.38594 q 0,1.12558 0.71628,1.89301 0.71627,0.71628 1.84185,0.71628 1.12558,0 1.84185,-0.71628 0.71628,-0.76743 0.71628,-1.89301 v -21.38594 q 0,-1.12557 -0.71628,-1.84185 -0.71627,-0.76743 -1.84185,-0.76743 -1.12558,0 -1.84185,0.76743 -0.71628,0.71628 -0.71628,1.84185 z"
         style="font-style:normal;font-variant:normal;font-weight:normal;font-stretch:normal;font-family:'DIN 1451 Std';-inkscape-font-specification:'DIN 1451 Std';fill:#000000;fill-opacity:1;stroke:none;stroke-width:1.37042475"
         id="path14571"
         inkscape:connector-curvature="0" />
      <path
         d="m 648.05962,-266.7139 h 15.39992 v 5.21858 h -15.39992 z"
         style="font-style:normal;font-variant:normal;font-weight:normal;font-stretch:normal;font-family:'DIN 1451 Std';-inkscape-font-specification:'DIN 1451 Std';fill:#000000;fill-opacity:1;stroke:none;stroke-width:1.37042475"
         id="path14573"
         inkscape:connector-curvature="0" />
      <path
         d="m 667.51457,-279.59663 q 0,-1.84185 0.61395,-3.2744 0.66511,-1.43255 1.73952,-2.4558 1.07442,-1.02325 2.4558,-1.53487 1.43256,-0.56279 2.96743,-0.56279 1.53488,0 2.91626,0.56279 1.43256,0.51162 2.50697,1.53487 1.07441,1.02325 1.68836,2.4558 0.66511,1.43255 0.66511,3.2744 v 21.38594 q 0,1.84185 -0.66511,3.2744 -0.61395,1.43255 -1.68836,2.4558 -1.07441,1.02325 -2.50697,1.58604 -1.38138,0.51163 -2.91626,0.51163 -1.53487,0 -2.96743,-0.51163 -1.38138,-0.56279 -2.4558,-1.58604 -1.07441,-1.02325 -1.73952,-2.4558 -0.61395,-1.43255 -0.61395,-3.2744 z m 5.21857,21.38594 q 0,1.12558 0.71628,1.89301 0.71628,0.71628 1.84185,0.71628 1.12558,0 1.84185,-0.71628 0.71628,-0.76743 0.71628,-1.89301 v -21.38594 q 0,-1.12557 -0.71628,-1.84185 -0.71627,-0.76743 -1.84185,-0.76743 -1.12557,0 -1.84185,0.76743 -0.71628,0.71628 -0.71628,1.84185 z"
         style="font-style:normal;font-variant:normal;font-weight:normal;font-stretch:normal;font-family:'DIN 1451 Std';-inkscape-font-specification:'DIN 1451 Std';fill:#000000;fill-opacity:1;stroke:none;stroke-width:1.37042475"
         id="path14575"
         inkscape:connector-curvature="0" />
      <path
         d="m 694.32853,-265.98739 -0.10232,-0.10233 q -0.25581,0.20465 -0.8186,0.35814 -0.51163,0.10232 -1.38139,0.10232 -1.38139,0 -2.55813,-0.66511 -1.17674,-0.66511 -1.84185,-1.68836 -0.35814,-0.51163 -0.56279,-1.07442 -0.20465,-0.61395 -0.35813,-1.53487 -0.10233,-0.92093 -0.15349,-2.30231 -0.0512,-1.43256 -0.0512,-3.58138 0,-1.79069 0.0512,-2.91627 0.0512,-1.17673 0.15349,-1.94417 0.15348,-0.8186 0.35813,-1.38139 0.25582,-0.56279 0.61395,-1.17674 1.02325,-1.68836 2.71162,-2.60929 1.73952,-0.92092 3.88835,-0.92092 2.14883,0 3.83719,0.97209 1.68836,0.92092 2.71161,2.55812 0.35814,0.61395 0.61395,1.17674 0.25582,0.56279 0.35814,1.38139 0.15349,0.76744 0.20465,1.94417 0.0512,1.12558 0.0512,2.91627 0,1.68836 -0.0512,2.81394 -0.0512,1.07441 -0.20465,1.89301 -0.10232,0.76744 -0.30697,1.43255 -0.15349,0.61395 -0.4093,1.33023 l -6.85578,18.31618 h -5.83253 z m -2.60929,-6.85578 q 0,1.17674 0.76744,1.89301 0.76744,0.71628 1.79069,0.71628 1.02325,0 1.79069,-0.71628 0.76744,-0.71627 0.76744,-1.89301 v -6.75346 q 0,-1.17673 -0.76744,-1.89301 -0.76744,-0.71627 -1.79069,-0.71627 -1.02325,0 -1.79069,0.71627 -0.76744,0.71628 -0.76744,1.89301 z"
         style="font-style:normal;font-variant:normal;font-weight:normal;font-stretch:normal;font-family:'DIN 1451 Std';-inkscape-font-specification:'DIN 1451 Std';fill:#000000;fill-opacity:1;stroke:none;stroke-width:1.37042475"
         id="path14577"
         inkscape:connector-curvature="0" />
      <path
         d="m 705.89607,-260.89307 h 5.21857 v 5.21858 h -5.21857 z m 0,-11.61389 h 5.21857 v 5.21858 h -5.21857 z"
         style="font-style:normal;font-variant:normal;font-weight:normal;font-stretch:normal;font-family:'DIN 1451 Std';-inkscape-font-specification:'DIN 1451 Std';fill:#000000;fill-opacity:1;stroke:none;stroke-width:1.37042475"
         id="path14579"
         inkscape:connector-curvature="0" />
      <path
         d="m 715.07974,-279.59663 q 0,-1.84185 0.61395,-3.2744 0.66511,-1.43255 1.73952,-2.4558 1.07442,-1.02325 2.4558,-1.53487 1.43256,-0.56279 2.96743,-0.56279 1.53488,0 2.91627,0.56279 1.43255,0.51162 2.50696,1.53487 1.07441,1.02325 1.68836,2.4558 0.66512,1.43255 0.66512,3.2744 v 21.38594 q 0,1.84185 -0.66512,3.2744 -0.61395,1.43255 -1.68836,2.4558 -1.07441,1.02325 -2.50696,1.58604 -1.38139,0.51163 -2.91627,0.51163 -1.53487,0 -2.96743,-0.51163 -1.38138,-0.56279 -2.4558,-1.58604 -1.07441,-1.02325 -1.73952,-2.4558 -0.61395,-1.43255 -0.61395,-3.2744 z m 5.21857,21.38594 q 0,1.12558 0.71628,1.89301 0.71628,0.71628 1.84185,0.71628 1.12558,0 1.84185,-0.71628 0.71628,-0.76743 0.71628,-1.89301 v -21.38594 q 0,-1.12557 -0.71628,-1.84185 -0.71627,-0.76743 -1.84185,-0.76743 -1.12557,0 -1.84185,0.76743 -0.71628,0.71628 -0.71628,1.84185 z"
         style="font-style:normal;font-variant:normal;font-weight:normal;font-stretch:normal;font-family:'DIN 1451 Std';-inkscape-font-specification:'DIN 1451 Std';fill:#000000;fill-opacity:1;stroke:none;stroke-width:1.37042475"
         id="path14581"
         inkscape:connector-curvature="0" />
      <path
         d="m 734.06582,-279.59663 q 0,-1.84185 0.61395,-3.2744 0.66511,-1.43255 1.73953,-2.4558 1.07441,-1.02325 2.4558,-1.53487 1.43255,-0.56279 2.96743,-0.56279 1.53487,0 2.91626,0.56279 1.43255,0.51162 2.50696,1.53487 1.07442,1.02325 1.68837,2.4558 0.66511,1.43255 0.66511,3.2744 v 21.38594 q 0,1.84185 -0.66511,3.2744 -0.61395,1.43255 -1.68837,2.4558 -1.07441,1.02325 -2.50696,1.58604 -1.38139,0.51163 -2.91626,0.51163 -1.53488,0 -2.96743,-0.51163 -1.38139,-0.56279 -2.4558,-1.58604 -1.07442,-1.02325 -1.73953,-2.4558 -0.61395,-1.43255 -0.61395,-3.2744 z m 5.21858,21.38594 q 0,1.12558 0.71627,1.89301 0.71628,0.71628 1.84186,0.71628 1.12557,0 1.84185,-0.71628 0.71627,-0.76743 0.71627,-1.89301 v -21.38594 q 0,-1.12557 -0.71627,-1.84185 -0.71628,-0.76743 -1.84185,-0.76743 -1.12558,0 -1.84186,0.76743 -0.71627,0.71628 -0.71627,1.84185 z"
         style="font-style:normal;font-variant:normal;font-weight:normal;font-stretch:normal;font-family:'DIN 1451 Std';-inkscape-font-specification:'DIN 1451 Std';fill:#000000;fill-opacity:1;stroke:none;stroke-width:1.37042475"
         id="path14583"
         inkscape:connector-curvature="0" />
    </g>
    <g
       aria-label="16:00-18:00"
       style="font-style:normal;font-variant:normal;font-weight:normal;font-stretch:normal;font-size:51.16252518px;line-height:1.25;font-family:'DIN 1451 Std';-inkscape-font-specification:'DIN 1451 Std';letter-spacing:0px;word-spacing:0px;fill:#000000;fill-opacity:1;stroke:none;stroke-width:1.37042475"
       id="text14505"
       transform="translate(215.30865,-209.12091)">
      <path
         d="m 361.19902,-36.651831 -5.21858,3.83719 v -5.52556 l 5.21858,-3.83719 h 5.21858 v 36.4277199 h -5.21858 z"
         style="font-style:normal;font-variant:normal;font-weight:normal;font-stretch:normal;font-family:'DIN 1451 Std';-inkscape-font-specification:'DIN 1451 Std';fill:#000000;fill-opacity:1;stroke:none;stroke-width:1.37042475"
         id="path14540"
         inkscape:connector-curvature="0" />
      <path
         d="m 381.71999,-26.879791 0.10232,0.10232 q 0.25582,-0.20465 0.76744,-0.30697 0.56279,-0.15349 1.43255,-0.15349 1.38139,0 2.55813,0.66511 1.17674,0.66512 1.84185,1.68837 0.35814,0.56278 0.56279,1.12557 0.20465,0.56279 0.30697,1.48372 0.15349,0.92092 0.20465,2.35347 0.0512,1.38139 0.0512,3.53022 0,1.79068 -0.0512,2.96742 -0.0512,1.12558 -0.20465,1.94418 -0.10232,0.76744 -0.35814,1.33022 -0.20465,0.5627899 -0.56278,1.1767399 -1.02325,1.68837 -2.76278,2.60929 -1.68836,0.92093 -3.83719,0.92093 -2.14882,0 -3.83719,-0.92093 -1.68836,-0.97209 -2.71161,-2.60929 -0.4093,-0.61395 -0.66511,-1.1767399 -0.20465,-0.56278 -0.35814,-1.33022 -0.10233,-0.8186 -0.15349,-1.94418 -0.0512,-1.17674 -0.0512,-2.96742 0,-1.68837 0.0512,-2.76278 0.0512,-1.12558 0.15349,-1.89301 0.10232,-0.8186 0.30697,-1.43255 0.20465,-0.66512 0.46047,-1.38139 l 6.85577,-18.31619 h 5.83253 z m 2.60929,6.85578 q 0,-1.17674 -0.76744,-1.89302 -0.76744,-0.71627 -1.79069,-0.71627 -1.02325,0 -1.79069,0.71627 -0.76743,0.71628 -0.76743,1.89302 v 6.75345 q 0,1.17674 0.76743,1.89301 0.76744,0.71628 1.79069,0.71628 1.02325,0 1.79069,-0.71628 0.76744,-0.71627 0.76744,-1.89301 z"
         style="font-style:normal;font-variant:normal;font-weight:normal;font-stretch:normal;font-family:'DIN 1451 Std';-inkscape-font-specification:'DIN 1451 Std';fill:#000000;fill-opacity:1;stroke:none;stroke-width:1.37042475"
         id="path14542"
         inkscape:connector-curvature="0" />
      <path
         d="m 393.38984,-15.952941 h 5.21858 v 5.21858 h -5.21858 z m 0,-11.61389 h 5.21858 v 5.21858 h -5.21858 z"
         style="font-style:normal;font-variant:normal;font-weight:normal;font-stretch:normal;font-family:'DIN 1451 Std';-inkscape-font-specification:'DIN 1451 Std';fill:#000000;fill-opacity:1;stroke:none;stroke-width:1.37042475"
         id="path14544"
         inkscape:connector-curvature="0" />
      <path
         d="m 402.57352,-34.656501 q 0,-1.84185 0.61395,-3.2744 0.66511,-1.43255 1.73952,-2.4558 1.07442,-1.02325 2.4558,-1.53487 1.43255,-0.56279 2.96743,-0.56279 1.53488,0 2.91626,0.56279 1.43256,0.51162 2.50697,1.53487 1.07441,1.02325 1.68836,2.4558 0.66511,1.43255 0.66511,3.2744 v 21.38594 q 0,1.84185 -0.66511,3.2743999 -0.61395,1.43255 -1.68836,2.4558 -1.07441,1.02325 -2.50697,1.58604 -1.38138,0.51163 -2.91626,0.51163 -1.53488,0 -2.96743,-0.51163 -1.38138,-0.56279 -2.4558,-1.58604 -1.07441,-1.02325 -1.73952,-2.4558 -0.61395,-1.4325499 -0.61395,-3.2743999 z m 5.21857,21.38594 q 0,1.12558 0.71628,1.89301 0.71627,0.71628 1.84185,0.71628 1.12558,0 1.84185,-0.71628 0.71628,-0.76743 0.71628,-1.89301 v -21.38594 q 0,-1.12557 -0.71628,-1.84185 -0.71627,-0.76743 -1.84185,-0.76743 -1.12558,0 -1.84185,0.76743 -0.71628,0.71628 -0.71628,1.84185 z"
         style="font-style:normal;font-variant:normal;font-weight:normal;font-stretch:normal;font-family:'DIN 1451 Std';-inkscape-font-specification:'DIN 1451 Std';fill:#000000;fill-opacity:1;stroke:none;stroke-width:1.37042475"
         id="path14546"
         inkscape:connector-curvature="0" />
      <path
         d="m 421.55961,-34.656501 q 0,-1.84185 0.61395,-3.2744 0.66511,-1.43255 1.73952,-2.4558 1.07442,-1.02325 2.45581,-1.53487 1.43255,-0.56279 2.96742,-0.56279 1.53488,0 2.91627,0.56279 1.43255,0.51162 2.50696,1.53487 1.07441,1.02325 1.68836,2.4558 0.66512,1.43255 0.66512,3.2744 v 21.38594 q 0,1.84185 -0.66512,3.2743999 -0.61395,1.43255 -1.68836,2.4558 -1.07441,1.02325 -2.50696,1.58604 -1.38139,0.51163 -2.91627,0.51163 -1.53487,0 -2.96742,-0.51163 -1.38139,-0.56279 -2.45581,-1.58604 -1.07441,-1.02325 -1.73952,-2.4558 -0.61395,-1.4325499 -0.61395,-3.2743999 z m 5.21858,21.38594 q 0,1.12558 0.71627,1.89301 0.71628,0.71628 1.84185,0.71628 1.12558,0 1.84185,-0.71628 0.71628,-0.76743 0.71628,-1.89301 v -21.38594 q 0,-1.12557 -0.71628,-1.84185 -0.71627,-0.76743 -1.84185,-0.76743 -1.12557,0 -1.84185,0.76743 -0.71627,0.71628 -0.71627,1.84185 z"
         style="font-style:normal;font-variant:normal;font-weight:normal;font-stretch:normal;font-family:'DIN 1451 Std';-inkscape-font-specification:'DIN 1451 Std';fill:#000000;fill-opacity:1;stroke:none;stroke-width:1.37042475"
         id="path14548"
         inkscape:connector-curvature="0" />
      <path
         d="m 441.07479,-21.773771 h 15.39992 v 5.21858 h -15.39992 z"
         style="font-style:normal;font-variant:normal;font-weight:normal;font-stretch:normal;font-family:'DIN 1451 Std';-inkscape-font-specification:'DIN 1451 Std';fill:#000000;fill-opacity:1;stroke:none;stroke-width:1.37042475"
         id="path14550"
         inkscape:connector-curvature="0" />
      <path
         d="m 466.75638,-36.651831 -5.21857,3.83719 v -5.52556 l 5.21857,-3.83719 h 5.21858 v 36.4277199 h -5.21858 z"
         style="font-style:normal;font-variant:normal;font-weight:normal;font-stretch:normal;font-family:'DIN 1451 Std';-inkscape-font-specification:'DIN 1451 Std';fill:#000000;fill-opacity:1;stroke:none;stroke-width:1.37042475"
         id="path14552"
         inkscape:connector-curvature="0" />
      <path
         d="m 489.88665,-34.707661 q 0,-1.07441 -0.76744,-1.79069 -0.76744,-0.76743 -1.79069,-0.76743 -1.02325,0 -1.79069,0.76743 -0.76743,0.71628 -0.76743,1.79069 v 5.3209 q 0,1.07442 0.76743,1.84186 0.76744,0.71627 1.79069,0.71627 1.02325,0 1.79069,-0.71627 0.76744,-0.76744 0.76744,-1.84186 z m -10.33483,2.0465 q 0,-1.48371 0.10232,-2.50696 0.10233,-1.07441 0.30698,-1.84185 0.25581,-0.76744 0.61395,-1.38139 0.35814,-0.61395 0.86976,-1.27906 1.02325,-1.33023 2.55813,-2.0465 1.53487,-0.76744 3.32556,-0.76744 1.79069,0 3.32557,0.76744 1.53487,0.71627 2.55812,2.0465 0.51163,0.66511 0.86977,1.27906 0.35813,0.61395 0.56278,1.38139 0.25582,0.76744 0.35814,1.84185 0.10233,1.02325 0.10233,2.50696 0,1.6372 -0.0512,2.76278 -0.0512,1.12557 -0.30697,1.99534 -0.25581,0.86976 -0.8186,1.58604 -0.51163,0.66511 -1.43255,1.43255 0.92092,0.71627 1.43255,1.43255 0.56279,0.71627 0.8186,1.68836 0.25581,0.97209 0.30697,2.40464 0.0512,1.38139 0.0512,3.42789 0,1.68836 -0.10233,2.81394 -0.0512,1.07441 -0.20465,1.89301 -0.15349,0.8186 -0.46046,1.3813899 -0.25581,0.56279 -0.66511,1.17674 -0.86977,1.33022 -2.45581,2.30231 -1.58603,0.92093 -3.88835,0.92093 -2.30231,0 -3.88835,-0.92093 -1.58604,-0.97209 -2.4558,-2.30231 -0.4093,-0.61395 -0.71628,-1.17674 -0.25581,-0.5627899 -0.4093,-1.3813899 -0.15348,-0.8186 -0.25581,-1.89301 -0.0512,-1.12558 -0.0512,-2.81394 0,-2.0465 0.0512,-3.42789 0.0512,-1.43255 0.30698,-2.40464 0.25581,-0.97209 0.76743,-1.68836 0.56279,-0.71628 1.48372,-1.43255 -0.92093,-0.76744 -1.48372,-1.43255 -0.51162,-0.71628 -0.76743,-1.58604 -0.25582,-0.86977 -0.30698,-1.99534 -0.0512,-1.12558 -0.0512,-2.76278 z m 10.33483,12.27901 q 0,-1.07441 -0.76744,-1.79069 -0.76744,-0.76744 -1.79069,-0.76744 -1.02325,0 -1.79069,0.76744 -0.76743,0.71628 -0.76743,1.79069 v 7.16275 q 0,1.07442 0.76743,1.84185 0.76744,0.71628 1.79069,0.71628 1.02325,0 1.79069,-0.71628 0.76744,-0.76743 0.76744,-1.84185 z"
         style="font-style:normal;font-variant:normal;font-weight:normal;font-stretch:normal;font-family:'DIN 1451 Std';-inkscape-font-specification:'DIN 1451 Std';fill:#000000;fill-opacity:1;stroke:none;stroke-width:1.37042475"
         id="path14554"
         inkscape:connector-curvature="0" />
      <path
         d="m 498.94722,-15.952941 h 5.21858 v 5.21858 h -5.21858 z m 0,-11.61389 h 5.21858 v 5.21858 h -5.21858 z"
         style="font-style:normal;font-variant:normal;font-weight:normal;font-stretch:normal;font-family:'DIN 1451 Std';-inkscape-font-specification:'DIN 1451 Std';fill:#000000;fill-opacity:1;stroke:none;stroke-width:1.37042475"
         id="path14556"
         inkscape:connector-curvature="0" />
      <path
         d="m 508.13089,-34.656501 q 0,-1.84185 0.61395,-3.2744 0.66511,-1.43255 1.73953,-2.4558 1.07441,-1.02325 2.4558,-1.53487 1.43255,-0.56279 2.96742,-0.56279 1.53488,0 2.91627,0.56279 1.43255,0.51162 2.50696,1.53487 1.07441,1.02325 1.68836,2.4558 0.66512,1.43255 0.66512,3.2744 v 21.38594 q 0,1.84185 -0.66512,3.2743999 -0.61395,1.43255 -1.68836,2.4558 -1.07441,1.02325 -2.50696,1.58604 -1.38139,0.51163 -2.91627,0.51163 -1.53487,0 -2.96742,-0.51163 -1.38139,-0.56279 -2.4558,-1.58604 -1.07442,-1.02325 -1.73953,-2.4558 -0.61395,-1.4325499 -0.61395,-3.2743999 z m 5.21858,21.38594 q 0,1.12558 0.71627,1.89301 0.71628,0.71628 1.84185,0.71628 1.12558,0 1.84185,-0.71628 0.71628,-0.76743 0.71628,-1.89301 v -21.38594 q 0,-1.12557 -0.71628,-1.84185 -0.71627,-0.76743 -1.84185,-0.76743 -1.12557,0 -1.84185,0.76743 -0.71627,0.71628 -0.71627,1.84185 z"
         style="font-style:normal;font-variant:normal;font-weight:normal;font-stretch:normal;font-family:'DIN 1451 Std';-inkscape-font-specification:'DIN 1451 Std';fill:#000000;fill-opacity:1;stroke:none;stroke-width:1.37042475"
         id="path14558"
         inkscape:connector-curvature="0" />
      <path
         d="m 527.11697,-34.656501 q 0,-1.84185 0.61395,-3.2744 0.66512,-1.43255 1.73953,-2.4558 1.07441,-1.02325 2.4558,-1.53487 1.43255,-0.56279 2.96743,-0.56279 1.53487,0 2.91626,0.56279 1.43255,0.51162 2.50696,1.53487 1.07442,1.02325 1.68837,2.4558 0.66511,1.43255 0.66511,3.2744 v 21.38594 q 0,1.84185 -0.66511,3.2743999 -0.61395,1.43255 -1.68837,2.4558 -1.07441,1.02325 -2.50696,1.58604 -1.38139,0.51163 -2.91626,0.51163 -1.53488,0 -2.96743,-0.51163 -1.38139,-0.56279 -2.4558,-1.58604 -1.07441,-1.02325 -1.73953,-2.4558 -0.61395,-1.4325499 -0.61395,-3.2743999 z m 5.21858,21.38594 q 0,1.12558 0.71628,1.89301 0.71627,0.71628 1.84185,0.71628 1.12557,0 1.84185,-0.71628 0.71627,-0.76743 0.71627,-1.89301 v -21.38594 q 0,-1.12557 -0.71627,-1.84185 -0.71628,-0.76743 -1.84185,-0.76743 -1.12558,0 -1.84185,0.76743 -0.71628,0.71628 -0.71628,1.84185 z"
         style="font-style:normal;font-variant:normal;font-weight:normal;font-stretch:normal;font-family:'DIN 1451 Std';-inkscape-font-specification:'DIN 1451 Std';fill:#000000;fill-opacity:1;stroke:none;stroke-width:1.37042475"
         id="path14560"
         inkscape:connector-curvature="0" />
    </g>
  </g>
</svg>
