<?xml version="1.0" encoding="UTF-8" standalone="no"?>
<!-- Created with Inkscape (http://www.inkscape.org/) -->

<svg
   xmlns:dc="http://purl.org/dc/elements/1.1/"
   xmlns:cc="http://creativecommons.org/ns#"
   xmlns:rdf="http://www.w3.org/1999/02/22-rdf-syntax-ns#"
   xmlns:svg="http://www.w3.org/2000/svg"
   xmlns="http://www.w3.org/2000/svg"
   xmlns:sodipodi="http://sodipodi.sourceforge.net/DTD/sodipodi-0.dtd"
   xmlns:inkscape="http://www.inkscape.org/namespaces/inkscape"
   width="900"
   height="860"
   viewBox="0 0 238.12496 227.54168"
   version="1.1"
   id="svg8"
   inkscape:version="0.92.1 r15371"
   sodipodi:docname="11.svg">
  <defs
     id="defs2" />
  <sodipodi:namedview
     id="base"
     pagecolor="#ffffff"
     bordercolor="#666666"
     borderopacity="1.0"
     inkscape:pageopacity="0.0"
     inkscape:pageshadow="2"
     inkscape:zoom="0.61319417"
     inkscape:cx="519.72129"
     inkscape:cy="464.83866"
     inkscape:document-units="px"
     inkscape:current-layer="layer1"
     showgrid="false"
     units="px"
     fit-margin-top="0"
     fit-margin-left="0"
     fit-margin-right="0"
     fit-margin-bottom="0"
     inkscape:window-width="1920"
     inkscape:window-height="1057"
     inkscape:window-x="-8"
     inkscape:window-y="-8"
     inkscape:window-maximized="1"
     inkscape:snap-global="false" />
  <metadata
     id="metadata5">
    <rdf:RDF>
      <cc:Work
         rdf:about="">
        <dc:format>image/svg+xml</dc:format>
        <dc:type
           rdf:resource="http://purl.org/dc/dcmitype/StillImage" />
        <dc:title></dc:title>
      </cc:Work>
    </rdf:RDF>
  </metadata>
  <g
     inkscape:label="Layer 1"
     inkscape:groupmode="layer"
     id="layer1"
     transform="translate(-556.15497,436.81356)">
    <rect
       style="fill:#ffffff;fill-opacity:1;stroke:none;stroke-width:0.20290065"
       id="rect10"
       width="238.125"
       height="227.54167"
       x="556.15497"
       y="-436.81357" />
    <rect
       y="-436.81357"
       x="556.15497"
       height="227.54167"
       width="238.125"
       id="rect12"
       style="fill:#e20a16;fill-opacity:1;stroke:none;stroke-width:0.20290066"
       rx="21.166666"
       ry="21.166666" />
    <rect
       ry="10.583333"
       rx="10.583333"
       style="fill:#ffffff;fill-opacity:1;stroke:none;stroke-width:0.18444511"
       id="rect8693"
       width="216.95833"
       height="206.375"
       x="566.73834"
       y="-426.23022" />
    <flowRoot
       xml:space="preserve"
       id="flowRoot14458"
       style="font-style:normal;font-weight:normal;font-size:37.33333206px;line-height:1.25;font-family:sans-serif;letter-spacing:0px;word-spacing:0px;fill:#000000;fill-opacity:1;stroke:none"
       transform="matrix(0.26458334,0,0,0.26458334,332.87915,-130.07065)"><flowRegion
         id="flowRegion14460"><rect
           id="rect14462"
           width="1209.6576"
           height="530.45044"
           x="-187.96396"
           y="85.657661" /></flowRegion><flowPara
         id="flowPara14464" /></flowRoot>    <g
       aria-label="08:00-16:00"
       style="font-style:normal;font-variant:normal;font-weight:normal;font-stretch:normal;font-size:51.16252518px;line-height:1.25;font-family:'DIN 1451 Std';-inkscape-font-specification:'DIN 1451 Std';letter-spacing:0px;word-spacing:0px;fill:#000000;fill-opacity:1;stroke:none;stroke-width:1.37042475"
       id="text13718"
       transform="translate(36.162457,281.80464)">
      <path
         d="m 545.26022,-644.64451 q 0,-1.84186 0.61395,-3.27441 0.66511,-1.43255 1.73953,-2.4558 1.07441,-1.02325 2.4558,-1.53487 1.43255,-0.56279 2.96742,-0.56279 1.53488,0 2.91627,0.56279 1.43255,0.51162 2.50696,1.53487 1.07441,1.02325 1.68836,2.4558 0.66512,1.43255 0.66512,3.27441 v 21.38593 q 0,1.84185 -0.66512,3.2744 -0.61395,1.43255 -1.68836,2.4558 -1.07441,1.02325 -2.50696,1.58604 -1.38139,0.51163 -2.91627,0.51163 -1.53487,0 -2.96742,-0.51163 -1.38139,-0.56279 -2.4558,-1.58604 -1.07442,-1.02325 -1.73953,-2.4558 -0.61395,-1.43255 -0.61395,-3.2744 z m 5.21858,21.38593 q 0,1.12558 0.71627,1.89301 0.71628,0.71628 1.84185,0.71628 1.12558,0 1.84185,-0.71628 0.71628,-0.76743 0.71628,-1.89301 v -21.38593 q 0,-1.12558 -0.71628,-1.84186 -0.71627,-0.76743 -1.84185,-0.76743 -1.12557,0 -1.84185,0.76743 -0.71627,0.71628 -0.71627,1.84186 z"
         style="font-style:normal;font-variant:normal;font-weight:normal;font-stretch:normal;font-family:'DIN 1451 Std';-inkscape-font-specification:'DIN 1451 Std';fill:#000000;stroke:none;stroke-width:1.37042475"
         id="path13732"
         inkscape:connector-curvature="0" />
      <path
         d="m 574.58114,-644.69568 q 0,-1.07441 -0.76743,-1.79069 -0.76744,-0.76743 -1.79069,-0.76743 -1.02325,0 -1.79069,0.76743 -0.76744,0.71628 -0.76744,1.79069 v 5.32091 q 0,1.07441 0.76744,1.84185 0.76744,0.71627 1.79069,0.71627 1.02325,0 1.79069,-0.71627 0.76743,-0.76744 0.76743,-1.84185 z m -10.33483,2.0465 q 0,-1.48371 0.10233,-2.50696 0.10232,-1.07441 0.30697,-1.84185 0.25582,-0.76744 0.61395,-1.38139 0.35814,-0.61395 0.86977,-1.27906 1.02325,-1.33023 2.55812,-2.0465 1.53488,-0.76744 3.32557,-0.76744 1.79069,0 3.32556,0.76744 1.53488,0.71627 2.55813,2.0465 0.51162,0.66511 0.86976,1.27906 0.35814,0.61395 0.56279,1.38139 0.25581,0.76744 0.35814,1.84185 0.10232,1.02325 0.10232,2.50696 0,1.6372 -0.0512,2.76278 -0.0512,1.12558 -0.30698,1.99534 -0.25581,0.86976 -0.8186,1.58604 -0.51162,0.66511 -1.43255,1.43255 0.92093,0.71627 1.43255,1.43255 0.56279,0.71627 0.8186,1.68836 0.25582,0.97209 0.30698,2.40464 0.0512,1.38139 0.0512,3.42789 0,1.68836 -0.10232,2.81394 -0.0512,1.07441 -0.20465,1.89301 -0.15349,0.8186 -0.46047,1.38139 -0.25581,0.56279 -0.66511,1.17674 -0.86976,1.33022 -2.4558,2.30231 -1.58604,0.92093 -3.88835,0.92093 -2.30232,0 -3.88835,-0.92093 -1.58604,-0.97209 -2.45581,-2.30231 -0.4093,-0.61395 -0.71627,-1.17674 -0.25581,-0.56279 -0.4093,-1.38139 -0.15349,-0.8186 -0.25581,-1.89301 -0.0512,-1.12558 -0.0512,-2.81394 0,-2.0465 0.0512,-3.42789 0.0512,-1.43255 0.30697,-2.40464 0.25581,-0.97209 0.76744,-1.68836 0.56279,-0.71628 1.48371,-1.43255 -0.92092,-0.76744 -1.48371,-1.43255 -0.51163,-0.71628 -0.76744,-1.58604 -0.25581,-0.86976 -0.30697,-1.99534 -0.0512,-1.12558 -0.0512,-2.76278 z m 10.33483,12.27901 q 0,-1.07441 -0.76743,-1.79069 -0.76744,-0.76744 -1.79069,-0.76744 -1.02325,0 -1.79069,0.76744 -0.76744,0.71628 -0.76744,1.79069 v 7.16275 q 0,1.07442 0.76744,1.84185 0.76744,0.71628 1.79069,0.71628 1.02325,0 1.79069,-0.71628 0.76743,-0.76743 0.76743,-1.84185 z"
         style="font-style:normal;font-variant:normal;font-weight:normal;font-stretch:normal;font-family:'DIN 1451 Std';-inkscape-font-specification:'DIN 1451 Std';fill:#000000;stroke:none;stroke-width:1.37042475"
         id="path13734"
         inkscape:connector-curvature="0" />
      <path
         d="m 583.64171,-625.94096 h 5.21857 v 5.21858 h -5.21857 z m 0,-11.61389 h 5.21857 v 5.21858 h -5.21857 z"
         style="font-style:normal;font-variant:normal;font-weight:normal;font-stretch:normal;font-family:'DIN 1451 Std';-inkscape-font-specification:'DIN 1451 Std';fill:#000000;stroke:none;stroke-width:1.37042475"
         id="path13736"
         inkscape:connector-curvature="0" />
      <path
         d="m 592.82538,-644.64451 q 0,-1.84186 0.61395,-3.27441 0.66512,-1.43255 1.73953,-2.4558 1.07441,-1.02325 2.4558,-1.53487 1.43255,-0.56279 2.96743,-0.56279 1.53487,0 2.91626,0.56279 1.43255,0.51162 2.50696,1.53487 1.07442,1.02325 1.68837,2.4558 0.66511,1.43255 0.66511,3.27441 v 21.38593 q 0,1.84185 -0.66511,3.2744 -0.61395,1.43255 -1.68837,2.4558 -1.07441,1.02325 -2.50696,1.58604 -1.38139,0.51163 -2.91626,0.51163 -1.53488,0 -2.96743,-0.51163 -1.38139,-0.56279 -2.4558,-1.58604 -1.07441,-1.02325 -1.73953,-2.4558 -0.61395,-1.43255 -0.61395,-3.2744 z m 5.21858,21.38593 q 0,1.12558 0.71628,1.89301 0.71627,0.71628 1.84185,0.71628 1.12557,0 1.84185,-0.71628 0.71627,-0.76743 0.71627,-1.89301 v -21.38593 q 0,-1.12558 -0.71627,-1.84186 -0.71628,-0.76743 -1.84185,-0.76743 -1.12558,0 -1.84185,0.76743 -0.71628,0.71628 -0.71628,1.84186 z"
         style="font-style:normal;font-variant:normal;font-weight:normal;font-stretch:normal;font-family:'DIN 1451 Std';-inkscape-font-specification:'DIN 1451 Std';fill:#000000;stroke:none;stroke-width:1.37042475"
         id="path13738"
         inkscape:connector-curvature="0" />
      <path
         d="m 611.81147,-644.64451 q 0,-1.84186 0.61395,-3.27441 0.66512,-1.43255 1.73953,-2.4558 1.07441,-1.02325 2.4558,-1.53487 1.43255,-0.56279 2.96743,-0.56279 1.53487,0 2.91626,0.56279 1.43255,0.51162 2.50697,1.53487 1.07441,1.02325 1.68836,2.4558 0.66511,1.43255 0.66511,3.27441 v 21.38593 q 0,1.84185 -0.66511,3.2744 -0.61395,1.43255 -1.68836,2.4558 -1.07442,1.02325 -2.50697,1.58604 -1.38139,0.51163 -2.91626,0.51163 -1.53488,0 -2.96743,-0.51163 -1.38139,-0.56279 -2.4558,-1.58604 -1.07441,-1.02325 -1.73953,-2.4558 -0.61395,-1.43255 -0.61395,-3.2744 z m 5.21858,21.38593 q 0,1.12558 0.71628,1.89301 0.71627,0.71628 1.84185,0.71628 1.12557,0 1.84185,-0.71628 0.71627,-0.76743 0.71627,-1.89301 v -21.38593 q 0,-1.12558 -0.71627,-1.84186 -0.71628,-0.76743 -1.84185,-0.76743 -1.12558,0 -1.84185,0.76743 -0.71628,0.71628 -0.71628,1.84186 z"
         style="font-style:normal;font-variant:normal;font-weight:normal;font-stretch:normal;font-family:'DIN 1451 Std';-inkscape-font-specification:'DIN 1451 Std';fill:#000000;stroke:none;stroke-width:1.37042475"
         id="path13740"
         inkscape:connector-curvature="0" />
      <path
         d="m 631.29014,-631.76179 h 15.39992 v 5.21858 h -15.39992 z"
         style="font-style:normal;font-variant:normal;font-weight:normal;font-stretch:normal;font-family:'DIN 1451 Std';-inkscape-font-specification:'DIN 1451 Std';fill:#000000;stroke:none;stroke-width:1.37042475"
         id="path13742"
         inkscape:connector-curvature="0" />
      <path
         d="m 656.93575,-646.63985 -5.21858,3.83719 v -5.52556 l 5.21858,-3.83719 h 5.21858 v 36.42772 h -5.21858 z"
         style="font-style:normal;font-variant:normal;font-weight:normal;font-stretch:normal;font-family:'DIN 1451 Std';-inkscape-font-specification:'DIN 1451 Std';fill:#000000;stroke:none;stroke-width:1.37042475"
         id="path13744"
         inkscape:connector-curvature="0" />
      <path
         d="m 677.45673,-636.86781 0.10232,0.10232 q 0.25581,-0.20465 0.76744,-0.30697 0.56279,-0.15349 1.43255,-0.15349 1.38139,0 2.55813,0.66511 1.17673,0.66512 1.84185,1.68837 0.35813,0.56279 0.56278,1.12557 0.20465,0.56279 0.30698,1.48372 0.15349,0.92092 0.20465,2.35347 0.0512,1.38139 0.0512,3.53022 0,1.79069 -0.0512,2.96742 -0.0512,1.12558 -0.20465,1.94418 -0.10233,0.76744 -0.35814,1.33023 -0.20465,0.56278 -0.56279,1.17673 -1.02325,1.68837 -2.76277,2.60929 -1.68837,0.92093 -3.83719,0.92093 -2.14883,0 -3.83719,-0.92093 -1.68836,-0.97209 -2.71162,-2.60929 -0.4093,-0.61395 -0.66511,-1.17673 -0.20465,-0.56279 -0.35814,-1.33023 -0.10232,-0.8186 -0.15348,-1.94418 -0.0512,-1.17673 -0.0512,-2.96742 0,-1.68837 0.0512,-2.76278 0.0512,-1.12557 0.15348,-1.89301 0.10233,-0.8186 0.30698,-1.43255 0.20465,-0.66512 0.46046,-1.38139 l 6.85578,-18.31619 h 5.83253 z m 2.60928,6.85578 q 0,-1.17674 -0.76743,-1.89302 -0.76744,-0.71627 -1.79069,-0.71627 -1.02325,0 -1.79069,0.71627 -0.76744,0.71628 -0.76744,1.89302 v 6.75345 q 0,1.17674 0.76744,1.89301 0.76744,0.71628 1.79069,0.71628 1.02325,0 1.79069,-0.71628 0.76743,-0.71627 0.76743,-1.89301 z"
         style="font-style:normal;font-variant:normal;font-weight:normal;font-stretch:normal;font-family:'DIN 1451 Std';-inkscape-font-specification:'DIN 1451 Std';fill:#000000;stroke:none;stroke-width:1.37042475"
         id="path13746"
         inkscape:connector-curvature="0" />
      <path
         d="m 689.12658,-625.94096 h 5.21858 v 5.21858 h -5.21858 z m 0,-11.61389 h 5.21858 v 5.21858 h -5.21858 z"
         style="font-style:normal;font-variant:normal;font-weight:normal;font-stretch:normal;font-family:'DIN 1451 Std';-inkscape-font-specification:'DIN 1451 Std';fill:#000000;stroke:none;stroke-width:1.37042475"
         id="path13748"
         inkscape:connector-curvature="0" />
      <path
         d="m 698.31026,-644.64451 q 0,-1.84186 0.61395,-3.27441 0.66511,-1.43255 1.73952,-2.4558 1.07441,-1.02325 2.4558,-1.53487 1.43255,-0.56279 2.96743,-0.56279 1.53487,0 2.91626,0.56279 1.43255,0.51162 2.50697,1.53487 1.07441,1.02325 1.68836,2.4558 0.66511,1.43255 0.66511,3.27441 v 21.38593 q 0,1.84185 -0.66511,3.2744 -0.61395,1.43255 -1.68836,2.4558 -1.07442,1.02325 -2.50697,1.58604 -1.38139,0.51163 -2.91626,0.51163 -1.53488,0 -2.96743,-0.51163 -1.38139,-0.56279 -2.4558,-1.58604 -1.07441,-1.02325 -1.73952,-2.4558 -0.61395,-1.43255 -0.61395,-3.2744 z m 5.21857,21.38593 q 0,1.12558 0.71628,1.89301 0.71627,0.71628 1.84185,0.71628 1.12557,0 1.84185,-0.71628 0.71628,-0.76743 0.71628,-1.89301 v -21.38593 q 0,-1.12558 -0.71628,-1.84186 -0.71628,-0.76743 -1.84185,-0.76743 -1.12558,0 -1.84185,0.76743 -0.71628,0.71628 -0.71628,1.84186 z"
         style="font-style:normal;font-variant:normal;font-weight:normal;font-stretch:normal;font-family:'DIN 1451 Std';-inkscape-font-specification:'DIN 1451 Std';fill:#000000;stroke:none;stroke-width:1.37042475"
         id="path13750"
         inkscape:connector-curvature="0" />
      <path
         d="m 717.29634,-644.64451 q 0,-1.84186 0.61395,-3.27441 0.66511,-1.43255 1.73953,-2.4558 1.07441,-1.02325 2.4558,-1.53487 1.43255,-0.56279 2.96742,-0.56279 1.53488,0 2.91627,0.56279 1.43255,0.51162 2.50696,1.53487 1.07441,1.02325 1.68836,2.4558 0.66512,1.43255 0.66512,3.27441 v 21.38593 q 0,1.84185 -0.66512,3.2744 -0.61395,1.43255 -1.68836,2.4558 -1.07441,1.02325 -2.50696,1.58604 -1.38139,0.51163 -2.91627,0.51163 -1.53487,0 -2.96742,-0.51163 -1.38139,-0.56279 -2.4558,-1.58604 -1.07442,-1.02325 -1.73953,-2.4558 -0.61395,-1.43255 -0.61395,-3.2744 z m 5.21858,21.38593 q 0,1.12558 0.71627,1.89301 0.71628,0.71628 1.84185,0.71628 1.12558,0 1.84185,-0.71628 0.71628,-0.76743 0.71628,-1.89301 v -21.38593 q 0,-1.12558 -0.71628,-1.84186 -0.71627,-0.76743 -1.84185,-0.76743 -1.12557,0 -1.84185,0.76743 -0.71627,0.71628 -0.71627,1.84186 z"
         style="font-style:normal;font-variant:normal;font-weight:normal;font-stretch:normal;font-family:'DIN 1451 Std';-inkscape-font-specification:'DIN 1451 Std';fill:#000000;stroke:none;stroke-width:1.37042475"
         id="path13752"
         inkscape:connector-curvature="0" />
    </g>
    <g
       aria-label="08:00-13:00"
       style="font-style:normal;font-variant:normal;font-weight:normal;font-stretch:normal;font-size:51.16252518px;line-height:1.25;font-family:'DIN 1451 Std';-inkscape-font-specification:'DIN 1451 Std';letter-spacing:0px;word-spacing:0px;fill:#000000;fill-opacity:1;stroke:none;stroke-width:0.26647148"
       id="text13722"
       transform="translate(36.712777,-134.23323)">
      <path
         d="m 544.7099,-129.65247 q 0,-1.84186 0.61395,-3.27441 0.66511,-1.43255 1.73952,-2.4558 1.07441,-1.02325 2.4558,-1.53487 1.43255,-0.56279 2.96743,-0.56279 1.53488,0 2.91626,0.56279 1.43255,0.51162 2.50697,1.53487 1.07441,1.02325 1.68836,2.4558 0.66511,1.43255 0.66511,3.27441 v 21.38593 q 0,1.84185 -0.66511,3.2744 -0.61395,1.43255 -1.68836,2.4558 -1.07442,1.02325 -2.50697,1.58604 -1.38138,0.51163 -2.91626,0.51163 -1.53488,0 -2.96743,-0.51163 -1.38139,-0.56279 -2.4558,-1.58604 -1.07441,-1.02325 -1.73952,-2.4558 -0.61395,-1.43255 -0.61395,-3.2744 z m 5.21857,21.38593 q 0,1.12558 0.71628,1.89301 0.71627,0.71628 1.84185,0.71628 1.12557,0 1.84185,-0.71628 0.71628,-0.76743 0.71628,-1.89301 v -21.38593 q 0,-1.12558 -0.71628,-1.84186 -0.71628,-0.76743 -1.84185,-0.76743 -1.12558,0 -1.84185,0.76743 -0.71628,0.71628 -0.71628,1.84186 z"
         style="font-style:normal;font-variant:normal;font-weight:normal;font-stretch:normal;font-family:'DIN 1451 Std';-inkscape-font-specification:'DIN 1451 Std';fill:#000000;stroke:none;stroke-width:0.26647148"
         id="path13755"
         inkscape:connector-curvature="0" />
      <path
         d="m 574.03082,-129.70364 q 0,-1.07441 -0.76744,-1.79069 -0.76744,-0.76743 -1.79069,-0.76743 -1.02325,0 -1.79069,0.76743 -0.76743,0.71628 -0.76743,1.79069 v 5.32091 q 0,1.07441 0.76743,1.84185 0.76744,0.71627 1.79069,0.71627 1.02325,0 1.79069,-0.71627 0.76744,-0.76744 0.76744,-1.84185 z m -10.33483,2.0465 q 0,-1.48371 0.10232,-2.50696 0.10233,-1.07441 0.30698,-1.84185 0.25581,-0.76744 0.61395,-1.38139 0.35814,-0.61395 0.86976,-1.27906 1.02325,-1.33023 2.55813,-2.0465 1.53487,-0.76744 3.32556,-0.76744 1.79069,0 3.32557,0.76744 1.53487,0.71627 2.55812,2.0465 0.51163,0.66511 0.86977,1.27906 0.35813,0.61395 0.56278,1.38139 0.25582,0.76744 0.35814,1.84185 0.10233,1.02325 0.10233,2.50696 0,1.6372 -0.0512,2.76278 -0.0512,1.12558 -0.30697,1.99534 -0.25581,0.86976 -0.8186,1.58604 -0.51163,0.66511 -1.43255,1.43255 0.92092,0.71627 1.43255,1.43255 0.56279,0.71627 0.8186,1.68836 0.25581,0.97209 0.30697,2.40464 0.0512,1.38139 0.0512,3.42789 0,1.68836 -0.10233,2.81394 -0.0512,1.07441 -0.20465,1.89301 -0.15349,0.8186 -0.46046,1.38139 -0.25581,0.56279 -0.66511,1.17674 -0.86977,1.33022 -2.45581,2.30231 -1.58603,0.92093 -3.88835,0.92093 -2.30231,0 -3.88835,-0.92093 -1.58604,-0.97209 -2.4558,-2.30231 -0.4093,-0.61395 -0.71628,-1.17674 -0.25581,-0.56279 -0.4093,-1.38139 -0.15348,-0.8186 -0.25581,-1.89301 -0.0512,-1.12558 -0.0512,-2.81394 0,-2.0465 0.0512,-3.42789 0.0512,-1.43255 0.30698,-2.40464 0.25581,-0.97209 0.76743,-1.68836 0.56279,-0.71628 1.48372,-1.43255 -0.92093,-0.76744 -1.48372,-1.43255 -0.51162,-0.71628 -0.76743,-1.58604 -0.25582,-0.86976 -0.30698,-1.99534 -0.0512,-1.12558 -0.0512,-2.76278 z m 10.33483,12.27901 q 0,-1.07441 -0.76744,-1.79069 -0.76744,-0.76744 -1.79069,-0.76744 -1.02325,0 -1.79069,0.76744 -0.76743,0.71628 -0.76743,1.79069 v 7.16275 q 0,1.07442 0.76743,1.84185 0.76744,0.71628 1.79069,0.71628 1.02325,0 1.79069,-0.71628 0.76744,-0.76743 0.76744,-1.84185 z"
         style="font-style:normal;font-variant:normal;font-weight:normal;font-stretch:normal;font-family:'DIN 1451 Std';-inkscape-font-specification:'DIN 1451 Std';fill:#000000;stroke:none;stroke-width:0.26647148"
         id="path13757"
         inkscape:connector-curvature="0" />
      <path
         d="m 583.09138,-110.94892 h 5.21858 v 5.21858 h -5.21858 z m 0,-11.61389 h 5.21858 v 5.21858 h -5.21858 z"
         style="font-style:normal;font-variant:normal;font-weight:normal;font-stretch:normal;font-family:'DIN 1451 Std';-inkscape-font-specification:'DIN 1451 Std';fill:#000000;stroke:none;stroke-width:0.26647148"
         id="path13759"
         inkscape:connector-curvature="0" />
      <path
         d="m 592.27506,-129.65247 q 0,-1.84186 0.61395,-3.27441 0.66511,-1.43255 1.73952,-2.4558 1.07442,-1.02325 2.45581,-1.53487 1.43255,-0.56279 2.96742,-0.56279 1.53488,0 2.91627,0.56279 1.43255,0.51162 2.50696,1.53487 1.07441,1.02325 1.68836,2.4558 0.66512,1.43255 0.66512,3.27441 v 21.38593 q 0,1.84185 -0.66512,3.2744 -0.61395,1.43255 -1.68836,2.4558 -1.07441,1.02325 -2.50696,1.58604 -1.38139,0.51163 -2.91627,0.51163 -1.53487,0 -2.96742,-0.51163 -1.38139,-0.56279 -2.45581,-1.58604 -1.07441,-1.02325 -1.73952,-2.4558 -0.61395,-1.43255 -0.61395,-3.2744 z m 5.21858,21.38593 q 0,1.12558 0.71627,1.89301 0.71628,0.71628 1.84185,0.71628 1.12558,0 1.84185,-0.71628 0.71628,-0.76743 0.71628,-1.89301 v -21.38593 q 0,-1.12558 -0.71628,-1.84186 -0.71627,-0.76743 -1.84185,-0.76743 -1.12557,0 -1.84185,0.76743 -0.71627,0.71628 -0.71627,1.84186 z"
         style="font-style:normal;font-variant:normal;font-weight:normal;font-stretch:normal;font-family:'DIN 1451 Std';-inkscape-font-specification:'DIN 1451 Std';fill:#000000;stroke:none;stroke-width:0.26647148"
         id="path13761"
         inkscape:connector-curvature="0" />
      <path
         d="m 611.26115,-129.65247 q 0,-1.84186 0.61395,-3.27441 0.66511,-1.43255 1.73953,-2.4558 1.07441,-1.02325 2.4558,-1.53487 1.43255,-0.56279 2.96742,-0.56279 1.53488,0 2.91627,0.56279 1.43255,0.51162 2.50696,1.53487 1.07441,1.02325 1.68836,2.4558 0.66512,1.43255 0.66512,3.27441 v 21.38593 q 0,1.84185 -0.66512,3.2744 -0.61395,1.43255 -1.68836,2.4558 -1.07441,1.02325 -2.50696,1.58604 -1.38139,0.51163 -2.91627,0.51163 -1.53487,0 -2.96742,-0.51163 -1.38139,-0.56279 -2.4558,-1.58604 -1.07442,-1.02325 -1.73953,-2.4558 -0.61395,-1.43255 -0.61395,-3.2744 z m 5.21858,21.38593 q 0,1.12558 0.71627,1.89301 0.71628,0.71628 1.84185,0.71628 1.12558,0 1.84185,-0.71628 0.71628,-0.76743 0.71628,-1.89301 v -21.38593 q 0,-1.12558 -0.71628,-1.84186 -0.71627,-0.76743 -1.84185,-0.76743 -1.12557,0 -1.84185,0.76743 -0.71627,0.71628 -0.71627,1.84186 z"
         style="font-style:normal;font-variant:normal;font-weight:normal;font-stretch:normal;font-family:'DIN 1451 Std';-inkscape-font-specification:'DIN 1451 Std';fill:#000000;stroke:none;stroke-width:0.26647148"
         id="path13763"
         inkscape:connector-curvature="0" />
      <path
         d="m 630.73982,-116.76975 h 15.39992 v 5.21858 h -15.39992 z"
         style="font-style:normal;font-variant:normal;font-weight:normal;font-stretch:normal;font-family:'DIN 1451 Std';-inkscape-font-specification:'DIN 1451 Std';fill:#000000;stroke:none;stroke-width:0.26647148"
         id="path13765"
         inkscape:connector-curvature="0" />
      <path
         d="m 656.38543,-131.64781 -5.21858,3.83719 v -5.52556 l 5.21858,-3.83719 h 5.21857 v 36.42772 h -5.21857 z"
         style="font-style:normal;font-variant:normal;font-weight:normal;font-stretch:normal;font-family:'DIN 1451 Std';-inkscape-font-specification:'DIN 1451 Std';fill:#000000;stroke:none;stroke-width:0.26647148"
         id="path13767"
         inkscape:connector-curvature="0" />
      <path
         d="m 675.37153,-121.82461 q 2.35347,0 3.22323,-0.56279 0.92093,-0.56278 0.92093,-2.60928 v -4.70696 q 0,-1.12557 -0.71628,-1.84185 -0.66511,-0.71627 -1.84185,-0.71627 -1.38138,0 -1.99533,0.86976 -0.56279,0.86976 -0.56279,1.68836 v 2.96743 h -5.21858 v -3.01859 q 0,-1.58604 0.61395,-3.01859 0.61395,-1.43255 1.68836,-2.4558 1.07442,-1.02325 2.50697,-1.6372 1.43255,-0.61395 3.06975,-0.61395 2.14882,0 3.53021,0.86976 1.43255,0.8186 2.14883,1.68837 0.51162,0.61395 0.86976,1.27906 0.4093,0.61395 0.61395,1.48371 0.25581,0.8186 0.35814,2.0465 0.15349,1.17674 0.15349,2.91627 0,1.89301 -0.10233,3.06975 -0.0512,1.17674 -0.4093,1.99534 -0.30697,0.76743 -0.97209,1.33022 -0.61395,0.56279 -1.73952,1.2279 1.2279,0.76744 1.84185,1.43255 0.66511,0.66512 0.97209,1.58604 0.30697,0.86976 0.35814,2.14883 0.0512,1.2279 0.0512,3.17207 0,1.79069 -0.10233,2.96743 -0.0512,1.17674 -0.20465,1.99534 -0.15349,0.76744 -0.4093,1.33023 -0.25581,0.56278 -0.66511,1.17673 -0.97209,1.43255 -2.50696,2.40464 -1.53488,0.92093 -3.93952,0.92093 -1.2279,0 -2.60929,-0.4093 -1.38139,-0.4093 -2.50696,-1.33023 -1.12558,-0.92092 -1.89301,-2.40464 -0.71628,-1.48371 -0.71628,-3.63254 v -2.96742 h 5.21858 v 2.71161 q 0,1.2279 0.66511,2.0465 0.71628,0.76744 1.89301,0.76744 1.17674,0 1.84185,-0.76744 0.71628,-0.8186 0.71628,-2.14882 v -5.21858 q 0,-1.07441 -0.20465,-1.73953 -0.15349,-0.66511 -0.61395,-1.02325 -0.46046,-0.4093 -1.27906,-0.51162 -0.76744,-0.15349 -2.0465,-0.15349 z"
         style="font-style:normal;font-variant:normal;font-weight:normal;font-stretch:normal;font-family:'DIN 1451 Std';-inkscape-font-specification:'DIN 1451 Std';fill:#000000;stroke:none;stroke-width:0.26647148"
         id="path13769"
         inkscape:connector-curvature="0" />
      <path
         d="m 688.57626,-110.94892 h 5.21858 v 5.21858 h -5.21858 z m 0,-11.61389 h 5.21858 v 5.21858 h -5.21858 z"
         style="font-style:normal;font-variant:normal;font-weight:normal;font-stretch:normal;font-family:'DIN 1451 Std';-inkscape-font-specification:'DIN 1451 Std';fill:#000000;stroke:none;stroke-width:0.26647148"
         id="path13771"
         inkscape:connector-curvature="0" />
      <path
         d="m 697.75993,-129.65247 q 0,-1.84186 0.61395,-3.27441 0.66511,-1.43255 1.73953,-2.4558 1.07441,-1.02325 2.4558,-1.53487 1.43255,-0.56279 2.96742,-0.56279 1.53488,0 2.91627,0.56279 1.43255,0.51162 2.50696,1.53487 1.07442,1.02325 1.68837,2.4558 0.66511,1.43255 0.66511,3.27441 v 21.38593 q 0,1.84185 -0.66511,3.2744 -0.61395,1.43255 -1.68837,2.4558 -1.07441,1.02325 -2.50696,1.58604 -1.38139,0.51163 -2.91627,0.51163 -1.53487,0 -2.96742,-0.51163 -1.38139,-0.56279 -2.4558,-1.58604 -1.07442,-1.02325 -1.73953,-2.4558 -0.61395,-1.43255 -0.61395,-3.2744 z m 5.21858,21.38593 q 0,1.12558 0.71627,1.89301 0.71628,0.71628 1.84185,0.71628 1.12558,0 1.84186,-0.71628 0.71627,-0.76743 0.71627,-1.89301 v -21.38593 q 0,-1.12558 -0.71627,-1.84186 -0.71628,-0.76743 -1.84186,-0.76743 -1.12557,0 -1.84185,0.76743 -0.71627,0.71628 -0.71627,1.84186 z"
         style="font-style:normal;font-variant:normal;font-weight:normal;font-stretch:normal;font-family:'DIN 1451 Std';-inkscape-font-specification:'DIN 1451 Std';fill:#000000;stroke:none;stroke-width:0.26647148"
         id="path13773"
         inkscape:connector-curvature="0" />
      <path
         d="m 716.74601,-129.65247 q 0,-1.84186 0.61396,-3.27441 0.66511,-1.43255 1.73952,-2.4558 1.07441,-1.02325 2.4558,-1.53487 1.43255,-0.56279 2.96743,-0.56279 1.53487,0 2.91626,0.56279 1.43255,0.51162 2.50697,1.53487 1.07441,1.02325 1.68836,2.4558 0.66511,1.43255 0.66511,3.27441 v 21.38593 q 0,1.84185 -0.66511,3.2744 -0.61395,1.43255 -1.68836,2.4558 -1.07442,1.02325 -2.50697,1.58604 -1.38139,0.51163 -2.91626,0.51163 -1.53488,0 -2.96743,-0.51163 -1.38139,-0.56279 -2.4558,-1.58604 -1.07441,-1.02325 -1.73952,-2.4558 -0.61396,-1.43255 -0.61396,-3.2744 z m 5.21858,21.38593 q 0,1.12558 0.71628,1.89301 0.71627,0.71628 1.84185,0.71628 1.12557,0 1.84185,-0.71628 0.71628,-0.76743 0.71628,-1.89301 v -21.38593 q 0,-1.12558 -0.71628,-1.84186 -0.71628,-0.76743 -1.84185,-0.76743 -1.12558,0 -1.84185,0.76743 -0.71628,0.71628 -0.71628,1.84186 z"
         style="font-style:normal;font-variant:normal;font-weight:normal;font-stretch:normal;font-family:'DIN 1451 Std';-inkscape-font-specification:'DIN 1451 Std';fill:#000000;stroke:none;stroke-width:0.26647148"
         id="path13775"
         inkscape:connector-curvature="0" />
    </g>
    <g
       aria-label="WEEK"
       style="font-style:normal;font-variant:normal;font-weight:normal;font-stretch:normal;font-size:36.41736984px;line-height:1.25;font-family:'DIN 1451 Std';-inkscape-font-specification:'DIN 1451 Std';letter-spacing:0px;word-spacing:0px;fill:#000000;fill-opacity:1;stroke:none;stroke-width:0.1896738"
       id="text13726"
       transform="translate(-13.662085,193.2702)">
      <path
         d="m 673.69941,-578.75461 h -3.49607 l -2.84055,-16.82482 h -0.0728 l -2.80413,16.82482 h -3.49607 l -3.86024,-25.92916 h 3.93307 l 1.85729,16.46065 h 0.0728 l 2.91339,-16.46065 h 2.84056 l 3.02264,16.86124 h 0.0728 l 1.78445,-16.86124 h 3.93307 z"
         style="font-style:normal;font-variant:normal;font-weight:normal;font-stretch:normal;font-family:'DIN 1451 Std';-inkscape-font-specification:'DIN 1451 Std';fill:#000000;stroke-width:0.1896738"
         id="path13778"
         inkscape:connector-curvature="0" />
      <path
         d="m 679.90128,-604.68377 h 11.07088 v 3.49606 h -7.35631 v 7.61123 h 6.40946 v 3.49607 h -6.40946 v 7.61123 h 7.35631 v 3.71457 h -11.07088 z"
         style="font-style:normal;font-variant:normal;font-weight:normal;font-stretch:normal;font-family:'DIN 1451 Std';-inkscape-font-specification:'DIN 1451 Std';fill:#000000;stroke-width:0.1896738"
         id="path13780"
         inkscape:connector-curvature="0" />
      <path
         d="m 693.32801,-604.68377 h 11.07088 v 3.49606 h -7.35631 v 7.61123 h 6.40946 v 3.49607 h -6.40946 v 7.61123 h 7.35631 v 3.71457 h -11.07088 z"
         style="font-style:normal;font-variant:normal;font-weight:normal;font-stretch:normal;font-family:'DIN 1451 Std';-inkscape-font-specification:'DIN 1451 Std';fill:#000000;stroke-width:0.1896738"
         id="path13782"
         inkscape:connector-curvature="0" />
      <path
         d="m 706.75447,-604.68377 h 3.71457 v 11.83564 h 0.0728 l 5.42618,-11.83564 h 3.71458 l -5.06202,10.37895 6.00887,15.55021 h -3.93308 l -4.22441,-11.50789 -2.00296,3.75099 v 7.7569 h -3.71457 z"
         style="font-style:normal;font-variant:normal;font-weight:normal;font-stretch:normal;font-family:'DIN 1451 Std';-inkscape-font-specification:'DIN 1451 Std';fill:#000000;stroke-width:0.1896738"
         id="path13784"
         inkscape:connector-curvature="0" />
    </g>
    <g
       aria-label="SAT"
       style="font-style:normal;font-variant:normal;font-weight:normal;font-stretch:normal;font-size:35.81376648px;line-height:1.25;font-family:'DIN 1451 Std';-inkscape-font-specification:'DIN 1451 Std';letter-spacing:0px;word-spacing:0px;fill:#000000;fill-opacity:1;stroke:none;stroke-width:0.18653004"
       id="text13730"
       transform="translate(-60.409702,250.15474)">
      <path
         d="m 728.58283,-555.05742 h -3.653 v -0.82372 q 0,-1.25348 -0.60884,-2.14882 -0.57302,-0.93116 -1.96975,-0.93116 -0.75209,0 -1.25349,0.28651 -0.46558,0.28651 -0.75209,0.75209 -0.25069,0.42976 -0.35813,1.0386 -0.10744,0.57302 -0.10744,1.21767 0,0.75208 0.0358,1.28929 0.0716,0.50139 0.28651,0.89534 0.21488,0.35814 0.60883,0.64465 0.42977,0.28651 1.14604,0.57302 l 2.79348,1.11023 q 1.21767,0.46558 1.96975,1.11023 0.75209,0.60883 1.14605,1.46836 0.42976,0.82372 0.57302,1.93394 0.14325,1.07442 0.14325,2.47115 0,1.61162 -0.32232,3.00836 -0.32233,1.36092 -1.07442,2.36371 -0.71627,0.96697 -1.93394,1.53999 -1.21767,0.57302 -2.97254,0.57302 -1.32511,0 -2.47115,-0.46558 -1.14604,-0.46558 -1.96976,-1.25348 -0.82372,-0.82372 -1.32511,-1.93394 -0.46558,-1.11023 -0.46558,-2.39953 v -1.36092 h 3.65301 v 1.14604 q 0,1.00279 0.57302,1.8265 0.60883,0.78791 2.00557,0.78791 0.93116,0 1.43255,-0.2507 0.53721,-0.28651 0.7879,-0.75209 0.28651,-0.50139 0.35814,-1.21767 0.0716,-0.71627 0.0716,-1.5758 0,-1.00279 -0.0716,-1.64744 -0.0716,-0.64464 -0.32232,-1.03859 -0.21489,-0.39396 -0.64465,-0.64465 -0.39395,-0.2507 -1.07442,-0.53721 l -2.6144,-1.07441 q -2.36371,-0.96697 -3.18743,-2.54278 -0.7879,-1.61162 -0.7879,-4.01114 0,-1.43255 0.39395,-2.72185 0.39395,-1.28929 1.14604,-2.22045 0.78791,-0.93116 1.96976,-1.46837 1.18185,-0.57302 2.75766,-0.57302 1.36092,0 2.47115,0.5014 1.14604,0.50139 1.93394,1.32511 0.82372,0.82371 1.25349,1.86231 0.42976,1.00279 0.42976,2.0772 z"
         style="font-style:normal;font-variant:normal;font-weight:normal;font-stretch:normal;font-family:'DIN 1451 Std';-inkscape-font-specification:'DIN 1451 Std';fill:#000000;stroke:none;stroke-width:0.18653004"
         id="path13787"
         inkscape:connector-curvature="0" />
      <path
         d="m 736.88312,-555.05742 h -0.0716 l -1.79069,9.23995 h 3.65301 z m -1.53999,-7.34182 h 3.04417 l 5.69439,25.4994 h -3.65301 l -1.07441,-5.47951 h -4.97812 l -1.07441,5.47951 h -3.653 z"
         style="font-style:normal;font-variant:normal;font-weight:normal;font-stretch:normal;font-family:'DIN 1451 Std';-inkscape-font-specification:'DIN 1451 Std';fill:#000000;stroke:none;stroke-width:0.18653004"
         id="path13789"
         inkscape:connector-curvature="0" />
      <path
         d="m 747.32723,-558.96112 h -4.22602 v -3.43812 h 12.10505 v 3.43812 h -4.22602 v 22.06128 h -3.65301 z"
         style="font-style:normal;font-variant:normal;font-weight:normal;font-stretch:normal;font-family:'DIN 1451 Std';-inkscape-font-specification:'DIN 1451 Std';fill:#000000;stroke:none;stroke-width:0.18653004"
         id="path13791"
         inkscape:connector-curvature="0" />
    </g>
  </g>
</svg>
