<?xml version="1.0" encoding="UTF-8" standalone="no"?>
<!-- Created with Inkscape (http://www.inkscape.org/) -->

<svg
   xmlns:dc="http://purl.org/dc/elements/1.1/"
   xmlns:cc="http://creativecommons.org/ns#"
   xmlns:rdf="http://www.w3.org/1999/02/22-rdf-syntax-ns#"
   xmlns:svg="http://www.w3.org/2000/svg"
   xmlns="http://www.w3.org/2000/svg"
   xmlns:sodipodi="http://sodipodi.sourceforge.net/DTD/sodipodi-0.dtd"
   xmlns:inkscape="http://www.inkscape.org/namespaces/inkscape"
   width="900"
   height="1150"
   viewBox="0 0 238.12497 304.27085"
   version="1.1"
   id="svg8"
   inkscape:version="0.92.1 r15371"
   sodipodi:docname="66.svg">
  <defs
     id="defs2" />
  <sodipodi:namedview
     id="base"
     pagecolor="#ffffff"
     bordercolor="#666666"
     borderopacity="1.0"
     inkscape:pageopacity="0.0"
     inkscape:pageshadow="2"
     inkscape:zoom="0.64"
     inkscape:cx="307.48663"
     inkscape:cy="587.34788"
     inkscape:document-units="px"
     inkscape:current-layer="text4600"
     showgrid="false"
     units="px"
     fit-margin-top="0"
     fit-margin-left="0"
     fit-margin-right="0"
     fit-margin-bottom="0"
     inkscape:window-width="1920"
     inkscape:window-height="1057"
     inkscape:window-x="-8"
     inkscape:window-y="-8"
     inkscape:window-maximized="1"
     inkscape:snap-global="false"
     showguides="false" />
  <metadata
     id="metadata5">
    <rdf:RDF>
      <cc:Work
         rdf:about="">
        <dc:format>image/svg+xml</dc:format>
        <dc:type
           rdf:resource="http://purl.org/dc/dcmitype/StillImage" />
        <dc:title></dc:title>
      </cc:Work>
    </rdf:RDF>
  </metadata>
  <g
     inkscape:label="Layer 1"
     inkscape:groupmode="layer"
     id="layer1"
     transform="translate(-760.38348,948.20054)">
    <rect
       style="fill:#00559b;fill-opacity:1;stroke:none;stroke-width:0.23462978"
       id="rect10"
       width="238.125"
       height="304.27081"
       x="760.38348"
       y="-948.2005" />
    <rect
       y="-948.2005"
       x="760.38348"
       height="304.27081"
       width="238.125"
       id="rect12"
       style="fill:#ffffff;fill-opacity:1;stroke:none;stroke-width:0.23462979"
       rx="21.166666"
       ry="21.166664" />
    <rect
       ry="10.583332"
       rx="10.583333"
       style="fill:#00559b;fill-opacity:1;stroke:none;stroke-width:0.21602884"
       id="rect8693"
       width="216.95833"
       height="283.10416"
       x="770.96686"
       y="-937.61713" />
    <flowRoot
       xml:space="preserve"
       id="flowRoot14458"
       style="font-style:normal;font-weight:normal;font-size:37.33333206px;line-height:1.25;font-family:sans-serif;letter-spacing:0px;word-spacing:0px;fill:#000000;fill-opacity:1;stroke:none"
       transform="matrix(0.26458334,0,0,0.26458334,332.87915,-130.07065)"><flowRegion
         id="flowRegion14460"><rect
           id="rect14462"
           width="1209.6576"
           height="530.45044"
           x="-187.96396"
           y="85.657661" /></flowRegion><flowPara
         id="flowPara14464" /></flowRoot>    <g
       aria-label="WEEK"
       style="font-style:normal;font-variant:normal;font-weight:normal;font-stretch:normal;font-size:36.41736984px;line-height:1.25;font-family:'DIN 1451 Std';-inkscape-font-specification:'DIN 1451 Std';letter-spacing:0px;word-spacing:0px;fill:#ffffff;fill-opacity:1;stroke:none;stroke-width:0.1896738"
       id="text13726"
       transform="translate(190.56647,-241.38754)">
      <path
         d="m 673.69941,-578.75461 h -3.49607 l -2.84055,-16.82482 h -0.0728 l -2.80413,16.82482 h -3.49607 l -3.86024,-25.92916 h 3.93307 l 1.85729,16.46065 h 0.0728 l 2.91339,-16.46065 h 2.84056 l 3.02264,16.86124 h 0.0728 l 1.78445,-16.86124 h 3.93307 z"
         style="font-style:normal;font-variant:normal;font-weight:normal;font-stretch:normal;font-family:'DIN 1451 Std';-inkscape-font-specification:'DIN 1451 Std';fill:#ffffff;stroke-width:0.1896738;stroke:none"
         id="path13778"
         inkscape:connector-curvature="0" />
      <path
         d="m 679.90128,-604.68377 h 11.07088 v 3.49606 h -7.35631 v 7.61123 h 6.40946 v 3.49607 h -6.40946 v 7.61123 h 7.35631 v 3.71457 h -11.07088 z"
         style="font-style:normal;font-variant:normal;font-weight:normal;font-stretch:normal;font-family:'DIN 1451 Std';-inkscape-font-specification:'DIN 1451 Std';fill:#ffffff;stroke-width:0.1896738;stroke:none"
         id="path13780"
         inkscape:connector-curvature="0" />
      <path
         d="m 693.32801,-604.68377 h 11.07088 v 3.49606 h -7.35631 v 7.61123 h 6.40946 v 3.49607 h -6.40946 v 7.61123 h 7.35631 v 3.71457 h -11.07088 z"
         style="font-style:normal;font-variant:normal;font-weight:normal;font-stretch:normal;font-family:'DIN 1451 Std';-inkscape-font-specification:'DIN 1451 Std';fill:#ffffff;stroke-width:0.1896738;stroke:none"
         id="path13782"
         inkscape:connector-curvature="0" />
      <path
         d="m 706.75447,-604.68377 h 3.71457 v 11.83564 h 0.0728 l 5.42618,-11.83564 h 3.71458 l -5.06202,10.37895 6.00887,15.55021 h -3.93308 l -4.22441,-11.50789 -2.00296,3.75099 v 7.7569 h -3.71457 z"
         style="font-style:normal;font-variant:normal;font-weight:normal;font-stretch:normal;font-family:'DIN 1451 Std';-inkscape-font-specification:'DIN 1451 Std';fill:#ffffff;stroke-width:0.1896738;stroke:none"
         id="path13784"
         inkscape:connector-curvature="0" />
    </g>
    <g
       aria-label="SAT"
       style="font-style:normal;font-variant:normal;font-weight:normal;font-stretch:normal;font-size:35.81376648px;line-height:1.25;font-family:'DIN 1451 Std';-inkscape-font-specification:'DIN 1451 Std';letter-spacing:0px;word-spacing:0px;fill:#ffffff;fill-opacity:1;stroke:none;stroke-width:0.18653004"
       id="text13730"
       transform="translate(143.81877,-184.50303)">
      <path
         d="m 728.58283,-555.05742 h -3.653 v -0.82372 q 0,-1.25348 -0.60884,-2.14882 -0.57302,-0.93116 -1.96975,-0.93116 -0.75209,0 -1.25349,0.28651 -0.46558,0.28651 -0.75209,0.75209 -0.25069,0.42976 -0.35813,1.0386 -0.10744,0.57302 -0.10744,1.21767 0,0.75208 0.0358,1.28929 0.0716,0.50139 0.28651,0.89534 0.21488,0.35814 0.60883,0.64465 0.42977,0.28651 1.14604,0.57302 l 2.79348,1.11023 q 1.21767,0.46558 1.96975,1.11023 0.75209,0.60883 1.14605,1.46836 0.42976,0.82372 0.57302,1.93394 0.14325,1.07442 0.14325,2.47115 0,1.61162 -0.32232,3.00836 -0.32233,1.36092 -1.07442,2.36371 -0.71627,0.96697 -1.93394,1.53999 -1.21767,0.57302 -2.97254,0.57302 -1.32511,0 -2.47115,-0.46558 -1.14604,-0.46558 -1.96976,-1.25348 -0.82372,-0.82372 -1.32511,-1.93394 -0.46558,-1.11023 -0.46558,-2.39953 v -1.36092 h 3.65301 v 1.14604 q 0,1.00279 0.57302,1.8265 0.60883,0.78791 2.00557,0.78791 0.93116,0 1.43255,-0.2507 0.53721,-0.28651 0.7879,-0.75209 0.28651,-0.50139 0.35814,-1.21767 0.0716,-0.71627 0.0716,-1.5758 0,-1.00279 -0.0716,-1.64744 -0.0716,-0.64464 -0.32232,-1.03859 -0.21489,-0.39396 -0.64465,-0.64465 -0.39395,-0.2507 -1.07442,-0.53721 l -2.6144,-1.07441 q -2.36371,-0.96697 -3.18743,-2.54278 -0.7879,-1.61162 -0.7879,-4.01114 0,-1.43255 0.39395,-2.72185 0.39395,-1.28929 1.14604,-2.22045 0.78791,-0.93116 1.96976,-1.46837 1.18185,-0.57302 2.75766,-0.57302 1.36092,0 2.47115,0.5014 1.14604,0.50139 1.93394,1.32511 0.82372,0.82371 1.25349,1.86231 0.42976,1.00279 0.42976,2.0772 z"
         style="font-style:normal;font-variant:normal;font-weight:normal;font-stretch:normal;font-family:'DIN 1451 Std';-inkscape-font-specification:'DIN 1451 Std';fill:#ffffff;stroke:none;stroke-width:0.18653004"
         id="path13787"
         inkscape:connector-curvature="0" />
      <path
         d="m 736.88312,-555.05742 h -0.0716 l -1.79069,9.23995 h 3.65301 z m -1.53999,-7.34182 h 3.04417 l 5.69439,25.4994 h -3.65301 l -1.07441,-5.47951 h -4.97812 l -1.07441,5.47951 h -3.653 z"
         style="font-style:normal;font-variant:normal;font-weight:normal;font-stretch:normal;font-family:'DIN 1451 Std';-inkscape-font-specification:'DIN 1451 Std';fill:#ffffff;stroke:none;stroke-width:0.18653004"
         id="path13789"
         inkscape:connector-curvature="0" />
      <path
         d="m 747.32723,-558.96112 h -4.22602 v -3.43812 h 12.10505 v 3.43812 h -4.22602 v 22.06128 h -3.65301 z"
         style="font-style:normal;font-variant:normal;font-weight:normal;font-stretch:normal;font-family:'DIN 1451 Std';-inkscape-font-specification:'DIN 1451 Std';fill:#ffffff;stroke:none;stroke-width:0.18653004"
         id="path13791"
         inkscape:connector-curvature="0" />
    </g>
    <g
       aria-label="09:00-16:00"
       style="font-style:normal;font-variant:normal;font-weight:normal;font-stretch:normal;font-size:51.16251755px;line-height:1.25;font-family:'DIN 1451 Std';-inkscape-font-specification:'DIN 1451 Std';letter-spacing:0px;word-spacing:0px;fill:#ffffff;fill-opacity:1;stroke:none;stroke-width:0.26647148"
       id="text4588"
       transform="translate(83.792568,-332.54981)">
      <path
         d="m 701.85866,-464.9478 q 0,-1.84185 0.61395,-3.2744 0.66512,-1.43256 1.73953,-2.45581 1.07441,-1.02325 2.4558,-1.53487 1.43255,-0.56279 2.96743,-0.56279 1.53487,0 2.91626,0.56279 1.43255,0.51162 2.50696,1.53487 1.07442,1.02325 1.68837,2.45581 0.66511,1.43255 0.66511,3.2744 v 21.38593 q 0,1.84185 -0.66511,3.2744 -0.61395,1.43255 -1.68837,2.4558 -1.07441,1.02325 -2.50696,1.58604 -1.38139,0.51162 -2.91626,0.51162 -1.53488,0 -2.96743,-0.51162 -1.38139,-0.56279 -2.4558,-1.58604 -1.07441,-1.02325 -1.73953,-2.4558 -0.61395,-1.43255 -0.61395,-3.2744 z m 5.21858,21.38593 q 0,1.12557 0.71628,1.89301 0.71627,0.71628 1.84185,0.71628 1.12557,0 1.84185,-0.71628 0.71627,-0.76744 0.71627,-1.89301 v -21.38593 q 0,-1.12558 -0.71627,-1.84185 -0.71628,-0.76744 -1.84185,-0.76744 -1.12558,0 -1.84185,0.76744 -0.71628,0.71627 -0.71628,1.84185 z"
         style="font-style:normal;font-variant:normal;font-weight:normal;font-stretch:normal;font-family:'DIN 1451 Std';-inkscape-font-specification:'DIN 1451 Std';fill:#ffffff;stroke:none;stroke-width:0.26647148"
         id="path4625"
         inkscape:connector-curvature="0" />
      <path
         d="m 728.67262,-451.33857 -0.10233,-0.10233 q -0.25581,0.20465 -0.8186,0.35814 -0.51162,0.10232 -1.38138,0.10232 -1.38139,0 -2.55813,-0.66511 -1.17674,-0.66511 -1.84185,-1.68836 -0.35814,-0.51163 -0.56279,-1.07442 -0.20465,-0.61395 -0.35814,-1.53487 -0.10232,-0.92093 -0.15348,-2.30231 -0.0512,-1.43255 -0.0512,-3.58138 0,-1.79069 0.0512,-2.91626 0.0512,-1.17674 0.15348,-1.94418 0.15349,-0.8186 0.35814,-1.38139 0.25581,-0.56279 0.61395,-1.17674 1.02325,-1.68836 2.71161,-2.60928 1.73953,-0.92093 3.88836,-0.92093 2.14882,0 3.83718,0.97209 1.68837,0.92092 2.71162,2.55812 0.35814,0.61395 0.61395,1.17674 0.25581,0.56279 0.35814,1.38139 0.15348,0.76744 0.20465,1.94418 0.0512,1.12557 0.0512,2.91626 0,1.68836 -0.0512,2.81394 -0.0512,1.07441 -0.20465,1.89301 -0.10233,0.76744 -0.30698,1.43255 -0.15349,0.61395 -0.4093,1.33023 l -6.85578,18.31618 h -5.83252 z m -2.60929,-6.85578 q 0,1.17674 0.76744,1.89301 0.76744,0.71628 1.79069,0.71628 1.02325,0 1.79068,-0.71628 0.76744,-0.71627 0.76744,-1.89301 v -6.75345 q 0,-1.17674 -0.76744,-1.89302 -0.76743,-0.71627 -1.79068,-0.71627 -1.02325,0 -1.79069,0.71627 -0.76744,0.71628 -0.76744,1.89302 z"
         style="font-style:normal;font-variant:normal;font-weight:normal;font-stretch:normal;font-family:'DIN 1451 Std';-inkscape-font-specification:'DIN 1451 Std';fill:#ffffff;stroke:none;stroke-width:0.26647148"
         id="path4627"
         inkscape:connector-curvature="0" />
      <path
         d="m 740.24014,-446.24426 h 5.21858 v 5.21858 h -5.21858 z m 0,-11.61389 h 5.21858 v 5.21858 h -5.21858 z"
         style="font-style:normal;font-variant:normal;font-weight:normal;font-stretch:normal;font-family:'DIN 1451 Std';-inkscape-font-specification:'DIN 1451 Std';fill:#ffffff;stroke:none;stroke-width:0.26647148"
         id="path4629"
         inkscape:connector-curvature="0" />
      <path
         d="m 749.42381,-464.9478 q 0,-1.84185 0.61395,-3.2744 0.66512,-1.43256 1.73953,-2.45581 1.07441,-1.02325 2.4558,-1.53487 1.43255,-0.56279 2.96743,-0.56279 1.53487,0 2.91626,0.56279 1.43255,0.51162 2.50696,1.53487 1.07442,1.02325 1.68837,2.45581 0.66511,1.43255 0.66511,3.2744 v 21.38593 q 0,1.84185 -0.66511,3.2744 -0.61395,1.43255 -1.68837,2.4558 -1.07441,1.02325 -2.50696,1.58604 -1.38139,0.51162 -2.91626,0.51162 -1.53488,0 -2.96743,-0.51162 -1.38139,-0.56279 -2.4558,-1.58604 -1.07441,-1.02325 -1.73953,-2.4558 -0.61395,-1.43255 -0.61395,-3.2744 z m 5.21858,21.38593 q 0,1.12557 0.71628,1.89301 0.71627,0.71628 1.84185,0.71628 1.12557,0 1.84185,-0.71628 0.71627,-0.76744 0.71627,-1.89301 v -21.38593 q 0,-1.12558 -0.71627,-1.84185 -0.71628,-0.76744 -1.84185,-0.76744 -1.12558,0 -1.84185,0.76744 -0.71628,0.71627 -0.71628,1.84185 z"
         style="font-style:normal;font-variant:normal;font-weight:normal;font-stretch:normal;font-family:'DIN 1451 Std';-inkscape-font-specification:'DIN 1451 Std';fill:#ffffff;stroke:none;stroke-width:0.26647148"
         id="path4631"
         inkscape:connector-curvature="0" />
      <path
         d="m 768.4099,-464.9478 q 0,-1.84185 0.61395,-3.2744 0.66512,-1.43256 1.73953,-2.45581 1.07441,-1.02325 2.4558,-1.53487 1.43255,-0.56279 2.96743,-0.56279 1.53487,0 2.91626,0.56279 1.43255,0.51162 2.50696,1.53487 1.07441,1.02325 1.68837,2.45581 0.66511,1.43255 0.66511,3.2744 v 21.38593 q 0,1.84185 -0.66511,3.2744 -0.61396,1.43255 -1.68837,2.4558 -1.07441,1.02325 -2.50696,1.58604 -1.38139,0.51162 -2.91626,0.51162 -1.53488,0 -2.96743,-0.51162 -1.38139,-0.56279 -2.4558,-1.58604 -1.07441,-1.02325 -1.73953,-2.4558 -0.61395,-1.43255 -0.61395,-3.2744 z m 5.21858,21.38593 q 0,1.12557 0.71627,1.89301 0.71628,0.71628 1.84186,0.71628 1.12557,0 1.84185,-0.71628 0.71627,-0.76744 0.71627,-1.89301 v -21.38593 q 0,-1.12558 -0.71627,-1.84185 -0.71628,-0.76744 -1.84185,-0.76744 -1.12558,0 -1.84186,0.76744 -0.71627,0.71627 -0.71627,1.84185 z"
         style="font-style:normal;font-variant:normal;font-weight:normal;font-stretch:normal;font-family:'DIN 1451 Std';-inkscape-font-specification:'DIN 1451 Std';fill:#ffffff;stroke:none;stroke-width:0.26647148"
         id="path4633"
         inkscape:connector-curvature="0" />
      <path
         d="m 787.88857,-452.06509 h 15.39992 v 5.21858 h -15.39992 z"
         style="font-style:normal;font-variant:normal;font-weight:normal;font-stretch:normal;font-family:'DIN 1451 Std';-inkscape-font-specification:'DIN 1451 Std';fill:#ffffff;stroke:none;stroke-width:0.26647148"
         id="path4635"
         inkscape:connector-curvature="0" />
      <path
         d="m 813.53418,-466.94314 -5.21858,3.83719 v -5.52556 l 5.21858,-3.83718 h 5.21857 v 36.42771 h -5.21857 z"
         style="font-style:normal;font-variant:normal;font-weight:normal;font-stretch:normal;font-family:'DIN 1451 Std';-inkscape-font-specification:'DIN 1451 Std';fill:#ffffff;stroke:none;stroke-width:0.26647148"
         id="path4637"
         inkscape:connector-curvature="0" />
      <path
         d="m 834.05515,-457.1711 0.10232,0.10232 q 0.25581,-0.20465 0.76744,-0.30697 0.56279,-0.15349 1.43255,-0.15349 1.38139,0 2.55812,0.66511 1.17674,0.66512 1.84185,1.68837 0.35814,0.56278 0.56279,1.12557 0.20465,0.56279 0.30698,1.48372 0.15349,0.92092 0.20465,2.35347 0.0512,1.38139 0.0512,3.53022 0,1.79068 -0.0512,2.96742 -0.0512,1.12558 -0.20465,1.94418 -0.10233,0.76743 -0.35814,1.33022 -0.20465,0.56279 -0.56279,1.17674 -1.02325,1.68836 -2.76277,2.60929 -1.68837,0.92092 -3.83719,0.92092 -2.14883,0 -3.83719,-0.92092 -1.68836,-0.97209 -2.71161,-2.60929 -0.4093,-0.61395 -0.66512,-1.17674 -0.20465,-0.56279 -0.35813,-1.33022 -0.10233,-0.8186 -0.15349,-1.94418 -0.0512,-1.17674 -0.0512,-2.96742 0,-1.68837 0.0512,-2.76278 0.0512,-1.12558 0.15349,-1.89301 0.10232,-0.8186 0.30697,-1.43255 0.20465,-0.66512 0.46046,-1.38139 l 6.85578,-18.31618 H 839.99 Z m 2.60928,6.85578 q 0,-1.17674 -0.76743,-1.89302 -0.76744,-0.71627 -1.79069,-0.71627 -1.02325,0 -1.79069,0.71627 -0.76744,0.71628 -0.76744,1.89302 v 6.75345 q 0,1.17674 0.76744,1.89301 0.76744,0.71628 1.79069,0.71628 1.02325,0 1.79069,-0.71628 0.76743,-0.71627 0.76743,-1.89301 z"
         style="font-style:normal;font-variant:normal;font-weight:normal;font-stretch:normal;font-family:'DIN 1451 Std';-inkscape-font-specification:'DIN 1451 Std';fill:#ffffff;stroke:none;stroke-width:0.26647148"
         id="path4639"
         inkscape:connector-curvature="0" />
      <path
         d="m 845.725,-446.24426 h 5.21857 v 5.21858 H 845.725 Z m 0,-11.61389 h 5.21857 v 5.21858 H 845.725 Z"
         style="font-style:normal;font-variant:normal;font-weight:normal;font-stretch:normal;font-family:'DIN 1451 Std';-inkscape-font-specification:'DIN 1451 Std';fill:#ffffff;stroke:none;stroke-width:0.26647148"
         id="path4641"
         inkscape:connector-curvature="0" />
      <path
         d="m 854.90867,-464.9478 q 0,-1.84185 0.61395,-3.2744 0.66511,-1.43256 1.73952,-2.45581 1.07442,-1.02325 2.45581,-1.53487 1.43255,-0.56279 2.96742,-0.56279 1.53488,0 2.91626,0.56279 1.43256,0.51162 2.50697,1.53487 1.07441,1.02325 1.68836,2.45581 0.66511,1.43255 0.66511,3.2744 v 21.38593 q 0,1.84185 -0.66511,3.2744 -0.61395,1.43255 -1.68836,2.4558 -1.07441,1.02325 -2.50697,1.58604 -1.38138,0.51162 -2.91626,0.51162 -1.53487,0 -2.96742,-0.51162 -1.38139,-0.56279 -2.45581,-1.58604 -1.07441,-1.02325 -1.73952,-2.4558 -0.61395,-1.43255 -0.61395,-3.2744 z m 5.21858,21.38593 q 0,1.12557 0.71627,1.89301 0.71628,0.71628 1.84185,0.71628 1.12558,0 1.84185,-0.71628 0.71628,-0.76744 0.71628,-1.89301 v -21.38593 q 0,-1.12558 -0.71628,-1.84185 -0.71627,-0.76744 -1.84185,-0.76744 -1.12557,0 -1.84185,0.76744 -0.71627,0.71627 -0.71627,1.84185 z"
         style="font-style:normal;font-variant:normal;font-weight:normal;font-stretch:normal;font-family:'DIN 1451 Std';-inkscape-font-specification:'DIN 1451 Std';fill:#ffffff;stroke:none;stroke-width:0.26647148"
         id="path4643"
         inkscape:connector-curvature="0" />
      <path
         d="m 873.89475,-464.9478 q 0,-1.84185 0.61395,-3.2744 0.66512,-1.43256 1.73953,-2.45581 1.07441,-1.02325 2.4558,-1.53487 1.43255,-0.56279 2.96743,-0.56279 1.53487,0 2.91626,0.56279 1.43255,0.51162 2.50696,1.53487 1.07441,1.02325 1.68836,2.45581 0.66512,1.43255 0.66512,3.2744 v 21.38593 q 0,1.84185 -0.66512,3.2744 -0.61395,1.43255 -1.68836,2.4558 -1.07441,1.02325 -2.50696,1.58604 -1.38139,0.51162 -2.91626,0.51162 -1.53488,0 -2.96743,-0.51162 -1.38139,-0.56279 -2.4558,-1.58604 -1.07441,-1.02325 -1.73953,-2.4558 -0.61395,-1.43255 -0.61395,-3.2744 z m 5.21858,21.38593 q 0,1.12557 0.71627,1.89301 0.71628,0.71628 1.84186,0.71628 1.12557,0 1.84185,-0.71628 0.71627,-0.76744 0.71627,-1.89301 v -21.38593 q 0,-1.12558 -0.71627,-1.84185 -0.71628,-0.76744 -1.84185,-0.76744 -1.12558,0 -1.84186,0.76744 -0.71627,0.71627 -0.71627,1.84185 z"
         style="font-style:normal;font-variant:normal;font-weight:normal;font-stretch:normal;font-family:'DIN 1451 Std';-inkscape-font-specification:'DIN 1451 Std';fill:#ffffff;stroke:none;stroke-width:0.26647148"
         id="path4645"
         inkscape:connector-curvature="0" />
    </g>
    <g
       aria-label="08:00-13:00"
       style="font-style:normal;font-variant:normal;font-weight:normal;font-stretch:normal;font-size:51.16251755px;line-height:1.25;font-family:'DIN 1451 Std';-inkscape-font-specification:'DIN 1451 Std';letter-spacing:0px;word-spacing:0px;fill:#ffffff;fill-opacity:1;stroke:none;stroke-width:0.26647148"
       id="text4592"
       transform="translate(97.824168,-339.41767)">
      <path
         d="m 687.82701,-359.12578 q 0,-1.84185 0.61395,-3.2744 0.66512,-1.43256 1.73953,-2.45581 1.07441,-1.02325 2.4558,-1.53487 1.43255,-0.56279 2.96743,-0.56279 1.53487,0 2.91626,0.56279 1.43255,0.51162 2.50696,1.53487 1.07442,1.02325 1.68837,2.45581 0.66511,1.43255 0.66511,3.2744 v 21.38593 q 0,1.84185 -0.66511,3.2744 -0.61395,1.43255 -1.68837,2.4558 -1.07441,1.02325 -2.50696,1.58604 -1.38139,0.51162 -2.91626,0.51162 -1.53488,0 -2.96743,-0.51162 -1.38139,-0.56279 -2.4558,-1.58604 -1.07441,-1.02325 -1.73953,-2.4558 -0.61395,-1.43255 -0.61395,-3.2744 z m 5.21858,21.38593 q 0,1.12557 0.71628,1.89301 0.71627,0.71628 1.84185,0.71628 1.12557,0 1.84185,-0.71628 0.71627,-0.76744 0.71627,-1.89301 v -21.38593 q 0,-1.12558 -0.71627,-1.84185 -0.71628,-0.76744 -1.84185,-0.76744 -1.12558,0 -1.84185,0.76744 -0.71628,0.71627 -0.71628,1.84185 z"
         style="font-style:normal;font-variant:normal;font-weight:normal;font-stretch:normal;font-family:'DIN 1451 Std';-inkscape-font-specification:'DIN 1451 Std';fill:#ffffff;stroke:none;stroke-width:0.26647148"
         id="path4602"
         inkscape:connector-curvature="0" />
      <path
         d="m 717.14793,-359.17695 q 0,-1.07441 -0.76744,-1.79068 -0.76743,-0.76744 -1.79068,-0.76744 -1.02325,0 -1.79069,0.76744 -0.76744,0.71627 -0.76744,1.79068 v 5.32091 q 0,1.07441 0.76744,1.84185 0.76744,0.71627 1.79069,0.71627 1.02325,0 1.79068,-0.71627 0.76744,-0.76744 0.76744,-1.84185 z m -10.33483,2.0465 q 0,-1.48371 0.10233,-2.50696 0.10232,-1.07441 0.30697,-1.84185 0.25582,-0.76744 0.61395,-1.38139 0.35814,-0.61395 0.86977,-1.27906 1.02325,-1.33023 2.55812,-2.0465 1.53488,-0.76744 3.32557,-0.76744 1.79068,0 3.32556,0.76744 1.53488,0.71627 2.55813,2.0465 0.51162,0.66511 0.86976,1.27906 0.35814,0.61395 0.56279,1.38139 0.25581,0.76744 0.35813,1.84185 0.10233,1.02325 0.10233,2.50696 0,1.6372 -0.0512,2.76278 -0.0512,1.12558 -0.30698,1.99534 -0.25581,0.86976 -0.8186,1.58604 -0.51162,0.66511 -1.43255,1.43255 0.92093,0.71627 1.43255,1.43255 0.56279,0.71627 0.8186,1.68836 0.25581,0.97209 0.30698,2.40464 0.0512,1.38139 0.0512,3.42789 0,1.68836 -0.10233,2.81394 -0.0512,1.07441 -0.20465,1.89301 -0.15348,0.8186 -0.46046,1.38139 -0.25581,0.56278 -0.66511,1.17674 -0.86976,1.33022 -2.4558,2.30231 -1.58604,0.92092 -3.88835,0.92092 -2.30232,0 -3.88836,-0.92092 -1.58603,-0.97209 -2.4558,-2.30231 -0.4093,-0.61396 -0.71627,-1.17674 -0.25581,-0.56279 -0.4093,-1.38139 -0.15349,-0.8186 -0.25581,-1.89301 -0.0512,-1.12558 -0.0512,-2.81394 0,-2.0465 0.0512,-3.42789 0.0512,-1.43255 0.30697,-2.40464 0.25581,-0.97209 0.76744,-1.68836 0.56279,-0.71628 1.48371,-1.43255 -0.92092,-0.76744 -1.48371,-1.43255 -0.51163,-0.71628 -0.76744,-1.58604 -0.25581,-0.86976 -0.30697,-1.99534 -0.0512,-1.12558 -0.0512,-2.76278 z m 10.33483,12.27901 q 0,-1.07441 -0.76744,-1.79069 -0.76743,-0.76744 -1.79068,-0.76744 -1.02325,0 -1.79069,0.76744 -0.76744,0.71628 -0.76744,1.79069 v 7.16275 q 0,1.07441 0.76744,1.84185 0.76744,0.71628 1.79069,0.71628 1.02325,0 1.79068,-0.71628 0.76744,-0.76744 0.76744,-1.84185 z"
         style="font-style:normal;font-variant:normal;font-weight:normal;font-stretch:normal;font-family:'DIN 1451 Std';-inkscape-font-specification:'DIN 1451 Std';fill:#ffffff;stroke:none;stroke-width:0.26647148"
         id="path4604"
         inkscape:connector-curvature="0" />
      <path
         d="m 726.20849,-340.42224 h 5.21858 v 5.21858 h -5.21858 z m 0,-11.61389 h 5.21858 v 5.21858 h -5.21858 z"
         style="font-style:normal;font-variant:normal;font-weight:normal;font-stretch:normal;font-family:'DIN 1451 Std';-inkscape-font-specification:'DIN 1451 Std';fill:#ffffff;stroke:none;stroke-width:0.26647148"
         id="path4606"
         inkscape:connector-curvature="0" />
      <path
         d="m 735.39216,-359.12578 q 0,-1.84185 0.61395,-3.2744 0.66512,-1.43256 1.73953,-2.45581 1.07441,-1.02325 2.4558,-1.53487 1.43255,-0.56279 2.96743,-0.56279 1.53487,0 2.91626,0.56279 1.43255,0.51162 2.50696,1.53487 1.07442,1.02325 1.68837,2.45581 0.66511,1.43255 0.66511,3.2744 v 21.38593 q 0,1.84185 -0.66511,3.2744 -0.61395,1.43255 -1.68837,2.4558 -1.07441,1.02325 -2.50696,1.58604 -1.38139,0.51162 -2.91626,0.51162 -1.53488,0 -2.96743,-0.51162 -1.38139,-0.56279 -2.4558,-1.58604 -1.07441,-1.02325 -1.73953,-2.4558 -0.61395,-1.43255 -0.61395,-3.2744 z m 5.21858,21.38593 q 0,1.12557 0.71628,1.89301 0.71627,0.71628 1.84185,0.71628 1.12557,0 1.84185,-0.71628 0.71627,-0.76744 0.71627,-1.89301 v -21.38593 q 0,-1.12558 -0.71627,-1.84185 -0.71628,-0.76744 -1.84185,-0.76744 -1.12558,0 -1.84185,0.76744 -0.71628,0.71627 -0.71628,1.84185 z"
         style="font-style:normal;font-variant:normal;font-weight:normal;font-stretch:normal;font-family:'DIN 1451 Std';-inkscape-font-specification:'DIN 1451 Std';fill:#ffffff;stroke:none;stroke-width:0.26647148"
         id="path4608"
         inkscape:connector-curvature="0" />
      <path
         d="m 754.37825,-359.12578 q 0,-1.84185 0.61395,-3.2744 0.66512,-1.43256 1.73953,-2.45581 1.07441,-1.02325 2.4558,-1.53487 1.43255,-0.56279 2.96743,-0.56279 1.53487,0 2.91626,0.56279 1.43255,0.51162 2.50696,1.53487 1.07441,1.02325 1.68837,2.45581 0.66511,1.43255 0.66511,3.2744 v 21.38593 q 0,1.84185 -0.66511,3.2744 -0.61396,1.43255 -1.68837,2.4558 -1.07441,1.02325 -2.50696,1.58604 -1.38139,0.51162 -2.91626,0.51162 -1.53488,0 -2.96743,-0.51162 -1.38139,-0.56279 -2.4558,-1.58604 -1.07441,-1.02325 -1.73953,-2.4558 -0.61395,-1.43255 -0.61395,-3.2744 z m 5.21858,21.38593 q 0,1.12557 0.71627,1.89301 0.71628,0.71628 1.84186,0.71628 1.12557,0 1.84185,-0.71628 0.71627,-0.76744 0.71627,-1.89301 v -21.38593 q 0,-1.12558 -0.71627,-1.84185 -0.71628,-0.76744 -1.84185,-0.76744 -1.12558,0 -1.84186,0.76744 -0.71627,0.71627 -0.71627,1.84185 z"
         style="font-style:normal;font-variant:normal;font-weight:normal;font-stretch:normal;font-family:'DIN 1451 Std';-inkscape-font-specification:'DIN 1451 Std';fill:#ffffff;stroke:none;stroke-width:0.26647148"
         id="path4610"
         inkscape:connector-curvature="0" />
      <path
         d="m 773.85692,-346.24307 h 15.39992 v 5.21858 h -15.39992 z"
         style="font-style:normal;font-variant:normal;font-weight:normal;font-stretch:normal;font-family:'DIN 1451 Std';-inkscape-font-specification:'DIN 1451 Std';fill:#ffffff;stroke:none;stroke-width:0.26647148"
         id="path4612"
         inkscape:connector-curvature="0" />
      <path
         d="m 799.50253,-361.12112 -5.21858,3.83719 v -5.52556 l 5.21858,-3.83718 h 5.21857 v 36.42771 h -5.21857 z"
         style="font-style:normal;font-variant:normal;font-weight:normal;font-stretch:normal;font-family:'DIN 1451 Std';-inkscape-font-specification:'DIN 1451 Std';fill:#ffffff;stroke:none;stroke-width:0.26647148"
         id="path4614"
         inkscape:connector-curvature="0" />
      <path
         d="m 818.48862,-351.29792 q 2.35348,0 3.22324,-0.56279 0.92092,-0.56278 0.92092,-2.60928 v -4.70696 q 0,-1.12557 -0.71627,-1.84185 -0.66511,-0.71627 -1.84185,-0.71627 -1.38139,0 -1.99534,0.86976 -0.56279,0.86976 -0.56279,1.68836 v 2.96743 h -5.21858 v -3.01859 q 0,-1.58604 0.61396,-3.01859 0.61395,-1.43255 1.68836,-2.4558 1.07441,-1.02325 2.50696,-1.6372 1.43255,-0.61395 3.06975,-0.61395 2.14883,0 3.53022,0.86976 1.43255,0.8186 2.14882,1.68837 0.51163,0.61395 0.86976,1.27906 0.40931,0.61395 0.61396,1.48371 0.25581,0.8186 0.35813,2.0465 0.15349,1.17674 0.15349,2.91627 0,1.89301 -0.10232,3.06975 -0.0512,1.17674 -0.4093,1.99534 -0.30698,0.76743 -0.97209,1.33022 -0.61395,0.56279 -1.73953,1.2279 1.2279,0.76744 1.84185,1.43255 0.66512,0.66512 0.97209,1.58604 0.30698,0.86976 0.35814,2.14883 0.0512,1.2279 0.0512,3.17207 0,1.79069 -0.10232,2.96743 -0.0512,1.17674 -0.20465,1.99534 -0.15349,0.76743 -0.4093,1.33022 -0.25582,0.56279 -0.66512,1.17674 -0.97209,1.43255 -2.50696,2.40464 -1.53488,0.92092 -3.93951,0.92092 -1.22791,0 -2.60929,-0.4093 -1.38139,-0.4093 -2.50697,-1.33022 -1.12557,-0.92093 -1.89301,-2.40464 -0.71628,-1.48371 -0.71628,-3.63254 v -2.96742 h 5.21858 v 2.71161 q 0,1.2279 0.66511,2.0465 0.71628,0.76744 1.89302,0.76744 1.17674,0 1.84185,-0.76744 0.71627,-0.8186 0.71627,-2.14883 v -5.21857 q 0,-1.07442 -0.20465,-1.73953 -0.15348,-0.66511 -0.61395,-1.02325 -0.46046,-0.4093 -1.27906,-0.51162 -0.76744,-0.15349 -2.0465,-0.15349 z"
         style="font-style:normal;font-variant:normal;font-weight:normal;font-stretch:normal;font-family:'DIN 1451 Std';-inkscape-font-specification:'DIN 1451 Std';fill:#ffffff;stroke:none;stroke-width:0.26647148"
         id="path4616"
         inkscape:connector-curvature="0" />
      <path
         d="m 831.69335,-340.42224 h 5.21857 v 5.21858 h -5.21857 z m 0,-11.61389 h 5.21857 v 5.21858 h -5.21857 z"
         style="font-style:normal;font-variant:normal;font-weight:normal;font-stretch:normal;font-family:'DIN 1451 Std';-inkscape-font-specification:'DIN 1451 Std';fill:#ffffff;stroke:none;stroke-width:0.26647148"
         id="path4618"
         inkscape:connector-curvature="0" />
      <path
         d="m 840.87702,-359.12578 q 0,-1.84185 0.61395,-3.2744 0.66511,-1.43256 1.73952,-2.45581 1.07442,-1.02325 2.45581,-1.53487 1.43255,-0.56279 2.96742,-0.56279 1.53488,0 2.91626,0.56279 1.43256,0.51162 2.50697,1.53487 1.07441,1.02325 1.68836,2.45581 0.66511,1.43255 0.66511,3.2744 v 21.38593 q 0,1.84185 -0.66511,3.2744 -0.61395,1.43255 -1.68836,2.4558 -1.07441,1.02325 -2.50697,1.58604 -1.38138,0.51162 -2.91626,0.51162 -1.53487,0 -2.96742,-0.51162 -1.38139,-0.56279 -2.45581,-1.58604 -1.07441,-1.02325 -1.73952,-2.4558 -0.61395,-1.43255 -0.61395,-3.2744 z m 5.21858,21.38593 q 0,1.12557 0.71627,1.89301 0.71628,0.71628 1.84185,0.71628 1.12558,0 1.84185,-0.71628 0.71628,-0.76744 0.71628,-1.89301 v -21.38593 q 0,-1.12558 -0.71628,-1.84185 -0.71627,-0.76744 -1.84185,-0.76744 -1.12557,0 -1.84185,0.76744 -0.71627,0.71627 -0.71627,1.84185 z"
         style="font-style:normal;font-variant:normal;font-weight:normal;font-stretch:normal;font-family:'DIN 1451 Std';-inkscape-font-specification:'DIN 1451 Std';fill:#ffffff;stroke:none;stroke-width:0.26647148"
         id="path4620"
         inkscape:connector-curvature="0" />
      <path
         d="m 859.8631,-359.12578 q 0,-1.84185 0.61395,-3.2744 0.66512,-1.43256 1.73953,-2.45581 1.07441,-1.02325 2.4558,-1.53487 1.43255,-0.56279 2.96743,-0.56279 1.53487,0 2.91626,0.56279 1.43255,0.51162 2.50696,1.53487 1.07441,1.02325 1.68836,2.45581 0.66512,1.43255 0.66512,3.2744 v 21.38593 q 0,1.84185 -0.66512,3.2744 -0.61395,1.43255 -1.68836,2.4558 -1.07441,1.02325 -2.50696,1.58604 -1.38139,0.51162 -2.91626,0.51162 -1.53488,0 -2.96743,-0.51162 -1.38139,-0.56279 -2.4558,-1.58604 -1.07441,-1.02325 -1.73953,-2.4558 -0.61395,-1.43255 -0.61395,-3.2744 z m 5.21858,21.38593 q 0,1.12557 0.71627,1.89301 0.71628,0.71628 1.84186,0.71628 1.12557,0 1.84185,-0.71628 0.71627,-0.76744 0.71627,-1.89301 v -21.38593 q 0,-1.12558 -0.71627,-1.84185 -0.71628,-0.76744 -1.84185,-0.76744 -1.12558,0 -1.84186,0.76744 -0.71627,0.71627 -0.71627,1.84185 z"
         style="font-style:normal;font-variant:normal;font-weight:normal;font-stretch:normal;font-family:'DIN 1451 Std';-inkscape-font-specification:'DIN 1451 Std';fill:#ffffff;stroke:none;stroke-width:0.26647148"
         id="path4622"
         inkscape:connector-curvature="0" />
    </g>
    <g
       aria-label="30"
       style="font-style:normal;font-variant:normal;font-weight:normal;font-stretch:normal;font-size:76.78272247px;line-height:1.25;font-family:'DIN 1451 Mittelschrift';-inkscape-font-specification:'DIN 1451 Mittelschrift';letter-spacing:0px;word-spacing:0px;fill:#ffffff;fill-opacity:1;stroke:none;stroke-width:0.39991"
       id="text4596"
       transform="translate(17.375829,-10.583276)">
      <path
         d="m 787.27983,-881.81154 v -6.89845 h 2.69939 q 3.89913,0 6.14862,-2.17451 2.28699,-2.212 2.28699,-5.58624 0,-3.33675 -2.36197,-5.62373 -2.36197,-2.28699 -5.62374,-2.28699 -2.47444,0 -4.68644,1.64963 -2.212,1.64963 -2.84936,4.94889 h -7.83574 q 0.4499,-5.77371 4.83641,-10.08524 4.38652,-4.34902 10.2352,-4.34902 7.31086,0 11.69737,4.83641 4.424,4.79892 4.424,10.76008 0,3.14929 -1.23722,6.14862 -1.23722,2.96183 -4.61146,5.13634 3.44922,2.21201 4.94889,5.43628 1.49966,3.22428 1.49966,6.52353 0,7.64828 -4.79892,12.18476 -4.79892,4.53648 -11.77235,4.53648 -5.54875,0 -10.01025,-3.5617 -4.42401,-3.59919 -5.51126,-10.46014 h 7.83574 q 1.08725,2.81186 2.92434,4.53647 1.83708,1.68713 5.21133,1.68713 3.26176,0 5.7737,-2.28699 2.51193,-2.32448 2.51193,-6.37357 0,-4.08658 -2.51193,-6.37356 -2.47445,-2.32448 -5.92367,-2.32448 z"
         style="font-style:normal;font-variant:normal;font-weight:normal;font-stretch:normal;font-family:'DIN 1451 Mittelschrift';-inkscape-font-specification:'DIN 1451 Mittelschrift';fill:#ffffff;stroke-width:0.39991;stroke:none"
         id="path4648"
         inkscape:connector-curvature="0" />
      <path
         d="m 836.61873,-872.81356 v -23.20728 q 0,-3.93662 -2.13702,-6.14862 -2.09953,-2.212 -5.54875,-2.212 -3.48672,0 -5.58624,2.212 -2.09953,2.212 -2.09953,6.14862 v 23.20728 q 0,3.9741 2.09953,6.1861 2.09952,2.17452 5.58624,2.17452 3.44922,0 5.54875,-2.17452 2.13702,-2.212 2.13702,-6.1861 z m -23.20728,0.4499 v -24.10708 q 0,-7.5358 4.72394,-11.62238 4.72394,-4.12408 10.79757,-4.12408 6.03614,0 10.76008,4.12408 4.76143,4.08658 4.76143,11.62238 v 24.10708 q 0,7.5358 -4.76143,11.62238 -4.72394,4.08658 -10.76008,4.08658 -6.07363,0 -10.79757,-4.08658 -4.72394,-4.08658 -4.72394,-11.62238 z"
         style="font-style:normal;font-variant:normal;font-weight:normal;font-stretch:normal;font-family:'DIN 1451 Mittelschrift';-inkscape-font-specification:'DIN 1451 Mittelschrift';fill:#ffffff;stroke-width:0.39991;stroke:none"
         id="path4650"
         inkscape:connector-curvature="0" />
    </g>
    <g
       aria-label="min"
       style="font-style:normal;font-variant:normal;font-weight:normal;font-stretch:normal;font-size:50.57917786px;line-height:1.25;font-family:'DIN 1451 Mittelschrift';-inkscape-font-specification:'DIN 1451 Mittelschrift';letter-spacing:0px;word-spacing:0px;fill:#ffffff;fill-opacity:1;stroke:none;stroke-width:0.26343322"
       id="text4600">
      <path
         d="m 891.45779,-867.23794 v -25.63534 h 5.16164 v 2.74135 h 0.0988 q 2.44499,-3.03771 6.66815,-3.03771 2.69196,0 4.27256,0.96317 1.5806,0.96318 2.96362,2.3709 3.03772,-3.33407 8.10057,-3.33407 2.98833,0 5.75437,2.27211 2.79075,2.27211 2.79075,6.61876 v 17.04083 h -5.16164 v -15.26266 q 0,-2.59317 -1.45712,-4.05029 -1.45711,-1.45711 -3.60574,-1.45711 -2.22272,0 -3.67983,1.45711 -1.43242,1.45712 -1.43242,4.05029 v 15.26266 h -5.13695 v -15.26266 q 0,-2.59317 -1.45712,-4.05029 -1.45711,-1.45711 -3.60574,-1.45711 -2.22272,0 -3.67983,1.45711 -1.43242,1.45712 -1.43242,4.05029 v 15.26266 z"
         style="font-style:normal;font-variant:normal;font-weight:normal;font-stretch:normal;font-family:'DIN 1451 Mittelschrift';-inkscape-font-specification:'DIN 1451 Mittelschrift';fill:#ffffff;stroke-width:0.26343322;stroke:none"
         id="path4528" />
      <path
         d="m 934.28215,-867.23794 v -25.63534 h 5.16164 v 25.63534 z m 0,-30.82168 v -5.16165 h 5.16164 v 5.16165 z"
         style="font-style:normal;font-variant:normal;font-weight:normal;font-stretch:normal;font-family:'DIN 1451 Mittelschrift';-inkscape-font-specification:'DIN 1451 Mittelschrift';fill:#ffffff;stroke-width:0.26343322;stroke:none"
         id="path4530" />
      <path
         d="m 946.28482,-867.23794 v -25.63534 h 5.16165 v 2.74135 h 0.0988 q 2.3956,-3.03771 6.66816,-3.03771 2.98832,0 5.75437,2.27211 2.79074,2.27211 2.79074,6.61876 v 17.04083 h -5.16164 v -15.26266 q 0,-2.59317 -1.45712,-4.05029 -1.43241,-1.45711 -3.58104,-1.45711 -2.22272,0 -3.67983,1.45711 -1.43242,1.45712 -1.43242,4.05029 v 15.26266 z"
         style="font-style:normal;font-variant:normal;font-weight:normal;font-stretch:normal;font-family:'DIN 1451 Mittelschrift';-inkscape-font-specification:'DIN 1451 Mittelschrift';fill:#ffffff;stroke-width:0.26343322;stroke:none"
         id="path4532" />
    </g>
  </g>
</svg>
