<?xml version="1.0" encoding="UTF-8" standalone="no"?>
<!-- Created with Inkscape (http://www.inkscape.org/) -->

<svg
   xmlns:dc="http://purl.org/dc/elements/1.1/"
   xmlns:cc="http://creativecommons.org/ns#"
   xmlns:rdf="http://www.w3.org/1999/02/22-rdf-syntax-ns#"
   xmlns:svg="http://www.w3.org/2000/svg"
   xmlns="http://www.w3.org/2000/svg"
   xmlns:sodipodi="http://sodipodi.sourceforge.net/DTD/sodipodi-0.dtd"
   xmlns:inkscape="http://www.inkscape.org/namespaces/inkscape"
   width="900"
   height="600"
   viewBox="0 0 238.12496 158.75001"
   version="1.1"
   id="svg8"
   inkscape:version="0.92.1 r15371"
   sodipodi:docname="66.svg">
  <defs
     id="defs2" />
  <sodipodi:namedview
     id="base"
     pagecolor="#ffffff"
     bordercolor="#666666"
     borderopacity="1.0"
     inkscape:pageopacity="0.0"
     inkscape:pageshadow="2"
     inkscape:zoom="0.6"
     inkscape:cx="809.83881"
     inkscape:cy="280.70077"
     inkscape:document-units="px"
     inkscape:current-layer="layer1"
     showgrid="false"
     units="px"
     fit-margin-top="0"
     fit-margin-left="0"
     fit-margin-right="0"
     fit-margin-bottom="0"
     inkscape:window-width="1920"
     inkscape:window-height="1057"
     inkscape:window-x="-8"
     inkscape:window-y="-8"
     inkscape:window-maximized="1"
     inkscape:snap-global="false"
     showguides="false" />
  <metadata
     id="metadata5">
    <rdf:RDF>
      <cc:Work
         rdf:about="">
        <dc:format>image/svg+xml</dc:format>
        <dc:type
           rdf:resource="http://purl.org/dc/dcmitype/StillImage" />
        <dc:title></dc:title>
      </cc:Work>
    </rdf:RDF>
  </metadata>
  <g
     inkscape:label="Layer 1"
     inkscape:groupmode="layer"
     id="layer1"
     transform="translate(-770.96686,998.4713)">
    <rect
       style="fill:#00559b;fill-opacity:1;stroke:none;stroke-width:0.16947664"
       id="rect10"
       width="238.125"
       height="158.75"
       x="770.96686"
       y="-998.47131" />
    <rect
       y="-998.47131"
       x="770.96686"
       height="158.75"
       width="238.125"
       id="rect12"
       style="fill:#ffffff;fill-opacity:1;stroke:none;stroke-width:0.16947666"
       rx="21.166666"
       ry="21.166666" />
    <rect
       ry="10.583333"
       rx="10.583333"
       style="fill:#00559b;fill-opacity:1;stroke:none;stroke-width:0.15059879"
       id="rect8693"
       width="216.95833"
       height="137.58333"
       x="781.55023"
       y="-987.88794" />
    <flowRoot
       xml:space="preserve"
       id="flowRoot14458"
       style="font-style:normal;font-weight:normal;font-size:37.33333206px;line-height:1.25;font-family:sans-serif;letter-spacing:0px;word-spacing:0px;fill:#000000;fill-opacity:1;stroke:none"
       transform="matrix(0.26458334,0,0,0.26458334,332.87915,-130.07065)"><flowRegion
         id="flowRegion14460"><rect
           id="rect14462"
           width="1209.6576"
           height="530.45044"
           x="-187.96396"
           y="85.657661" /></flowRegion><flowPara
         id="flowPara14464" /></flowRoot>    <g
       aria-label="09:00-16:00"
       style="font-style:normal;font-variant:normal;font-weight:normal;font-stretch:normal;font-size:51.16251755px;line-height:1.25;font-family:'DIN 1451 Std';-inkscape-font-specification:'DIN 1451 Std';letter-spacing:0px;word-spacing:0px;fill:#ffffff;fill-opacity:1;stroke:none;stroke-width:0.26647148"
       id="text4588"
       transform="translate(94.375907,-426.47686)">
      <path
         d="m 701.85866,-464.9478 q 0,-1.84185 0.61395,-3.2744 0.66512,-1.43256 1.73953,-2.45581 1.07441,-1.02325 2.4558,-1.53487 1.43255,-0.56279 2.96743,-0.56279 1.53487,0 2.91626,0.56279 1.43255,0.51162 2.50696,1.53487 1.07442,1.02325 1.68837,2.45581 0.66511,1.43255 0.66511,3.2744 v 21.38593 q 0,1.84185 -0.66511,3.2744 -0.61395,1.43255 -1.68837,2.4558 -1.07441,1.02325 -2.50696,1.58604 -1.38139,0.51162 -2.91626,0.51162 -1.53488,0 -2.96743,-0.51162 -1.38139,-0.56279 -2.4558,-1.58604 -1.07441,-1.02325 -1.73953,-2.4558 -0.61395,-1.43255 -0.61395,-3.2744 z m 5.21858,21.38593 q 0,1.12557 0.71628,1.89301 0.71627,0.71628 1.84185,0.71628 1.12557,0 1.84185,-0.71628 0.71627,-0.76744 0.71627,-1.89301 v -21.38593 q 0,-1.12558 -0.71627,-1.84185 -0.71628,-0.76744 -1.84185,-0.76744 -1.12558,0 -1.84185,0.76744 -0.71628,0.71627 -0.71628,1.84185 z"
         style="font-style:normal;font-variant:normal;font-weight:normal;font-stretch:normal;font-family:'DIN 1451 Std';-inkscape-font-specification:'DIN 1451 Std';fill:#ffffff;stroke:none;stroke-width:0.26647148"
         id="path4625"
         inkscape:connector-curvature="0" />
      <path
         d="m 728.67262,-451.33857 -0.10233,-0.10233 q -0.25581,0.20465 -0.8186,0.35814 -0.51162,0.10232 -1.38138,0.10232 -1.38139,0 -2.55813,-0.66511 -1.17674,-0.66511 -1.84185,-1.68836 -0.35814,-0.51163 -0.56279,-1.07442 -0.20465,-0.61395 -0.35814,-1.53487 -0.10232,-0.92093 -0.15348,-2.30231 -0.0512,-1.43255 -0.0512,-3.58138 0,-1.79069 0.0512,-2.91626 0.0512,-1.17674 0.15348,-1.94418 0.15349,-0.8186 0.35814,-1.38139 0.25581,-0.56279 0.61395,-1.17674 1.02325,-1.68836 2.71161,-2.60928 1.73953,-0.92093 3.88836,-0.92093 2.14882,0 3.83718,0.97209 1.68837,0.92092 2.71162,2.55812 0.35814,0.61395 0.61395,1.17674 0.25581,0.56279 0.35814,1.38139 0.15348,0.76744 0.20465,1.94418 0.0512,1.12557 0.0512,2.91626 0,1.68836 -0.0512,2.81394 -0.0512,1.07441 -0.20465,1.89301 -0.10233,0.76744 -0.30698,1.43255 -0.15349,0.61395 -0.4093,1.33023 l -6.85578,18.31618 h -5.83252 z m -2.60929,-6.85578 q 0,1.17674 0.76744,1.89301 0.76744,0.71628 1.79069,0.71628 1.02325,0 1.79068,-0.71628 0.76744,-0.71627 0.76744,-1.89301 v -6.75345 q 0,-1.17674 -0.76744,-1.89302 -0.76743,-0.71627 -1.79068,-0.71627 -1.02325,0 -1.79069,0.71627 -0.76744,0.71628 -0.76744,1.89302 z"
         style="font-style:normal;font-variant:normal;font-weight:normal;font-stretch:normal;font-family:'DIN 1451 Std';-inkscape-font-specification:'DIN 1451 Std';fill:#ffffff;stroke:none;stroke-width:0.26647148"
         id="path4627"
         inkscape:connector-curvature="0" />
      <path
         d="m 740.24014,-446.24426 h 5.21858 v 5.21858 h -5.21858 z m 0,-11.61389 h 5.21858 v 5.21858 h -5.21858 z"
         style="font-style:normal;font-variant:normal;font-weight:normal;font-stretch:normal;font-family:'DIN 1451 Std';-inkscape-font-specification:'DIN 1451 Std';fill:#ffffff;stroke:none;stroke-width:0.26647148"
         id="path4629"
         inkscape:connector-curvature="0" />
      <path
         d="m 749.42381,-464.9478 q 0,-1.84185 0.61395,-3.2744 0.66512,-1.43256 1.73953,-2.45581 1.07441,-1.02325 2.4558,-1.53487 1.43255,-0.56279 2.96743,-0.56279 1.53487,0 2.91626,0.56279 1.43255,0.51162 2.50696,1.53487 1.07442,1.02325 1.68837,2.45581 0.66511,1.43255 0.66511,3.2744 v 21.38593 q 0,1.84185 -0.66511,3.2744 -0.61395,1.43255 -1.68837,2.4558 -1.07441,1.02325 -2.50696,1.58604 -1.38139,0.51162 -2.91626,0.51162 -1.53488,0 -2.96743,-0.51162 -1.38139,-0.56279 -2.4558,-1.58604 -1.07441,-1.02325 -1.73953,-2.4558 -0.61395,-1.43255 -0.61395,-3.2744 z m 5.21858,21.38593 q 0,1.12557 0.71628,1.89301 0.71627,0.71628 1.84185,0.71628 1.12557,0 1.84185,-0.71628 0.71627,-0.76744 0.71627,-1.89301 v -21.38593 q 0,-1.12558 -0.71627,-1.84185 -0.71628,-0.76744 -1.84185,-0.76744 -1.12558,0 -1.84185,0.76744 -0.71628,0.71627 -0.71628,1.84185 z"
         style="font-style:normal;font-variant:normal;font-weight:normal;font-stretch:normal;font-family:'DIN 1451 Std';-inkscape-font-specification:'DIN 1451 Std';fill:#ffffff;stroke:none;stroke-width:0.26647148"
         id="path4631"
         inkscape:connector-curvature="0" />
      <path
         d="m 768.4099,-464.9478 q 0,-1.84185 0.61395,-3.2744 0.66512,-1.43256 1.73953,-2.45581 1.07441,-1.02325 2.4558,-1.53487 1.43255,-0.56279 2.96743,-0.56279 1.53487,0 2.91626,0.56279 1.43255,0.51162 2.50696,1.53487 1.07441,1.02325 1.68837,2.45581 0.66511,1.43255 0.66511,3.2744 v 21.38593 q 0,1.84185 -0.66511,3.2744 -0.61396,1.43255 -1.68837,2.4558 -1.07441,1.02325 -2.50696,1.58604 -1.38139,0.51162 -2.91626,0.51162 -1.53488,0 -2.96743,-0.51162 -1.38139,-0.56279 -2.4558,-1.58604 -1.07441,-1.02325 -1.73953,-2.4558 -0.61395,-1.43255 -0.61395,-3.2744 z m 5.21858,21.38593 q 0,1.12557 0.71627,1.89301 0.71628,0.71628 1.84186,0.71628 1.12557,0 1.84185,-0.71628 0.71627,-0.76744 0.71627,-1.89301 v -21.38593 q 0,-1.12558 -0.71627,-1.84185 -0.71628,-0.76744 -1.84185,-0.76744 -1.12558,0 -1.84186,0.76744 -0.71627,0.71627 -0.71627,1.84185 z"
         style="font-style:normal;font-variant:normal;font-weight:normal;font-stretch:normal;font-family:'DIN 1451 Std';-inkscape-font-specification:'DIN 1451 Std';fill:#ffffff;stroke:none;stroke-width:0.26647148"
         id="path4633"
         inkscape:connector-curvature="0" />
      <path
         d="m 787.88857,-452.06509 h 15.39992 v 5.21858 h -15.39992 z"
         style="font-style:normal;font-variant:normal;font-weight:normal;font-stretch:normal;font-family:'DIN 1451 Std';-inkscape-font-specification:'DIN 1451 Std';fill:#ffffff;stroke:none;stroke-width:0.26647148"
         id="path4635"
         inkscape:connector-curvature="0" />
      <path
         d="m 813.53418,-466.94314 -5.21858,3.83719 v -5.52556 l 5.21858,-3.83718 h 5.21857 v 36.42771 h -5.21857 z"
         style="font-style:normal;font-variant:normal;font-weight:normal;font-stretch:normal;font-family:'DIN 1451 Std';-inkscape-font-specification:'DIN 1451 Std';fill:#ffffff;stroke:none;stroke-width:0.26647148"
         id="path4637"
         inkscape:connector-curvature="0" />
      <path
         d="m 834.05515,-457.1711 0.10232,0.10232 q 0.25581,-0.20465 0.76744,-0.30697 0.56279,-0.15349 1.43255,-0.15349 1.38139,0 2.55812,0.66511 1.17674,0.66512 1.84185,1.68837 0.35814,0.56278 0.56279,1.12557 0.20465,0.56279 0.30698,1.48372 0.15349,0.92092 0.20465,2.35347 0.0512,1.38139 0.0512,3.53022 0,1.79068 -0.0512,2.96742 -0.0512,1.12558 -0.20465,1.94418 -0.10233,0.76743 -0.35814,1.33022 -0.20465,0.56279 -0.56279,1.17674 -1.02325,1.68836 -2.76277,2.60929 -1.68837,0.92092 -3.83719,0.92092 -2.14883,0 -3.83719,-0.92092 -1.68836,-0.97209 -2.71161,-2.60929 -0.4093,-0.61395 -0.66512,-1.17674 -0.20465,-0.56279 -0.35813,-1.33022 -0.10233,-0.8186 -0.15349,-1.94418 -0.0512,-1.17674 -0.0512,-2.96742 0,-1.68837 0.0512,-2.76278 0.0512,-1.12558 0.15349,-1.89301 0.10232,-0.8186 0.30697,-1.43255 0.20465,-0.66512 0.46046,-1.38139 l 6.85578,-18.31618 H 839.99 Z m 2.60928,6.85578 q 0,-1.17674 -0.76743,-1.89302 -0.76744,-0.71627 -1.79069,-0.71627 -1.02325,0 -1.79069,0.71627 -0.76744,0.71628 -0.76744,1.89302 v 6.75345 q 0,1.17674 0.76744,1.89301 0.76744,0.71628 1.79069,0.71628 1.02325,0 1.79069,-0.71628 0.76743,-0.71627 0.76743,-1.89301 z"
         style="font-style:normal;font-variant:normal;font-weight:normal;font-stretch:normal;font-family:'DIN 1451 Std';-inkscape-font-specification:'DIN 1451 Std';fill:#ffffff;stroke:none;stroke-width:0.26647148"
         id="path4639"
         inkscape:connector-curvature="0" />
      <path
         d="m 845.725,-446.24426 h 5.21857 v 5.21858 H 845.725 Z m 0,-11.61389 h 5.21857 v 5.21858 H 845.725 Z"
         style="font-style:normal;font-variant:normal;font-weight:normal;font-stretch:normal;font-family:'DIN 1451 Std';-inkscape-font-specification:'DIN 1451 Std';fill:#ffffff;stroke:none;stroke-width:0.26647148"
         id="path4641"
         inkscape:connector-curvature="0" />
      <path
         d="m 854.90867,-464.9478 q 0,-1.84185 0.61395,-3.2744 0.66511,-1.43256 1.73952,-2.45581 1.07442,-1.02325 2.45581,-1.53487 1.43255,-0.56279 2.96742,-0.56279 1.53488,0 2.91626,0.56279 1.43256,0.51162 2.50697,1.53487 1.07441,1.02325 1.68836,2.45581 0.66511,1.43255 0.66511,3.2744 v 21.38593 q 0,1.84185 -0.66511,3.2744 -0.61395,1.43255 -1.68836,2.4558 -1.07441,1.02325 -2.50697,1.58604 -1.38138,0.51162 -2.91626,0.51162 -1.53487,0 -2.96742,-0.51162 -1.38139,-0.56279 -2.45581,-1.58604 -1.07441,-1.02325 -1.73952,-2.4558 -0.61395,-1.43255 -0.61395,-3.2744 z m 5.21858,21.38593 q 0,1.12557 0.71627,1.89301 0.71628,0.71628 1.84185,0.71628 1.12558,0 1.84185,-0.71628 0.71628,-0.76744 0.71628,-1.89301 v -21.38593 q 0,-1.12558 -0.71628,-1.84185 -0.71627,-0.76744 -1.84185,-0.76744 -1.12557,0 -1.84185,0.76744 -0.71627,0.71627 -0.71627,1.84185 z"
         style="font-style:normal;font-variant:normal;font-weight:normal;font-stretch:normal;font-family:'DIN 1451 Std';-inkscape-font-specification:'DIN 1451 Std';fill:#ffffff;stroke:none;stroke-width:0.26647148"
         id="path4643"
         inkscape:connector-curvature="0" />
      <path
         d="m 873.89475,-464.9478 q 0,-1.84185 0.61395,-3.2744 0.66512,-1.43256 1.73953,-2.45581 1.07441,-1.02325 2.4558,-1.53487 1.43255,-0.56279 2.96743,-0.56279 1.53487,0 2.91626,0.56279 1.43255,0.51162 2.50696,1.53487 1.07441,1.02325 1.68836,2.45581 0.66512,1.43255 0.66512,3.2744 v 21.38593 q 0,1.84185 -0.66512,3.2744 -0.61395,1.43255 -1.68836,2.4558 -1.07441,1.02325 -2.50696,1.58604 -1.38139,0.51162 -2.91626,0.51162 -1.53488,0 -2.96743,-0.51162 -1.38139,-0.56279 -2.4558,-1.58604 -1.07441,-1.02325 -1.73953,-2.4558 -0.61395,-1.43255 -0.61395,-3.2744 z m 5.21858,21.38593 q 0,1.12557 0.71627,1.89301 0.71628,0.71628 1.84186,0.71628 1.12557,0 1.84185,-0.71628 0.71627,-0.76744 0.71627,-1.89301 v -21.38593 q 0,-1.12558 -0.71627,-1.84185 -0.71628,-0.76744 -1.84185,-0.76744 -1.12558,0 -1.84186,0.76744 -0.71627,0.71627 -0.71627,1.84185 z"
         style="font-style:normal;font-variant:normal;font-weight:normal;font-stretch:normal;font-family:'DIN 1451 Std';-inkscape-font-specification:'DIN 1451 Std';fill:#ffffff;stroke:none;stroke-width:0.26647148"
         id="path4645"
         inkscape:connector-curvature="0" />
    </g>
    <g
       aria-label="min"
       style="font-style:normal;font-variant:normal;font-weight:normal;font-stretch:normal;font-size:50.57917786px;line-height:1.25;font-family:'DIN 1451 Mittelschrift';-inkscape-font-specification:'DIN 1451 Mittelschrift';letter-spacing:0px;word-spacing:0px;fill:#ffffff;fill-opacity:1;stroke:none;stroke-width:0.26343322"
       id="text4600"
       transform="translate(5.9531643,-10.252659)">
      <path
         d="m 896.08804,-910.16665 v -25.63534 h 5.16164 v 2.74135 h 0.0988 q 2.44499,-3.03772 6.66815,-3.03772 2.69196,0 4.27256,0.96318 1.5806,0.96318 2.96362,2.3709 3.03772,-3.33408 8.10057,-3.33408 2.98832,0 5.75437,2.27212 2.79075,2.27211 2.79075,6.61876 v 17.04083 h -5.16165 v -15.26266 q 0,-2.59317 -1.45711,-4.05029 -1.45712,-1.45711 -3.60574,-1.45711 -2.22272,0 -3.67984,1.45711 -1.43241,1.45712 -1.43241,4.05029 v 15.26266 h -5.13695 v -15.26266 q 0,-2.59317 -1.45712,-4.05029 -1.45711,-1.45711 -3.60574,-1.45711 -2.22272,0 -3.67983,1.45711 -1.43242,1.45712 -1.43242,4.05029 v 15.26266 z"
         style="font-style:normal;font-variant:normal;font-weight:normal;font-stretch:normal;font-family:'DIN 1451 Mittelschrift';-inkscape-font-specification:'DIN 1451 Mittelschrift';fill:#ffffff;stroke:none;stroke-width:0.26343322"
         id="path4585"
         inkscape:connector-curvature="0" />
      <path
         d="m 938.9124,-910.16665 v -25.63534 h 5.16164 v 25.63534 z m 0,-30.82168 v -5.16165 h 5.16164 v 5.16165 z"
         style="font-style:normal;font-variant:normal;font-weight:normal;font-stretch:normal;font-family:'DIN 1451 Mittelschrift';-inkscape-font-specification:'DIN 1451 Mittelschrift';fill:#ffffff;stroke:none;stroke-width:0.26343322"
         id="path4587"
         inkscape:connector-curvature="0" />
      <path
         d="m 950.91507,-910.16665 v -25.63534 h 5.16165 v 2.74135 h 0.0988 q 2.3956,-3.03772 6.66816,-3.03772 2.98832,0 5.75437,2.27212 2.79074,2.27211 2.79074,6.61876 v 17.04083 h -5.16164 v -15.26266 q 0,-2.59317 -1.45712,-4.05029 -1.43242,-1.45711 -3.58104,-1.45711 -2.22272,0 -3.67984,1.45711 -1.43241,1.45712 -1.43241,4.05029 v 15.26266 z"
         style="font-style:normal;font-variant:normal;font-weight:normal;font-stretch:normal;font-family:'DIN 1451 Mittelschrift';-inkscape-font-specification:'DIN 1451 Mittelschrift';fill:#ffffff;stroke:none;stroke-width:0.26343322"
         id="path4589"
         inkscape:connector-curvature="0" />
    </g>
    <g
       aria-label="60"
       style="font-style:normal;font-variant:normal;font-weight:normal;font-stretch:normal;font-size:76.52454376px;line-height:1.25;font-family:'DIN 1451 Mittelschrift';-inkscape-font-specification:'DIN 1451 Mittelschrift';letter-spacing:0px;word-spacing:0px;fill:#ffffff;fill-opacity:1;stroke:none;stroke-width:0.39856532"
       id="text4567"
       transform="translate(137.88935,4.1837416)">
      <path
         d="m 666.91998,-950.31046 14.64727,-29.29455 h 8.70616 l -11.4712,23.05451 h 0.14946 q 1.71881,-0.70994 4.14757,-0.70994 5.08171,0 9.07981,3.62445 3.96075,3.66182 3.96075,11.58331 0,9.4161 -5.00698,13.45158 -5.00698,3.99811 -11.09755,3.99811 -5.79166,0 -10.49971,-4.40913 -4.70805,-4.40913 -4.70805,-12.18116 0,-4.96961 2.09247,-9.11718 z m 13.56367,0 q -3.32553,0 -5.56746,2.1672 -2.27929,2.2793 -2.27929,6.80052 0,8.96772 7.84675,8.96772 2.69032,0 5.26854,-2.0551 2.54085,-2.01774 2.54085,-6.91262 0,-4.55859 -2.27929,-6.80052 -2.2793,-2.1672 -5.5301,-2.1672 z"
         style="font-style:normal;font-variant:normal;font-weight:normal;font-stretch:normal;font-family:'DIN 1451 Mittelschrift';-inkscape-font-specification:'DIN 1451 Mittelschrift';fill:#ffffff;stroke:none;stroke-width:0.39856532"
         id="path4569"
         inkscape:connector-curvature="0" />
      <path
         d="m 724.9486,-940.89435 v -23.12925 q 0,-3.92337 -2.12984,-6.12794 -2.09247,-2.20456 -5.53009,-2.20456 -3.47499,0 -5.56746,2.20456 -2.09247,2.20457 -2.09247,6.12794 v 23.12925 q 0,3.96074 2.09247,6.1653 2.09247,2.1672 5.56746,2.1672 3.43762,0 5.53009,-2.1672 2.12984,-2.20456 2.12984,-6.1653 z m -23.12925,0.44838 v -24.02601 q 0,-7.51047 4.70805,-11.58331 4.70806,-4.1102 10.76127,-4.1102 6.01584,0 10.7239,4.1102 4.74542,4.07284 4.74542,11.58331 v 24.02601 q 0,7.51047 -4.74542,11.58331 -4.70806,4.07284 -10.7239,4.07284 -6.05321,0 -10.76127,-4.07284 -4.70805,-4.07284 -4.70805,-11.58331 z"
         style="font-style:normal;font-variant:normal;font-weight:normal;font-stretch:normal;font-family:'DIN 1451 Mittelschrift';-inkscape-font-specification:'DIN 1451 Mittelschrift';fill:#ffffff;stroke:none;stroke-width:0.39856532"
         id="path4571"
         inkscape:connector-curvature="0" />
    </g>
  </g>
</svg>
