<?xml version="1.0" encoding="UTF-8" standalone="no"?>
<!-- Created with Inkscape (http://www.inkscape.org/) -->

<svg
   xmlns:dc="http://purl.org/dc/elements/1.1/"
   xmlns:cc="http://creativecommons.org/ns#"
   xmlns:rdf="http://www.w3.org/1999/02/22-rdf-syntax-ns#"
   xmlns:svg="http://www.w3.org/2000/svg"
   xmlns="http://www.w3.org/2000/svg"
   xmlns:sodipodi="http://sodipodi.sourceforge.net/DTD/sodipodi-0.dtd"
   xmlns:inkscape="http://www.inkscape.org/namespaces/inkscape"
   width="900"
   height="675"
   viewBox="0 0 238.12497 178.59377"
   version="1.1"
   id="svg8"
   inkscape:version="0.92.1 r15371"
   sodipodi:docname="77.svg">
  <defs
     id="defs2" />
  <sodipodi:namedview
     id="base"
     pagecolor="#ffffff"
     bordercolor="#666666"
     borderopacity="1.0"
     inkscape:pageopacity="0.0"
     inkscape:pageshadow="2"
     inkscape:zoom="0.70710678"
     inkscape:cx="578.57084"
     inkscape:cy="366.79544"
     inkscape:document-units="px"
     inkscape:current-layer="layer1"
     showgrid="false"
     units="px"
     fit-margin-top="0"
     fit-margin-left="0"
     fit-margin-right="0"
     fit-margin-bottom="0"
     inkscape:window-width="1920"
     inkscape:window-height="1057"
     inkscape:window-x="-8"
     inkscape:window-y="-8"
     inkscape:window-maximized="1"
     inkscape:snap-global="true"
     showguides="false"
     inkscape:measure-start="0,0"
     inkscape:measure-end="0,0" />
  <metadata
     id="metadata5">
    <rdf:RDF>
      <cc:Work
         rdf:about="">
        <dc:format>image/svg+xml</dc:format>
        <dc:type
           rdf:resource="http://purl.org/dc/dcmitype/StillImage" />
        <dc:title></dc:title>
      </cc:Work>
    </rdf:RDF>
  </metadata>
  <g
     inkscape:label="Layer 1"
     inkscape:groupmode="layer"
     id="layer1"
     transform="translate(-602.44977,997.23116)">
    <rect
       style="fill:#00559b;fill-opacity:1;stroke:none;stroke-width:0.17975712"
       id="rect10"
       width="238.125"
       height="178.59373"
       x="602.44977"
       y="-997.23114" />
    <rect
       y="-997.23114"
       x="602.44977"
       height="178.59373"
       width="238.125"
       id="rect12"
       style="fill:#ffffff;fill-opacity:1;stroke:none;stroke-width:0.17975713"
       rx="21.166666"
       ry="21.166664" />
    <rect
       ry="10.583332"
       rx="10.583333"
       style="fill:#00559b;fill-opacity:1;stroke:none;stroke-width:0.16109361"
       id="rect8693"
       width="216.95833"
       height="157.42706"
       x="613.03308"
       y="-986.64777" />
    <flowRoot
       xml:space="preserve"
       id="flowRoot14458"
       style="font-style:normal;font-weight:normal;font-size:37.33333206px;line-height:1.25;font-family:sans-serif;letter-spacing:0px;word-spacing:0px;fill:#000000;fill-opacity:1;stroke:none"
       transform="matrix(0.26458334,0,0,0.26458334,332.87915,-130.07065)"><flowRegion
         id="flowRegion14460"><rect
           id="rect14462"
           width="1209.6576"
           height="530.45044"
           x="-187.96396"
           y="85.657661" /></flowRegion><flowPara
         id="flowPara14464" /></flowRoot>    <path
       style="fill:#ffffff;fill-opacity:1;fill-rule:evenodd;stroke:none;stroke-width:0.39687496"
       d="m 731.94455,-947.25194 c -14.77424,0.6292 -22.43505,11.1213 -39.51309,12.8769 l 12.88681,22.3132 c 18.37688,-3.8661 18.85374,-15.931 40.04097,-16.7833 z"
       id="path13461"
       inkscape:connector-curvature="0" />
    <path
       inkscape:connector-curvature="0"
       id="path13465"
       style="fill:#ffffff;fill-opacity:1;fill-rule:nonzero;stroke:none;stroke-width:0.39687496"
       d="m 672.65523,-941.00724 h 9.16964 v -9.9218 h -9.16964 z"
       sodipodi:nodetypes="ccccc" />
    <path
       inkscape:connector-curvature="0"
       id="path13467"
       style="fill:#ffffff;fill-opacity:1;fill-rule:nonzero;stroke:none;stroke-width:0.39687496"
       d="m 672.65523,-864.93954 h 9.16964 v -56.2239 h -9.16964 z"
       sodipodi:nodetypes="ccccc" />
    <path
       inkscape:connector-curvature="0"
       id="path13469"
       style="fill:#ffffff;fill-opacity:1;fill-rule:nonzero;stroke:none;stroke-width:0.39665675"
       d="m 655.32842,-920.28814 1.07502,-0.6489 1.19671,-0.4366 0.74641,-0.2134 5.09107,-0.862 h 0.32451 l 1.29814,0.426 c 3.5901,0.8924 3.23555,-1.4808 7.02847,1.5212 l 0.21095,0.3246 v 0.4258 l -0.10539,0.3352 -0.32451,0.2125 -10.06043,4.2188 -0.76265,0.5372 -0.64906,0.5476 -0.21096,0.2134 -17.20007,22.1897 -0.43813,0.6491 -0.32451,0.8722 0.003,5.1925 h -19.93347 l 1e-4,-17.058 c 10e-6,-2.4426 0.70302,-4.6941 1.21803,-6.4299 l 4.75679,-20.0194 0.32456,-1.1968 0.53546,-1.0851 0.76263,-1.075 0.86165,-0.8721 1.08554,-0.6492 v -0.1109 c 7.53477,-5.3852 15.55714,-10.2532 24.98881,-10.9224 l 1.2981,-0.1124 0.64906,0.1124 8.22441,1.2982 0.21094,0.2133 0.21095,0.2133 v 0.3246 l -0.10539,0.1109 -0.97359,1.0851 -0.64908,0.6491 h -0.32451 l -1.30786,0.3245 -1.28838,0.5379 -1.18616,0.6491 -0.87216,0.7603 -5.40586,0.6489 -0.64906,0.1125 -1.19673,0.426 -1.07497,0.537 -0.97363,0.7603 -8.54891,7.2614 -0.32451,0.4259 -0.64907,0.7603 -0.53548,0.9735 -0.21907,0.9736 -0.10554,0.9736 0.10554,6.815 0.21907,0.659 0.21096,0.6489 0.43809,0.5372 0.32455,0.2133 2.59624,1.8458 0.64903,0.3246 0.76268,0.2133 0.64903,-0.111 0.74642,-0.2132 0.53549,-0.5477 6.06465,-5.73 0.97359,-0.7603"
       sodipodi:nodetypes="cccccccccccccccccccccsccccccccccccccccccccccccccccccccccccccccccccccc" />
    <path
       inkscape:connector-curvature="0"
       id="path13471"
       style="fill:#ffffff;fill-opacity:1;fill-rule:nonzero;stroke:none;stroke-width:0.39687496"
       d="m 622.29362,-864.93954 h 26.45833 v -13.2291 h -26.45833 z"
       sodipodi:nodetypes="ccccc" />
    <path
       d="m 820.73111,-921.16344 h -53.04894 c 4.70011,-32.3155 3.52093,-37.2548 14.5324,-37.2534 l 38.51654,10e-5 v -9.0488 h -43.08426 c -0.6587,0.012 -1.35945,0.012 -1.94886,0.1125 -0.65387,0.1205 -1.22506,0.2644 -1.83759,0.4368 -0.63806,0.1931 -1.25383,0.3726 -1.84736,0.6497 -0.56781,0.2479 -1.09989,0.5494 -1.62403,0.8628 -0.504,0.3355 -1.00799,0.6459 -1.51199,1.086 -0.4742,0.4477 -0.95189,0.8744 -1.41129,1.4109 -0.43757,0.5041 -0.82747,1.0083 -1.18717,1.5124 -0.37297,0.5333 -0.69499,1.0752 -0.97443,1.6241 -0.22872,0.5867 -0.46561,1.1788 -0.64961,1.7356 l -0.53593,1.8372 -9.53331,53.5549 v 24.474 h 66.14583"
       style="fill:#ffffff;fill-opacity:1;fill-rule:nonzero;stroke:none;stroke-width:0.39687496"
       id="path13551"
       inkscape:connector-curvature="0"
       sodipodi:nodetypes="ccscccccccccccccccc" />
    <path
       d="m 820.73111,-871.55404 h -66.14583 c 0.51969,3.9281 2.77786,5.7332 6.61459,5.3576 v 17.7934 h 16.53645 v -17.7934 l 42.99479,1e-4"
       style="fill:#ffffff;fill-opacity:1;fill-rule:nonzero;stroke:none;stroke-width:0.39687496"
       id="path13555"
       inkscape:connector-curvature="0"
       sodipodi:nodetypes="ccccccc" />
    <circle
       style="opacity:1;fill:#00559b;fill-opacity:1;stroke:none;stroke-width:6.32566929;stroke-linejoin:miter;stroke-miterlimit:4;stroke-dasharray:none;stroke-dashoffset:0;stroke-opacity:1"
       id="path13563"
       cx="768.07898"
       cy="-901.05511"
       r="6.8791666" />
    <circle
       style="opacity:1;fill:#ffffff;fill-opacity:1;stroke:none;stroke-width:6.33021688;stroke-linejoin:miter;stroke-miterlimit:4;stroke-dasharray:none;stroke-dashoffset:0;stroke-opacity:1"
       id="path13605"
       cx="667.14044"
       cy="-931.08527"
       r="8.4666662" />
    <path
       style="opacity:1;fill:#ffffff;fill-opacity:1;stroke:none;stroke-width:11.64166641;stroke-linejoin:round;stroke-miterlimit:4;stroke-dasharray:none;stroke-opacity:1"
       d="m 777.73632,-947.62184 h 16.53646 v 23.1511 h -16.53646 z"
       id="rect4535"
       inkscape:connector-curvature="0"
       sodipodi:nodetypes="ccccc" />
    <path
       sodipodi:nodetypes="cccccc"
       d="m 787.59649,-943.32234 c 2.54007,0.018 4.60825,2.1691 4.47481,4.6554 -0.49466,5.1339 -5.5668,4.5627 -9.4542,4.3463 v 5.5504 h -2.68474 v -14.5521"
       style="fill:#00559b;fill-opacity:1;fill-rule:evenodd;stroke:none;stroke-width:0.03648052"
       id="path31832"
       inkscape:connector-curvature="0" />
    <path
       sodipodi:nodetypes="cssscc"
       inkscape:connector-curvature="0"
       id="path31834"
       d="m 782.6171,-936.99954 h 4.96143 c 1.02389,0 1.84819,-0.8135 1.84819,-1.8239 0,-1.0104 -0.8243,-1.8239 -1.84819,-1.8239 h -4.96143 z"
       style="opacity:1;fill:#ffffff;fill-opacity:1;stroke:none;stroke-width:0.91201311;stroke-linejoin:miter;stroke-miterlimit:4;stroke-dasharray:none;stroke-dashoffset:0;stroke-opacity:1" />
    <path
       inkscape:connector-curvature="0"
       id="path4568"
       style="fill:#00559b;fill-opacity:1;fill-rule:evenodd;stroke:none;stroke-width:0.0497461"
       d="m 727.17166,-932.99454 c 1.44209,3.1494 -0.025,6.9452 -3.1746,8.2132 -6.62995,2.3473 -8.84708,-4.2504 -10.81993,-9.1794 l -6.85957,3.1986 -1.54721,-3.318 17.9845,-8.3863"
       sodipodi:nodetypes="cccccc" />
    <path
       style="opacity:1;fill:#ffffff;fill-opacity:1;stroke:none;stroke-width:1.24365282;stroke-linejoin:miter;stroke-miterlimit:4;stroke-dasharray:none;stroke-dashoffset:0;stroke-opacity:1"
       d="m 716.48796,-935.50464 2.85926,6.1317 c 0.59007,1.2654 2.07047,1.8153 3.31918,1.233 1.24871,-0.5823 1.77904,-2.0698 1.18897,-3.3352 l -2.85925,-6.1317 z"
       id="path4570"
       inkscape:connector-curvature="0"
       sodipodi:nodetypes="cssscc" />
  </g>
</svg>
