<?xml version="1.0" encoding="UTF-8" standalone="no"?>
<!-- Created with Inkscape (http://www.inkscape.org/) -->

<svg
   xmlns:dc="http://purl.org/dc/elements/1.1/"
   xmlns:cc="http://creativecommons.org/ns#"
   xmlns:rdf="http://www.w3.org/1999/02/22-rdf-syntax-ns#"
   xmlns:svg="http://www.w3.org/2000/svg"
   xmlns="http://www.w3.org/2000/svg"
   xmlns:sodipodi="http://sodipodi.sourceforge.net/DTD/sodipodi-0.dtd"
   xmlns:inkscape="http://www.inkscape.org/namespaces/inkscape"
   width="900"
   height="675"
   viewBox="0 0 238.12498 178.59378"
   version="1.1"
   id="svg8"
   inkscape:version="0.92.1 r15371"
   sodipodi:docname="33.svg">
  <defs
     id="defs2" />
  <sodipodi:namedview
     id="base"
     pagecolor="#ffffff"
     bordercolor="#666666"
     borderopacity="1.0"
     inkscape:pageopacity="0.0"
     inkscape:pageshadow="2"
     inkscape:zoom="0.55335211"
     inkscape:cx="317.69734"
     inkscape:cy="238.33546"
     inkscape:document-units="px"
     inkscape:current-layer="layer1"
     showgrid="false"
     units="px"
     inkscape:snap-global="false"
     inkscape:window-width="1920"
     inkscape:window-height="1057"
     inkscape:window-x="-8"
     inkscape:window-y="-8"
     inkscape:window-maximized="1"
     fit-margin-top="0"
     fit-margin-left="0"
     fit-margin-right="0"
     fit-margin-bottom="0"
     showguides="false" />
  <metadata
     id="metadata5">
    <rdf:RDF>
      <cc:Work
         rdf:about="">
        <dc:format>image/svg+xml</dc:format>
        <dc:type
           rdf:resource="http://purl.org/dc/dcmitype/StillImage" />
        <dc:title></dc:title>
      </cc:Work>
    </rdf:RDF>
  </metadata>
  <g
     inkscape:label="Layer 1"
     inkscape:groupmode="layer"
     id="layer1"
     transform="translate(482.00006,1689.7377)">
    <rect
       style="opacity:1;fill:#00559b;fill-opacity:1;stroke:none;stroke-width:8.77885628;stroke-linejoin:round;stroke-miterlimit:4;stroke-dasharray:none;stroke-opacity:1"
       id="rect4485"
       width="238.125"
       height="178.59375"
       x="-482.00006"
       y="-1689.7377" />
    <rect
       y="-1689.7377"
       x="-482.00006"
       height="178.59375"
       width="238.125"
       id="rect4487"
       style="opacity:1;fill:#ffffff;fill-opacity:1;stroke:none;stroke-width:8.77885628;stroke-linejoin:round;stroke-miterlimit:4;stroke-dasharray:none;stroke-opacity:1"
       rx="21.166666"
       ry="21.166666" />
    <rect
       ry="10.583333"
       rx="10.583333"
       style="opacity:1;fill:#00559b;fill-opacity:1;stroke:none;stroke-width:7.86738062;stroke-linejoin:round;stroke-miterlimit:4;stroke-dasharray:none;stroke-opacity:1"
       id="rect4489"
       width="216.95833"
       height="157.42708"
       x="-471.41675"
       y="-1679.1543" />
    <path
       d="m -425.11465,-1628.2656 v -21.3144 h 6.4561 v 19.1211 q 0,3.2744 1.79165,5.097 1.82253,1.7916 4.60267,1.7916 2.68747,0 4.47912,-1.7916 1.82253,-1.8226 1.82253,-5.097 v -19.1211 h 6.45611 v 32.0642 h -6.45611 v -3.3979 h -0.12356 q -2.99637,3.7686 -8.27864,3.7686 -3.79952,0 -7.29014,-2.811 -3.45973,-2.8419 -3.45973,-8.3095 z"
       style="font-style:normal;font-variant:normal;font-weight:normal;font-stretch:normal;font-size:63.26361847px;line-height:1.25;font-family:'DIN 1451 Mittelschrift';-inkscape-font-specification:'DIN 1451 Mittelschrift';letter-spacing:0px;word-spacing:0px;fill:#ffffff;fill-opacity:1;stroke:none;stroke-width:0.32949802"
       id="path7587"
       inkscape:connector-curvature="0" />
    <path
       d="m -391.25873,-1604.5418 v -45.0382 h 6.45611 v 3.367 q 3.36705,-3.7377 8.27863,-3.7377 2.9346,0 5.06604,1.2047 2.13144,1.1738 3.52151,2.9655 1.32828,1.7299 1.79164,4.0466 0.49425,2.2859 0.49425,8.2169 0,5.9001 -0.49425,8.2169 -0.46336,2.3167 -1.79164,4.0157 -1.39007,1.8225 -3.52151,2.9964 -2.13144,1.1429 -5.06604,1.1429 -2.50212,0 -4.51,-1.0194 -1.97699,-1.0193 -3.76863,-2.7492 v 16.3719 z m 12.78865,-19.0285 q 4.54089,0 5.43671,-3.1199 0.92672,-3.12 0.92672,-6.8268 0,-3.7069 -0.92672,-6.8268 -0.89582,-3.1508 -5.43671,-3.1508 -4.5409,0 -5.43672,3.2435 -0.89582,3.2435 -0.89582,6.7341 0,3.4906 0.89582,6.7341 0.89582,3.2126 5.43672,3.2126 z"
       style="font-style:normal;font-variant:normal;font-weight:normal;font-stretch:normal;font-size:63.26361847px;line-height:1.25;font-family:'DIN 1451 Mittelschrift';-inkscape-font-specification:'DIN 1451 Mittelschrift';letter-spacing:0px;word-spacing:0px;fill:#ffffff;fill-opacity:1;stroke:none;stroke-width:0.32949802"
       id="path7589"
       inkscape:connector-curvature="0" />
    <path
       d="m -342.77151,-1649.58 v -9.7305 h 6.4561 v 9.7305 h 4.69535 v 4.9424 h -4.69535 v 18.6579 q 0,2.4094 2.28589,2.4094 h 2.40946 v 6.0545 h -3.36706 q -3.36706,0 -5.59117,-2.0387 -2.19322,-2.0388 -2.19322,-5.8383 v -19.2448 h -3.21261 v -4.9424 z"
       style="font-style:normal;font-variant:normal;font-weight:normal;font-stretch:normal;font-size:63.26361847px;line-height:1.25;font-family:'DIN 1451 Mittelschrift';-inkscape-font-specification:'DIN 1451 Mittelschrift';letter-spacing:0px;word-spacing:0px;fill:#ffffff;fill-opacity:1;stroke:none;stroke-width:0.32949802"
       id="path7591"
       inkscape:connector-curvature="0" />
    <path
       d="m -327.17184,-1633.5788 q 0,-5.1587 0.80315,-7.6917 0.80315,-2.533 2.65658,-4.5718 1.32829,-1.4518 3.64507,-2.7801 2.34767,-1.3283 6.11631,-1.3283 3.70685,0 6.05452,1.3283 2.34768,1.3283 3.67598,2.7801 1.85341,2.0388 2.65657,4.5718 0.80315,2.533 0.80315,7.6917 0,5.2514 -0.80315,7.7844 -0.80316,2.533 -2.65657,4.5718 -1.3283,1.4827 -3.67598,2.7801 -2.34767,1.2974 -6.05452,1.2974 -3.76864,0 -6.11631,-1.2974 -2.31678,-1.2974 -3.64507,-2.7801 -1.85343,-2.0388 -2.65658,-4.5718 -0.80315,-2.533 -0.80315,-7.7844 z m 19.98611,0.062 q 0,-3.4906 -0.37068,-4.9116 -0.3398,-1.4209 -1.20473,-2.7183 -1.69897,-2.3477 -5.18959,-2.3477 -3.5524,0 -5.1896,2.3477 -0.92671,1.2974 -1.2665,2.7183 -0.30891,1.421 -0.30891,4.8498 0,3.5215 0.30891,4.9734 0.33979,1.4209 1.2665,2.6874 1.6372,2.3477 5.1896,2.3477 3.49062,0 5.18959,-2.3477 0.86493,-1.2665 1.20473,-2.6874 0.37068,-1.421 0.37068,-4.9116 z"
       style="font-style:normal;font-variant:normal;font-weight:normal;font-stretch:normal;font-size:63.26361847px;line-height:1.25;font-family:'DIN 1451 Mittelschrift';-inkscape-font-specification:'DIN 1451 Mittelschrift';letter-spacing:0px;word-spacing:0px;fill:#ffffff;fill-opacity:1;stroke:none;stroke-width:0.32949802"
       id="path7593"
       inkscape:connector-curvature="0" />
    <path
       d="m -429.71932,-1541.8296 v -35.6132 l -5.97866,4.369 v -6.3811 l 5.97866,-4.3402 h 6.03614 v 41.9655 z"
       style="font-style:normal;font-variant:normal;font-weight:normal;font-stretch:normal;font-size:58.86675644px;line-height:1.25;font-family:'DIN 1451 Mittelschrift';-inkscape-font-specification:'DIN 1451 Mittelschrift';letter-spacing:0px;word-spacing:0px;fill:#ffffff;fill-opacity:1;stroke:none;stroke-width:0.10102334"
       id="path7608"
       inkscape:connector-curvature="0" />
    <path
       d="m -417.90573,-1541.9158 v -5.6338 l 16.38382,-20.4941 q 0.94853,-1.2072 1.23597,-2.2132 0.28743,-1.0061 0.28743,-1.9546 0,-2.1845 -1.55215,-4.0528 -1.55215,-1.8971 -4.2253,-1.8971 -2.4432,0 -4.19655,1.6384 -1.72462,1.6096 -1.92582,4.4265 h -6.0074 q 0.0287,-5.0876 3.47797,-8.5656 3.44922,-3.5067 8.19191,-3.5067 5.23132,0 8.70929,3.5354 3.50671,3.5068 3.50671,8.4794 0,4.254 -2.50069,7.3583 l -13.48072,16.9012 h 15.98141 v 5.9787 z"
       style="font-style:normal;font-variant:normal;font-weight:normal;font-stretch:normal;font-size:58.86675644px;line-height:1.25;font-family:'DIN 1451 Mittelschrift';-inkscape-font-specification:'DIN 1451 Mittelschrift';letter-spacing:0px;word-spacing:0px;fill:#ffffff;fill-opacity:1;stroke:none;stroke-width:0.10102334"
       id="path7610"
       inkscape:connector-curvature="0" />
    <path
       d="m -388.55858,-1561.1452 v -22.6499 h 22.30498 v 6.0074 h -16.6425 v 9.4566 q 2.87435,-2.2995 6.69725,-2.2995 2.3857,0 4.34027,0.9198 1.9833,0.9198 3.13305,2.1558 1.72461,1.8683 2.50068,4.0815 0.80481,2.1845 0.80481,7.3871 0,4.2253 -0.63235,6.2949 -0.60362,2.0407 -1.95455,3.7654 -1.29347,1.6383 -3.6217,3.0468 -2.32821,1.4084 -5.46127,1.4084 -4.05284,0 -7.81824,-2.5007 -3.7654,-2.5007 -4.4265,-8.3644 h 6.00739 q 1.06351,4.8864 6.00741,4.8864 4.39775,0 5.14509,-3.018 0.74734,-3.0181 0.74734,-5.9787 0,-3.4779 -1.1785,-5.7774 -1.17848,-2.2995 -4.8864,-2.2995 -3.47797,0 -5.40378,3.478 z"
       style="font-style:normal;font-variant:normal;font-weight:normal;font-stretch:normal;font-size:58.86675644px;line-height:1.25;font-family:'DIN 1451 Mittelschrift';-inkscape-font-specification:'DIN 1451 Mittelschrift';letter-spacing:0px;word-spacing:0px;fill:#ffffff;fill-opacity:1;stroke:none;stroke-width:0.10102334"
       id="path7612"
       inkscape:connector-curvature="0" />
    <path
       d="m -294.60483,-1550.6848 4.42758,3.9676 q -1.95503,2.2425 -4.65758,3.7088 -2.67379,1.4375 -6.06634,1.4375 -5.17508,0 -9.37264,-3.5075 -4.16881,-3.5364 -4.16881,-11.7303 0,-8.1938 4.16881,-11.7301 4.19756,-3.565 9.37264,-3.565 3.39255,0 6.06634,1.4662 2.70255,1.4663 4.65758,3.7088 l -4.42758,3.9389 q -2.53003,-3.1051 -6.06634,-3.1051 -7.76262,0 -7.76262,9.2863 0,9.2577 7.76262,9.2577 3.56507,0 6.06634,-3.1338 z"
       style="font-style:normal;font-variant:normal;font-weight:normal;font-stretch:normal;font-size:58.86675644px;line-height:1.25;font-family:'DIN 1451 Mittelschrift';-inkscape-font-specification:'DIN 1451 Mittelschrift';letter-spacing:0px;word-spacing:0px;fill:#ffffff;fill-opacity:1;stroke:none;stroke-width:0.10104755"
       id="path7616"
       inkscape:connector-curvature="0" />
    <path
       inkscape:connector-curvature="0"
       id="path7628"
       style="font-style:normal;font-variant:normal;font-weight:normal;font-stretch:normal;font-size:58.86675644px;line-height:1.25;font-family:'DIN 1451 Mittelschrift';-inkscape-font-specification:'DIN 1451 Mittelschrift';letter-spacing:0px;word-spacing:0px;fill:#ffffff;fill-opacity:1;stroke:none;stroke-width:0.10104755"
       d="m -320.71022,-1550.6848 4.42757,3.9676 q -1.95502,2.2425 -4.65756,3.7088 -2.67379,1.4375 -6.06635,1.4375 -5.17508,0 -9.37262,-3.5075 -4.16881,-3.5364 -4.16881,-11.7303 0,-8.1938 4.16881,-11.7301 4.19754,-3.565 9.37262,-3.565 3.39256,0 6.06635,1.4662 2.70254,1.4663 4.65756,3.7088 l -4.42757,3.9389 q -2.53003,-3.1051 -6.06633,-3.1051 -7.76262,0 -7.76262,9.2863 0,9.2577 7.76262,9.2577 3.56505,0 6.06633,-3.1338 z" />
  </g>
</svg>
