<?xml version="1.0" encoding="UTF-8" standalone="no"?>
<!-- Created with Inkscape (http://www.inkscape.org/) -->

<svg
   xmlns:dc="http://purl.org/dc/elements/1.1/"
   xmlns:cc="http://creativecommons.org/ns#"
   xmlns:rdf="http://www.w3.org/1999/02/22-rdf-syntax-ns#"
   xmlns:svg="http://www.w3.org/2000/svg"
   xmlns="http://www.w3.org/2000/svg"
   xmlns:sodipodi="http://sodipodi.sourceforge.net/DTD/sodipodi-0.dtd"
   xmlns:inkscape="http://www.inkscape.org/namespaces/inkscape"
   width="900"
   height="975"
   viewBox="0 0 238.125 257.96876"
   version="1.1"
   id="svg4528"
   inkscape:version="0.92.1 r15371"
   sodipodi:docname="66.svg">
  <defs
     id="defs4522" />
  <sodipodi:namedview
     id="base"
     pagecolor="#ffffff"
     bordercolor="#666666"
     borderopacity="1.0"
     inkscape:pageopacity="0.0"
     inkscape:pageshadow="2"
     inkscape:zoom="0.7"
     inkscape:cx="532.14111"
     inkscape:cy="501.53383"
     inkscape:document-units="px"
     inkscape:current-layer="layer1"
     showgrid="false"
     units="px"
     fit-margin-top="0"
     fit-margin-left="0"
     fit-margin-right="0"
     fit-margin-bottom="0"
     inkscape:snap-global="false"
     inkscape:window-width="1920"
     inkscape:window-height="1057"
     inkscape:window-x="-8"
     inkscape:window-y="-8"
     inkscape:window-maximized="1" />
  <metadata
     id="metadata4525">
    <rdf:RDF>
      <cc:Work
         rdf:about="">
        <dc:format>image/svg+xml</dc:format>
        <dc:type
           rdf:resource="http://purl.org/dc/dcmitype/StillImage" />
        <dc:title></dc:title>
      </cc:Work>
    </rdf:RDF>
  </metadata>
  <g
     inkscape:label="Layer 1"
     inkscape:groupmode="layer"
     id="layer1"
     transform="translate(-61.368206,354.51515)">
    <rect
       style="opacity:1;fill:#00559b;fill-opacity:1;stroke:none;stroke-width:2.06105518;stroke-miterlimit:4;stroke-dasharray:none;stroke-opacity:1"
       id="rect5073"
       width="238.125"
       height="257.96875"
       x="61.368206"
       y="-354.51514" />
    <rect
       y="-354.51514"
       x="61.368206"
       height="257.96875"
       width="238.125"
       id="rect5075"
       style="opacity:1;fill:#ffffff;fill-opacity:1;stroke:none;stroke-width:2.06105518;stroke-miterlimit:4;stroke-dasharray:none;stroke-opacity:1"
       rx="21.166666"
       ry="21.166666" />
    <rect
       y="-343.93179"
       x="71.95153"
       height="236.80208"
       width="216.95833"
       id="rect5077"
       style="opacity:1;fill:#00559b;fill-opacity:1;stroke:none;stroke-width:1.88488352;stroke-miterlimit:4;stroke-dasharray:none;stroke-opacity:1"
       rx="10.583333"
       ry="10.583333" />
    <g
       aria-label="and"
       style="font-style:normal;font-variant:normal;font-weight:normal;font-stretch:normal;font-size:51.590065px;line-height:1.25;font-family:'DIN 1451 Std';-inkscape-font-specification:'DIN 1451 Std';letter-spacing:0px;word-spacing:0px;fill:#ffffff;fill-opacity:1;stroke:none;stroke-width:0.26869825"
       id="text5092"
       transform="translate(63.238248,-398.84046)">
      <path
         d="m 100.17236,104.56852 h -0.10318 q -1.031799,1.44452 -2.115191,2.21837 -1.031801,0.77385 -2.940633,0.77385 -0.928622,0 -1.908833,-0.30954 -0.980211,-0.25795 -1.857242,-0.98021 -0.825441,-0.77385 -1.392932,-2.11519 -0.515901,-1.39293 -0.515901,-3.55971 0,-2.218377 0.361131,-3.869259 0.36113,-1.702472 1.289752,-2.785864 0.980211,-1.134977 2.579503,-1.650877 1.599292,-0.5675 4.075615,-0.5675 0.567491,0 1.134981,0.0516 0.567491,0.0516 1.39293,0.10318 V 89.1431 q 0,-1.34134 -0.567489,-2.21837 -0.56749,-0.87703 -2.063602,-0.87703 -1.031802,0 -1.908833,0.67067 -0.825441,0.67067 -1.083391,1.96042 h -5.107416 q 0.25795,-3.55971 2.373143,-5.67491 1.031801,-1.0318 2.476323,-1.59929 1.444522,-0.61908 3.250174,-0.61908 1.650882,0 3.095401,0.5159 1.44452,0.5159 2.47633,1.5477 1.08339,1.0318 1.70247,2.57951 0.61908,1.5477 0.61908,3.6113 v 18.21129 h -5.26219 z m 0,-8.56395 q -0.877029,-0.15477 -1.44452,-0.15477 -1.702472,0 -2.940633,0.825441 -1.186572,0.773851 -1.186572,2.889043 0,1.496116 0.722261,2.424736 0.722261,0.92862 2.012013,0.92862 1.341341,0 2.063602,-0.87703 0.773849,-0.87703 0.773849,-2.476326 z"
         style="font-style:normal;font-variant:normal;font-weight:normal;font-stretch:normal;font-family:'DIN 1451 Std';-inkscape-font-specification:'DIN 1451 Std';fill:#ffffff;stroke:none;stroke-width:0.26869825"
         id="path5106"
         inkscape:connector-curvature="0" />
      <path
         d="m 109.25999,81.09504 h 5.26218 v 2.52791 h 0.10318 q 0.82544,-1.23816 1.96042,-2.01201 1.18658,-0.82544 2.99223,-0.82544 0.98021,0 1.96042,0.36113 0.98021,0.30954 1.75406,1.08339 0.77385,0.77385 1.23816,2.01202 0.46432,1.18657 0.46432,2.94063 v 20.06853 h -5.26219 V 89.14309 q 0,-1.44452 -0.67067,-2.26996 -0.67067,-0.82544 -1.90883,-0.82544 -1.49612,0 -2.06361,0.92862 -0.56749,0.92862 -0.56749,2.68268 v 17.59221 h -5.26218 z"
         style="font-style:normal;font-variant:normal;font-weight:normal;font-stretch:normal;font-family:'DIN 1451 Std';-inkscape-font-specification:'DIN 1451 Std';fill:#ffffff;stroke:none;stroke-width:0.26869825"
         id="path5108"
         inkscape:connector-curvature="0" />
      <path
         d="m 134.57378,98.738843 q 0,1.599297 0.61908,2.579507 0.61908,0.98021 1.96042,0.98021 1.18657,0 1.90884,-0.87703 0.72226,-0.92862 0.72226,-2.373146 V 88.88514 q 0,-1.23816 -0.77385,-2.01201 -0.72227,-0.82544 -1.85725,-0.82544 -1.49611,0 -2.0636,0.92862 -0.5159,0.92862 -0.5159,2.16678 z m 5.2106,6.139217 q -0.5159,0.56749 -0.98021,1.08339 -0.46432,0.46431 -1.03181,0.82544 -0.56749,0.36113 -1.28975,0.56749 -0.72226,0.20636 -1.70247,0.20636 -3.25017,0 -4.59152,-2.47632 -0.46431,-0.87703 -0.67067,-2.16678 -0.20636,-1.28975 -0.20636,-3.456536 V 89.50422 q 0,-2.83745 0.15477,-4.17879 0.15477,-1.34135 0.67067,-2.16679 0.67067,-1.0318 1.70248,-1.70247 1.08339,-0.67067 2.99222,-0.67067 1.5477,0 2.73427,0.72226 1.23817,0.67067 2.1152,1.96042 h 0.10318 v -12.9491 h 5.26218 v 36.73212 h -5.26218 z"
         style="font-style:normal;font-variant:normal;font-weight:normal;font-stretch:normal;font-family:'DIN 1451 Std';-inkscape-font-specification:'DIN 1451 Std';fill:#ffffff;stroke:none;stroke-width:0.26869825"
         id="path5110"
         inkscape:connector-curvature="0" />
    </g>
    <g
       aria-label="Local"
       style="font-style:normal;font-variant:normal;font-weight:normal;font-stretch:normal;font-size:51.590065px;line-height:1.25;font-family:'DIN 1451 Std';-inkscape-font-specification:'DIN 1451 Std';letter-spacing:0px;word-spacing:0px;fill:#ffffff;fill-opacity:1;stroke:none;stroke-width:0.26869825"
       id="text5096"
       transform="translate(63.001069,-399.10504)">
      <path
         d="m 75.731304,123.43575 h 5.262187 v 31.46993 h 10.421193 v 5.26219 h -15.68338 z"
         style="font-style:normal;font-variant:normal;font-weight:normal;font-stretch:normal;font-family:'DIN 1451 Std';-inkscape-font-specification:'DIN 1451 Std';fill:#ffffff;stroke:none;stroke-width:0.26869825"
         id="path5113"
         inkscape:connector-curvature="0" />
      <path
         d="m 94.001442,142.78202 q 0,-1.59929 0.20636,-2.94063 0.206361,-1.34134 0.773851,-2.37314 0.928622,-1.70248 2.682684,-2.73428 1.754062,-1.0318 4.178793,-1.0318 2.42473,0 4.1788,1.0318 1.75406,1.0318 2.68268,2.73428 0.56749,1.0318 0.77385,2.37314 0.20636,1.34134 0.20636,2.94063 v 8.61554 q 0,1.59929 -0.20636,2.94063 -0.20636,1.34134 -0.77385,2.37315 -0.92862,1.70247 -2.68268,2.73427 -1.75407,1.0318 -4.1788,1.0318 -2.424731,0 -4.178793,-1.0318 -1.754062,-1.0318 -2.682684,-2.73427 -0.56749,-1.03181 -0.773851,-2.37315 -0.20636,-1.34134 -0.20636,-2.94063 z m 5.262187,9.44098 q 0,1.49611 0.670671,2.26996 0.72226,0.72226 1.90883,0.72226 1.18657,0 1.85724,-0.72226 0.72226,-0.77385 0.72226,-2.26996 v -10.26642 q 0,-1.49611 -0.72226,-2.21837 -0.67067,-0.77385 -1.85724,-0.77385 -1.18657,0 -1.90883,0.77385 -0.670671,0.72226 -0.670671,2.21837 z"
         style="font-style:normal;font-variant:normal;font-weight:normal;font-stretch:normal;font-family:'DIN 1451 Std';-inkscape-font-specification:'DIN 1451 Std';fill:#ffffff;stroke:none;stroke-width:0.26869825"
         id="path5115"
         inkscape:connector-curvature="0" />
      <path
         d="m 119.07947,152.63572 q 0,1.23816 0.67067,1.90883 0.72226,0.67067 1.90883,0.67067 1.49611,0 1.96042,-0.87703 0.5159,-0.87703 0.61908,-1.75406 h 5.26219 q 0,1.65088 -0.56749,3.0954 -0.5159,1.44453 -1.5477,2.47633 -1.0318,1.08339 -2.47632,1.70247 -1.44453,0.61908 -3.25018,0.61908 -2.42473,0 -4.17879,-1.0318 -1.75407,-1.0318 -2.68269,-2.73427 -0.56749,-1.03181 -0.77385,-2.37315 -0.20636,-1.34134 -0.20636,-2.94063 v -8.61554 q 0,-1.59929 0.20636,-2.94063 0.20636,-1.34134 0.77385,-2.37314 0.92862,-1.70248 2.68269,-2.73428 1.75406,-1.0318 4.17879,-1.0318 1.80565,0 3.25018,0.61908 1.49611,0.61908 2.47632,1.75406 1.0318,1.0834 1.5477,2.6311 0.56749,1.5477 0.56749,3.35335 h -5.26219 q 0,-1.59929 -0.72226,-2.32155 -0.67067,-0.77385 -1.85724,-0.77385 -1.18657,0 -1.90883,0.77385 -0.67067,0.72226 -0.67067,2.21837 z"
         style="font-style:normal;font-variant:normal;font-weight:normal;font-stretch:normal;font-family:'DIN 1451 Std';-inkscape-font-specification:'DIN 1451 Std';fill:#ffffff;stroke:none;stroke-width:0.26869825"
         id="path5117"
         inkscape:connector-curvature="0" />
      <path
         d="m 142.50861,157.48519 h -0.10318 q -1.0318,1.44452 -2.11519,2.21837 -1.0318,0.77385 -2.94063,0.77385 -0.92862,0 -1.90884,-0.30954 -0.98021,-0.25795 -1.85724,-0.98021 -0.82544,-0.77385 -1.39293,-2.11519 -0.5159,-1.39294 -0.5159,-3.55972 0,-2.21837 0.36113,-3.86925 0.36113,-1.70247 1.28975,-2.78587 0.98021,-1.13497 2.5795,-1.65087 1.5993,-0.5675 4.07562,-0.5675 0.56749,0 1.13498,0.0516 0.56749,0.0516 1.39293,0.10318 v -2.73427 q 0,-1.34134 -0.56749,-2.21837 -0.56749,-0.87703 -2.0636,-0.87703 -1.0318,0 -1.90883,0.67067 -0.82544,0.67067 -1.08339,1.96042 h -5.10742 q 0.25795,-3.55971 2.37314,-5.67491 1.0318,-1.0318 2.47633,-1.59929 1.44452,-0.61908 3.25017,-0.61908 1.65088,0 3.0954,0.5159 1.44453,0.5159 2.47633,1.5477 1.08339,1.0318 1.70247,2.57951 0.61908,1.5477 0.61908,3.6113 v 18.21129 h -5.26219 z m 0,-8.56395 q -0.87703,-0.15477 -1.44452,-0.15477 -1.70247,0 -2.94063,0.82544 -1.18657,0.77385 -1.18657,2.88904 0,1.49611 0.72226,2.42473 0.72226,0.92863 2.01201,0.92863 1.34134,0 2.0636,-0.87704 0.77385,-0.87703 0.77385,-2.47632 z"
         style="font-style:normal;font-variant:normal;font-weight:normal;font-stretch:normal;font-family:'DIN 1451 Std';-inkscape-font-specification:'DIN 1451 Std';fill:#ffffff;stroke:none;stroke-width:0.26869825"
         id="path5119"
         inkscape:connector-curvature="0" />
      <path
         d="m 151.28618,123.43575 h 5.26219 v 29.35474 q 0,1.49611 0.5159,2.0636 0.56749,0.5159 2.0636,0.67067 v 4.95265 q -1.80565,0 -3.30176,-0.30954 -1.44453,-0.25795 -2.47633,-1.0318 -0.98021,-0.82544 -1.5477,-2.26996 -0.5159,-1.44453 -0.5159,-3.71449 z"
         style="font-style:normal;font-variant:normal;font-weight:normal;font-stretch:normal;font-family:'DIN 1451 Std';-inkscape-font-specification:'DIN 1451 Std';fill:#ffffff;stroke:none;stroke-width:0.26869825"
         id="path5121"
         inkscape:connector-curvature="0" />
    </g>
    <g
       aria-label="Access"
       style="font-style:normal;font-variant:normal;font-weight:normal;font-stretch:normal;font-size:51.590065px;line-height:1.25;font-family:'DIN 1451 Std';-inkscape-font-specification:'DIN 1451 Std';letter-spacing:0px;word-spacing:0px;fill:#ffffff;fill-opacity:1;stroke:none;stroke-width:0.26869825"
       id="text5100"
       transform="translate(73.122895,-100.01248)">
      <path
         d="m 61.206067,-112.42877 h -0.10318 l -2.579503,13.310238 h 5.262187 z m -2.218373,-10.57596 h 4.385156 l 8.20282,36.732124 h -5.262186 l -1.547702,-7.89328 h -7.171019 l -1.547702,7.89328 h -5.262187 z"
         style="font-style:normal;font-variant:normal;font-weight:normal;font-stretch:normal;font-family:'DIN 1451 Std';-inkscape-font-specification:'DIN 1451 Std';fill:#ffffff;stroke:none;stroke-width:0.26869825"
         id="path5124"
         inkscape:connector-curvature="0" />
      <path
         d="m 79.378667,-93.804755 q 0,1.238161 0.670671,1.908832 0.722261,0.670671 1.908833,0.670671 1.496112,0 1.960422,-0.877031 0.515901,-0.877031 0.619081,-1.754062 h 5.262187 q 0,1.650882 -0.567491,3.095403 -0.515901,1.444522 -1.547702,2.476324 -1.031801,1.083391 -2.476323,1.702472 -1.444522,0.61908 -3.250174,0.61908 -2.424733,0 -4.178796,-1.031801 -1.754062,-1.031801 -2.682683,-2.734273 -0.567491,-1.031802 -0.773851,-2.373143 -0.20636,-1.341342 -0.20636,-2.940634 v -8.615543 q 0,-1.59929 0.20636,-2.94063 0.20636,-1.34134 0.773851,-2.37314 0.928621,-1.70248 2.682683,-2.73428 1.754063,-1.0318 4.178796,-1.0318 1.805652,0 3.250174,0.61908 1.496112,0.61908 2.476323,1.75406 1.031801,1.0834 1.547702,2.6311 0.567491,1.5477 0.567491,3.35335 h -5.262187 q 0,-1.59929 -0.722261,-2.32155 -0.670671,-0.77385 -1.857242,-0.77385 -1.186572,0 -1.908833,0.77385 -0.670671,0.72226 -0.670671,2.21837 z"
         style="font-style:normal;font-variant:normal;font-weight:normal;font-stretch:normal;font-family:'DIN 1451 Std';-inkscape-font-specification:'DIN 1451 Std';fill:#ffffff;stroke:none;stroke-width:0.26869825"
         id="path5126"
         inkscape:connector-curvature="0" />
      <path
         d="m 98.422657,-93.804755 q 0,1.238161 0.67067,1.908832 0.722261,0.670671 1.908833,0.670671 1.49611,0 1.96042,-0.877031 0.5159,-0.877031 0.61908,-1.754062 h 5.26219 q 0,1.650882 -0.56749,3.095403 -0.5159,1.444522 -1.5477,2.476324 -1.0318,1.083391 -2.47633,1.702472 -1.44452,0.61908 -3.25017,0.61908 -2.424733,0 -4.178795,-1.031801 -1.754063,-1.031801 -2.682684,-2.734273 -0.56749,-1.031802 -0.773851,-2.373143 -0.20636,-1.341342 -0.20636,-2.940634 v -8.615543 q 0,-1.59929 0.20636,-2.94063 0.206361,-1.34134 0.773851,-2.37314 0.928621,-1.70248 2.682684,-2.73428 1.754062,-1.0318 4.178795,-1.0318 1.80565,0 3.25017,0.61908 1.49612,0.61908 2.47633,1.75406 1.0318,1.0834 1.5477,2.6311 0.56749,1.5477 0.56749,3.35335 h -5.26219 q 0,-1.59929 -0.72226,-2.32155 -0.67067,-0.77385 -1.85724,-0.77385 -1.186572,0 -1.908833,0.77385 -0.67067,0.72226 -0.67067,2.21837 z"
         style="font-style:normal;font-variant:normal;font-weight:normal;font-stretch:normal;font-family:'DIN 1451 Std';-inkscape-font-specification:'DIN 1451 Std';fill:#ffffff;stroke:none;stroke-width:0.26869825"
         id="path5128"
         inkscape:connector-curvature="0" />
      <path
         d="m 116.69279,-97.36447 v 3.559715 q 0,1.238161 0.67067,1.908832 0.72226,0.670671 1.90884,0.670671 1.49611,0 1.96042,-0.877031 0.5159,-0.877031 0.61908,-1.754062 h 5.26219 q 0,1.650882 -0.56749,3.095403 -0.51591,1.444522 -1.54771,2.476324 -1.0318,1.083391 -2.47632,1.702472 -1.44452,0.61908 -3.25017,0.61908 -2.42474,0 -4.1788,-1.031801 -1.75406,-1.031801 -2.68268,-2.734273 -0.56749,-1.031802 -0.77385,-2.373143 -0.20636,-1.341342 -0.20636,-2.940634 v -8.615543 q 0,-1.59929 0.20636,-2.94063 0.20636,-1.34134 0.77385,-2.37314 0.92862,-1.70248 2.68268,-2.73428 1.75406,-1.0318 4.1788,-1.0318 1.80565,0 3.25017,0.61908 1.49611,0.61908 2.47632,1.75406 1.0318,1.0834 1.54771,2.57951 0.56749,1.49611 0.56749,3.19858 v 7.22261 z m 0,-4.12721 h 5.15901 v -2.99222 q 0,-1.49611 -0.72226,-2.21837 -0.67067,-0.77385 -1.85724,-0.77385 -1.18658,0 -1.90884,0.77385 -0.67067,0.72226 -0.67067,2.21837 z"
         style="font-style:normal;font-variant:normal;font-weight:normal;font-stretch:normal;font-family:'DIN 1451 Std';-inkscape-font-specification:'DIN 1451 Std';fill:#ffffff;stroke:none;stroke-width:0.26869825"
         id="path5130"
         inkscape:connector-curvature="0" />
      <path
         d="m 140.48307,-105.10298 q -0.0516,-1.34134 -0.87703,-2.01201 -0.77385,-0.67067 -1.80565,-0.67067 -1.23816,0 -1.90884,0.82544 -0.67067,0.77385 -0.67067,1.80565 0,0.72226 0.36113,1.44452 0.36113,0.67067 1.85725,1.23816 l 3.0954,1.23817 q 2.94063,1.13498 4.02403,3.095399 1.13498,1.960423 1.13498,4.281976 0,1.650882 -0.61908,3.095403 -0.56749,1.392932 -1.5993,2.476324 -1.0318,1.083391 -2.47632,1.702472 -1.44452,0.61908 -3.14699,0.61908 -1.54771,0 -2.94064,-0.5159 -1.39293,-0.515901 -2.47632,-1.496112 -1.0318,-0.980211 -1.70247,-2.424733 -0.67067,-1.496112 -0.72226,-3.456534 h 4.95264 q 0.15477,1.083391 0.72226,2.012012 0.61908,0.928621 2.1152,0.928621 1.13498,0 2.01201,-0.722261 0.92862,-0.773851 0.92862,-2.115192 0,-1.083392 -0.56749,-1.857243 -0.56749,-0.773851 -2.0636,-1.341341 l -2.52792,-0.928622 q -2.47632,-0.928621 -3.92084,-2.734269 -1.39293,-1.85725 -1.39293,-4.48834 0,-1.65088 0.61908,-3.04381 0.61908,-1.44453 1.65088,-2.42474 1.08339,-1.0318 2.47632,-1.59929 1.39293,-0.56749 2.99223,-0.56749 1.59929,0 2.94063,0.61908 1.39293,0.56749 2.37314,1.59929 0.98021,0.98021 1.54771,2.42474 0.56749,1.39293 0.56749,2.99222 z"
         style="font-style:normal;font-variant:normal;font-weight:normal;font-stretch:normal;font-family:'DIN 1451 Std';-inkscape-font-specification:'DIN 1451 Std';fill:#ffffff;stroke:none;stroke-width:0.26869825"
         id="path5132"
         inkscape:connector-curvature="0" />
      <path
         d="m 158.6202,-105.10298 q -0.0516,-1.34134 -0.87703,-2.01201 -0.77385,-0.67067 -1.80565,-0.67067 -1.23816,0 -1.90884,0.82544 -0.67067,0.77385 -0.67067,1.80565 0,0.72226 0.36113,1.44452 0.36114,0.67067 1.85725,1.23816 l 3.0954,1.23817 q 2.94063,1.13498 4.02403,3.095399 1.13498,1.960423 1.13498,4.281976 0,1.650882 -0.61908,3.095403 -0.56749,1.392932 -1.5993,2.476324 -1.0318,1.083391 -2.47632,1.702472 -1.44452,0.61908 -3.14699,0.61908 -1.5477,0 -2.94064,-0.5159 -1.39293,-0.515901 -2.47632,-1.496112 -1.0318,-0.980211 -1.70247,-2.424733 -0.67067,-1.496112 -0.72226,-3.456534 h 4.95264 q 0.15477,1.083391 0.72226,2.012012 0.61909,0.928621 2.1152,0.928621 1.13498,0 2.01201,-0.722261 0.92862,-0.773851 0.92862,-2.115192 0,-1.083392 -0.56749,-1.857243 -0.56749,-0.773851 -2.0636,-1.341341 l -2.52792,-0.928622 q -2.47632,-0.928621 -3.92084,-2.734269 -1.39293,-1.85725 -1.39293,-4.48834 0,-1.65088 0.61908,-3.04381 0.61908,-1.44453 1.65088,-2.42474 1.08339,-1.0318 2.47632,-1.59929 1.39294,-0.56749 2.99223,-0.56749 1.59929,0 2.94063,0.61908 1.39293,0.56749 2.37314,1.59929 0.98022,0.98021 1.54771,2.42474 0.56749,1.39293 0.56749,2.99222 z"
         style="font-style:normal;font-variant:normal;font-weight:normal;font-stretch:normal;font-family:'DIN 1451 Std';-inkscape-font-specification:'DIN 1451 Std';fill:#ffffff;stroke:none;stroke-width:0.26869825"
         id="path5134"
         inkscape:connector-curvature="0" />
    </g>
    <g
       aria-label="Only"
       style="font-style:normal;font-variant:normal;font-weight:normal;font-stretch:normal;font-size:51.59804916px;line-height:1.25;font-family:'DIN 1451 Std';-inkscape-font-specification:'DIN 1451 Std';letter-spacing:0px;word-spacing:0px;fill:#ffffff;fill-opacity:1;stroke:none;stroke-width:0.26873982"
       id="text5104"
       transform="translate(14.801169,-16.671143)">
      <path
         d="m 131.80785,-144.71593 q 0,-2.21872 0.77397,-3.92146 0.77397,-1.70273 2.01232,-2.78629 1.28995,-1.13516 2.8379,-1.70274 1.59954,-0.56757 3.19907,-0.56757 1.59954,0 3.14749,0.56757 1.59954,0.56758 2.83789,1.70274 1.28995,1.08356 2.06392,2.78629 0.77397,1.70274 0.77397,3.92146 v 19.40086 q 0,2.27032 -0.77397,3.97305 -0.77397,1.65114 -2.06392,2.7863 -1.23835,1.08356 -2.83789,1.65114 -1.54795,0.56758 -3.14749,0.56758 -1.59953,0 -3.19907,-0.56758 -1.54795,-0.56758 -2.8379,-1.65114 -1.23835,-1.13516 -2.01232,-2.7863 -0.77397,-1.70273 -0.77397,-3.97305 z m 5.263,19.40086 q 0,1.90913 1.03196,2.8379 1.08356,0.87716 2.5283,0.87716 1.44475,0 2.47671,-0.87716 1.08356,-0.92877 1.08356,-2.8379 v -19.40086 q 0,-1.90913 -1.08356,-2.7863 -1.03196,-0.92876 -2.47671,-0.92876 -1.44474,0 -2.5283,0.92876 -1.03196,0.87717 -1.03196,2.7863 z"
         style="font-style:normal;font-variant:normal;font-weight:normal;font-stretch:normal;font-family:'DIN 1451 Std';-inkscape-font-specification:'DIN 1451 Std';fill:#ffffff;stroke:none;stroke-width:0.26873982"
         id="path5137"
         inkscape:connector-curvature="0" />
      <path
         d="m 153.77621,-142.80681 h 5.263 v 2.52831 h 0.10319 q 0.82557,-1.23835 1.96073,-2.01233 1.18675,-0.82556 2.99269,-0.82556 0.98036,0 1.96072,0.36118 0.98036,0.30959 1.75434,1.08356 0.77397,0.77397 1.23835,2.01233 0.46438,1.18675 0.46438,2.94108 v 20.07165 h -5.263 v -18.11092 q 0,-1.44475 -0.67077,-2.27031 -0.67078,-0.82557 -1.90913,-0.82557 -1.49635,0 -2.06392,0.92876 -0.56758,0.92877 -0.56758,2.6831 v 17.59494 h -5.263 z"
         style="font-style:normal;font-variant:normal;font-weight:normal;font-stretch:normal;font-family:'DIN 1451 Std';-inkscape-font-specification:'DIN 1451 Std';fill:#ffffff;stroke:none;stroke-width:0.26873982"
         id="path5139"
         inkscape:connector-curvature="0" />
      <path
         d="m 173.52067,-153.38441 h 5.263 v 29.35929 q 0,1.49635 0.51598,2.06393 0.56758,0.51598 2.06393,0.67077 v 4.95342 q -1.80594,0 -3.30229,-0.30959 -1.44474,-0.25799 -2.4767,-1.03196 -0.98037,-0.82557 -1.54794,-2.27032 -0.51598,-1.44475 -0.51598,-3.71506 z"
         style="font-style:normal;font-variant:normal;font-weight:normal;font-stretch:normal;font-family:'DIN 1451 Std';-inkscape-font-specification:'DIN 1451 Std';fill:#ffffff;stroke:none;stroke-width:0.26873982"
         id="path5141"
         inkscape:connector-curvature="0" />
      <path
         d="m 186.75799,-142.80681 3.61186,16.30499 h 0.1032 l 3.56027,-16.30499 h 5.41779 l -7.53331,30.70085 q -0.41279,1.75433 -1.18676,2.88949 -0.72237,1.18675 -1.70274,1.85753 -0.98036,0.72237 -2.11552,0.98036 -1.08355,0.30959 -2.27031,0.30959 h -1.44475 v -4.95341 h 1.18676 q 0.77397,0 1.34155,-0.2064 0.56758,-0.20639 0.98036,-0.92876 0.46438,-0.67077 0.82557,-2.06392 0.36119,-1.34155 0.82557,-3.61187 l -7.17213,-24.97346 z"
         style="font-style:normal;font-variant:normal;font-weight:normal;font-stretch:normal;font-family:'DIN 1451 Std';-inkscape-font-specification:'DIN 1451 Std';fill:#ffffff;stroke:none;stroke-width:0.26873982"
         id="path5143"
         inkscape:connector-curvature="0" />
    </g>
  </g>
</svg>
