<?xml version="1.0" encoding="UTF-8" standalone="no"?>
<!-- Created with Inkscape (http://www.inkscape.org/) -->

<svg
   xmlns:dc="http://purl.org/dc/elements/1.1/"
   xmlns:cc="http://creativecommons.org/ns#"
   xmlns:rdf="http://www.w3.org/1999/02/22-rdf-syntax-ns#"
   xmlns:svg="http://www.w3.org/2000/svg"
   xmlns="http://www.w3.org/2000/svg"
   xmlns:sodipodi="http://sodipodi.sourceforge.net/DTD/sodipodi-0.dtd"
   xmlns:inkscape="http://www.inkscape.org/namespaces/inkscape"
   width="900"
   height="675"
   viewBox="0 0 238.12495 178.59376"
   version="1.1"
   id="svg8"
   inkscape:version="0.92.1 r15371"
   sodipodi:docname="66.svg">
  <defs
     id="defs2" />
  <sodipodi:namedview
     id="base"
     pagecolor="#ffffff"
     bordercolor="#666666"
     borderopacity="1.0"
     inkscape:pageopacity="0.0"
     inkscape:pageshadow="2"
     inkscape:zoom="0.6"
     inkscape:cx="279.20201"
     inkscape:cy="444.28805"
     inkscape:document-units="px"
     inkscape:current-layer="layer1"
     showgrid="false"
     units="px"
     fit-margin-top="0"
     fit-margin-left="0"
     fit-margin-right="0"
     fit-margin-bottom="0"
     inkscape:window-width="1920"
     inkscape:window-height="1057"
     inkscape:window-x="-8"
     inkscape:window-y="-8"
     inkscape:window-maximized="1"
     inkscape:snap-global="false"
     showguides="false" />
  <metadata
     id="metadata5">
    <rdf:RDF>
      <cc:Work
         rdf:about="">
        <dc:format>image/svg+xml</dc:format>
        <dc:type
           rdf:resource="http://purl.org/dc/dcmitype/StillImage" />
        <dc:title></dc:title>
      </cc:Work>
    </rdf:RDF>
  </metadata>
  <g
     inkscape:label="Layer 1"
     inkscape:groupmode="layer"
     id="layer1"
     transform="translate(-910.12122,1060.6237)">
    <rect
       style="fill:#00559b;fill-opacity:1;stroke:none;stroke-width:0.17975712"
       id="rect10"
       width="238.125"
       height="178.59373"
       x="910.12122"
       y="-1060.6237" />
    <rect
       y="-1060.6237"
       x="910.12122"
       height="178.59373"
       width="238.125"
       id="rect12"
       style="fill:#ffffff;fill-opacity:1;stroke:none;stroke-width:0.17975713"
       rx="21.166666"
       ry="21.166666" />
    <rect
       ry="10.583333"
       rx="10.583333"
       style="fill:#00559b;fill-opacity:1;stroke:none;stroke-width:0.16109359"
       id="rect8693"
       width="216.95833"
       height="157.42708"
       x="920.70459"
       y="-1050.0404" />
    <flowRoot
       xml:space="preserve"
       id="flowRoot14458"
       style="font-style:normal;font-weight:normal;font-size:37.33333206px;line-height:1.25;font-family:sans-serif;letter-spacing:0px;word-spacing:0px;fill:#000000;fill-opacity:1;stroke:none"
       transform="matrix(0.26458334,0,0,0.26458334,332.87915,-130.07065)"><flowRegion
         id="flowRegion14460"><rect
           id="rect14462"
           width="1209.6576"
           height="530.45044"
           x="-187.96396"
           y="85.657661" /></flowRegion><flowPara
         id="flowPara14464" /></flowRoot>    <g
       aria-label="15"
       style="font-style:normal;font-variant:normal;font-weight:normal;font-stretch:normal;font-size:103.28295135px;line-height:1.25;font-family:'DIN 1451 Mittelschrift';-inkscape-font-specification:'DIN 1451 Mittelschrift';letter-spacing:0px;word-spacing:0px;fill:#ffffff;fill-opacity:1;stroke:none;stroke-width:0.53793204"
       id="text62"
       transform="translate(144.36443,-35.134696)">
      <path
         d="m 858.46572,-922.75549 v -62.48417 l -10.48967,7.66553 v -11.19571 l 10.48967,-7.6151 h 10.59054 v 73.62945 z"
         style="font-style:normal;font-variant:normal;font-weight:normal;font-stretch:normal;font-family:'DIN 1451 Mittelschrift';-inkscape-font-specification:'DIN 1451 Mittelschrift';fill:#ffffff;stroke:none;stroke-width:0.53793204"
         id="path75"
         inkscape:connector-curvature="0" />
      <path
         d="m 881.06548,-956.64521 v -39.73973 h 39.13455 v 10.54011 h -29.19962 v 16.59184 q 5.04311,-4.03449 11.75045,-4.03449 4.18579,0 7.6151,1.6138 3.47975,1.61379 5.497,3.78233 3.02586,3.27802 4.3875,7.16122 1.41208,3.83277 1.41208,12.9608 0,7.41338 -1.10949,11.04442 -1.05905,3.58061 -3.42932,6.60648 -2.2694,2.87457 -6.35432,5.3457 -4.08492,2.47112 -9.58191,2.47112 -7.11079,0 -13.71727,-4.38751 -6.60648,-4.38751 -7.76639,-14.67546 h 10.5401 q 1.86596,8.5733 10.54011,8.5733 7.71596,0 9.02717,-5.29527 1.31121,-5.29527 1.31121,-10.48968 0,-6.10216 -2.06768,-10.13665 -2.06767,-4.03449 -8.57329,-4.03449 -6.10216,0 -9.48105,6.10216 z"
         style="font-style:normal;font-variant:normal;font-weight:normal;font-stretch:normal;font-family:'DIN 1451 Mittelschrift';-inkscape-font-specification:'DIN 1451 Mittelschrift';fill:#ffffff;stroke:none;stroke-width:0.53793204"
         id="path77"
         inkscape:connector-curvature="0" />
    </g>
    <g
       aria-label="MAX"
       style="font-style:normal;font-variant:normal;font-weight:normal;font-stretch:normal;font-size:38.99657059px;line-height:1.25;font-family:'DIN 1451 Mittelschrift';-inkscape-font-specification:'DIN 1451 Mittelschrift';letter-spacing:0px;word-spacing:0px;fill:#ffcc00;fill-opacity:1;stroke:none;stroke-width:0.20310713"
       id="text66"
       transform="translate(93.927078,203.26329)">
      <path
         d="m 898.47955,-1114.3975 v -27.7431 h 3.97963 l 7.95927,18.0892 7.78788,-18.0892 h 3.97964 v 27.7431 h -4.20813 v -17.3085 h -0.0762 l -5.80759,13.3479 h -3.5036 l -5.80759,-13.3479 h -0.0952 v 17.3085 z"
         style="font-style:normal;font-variant:normal;font-weight:normal;font-stretch:normal;font-family:'DIN 1451 Mittelschrift';-inkscape-font-specification:'DIN 1451 Mittelschrift';fill:#ffffff;stroke:none;stroke-width:0.20310713"
         id="path68"
         inkscape:connector-curvature="0" />
      <path
         d="m 925.11832,-1114.4165 10.12997,-27.7622 h 3.46552 l 10.12997,27.7622 h -4.41758 l -2.13263,-6.2646 h -10.52983 l -2.20879,6.2646 z m 7.8831,-9.9776 h 8.03543 q -0.8759,-2.5706 -1.39002,-4.0178 -0.49507,-1.4661 -0.8759,-2.5896 -0.36178,-1.1234 -0.74261,-2.2849 -0.38082,-1.1616 -1.00919,-3.1418 -0.66644,2.0564 -1.06631,3.2941 -0.39987,1.2186 -0.78069,2.3611 -0.36179,1.1425 -0.85686,2.5516 -0.47603,1.409 -1.31385,3.8273 z"
         style="font-style:normal;font-variant:normal;font-weight:normal;font-stretch:normal;font-family:'DIN 1451 Mittelschrift';-inkscape-font-specification:'DIN 1451 Mittelschrift';fill:#ffffff;stroke:none;stroke-width:0.20310713"
         id="path70"
         inkscape:connector-curvature="0" />
      <path
         d="m 967.27327,-1114.3975 -6.07418,-10.3204 -6.09321,10.3204 h -4.74128 l 8.49242,-14.2238 -7.95927,-13.5193 h 4.76033 l 5.54101,9.6158 5.52198,-9.6158 h 4.76032 l -7.95926,13.5193 8.51146,14.2238 z"
         style="font-style:normal;font-variant:normal;font-weight:normal;font-stretch:normal;font-family:'DIN 1451 Mittelschrift';-inkscape-font-specification:'DIN 1451 Mittelschrift';fill:#ffffff;stroke:none;stroke-width:0.20310713"
         id="path72"
         inkscape:connector-curvature="0" />
    </g>
  </g>
</svg>
