<?xml version="1.0" encoding="UTF-8" standalone="no"?>
<!-- Created with Inkscape (http://www.inkscape.org/) -->

<svg
   width="900"
   height="675"
   viewBox="0 0 238.12499 178.59378"
   version="1.1"
   id="svg8"
   inkscape:version="1.4.2 (f4327f4, 2025-05-13)"
   sodipodi:docname="SADC_road_sign_R562-B.svg"
   xmlns:inkscape="http://www.inkscape.org/namespaces/inkscape"
   xmlns:sodipodi="http://sodipodi.sourceforge.net/DTD/sodipodi-0.dtd"
   xmlns="http://www.w3.org/2000/svg"
   xmlns:svg="http://www.w3.org/2000/svg"
   xmlns:rdf="http://www.w3.org/1999/02/22-rdf-syntax-ns#"
   xmlns:cc="http://creativecommons.org/ns#"
   xmlns:dc="http://purl.org/dc/elements/1.1/">
  <defs
     id="defs2" />
  <sodipodi:namedview
     id="base"
     pagecolor="#ffffff"
     bordercolor="#666666"
     borderopacity="1.0"
     inkscape:pageopacity="0.0"
     inkscape:pageshadow="2"
     inkscape:zoom="0.55335211"
     inkscape:cx="372.27652"
     inkscape:cy="0"
     inkscape:document-units="px"
     inkscape:current-layer="layer1"
     showgrid="false"
     units="px"
     inkscape:snap-global="false"
     inkscape:window-width="1920"
     inkscape:window-height="991"
     inkscape:window-x="-9"
     inkscape:window-y="-9"
     inkscape:window-maximized="1"
     fit-margin-top="0"
     fit-margin-left="0"
     fit-margin-right="0"
     fit-margin-bottom="0"
     showguides="true"
     inkscape:showpageshadow="2"
     inkscape:pagecheckerboard="0"
     inkscape:deskcolor="#d1d1d1" />
  <metadata
     id="metadata5">
    <rdf:RDF>
      <cc:Work
         rdf:about="">
        <dc:format>image/svg+xml</dc:format>
        <dc:type
           rdf:resource="http://purl.org/dc/dcmitype/StillImage" />
        <dc:title />
      </cc:Work>
    </rdf:RDF>
  </metadata>
  <g
     inkscape:label="Layer 1"
     inkscape:groupmode="layer"
     id="layer1"
     transform="translate(136.52585,860.27673)">
    <rect
       style="opacity:1;fill:#00559b;fill-opacity:1;stroke:none;stroke-width:8.77885628;stroke-linejoin:round;stroke-miterlimit:4;stroke-dasharray:none;stroke-opacity:1"
       id="rect4485"
       width="238.125"
       height="178.59375"
       x="-136.52585"
       y="-860.27673" />
    <rect
       y="-860.27673"
       x="-136.52585"
       height="178.59375"
       width="238.125"
       id="rect4487"
       style="opacity:1;fill:#ffffff;fill-opacity:1;stroke:none;stroke-width:8.77885628;stroke-linejoin:round;stroke-miterlimit:4;stroke-dasharray:none;stroke-opacity:1"
       rx="21.166666"
       ry="21.166666" />
    <rect
       ry="10.583333"
       rx="10.583333"
       style="opacity:1;fill:#00559b;fill-opacity:1;stroke:none;stroke-width:7.86738062;stroke-linejoin:round;stroke-miterlimit:4;stroke-dasharray:none;stroke-opacity:1"
       id="rect4489"
       width="216.95833"
       height="157.42708"
       x="-125.94253"
       y="-849.69336" />
    <path
       id="path235"
       style="fill:#ffffff;fill-opacity:1;fill-rule:evenodd;stroke-width:0.431982;stroke-linecap:round;stroke-linejoin:round;stroke-miterlimit:5.6;stroke-dasharray:0.431982, 3.45586;paint-order:stroke fill markers"
       d="m -32.750246,-830.51111 c -6.036694,0 -10.926601,4.73606 -11.171817,10.71043 h 7.508834 c 1.412762,0 2.550131,1.13736 2.550131,2.55015 0,1.41271 -1.137369,2.55008 -2.550131,2.55008 h -5.287049 c -1.236282,0 -2.231611,0.99536 -2.231611,2.23167 v 1.52179 5.85985 h 2.230302 2.3096 c 3.228355,-5.08427 8.869206,-7.84828 14.554951,-7.59529 2.262211,0.10067 4.541373,0.67826 6.663376,1.75114 0.746136,-1.72992 1.160719,-3.64599 1.1607,-5.66255 0,-6.80795 -6.805034,-13.91715 -15.042363,-13.91727 z m 7.719866,22.1778 c -4.264296,-0.18966 -8.48414,1.90712 -10.84543,5.83694 l -1.592603,2.65041 -18.103241,30.20967 c 4.425212,2.24802 9.889778,0.76849 12.509467,-3.44735 l 7.45116,-11.99238 5.372905,-8.94286 26.8199629,16.11545 8.49585,-14.02864 -24.4356479,-14.68279 c -1.786292,-1.07329 -3.734099,-1.63221 -5.672423,-1.71845 z m -25.397104,17.20738 c -0.411243,0.004 -0.809525,0.14435 -1.131864,0.39977 l -18.572506,14.73521 h -8.684605 c -0.865436,0 -1.562464,3.2611 -1.562464,7.31154 0,4.05042 0.697028,7.31089 1.562464,7.31089 0,0 2.727191,-1.47869 4.140115,-2.11559 1.255324,-0.56589 3.245958,-1.34941 4.456013,-1.47465 v 3.88518 c -11.070834,2.92701 -18.782324,12.94244 -18.782233,24.39366 1.94e-4,13.93477 11.296514,25.23111 25.231295,25.23132 11.810443,3e-5 22.040683,-8.1925 24.62178,-19.71745 h 3.139983 c -0.733055,3.69017 -2.187285,7.12537 -4.208277,10.15202 H -10.95255 9.0650909 c 4.7857201,6.04207 12.0706701,9.56526 19.7784301,9.56543 13.93504,1.5e-4 25.23177,-11.29628 25.23195,-25.23132 1.3e-4,-13.93527 -11.29668,-25.23205 -25.23195,-25.23189 -13.43114,2.4e-4 -24.5079301,10.52214 -25.1978701,23.93555 -0.32269,0.92937 -0.71781,1.88512 -1.13972,2.49641 -0.91477,1.32528 -2.18524,2.48393 -3.63743,3.17991 -0.9923,0.47562 -2.46821,0.72473 -3.25074,0.57611 l -34.3274829,-35.67233 h -21.137714 v -2.35546 l 11.02763,-18.5817 c 0.627061,-1.05793 0.06598,-2.42184 -1.123995,-2.73234 -0.157862,-0.0413 -0.320502,-0.0616 -0.483683,-0.0603 z m 58.6589249,1.12925 -8.37919,14.1112 H -24.532935 c -4.030597,0 -7.274849,3.24495 -7.274849,7.27554 0,1.97544 0.779516,3.76228 2.048755,5.07074 l 28.1123999,28.99588 c 0.20024,-0.15736 0.39397,-0.32288 0.58068,-0.4961 3.77447,-3.5073 3.99074,-9.41049 0.48301,-13.18457 l -14.6453879,-15.76154 h 29.107278 v -0.0238 c 3.85513,0.26125 7.53055,-1.66384 9.51106,-4.98161 2.9066,-4.8695 1.31532,-11.1733 -3.5542,-14.07982 z m -72.0027099,37.71061 c 1.150884,-4e-5 2.298242,0.1273 3.421144,0.37947 l -5.045208,10.07991 c -2.245464,0.70873 -3.772236,2.79147 -3.772435,5.14614 -1.26e-4,2.98058 2.415945,5.39691 5.396499,5.39711 2.980811,1.6e-4 5.397277,-2.41631 5.397152,-5.39711 -1.47e-4,-1.1002 -0.336527,-2.17403 -0.964079,-3.07769 l 4.767977,-9.5268 c 4.025128,2.93806 6.405091,7.62177 6.405151,12.60512 2.7e-5,8.61907 -6.987119,15.60624 -15.606201,15.60624 -8.619082,0 -15.606229,-6.98717 -15.6062,-15.60624 1.5e-5,-8.61906 6.987145,-15.60615 15.6062,-15.60615 z m 92.61479,0 c 8.61906,0 15.60619,6.98709 15.60621,15.60615 3e-5,8.61907 -6.98712,15.60624 -15.60621,15.60624 -8.61908,0 -15.60622,-6.98717 -15.60619,-15.60624 1.1e-4,-4.1727 1.67124,-8.17155 4.64017,-11.10359 l 5.85921,9.3583 c -0.19184,0.56166 -0.28971,1.15114 -0.28969,1.74466 -1.2e-4,2.98058 2.41595,5.39691 5.3965,5.39711 2.98081,1.6e-4 5.39729,-2.41631 5.39716,-5.39711 -1.6e-4,-2.94557 -2.36217,-5.34699 -5.30737,-5.39584 l -5.7314,-9.15452 c 1.79913,-0.69745 3.71201,-1.05523 5.64161,-1.05516 z"
       sodipodi:nodetypes="scsssssccccccccsccccccccccccccssccccccccccccccccscccccccccsscccccccccccccccccccssccsscccccsccc" />
  </g>
</svg>
