<?xml version="1.0" encoding="UTF-8" standalone="no"?>
<!-- Created with Inkscape (http://www.inkscape.org/) -->

<svg
   xmlns:dc="http://purl.org/dc/elements/1.1/"
   xmlns:cc="http://creativecommons.org/ns#"
   xmlns:rdf="http://www.w3.org/1999/02/22-rdf-syntax-ns#"
   xmlns:svg="http://www.w3.org/2000/svg"
   xmlns="http://www.w3.org/2000/svg"
   xmlns:sodipodi="http://sodipodi.sourceforge.net/DTD/sodipodi-0.dtd"
   xmlns:inkscape="http://www.inkscape.org/namespaces/inkscape"
   width="900"
   height="675"
   viewBox="0 0 238.12499 178.59378"
   version="1.1"
   id="svg8"
   inkscape:version="0.92.1 r15371"
   sodipodi:docname="33.svg">
  <defs
     id="defs2" />
  <sodipodi:namedview
     id="base"
     pagecolor="#ffffff"
     bordercolor="#666666"
     borderopacity="1.0"
     inkscape:pageopacity="0.0"
     inkscape:pageshadow="2"
     inkscape:zoom="0.55335211"
     inkscape:cx="641.1624"
     inkscape:cy="202.25258"
     inkscape:document-units="px"
     inkscape:current-layer="layer1"
     showgrid="false"
     units="px"
     inkscape:snap-global="false"
     inkscape:window-width="1920"
     inkscape:window-height="1057"
     inkscape:window-x="-8"
     inkscape:window-y="-8"
     inkscape:window-maximized="1"
     fit-margin-top="0"
     fit-margin-left="0"
     fit-margin-right="0"
     fit-margin-bottom="0"
     showguides="false" />
  <metadata
     id="metadata5">
    <rdf:RDF>
      <cc:Work
         rdf:about="">
        <dc:format>image/svg+xml</dc:format>
        <dc:type
           rdf:resource="http://purl.org/dc/dcmitype/StillImage" />
        <dc:title></dc:title>
      </cc:Work>
    </rdf:RDF>
  </metadata>
  <g
     inkscape:label="Layer 1"
     inkscape:groupmode="layer"
     id="layer1"
     transform="translate(299.09564,1179.6786)">
    <rect
       style="opacity:1;fill:#00559b;fill-opacity:1;stroke:none;stroke-width:8.77885628;stroke-linejoin:round;stroke-miterlimit:4;stroke-dasharray:none;stroke-opacity:1"
       id="rect4485"
       width="238.125"
       height="178.59375"
       x="-299.09564"
       y="-1179.6786" />
    <rect
       y="-1179.6786"
       x="-299.09564"
       height="178.59375"
       width="238.125"
       id="rect4487"
       style="opacity:1;fill:#ffffff;fill-opacity:1;stroke:none;stroke-width:8.77885628;stroke-linejoin:round;stroke-miterlimit:4;stroke-dasharray:none;stroke-opacity:1"
       rx="21.166666"
       ry="21.166666" />
    <rect
       ry="10.583333"
       rx="10.583333"
       style="opacity:1;fill:#00559b;fill-opacity:1;stroke:none;stroke-width:7.86738062;stroke-linejoin:round;stroke-miterlimit:4;stroke-dasharray:none;stroke-opacity:1"
       id="rect4489"
       width="216.95833"
       height="157.42708"
       x="-288.51233"
       y="-1169.0952" />
    <path
       inkscape:connector-curvature="0"
       id="path13379-7"
       style="fill:#ffffff;fill-opacity:1;fill-rule:evenodd;stroke:none;stroke-width:0.31103048"
       d="m -204.57958,-1121.1922 -20.42459,17.6058 -48.22353,7.3753 c -0.62369,0.1198 -1.19713,0.3022 -1.70159,0.5711 -0.71344,0.34 -1.22269,0.7311 -1.70062,1.13 -0.58915,0.567 -0.83739,1.1341 -1.14198,1.7012 -0.1254,0.2893 -0.21004,0.5786 -0.27598,0.8679 -2.33157,9.5642 -1.36754,14.3581 3.68767,22.4235 l -1.71919,1.4493 h 34.14923 v 3.3591 h 150.849813 c 8.55345,-8.2675 12.106729,-22.0216 9.34692,-33.4891 l -1.4275,-0.2856 -24.969673,-23.8509 c -0.88206,-0.776 -2.00481,-1.7905 -2.50389,-2.0985 -0.60462,-0.3552 -1.61973,-0.9055 -2.88727,-1.0301 0,0 -4.53315,-0.581 -5.54054,-0.6819 -7.43525,-0.8206 -7.53692,-0.5549 -10.34083,-0.7332 l -16.73683,-0.2856 h -16.73789 l -16.9591,0.6352 c -5.06316,0.2664 -9.09814,0.3561 -16.80108,1.9224 -2.38467,0.3938 -1.67481,0.3001 -2.36103,0.4816 -0.9875,0.2224 -1.92093,0.6407 -3.02724,1.2196 -1.12247,0.7058 -2.14275,1.3606 -2.55806,1.7129"
       sodipodi:nodetypes="cccccccccccccccccccccccccc" />
    <circle
       r="22.052065"
       cy="-1068.9077"
       cx="-243.63895"
       id="circle13389-4"
       style="opacity:1;fill:#00559b;fill-opacity:1;stroke:none;stroke-width:0.74647313;stroke-linejoin:miter;stroke-miterlimit:4;stroke-dasharray:none;stroke-dashoffset:0;stroke-opacity:1" />
    <circle
       style="opacity:1;fill:#ffffff;fill-opacity:1;stroke:none;stroke-width:0.74647313;stroke-linejoin:miter;stroke-miterlimit:4;stroke-dasharray:none;stroke-dashoffset:0;stroke-opacity:1"
       id="circle5498"
       cx="-243.63895"
       cy="-1068.9077"
       r="14.773949" />
    <circle
       style="opacity:1;fill:#00559b;fill-opacity:1;stroke:none;stroke-width:0.74647313;stroke-linejoin:miter;stroke-miterlimit:4;stroke-dasharray:none;stroke-dashoffset:0;stroke-opacity:1"
       id="circle5557"
       cx="-113.31715"
       cy="-1068.9077"
       r="22.052065" />
    <circle
       r="14.773949"
       cy="-1068.9077"
       cx="-113.31715"
       id="circle5559"
       style="opacity:1;fill:#ffffff;fill-opacity:1;stroke:none;stroke-width:0.74647313;stroke-linejoin:miter;stroke-miterlimit:4;stroke-dasharray:none;stroke-dashoffset:0;stroke-opacity:1" />
    <path
       inkscape:connector-curvature="0"
       id="path13381-3-9"
       style="fill:#00559b;fill-opacity:1;fill-rule:nonzero;stroke:none;stroke-width:0.31103048"
       d="m -160.73022,-1122.7472 c 0.61214,0.075 1.34996,0.085 1.71157,0.2948 0.37203,0.1624 1.19038,0.7965 1.18098,0.8528 0.27608,0.2047 0.67852,0.9305 0.82078,1.4934 0.11544,0.574 0.0951,1.1617 0,1.7567 l -2.86185,14.0776 c -0.13135,0.6014 -0.31457,1.0989 -0.56508,1.4618 -0.35967,0.7002 -1.0152,1.1446 -1.0152,1.1446 -0.5361,0.2699 -1.07337,0.2463 -1.55932,0.3171 h -43.11262 c -0.44527,-0.033 -0.83546,0.055 -1.42521,-0.2948 -0.41404,-0.2915 -1.43674,-1.1669 -1.43674,-1.1669 0,0 -0.54306,-0.3953 -0.85248,-1.4618 -0.0869,-0.5132 -0.0322,-0.9908 0,-1.4741 0.0463,-0.3094 0.0799,-0.6505 0.65635,-1.6401 l 0.62728,-0.7956 c 2.08011,-1.8958 11.47624,-11.4183 14.47716,-12.1633 1.94071,-0.4817 3.66441,-0.8411 6.28313,-1.2265 6.98043,-1.0278 23.46834,-1.0812 27.06743,-1.1757"
       sodipodi:nodetypes="ccccccccccccccccssc" />
    <path
       inkscape:connector-curvature="0"
       id="path13383-8-6"
       style="fill:#00559b;fill-opacity:1;fill-rule:nonzero;stroke:none;stroke-width:0.31103048"
       d="m -126.26741,-1122.5415 c 0.62482,0.1011 1.33596,0.1152 1.87451,0.3024 1.68737,0.6686 1.98649,0.8438 2.72187,1.5259 l 9.55021,10.1319 c 0.34988,0.3158 1.19698,1.4407 1.46869,2.1084 1.60311,4.2061 -0.0302,7.0724 -4.57143,7.1245 h -35.96082 c -0.56526,-0.073 -1.71173,-0.283 -1.71173,-0.283 0,0 -0.65322,-0.1831 -1.13638,-0.9007 -0.26281,-0.3869 -0.50884,-0.6857 -0.852,-1.4946 -0.0996,-0.4345 -0.20835,-0.8542 0,-1.7811 l 2.27379,-13.6761 c 0.18413,-0.5925 0.16376,-1.1508 0.57432,-1.7811 0.35545,-0.39 0.48252,-0.7371 1.1373,-1.1833 0.27113,-0.2492 0.98591,-0.2766 1.71092,-0.2989 h 17.12538"
       sodipodi:nodetypes="cccccccccccccccc" />
  </g>
</svg>
