<?xml version="1.0" encoding="UTF-8" standalone="no"?>
<!-- Created with Inkscape (http://www.inkscape.org/) -->

<svg
   xmlns:dc="http://purl.org/dc/elements/1.1/"
   xmlns:cc="http://creativecommons.org/ns#"
   xmlns:rdf="http://www.w3.org/1999/02/22-rdf-syntax-ns#"
   xmlns:svg="http://www.w3.org/2000/svg"
   xmlns="http://www.w3.org/2000/svg"
   xmlns:sodipodi="http://sodipodi.sourceforge.net/DTD/sodipodi-0.dtd"
   xmlns:inkscape="http://www.inkscape.org/namespaces/inkscape"
   width="900"
   height="675"
   viewBox="0 0 238.12499 178.59378"
   version="1.1"
   id="svg8"
   inkscape:version="0.92.1 r15371"
   sodipodi:docname="11.svg">
  <defs
     id="defs2" />
  <sodipodi:namedview
     id="base"
     pagecolor="#ffffff"
     bordercolor="#666666"
     borderopacity="1.0"
     inkscape:pageopacity="0.0"
     inkscape:pageshadow="2"
     inkscape:zoom="0.55335211"
     inkscape:cx="837.24012"
     inkscape:cy="321.52568"
     inkscape:document-units="px"
     inkscape:current-layer="layer1"
     showgrid="false"
     units="px"
     inkscape:snap-global="false"
     inkscape:window-width="1920"
     inkscape:window-height="1057"
     inkscape:window-x="-8"
     inkscape:window-y="-8"
     inkscape:window-maximized="1"
     fit-margin-top="0"
     fit-margin-left="0"
     fit-margin-right="0"
     fit-margin-bottom="0"
     showguides="false" />
  <metadata
     id="metadata5">
    <rdf:RDF>
      <cc:Work
         rdf:about="">
        <dc:format>image/svg+xml</dc:format>
        <dc:type
           rdf:resource="http://purl.org/dc/dcmitype/StillImage" />
        <dc:title></dc:title>
      </cc:Work>
    </rdf:RDF>
  </metadata>
  <g
     inkscape:label="Layer 1"
     inkscape:groupmode="layer"
     id="layer1"
     transform="translate(428.67334,1415.883)">
    <rect
       style="opacity:1;fill:#ffffff;fill-opacity:1;stroke:none;stroke-width:8.77885628;stroke-linejoin:round;stroke-miterlimit:4;stroke-dasharray:none;stroke-opacity:1"
       id="rect4485"
       width="238.125"
       height="178.59375"
       x="-428.67334"
       y="-1415.8829" />
    <rect
       y="-1415.8829"
       x="-428.67334"
       height="178.59375"
       width="238.125"
       id="rect4487"
       style="opacity:1;fill:#e20a16;fill-opacity:1;stroke:none;stroke-width:8.77885628;stroke-linejoin:round;stroke-miterlimit:4;stroke-dasharray:none;stroke-opacity:1"
       rx="21.166666"
       ry="21.166666" />
    <rect
       ry="10.583333"
       rx="10.583333"
       style="opacity:1;fill:#ffffff;fill-opacity:1;stroke:none;stroke-width:7.86738062;stroke-linejoin:round;stroke-miterlimit:4;stroke-dasharray:none;stroke-opacity:1"
       id="rect4489"
       width="216.95833"
       height="157.42708"
       x="-418.09003"
       y="-1405.2996" />
    <path
       style="fill:#000000;fill-opacity:1;fill-rule:nonzero;stroke:none;stroke-width:0.26937139"
       d="m -299.5094,-1386.1173 1.88562,8.4637 h 25.11676 c 0.95159,0.039 1.94961,0.063 2.40697,0.242 1.4892,0.3923 1.73246,0.5356 2.17499,0.7186 0.75198,0.4046 1.49504,0.836 2.17496,1.4568 0.5816,0.6405 1.08347,1.2809 1.44628,1.9214 0.30501,0.3304 0.76801,1.2927 1.21376,2.186 l 15.91974,43.7343 1.4705,1.67 c 0.95183,1.447 1.72432,3.2783 2.4075,5.3075 0.54739,1.5595 0.33333,2.1039 0.4856,3.1366 v 17.3888 c -0.0762,0.897 -0.30895,1.2219 -0.4856,1.6899 -0.20925,0.4737 -0.41033,1.0022 -0.92017,1.4736 -0.24226,0.3128 -1.52114,1.2561 -2.43541,1.3353 l -1.23917,0.092 v 28.246 h -15.20331 v -18.3172 c -15.39382,2.326 -30.97253,3.3789 -46.52043,3.3403 -15.54791,0.039 -31.12663,-1.0143 -46.52045,-3.3403 v 18.3172 h -15.20335 v -28.246 l -1.23915,-0.092 c -0.91429,-0.079 -2.19314,-1.0225 -2.43539,-1.3353 -0.50987,-0.4714 -0.71096,-0.9999 -0.92021,-1.4736 -0.17665,-0.468 -0.40944,-0.7929 -0.48559,-1.6899 v -17.3888 c 0.15228,-1.0327 -0.0618,-1.5771 0.48559,-3.1366 0.68319,-2.0292 1.45567,-3.8606 2.40751,-5.3075 l 1.4705,-1.67 15.91977,-43.7343 c 0.44576,-0.8933 0.90875,-1.8556 1.21376,-2.186 0.36282,-0.6405 0.86467,-1.2809 1.44628,-1.9214 0.67992,-0.6208 1.42301,-1.0522 2.17499,-1.4568 0.44252,-0.183 0.68577,-0.3263 2.17495,-0.7186 0.45737,-0.1794 1.4554,-0.2039 2.40697,-0.242 h 25.11679 l 1.88559,-8.4637 z"
       id="path5666"
       inkscape:connector-curvature="0"
       sodipodi:nodetypes="cccccccccccccccccccccccccccccccccccccccccc" />
    <path
       style="fill:#ffffff;fill-opacity:1;fill-rule:evenodd;stroke:none;stroke-width:0.26937139"
       d="m -361.54562,-1342.7431 9.92098,-26.8583 c 0.30714,-0.7768 0.69678,-1.4312 0.96437,-1.6925 0.32729,-0.3905 0.92968,-0.9778 2.9052,-0.9723 h 0.004 v 0 h 76.28063 c 1.97906,-0.01 2.58193,0.5816 2.90943,0.9723 0.26762,0.2613 0.65727,0.9157 0.96438,1.6925 l 9.92095,26.8583 z"
       id="path5668"
       inkscape:connector-curvature="0"
       sodipodi:nodetypes="ccccccccccc" />
    <path
       sodipodi:nodetypes="ccccc"
       inkscape:connector-curvature="0"
       id="path5670"
       d="m -346.83794,-1322.7882 3.44796,13.9804 h -24.13568 v -13.9804 z"
       style="fill:#ffffff;fill-opacity:1;fill-rule:nonzero;stroke:none;stroke-width:0.26937139" />
    <circle
       r="9.9667425"
       cy="-1340.5884"
       cx="-337.24832"
       id="circle5676"
       style="opacity:1;fill:#000000;fill-opacity:1;stroke:none;stroke-width:0.64649135;stroke-linejoin:miter;stroke-miterlimit:4;stroke-dasharray:none;stroke-dashoffset:0;stroke-opacity:1" />
    <path
       style="fill:#ffffff;fill-opacity:1;fill-rule:evenodd;stroke:none;stroke-width:0.26937139"
       d="m -367.52566,-1304.7671 h 115.82968 v -1.9395 h -28.79579 l 1.61623,-6.0071 h -61.47055 l 1.61623,6.0071 h -28.7958 z"
       id="path7091"
       inkscape:connector-curvature="0"
       sodipodi:nodetypes="ccccccccc" />
    <path
       style="fill:#ffffff;fill-opacity:1;fill-rule:nonzero;stroke:none;stroke-width:0.26937139"
       d="m -272.38369,-1322.7882 -3.44796,13.9804 h 24.13567 v -13.9804 z"
       id="path7129"
       inkscape:connector-curvature="0"
       sodipodi:nodetypes="ccccc" />
  </g>
</svg>
