<?xml version="1.0" encoding="UTF-8" standalone="no"?>
<!-- Created with Inkscape (http://www.inkscape.org/) -->

<svg
   xmlns:dc="http://purl.org/dc/elements/1.1/"
   xmlns:cc="http://creativecommons.org/ns#"
   xmlns:rdf="http://www.w3.org/1999/02/22-rdf-syntax-ns#"
   xmlns:svg="http://www.w3.org/2000/svg"
   xmlns="http://www.w3.org/2000/svg"
   xmlns:sodipodi="http://sodipodi.sourceforge.net/DTD/sodipodi-0.dtd"
   xmlns:inkscape="http://www.inkscape.org/namespaces/inkscape"
   width="900"
   height="675"
   viewBox="0 0 238.12499 178.59378"
   version="1.1"
   id="svg8"
   inkscape:version="0.92.1 r15371"
   sodipodi:docname="33.svg">
  <defs
     id="defs2" />
  <sodipodi:namedview
     id="base"
     pagecolor="#ffffff"
     bordercolor="#666666"
     borderopacity="1.0"
     inkscape:pageopacity="0.0"
     inkscape:pageshadow="2"
     inkscape:zoom="0.55335211"
     inkscape:cx="447.79555"
     inkscape:cy="525.73547"
     inkscape:document-units="px"
     inkscape:current-layer="layer1"
     showgrid="false"
     units="px"
     inkscape:snap-global="false"
     inkscape:window-width="1920"
     inkscape:window-height="1057"
     inkscape:window-x="-8"
     inkscape:window-y="-8"
     inkscape:window-maximized="1"
     fit-margin-top="0"
     fit-margin-left="0"
     fit-margin-right="0"
     fit-margin-bottom="0"
     showguides="false" />
  <metadata
     id="metadata5">
    <rdf:RDF>
      <cc:Work
         rdf:about="">
        <dc:format>image/svg+xml</dc:format>
        <dc:type
           rdf:resource="http://purl.org/dc/dcmitype/StillImage" />
        <dc:title></dc:title>
      </cc:Work>
    </rdf:RDF>
  </metadata>
  <g
     inkscape:label="Layer 1"
     inkscape:groupmode="layer"
     id="layer1"
     transform="translate(558.72919,1629.6146)">
    <rect
       style="opacity:1;fill:#00559b;fill-opacity:1;stroke:none;stroke-width:8.77885628;stroke-linejoin:round;stroke-miterlimit:4;stroke-dasharray:none;stroke-opacity:1"
       id="rect4485"
       width="238.125"
       height="178.59375"
       x="-558.72919"
       y="-1629.6145" />
    <rect
       y="-1629.6145"
       x="-558.72919"
       height="178.59375"
       width="238.125"
       id="rect4487"
       style="opacity:1;fill:#ffffff;fill-opacity:1;stroke:none;stroke-width:8.77885628;stroke-linejoin:round;stroke-miterlimit:4;stroke-dasharray:none;stroke-opacity:1"
       rx="21.166666"
       ry="21.166666" />
    <rect
       ry="10.583333"
       rx="10.583333"
       style="opacity:1;fill:#00559b;fill-opacity:1;stroke:none;stroke-width:7.86738062;stroke-linejoin:round;stroke-miterlimit:4;stroke-dasharray:none;stroke-opacity:1"
       id="rect4489"
       width="216.95833"
       height="157.42708"
       x="-548.14587"
       y="-1619.0311" />
    <path
       d="m -536.62451,-1509.9183 c -0.48045,0 -0.81849,-0.1068 -1.13034,-0.2826 -0.52051,-0.3469 -0.69217,-0.599 -0.84775,-0.8478 -0.20184,-0.4607 -0.27656,-0.9336 -0.28259,-1.4129 1.38941,-2.1137 1.62694,-3.9378 0.85501,-6.5385 -0.12622,-0.404 -0.38729,-0.8908 -0.85501,-1.4053 -0.006,-0.6433 0.0948,-1.1025 0.28259,-1.4129 0.23589,-0.3226 0.5203,-0.6036 0.84775,-0.8478 l 3.42211,-2.5746 v -19.8438 c 0.0376,-0.5793 0.0332,-1.1691 0.28258,-1.6955 0.42835,-0.8908 0.54263,-0.9089 1.13034,-1.4442 l 1.41293,-1.0991 h 0.84775 l 18.71346,-26.9084 h -0.1256 c -3.32003,-2.2971 -1.75526,-4.8846 1.25594,-5.9812 52.73855,-5.142 103.42494,-5.1064 156.17537,-0.2731 l 14.19204,37.4015 v 18.4308 c -0.0195,0.9038 -0.14869,1.2687 -0.28258,1.7269 -0.22261,0.5685 -0.52096,1.0138 -0.84776,1.413 -0.47917,0.4878 -0.94659,0.6818 -1.41292,0.8477 l -1.69551,0.5652 c 0.45185,0.061 0.89039,0.099 1.41292,0.2826 0.51482,0.195 0.99059,0.4679 1.41293,0.8478 0.58605,0.4929 0.89281,0.9566 1.13034,1.4129 0.25772,0.6245 0.27512,1.1906 0.28258,1.6955 -0.007,0.5878 -0.0335,1.0786 -0.28258,1.6955 -0.17612,0.5155 -0.44065,0.9439 -0.84776,1.4443 -0.44516,0.5468 -1.17376,0.805 -1.38152,0.8792 -0.26807,0.1044 -0.81865,0.3593 -1.72691,0.5337 l -19.62397,3.3911"
       style="fill:#ffffff;fill-opacity:1;fill-rule:evenodd;stroke:none;stroke-width:0.3139835"
       id="path28563-2"
       inkscape:connector-curvature="0"
       sodipodi:nodetypes="ccccccccccccccccccccccccccccccccc" />
    <path
       inkscape:connector-curvature="0"
       id="path35084"
       style="fill:#00559b;fill-opacity:1;fill-rule:nonzero;stroke:none;stroke-width:0.3139835"
       d="m -486.21031,-1578.8063 c 1.97034,0.013 3.14197,0.2561 3.95497,1.1303 0.40362,0.3102 0.85972,0.5795 1.72638,1.7269 0.28305,0.5523 0.58802,1.0057 0.84747,1.6641 0.16192,0.4863 0.34779,0.8781 0.28252,2.2607 v 13.5955 c -0.0288,0.7515 0.0627,1.4797 -0.28252,2.2922 -0.37336,0.94 -0.56784,1.1421 -0.84747,1.6954 -0.33697,0.502 -0.32648,0.9655 -1.72638,1.7269 -0.60332,0.2791 -1.03448,0.545 -1.9461,0.8478 -0.42937,0.139 -0.9163,0.2546 -1.69501,0.2512 h -24.10649 c -0.4603,0.039 -0.86261,0.1116 -1.69498,0.5966 -0.47876,0.3401 -0.77426,0.7536 -1.1614,1.1303 -0.80501,0.7717 -1.09567,1.9729 -1.97746,2.8258 -0.20849,0.1548 -0.39318,0.2969 -0.81611,0.5653 -0.27348,0.1796 -0.5636,0.2595 -0.8632,0.2825 h -5.38315 c -0.45267,-0.012 -0.83706,-0.095 -1.13286,-0.2849 -0.39803,-0.2203 -0.6371,-0.5314 -0.85459,-0.8549 -0.24915,-0.3233 -0.2511,-0.7289 -0.27252,-1.128 -0.009,-0.4951 0.13898,-0.8064 0.2825,-1.1232 0.19485,-0.387 11.88584,-16.6202 17.82876,-24.9303 0.53186,-0.7076 0.58402,-0.8554 1.47601,-1.799 0.79105,-0.837 1.866,-1.178 3.04394,-1.278"
       sodipodi:nodetypes="cccccccccccccccccccccccsc" />
    <path
       style="fill:#00559b;fill-opacity:1;stroke:none;stroke-width:8.16357136;stroke-miterlimit:4;stroke-dasharray:none;stroke-opacity:1"
       d="m -410.46622,-1580.4924 45.33085,2.4083 c 4.00846,0.2129 6.96977,1.5238 8.4762,5.5575 l 4.71402,12.6222 c 1.50728,4.0357 -0.66232,8.2891 -5.08609,8.2891 h -53.12099 c -4.30607,0 -7.22162,-2.916 -7.22162,-7.2217 v -14.7572 c 0,-3.5602 2.84346,-7.1141 6.90763,-6.8982 z"
       id="rect4156"
       inkscape:connector-curvature="0"
       sodipodi:nodetypes="sssssssss" />
    <path
       style="fill:#00559b;fill-opacity:1;stroke:none;stroke-width:8.16357136;stroke-miterlimit:4;stroke-dasharray:none;stroke-opacity:1"
       d="m -467.45419,-1579.7155 c 8.98285,-0.3016 12.96014,-0.4655 18.61935,-0.7046 7.40784,-0.1197 13.59979,-0.069 20.31461,-0.081 4.00392,-0.012 6.59365,3.3776 6.59365,6.9072 v 14.7565 c 0,4.0006 -3.22085,7.2214 -7.22162,7.2214 h -38.30599 c -4.29513,0 -7.22162,-3.1423 -7.22162,-7.2214 v -13.8146 c 0,-4.4446 3.05725,-6.9245 7.22162,-7.0643 z"
       id="rect4179"
       inkscape:connector-curvature="0"
       sodipodi:nodetypes="scssssssss" />
    <circle
       style="fill:#00559b;fill-opacity:1;stroke:none;stroke-width:8.16357136;stroke-miterlimit:4;stroke-dasharray:none;stroke-opacity:1"
       id="path5529"
       cx="-505.60318"
       cy="-1510.0438"
       r="19.937952" />
    <circle
       r="13.187307"
       cy="-1510.0438"
       cx="-505.60318"
       id="circle5570"
       style="fill:#ffffff;fill-opacity:1;stroke:none;stroke-width:8.16357136;stroke-miterlimit:4;stroke-dasharray:none;stroke-opacity:1" />
    <circle
       r="19.937952"
       cy="-1510.0438"
       cx="-384.40555"
       id="circle5591"
       style="fill:#00559b;fill-opacity:1;stroke:none;stroke-width:8.16357136;stroke-miterlimit:4;stroke-dasharray:none;stroke-opacity:1" />
    <circle
       style="fill:#ffffff;fill-opacity:1;stroke:none;stroke-width:8.16357136;stroke-miterlimit:4;stroke-dasharray:none;stroke-opacity:1"
       id="circle5593"
       cx="-384.40555"
       cy="-1510.0438"
       r="13.187307" />
  </g>
</svg>
