<?xml version="1.0" encoding="UTF-8" standalone="no"?>
<!-- Created with Inkscape (http://www.inkscape.org/) -->

<svg
   xmlns:dc="http://purl.org/dc/elements/1.1/"
   xmlns:cc="http://creativecommons.org/ns#"
   xmlns:rdf="http://www.w3.org/1999/02/22-rdf-syntax-ns#"
   xmlns:svg="http://www.w3.org/2000/svg"
   xmlns="http://www.w3.org/2000/svg"
   xmlns:sodipodi="http://sodipodi.sourceforge.net/DTD/sodipodi-0.dtd"
   xmlns:inkscape="http://www.inkscape.org/namespaces/inkscape"
   width="900"
   height="675"
   viewBox="0 0 238.12499 178.59378"
   version="1.1"
   id="svg8"
   inkscape:version="0.92.1 r15371"
   sodipodi:docname="11.svg">
  <defs
     id="defs2" />
  <sodipodi:namedview
     id="base"
     pagecolor="#ffffff"
     bordercolor="#666666"
     borderopacity="1.0"
     inkscape:pageopacity="0.0"
     inkscape:pageshadow="2"
     inkscape:zoom="0.55335211"
     inkscape:cx="447.79555"
     inkscape:cy="525.73547"
     inkscape:document-units="px"
     inkscape:current-layer="layer1"
     showgrid="false"
     units="px"
     inkscape:snap-global="false"
     inkscape:window-width="1920"
     inkscape:window-height="1057"
     inkscape:window-x="-8"
     inkscape:window-y="-8"
     inkscape:window-maximized="1"
     fit-margin-top="0"
     fit-margin-left="0"
     fit-margin-right="0"
     fit-margin-bottom="0"
     showguides="false" />
  <metadata
     id="metadata5">
    <rdf:RDF>
      <cc:Work
         rdf:about="">
        <dc:format>image/svg+xml</dc:format>
        <dc:type
           rdf:resource="http://purl.org/dc/dcmitype/StillImage" />
        <dc:title></dc:title>
      </cc:Work>
    </rdf:RDF>
  </metadata>
  <g
     inkscape:label="Layer 1"
     inkscape:groupmode="layer"
     id="layer1"
     transform="translate(558.72919,1629.6146)">
    <rect
       style="opacity:1;fill:#ffffff;fill-opacity:1;stroke:none;stroke-width:8.77885628;stroke-linejoin:round;stroke-miterlimit:4;stroke-dasharray:none;stroke-opacity:1"
       id="rect4485"
       width="238.125"
       height="178.59375"
       x="-558.72919"
       y="-1629.6145" />
    <rect
       y="-1629.6145"
       x="-558.72919"
       height="178.59375"
       width="238.125"
       id="rect4487"
       style="opacity:1;fill:#e20a16;fill-opacity:1;stroke:none;stroke-width:8.77885628;stroke-linejoin:round;stroke-miterlimit:4;stroke-dasharray:none;stroke-opacity:1"
       rx="21.166666"
       ry="21.166666" />
    <rect
       ry="10.583333"
       rx="10.583333"
       style="opacity:1;fill:#ffffff;fill-opacity:1;stroke:none;stroke-width:7.86738062;stroke-linejoin:round;stroke-miterlimit:4;stroke-dasharray:none;stroke-opacity:1"
       id="rect4489"
       width="216.95833"
       height="157.42708"
       x="-548.14587"
       y="-1619.0311" />
    <path
       d="m -345.46947,-1512.6163 c 1.58562,0 3.7086,-1.1882 4.05798,-2.9946 2.3314,-11.8299 0.39993,-48.0385 -5.44493,-59.6523 -0.30325,-0.4606 -0.18492,-0.4708 -1.60777,-1.6334 -0.4866,-0.3384 -0.736,-0.6537 -1.90572,-1.0588 -0.69426,-0.1834 -1.29807,-0.2402 -1.90573,-0.3024 h -152.73024 c -10.62888,0.013 -18.81181,2.6194 -27.10365,7.0783 l 2.17798,4.356 -6.23143,21.447 -0.30249,2.7224 v 21.084 h -1.05873 c -0.95224,0.6144 -1.07231,0.8573 -1.36124,2.178 v 4.5979 c 0.37653,1.595 1.71649,2.1814 2.41997,2.1779"
       style="fill:#000000;fill-opacity:1;fill-rule:evenodd;stroke:none;stroke-width:0.30249602"
       id="path8933"
       inkscape:connector-curvature="0"
       sodipodi:nodetypes="cccccccccccccccc" />
    <path
       style="fill:#ffffff;fill-opacity:1;fill-rule:evenodd;stroke:none;stroke-width:0.30249602"
       d="m -503.44814,-1527.1362 c 5.28905,0 4.48427,1.4987 8.00102,14.641 h -30.12849 c 3.51673,-13.1423 2.71196,-14.6443 8.00102,-14.641 1.6473,0 12.47913,0 14.12645,0 z"
       id="path36445"
       inkscape:connector-curvature="0"
       sodipodi:nodetypes="ccccc" />
    <path
       sodipodi:nodetypes="ccccc"
       inkscape:connector-curvature="0"
       id="path36453"
       d="m -390.37514,-1527.1361 c 5.28907,0 4.48428,1.4986 8.00102,14.6409 h -30.12848 c 3.51674,-13.1423 2.71197,-14.6443 8.00102,-14.6409 1.64731,0 12.47914,0 14.12644,0 z"
       style="fill:#ffffff;fill-opacity:1;fill-rule:evenodd;stroke:none;stroke-width:0.30249602" />
    <circle
       style="fill:#000000;fill-opacity:1;stroke:none;stroke-width:7.86489677;stroke-miterlimit:4;stroke-dasharray:none;stroke-opacity:1"
       id="path36514"
       cx="-510.51129"
       cy="-1512.6768"
       r="11.252852" />
    <circle
       r="11.252852"
       cy="-1512.6768"
       cx="-397.43832"
       id="circle36525"
       style="fill:#000000;fill-opacity:1;stroke:none;stroke-width:7.86489677;stroke-miterlimit:4;stroke-dasharray:none;stroke-opacity:1" />
    <path
       style="fill:#ffffff;fill-opacity:1;stroke:none;stroke-width:7.86489677;stroke-miterlimit:4;stroke-dasharray:none;stroke-opacity:1"
       d="m -519.1041,-1569.1829 h 22.56811 c 2.51374,0 4.53744,2.0237 4.53744,4.5373 v 13.4612 c 0,2.5137 -2.0237,4.5375 -4.53744,4.5375 h -30.7355 c -2.51375,0 -5.26624,-3.0392 -4.53744,-5.445 l 3.11571,-10.2849 c 1.41357,-4.6661 6.94169,-6.8061 9.58912,-6.8061 z"
       id="rect36553"
       inkscape:connector-curvature="0"
       sodipodi:nodetypes="sssssssss" />
    <path
       style="fill:#ffffff;fill-opacity:1;stroke:none;stroke-width:7.86489677;stroke-miterlimit:4;stroke-dasharray:none;stroke-opacity:1"
       d="m -354.2355,-1572.6616 h -10.04911 c -2.51374,0 -4.53744,2.0237 -4.53744,4.5374 v 16.9398 c 0,2.5137 2.0237,4.5375 4.53744,4.5375 h 15.19153 c 2.51375,0 4.99191,-2.5492 4.53744,-5.0215 l -3.02496,-16.4558 c -0.15626,-0.8502 -2.24283,-4.5374 -6.6549,-4.5374 z"
       id="rect36574"
       inkscape:connector-curvature="0"
       sodipodi:nodetypes="sssssssss" />
    <rect
       style="fill:#ffffff;fill-opacity:1;stroke:none;stroke-width:7.86489677;stroke-miterlimit:4;stroke-dasharray:none;stroke-opacity:1"
       id="rect36604"
       width="21.658714"
       height="49.609344"
       x="-488.75583"
       y="1519.5736"
       rx="4.5374403"
       ry="4.5374403"
       transform="scale(1,-1)" />
    <rect
       style="fill:#ffffff;fill-opacity:1;stroke:none;stroke-width:7.86489677;stroke-miterlimit:4;stroke-dasharray:none;stroke-opacity:1"
       id="rect36624"
       width="28.434624"
       height="26.014656"
       x="-463.85434"
       y="1546.6471"
       rx="4.5374403"
       ry="4.5374403"
       transform="scale(1,-1)" />
    <rect
       ry="4.5374403"
       rx="4.5374403"
       y="1546.6471"
       x="-432.17697"
       height="26.014656"
       width="28.434624"
       id="rect36626"
       style="fill:#ffffff;fill-opacity:1;stroke:none;stroke-width:7.86489677;stroke-miterlimit:4;stroke-dasharray:none;stroke-opacity:1"
       transform="scale(1,-1)" />
    <rect
       style="fill:#ffffff;fill-opacity:1;stroke:none;stroke-width:7.86489677;stroke-miterlimit:4;stroke-dasharray:none;stroke-opacity:1"
       id="rect36628"
       width="28.434624"
       height="26.014656"
       x="-400.49954"
       y="1546.6471"
       rx="4.5374403"
       ry="4.5374403"
       transform="scale(1,-1)" />
  </g>
</svg>
