<?xml version="1.0" encoding="UTF-8" standalone="no"?>
<!-- Created with Inkscape (http://www.inkscape.org/) -->

<svg
   xmlns:dc="http://purl.org/dc/elements/1.1/"
   xmlns:cc="http://creativecommons.org/ns#"
   xmlns:rdf="http://www.w3.org/1999/02/22-rdf-syntax-ns#"
   xmlns:svg="http://www.w3.org/2000/svg"
   xmlns="http://www.w3.org/2000/svg"
   xmlns:sodipodi="http://sodipodi.sourceforge.net/DTD/sodipodi-0.dtd"
   xmlns:inkscape="http://www.inkscape.org/namespaces/inkscape"
   width="900"
   height="675"
   viewBox="0 0 238.12499 178.59377"
   version="1.1"
   id="svg8"
   inkscape:version="0.92.1 r15371"
   sodipodi:docname="33.svg">
  <defs
     id="defs2" />
  <sodipodi:namedview
     id="base"
     pagecolor="#ffffff"
     bordercolor="#666666"
     borderopacity="1.0"
     inkscape:pageopacity="0.0"
     inkscape:pageshadow="2"
     inkscape:zoom="0.66843501"
     inkscape:cx="579.03693"
     inkscape:cy="221.69138"
     inkscape:document-units="px"
     inkscape:current-layer="layer1"
     showgrid="false"
     units="px"
     inkscape:snap-global="false"
     inkscape:window-width="1920"
     inkscape:window-height="1057"
     inkscape:window-x="-8"
     inkscape:window-y="-8"
     inkscape:window-maximized="1"
     fit-margin-top="0"
     fit-margin-left="0"
     fit-margin-right="0"
     fit-margin-bottom="0"
     showguides="false" />
  <metadata
     id="metadata5">
    <rdf:RDF>
      <cc:Work
         rdf:about="">
        <dc:format>image/svg+xml</dc:format>
        <dc:type
           rdf:resource="http://purl.org/dc/dcmitype/StillImage" />
        <dc:title></dc:title>
      </cc:Work>
    </rdf:RDF>
  </metadata>
  <g
     inkscape:label="Layer 1"
     inkscape:groupmode="layer"
     id="layer1"
     transform="translate(-47.956524,339.45465)">
    <rect
       style="opacity:1;fill:#00559b;fill-opacity:1;stroke:none;stroke-width:8.77885628;stroke-linejoin:round;stroke-miterlimit:4;stroke-dasharray:none;stroke-opacity:1"
       id="rect4485"
       width="238.125"
       height="178.59375"
       x="47.956524"
       y="-339.45465" />
    <rect
       y="-339.45465"
       x="47.956524"
       height="178.59375"
       width="238.125"
       id="rect4487"
       style="opacity:1;fill:#ffffff;fill-opacity:1;stroke:none;stroke-width:8.77885628;stroke-linejoin:round;stroke-miterlimit:4;stroke-dasharray:none;stroke-opacity:1"
       rx="21.166666"
       ry="21.166666" />
    <rect
       ry="10.583333"
       rx="10.583333"
       style="opacity:1;fill:#00559b;fill-opacity:1;stroke:none;stroke-width:7.86738062;stroke-linejoin:round;stroke-miterlimit:4;stroke-dasharray:none;stroke-opacity:1"
       id="rect4489"
       width="216.95833"
       height="157.42708"
       x="58.539852"
       y="-328.87131" />
    <path
       sodipodi:nodetypes="ccccccccccccccccccc"
       inkscape:connector-curvature="0"
       id="path4525"
       d="m 189.4649,-190.62652 c 4.22813,-12.71855 9.0818,-28.07251 14.34946,-42.79002 1.8711,-4.89567 4.27928,-6.00782 7.66604,-6.02183 h 1.84071 v -8.35832 h -26.26778 v 8.15247 c 1.26155,0 2.33163,-0.0321 3.46566,0.009 5.71051,0.59127 2.23446,7.72255 1.31367,10.29339 l -9.13183,27.88523 -8.72933,-27.91204 c -0.93264,-2.58939 -4.3722,-9.67697 1.32204,-10.26658 1.17957,-0.0225 2.43894,-0.009 3.46635,-0.009 v -8.15231 h -31.58461 v 8.44765 c 3.64945,-0.0605 6.11324,0.61304 7.10326,3.54688 l 14.03636,45.17548 z"
       style="fill:#ffffff;fill-opacity:1;fill-rule:nonzero;stroke:none;stroke-width:0.19056723" />
    <path
       sodipodi:nodetypes="ccccccccccccccccccc"
       inkscape:connector-curvature="0"
       id="path4549"
       d="m 144.57315,-309.68902 c -4.22813,12.71855 -9.0818,28.07251 -14.34946,42.79002 -1.8711,4.89567 -4.27928,6.00782 -7.66604,6.02183 h -1.84071 v 8.35832 h 26.26778 v -8.15247 c -1.26155,0 -2.33163,0.0321 -3.46566,-0.009 -5.71051,-0.59127 -2.23446,-7.72255 -1.31367,-10.29339 l 9.13183,-27.88523 8.72933,27.91204 c 0.93264,2.58939 4.3722,9.67697 -1.32204,10.26658 -1.17957,0.0225 -2.43894,0.009 -3.46635,0.009 v 8.15231 h 31.58461 v -8.44765 c -3.64945,0.0605 -6.11324,-0.61304 -7.10326,-3.54688 l -14.03636,-45.17548 z"
       style="fill:#ffffff;fill-opacity:1;fill-rule:nonzero;stroke:none;stroke-width:0.19056723" />
    <rect
       style="fill:#ffffff;fill-opacity:1;stroke:none;stroke-width:0.76200002;stroke-miterlimit:4;stroke-dasharray:none;stroke-opacity:1"
       id="rect4551"
       width="38.100002"
       height="7.1437502"
       x="135.95694"
       y="-277.522" />
  </g>
</svg>
