<?xml version="1.0" encoding="UTF-8" standalone="no"?>
<!-- Created with Inkscape (http://www.inkscape.org/) -->

<svg
   xmlns:dc="http://purl.org/dc/elements/1.1/"
   xmlns:cc="http://creativecommons.org/ns#"
   xmlns:rdf="http://www.w3.org/1999/02/22-rdf-syntax-ns#"
   xmlns:svg="http://www.w3.org/2000/svg"
   xmlns="http://www.w3.org/2000/svg"
   xmlns:sodipodi="http://sodipodi.sourceforge.net/DTD/sodipodi-0.dtd"
   xmlns:inkscape="http://www.inkscape.org/namespaces/inkscape"
   width="900"
   height="675"
   viewBox="0 0 238.12501 178.59381"
   version="1.1"
   id="svg8"
   inkscape:version="0.92.1 r15371"
   sodipodi:docname="11.svg">
  <defs
     id="defs2" />
  <sodipodi:namedview
     id="base"
     pagecolor="#ffffff"
     bordercolor="#666666"
     borderopacity="1.0"
     inkscape:pageopacity="0.0"
     inkscape:pageshadow="2"
     inkscape:zoom="0.78255806"
     inkscape:cx="428.07165"
     inkscape:cy="302.65205"
     inkscape:document-units="px"
     inkscape:current-layer="layer1"
     showgrid="false"
     units="px"
     inkscape:snap-global="false"
     inkscape:window-width="1920"
     inkscape:window-height="1057"
     inkscape:window-x="-8"
     inkscape:window-y="-8"
     inkscape:window-maximized="1"
     fit-margin-top="0"
     fit-margin-left="0"
     fit-margin-right="0"
     fit-margin-bottom="0"
     showguides="false" />
  <metadata
     id="metadata5">
    <rdf:RDF>
      <cc:Work
         rdf:about="">
        <dc:format>image/svg+xml</dc:format>
        <dc:type
           rdf:resource="http://purl.org/dc/dcmitype/StillImage" />
        <dc:title></dc:title>
      </cc:Work>
    </rdf:RDF>
  </metadata>
  <g
     inkscape:label="Layer 1"
     inkscape:groupmode="layer"
     id="layer1"
     transform="translate(422.11375,1994.2665)">
    <rect
       style="opacity:1;fill:#ffffff;fill-opacity:1;stroke:none;stroke-width:8.77885628;stroke-linejoin:round;stroke-miterlimit:4;stroke-dasharray:none;stroke-opacity:1"
       id="rect4485"
       width="238.125"
       height="178.59375"
       x="-422.11374"
       y="-1994.2665" />
    <rect
       y="-1994.2665"
       x="-422.11374"
       height="178.59375"
       width="238.125"
       id="rect4487"
       style="opacity:1;fill:#e20a16;fill-opacity:1;stroke:none;stroke-width:8.77885628;stroke-linejoin:round;stroke-miterlimit:4;stroke-dasharray:none;stroke-opacity:1"
       rx="21.166666"
       ry="21.166666" />
    <rect
       ry="10.583333"
       rx="10.583333"
       style="opacity:1;fill:#ffffff;fill-opacity:1;stroke:none;stroke-width:7.86738062;stroke-linejoin:round;stroke-miterlimit:4;stroke-dasharray:none;stroke-opacity:1"
       id="rect4489"
       width="216.95833"
       height="157.42708"
       x="-411.53043"
       y="-1983.6831" />
    <path
       d="m -235.72995,-1940.5132 v 13.8315 l 4.17999,3.6954 v -23.4537 l 0.2483,-1.479 0.74487,-1.2414 1.4794,-0.9833 1.47941,-0.4965 1.4794,0.2482 1.23111,0.9833 0.99317,1.2307 0.48665,1.4897 v 36.0545 l 0.24829,0.4965 1.7277,4.9344 1.24146,4.9353 0.73493,5.1933 c 0.48666,9.4558 -1.28283,17.0594 -5.66932,25.4391 -21.19789,36.4891 -75.00475,27.7881 -83.88117,-13.5831 h 4.18992 l 1.47941,4.9344 0.24829,0.7449 7.64531,-3.2171 -0.73494,-2.4622 11.59728,-0.7449 11.33865,-1.4797 9.6213,-1.4791 1.48975,-0.4966 1.4794,-1.2414 0.73494,-1.4798 0.49659,-1.7273 -0.49659,-1.7281 -0.73494,-1.4791 -1.23111,-1.2315 -1.73804,-0.4965 h -1.72769 l -9.37301,1.4897 -11.34899,1.2207 -11.349,0.7449 v -0.9824 l 0.74488,-4.4485 1.2311,-4.4485 -7.64531,-2.9589 -1.4794,4.6862 -0.73494,4.9451 -0.25822,3.4554 -4.18992,-0.2484 c 1.138,-23.2458 18.10459,-41.5159 41.44399,-43.7092 -1.05215,-0.2651 -2.04513,-0.5895 -2.9588,-0.9931 -0.92808,-0.377 -1.94564,-0.8745 -2.46222,-2.2139 -0.34676,-0.6352 -0.61237,-1.9796 -0.2483,-2.9696 0.12777,-0.5626 1.1753,-1.7583 1.48758,-1.9821 l 14.05158,5.1904 c 6.47627,-5.3275 19.7643,-14.0504 22.70851,-0.4896"
       style="fill:#000000;fill-opacity:1;fill-rule:evenodd;stroke:none;stroke-width:0.27433789"
       id="path8184"
       inkscape:connector-curvature="0"
       sodipodi:nodetypes="cccccccccccccccccccccccccccccccccccccccccccccccccccccc" />
    <path
       d="m -330.47387,-1913.5943 2.9588,14.5664 0.99318,4.6968 -7.64533,-0.9831 -11.11105,-1.9863 -2.71051,-8.6382 -4.43821,5.431 -9.86959,2.2247 c 28.32593,8.4005 61.39009,10.3347 90.53332,5.4309 l 6.91079,-0.9823 h 0.98281 l 0.99317,0.7366 0.49658,0.9832 -0.2483,0.9932 -0.73493,0.9824 -0.74487,0.2565 -8.39019,1.4791 -11.349,1.2315 c -29.24668,3.0622 -63.29366,-0.7284 -91.04025,-10.6145 l -10.59376,-3.9627 -1.00352,-0.7366 -0.23836,-1.2414 0.49659,-0.9833 0.74487,-0.7366 1.22077,-0.2565 0.74486,0.2565 10.60413,3.9412 3.70368,1.2315 0.74487,-1.2315 1.23112,-0.9824 8.87642,-5.9284 7.15907,-16.5527 c 0.18556,-0.7901 0.73495,-1.479 0.73495,-1.479 0.38099,-0.4714 0.43199,-0.6539 1.48975,-1.7174 0.49823,-0.4966 0.9333,-0.9931 1.96564,-1.4898 0.66628,-0.3234 1.37454,-0.6049 2.22428,-0.7449 9.67303,-2.1311 13.98709,9.1248 14.3078,16.8011"
       style="fill:#000000;fill-opacity:1;fill-rule:nonzero;stroke:none;stroke-width:0.27433789"
       id="path8186"
       inkscape:connector-curvature="0"
       sodipodi:nodetypes="ccccccccccccccccccccccccccccccccccccc" />
    <path
       d="m -324.55625,-1883.9649 -11.58695,-1.4798 -11.35934,-1.9755 -8.62813,16.5419 -5.18309,24.2085 1.23111,0.4884 h 2.22428 l 2.21394,-0.4884 1.73804,-1.2306 1.4794,-1.4898 0.98283,-1.9657 5.67967,-17.5459 8.37983,-11.8559 12.09387,35.3194 h 1.96564 l 1.97599,-0.7449 1.4794,-1.2315 0.99317,-1.479 0.49658,-1.9763 v -1.9756 l -6.17624,-31.1193"
       style="fill:#000000;fill-opacity:1;fill-rule:nonzero;stroke:none;stroke-width:0.27433789"
       id="path8188"
       inkscape:connector-curvature="0" />
    <path
       d="m -294.6992,-1920.0192 5.91762,5.9284 -2.71052,3.4553 -2.47256,3.952 -0.23837,0.7448 -7.64531,-2.9588 1.4794,-2.9695 2.46223,-4.2002 3.20711,-3.952"
       style="fill:#ffffff;fill-opacity:1;fill-rule:evenodd;stroke:none;stroke-width:0.27433789"
       id="path8190"
       inkscape:connector-curvature="0" />
    <path
       d="m -292.48526,-1921.9948 5.67967,5.9276 0.73411,-0.7449 3.70368,-2.7106 3.94163,-2.2239 -3.19675,-7.6556 -4.44856,2.4623 -3.94163,2.9686 -2.47256,1.9765"
       style="fill:#ffffff;fill-opacity:1;fill-rule:evenodd;stroke:none;stroke-width:0.27433789"
       id="path8192"
       inkscape:connector-curvature="0" />
    <path
       d="m -278.91199,-1930.3954 3.2071,7.6557 0.98282,-0.4883 4.20026,-0.9931 4.43822,-0.4967 v -8.3897 l -4.93479,0.4882 -4.93481,1.2416 -2.9588,0.9832"
       style="fill:#ffffff;fill-opacity:1;fill-rule:evenodd;stroke:none;stroke-width:0.27433789"
       id="path8194"
       inkscape:connector-curvature="0" />
    <path
       d="m -263.12478,-1933.1059 v 8.3898 h 0.99316 l 4.43822,0.7448 4.43821,1.2316 2.95881,-7.6557 -4.68651,-1.4798 -4.93479,-0.9824 -3.2071,-0.2483"
       style="fill:#ffffff;fill-opacity:1;fill-rule:evenodd;stroke:none;stroke-width:0.27433789"
       id="path8196"
       inkscape:connector-curvature="0" />
    <path
       d="m -247.32723,-1929.4022 -3.21745,7.6556 0.74488,0.4967 3.95198,2.2239 3.44504,2.9588 5.92796,-5.9276 -3.95197,-3.2071 -4.18992,-2.7213 -2.71052,-1.479"
       style="fill:#ffffff;fill-opacity:1;fill-rule:evenodd;stroke:none;stroke-width:0.27433789"
       id="path8198"
       inkscape:connector-curvature="0" />
    <path
       d="m -234.50918,-1920.0192 -5.66932,5.9284 0.49658,0.7365 2.71052,3.7144 2.21393,3.7037 7.65566,-2.9587 -2.46223,-4.4594 -2.72086,-4.1895 -2.22428,-2.473"
       style="fill:#ffffff;fill-opacity:1;fill-rule:evenodd;stroke:none;stroke-width:0.27433789"
       id="path8200"
       inkscape:connector-curvature="0" />
    <path
       d="m -226.119,-1906.1869 -7.39702,2.9588 0.2483,0.9931 0.98282,4.4486 0.49658,4.4378 h 8.37984 l -0.48665,-4.9344 -1.23111,-4.9451 -0.99317,-2.9588"
       style="fill:#ffffff;fill-opacity:1;fill-rule:evenodd;stroke:none;stroke-width:0.27433789"
       id="path8202"
       inkscape:connector-curvature="0" />
    <path
       d="m -223.40848,-1890.379 h -8.37984 v 0.9824 l -0.49658,4.4486 -1.23112,4.1903 7.39702,3.2169 1.47942,-4.686 0.99316,-4.9451 0.23836,-3.2071"
       style="fill:#ffffff;fill-opacity:1;fill-rule:evenodd;stroke:none;stroke-width:0.27433789"
       id="path8204"
       inkscape:connector-curvature="0" />
    <path
       d="m -227.10181,-1874.8302 -7.65566,-3.2071 -0.48665,0.9833 -2.22428,3.9618 -2.71052,3.4555 5.66932,5.6801 3.20711,-3.7037 2.72086,-4.2003 1.4794,-2.9696"
       style="fill:#ffffff;fill-opacity:1;fill-rule:evenodd;stroke:none;stroke-width:0.27433789"
       id="path8206"
       inkscape:connector-curvature="0" />
    <path
       d="m -242.40278,-1867.6603 5.92796,5.9275 -2.47257,1.9764 -4.18992,2.9588 -4.18992,2.2239 -3.21745,-7.4074 3.95198,-2.2239 3.45539,-2.7212 0.73494,-0.7366"
       style="fill:#ffffff;fill-opacity:1;fill-rule:evenodd;stroke:none;stroke-width:0.27433789"
       id="path8208"
       inkscape:connector-curvature="0" />
    <path
       d="m -253.25519,-1860.9879 2.95881,7.6556 -2.95881,0.9833 -4.9348,0.9931 -4.93479,0.4884 v -8.1523 l 4.4382,-0.4883 4.43822,-0.9932 0.99317,-0.4882"
       style="fill:#ffffff;fill-opacity:1;fill-rule:evenodd;stroke:none;stroke-width:0.27433789"
       id="path8210"
       inkscape:connector-curvature="0" />
    <path
       d="m -266.08359,-1859.0223 v 8.1523 l -3.2071,-0.2484 -4.9348,-0.7447 -4.6865,-1.4692 3.2071,-7.6556 4.20027,1.2315 4.43821,0.7366 h 0.98282"
       style="fill:#ffffff;fill-opacity:1;fill-rule:evenodd;stroke:none;stroke-width:0.27433789"
       id="path8212"
       inkscape:connector-curvature="0" />
    <path
       d="m -278.42575,-1861.9811 -3.19676,7.4074 -2.72086,-1.2415 -4.43821,-2.7105 -3.70368,-3.2071 5.67967,-5.9275 3.70368,2.9588 3.69334,2.2238 0.98282,0.4966"
       style="fill:#ffffff;fill-opacity:1;fill-rule:evenodd;stroke:none;stroke-width:0.27433789"
       id="path8214"
       inkscape:connector-curvature="0" />
    <path
       d="m -288.78158,-1869.6367 -5.91762,5.6801 -1.97598,-2.2248 -2.95881,-4.2002 -2.21393,-4.4486 7.64531,-3.2071 1.96564,3.952 2.71052,3.7037 0.74487,0.7449"
       style="fill:#ffffff;fill-opacity:1;fill-rule:evenodd;stroke:none;stroke-width:0.27433789"
       id="path8216"
       inkscape:connector-curvature="0" />
    <circle
       style="fill:#000000;fill-opacity:1;stroke:none;stroke-width:2.20842028;stroke-miterlimit:4;stroke-dasharray:none;stroke-opacity:1"
       id="path16161"
       cx="-345.7919"
       cy="-1940.5229"
       r="7.6265931" />
    <circle
       r="6.9407482"
       cy="-1957.5602"
       cx="-238.69589"
       id="circle16172"
       style="fill:#000000;fill-opacity:1;stroke:none;stroke-width:2.20842028;stroke-miterlimit:4;stroke-dasharray:none;stroke-opacity:1" />
  </g>
</svg>
