<?xml version="1.0" encoding="UTF-8" standalone="no"?>
<!-- Created with Inkscape (http://www.inkscape.org/) -->

<svg
   xmlns:dc="http://purl.org/dc/elements/1.1/"
   xmlns:cc="http://creativecommons.org/ns#"
   xmlns:rdf="http://www.w3.org/1999/02/22-rdf-syntax-ns#"
   xmlns:svg="http://www.w3.org/2000/svg"
   xmlns="http://www.w3.org/2000/svg"
   xmlns:sodipodi="http://sodipodi.sourceforge.net/DTD/sodipodi-0.dtd"
   xmlns:inkscape="http://www.inkscape.org/namespaces/inkscape"
   width="900"
   height="675"
   viewBox="0 0 238.12502 178.59382"
   version="1.1"
   id="svg8"
   inkscape:version="0.92.1 r15371"
   sodipodi:docname="11.svg">
  <defs
     id="defs2" />
  <sodipodi:namedview
     id="base"
     pagecolor="#ffffff"
     bordercolor="#666666"
     borderopacity="1.0"
     inkscape:pageopacity="0.0"
     inkscape:pageshadow="2"
     inkscape:zoom="0.47444448"
     inkscape:cx="449.83211"
     inkscape:cy="125.33151"
     inkscape:document-units="px"
     inkscape:current-layer="layer1"
     showgrid="false"
     units="px"
     inkscape:snap-global="false"
     inkscape:window-width="1920"
     inkscape:window-height="1057"
     inkscape:window-x="-8"
     inkscape:window-y="-8"
     inkscape:window-maximized="1"
     fit-margin-top="0"
     fit-margin-left="0"
     fit-margin-right="0"
     fit-margin-bottom="0"
     showguides="false"
     inkscape:lockguides="true" />
  <metadata
     id="metadata5">
    <rdf:RDF>
      <cc:Work
         rdf:about="">
        <dc:format>image/svg+xml</dc:format>
        <dc:type
           rdf:resource="http://purl.org/dc/dcmitype/StillImage" />
        <dc:title></dc:title>
      </cc:Work>
    </rdf:RDF>
  </metadata>
  <g
     inkscape:label="Layer 1"
     inkscape:groupmode="layer"
     id="layer1"
     transform="translate(448.69101,2075.6155)">
    <rect
       style="opacity:1;fill:#ffffff;fill-opacity:1;stroke:none;stroke-width:8.77885628;stroke-linejoin:round;stroke-miterlimit:4;stroke-dasharray:none;stroke-opacity:1"
       id="rect4485"
       width="238.125"
       height="178.59375"
       x="-448.69101"
       y="-2075.6155" />
    <rect
       y="-2075.6155"
       x="-448.69101"
       height="178.59375"
       width="238.125"
       id="rect4487"
       style="opacity:1;fill:#e20a16;fill-opacity:1;stroke:none;stroke-width:8.77885628;stroke-linejoin:round;stroke-miterlimit:4;stroke-dasharray:none;stroke-opacity:1"
       rx="21.166666"
       ry="21.166666" />
    <rect
       ry="10.583333"
       rx="10.583333"
       style="opacity:1;fill:#ffffff;fill-opacity:1;stroke:none;stroke-width:7.86738062;stroke-linejoin:round;stroke-miterlimit:4;stroke-dasharray:none;stroke-opacity:1"
       id="rect4489"
       width="216.95833"
       height="157.42708"
       x="-438.10767"
       y="-2065.0322" />
    <g
       transform="translate(326.69832,-21.097131)"
       id="g8546"
       style="font-style:normal;font-variant:normal;font-weight:normal;font-stretch:normal;font-size:50.8000145px;line-height:1.25;font-family:'DIN 1451 Std';-inkscape-font-specification:'DIN 1451 Std';letter-spacing:0px;word-spacing:0px;fill:#ffffff;fill-opacity:1;stroke:none;stroke-width:0.26458341"
       aria-label="POL" />
    <path
       d="m -426.52452,-1936.9313 c -4.62736,-16.0688 -1.79425,-28.2252 3.70154,-39.3858 0.0157,-0.033 0.0961,-0.082 0.14935,-0.077 l -2.11666,-3.9864 c 1.4718,-0.5168 1.89978,-0.7494 5.42401,-1.5875 3.197,-0.6836 2.58642,-0.5526 5.27692,-0.7938 h 169.38619 c 2.13043,0.066 3.70061,0.3402 5.29764,0.7937 l 5.02708,1.5876 c 0.51877,0.1367 0.84772,0.3525 1.02893,0.5585 0.32886,0.3342 0.50307,0.668 0.52917,1.0584 0.0477,0.7645 -0.33981,2.3778 -1.85208,2.3813 h -0.77611 c 7.82026,11.0981 3.87363,25.0437 5.03885,37.6061 l -19.99073,1.846"
       style="fill:#000000;fill-opacity:1;fill-rule:evenodd;stroke:none;stroke-width:0.29398161"
       id="path8418"
       inkscape:connector-curvature="0"
       sodipodi:nodetypes="ccccccccccccccc" />
    <rect
       style="fill:#000000;fill-opacity:1;stroke:none;stroke-width:7.64352179;stroke-miterlimit:4;stroke-dasharray:none;stroke-opacity:1"
       id="rect34417"
       width="21.695845"
       height="8.8194494"
       x="-345.35651"
       y="-1984.8486"
       rx="3.2337976"
       ry="2.939816" />
    <rect
       style="fill:#ffffff;fill-opacity:1;stroke:none;stroke-width:7.64352179;stroke-miterlimit:4;stroke-dasharray:none;stroke-opacity:1"
       id="rect34488"
       width="15.875008"
       height="37.041687"
       x="-420.73337"
       y="-1977.9989"
       rx="2.939816"
       ry="2.939816" />
    <rect
       rx="2.0578713"
       y="-1977.9989"
       x="-401.5658"
       height="17.227322"
       width="15.933805"
       id="rect34508"
       style="fill:#ffffff;fill-opacity:1;stroke:none;stroke-width:7.64352179;stroke-miterlimit:4;stroke-dasharray:none;stroke-opacity:1"
       ry="2.0578713" />
    <rect
       style="fill:#ffffff;fill-opacity:1;stroke:none;stroke-width:7.64352179;stroke-miterlimit:4;stroke-dasharray:none;stroke-opacity:1"
       id="rect34512"
       width="33.572704"
       height="17.227322"
       x="-382.33939"
       y="-1977.9989"
       rx="2.0578713"
       ry="2.0578713" />
    <rect
       ry="2.0578713"
       rx="2.0578713"
       y="-1977.9989"
       x="-345.47409"
       height="17.227322"
       width="33.572704"
       id="rect34588"
       style="fill:#ffffff;fill-opacity:1;stroke:none;stroke-width:7.64352179;stroke-miterlimit:4;stroke-dasharray:none;stroke-opacity:1" />
    <rect
       style="fill:#ffffff;fill-opacity:1;stroke:none;stroke-width:7.64352179;stroke-miterlimit:4;stroke-dasharray:none;stroke-opacity:1"
       id="rect34590"
       width="33.572704"
       height="17.227322"
       x="-308.60876"
       y="-1977.9989"
       rx="2.0578713"
       ry="2.0578713" />
    <path
       style="fill:#ffffff;fill-opacity:1;stroke:none;stroke-width:7.64352179;stroke-miterlimit:4;stroke-dasharray:none;stroke-opacity:1"
       d="m -238.22814,-1960.7718 h -31.35287 c -1.19798,0 -2.16238,-0.9178 -2.16238,-2.0578 v -13.1116 c 0,-1.14 0.9644,-2.0578 2.16238,-2.0578 h 25.64963 c 1.54707,0 2.04691,0.999 2.46945,2.0578 l 4.99768,12.5236 c 0.23539,0.5899 -0.23518,2.6458 -1.76389,2.6458 z"
       id="rect34592"
       inkscape:connector-curvature="0"
       sodipodi:nodetypes="sssssssss" />
    <circle
       style="fill:#ffffff;fill-opacity:1;stroke:none;stroke-width:7.64352179;stroke-miterlimit:4;stroke-dasharray:none;stroke-opacity:1"
       id="path34613"
       cx="-387.27832"
       cy="-1937.3706"
       r="13.93473" />
    <circle
       r="8.9664392"
       cy="-1937.3706"
       cx="-387.27832"
       id="circle34644"
       style="fill:#000000;fill-opacity:1;stroke:none;stroke-width:7.64352179;stroke-miterlimit:4;stroke-dasharray:none;stroke-opacity:1" />
    <circle
       r="13.93473"
       cy="-1937.3706"
       cx="-288.20648"
       id="circle34655"
       style="fill:#ffffff;fill-opacity:1;stroke:none;stroke-width:7.64352179;stroke-miterlimit:4;stroke-dasharray:none;stroke-opacity:1" />
    <circle
       style="fill:#000000;fill-opacity:1;stroke:none;stroke-width:7.64352179;stroke-miterlimit:4;stroke-dasharray:none;stroke-opacity:1"
       id="circle34657"
       cx="-288.20648"
       cy="-1937.3706"
       r="8.9664392" />
    <path
       d="m -375.46682,-2037.6062 h -7.66628 v -6.237 h 21.95928 v 6.237 h -7.66624 v 40.0204 h -6.62676 z"
       style="font-style:normal;font-variant:normal;font-weight:normal;font-stretch:normal;font-size:220.99447632px;line-height:1.25;font-family:'DIN 1451 Std';-inkscape-font-specification:'DIN 1451 Std';letter-spacing:4.28999996px;word-spacing:0px;fill:#000000;fill-opacity:1;stroke:none;stroke-width:0.33837661"
       id="path841"
       inkscape:connector-curvature="0" />
    <path
       d="m -358.13816,-2032.9286 q 0,-2.7935 0.97451,-4.9375 0.97452,-2.144 2.53378,-3.5083 1.62419,-1.4293 3.57322,-2.144 2.01405,-0.7146 4.02805,-0.7146 2.01401,0 3.96308,0.7146 2.01401,0.7147 3.57325,2.144 1.62419,1.3643 2.59875,3.5083 0.97452,2.144 0.97452,4.9375 v 24.4281 q 0,2.8586 -0.97452,5.0026 -0.97456,2.079 -2.59875,3.5083 -1.55924,1.3644 -3.57325,2.079 -1.94907,0.7146 -3.96308,0.7146 -2.014,0 -4.02805,-0.7146 -1.94903,-0.7146 -3.57322,-2.079 -1.55926,-1.4293 -2.53378,-3.5083 -0.97451,-2.144 -0.97451,-5.0026 z m 6.62676,24.4281 q 0,2.4039 1.29936,3.5733 1.36434,1.1045 3.18344,1.1045 1.81913,0 3.11846,-1.1045 1.36435,-1.1694 1.36435,-3.5733 v -24.4281 q 0,-2.4038 -1.36435,-3.5082 -1.29933,-1.1694 -3.11846,-1.1694 -1.8191,0 -3.18344,1.1694 -1.29936,1.1044 -1.29936,3.5082 z"
       style="font-style:normal;font-variant:normal;font-weight:normal;font-stretch:normal;font-size:220.99447632px;line-height:1.25;font-family:'DIN 1451 Std';-inkscape-font-specification:'DIN 1451 Std';letter-spacing:4.28999996px;word-spacing:0px;fill:#000000;fill-opacity:1;stroke:none;stroke-width:0.33837661"
       id="path843"
       inkscape:connector-curvature="0" />
    <path
       d="m -307.38601,-2007.9807 q 0,2.2739 -0.84457,4.2229 -0.84458,1.9491 -2.33886,3.4433 -1.42931,1.4294 -3.37835,2.2739 -1.94904,0.8446 -4.15796,0.8446 -2.20895,0 -4.15798,-0.8446 -1.94905,-0.8445 -3.44332,-2.2739 -1.42932,-1.4942 -2.27389,-3.4433 -0.84458,-1.949 -0.84458,-4.2229 v -35.8625 h 6.62676 v 35.2128 q 0,2.4688 1.16943,3.6383 1.16942,1.1694 2.92358,1.1694 1.75413,0 2.92356,-1.1694 1.16943,-1.1695 1.16943,-3.6383 v -35.2128 h 6.62675 z"
       style="font-style:normal;font-variant:normal;font-weight:normal;font-stretch:normal;font-size:220.99447632px;line-height:1.25;font-family:'DIN 1451 Std';-inkscape-font-specification:'DIN 1451 Std';letter-spacing:4.28999996px;word-spacing:0px;fill:#000000;fill-opacity:1;stroke:none;stroke-width:0.33837661"
       id="path845"
       inkscape:connector-curvature="0" />
    <path
       d="m -293.27529,-2023.1832 h 3.76816 q 1.75413,0 2.79362,-0.4548 1.03952,-0.5198 1.55925,-1.4294 0.58472,-0.9095 0.77961,-2.2088 0.1949,-1.3644 0.1949,-3.1186 0,-1.7541 -0.1949,-3.0534 -0.19489,-1.3644 -0.84459,-2.2739 -0.5847,-0.9746 -1.68915,-1.4294 -1.10446,-0.4547 -2.92359,-0.4547 h -3.44331 z m -6.62676,-20.66 h 10.65477 q 11.69432,0 11.69432,13.5784 0,4.028 -1.29936,6.9516 -1.2344,2.8586 -4.41787,4.6127 l 7.14651,21.1147 h -7.01657 l -6.17196,-19.7503 h -3.96308 v 19.7503 h -6.62676 z"
       style="font-style:normal;font-variant:normal;font-weight:normal;font-stretch:normal;font-size:220.99447632px;line-height:1.25;font-family:'DIN 1451 Std';-inkscape-font-specification:'DIN 1451 Std';letter-spacing:4.28999996px;word-spacing:0px;fill:#000000;fill-opacity:1;stroke:none;stroke-width:0.33837661"
       id="path847"
       inkscape:connector-curvature="0" />
  </g>
</svg>
