<?xml version="1.0" encoding="UTF-8" standalone="no"?>
<!-- Created with Inkscape (http://www.inkscape.org/) -->

<svg
   xmlns:dc="http://purl.org/dc/elements/1.1/"
   xmlns:cc="http://creativecommons.org/ns#"
   xmlns:rdf="http://www.w3.org/1999/02/22-rdf-syntax-ns#"
   xmlns:svg="http://www.w3.org/2000/svg"
   xmlns="http://www.w3.org/2000/svg"
   xmlns:sodipodi="http://sodipodi.sourceforge.net/DTD/sodipodi-0.dtd"
   xmlns:inkscape="http://www.inkscape.org/namespaces/inkscape"
   width="900"
   height="675"
   viewBox="0 0 238.12502 178.5938"
   version="1.1"
   id="svg8"
   inkscape:version="0.92.1 r15371"
   sodipodi:docname="55.svg">
  <defs
     id="defs2" />
  <sodipodi:namedview
     id="base"
     pagecolor="#ffffff"
     bordercolor="#666666"
     borderopacity="1.0"
     inkscape:pageopacity="0.0"
     inkscape:pageshadow="2"
     inkscape:zoom="0.33246054"
     inkscape:cx="317.67049"
     inkscape:cy="509.20214"
     inkscape:document-units="px"
     inkscape:current-layer="layer1"
     showgrid="false"
     units="px"
     inkscape:snap-global="false"
     inkscape:window-width="1920"
     inkscape:window-height="1057"
     inkscape:window-x="-8"
     inkscape:window-y="-8"
     inkscape:window-maximized="1"
     fit-margin-top="0"
     fit-margin-left="0"
     fit-margin-right="0"
     fit-margin-bottom="0"
     showguides="true"
     inkscape:lockguides="true" />
  <metadata
     id="metadata5">
    <rdf:RDF>
      <cc:Work
         rdf:about="">
        <dc:format>image/svg+xml</dc:format>
        <dc:type
           rdf:resource="http://purl.org/dc/dcmitype/StillImage" />
        <dc:title></dc:title>
      </cc:Work>
    </rdf:RDF>
  </metadata>
  <g
     inkscape:label="Layer 1"
     inkscape:groupmode="layer"
     id="layer1"
     transform="translate(326.86374,2020.0634)">
    <rect
       style="opacity:1;fill:#ffffff;fill-opacity:1;stroke:none;stroke-width:8.77885628;stroke-linejoin:round;stroke-miterlimit:4;stroke-dasharray:none;stroke-opacity:1"
       id="rect4485"
       width="238.125"
       height="178.59375"
       x="-326.86374"
       y="-2020.0634" />
    <rect
       y="-2020.0634"
       x="-326.86374"
       height="178.59375"
       width="238.125"
       id="rect4487"
       style="opacity:1;fill:#e20a16;fill-opacity:1;stroke:none;stroke-width:8.77885628;stroke-linejoin:round;stroke-miterlimit:4;stroke-dasharray:none;stroke-opacity:1"
       rx="21.166666"
       ry="21.166666" />
    <rect
       ry="10.583333"
       rx="10.583333"
       style="opacity:1;fill:#ffffff;fill-opacity:1;stroke:none;stroke-width:7.86738062;stroke-linejoin:round;stroke-miterlimit:4;stroke-dasharray:none;stroke-opacity:1"
       id="rect4489"
       width="216.95833"
       height="157.42708"
       x="-316.28043"
       y="-2009.48" />
    <circle
       r="63.500011"
       style="opacity:1;fill:#000000;fill-opacity:1;stroke:none;stroke-width:2.02528691;stroke-linejoin:round;stroke-miterlimit:4;stroke-dasharray:none;stroke-opacity:1"
       id="circle4520"
       cx="-207.80125"
       cy="-1930.7665" />
    <circle
       r="59.531261"
       style="opacity:1;fill:#ffd70a;fill-opacity:1;stroke:none;stroke-width:1.89870656;stroke-linejoin:round;stroke-miterlimit:4;stroke-dasharray:none;stroke-opacity:1"
       id="circle4531"
       cx="-207.80125"
       cy="-1930.7665" />
    <circle
       r="37.041676"
       cy="-1930.7665"
       cx="-207.80125"
       id="circle4533"
       style="opacity:1;fill:#00559b;fill-opacity:1;stroke:none;stroke-width:1.18141747;stroke-linejoin:round;stroke-miterlimit:4;stroke-dasharray:none;stroke-opacity:1" />
    <g
       aria-label="POL"
       style="font-style:normal;font-variant:normal;font-weight:normal;font-stretch:normal;font-size:51.16253281px;line-height:1.25;font-family:'DIN 1451 Std';-inkscape-font-specification:'DIN 1451 Std';letter-spacing:0px;word-spacing:0px;fill:#ffffff;fill-opacity:1;stroke:none;stroke-width:0.26647151"
       id="text4584"
       transform="matrix(0.68282827,0,0,0.68282827,-106.29003,-899.8645)" />
    <g
       aria-label="POL"
       style="font-style:normal;font-variant:normal;font-weight:normal;font-stretch:normal;font-size:37.26424026px;line-height:1.25;font-family:'DIN 1451 Std';-inkscape-font-specification:'DIN 1451 Std';letter-spacing:0px;word-spacing:0px;fill:#000000;fill-opacity:1;stroke:none;stroke-width:0.19408458"
       id="text4523"
       transform="matrix(1.0003004,0,0,1.0003004,86.409582,408.3122)">
      <path
         d="m -315.28279,-2351.6423 h 5.70143 q 1.56509,0 2.75755,0.4099 1.19246,0.4099 2.16133,1.4533 0.96887,1.0434 1.34151,2.4595 0.37264,1.3788 0.37264,3.7637 0,1.7514 -0.22358,3.0184 -0.18633,1.2297 -0.85708,2.3104 -0.78255,1.3042 -2.0868,2.0495 -1.30425,0.708 -3.42831,0.708 h -1.93774 v 10.3595 h -3.80095 z m 3.80095,12.5953 h 1.82595 q 1.15519,0 1.78868,-0.3353 0.63349,-0.3354 0.93161,-0.8944 0.29811,-0.5962 0.33538,-1.416 0.0745,-0.8198 0.0745,-1.826 0,-0.9316 -0.0745,-1.7514 -0.0373,-0.8571 -0.33538,-1.4533 -0.26085,-0.6335 -0.85708,-0.9689 -0.59623,-0.3726 -1.71415,-0.3726 h -1.97501 z"
         style="fill:#ffffff;stroke:none;stroke-width:0.19408458"
         id="path4525"
         inkscape:connector-curvature="0" />
      <path
         d="m -300.38048,-2345.3819 q 0,-1.6023 0.55896,-2.8321 0.55897,-1.2297 1.45331,-2.0122 0.93161,-0.8198 2.04953,-1.2297 1.15519,-0.41 2.31039,-0.41 1.15519,0 2.27311,0.41 1.1552,0.4099 2.04954,1.2297 0.9316,0.7825 1.49057,2.0122 0.55896,1.2298 0.55896,2.8321 v 14.0114 q 0,1.6396 -0.55896,2.8693 -0.55897,1.1925 -1.49057,2.0123 -0.89434,0.7825 -2.04954,1.1925 -1.11792,0.4099 -2.27311,0.4099 -1.1552,0 -2.31039,-0.4099 -1.11792,-0.41 -2.04953,-1.1925 -0.89434,-0.8198 -1.45331,-2.0123 -0.55896,-1.2297 -0.55896,-2.8693 z m 3.80095,14.0114 q 0,1.3788 0.74529,2.0495 0.78255,0.6335 1.82595,0.6335 1.04339,0 1.78868,-0.6335 0.78255,-0.6707 0.78255,-2.0495 v -14.0114 q 0,-1.3787 -0.78255,-2.0122 -0.74529,-0.6708 -1.78868,-0.6708 -1.0434,0 -1.82595,0.6708 -0.74529,0.6335 -0.74529,2.0122 z"
         style="fill:#ffffff;stroke:none;stroke-width:0.19408458"
         id="path4527"
         inkscape:connector-curvature="0" />
      <path
         d="m -284.29048,-2351.6423 h 3.80095 v 22.7312 h 7.52738 v 3.801 h -11.32833 z"
         style="fill:#ffffff;stroke:none;stroke-width:0.19408458"
         id="path4529"
         inkscape:connector-curvature="0" />
    </g>
  </g>
</svg>
