<?xml version="1.0" encoding="UTF-8" standalone="no"?>
<!-- Created with Inkscape (http://www.inkscape.org/) -->

<svg
   xmlns:dc="http://purl.org/dc/elements/1.1/"
   xmlns:cc="http://creativecommons.org/ns#"
   xmlns:rdf="http://www.w3.org/1999/02/22-rdf-syntax-ns#"
   xmlns:svg="http://www.w3.org/2000/svg"
   xmlns="http://www.w3.org/2000/svg"
   xmlns:sodipodi="http://sodipodi.sourceforge.net/DTD/sodipodi-0.dtd"
   xmlns:inkscape="http://www.inkscape.org/namespaces/inkscape"
   width="900"
   height="675"
   viewBox="0 0 238.12502 178.59382"
   version="1.1"
   id="svg8"
   inkscape:version="0.92.1 r15371"
   sodipodi:docname="33.svg">
  <defs
     id="defs2" />
  <sodipodi:namedview
     id="base"
     pagecolor="#ffffff"
     bordercolor="#666666"
     borderopacity="1.0"
     inkscape:pageopacity="0.0"
     inkscape:pageshadow="2"
     inkscape:zoom="0.67096582"
     inkscape:cx="487.46129"
     inkscape:cy="361.53365"
     inkscape:document-units="px"
     inkscape:current-layer="layer1"
     showgrid="false"
     units="px"
     inkscape:snap-global="false"
     inkscape:window-width="1920"
     inkscape:window-height="1057"
     inkscape:window-x="-8"
     inkscape:window-y="-8"
     inkscape:window-maximized="1"
     fit-margin-top="0"
     fit-margin-left="0"
     fit-margin-right="0"
     fit-margin-bottom="0"
     showguides="false"
     inkscape:lockguides="true" />
  <metadata
     id="metadata5">
    <rdf:RDF>
      <cc:Work
         rdf:about="">
        <dc:format>image/svg+xml</dc:format>
        <dc:type
           rdf:resource="http://purl.org/dc/dcmitype/StillImage" />
        <dc:title></dc:title>
      </cc:Work>
    </rdf:RDF>
  </metadata>
  <g
     inkscape:label="Layer 1"
     inkscape:groupmode="layer"
     id="layer1"
     transform="translate(402.38892,2078.7906)">
    <rect
       style="opacity:1;fill:#00559b;fill-opacity:1;stroke:none;stroke-width:8.77885628;stroke-linejoin:round;stroke-miterlimit:4;stroke-dasharray:none;stroke-opacity:1"
       id="rect4485"
       width="238.125"
       height="178.59375"
       x="-402.38892"
       y="-2078.7905" />
    <rect
       y="-2078.7905"
       x="-402.38892"
       height="178.59375"
       width="238.125"
       id="rect4487"
       style="opacity:1;fill:#ffffff;fill-opacity:1;stroke:none;stroke-width:8.77885628;stroke-linejoin:round;stroke-miterlimit:4;stroke-dasharray:none;stroke-opacity:1"
       rx="21.166666"
       ry="21.166666" />
    <rect
       ry="10.583333"
       rx="10.583333"
       style="opacity:1;fill:#00559b;fill-opacity:1;stroke:none;stroke-width:7.86738062;stroke-linejoin:round;stroke-miterlimit:4;stroke-dasharray:none;stroke-opacity:1"
       id="rect4489"
       width="216.95833"
       height="157.42708"
       x="-391.80557"
       y="-2068.2073" />
    <g
       transform="translate(326.69832,-21.097131)"
       id="g8546"
       style="font-style:normal;font-variant:normal;font-weight:normal;font-stretch:normal;font-size:50.8000145px;line-height:1.25;font-family:'DIN 1451 Std';-inkscape-font-specification:'DIN 1451 Std';letter-spacing:0px;word-spacing:0px;fill:#ffffff;fill-opacity:1;stroke:none;stroke-width:0.26458341"
       aria-label="POL" />
    <path
       d="m -306.4404,-1954.9275 1.4311,15.5187 -2.29726,3.4407 -0.28872,2.2972 0.86616,0.2888 h 2.00854 l 1.72078,-0.2888 -0.28872,-2.586 1.15489,-1.432 0.28872,-5.7504 -0.57744,-3.7293 -0.57745,-2.586 -1.43206,-2.8757 -2.00854,-2.2972"
       style="fill:#ffffff;fill-opacity:1;fill-rule:evenodd;stroke:none;stroke-width:0.33072937"
       id="path8252"
       inkscape:connector-curvature="0" />
    <path
       d="m -307.88457,-1995.9863 7.18147,-0.8661 12.63158,-1.7199 12.64411,-2.8756 12.34285,-3.1519 -0.28871,-1.1548 -0.2791,-2.2973 -8.62509,2.5859 -12.34287,3.4406 -12.35536,2.5985 -12.63158,1.7208 -12.64314,1.1425 -12.92031,0.5773 -5.73882,-2.2972 -6.31532,-3.1644 c -9.46815,-4.5955 -8.20451,-14.3033 -23.83206,-12.3429 l -1.14237,-2.586 -0.86619,2.586 -1.73233,-2.2972 c -1.29923,13.6661 -6.42405,6.4356 -6.60498,23.8311 l -1.14238,8.0485 v 1.7199 l 0.86618,1.4321 0.5678,0.5774 1.43206,0.8565 1.44362,0.5775 1.7198,-0.2791 1.43209,-0.8662 0.28869,-0.2887 6.03913,-10.623 5.44914,8.8907 4.30676,6.039 3.1644,5.1605 1.43109,2.5869 1.15489,2.0211 1.14333,0.8565 1.71983,20.1018 v 3.4531 l -0.85654,3.1519 -1.44361,2.8747 -1.72079,2.0095 -1.43109,1.1424 v 1.1549 h 2.58598 l -0.86616,1.432 h 5.17294 l 1.14333,-1.432 0.28873,-0.8663 v -0.5677 l -0.28873,-0.8661 h 1.15489 v -2.8748 l 1.4311,-16.0721 0.28871,-4.6081 0.56783,-4.2943 0.57744,-1.4435 1.15488,-1.1434 1.4311,-0.2887 h 1.73234 v 0.2887 c 15.59098,5.5223 25.45565,-1.8642 30.14737,1.432 4.06618,3.9815 11.00801,8.9985 11.76542,15.5064 v 0.2886 l 0.57745,3.7294 v 6.0391 l -1.71982,4.5839 -0.28872,2.2974 h 2.8747 l 2.29823,-0.8566 0.28872,-0.2888 v -0.5774 l -0.86616,-2.2972 v -0.2888 l 0.28873,-0.8565 0.57743,-0.8662 v -8.0486 l 0.57744,-8.8897 c -6.22002,-4.4031 8.1564,-23.964 -1.73232,-36.4752 h 0.28872 l 1.4436,-0.8661 1.4311,-0.2792 1.72079,0.2792 c 2.5985,2.1172 4.47519,5.1728 3.4406,8.6135 l -3.15187,14.3638 -0.57745,3.7409 0.28872,4.0181 v 1.1433 l 0.86616,2.0086 1.14238,1.1549 1.73234,0.8565 1.99698,0.2984 1.72078,-0.5775 0.29835,-0.2888 c -7.7233,-6.5442 1.10678,-21.0285 -2.02105,-32.4571 l -0.2791,-0.8565 -0.86616,-2.021 -1.72078,-2.0086 -1.4311,-0.8565 -2.29824,-0.2888 h -2.02105 l -2.00854,0.8663 -1.43206,1.431 c -3.22406,-3.2482 -9.73185,-4.992 -14.06268,-4.0297 l 2.28571,-0.279"
       style="fill:#ffffff;fill-opacity:1;fill-rule:evenodd;stroke:none;stroke-width:0.33072937"
       id="path8258"
       inkscape:connector-curvature="0" />
    <path
       d="m -241.55553,-2018.1002 -2.86315,5.4502 -15.21853,6.8927 -0.57745,-2.0085 0.28873,-2.0095 0.86616,-1.7323 1.41955,-1.4197 0.57745,-0.5774 8.32482,-3.7408 6.03908,-11.2005 1.44362,-1.997 c 11.18798,-8.4567 16.63808,6.9775 18.37042,15.4947 l -15.21853,4.018 -3.45217,-7.1699"
       style="fill:#ffffff;fill-opacity:1;fill-rule:evenodd;stroke:none;stroke-width:0.33072937"
       id="path8260"
       inkscape:connector-curvature="0" />
    <path
       d="m -261.9325,-1990.25 c -2.52631,-2.8276 -4.01803,-1.2878 -5.75037,1.1549 l 0.28872,1.1423 0.57744,1.1549 3.16344,3.4406 1.14334,0.5774 h 1.4311 l 0.86616,-0.5774 c 26.21402,-23.8551 5.75038,-13.6536 36.18647,-16.6496 5.78695,-3.3319 4.35489,-6.5202 2.28572,-11.777 l -14.92885,4.0181 1.15489,2.0085 c -16.74587,-1.407 -10.46616,2.791 -26.41806,15.5073"
       style="fill:#ffffff;fill-opacity:1;fill-rule:nonzero;stroke:none;stroke-width:0.33072937"
       id="path8262"
       inkscape:connector-curvature="0" />
    <circle
       style="fill:#ffffff;fill-opacity:1;stroke:none;stroke-width:2.6623714;stroke-miterlimit:4;stroke-dasharray:none;stroke-opacity:1"
       id="path43504"
       cx="-243.9034"
       cy="-2041.6166"
       r="7.143754" />
    <path
       sodipodi:nodetypes="ccccccccccccc"
       inkscape:connector-curvature="0"
       id="path43553"
       style="fill:#ffffff;fill-opacity:1;fill-rule:evenodd;stroke:none;stroke-width:0.33072937"
       d="m -216.50227,-2005.1798 32.39465,5.3987 -5.98402,35.9517 -86.16027,-14.341 2.53045,-15.2029 4.36846,0.8278 c -4.03084,4.6066 -0.19717,8.3521 3.43519,11.5047 0.93056,0.7579 1.74458,1.1259 2.5865,1.435 0.67623,0.271 1.34941,0.3383 2.02103,0.2988 1.1418,-0.1125 1.43615,-0.3036 1.99706,-0.5769 0.81417,-0.4414 1.2452,-0.7931 1.72024,-1.1551 l 15.23024,-15.215 c 10.26254,-1.5616 23.07606,4.8189 25.85877,-8.8943" />
    <path
       inkscape:connector-curvature="0"
       id="path43559"
       style="fill:#00559b;fill-opacity:1;fill-rule:evenodd;stroke:none;stroke-width:0.33072937"
       d="m -240.88528,-1992.8431 -8.92698,8.9145 6.00284,0.9992 6.35798,-6.1704 16.76548,2.6094 1.05671,-6.3486"
       sodipodi:nodetypes="cccccc" />
    <rect
       style="fill:#00559b;fill-opacity:1;stroke:none;stroke-width:2.6623714;stroke-miterlimit:4;stroke-dasharray:none;stroke-opacity:1"
       id="rect43567"
       width="11.70782"
       height="7.3421917"
       x="513.22113"
       y="-1930.4752"
       transform="matrix(-0.98642926,-0.16418685,-0.16418685,0.98642926,0,0)" />
    <rect
       y="-1930.4752"
       x="528.73236"
       height="7.3421917"
       width="11.70782"
       id="rect43571"
       style="fill:#00559b;fill-opacity:1;stroke:none;stroke-width:2.6623714;stroke-miterlimit:4;stroke-dasharray:none;stroke-opacity:1"
       transform="matrix(-0.98642926,-0.16418685,-0.16418685,0.98642926,0,0)" />
    <rect
       y="-1940.0994"
       x="513.22113"
       height="7.3421917"
       width="11.70782"
       id="rect43584"
       style="fill:#00559b;fill-opacity:1;stroke:none;stroke-width:2.6623714;stroke-miterlimit:4;stroke-dasharray:none;stroke-opacity:1"
       transform="matrix(-0.98642926,-0.16418685,-0.16418685,0.98642926,0,0)" />
    <rect
       style="fill:#00559b;fill-opacity:1;stroke:none;stroke-width:2.6623714;stroke-miterlimit:4;stroke-dasharray:none;stroke-opacity:1"
       id="rect43586"
       width="11.70782"
       height="7.3421917"
       x="528.73236"
       y="-1940.0994"
       transform="matrix(-0.98642926,-0.16418685,-0.16418685,0.98642926,0,0)" />
    <circle
       r="21.497406"
       cy="-1951.7246"
       cx="-230.87265"
       id="circle43672"
       style="fill:#ffffff;fill-opacity:1;stroke:none;stroke-width:2.6623714;stroke-miterlimit:4;stroke-dasharray:none;stroke-opacity:1" />
    <circle
       r="17.859385"
       style="fill:#00559b;fill-opacity:1;stroke:none;stroke-width:2.6623714;stroke-miterlimit:4;stroke-dasharray:none;stroke-opacity:1"
       id="circle43674"
       cx="-230.87265"
       cy="-1951.7246" />
    <circle
       r="3.571877"
       cy="-1951.7246"
       cx="-230.87265"
       id="circle43676"
       style="fill:#ffffff;fill-opacity:1;stroke:none;stroke-width:2.6623714;stroke-miterlimit:4;stroke-dasharray:none;stroke-opacity:1" />
  </g>
</svg>
