<?xml version="1.0" encoding="UTF-8" standalone="no"?>
<!-- Created with Inkscape (http://www.inkscape.org/) -->

<svg
   xmlns:dc="http://purl.org/dc/elements/1.1/"
   xmlns:cc="http://creativecommons.org/ns#"
   xmlns:rdf="http://www.w3.org/1999/02/22-rdf-syntax-ns#"
   xmlns:svg="http://www.w3.org/2000/svg"
   xmlns="http://www.w3.org/2000/svg"
   xmlns:sodipodi="http://sodipodi.sourceforge.net/DTD/sodipodi-0.dtd"
   xmlns:inkscape="http://www.inkscape.org/namespaces/inkscape"
   width="900"
   height="675"
   viewBox="0 0 238.12502 178.59382"
   version="1.1"
   id="svg8"
   inkscape:version="0.92.1 r15371"
   sodipodi:docname="33.svg">
  <defs
     id="defs2" />
  <sodipodi:namedview
     id="base"
     pagecolor="#ffffff"
     bordercolor="#666666"
     borderopacity="1.0"
     inkscape:pageopacity="0.0"
     inkscape:pageshadow="2"
     inkscape:zoom="0.67096582"
     inkscape:cx="299.94635"
     inkscape:cy="325.43771"
     inkscape:document-units="px"
     inkscape:current-layer="layer1"
     showgrid="false"
     units="px"
     inkscape:snap-global="false"
     inkscape:window-width="1920"
     inkscape:window-height="1057"
     inkscape:window-x="-8"
     inkscape:window-y="-8"
     inkscape:window-maximized="1"
     fit-margin-top="0"
     fit-margin-left="0"
     fit-margin-right="0"
     fit-margin-bottom="0"
     showguides="false"
     inkscape:lockguides="true" />
  <metadata
     id="metadata5">
    <rdf:RDF>
      <cc:Work
         rdf:about="">
        <dc:format>image/svg+xml</dc:format>
        <dc:type
           rdf:resource="http://purl.org/dc/dcmitype/StillImage" />
        <dc:title></dc:title>
      </cc:Work>
    </rdf:RDF>
  </metadata>
  <g
     inkscape:label="Layer 1"
     inkscape:groupmode="layer"
     id="layer1"
     transform="translate(448.69101,2075.6155)">
    <rect
       style="opacity:1;fill:#00559b;fill-opacity:1;stroke:none;stroke-width:8.77885628;stroke-linejoin:round;stroke-miterlimit:4;stroke-dasharray:none;stroke-opacity:1"
       id="rect4485"
       width="238.125"
       height="178.59375"
       x="-448.69101"
       y="-2075.6155" />
    <rect
       y="-2075.6155"
       x="-448.69101"
       height="178.59375"
       width="238.125"
       id="rect4487"
       style="opacity:1;fill:#ffffff;fill-opacity:1;stroke:none;stroke-width:8.77885628;stroke-linejoin:round;stroke-miterlimit:4;stroke-dasharray:none;stroke-opacity:1"
       rx="21.166666"
       ry="21.166666" />
    <rect
       ry="10.583333"
       rx="10.583333"
       style="opacity:1;fill:#00559b;fill-opacity:1;stroke:none;stroke-width:7.86738062;stroke-linejoin:round;stroke-miterlimit:4;stroke-dasharray:none;stroke-opacity:1"
       id="rect4489"
       width="216.95833"
       height="157.42708"
       x="-438.10767"
       y="-2065.0322" />
    <g
       transform="translate(326.69832,-21.097131)"
       id="g8546"
       style="font-style:normal;font-variant:normal;font-weight:normal;font-stretch:normal;font-size:50.8000145px;line-height:1.25;font-family:'DIN 1451 Std';-inkscape-font-specification:'DIN 1451 Std';letter-spacing:0px;word-spacing:0px;fill:#ffffff;fill-opacity:1;stroke:none;stroke-width:0.26458341"
       aria-label="POL" />
    <path
       sodipodi:nodetypes="ccccccccccccccccccccccccc"
       inkscape:connector-curvature="0"
       id="path13401"
       d="m -309.49078,-2004.8954 c -0.44018,0.036 -1.63216,0.3449 -2.11667,0.6468 -0.73415,0.4573 -1.34009,0.9837 -1.41111,1.4111 H -422.3797 v 4.5568 h 3.46898 c -4.19308,9.1848 -10.25613,19.2571 -9.92334,29.7509 l -0.0132,11.1713 c 0.0188,1.173 0.2921,1.8866 0.41169,2.0579 0.0654,0.094 1.23449,1.2348 1.23449,1.2348 0.1357,0.1838 2.78312,1.9205 4.17465,2.8809 0.45009,0.2655 1.48208,0.6792 2.05788,0.8232 h 182.68013 c 0.57579,-0.144 1.60779,-0.5577 2.05788,-0.8232 1.39152,-0.9604 4.03894,-2.6971 4.17465,-2.8809 0,0 1.1691,-1.1407 1.23448,-1.2348 0.1196,-0.1713 0.39288,-0.8849 0.4117,-2.0579 l -0.0132,-11.1713 c 0.33278,-10.4938 -5.73033,-20.5661 -9.92338,-29.7509 h 3.46899 v -4.5568 h -36.86543 c -0.0711,-0.4274 -0.67685,-0.9538 -1.411,-1.4111 -0.48452,-0.3019 -1.67662,-0.6112 -2.11676,-0.6468 z"
       style="fill:#ffffff;fill-opacity:1;fill-rule:evenodd;stroke:none;stroke-width:0.29398149" />
    <path
       style="fill:#00559b;fill-opacity:1;stroke:none;stroke-width:2.36655116;stroke-miterlimit:4;stroke-dasharray:none;stroke-opacity:1"
       d="m -245.11173,-1998.2807 h -4.5832 c -0.9772,0 -1.76389,0.7867 -1.76389,1.7639 v 24.6357 c 0,0.9772 0.78669,1.7638 1.76389,1.7638 h 4.5244 c 0,0 4.2993,-0.4943 5.82087,-1.0877 0.67683,-0.264 1.01828,-0.6966 1.41111,-1.0878 2.48458,-2.4743 2.61523,-6.1909 2.58703,-6.5705 -0.16446,-2.213 -6.90135,-16.6404 -7.40837,-17.6535 -0.32557,-0.6507 -0.6397,-1.7639 -2.35184,-1.7639 z"
       id="rect13459"
       inkscape:connector-curvature="0"
       sodipodi:nodetypes="ssssscsssss" />
    <rect
       style="fill:#00559b;fill-opacity:1;stroke:none;stroke-width:2.36655116;stroke-miterlimit:4;stroke-dasharray:none;stroke-opacity:1"
       id="rect13471"
       width="18.991203"
       height="43.391666"
       x="-273.56625"
       y="-1998.2805"
       rx="2.3518519" />
    <rect
       style="fill:#00559b;fill-opacity:1;stroke:none;stroke-width:2.36655116;stroke-miterlimit:4;stroke-dasharray:none;stroke-opacity:1"
       id="rect13518"
       width="33.102314"
       height="28.10463"
       x="-309.84351"
       y="-1998.2805"
       rx="2.3518519" />
    <path
       sodipodi:nodetypes="ssssscsssss"
       inkscape:connector-curvature="0"
       id="path13549"
       d="m -414.14533,-1998.2807 h 4.58322 c 0.9772,0 1.76389,0.7867 1.76389,1.7639 v 24.6357 c 0,0.9772 -0.78669,1.7638 -1.76389,1.7638 h -4.52442 c 0,0 -4.2993,-0.4943 -5.82084,-1.0877 -0.67683,-0.264 -1.0183,-0.6966 -1.41111,-1.0878 -2.48459,-2.4743 -2.61523,-6.1909 -2.58705,-6.5705 0.16446,-2.213 6.90137,-16.6404 7.40835,-17.6535 0.32559,-0.6507 0.63971,-1.7639 2.35185,-1.7639 z"
       style="fill:#00559b;fill-opacity:1;stroke:none;stroke-width:2.36655116;stroke-miterlimit:4;stroke-dasharray:none;stroke-opacity:1" />
    <rect
       rx="2.3518519"
       y="-1998.2805"
       x="-346.12085"
       height="28.10463"
       width="33.102314"
       id="rect13560"
       style="fill:#00559b;fill-opacity:1;stroke:none;stroke-width:2.36655116;stroke-miterlimit:4;stroke-dasharray:none;stroke-opacity:1" />
    <rect
       style="fill:#00559b;fill-opacity:1;stroke:none;stroke-width:2.36655116;stroke-miterlimit:4;stroke-dasharray:none;stroke-opacity:1"
       id="rect13562"
       width="33.102314"
       height="28.10463"
       x="-382.39816"
       y="-1998.2805"
       rx="2.3518519" />
    <rect
       rx="2.3518519"
       y="-1998.2805"
       x="-404.5643"
       height="43.391666"
       width="18.991203"
       id="rect13564"
       style="fill:#00559b;fill-opacity:1;stroke:none;stroke-width:2.36655116;stroke-miterlimit:4;stroke-dasharray:none;stroke-opacity:1" />
    <path
       style="fill:#ffffff;fill-opacity:1;stroke:none;stroke-width:2.36655116;stroke-miterlimit:4;stroke-dasharray:none;stroke-opacity:1"
       d="m -402.80053,-1937.1326 c -4.5461,0 -8.70185,-3.6853 -8.70185,-8.2314 0.003,-0.4336 0,-1.2937 0,-1.2937 h 54.62176 c 0,0 -0.003,0.8601 0,1.2937 0,4.5461 -4.15575,8.2314 -8.70185,8.2314 -3.55463,0 -6.68118,-2.2533 -7.87871,-5.4093 h -21.46065 c -1.19752,3.156 -4.32407,5.4093 -7.8787,5.4093 z"
       id="path13586"
       inkscape:connector-curvature="0"
       sodipodi:nodetypes="sccccsccs" />
    <path
       sodipodi:nodetypes="sccccsccs"
       inkscape:connector-curvature="0"
       id="path14848"
       d="m -256.45651,-1937.1326 c 4.5461,0 8.70186,-3.6853 8.70186,-8.2314 -0.003,-0.4336 0,-1.2937 0,-1.2937 h -54.62178 c 0,0 0.003,0.8601 0,1.2937 0,4.5461 4.15572,8.2314 8.70185,8.2314 3.55462,0 6.68117,-2.2533 7.8787,-5.4093 h 21.46067 c 1.19751,3.156 4.32405,5.4093 7.8787,5.4093 z"
       style="fill:#ffffff;fill-opacity:1;stroke:none;stroke-width:2.36655116;stroke-miterlimit:4;stroke-dasharray:none;stroke-opacity:1" />
    <path
       style="fill:#ffffff;fill-opacity:1;stroke:none;stroke-width:2.36655116;stroke-miterlimit:4;stroke-dasharray:none;stroke-opacity:1"
       d="m -293.38062,-2035.4988 -26.22315,17.0509 26.22315,17.051 26.22327,-17.051 z m 0,2.2431 22.77184,14.8078 -22.77184,14.8066 -22.77174,-14.8066 z"
       id="path14889"
       inkscape:connector-curvature="0"
       sodipodi:nodetypes="cccccccccc" />
  </g>
</svg>
