<?xml version="1.0" encoding="UTF-8" standalone="no"?>
<!-- Created with Inkscape (http://www.inkscape.org/) -->

<svg
   xmlns:dc="http://purl.org/dc/elements/1.1/"
   xmlns:cc="http://creativecommons.org/ns#"
   xmlns:rdf="http://www.w3.org/1999/02/22-rdf-syntax-ns#"
   xmlns:svg="http://www.w3.org/2000/svg"
   xmlns="http://www.w3.org/2000/svg"
   xmlns:sodipodi="http://sodipodi.sourceforge.net/DTD/sodipodi-0.dtd"
   xmlns:inkscape="http://www.inkscape.org/namespaces/inkscape"
   width="864.20001"
   height="755.22601"
   viewBox="0 0 228.65291 199.82022"
   version="1.1"
   id="svg4490"
   inkscape:version="0.92.1 r15371"
   sodipodi:docname="44.svg">
  <defs
     id="defs4484" />
  <sodipodi:namedview
     id="base"
     pagecolor="#ffffff"
     bordercolor="#666666"
     borderopacity="1.0"
     inkscape:pageopacity="0.0"
     inkscape:pageshadow="2"
     inkscape:zoom="0.75105544"
     inkscape:cx="491.61033"
     inkscape:cy="333.10019"
     inkscape:document-units="px"
     inkscape:current-layer="layer1"
     showgrid="false"
     units="px"
     inkscape:window-width="1920"
     inkscape:window-height="1057"
     inkscape:window-x="-8"
     inkscape:window-y="-8"
     inkscape:window-maximized="1"
     inkscape:snap-global="false" />
  <metadata
     id="metadata4487">
    <rdf:RDF>
      <cc:Work
         rdf:about="">
        <dc:format>image/svg+xml</dc:format>
        <dc:type
           rdf:resource="http://purl.org/dc/dcmitype/StillImage" />
        <dc:title></dc:title>
      </cc:Work>
    </rdf:RDF>
  </metadata>
  <g
     inkscape:label="Layer 1"
     inkscape:groupmode="layer"
     id="layer1"
     transform="translate(0,-97.179791)">
    <path
       sodipodi:nodetypes="cccc"
       inkscape:connector-curvature="0"
       id="path4488"
       d="M 6.7199328,290.27958 114.32645,103.8995 221.93303,290.27956 Z"
       style="fill:#e20a16;fill-opacity:1;stroke:#e20a16;stroke-width:13.22916698;stroke-linejoin:round;stroke-miterlimit:4;stroke-dasharray:none;stroke-opacity:1" />
    <path
       style="fill:#ffffff;fill-opacity:1;stroke:none;stroke-width:13.22916603;stroke-linejoin:round;stroke-miterlimit:4;stroke-dasharray:none;stroke-opacity:1"
       d="m 114.32647,130.35788 84.6929,146.69241 -169.385737,1.1e-4 z"
       id="rect5050"
       inkscape:connector-curvature="0"
       sodipodi:nodetypes="cccc" />
    <path
       d="m 130.26381,176.91688 c 1.12878,-0.20008 2.5354,0.59046 3.10848,1.55426 0.27787,0.45149 0.41679,1.23298 0.41679,1.75396 0,0.0625 -0.0972,0.89432 -0.1042,0.93777 -0.11114,0.38202 -0.84258,1.62369 -1.24203,1.76264 l -9.11711,6.41673 c 20.24872,12.07804 35.78293,35.74792 34.593,59.98214 l 0.064,19.78853 H 138.1389 v -19.68434 c 0.92039,-16.58449 -10.28899,-35.11408 -24.75485,-42.894 l -1.03364,11.08816 c 0.1945,0.79015 -0.92039,2.21416 -1.5539,2.59622 -0.45847,0.26882 -1.24203,0.40773 -1.76302,0.40773 -1.13712,0 -2.50902,-0.73804 -2.90009,-1.85815 l -17.713297,-38.12698 41.843677,-3.72502"
       style="fill:#000000;fill-opacity:1;fill-rule:nonzero;stroke:none;stroke-width:0.39498422"
       id="path11573"
       inkscape:connector-curvature="0"
       sodipodi:nodetypes="ccsccccccccccsccc" />
  </g>
</svg>
