<?xml version="1.0" encoding="UTF-8" standalone="no"?>
<!-- Created with Inkscape (http://www.inkscape.org/) -->

<svg
   xmlns:dc="http://purl.org/dc/elements/1.1/"
   xmlns:cc="http://creativecommons.org/ns#"
   xmlns:rdf="http://www.w3.org/1999/02/22-rdf-syntax-ns#"
   xmlns:svg="http://www.w3.org/2000/svg"
   xmlns="http://www.w3.org/2000/svg"
   xmlns:sodipodi="http://sodipodi.sourceforge.net/DTD/sodipodi-0.dtd"
   xmlns:inkscape="http://www.inkscape.org/namespaces/inkscape"
   width="864.20001"
   height="755.22601"
   viewBox="0 0 228.65291 199.82022"
   version="1.1"
   id="svg4490"
   inkscape:version="0.92.2 (5c3e80d, 2017-08-06)"
   sodipodi:docname="33 SADC.svg">
  <defs
     id="defs4484" />
  <sodipodi:namedview
     id="base"
     pagecolor="#ffffff"
     bordercolor="#666666"
     borderopacity="1.0"
     inkscape:pageopacity="0.0"
     inkscape:pageshadow="2"
     inkscape:zoom="0.49497475"
     inkscape:cx="278.84956"
     inkscape:cy="134.20131"
     inkscape:document-units="px"
     inkscape:current-layer="layer1"
     showgrid="false"
     units="px"
     inkscape:window-width="1920"
     inkscape:window-height="1057"
     inkscape:window-x="-8"
     inkscape:window-y="-8"
     inkscape:window-maximized="1" />
  <metadata
     id="metadata4487">
    <rdf:RDF>
      <cc:Work
         rdf:about="">
        <dc:format>image/svg+xml</dc:format>
        <dc:type
           rdf:resource="http://purl.org/dc/dcmitype/StillImage" />
        <dc:title></dc:title>
      </cc:Work>
    </rdf:RDF>
  </metadata>
  <g
     inkscape:label="Layer 1"
     inkscape:groupmode="layer"
     id="layer1"
     transform="translate(0,-97.179791)">
    <path
       sodipodi:nodetypes="cccc"
       inkscape:connector-curvature="0"
       id="path4488"
       d="M 6.7199328,290.27958 114.32645,103.8995 221.93303,290.27956 Z"
       style="fill:#e20a16;fill-opacity:1;stroke:#e20a16;stroke-width:13.22916698;stroke-linejoin:round;stroke-miterlimit:4;stroke-dasharray:none;stroke-opacity:1" />
    <path
       style="fill:#ffffff;fill-opacity:1;stroke:none;stroke-width:13.22916603;stroke-linejoin:round;stroke-miterlimit:4;stroke-dasharray:none;stroke-opacity:1"
       d="M 114.32653,130.35788 29.633631,277.05029 199.01937,277.0504 Z"
       id="rect5050"
       inkscape:connector-curvature="0"
       sodipodi:nodetypes="cccc" />
    <path
       d="m 118.79263,215.19143 -1.37415,-1.71777 -1.03068,-1.71746 -1.3742,-3.43583 -0.34354,-2.06132 -0.34361,-1.71776 v -5.8404 l 1.37423,-4.12236 0.68712,-1.37421 1.37422,-3.77936 1.37422,-4.12236 0.34354,-2.40514 0.68709,-4.12263 v -11.33697 l 3.43553,1.71776 3.09194,1.37393 h 1.0307 l 0.68707,-0.6871 0.68713,-1.37394 -0.68713,-1.3742 -1.37422,-2.40515 -4.80969,-6.87078 -7.90175,-10.99401 -8.24525,11.33756 -4.80972,6.87078 -1.374201,2.40515 -0.68715,0.6871 v 0.68711 l 0.34361,0.6871 1.030621,1.03038 h 0.68712 l 1.37422,-0.34355 5.49684,-2.74814 v 9.61947 l -0.68716,5.49657 -2.0613,5.49686 -1.03064,2.06131 -0.68713,2.06159 -0.34357,2.06132 -0.68704,4.46591 -0.34354,3.09228 v 2.74812 l 0.34354,2.74842 1.3742,5.49685 1.03065,2.74842 2.74842,4.81004 1.71776,2.40457 2.0613,2.74843 2.06135,5.15331 0.34354,2.06132 0.34353,3.4358 -0.34353,2.74815 -0.68709,3.09198 -2.06133,5.84039 -1.37424,3.09198 -0.68707,3.09225 -0.68711,3.77881 -0.34354,1.71776 v 9.96333 h 12.02433 l -0.34354,-5.15359 0.34354,-4.80974 0.68711,-4.80947 2.06131,-4.81001 1.03065,-3.0917 0.68711,-1.71776 1.03066,-5.15357 0.34357,-3.43525 v -3.09226 l -0.34357,-3.09197 -0.68713,-2.4046 -0.68711,-2.74872 -1.03057,-2.40487 -1.37424,-2.74813 -1.37422,-2.40486 z"
       style="fill:#000000;fill-opacity:1;fill-rule:evenodd;stroke:none;stroke-width:0.38018811"
       id="path6653"
       inkscape:connector-curvature="0" />
    <path
       style="fill:#000000;fill-opacity:1;stroke:none;stroke-width:0.22492017;stroke-linecap:butt;stroke-linejoin:round;stroke-miterlimit:22.9260006;stroke-dasharray:none;stroke-opacity:1"
       d="m 109.15593,230.61783 -9.364031,20.7681 c -0.25458,0.29387 -0.59679,0.51804 -1.00074,0.62631 -1.07445,0.28786 -1.98637,-0.40145 -2.2742,-1.47586 -0.027,-0.10075 -0.0453,-0.20252 -0.0571,-0.3028 l 0.12458,-9.83176 -14.39555,3.85731 -3.20776,-11.97169 14.39551,-3.85726 -5.02387,-8.45224 c -0.0401,-0.0928 -0.0749,-0.19002 -0.10188,-0.29079 -0.28789,-1.07441 0.15708,-2.12731 1.23158,-2.41526 0.40398,-0.10826 0.81241,-0.0851 1.1799,0.042 z"
       id="path4524"
       inkscape:connector-curvature="0"
       sodipodi:nodetypes="ccssccccccsscc" />
  </g>
</svg>
