<?xml version="1.0" encoding="UTF-8" standalone="no"?>
<!-- Created with Inkscape (http://www.inkscape.org/) -->

<svg
   xmlns:dc="http://purl.org/dc/elements/1.1/"
   xmlns:cc="http://creativecommons.org/ns#"
   xmlns:rdf="http://www.w3.org/1999/02/22-rdf-syntax-ns#"
   xmlns:svg="http://www.w3.org/2000/svg"
   xmlns="http://www.w3.org/2000/svg"
   xmlns:sodipodi="http://sodipodi.sourceforge.net/DTD/sodipodi-0.dtd"
   xmlns:inkscape="http://www.inkscape.org/namespaces/inkscape"
   width="864.20001"
   height="755.22601"
   viewBox="0 0 228.65291 199.82022"
   version="1.1"
   id="svg4490"
   inkscape:version="0.92.1 r15371"
   sodipodi:docname="55.svg">
  <defs
     id="defs4484" />
  <sodipodi:namedview
     id="base"
     pagecolor="#ffffff"
     bordercolor="#666666"
     borderopacity="1.0"
     inkscape:pageopacity="0.0"
     inkscape:pageshadow="2"
     inkscape:zoom="0.7"
     inkscape:cx="455.12718"
     inkscape:cy="269.30557"
     inkscape:document-units="px"
     inkscape:current-layer="layer1"
     showgrid="false"
     units="px"
     inkscape:window-width="1920"
     inkscape:window-height="1057"
     inkscape:window-x="-8"
     inkscape:window-y="-8"
     inkscape:window-maximized="1" />
  <metadata
     id="metadata4487">
    <rdf:RDF>
      <cc:Work
         rdf:about="">
        <dc:format>image/svg+xml</dc:format>
        <dc:type
           rdf:resource="http://purl.org/dc/dcmitype/StillImage" />
        <dc:title></dc:title>
      </cc:Work>
    </rdf:RDF>
  </metadata>
  <g
     inkscape:label="Layer 1"
     inkscape:groupmode="layer"
     id="layer1"
     transform="translate(0,-97.179788)">
    <path
       sodipodi:nodetypes="cccc"
       inkscape:connector-curvature="0"
       id="path4488"
       d="M 6.7199328,290.27957 114.32645,103.89949 221.93304,290.27955 Z"
       style="fill:#e20a16;fill-opacity:1;stroke:#e20a16;stroke-width:13.22916698;stroke-linejoin:round;stroke-miterlimit:4;stroke-dasharray:none;stroke-opacity:1" />
    <path
       style="fill:#ffffff;fill-opacity:1;stroke:none;stroke-width:13.22916603;stroke-linejoin:round;stroke-miterlimit:4;stroke-dasharray:none;stroke-opacity:1"
       d="m 114.32653,130.35801 -84.692897,146.6924 169.385747,-2e-5 z"
       id="rect5050"
       inkscape:connector-curvature="0"
       sodipodi:nodetypes="cccc" />
    <path
       d="m 71.200313,239.00049 -0.60781,6.94771 -13.79415,9.37055 c -1.77321,1.19877 -3.32602,2.50725 -3.32602,4.9301 0,1.23253 0.46424,2.3384 1.01224,3.42741 l 23.56137,-10.57773 1.30897,-4.33072 c -0.0239,-0.56558 0.50731,-1.35914 1.00505,-1.61242 l 0.47381,-0.13496 c 0.0957,-0.0254 0.14358,-0.0589 0.2393,-0.0589 h 0.70115 c 0.69157,0.33765 0.7849,0.48961 1.11513,0.90328 l 4.93004,18.32713 c 0.2393,1.46044 2.05079,2.92091 3.5287,2.92091 h 1.00506 c 2.11779,0 3.317626,-2.65921 3.317626,-4.43202 0,-0.32082 -6.593156,-24.60824 -7.141866,-26.68496 z"
       style="fill:#000000;fill-opacity:1;fill-rule:nonzero;stroke:none;stroke-width:0.70068049;stroke-linecap:butt;stroke-linejoin:miter;stroke-miterlimit:3.86400008;stroke-dasharray:none;stroke-opacity:1"
       id="path6360"
       inkscape:connector-curvature="0" />
    <path
       d="m 96.182919,259.14295 3.02209,-3.72289 9.969931,-12.29146 h 11.27839 l -8.86386,10.97452 -2.92113,3.52873 c -1.6033,2.16958 -4.35596,3.52873 -7.04879,3.52873 -1.866541,0 -4.060661,-0.74289 -5.436631,-2.01763 z"
       style="fill:#000000;fill-opacity:1;fill-rule:nonzero;stroke:none;stroke-width:0.70068049;stroke-linecap:butt;stroke-linejoin:miter;stroke-miterlimit:3.86400008;stroke-dasharray:none;stroke-opacity:1"
       id="path6362"
       inkscape:connector-curvature="0" />
    <path
       d="m 142.09575,266.49588 c 0.66764,1.15653 1.29939,1.84878 2.54949,2.34685 l 0.67483,0.27017 h 1.00505 c 1.96703,0 3.52032,-1.32538 4.02668,-3.19105 l 0.19144,-0.73446 v -1.0046 c 0,-0.0675 -0.31348,-1.089 -0.40442,-1.21564 l -8.76289,-19.83853 h -9.666 z"
       style="fill:#000000;fill-opacity:1;fill-rule:nonzero;stroke:none;stroke-width:0.70068049;stroke-linecap:butt;stroke-linejoin:miter;stroke-miterlimit:3.86400008;stroke-dasharray:none;stroke-opacity:1"
       id="path6364"
       inkscape:connector-curvature="0" />
    <path
       d="m 108.35315,233.05737 -11.776381,4.12811 c -0.37091,0.13496 -1.03856,0.20268 -1.409466,0.20268 l -0.60782,-0.13496 c -1.19171,-0.26189 -2.00054,-0.76839 -2.71843,-1.78144 l -2.81966,-4.43202 -0.29434,3.63004 -17.22163,1.10589 0.80165,-9.76732 -5.63907,3.02222 0.90454,12.89083 c -0.017,0.59093 -0.43074,1.55331 -0.90454,1.91631 -0.14358,0.10122 -0.79448,0.3208 -0.97156,0.36299 l -0.54082,0.13521 c -1.0218,0 -1.93353,-0.79355 -2.31402,-1.70527 l -1.71338,-14.10659 c -0.11965,-1.80656 0.44749,-3.06443 1.71338,-4.33071 l 10.27382,-8.25622 c 0.36374,-0.35457 1.94072,-1.10589 2.41429,-1.10589 4.1705,0 8.52646,0.77666 12.68835,1.20719 2.2877,0.30391 4.7106,2.08515 5.43663,4.33071 l 2.819656,8.25622 5.740551,-1.90788 c -0.78491,-4.43201 -2.321221,-9.64913 -2.321221,-14.10647 0,-1.1059 0.758591,-2.27087 1.612891,-2.92091 15.92989,-12.02131 10.30756,-10.27383 29.90975,-10.27383 1.85696,-0.0675 4.2801,1.21564 5.23418,2.8196 l 8.46712,12.39276 16.81649,3.9255 c 0.0718,0.4221 -0.0957,0.91173 -0.19144,1.30851 -0.63414,2.52414 -2.99698,4.12811 -5.54647,4.12811 -0.34698,0 -0.74183,-0.0675 -1.10556,-0.10123 l -14.6975,-2.81125 -5.23395,-5.64765 11.48109,25.68036 H 109.1749 l 6.24714,-29.70717 -8.35751,6.5425 z"
       style="fill:#000000;fill-opacity:1;fill-rule:nonzero;stroke:none;stroke-width:0.70068049;stroke-linecap:butt;stroke-linejoin:miter;stroke-miterlimit:3.86400008;stroke-dasharray:none;stroke-opacity:1"
       id="path6366"
       inkscape:connector-curvature="0" />
    <circle
       style="fill:#000000;fill-opacity:1;stroke:none;stroke-width:4.1033783;stroke-linejoin:round;stroke-miterlimit:4;stroke-dasharray:none;stroke-opacity:1"
       id="path14096"
       cx="84.798965"
       cy="205.08374"
       r="7.1437502" />
    <circle
       style="fill:#000000;fill-opacity:1;stroke:none;stroke-width:3.64571762;stroke-linejoin:round;stroke-miterlimit:4;stroke-dasharray:none;stroke-opacity:1"
       id="path14107"
       cx="127.02646"
       cy="188.94415"
       r="8.7312498" />
  </g>
</svg>
