<?xml version="1.0" encoding="UTF-8" standalone="no"?>
<!-- Created with Inkscape (http://www.inkscape.org/) -->

<svg
   xmlns:dc="http://purl.org/dc/elements/1.1/"
   xmlns:cc="http://creativecommons.org/ns#"
   xmlns:rdf="http://www.w3.org/1999/02/22-rdf-syntax-ns#"
   xmlns:svg="http://www.w3.org/2000/svg"
   xmlns="http://www.w3.org/2000/svg"
   xmlns:sodipodi="http://sodipodi.sourceforge.net/DTD/sodipodi-0.dtd"
   xmlns:inkscape="http://www.inkscape.org/namespaces/inkscape"
   width="864.20001"
   height="755.22601"
   viewBox="0 0 228.65291 199.82022"
   version="1.1"
   id="svg4490"
   inkscape:version="0.92.1 r15371"
   sodipodi:docname="55.svg">
  <defs
     id="defs4484" />
  <sodipodi:namedview
     id="base"
     pagecolor="#ffffff"
     bordercolor="#666666"
     borderopacity="1.0"
     inkscape:pageopacity="0.0"
     inkscape:pageshadow="2"
     inkscape:zoom="0.49497475"
     inkscape:cx="539.35154"
     inkscape:cy="403.53298"
     inkscape:document-units="px"
     inkscape:current-layer="layer1"
     showgrid="false"
     units="px"
     inkscape:window-width="1920"
     inkscape:window-height="1057"
     inkscape:window-x="-8"
     inkscape:window-y="-8"
     inkscape:window-maximized="1" />
  <metadata
     id="metadata4487">
    <rdf:RDF>
      <cc:Work
         rdf:about="">
        <dc:format>image/svg+xml</dc:format>
        <dc:type
           rdf:resource="http://purl.org/dc/dcmitype/StillImage" />
        <dc:title></dc:title>
      </cc:Work>
    </rdf:RDF>
  </metadata>
  <g
     inkscape:label="Layer 1"
     inkscape:groupmode="layer"
     id="layer1"
     transform="translate(0,-97.179791)">
    <path
       sodipodi:nodetypes="cccc"
       inkscape:connector-curvature="0"
       id="path4488"
       d="M 6.7199328,290.27957 114.32645,103.89949 221.93303,290.27955 Z"
       style="fill:#e20a16;fill-opacity:1;stroke:#e20a16;stroke-width:13.22916698;stroke-linejoin:round;stroke-miterlimit:4;stroke-dasharray:none;stroke-opacity:1" />
    <path
       style="fill:#ffffff;fill-opacity:1;stroke:none;stroke-width:13.22916603;stroke-linejoin:round;stroke-miterlimit:4;stroke-dasharray:none;stroke-opacity:1"
       d="m 114.32647,130.35801 84.6929,146.6924 -169.385737,-2e-5 z"
       id="rect5050"
       inkscape:connector-curvature="0"
       sodipodi:nodetypes="cccc" />
    <path
       d="m 139.40117,226.72842 c -22.25496,10.36935 -11.67609,42.61992 12.40544,37.95812 25.60367,-7.43261 17.12408,-43.62199 -9.07576,-39.16973 l -6.95745,-21.17653 -0.29834,-0.75498 -0.76107,-1.36332 -1.21137,-1.21111 -1.35725,-0.90061 -1.50945,-0.45663 -1.66801,-0.29935 h -5.59386 l -0.75473,0.29935 -0.76107,0.45663 -0.29834,0.75449 v 0.75446 l 0.45055,0.76158 0.60886,0.45155 0.75473,0.15223 h 5.59386 l 1.21137,0.14715 1.05915,0.60833 0.75473,0.755 0.45664,1.05941 1.81389,5.14332 -0.15221,0.60224 -0.30443,0.30444 -0.45056,0.15221 H 96.603153 l -1.51579,-3.93221 v -0.3044 l 0.15221,-0.45158 0.45664,-0.30443 8.619117,-1.66169 0.30443,-0.15221 v -0.45663 l -0.45664,-0.60276 -0.60251,-0.45664 H 87.977703 l -0.60252,0.15219 -0.45664,0.45665 -0.15221,0.60277 v 1.05889 l 0.15221,0.60277 0.45664,0.45666 0.60252,0.15222 h 2.42274 l 0.45004,0.15221 0.30443,0.45158 1.66801,4.23607 -5.6002,14.21935 c -16.96553,-5.37162 -31.72394,12.95087 -23.44096,28.43257 8.69523,16.66745 33.53782,13.12844 37.355847,-5.29553 h 8.31469 l 1.36993,-0.15223 1.20502,-0.60225 1.05916,-0.90719 0.45664,-0.45665 23.74539,-26.91702 2.11197,6.65327"
       style="fill:#000000;fill-opacity:1;fill-rule:evenodd;stroke:none;stroke-width:0.16869199"
       id="path28262"
       inkscape:connector-curvature="0" />
    <path
       d="m 140.61254,230.50842 c -17.9232,9.06941 -8.04832,35.04729 11.34628,29.9481 19.31216,-6.93842 11.93612,-34.4445 -8.0166,-31.00701 l 5.14356,15.57608 v 0.90717 l -0.30442,0.60886 -0.60252,0.60226 -0.76107,0.15223 -0.74838,-0.15223 -0.60886,-0.45157 -0.29783,-0.60884 -5.14991,-15.57656"
       style="fill:#ffffff;fill-opacity:1;fill-rule:evenodd;stroke:none;stroke-width:0.16869199"
       id="path28264"
       inkscape:connector-curvature="0" />
    <path
       d="m 85.714023,229.60174 c -13.45825,-3.36801 -24.48108,9.95681 -18.76037,22.53374 7.10331,13.28676 25.81295,11.55559 30.10031,-3.025 h -17.84709 l -0.75473,-0.45663 -0.45664,-0.60227 -0.15221,-0.75498 0.15221,-0.75448 0.60886,-0.60884 0.75472,-0.29936 6.35494,-16.0327"
       style="fill:#ffffff;fill-opacity:1;fill-rule:evenodd;stroke:none;stroke-width:0.16869199"
       id="path28266"
       inkscape:connector-curvature="0" />
    <path
       d="m 89.037353,230.95846 -5.89829,14.67597 h 14.67597 c 0,-5.97442 -3.46287,-11.89147 -8.77768,-14.67597"
       style="fill:#ffffff;fill-opacity:1;fill-rule:nonzero;stroke:none;stroke-width:0.16869199"
       id="path28268"
       inkscape:connector-curvature="0" />
    <path
       d="m 97.960903,215.23019 11.650717,30.40424 26.00957,-29.04091 0.15221,-0.15222 v -0.45155 l -0.15221,-0.45666 -0.60252,-0.30443 H 97.960903"
       style="fill:#ffffff;fill-opacity:1;fill-rule:evenodd;stroke:none;stroke-width:0.16869199"
       id="path28270"
       inkscape:connector-curvature="0" />
    <path
       d="m 90.400943,227.17898 4.23028,-10.58546 0.76107,1.81387 10.433007,27.22704 h -3.9322 c -0.15831,-7.90854 -4.376157,-14.87233 -11.492157,-18.45545"
       style="fill:#ffffff;fill-opacity:1;fill-rule:nonzero;stroke:none;stroke-width:0.16869199"
       id="path28272"
       inkscape:connector-curvature="0" />
  </g>
</svg>
