<?xml version="1.0" encoding="UTF-8" standalone="no"?>
<!-- Created with Inkscape (http://www.inkscape.org/) -->

<svg
   xmlns:dc="http://purl.org/dc/elements/1.1/"
   xmlns:cc="http://creativecommons.org/ns#"
   xmlns:rdf="http://www.w3.org/1999/02/22-rdf-syntax-ns#"
   xmlns:svg="http://www.w3.org/2000/svg"
   xmlns="http://www.w3.org/2000/svg"
   xmlns:sodipodi="http://sodipodi.sourceforge.net/DTD/sodipodi-0.dtd"
   xmlns:inkscape="http://www.inkscape.org/namespaces/inkscape"
   width="864.20001"
   height="755.22601"
   viewBox="0 0 228.65291 199.82022"
   version="1.1"
   id="svg4490"
   inkscape:version="0.92.1 r15371"
   sodipodi:docname="55.svg">
  <defs
     id="defs4484" />
  <sodipodi:namedview
     id="base"
     pagecolor="#ffffff"
     bordercolor="#666666"
     borderopacity="1.0"
     inkscape:pageopacity="0.0"
     inkscape:pageshadow="2"
     inkscape:zoom="0.7"
     inkscape:cx="333.97484"
     inkscape:cy="296.24455"
     inkscape:document-units="px"
     inkscape:current-layer="layer1"
     showgrid="false"
     units="px"
     inkscape:window-width="1920"
     inkscape:window-height="1057"
     inkscape:window-x="-8"
     inkscape:window-y="-8"
     inkscape:window-maximized="1" />
  <metadata
     id="metadata4487">
    <rdf:RDF>
      <cc:Work
         rdf:about="">
        <dc:format>image/svg+xml</dc:format>
        <dc:type
           rdf:resource="http://purl.org/dc/dcmitype/StillImage" />
        <dc:title></dc:title>
      </cc:Work>
    </rdf:RDF>
  </metadata>
  <g
     inkscape:label="Layer 1"
     inkscape:groupmode="layer"
     id="layer1"
     transform="translate(0,-97.179791)">
    <path
       sodipodi:nodetypes="cccc"
       inkscape:connector-curvature="0"
       id="path4488"
       d="M 6.7199328,290.27957 114.32645,103.89949 221.93303,290.27955 Z"
       style="fill:#e20a16;fill-opacity:1;stroke:#e20a16;stroke-width:13.22916698;stroke-linejoin:round;stroke-miterlimit:4;stroke-dasharray:none;stroke-opacity:1" />
    <path
       style="fill:#ffffff;fill-opacity:1;stroke:none;stroke-width:13.22916603;stroke-linejoin:round;stroke-miterlimit:4;stroke-dasharray:none;stroke-opacity:1"
       d="m 114.32647,130.35801 84.6929,146.6924 -169.385737,-2e-5 z"
       id="rect5050"
       inkscape:connector-curvature="0"
       sodipodi:nodetypes="cccc" />
    <path
       d="m 154.13365,206.29857 c -0.35597,0.066 -0.83372,0.19836 -1.18266,0.19836 -0.6698,0 -1.41218,-0.0909 -2.0726,-0.19836 -1.48713,-0.52049 -3.56067,-0.68574 -5.12225,-0.68574 -0.6534,0 -1.32085,0.066 -1.97425,0.0991 -0.21077,0.0742 -0.42857,0.25611 -0.58782,0.38829 l -0.18735,0.49571 0.0937,0.49571 c 0.31381,0.51223 0.86651,0.23961 0.9836,0.88401 -0.0234,0.15691 -0.26464,0.33873 -0.39578,0.39656 -0.42857,-0.0661 -1.97424,-2.27199 -2.85855,-2.27199 h -0.68618 c -0.33021,0 -0.98361,0.4544 -1.18033,0.69398 -0.21077,0.51222 -0.29743,1.22274 -0.29743,1.77627 0,0.74356 0.14052,1.60279 0.48712,2.26373 -8.29485,2.0737 -25.85106,3.05686 -34.29463,3.05686 -3.18079,0 -6.485477,0.18992 -9.657837,0 -4.94895,-0.29743 -9.88128,-0.69399 -14.78034,-1.47886 -0.45433,-0.0579 -1.02342,-0.19836 -1.47775,-0.19836 h -1.4801 c -7.08853,0 -8.38572,10.07111 -8.57564,15.17689 -0.0234,0.95836 0.11709,9.64975 -1.28103,10.64943 -0.99064,0.14051 -2.36277,3.2882 -2.36277,4.2383 0,3.32123 1.77752,4.71747 1.77752,6.89858 0,0.48745 -0.34661,1.45408 -0.59485,1.87544 l 0.18735,0.39656 c 0.1171,0.0991 0.6534,0.18993 0.79391,0.18993 0.33021,0 1.08198,-0.25612 1.37237,-0.38832 0.60188,-0.38004 1.28103,-1.23927 1.28103,-1.97456 0,-0.63616 -0.18735,-1.26406 -0.18735,-1.87544 v -1.9663 c 0,-1.03272 0.44497,-2.66029 0.78454,-3.6517 0.37236,-0.61963 0.59485,-1.44581 0.59485,-2.16459 0,-0.50396 -0.60421,-1.79282 -0.59485,-1.87544 0.25527,-4.9075 -0.18735,-10.93033 1.77752,-15.57345 0.0234,5.1223 -0.0702,10.25287 -0.0937,15.37517 0.0937,0.93358 0.48712,2.05719 0.48712,2.95772 0,1.02447 -0.2904,2.11501 -0.98361,2.95772 -0.1171,0.22318 -0.68618,1.37971 -0.68618,1.57801 0,1.50365 0.68618,2.54462 0.68618,4.04 0,4.13089 -0.1171,8.46006 -0.88525,12.5166 v 0.49571 l 0.29743,0.58658 c 0.0937,0.13209 0.27166,0.28089 0.38876,0.39656 l 0.49648,0.29743 c 0.0937,0.10749 0.33021,0.38831 0.38876,0.49571 0.0234,0.033 0.18736,0.52049 0.18736,0.58658 l 0.30445,2.0737 c 0.0468,0.14871 0.11709,0.35525 0.18735,0.48745 l 0.39578,0.49572 0.39579,0.19835 c 1.09836,0.48745 3.24684,0.98314 4.42834,0.98314 0.55269,0 1.12412,-0.066 1.67682,-0.0991 0.24824,-0.0745 0.54566,-0.28089 0.6932,-0.48747 v -0.49571 l -0.18735,-0.39657 c -2.03981,-1.52018 -3.55269,-7.49344 -3.55269,-9.85631 0,-2.77595 0.5199,-5.70062 1.57845,-8.2783 l 0.69321,0.0991 c 0.21077,3.9987 1.60188,7.75781 3.04848,11.4343 l 0.39579,0.39655 0.6932,0.28916 c 0.2342,0.21475 0.89227,0.90054 0.98361,1.1897 l 0.79391,2.46201 0.28806,0.49571 0.59484,0.38831 c 0.61125,0.3057 2.9164,0.49572 3.64357,0.49572 0.95784,0 2.18033,-0.29742 3.0569,-0.69398 l 0.39579,-0.58658 v -0.39656 l -0.29742,-0.39656 c -0.99064,-0.58655 -2.26464,-2.0241 -2.85856,-2.95767 -1.91802,-3.13122 -3.08173,-5.93197 -3.25527,-9.65803 l 0.0937,-0.38831 0.29743,-0.29742 c 0.14052,-0.033 0.35597,-0.0991 0.49649,-0.0991 l 0.38876,0.0991 0.18735,0.29742 c 0.1171,0.32221 0.51991,1.23928 0.79391,1.47059 l 0.25527,0.13208 0.62764,0.0745 0.49648,-0.20656 0.29743,-0.38832 0.0937,-0.29742 0.2904,-0.29742 c 0.14051,-0.0743 0.3466,-0.14052 0.49648,-0.19837 0.1171,0.0496 0.42858,0.19837 0.48713,0.29743 l 0.49648,0.49572 0.39579,0.19835 h 0.48711 c 0.14052,-0.0991 0.35598,-0.33046 0.39579,-0.49571 l 0.29743,-0.49572 0.39578,-0.28915 c 0.85011,-0.066 2.33021,-0.69398 2.95784,-1.28883 0.67682,-0.63616 1.33022,-1.93325 1.47776,-2.85031 l 0.28805,-0.39656 c 0.14052,-0.0496 0.42858,-0.13208 0.59485,-0.0991 1.529277,0.11569 3.098127,0.19835 4.634897,0.19835 2.85855,0 5.9897,-0.50395 8.76557,-1.18142 h 0.59485 l 1.4801,0.58657 c 0.0937,0.0745 0.30679,0.21476 0.38875,0.29743 l 0.18736,0.49572 c 0.0468,4.46961 2.1733,8.6666 2.1733,11.8226 v 2.37113 c 0,0.78487 -0.0703,1.57799 -0.0937,2.36287 -0.0164,0.12388 0.0468,0.60311 0.0937,0.68574 l 0.29743,0.39655 0.78454,0.49572 0.29742,0.48744 0.29743,1.37973 0.18735,0.49571 0.59485,0.29742 h 4.43654 l 0.48711,-0.29742 0.0937,-0.39656 -0.0937,-0.38831 c -1.81732,-1.33033 -2.85831,-6.59307 -2.85831,-8.67504 0,-1.36318 0.14052,-2.80074 0.39578,-4.13915 l 0.18736,-0.39656 0.29742,0.0991 c 0.18735,1.91672 2.76769,3.70128 2.66019,7.68345 l 0.39579,3.84999 c 0.0164,0.066 0.0703,0.2396 0.0937,0.29742 l 1.18033,0.78487 c 0.25527,0.28089 0.18735,0.7353 0.18735,1.0823 0,0.17353 0.0468,0.33047 0.0937,0.49571 0.33957,0.33876 0.5199,0.57008 0.7939,0.98317 l 0.28806,0.0991 c 1.00703,0.22319 5.61804,0.47091 5.61804,-0.29743 0,-0.75182 -4.6267,-4.387 -4.6267,-10.54203 0,-3.26339 0.11709,-7.41081 0.39578,-10.64942 1.58548,0.62789 3.42881,-0.0745 4.23021,-1.57801 -1.08196,-4.53572 8.56745,-15.20168 11.33514,-18.13461 0.83372,0.14052 2,-0.31396 2.66018,-0.78486 0.14052,-0.066 0.4801,-0.26439 0.59485,-0.29743 h 0.39579 c 2.20609,-0.008 4.19719,-0.38005 6.30375,-0.98314 0.14051,-0.0414 0.80094,-0.19836 0.88524,-0.19836 0.18736,0 0.62061,0.24784 0.79392,0.19836 1.61826,0.47091 4.13911,-2.30504 4.13911,-3.74259 0,-0.41309 -0.14052,-0.95011 -0.39579,-1.28883 -0.47073,-0.64428 -1.67681,-1.15651 -2.33021,-1.61091 -3.20562,-2.19764 -5.18009,-6.13024 -8.99696,-8.83185 1.56206,-0.61962 2.94942,-1.26405 4.52741,-2.0737 0.21077,-0.18173 0.40514,-0.61135 0.39578,-0.884 -0.0937,-0.30569 -0.34661,-0.60312 -0.59485,-0.79314 l -0.48712,-0.0991"
       style="fill:#000000;fill-opacity:1;fill-rule:nonzero;stroke:none;stroke-width:8.26177788"
       id="path6955"
       inkscape:connector-curvature="0" />
  </g>
</svg>
