<?xml version="1.0" encoding="UTF-8" standalone="no"?>
<!-- Created with Inkscape (http://www.inkscape.org/) -->

<svg
   xmlns:dc="http://purl.org/dc/elements/1.1/"
   xmlns:cc="http://creativecommons.org/ns#"
   xmlns:rdf="http://www.w3.org/1999/02/22-rdf-syntax-ns#"
   xmlns:svg="http://www.w3.org/2000/svg"
   xmlns="http://www.w3.org/2000/svg"
   xmlns:sodipodi="http://sodipodi.sourceforge.net/DTD/sodipodi-0.dtd"
   xmlns:inkscape="http://www.inkscape.org/namespaces/inkscape"
   width="864.20001"
   height="755.22601"
   viewBox="0 0 228.65291 199.82022"
   version="1.1"
   id="svg4490"
   inkscape:version="0.92.1 r15371"
   sodipodi:docname="55.svg">
  <defs
     id="defs4484" />
  <sodipodi:namedview
     id="base"
     pagecolor="#ffffff"
     bordercolor="#666666"
     borderopacity="1.0"
     inkscape:pageopacity="0.0"
     inkscape:pageshadow="2"
     inkscape:zoom="0.48364258"
     inkscape:cx="562.2878"
     inkscape:cy="394.35664"
     inkscape:document-units="px"
     inkscape:current-layer="layer1"
     showgrid="false"
     units="px"
     inkscape:window-width="1920"
     inkscape:window-height="1057"
     inkscape:window-x="-8"
     inkscape:window-y="-8"
     inkscape:window-maximized="1" />
  <metadata
     id="metadata4487">
    <rdf:RDF>
      <cc:Work
         rdf:about="">
        <dc:format>image/svg+xml</dc:format>
        <dc:type
           rdf:resource="http://purl.org/dc/dcmitype/StillImage" />
        <dc:title></dc:title>
      </cc:Work>
    </rdf:RDF>
  </metadata>
  <g
     inkscape:label="Layer 1"
     inkscape:groupmode="layer"
     id="layer1"
     transform="translate(0,-97.179788)">
    <path
       sodipodi:nodetypes="cccc"
       inkscape:connector-curvature="0"
       id="path4488"
       d="M 6.7199328,290.27957 114.32645,103.89949 221.93303,290.27955 Z"
       style="fill:#e20a16;fill-opacity:1;stroke:#e20a16;stroke-width:13.22916698;stroke-linejoin:round;stroke-miterlimit:4;stroke-dasharray:none;stroke-opacity:1" />
    <path
       style="fill:#ffffff;fill-opacity:1;stroke:none;stroke-width:13.22916603;stroke-linejoin:round;stroke-miterlimit:4;stroke-dasharray:none;stroke-opacity:1"
       d="m 114.32653,130.35801 -84.692897,146.6924 169.385737,-2e-5 z"
       id="rect5050"
       inkscape:connector-curvature="0"
       sodipodi:nodetypes="cccc" />
    <path
       d="m 154.10569,213.18585 c 0.23729,0.34322 0.45085,0.77015 0.70238,1.09661 0.21356,0.27625 0.54339,0.54413 0.80441,0.79525 l 0.0949,0.60272 c -0.31085,0.20098 -1.33119,0.70316 -1.69899,0.70316 -1.69899,0 -2.57815,-1.20543 -4.08493,-1.40635 -1.14611,-0.0921 -2.18544,0.30136 -3.29833,0.30136 -0.70237,0 -1.43086,-0.39345 -2.10001,-0.59434 l -0.59322,-0.10037 c -0.25865,0.13383 -0.56001,0.44366 -0.70238,0.69478 0.21356,0.62782 -2.259,5.51652 -2.69537,6.28665 -1.48069,2.8629 -2.49462,6.11087 -2.99696,9.29186 0.0474,0.16753 0.11864,0.35159 0.18983,0.50227 3.13933,2.09275 6.3622,4.3948 9.1914,6.88937 0.0949,0.12553 0.31797,0.36832 0.3939,0.50227 l 0.0949,0.30136 c 0.0237,0.27625 0.0949,0.61109 0.0949,0.89569 0,0.35995 -0.14238,0.74502 -0.0949,1.09661 -0.14237,0.22614 -0.29424,0.35995 -0.40102,0.60272 -1.9173,1.88348 -10.89064,9.72715 -13.27635,10.48891 -0.70237,0.2176 -1.28848,0.16753 -2.00035,0.0921 -1.30509,-0.12552 -2.75397,0 -4.09347,0 l -0.3939,0.10037 c -0.25153,0.0335 -0.55289,0.10038 -0.80441,0.10038 -0.31797,0 -0.71187,-0.0503 -0.99662,-0.20099 -0.25153,-0.12552 -1.28136,-0.56085 -1.39764,-0.79525 l -0.18983,-0.30135 c -0.0475,-0.14238 -0.0712,-0.3516 -0.0949,-0.4939 l 0.30136,-0.50227 c 1.02983,-1.13847 2.11662,-2.29366 3.29832,-3.29818 0.14237,-0.0838 0.34407,-0.24278 0.49356,-0.30137 l 0.60272,-0.10037 0.39389,0.10037 c 0.18984,0.0838 0.5434,0.20099 0.70238,0.30137 0.16611,0.10037 0.44373,0.36832 0.60272,0.50227 0.31796,0.17582 0.63593,0.30135 0.99662,0.30135 0.26813,-0.48551 0.97051,-1.00452 1.49966,-1.00452 h 0.89458 c 0.0712,0 0.23729,0.10038 0.30136,0.10038 h 0.50305 l 0.49357,-0.39345 c 2.03357,-1.45656 4.08517,-3.17263 5.7927,-4.99751 0.0949,-0.15068 0.16611,-0.42693 0.18984,-0.60272 -0.0712,-0.23444 -0.29187,-0.55248 -0.50305,-0.69481 -0.5695,-0.20098 -7.64286,-2.89638 -8.68931,-2.89638 -0.68577,0 -1.51628,0.0335 -2.19255,0.20099 l -0.69526,0.30136 -0.40102,0.49389 c -2.90489,5.83486 -6.19468,11.50206 -8.99066,17.37853 l -0.18983,0.50227 c -0.3939,0.87897 -0.69526,2.12623 -0.69526,3.09728 v 1.59055 c 0,0.32651 0.16611,1.63232 0.40102,1.90022 0.51967,1.64062 2.29459,3.37354 2.29459,4.89706 0.0475,0.18508 -0.3678,1.02129 -0.50305,1.19712 -0.31085,0.21831 -0.81153,0.40173 -1.19831,0.40173 -0.7356,0 -4.59559,-1.72438 -5.49136,-2.1012 -0.0712,-0.0427 -0.66915,-0.37658 -0.70237,-0.40173 -0.43424,-0.40173 -0.79492,-1.50679 -0.79492,-2.09265 0,-0.36827 0.60271,-1.38957 0.89696,-1.59886 0.0237,-0.14237 0.0949,-0.35996 0.0949,-0.50234 l -0.0949,-0.50234 c -0.14238,-0.18509 -0.3773,-0.38512 -0.5956,-0.49404 -0.11865,-0.14237 -0.30848,-0.33482 -0.40102,-0.50234 l -0.18983,-0.59441 v -0.60272 l 0.18983,-0.50233 c 2.17594,-2.24339 4.2107,-8.49656 4.99755,-11.28412 0.82102,-3.04705 1.42374,-6.1862 1.99323,-9.28348 0.0237,-0.0921 -0.0712,-0.4939 -0.0949,-0.60272 l -0.30136,-0.29298 -0.3939,-0.10037 c -0.72848,0.0251 -1.47357,0.10037 -2.19256,0.10037 -4.07686,0 -8.19526,-2.3439 -11.68602,-4.20226 -0.16611,-0.0251 -0.52679,-0.19244 -0.70238,-0.19244 H 103.391 c -0.28475,0.13383 -0.74509,0.4938 -0.88746,0.79515 -0.91357,1.85001 -2.4194,3.85905 -3.901041,5.2905 -0.51017,0.49389 -1.14611,0.94593 -1.69899,1.39796 -0.11865,0.0921 -0.18983,0.20929 -0.29424,0.30136 l -0.50305,0.4018 -0.18983,0.59434 v 0.60272 l 0.0949,0.30136 c 2.32781,2.369 4.754571,4.73801 6.889231,7.29117 1.28848,1.11334 2.27797,2.43597 3.29832,3.79209 1.48068,1.97557 3.18917,2.48619 3.18917,5.4914 0,0.56925 -0.0712,1.23888 -0.18983,1.79984 l -5.48305,-1.59886 -0.50305,-0.30136 -0.0949,-0.39343 c 0.0237,-0.32651 0.0949,-0.68647 0.0949,-1.00444 0,-0.23445 -0.3512,-0.93756 -0.40102,-1.19706 l -0.40102,0.30136 -0.49357,-0.10037 c -3.406761,-4.52881 -7.558847,-8.48831 -12.087517,-11.88696 -1.22204,-0.82035 -3.44069,-1.86675 -3.29002,-3.69163 0.009,-1.58212 3.19796,-4.31945 4.1941,-6.98982 -1.82476,0.56924 -4.1941,0.8957 -6.09431,0.8957 -1.64916,0 -3.365,-0.13383 -4.99731,-0.4018 l -0.49356,0.10037 -0.30136,0.30136 -0.0949,0.4018 c -0.0475,2.33552 0.30136,4.67941 0.30136,6.98982 v 5.2905 c 0,3.96787 -7.10705,6.98982 -10.38022,6.98982 -0.3678,0 -0.74509,-0.0669 -1.10577,-0.10037 l -0.18984,-0.29298 c 0.24204,-2.1932 1.05594,-4.41152 2.00035,-6.39545 0.18984,-0.15069 0.34407,-0.41019 0.50306,-0.59435 l 0.59559,-0.20098 c 0.0237,-0.0168 0.63594,0 0.70238,0 0.49356,0 1.1295,0.98779 2.595,0.79525 l 0.0949,-0.49389 c -0.0237,-0.14238 -0.0949,-0.36832 -0.0949,-0.50227 0,-0.97942 0.71898,-1.97558 0.70238,-3.09729 l -0.21356,-9.49276 c -0.0237,-0.519 -0.0949,-1.0715 -0.0949,-1.5905 0,-1.07986 0.009,-2.31042 0.50305,-3.29819 0.0949,-0.15898 0.25153,-0.2595 0.3678,-0.4018 0.26814,-0.32647 0.58611,-0.61947 1.02983,-0.69481 0.61221,-0.21759 1.35493,-0.30136 2.00035,-0.30136 0.67866,0 1.41425,0.30136 2.0929,0.30136 0.98,0 1.99323,-0.35159 2.79598,-0.90407 0.1661,-0.0838 0.50305,-0.77015 0.50305,-0.8957 v -0.80363 l -0.18983,-0.6948 c -1.24814,-1.20543 -1.79865,-4.99752 -1.79865,-6.68847 0,-2.2518 1.86746,-5.79276 3.49907,-7.29117 -0.11865,-0.0335 -1.02984,-0.30136 -1.09628,-0.30136 h -1.00373 c -3.14765,0 -4.75481,3.33168 -5.29061,5.99367 -0.30136,1.53189 -0.7617,3.13914 -0.89695,4.69615 -1.67526,5.91833 -7.3498,15.24367 -13.77868,16.87602 l -0.60272,0.20099 c -0.18983,0.0503 -0.54339,-0.0838 -0.70238,-0.20099 l -0.18983,-0.4017 v -0.40181 c 0,-0.0754 0.26814,-1.13009 0.29186,-1.29752 0.0949,-0.48552 0.14238,-0.99616 0.18983,-1.49841 v -0.69481 c 0.18984,-0.35159 0.63594,-0.81198 0.90408,-1.09661 l 0.69526,-0.70316 c 1.80814,-1.71607 3.51592,-3.69163 4.99755,-5.69231 0.75221,-0.84548 2.16882,-3.49909 2.69537,-4.5957 4.92233,-7.66787 1.12238,-13.30159 12.97522,-14.77489 1.11289,-0.14237 3.07219,0.38507 4.00141,0.99617 2.15222,-1.56538 5.09793,-2.59503 7.784996,-2.59503 4.235611,0 14.264171,3.73349 19.872751,4.49525 1.95052,0.20099 3.92618,0.30974 5.89331,0.39345 v -0.59434 c 0.0949,-0.22613 0.39391,-0.49389 0.69526,-0.60271 l 0.40102,-0.30136 0.18983,-0.50227 c 0,-0.43528 -0.27525,-1.01289 -0.50305,-1.38959 l 0.0949,-0.30136 0.99661,-0.10037 c 0.11865,-0.43528 0.53627,-1.06313 0.80442,-1.49841 0.96338,-1.28915 2.15932,-2.56154 3.39038,-3.59955 l -0.18983,-0.69481 0.0949,-0.30136 c 2.47801,-0.50227 5.18169,-1.91696 7.09044,-3.59118 0.30136,-0.8957 0.42713,-1.13847 1.36442,-1.36448 l 0.53627,-0.13384 h 1.39763 c 0.49357,0 1.09628,0.13384 1.59934,0.20099 0.29423,-0.31811 1.03695,-1.52354 1.09627,-1.90024 0.30136,-0.20929 0.65255,-0.39345 0.99662,-0.50227 0.35119,0.10892 0.70238,0.29298 1.00373,0.50227 0.64543,1.62399 0.77831,3.7 2.29459,4.69616 1.78205,1.16357 3.56599,2.19321 4.99756,3.79208 0.93017,1.04637 1.44746,2.55317 2.49462,3.39864 l 3.0971,2.49457 c 1.07255,0.82874 2.05967,2.03417 2.59523,3.29819 0.0237,0.13383 0.0949,0.35995 0.0949,0.4939 v 0.60271 c 0,0.0921 -0.0475,0.14238 -0.0712,0.23444 l -0.14237,0.46042 c -0.1661,0.2846 -0.88746,0.70316 -1.20543,0.80362 -0.0949,-0.0251 -0.18983,-0.0669 -0.29424,-0.10037 -0.35119,-0.51062 -1.90781,-1.04637 -2.50293,-1.19705"
       style="fill:#000000;fill-opacity:1;fill-rule:nonzero;stroke:none;stroke-width:8.37104225"
       id="path6412"
       inkscape:connector-curvature="0" />
  </g>
</svg>
