<?xml version="1.0" encoding="UTF-8" standalone="no"?>
<!-- Created with Inkscape (http://www.inkscape.org/) -->

<svg
   xmlns:dc="http://purl.org/dc/elements/1.1/"
   xmlns:cc="http://creativecommons.org/ns#"
   xmlns:rdf="http://www.w3.org/1999/02/22-rdf-syntax-ns#"
   xmlns:svg="http://www.w3.org/2000/svg"
   xmlns="http://www.w3.org/2000/svg"
   xmlns:sodipodi="http://sodipodi.sourceforge.net/DTD/sodipodi-0.dtd"
   xmlns:inkscape="http://www.inkscape.org/namespaces/inkscape"
   width="864.20001"
   height="755.22601"
   viewBox="0 0 228.65291 199.82022"
   version="1.1"
   id="svg4490"
   inkscape:version="0.92.1 r15371"
   sodipodi:docname="55.svg">
  <defs
     id="defs4484" />
  <sodipodi:namedview
     id="base"
     pagecolor="#ffffff"
     bordercolor="#666666"
     borderopacity="1.0"
     inkscape:pageopacity="0.0"
     inkscape:pageshadow="2"
     inkscape:zoom="0.49497475"
     inkscape:cx="624.4361"
     inkscape:cy="302.58565"
     inkscape:document-units="px"
     inkscape:current-layer="layer1"
     showgrid="false"
     units="px"
     inkscape:window-width="1920"
     inkscape:window-height="1057"
     inkscape:window-x="-8"
     inkscape:window-y="-8"
     inkscape:window-maximized="1" />
  <metadata
     id="metadata4487">
    <rdf:RDF>
      <cc:Work
         rdf:about="">
        <dc:format>image/svg+xml</dc:format>
        <dc:type
           rdf:resource="http://purl.org/dc/dcmitype/StillImage" />
        <dc:title></dc:title>
      </cc:Work>
    </rdf:RDF>
  </metadata>
  <g
     inkscape:label="Layer 1"
     inkscape:groupmode="layer"
     id="layer1"
     transform="translate(0,-97.179788)">
    <path
       sodipodi:nodetypes="cccc"
       inkscape:connector-curvature="0"
       id="path4488"
       d="M 6.7199328,290.27957 114.32645,103.89949 221.93303,290.27955 Z"
       style="fill:#e20a16;fill-opacity:1;stroke:#e20a16;stroke-width:13.22916698;stroke-linejoin:round;stroke-miterlimit:4;stroke-dasharray:none;stroke-opacity:1" />
    <path
       style="fill:#ffffff;fill-opacity:1;stroke:none;stroke-width:13.22916603;stroke-linejoin:round;stroke-miterlimit:4;stroke-dasharray:none;stroke-opacity:1"
       d="m 114.32653,130.35801 -84.692897,146.6924 169.385737,-2e-5 z"
       id="rect5050"
       inkscape:connector-curvature="0"
       sodipodi:nodetypes="cccc" />
    <path
       d="m 123.54773,267.78841 c 0.0479,0.19419 0.0719,0.41388 0.0958,0.60819 v 0.60819 l -3.52248,0.10128 -0.60818,-0.10128 -0.39748,-0.30409 c -0.0958,-0.11829 -0.2155,-0.37169 -0.3041,-0.50684 -0.19155,-1.02209 -1.41033,-2.99871 -1.41033,-3.82652 v -0.91228 c 0,-0.0508 0.16762,-0.8954 0.19156,-1.00521 l 1.00567,-6.14947 v -0.70112 l -0.3041,-0.60818 c -0.14366,-0.18581 -0.57466,-0.59127 -0.80214,-0.70107 -1.1158,-0.61665 -2.21246,-1.35155 -3.22675,-2.12021 l -1.81738,-0.49838 c 0.19156,0 0.63452,-0.0337 0.81171,0 l 0.49805,0.20281 -5.28765,0.19419 -4.08013,0.10128 c -4.899276,0 -9.823946,-0.68421 -14.613316,-1.71476 l -1.005665,-0.29564 h -1.005666 c -0.371135,0 -1.292997,0.27031 -1.61385,0.49839 -0.347198,0.54906 -0.929047,1.9766 -0.811722,2.61858 0.167617,1.64719 0.363959,3.29436 0.50762,4.94154 0.143671,1.50357 -0.02389,3.1592 0.708759,4.53607 l 0.167608,0.3041 0.330437,0.59973 c 0.09578,0.27034 0.143671,0.92074 0.191555,1.20793 0.02398,0.32943 0.14367,0.81935 0.304092,1.11502 0.167617,0.18581 0.481285,0.50683 0.601008,0.70109 0.119724,0.20281 0.304093,0.67576 0.404657,0.91229 l -0.09578,0.4984 -0.404657,0.10128 -3.319894,-0.30409 c -0.09578,-0.0254 -0.239448,-0.0507 -0.304102,-0.10129 l -0.404657,-0.29566 c -0.09578,-0.1099 -0.191554,-0.27876 -0.296906,-0.40545 l -0.304102,-1.20793 c -0.167608,-0.28719 -0.591424,-0.65887 -0.802138,-0.91228 l -0.313667,-0.39705 -0.09578,-0.30409 c -0.584248,-3.2689 -1.276246,-6.70685 -3.024192,-9.57886 -3.809559,0.76869 -2.262742,8.40484 -3.023935,10.38145 l -0.09578,0.40546 0.191554,0.50682 0.50762,0.7011 c 0.287332,0.4899 0.50762,1.35997 0.498045,1.9175 v 0.50683 h -4.130658 c -0.143671,0.0424 -0.49086,-0.12667 -0.601009,-0.20282 -0.239438,-0.32942 -0.421417,-1.1319 -0.50762,-1.51201 l -0.09578,-0.3041 -0.191554,-0.59976 c -0.02398,-0.16905 0,-0.54059 0,-0.70955 0.02398,-0.19419 0.09578,-0.40545 0.09578,-0.60818 l 0.304092,-9.36781 c 0.0085,-0.3209 0.72552,-2.14546 0.905101,-2.52558 -2.33937,-3.36194 -2.73685,-10.98119 -3.319657,-14.80772 -0.608185,-3.93633 -3.024182,-7.02796 -3.024182,-11.091 0,-2.08642 0.929047,-4.35023 2.111895,-6.03965 4.417754,-6.3353 11.209119,-9.57897 18.845244,-9.57897 h 3.319894 c 2.212472,0 4.595182,0.27031 6.757612,0.70955 2.778996,0.58285 5.828316,0.70111 8.666686,0.70111 3.8517,0 7.61912,-1.10657 11.28526,-1.10657 14.19953,0 7.50946,-2.44965 19.44504,-7.85577 0.3041,-0.0508 0.64171,-0.65042 0.70875,-0.91228 l -0.0958,-0.50684 c -0.14366,-0.59973 -0.29691,-1.09811 -0.40466,-1.71475 l 0.19155,-0.49838 c 0.16761,-0.17743 0.55791,-0.40545 0.80214,-0.40545 l 0.40467,0.10128 c 0.5579,0.29564 1.17327,0.49838 1.71441,0.80247 0.81891,0.48148 1.70724,1.18259 2.31544,1.91748 2.42437,0.54907 5.12722,1.73166 7.0533,3.32814 4.13904,3.04939 6.65633,7.56857 8.1598,12.39185 v 1.31783 c -0.024,0.54062 -0.43819,0.94606 -0.80215,1.30928 -0.37113,0.69266 -1.19003,1.30931 -1.91794,1.30931 -1.78147,0 -3.89408,-1.51202 -5.94684,-1.51202 h -1.70724 c -0.54833,0 -1.45343,0.80247 -1.81739,1.20792 -1.71442,3.14231 -1.58033,6.68163 -2.31542,10.07735 -0.94581,4.29956 -2.62695,8.29502 -4.63732,12.18911 -0.11973,0.2112 -0.27057,0.41391 -0.40467,0.6082 -1.51089,2.81287 -4.67108,4.63744 -7.45869,5.94674 l -0.39748,0.2028 c -0.26099,0.54907 -0.55791,10.00133 -0.60819,11.38664 -0.017,0.45615 0.23945,1.19951 0.40467,1.61341 0.37113,0.52374 1.18285,1.76545 1.30975,2.41586 0.0479,0.32943 0,0.76869 0,1.10657 l -4.13041,-0.29574 -0.70876,-1.61338 -0.70157,-0.40544 c -0.49086,-0.47305 -0.70876,-2.16246 -0.70876,-2.82133 v -2.41588 c 0,-1.6134 0.0719,-3.23522 0.0958,-4.84017 -0.0479,-0.23657 -0.16762,-0.48992 -0.3041,-0.70955 l -0.39748,-0.10128 h -0.50762 l -0.40466,0.50683 c -1.19962,2.12021 -1.8078,4.30801 -1.8078,6.75765 0,1.86681 0.5148,4.1982 1.40314,5.83692"
       style="fill:#000000;fill-opacity:1;fill-rule:evenodd;stroke:none;stroke-width:8.44706631"
       id="path6250"
       inkscape:connector-curvature="0" />
  </g>
</svg>
