<?xml version="1.0" encoding="UTF-8" standalone="no"?>
<!-- Created with Inkscape (http://www.inkscape.org/) -->

<svg
   xmlns:dc="http://purl.org/dc/elements/1.1/"
   xmlns:cc="http://creativecommons.org/ns#"
   xmlns:rdf="http://www.w3.org/1999/02/22-rdf-syntax-ns#"
   xmlns:svg="http://www.w3.org/2000/svg"
   xmlns="http://www.w3.org/2000/svg"
   xmlns:sodipodi="http://sodipodi.sourceforge.net/DTD/sodipodi-0.dtd"
   xmlns:inkscape="http://www.inkscape.org/namespaces/inkscape"
   width="864.20001"
   height="755.22601"
   viewBox="0 0 228.65291 199.82022"
   version="1.1"
   id="svg4490"
   inkscape:version="0.92.1 r15371"
   sodipodi:docname="55.svg">
  <defs
     id="defs4484" />
  <sodipodi:namedview
     id="base"
     pagecolor="#ffffff"
     bordercolor="#666666"
     borderopacity="1.0"
     inkscape:pageopacity="0.0"
     inkscape:pageshadow="2"
     inkscape:zoom="0.7"
     inkscape:cx="542.35338"
     inkscape:cy="341.10198"
     inkscape:document-units="px"
     inkscape:current-layer="layer1"
     showgrid="false"
     units="px"
     inkscape:window-width="1920"
     inkscape:window-height="1057"
     inkscape:window-x="-8"
     inkscape:window-y="-8"
     inkscape:window-maximized="1" />
  <metadata
     id="metadata4487">
    <rdf:RDF>
      <cc:Work
         rdf:about="">
        <dc:format>image/svg+xml</dc:format>
        <dc:type
           rdf:resource="http://purl.org/dc/dcmitype/StillImage" />
        <dc:title></dc:title>
      </cc:Work>
    </rdf:RDF>
  </metadata>
  <g
     inkscape:label="Layer 1"
     inkscape:groupmode="layer"
     id="layer1"
     transform="translate(0,-97.179788)">
    <path
       sodipodi:nodetypes="cccc"
       inkscape:connector-curvature="0"
       id="path4488"
       d="M 6.7199328,290.27957 114.32645,103.89949 221.93303,290.27955 Z"
       style="fill:#e20a16;fill-opacity:1;stroke:#e20a16;stroke-width:13.22916698;stroke-linejoin:round;stroke-miterlimit:4;stroke-dasharray:none;stroke-opacity:1" />
    <path
       style="fill:#ffffff;fill-opacity:1;stroke:none;stroke-width:13.22916603;stroke-linejoin:round;stroke-miterlimit:4;stroke-dasharray:none;stroke-opacity:1"
       d="m 114.32653,130.35801 -84.692897,146.6924 169.385737,-2e-5 z"
       id="rect5050"
       inkscape:connector-curvature="0"
       sodipodi:nodetypes="cccc" />
    <path
       d="m 51.124205,263.2506 c -0.0959,0.87131 -0.29734,1.86951 -0.29734,2.73236 0,0.9559 -0.024,2.19941 0.29734,3.12994 6.25975,-1.48884 9.21205,-9.60977 12.91731,-13.93247 1.19176,-1.37887 2.58015,-2.71544 3.93353,-3.93358 7.52872,-0.8713 11.58935,-1.64957 15.43824,-8.47621 0.54912,-0.87977 1.27809,-1.91181 2.02144,-2.63085 1.911127,-1.8272 5.507037,-3.35834 8.171837,-3.12148 1.41237,0.0338 2.833847,0.10143 4.238067,0.10143 3.214401,0 6.809591,-0.39759 9.990421,-0.9136 0.0479,1.03204 1.23493,1.92027 2.12215,1.92027 1.19176,0 2.25883,-0.40604 3.4259,-0.40604 3.50214,0 5.6171,-0.30453 8.98377,-1.51421 1.30207,-0.31299 3.1722,-1.2689 4.44117,-1.81874 h 0.40525 l 0.39805,0.2115 c 0.0959,0.0676 0.21581,0.2031 0.30454,0.29607 v 0.50756 c -0.60907,2.25018 -1.47951,4.56802 -2.52069,6.65747 -0.1199,0.2031 -0.25418,0.63444 -0.40524,0.8121 -0.24459,0.29607 -1.04789,0.79517 -1.41237,0.90514 -0.21581,0.0676 -0.5755,0.0676 -0.80331,0.10143 -0.0959,0.0254 -0.51555,0.15227 -0.60907,0.20311 -1.29486,1.11663 -2.92688,1.81874 -4.63564,1.9118 l -0.50836,0.10143 -0.30453,0.40604 c -0.53233,1.04894 -0.83687,2.46166 -0.70978,3.6375 l 0.50836,0.19447 c 2.33556,-1.40424 4.82172,-2.63084 7.26663,-3.83206 l 0.90401,-0.2031 0.70978,-0.30454 c 1.79364,-1.62418 2.52069,-4.44959 3.59519,-6.55595 1.10783,-2.15712 2.27562,-4.25503 3.4681,-6.3614 0.14387,-0.24533 0.39806,-0.60907 0.39806,-0.90514 0,-1.21814 -1.10065,-2.31784 -2.31879,-2.31784 -1.17497,0 -2.59693,0.50756 -3.73043,0.80363 0.75295,-1.44654 1.45553,-2.96921 1.92073,-4.54264 l 0.19184,-0.6006 c 0.16785,-0.28761 0.93998,-1.05741 1.21094,-1.31118 l 2.92689,-1.71698 c 4.28051,-3.01997 4.2467,-6.61517 4.40736,-11.34392 0.0719,-2.03869 0.19184,-4.07739 0.33811,-6.11608 0.37167,-4.38191 3.54435,-6.03148 7.46949,-6.75898 0.16786,-0.0338 0.33091,-0.0677 0.50836,-0.1015 l 0.29494,-0.30453 v -0.40605 l -0.37168,-0.73596 -0.11989,-0.2707 c -0.0479,-0.26224 0.048,-0.65982 0,-0.9136 l -0.19183,-0.39759 -0.40525,-0.20303 c -3.81508,0.17764 -8.28167,-0.25378 -12.0121,-1.10817 -1.7265,-0.40604 -3.36691,-1.29427 -5.14328,-1.42116 -2.23246,-0.15227 -4.59344,0.30453 -6.86042,0.30453 -3.13,0 -5.85403,-1.71724 -8.78092,-1.71724 -0.44841,0 -2.58854,1.37887 -3.12999,1.61573 -0.98074,0.2707 -2.09817,0.40605 -3.12136,0.40605 -1.51308,0 -3.3753,-0.38067 -4.64428,-1.20968 -0.26137,-0.1692 -0.4556,-0.53294 -0.70978,-0.71058 -0.47239,-0.32991 -1.362011,-0.31299 -1.911131,-0.4991 2.114961,2.43628 4.737311,4.83872 8.171841,4.83872 0.62586,0 1.56583,-0.31299 2.11496,-0.60061 0.65942,-0.47372 3.20601,-1.00666 4.14503,-1.00666 2.05501,0 3.61221,0.57524 5.24495,1.81029 -1.04789,1.04896 -2.21567,1.71724 -3.73907,1.71724 -0.64264,0 -1.41236,-0.16073 -2.01424,-0.40605 -1.09105,-0.58369 -3.41775,-1.51421 -4.64428,-1.51421 h -1.61619 c -0.76973,0 -2.35235,0.47372 -3.12136,0.71058 -0.82009,0.37221 -2.77486,1.4127 -3.739061,1.4127 h -0.90402 c -0.024,0 -0.92319,-0.27915 -1.00712,-0.30453 -1.36201,-0.65137 -5.473227,-2.06407 -6.970477,-1.9118 1.16778,0.40604 2.31877,0.88822 3.43452,1.40424 1.06467,0.50756 3.620607,2.63084 4.644037,2.63084 0.6858,0 1.345221,0 2.014241,-0.20303 1.31886,-0.21994 2.70701,-0.69366 3.93378,-1.20968 0.63544,-0.26223 1.43874,-0.40604 2.12215,-0.40604 0.34769,0 1.35242,0.24532 1.7169,0.40604 l 1.20855,0.4991 c 1.39559,0.30454 3.73067,1.21814 5.04185,1.21814 1.07427,0 2.10537,-0.0677 3.12999,-0.40605 1.8344,-1.00665 3.82347,-3.02842 6.05689,-3.02842 h 1.41237 c 0.4556,0 0.94717,0.0677 1.41237,0.1015 0.67621,0.1015 1.53226,0.85439 2.02143,1.31119 -0.7961,0.7106 -1.98786,1.00667 -3.02832,1.00667 -0.43881,0 -1.10064,-0.0761 -1.51547,0 -1.31886,0.25378 -2.94393,1.75108 -3.53596,2.92692 1.42195,1.4127 2.99451,1.4127 4.84713,1.4127 0.1199,2.74082 -2.59694,4.44113 -5.05024,4.44113 -1.27809,0 -2.58015,-0.80363 -3.93353,-0.80363 -4.00979,0 -6.60673,2.71544 -9.58446,5.04174 -0.14387,0.11844 -0.27096,0.2707 -0.40524,0.40605 -3.82371,2.40244 -8.366321,4.28041 -12.714448,5.44779 -4.8047,1.29427 -6.87745,0.34683 -11.199927,3.33296 -0.99753,0.69366 -1.92791,1.57343 -3.02855,2.11483 l -4.54261,2.63084 c 0,0 -1.41237,0.3976 -1.81042,0.3976 -1.09105,0 -2.42765,-0.98974 -2.92689,-1.91181 -0.024,-0.36374 -0.0959,-0.76134 -0.0959,-1.11664 0,-0.90514 0.61866,-2.43627 1.21094,-3.12148 l -0.50835,0.60061 -0.19184,-0.30454 -0.60907,0.50757 -0.40524,0.71057 -0.30454,-0.2031 -0.19183,0.70213 -0.29494,-0.2031 -0.50836,1.00667 -0.19183,-0.3976 c -0.28775,0.86284 -1.00713,2.73235 -1.00713,3.53599 0,0.38913 0.0719,0.8121 0.0959,1.2012 0.21581,0.54987 0.6858,1.23507 1.21095,1.52268 l 0.46519,0.12685 c 0.0959,0.0338 0.14388,0.0676 0.23979,0.0676 h 0.81289 l 0.60907,-0.29607 c 0.76973,-0.19447 2.03823,-0.50757 2.81707,-0.50757 0.55871,0 1.16778,0.27917 1.71691,0.2031 -0.2398,0.76134 -0.49877,1.92872 -0.49877,2.7239 0,1.71724 0.90401,3.27375 0.90401,4.94869 0,1.74261 -1.47951,3.23991 -1.61619,6.65747 -2.74081,2.24171 -6.20052,4.13659 -9.48279,5.44778 -1.74328,4.67818 -3.89132,9.11932 -7.97712,12.11391 l -0.29495,0.60063 -0.19183,0.40604 -0.40524,0.20311 c -1.10784,0.27916 -3.12137,1.0151 -4.03497,1.71723 -0.0959,0.11846 -0.23979,0.27073 -0.30454,0.3976 -0.0719,0.13524 -0.14387,0.36374 -0.19183,0.50757 z"
       style="fill:#000000;fill-opacity:1;fill-rule:evenodd;stroke:none;stroke-width:0.36374998;stroke-linecap:butt;stroke-linejoin:miter;stroke-miterlimit:3.86400008;stroke-dasharray:none;stroke-opacity:1"
       id="path6256"
       inkscape:connector-curvature="0" />
  </g>
</svg>
