<?xml version="1.0" encoding="UTF-8" standalone="no"?>
<!-- Created with Inkscape (http://www.inkscape.org/) -->

<svg
   xmlns:dc="http://purl.org/dc/elements/1.1/"
   xmlns:cc="http://creativecommons.org/ns#"
   xmlns:rdf="http://www.w3.org/1999/02/22-rdf-syntax-ns#"
   xmlns:svg="http://www.w3.org/2000/svg"
   xmlns="http://www.w3.org/2000/svg"
   xmlns:sodipodi="http://sodipodi.sourceforge.net/DTD/sodipodi-0.dtd"
   xmlns:inkscape="http://www.inkscape.org/namespaces/inkscape"
   width="864.20001"
   height="755.22601"
   viewBox="0 0 228.65291 199.82022"
   version="1.1"
   id="svg4490"
   inkscape:version="0.92.2 (5c3e80d, 2017-08-06)"
   sodipodi:docname="11 SADC.svg">
  <defs
     id="defs4484" />
  <sodipodi:namedview
     id="base"
     pagecolor="#ffffff"
     bordercolor="#666666"
     borderopacity="1.0"
     inkscape:pageopacity="0.0"
     inkscape:pageshadow="2"
     inkscape:zoom="0.49497475"
     inkscape:cx="191.37756"
     inkscape:cy="325.07303"
     inkscape:document-units="px"
     inkscape:current-layer="layer1"
     showgrid="false"
     units="px"
     inkscape:window-width="1920"
     inkscape:window-height="1057"
     inkscape:window-x="-8"
     inkscape:window-y="-8"
     inkscape:window-maximized="1" />
  <metadata
     id="metadata4487">
    <rdf:RDF>
      <cc:Work
         rdf:about="">
        <dc:format>image/svg+xml</dc:format>
        <dc:type
           rdf:resource="http://purl.org/dc/dcmitype/StillImage" />
        <dc:title></dc:title>
      </cc:Work>
    </rdf:RDF>
  </metadata>
  <g
     inkscape:label="Layer 1"
     inkscape:groupmode="layer"
     id="layer1"
     transform="translate(0,-97.179786)">
    <path
       sodipodi:nodetypes="cccc"
       inkscape:connector-curvature="0"
       id="path4488"
       d="M 6.7199328,290.27958 114.32645,103.8995 221.93303,290.27956 Z"
       style="fill:#e20a16;fill-opacity:1;stroke:#e20a16;stroke-width:13.22916698;stroke-linejoin:round;stroke-miterlimit:4;stroke-dasharray:none;stroke-opacity:1" />
    <path
       style="fill:#ffffff;fill-opacity:1;stroke:none;stroke-width:13.22916603;stroke-linejoin:round;stroke-miterlimit:4;stroke-dasharray:none;stroke-opacity:1"
       d="m 114.32647,130.35788 84.6929,146.69241 -169.385739,1.1e-4 z"
       id="rect5050"
       inkscape:connector-curvature="0"
       sodipodi:nodetypes="cccc" />
    <path
       inkscape:connector-curvature="0"
       id="path9670"
       style="fill:#000000;fill-opacity:1;fill-rule:evenodd;stroke:none;stroke-width:0.38018814"
       d="m 141.76313,214.78774 -3e-5,-2.91263 8.21319,-8.50519 4.48508,4.33111 -6.84338,7.0867 v 42.93697 l 6.84338,7.08669 -4.48508,4.3311 -8.21319,-8.5052 v -2.9126 l -27.82978,-2e-5 v 2.91262 l -8.21321,8.5052 -4.48508,-4.3311 6.84338,-7.08669 v -42.93695 l -6.84338,-7.08672 4.48508,-4.33111 8.21321,8.50519 v 2.91262 z"
       sodipodi:nodetypes="ccccccccccccccccccccc" />
    <path
       sodipodi:nodetypes="ccccc"
       inkscape:connector-curvature="0"
       id="path9723"
       style="fill:#ffffff;fill-opacity:1;fill-rule:evenodd;stroke:none;stroke-width:0.38018814"
       d="m 141.7631,245.55865 h -27.82978 v 5.70282 h 27.82978 z" />
    <path
       d="m 141.7631,226.95373 h -27.82978 v -5.70282 h 27.82978 z"
       style="fill:#ffffff;fill-opacity:1;fill-rule:evenodd;stroke:none;stroke-width:0.38018814"
       id="path9736"
       inkscape:connector-curvature="0"
       sodipodi:nodetypes="ccccc" />
    <path
       d="m 141.7631,233.40479 h -27.82978 v 5.70282 h 27.82978 z"
       style="fill:#ffffff;fill-opacity:1;fill-rule:evenodd;stroke:none;stroke-width:0.38018814"
       id="path9747"
       inkscape:connector-curvature="0"
       sodipodi:nodetypes="ccccc" />
    <path
       style="fill:#000000;fill-opacity:1;stroke:none;stroke-width:0.26945832;stroke-linecap:butt;stroke-linejoin:round;stroke-miterlimit:22.9260006;stroke-dasharray:none;stroke-opacity:1"
       d="m 95.810121,236.25621 -16.87476,19.83693 c -0.36209,0.24522 -0.79912,0.38909 -1.26952,0.38909 -1.25109,0 -2.0412,-1.01432 -2.0412,-2.26532 0,-0.1174 0.0101,-0.23328 0.0263,-0.34567 l 4.19131,-10.76407 -17.26055,3e-5 v -13.70202 h 17.26055 l -4.19131,-10.76404 c -0.0167,-0.11234 -0.0263,-0.22826 -0.0263,-0.34566 0,-1.25101 0.79011,-2.26532 2.04119,-2.26532 0.47041,0 0.90744,0.14387 1.26953,0.38909 z"
       id="path15203"
       inkscape:connector-curvature="0"
       sodipodi:nodetypes="ccssccccccsscc" />
  </g>
</svg>
