<?xml version="1.0" encoding="UTF-8" standalone="no"?>
<!-- Created with Inkscape (http://www.inkscape.org/) -->

<svg
   xmlns:dc="http://purl.org/dc/elements/1.1/"
   xmlns:cc="http://creativecommons.org/ns#"
   xmlns:rdf="http://www.w3.org/1999/02/22-rdf-syntax-ns#"
   xmlns:svg="http://www.w3.org/2000/svg"
   xmlns="http://www.w3.org/2000/svg"
   xmlns:sodipodi="http://sodipodi.sourceforge.net/DTD/sodipodi-0.dtd"
   xmlns:inkscape="http://www.inkscape.org/namespaces/inkscape"
   width="864.20001"
   height="755.22601"
   viewBox="0 0 228.65292 199.82022"
   version="1.1"
   id="svg4490"
   inkscape:version="0.92.1 r15371"
   sodipodi:docname="55.svg">
  <defs
     id="defs4484" />
  <sodipodi:namedview
     id="base"
     pagecolor="#ffffff"
     bordercolor="#666666"
     borderopacity="1.0"
     inkscape:pageopacity="0.0"
     inkscape:pageshadow="2"
     inkscape:zoom="0.7"
     inkscape:cx="479.2088"
     inkscape:cy="322.23811"
     inkscape:document-units="px"
     inkscape:current-layer="layer1"
     showgrid="false"
     units="px"
     inkscape:window-width="1920"
     inkscape:window-height="1057"
     inkscape:window-x="-8"
     inkscape:window-y="-8"
     inkscape:window-maximized="1"
     fit-margin-top="0"
     fit-margin-left="0"
     fit-margin-right="0"
     fit-margin-bottom="0" />
  <metadata
     id="metadata4487">
    <rdf:RDF>
      <cc:Work
         rdf:about="">
        <dc:format>image/svg+xml</dc:format>
        <dc:type
           rdf:resource="http://purl.org/dc/dcmitype/StillImage" />
        <dc:title></dc:title>
      </cc:Work>
    </rdf:RDF>
  </metadata>
  <g
     inkscape:label="Layer 1"
     inkscape:groupmode="layer"
     id="layer1"
     transform="translate(-43.65625,-73.367287)">
    <path
       sodipodi:nodetypes="cccc"
       inkscape:connector-curvature="0"
       id="path4488"
       d="M 50.376183,266.46707 157.9827,80.086997 265.58928,266.46705 Z"
       style="fill:#e20a16;fill-opacity:1;stroke:#e20a16;stroke-width:13.22916698;stroke-linejoin:round;stroke-miterlimit:4;stroke-dasharray:none;stroke-opacity:1" />
    <path
       style="fill:#ffffff;fill-opacity:1;stroke:none;stroke-width:13.22916603;stroke-linejoin:round;stroke-miterlimit:4;stroke-dasharray:none;stroke-opacity:1"
       d="m 157.98278,106.54551 -84.692897,146.69241 169.385737,-3e-5 z"
       id="rect5050"
       inkscape:connector-curvature="0"
       sodipodi:nodetypes="cccc" />
    <path
       d="m 209.57646,249.26915 h -74.62059 c -5.73313,-3.35053 -15.56571,-7.02937 -22.24143,-7.07147 l -14.336512,-0.83354 -15.801469,-1.3554 h 9.260416 l 109.843025,1.32292"
       style="fill:#000000;fill-opacity:1;fill-rule:nonzero;stroke:none;stroke-width:8.41839314"
       id="path5982"
       inkscape:connector-curvature="0"
       sodipodi:nodetypes="ccccccc" />
    <path
       d="m 91.306319,224.59673 c 5.951949,-1.2039 11.735431,-3.72936 17.249251,-6.23805 v 17.88067 c -5.81688,1.29648 -11.760482,2.32355 -17.670191,3.11481 l -8.30892,0.65458"
       style="fill:#000000;fill-opacity:1;fill-rule:nonzero;stroke:none;stroke-width:8.41839314"
       id="path5984"
       inkscape:connector-curvature="0"
       sodipodi:nodetypes="ccccc" />
    <path
       d="m 129.34922,230.2118 v -25.98758 c -5.97725,4.54593 -11.52496,9.50436 -18.30162,12.88854 v 18.50364 c 6.22113,-1.26284 12.33296,-3.32526 18.30162,-5.4046"
       style="fill:#000000;fill-opacity:1;fill-rule:nonzero;stroke:none;stroke-width:8.41839314"
       id="path5986"
       inkscape:connector-curvature="0" />
    <path
       d="m 198.06583,223.43921 -1.04282,-44.4912 c -4.94182,-8.88984 -14.65652,-9.5633 -23.89991,-9.5633 -4.62182,0 -9.34434,0.27776 -13.92416,0.8333 -3.96487,1.02707 -9.00763,4.56278 -10.80906,8.31739 -1.40554,3.24949 -9.31069,15.70029 -11.6426,17.87224 l -4.57123,4.79005 v 27.64603 c 3.45992,-1.23754 6.97043,-2.39925 10.38835,-3.73778 0.29352,-0.0668 0.74931,-0.21 1.04282,-0.21 0.28636,0 0.73976,0.14318 1.03567,0.21 l 0.83282,0.82495 0.21477,0.8333 2.28132,10.59875 h 47.39558 l 1.03566,-11.6342 0.21477,-1.04377 0.62283,-0.83354 0.83283,-0.4126"
       style="fill:#000000;fill-opacity:1;fill-rule:nonzero;stroke:none;stroke-width:8.41839314"
       id="path5988"
       inkscape:connector-curvature="0" />
    <path
       d="m 169.58215,193.82749 h 5.3975 v -11.21833 h -5.3975 z"
       style="fill:#ffffff;fill-opacity:1;fill-rule:nonzero;stroke:none;stroke-width:8.41143131"
       id="path5994"
       inkscape:connector-curvature="0" />
    <path
       d="m 152.43715,195.68361 h 13.91708 v -14.94896 h -13.91708 z"
       style="fill:#ffffff;fill-opacity:1;fill-rule:nonzero;stroke:none;stroke-width:8.4104929"
       id="path5996"
       inkscape:connector-curvature="0" />
    <path
       d="m 147.43177,186.34355 -3.33369,4.36913 v 8.72988 l 3.33369,-2.70231 v -10.3967"
       style="fill:#ffffff;fill-opacity:1;fill-rule:nonzero;stroke:none;stroke-width:8.41839314"
       id="path5998"
       inkscape:connector-curvature="0" />
    <path
       d="m 134.12233,206.50558 v -5.60665 l 2.49179,-2.07943 v 6.02757 l -2.49179,1.65849"
       style="fill:#ffffff;fill-opacity:1;fill-rule:nonzero;stroke:none;stroke-width:8.41839314"
       id="path6000"
       inkscape:connector-curvature="0" />
    <path
       d="m 150.95922,204.43741 21.40479,7.27075 21.40479,-7.27075 v -3.53475 l -21.40479,7.27067 -21.40479,-7.27067"
       style="fill:#ffffff;fill-opacity:1;fill-rule:nonzero;stroke:none;stroke-width:8.41548824"
       id="path6018"
       inkscape:connector-curvature="0"
       sodipodi:nodetypes="cccccc" />
    <rect
       style="fill:#ffffff;fill-opacity:1;stroke:none;stroke-width:6.20016527;stroke-linejoin:round;stroke-miterlimit:4;stroke-dasharray:none;stroke-opacity:1"
       id="rect8863"
       width="7.0643749"
       height="3.96875"
       x="168.74872"
       y="173.86292"
       rx="1.3758334" />
    <path
       inkscape:connector-curvature="0"
       id="path8883"
       style="fill:#ffffff;fill-opacity:1;fill-rule:nonzero;stroke:none;stroke-width:8.4104929"
       d="m 178.20757,195.68361 h 13.91708 v -14.94896 h -13.91708 z" />
    <path
       inkscape:connector-curvature="0"
       id="path8969"
       style="fill:#ffffff;fill-opacity:1;fill-rule:nonzero;stroke:none;stroke-width:8.32103252"
       d="m 189.73271,232.60041 h 2.64583 v -7.67292 h -2.64583 z" />
    <path
       inkscape:connector-curvature="0"
       id="path8971"
       style="fill:#000000;fill-opacity:1;fill-rule:nonzero;stroke:none;stroke-width:11.88696384"
       d="m 162.74521,241.33166 h 3.175 v -5.29167 h -3.175 z" />
    <path
       d="m 178.62021,241.33166 h 3.175 v -5.29167 h -3.175 z"
       style="fill:#000000;fill-opacity:1;fill-rule:nonzero;stroke:none;stroke-width:11.88696384"
       id="path8992"
       inkscape:connector-curvature="0" />
    <path
       d="m 184.44105,232.60041 h 2.64583 v -7.67292 h -2.64583 z"
       style="fill:#ffffff;fill-opacity:1;fill-rule:nonzero;stroke:none;stroke-width:8.32103252"
       id="path9009"
       inkscape:connector-curvature="0" />
    <path
       inkscape:connector-curvature="0"
       id="path9011"
       style="fill:#ffffff;fill-opacity:1;fill-rule:nonzero;stroke:none;stroke-width:8.32103252"
       d="m 179.14938,232.60041 h 2.64583 v -7.67292 h -2.64583 z" />
    <path
       d="m 173.85771,232.60041 h 2.64583 v -7.67292 h -2.64583 z"
       style="fill:#ffffff;fill-opacity:1;fill-rule:nonzero;stroke:none;stroke-width:8.32103252"
       id="path9013"
       inkscape:connector-curvature="0" />
    <path
       inkscape:connector-curvature="0"
       id="path9015"
       style="fill:#ffffff;fill-opacity:1;fill-rule:nonzero;stroke:none;stroke-width:8.32103252"
       d="m 168.56605,232.60041 h 2.64583 v -7.67292 h -2.64583 z" />
    <path
       d="m 163.27438,232.60041 h 2.64583 v -7.67292 h -2.64583 z"
       style="fill:#ffffff;fill-opacity:1;fill-rule:nonzero;stroke:none;stroke-width:8.32103252"
       id="path9017"
       inkscape:connector-curvature="0" />
    <path
       inkscape:connector-curvature="0"
       id="path9019"
       style="fill:#ffffff;fill-opacity:1;fill-rule:nonzero;stroke:none;stroke-width:8.32103252"
       d="m 157.98271,232.60041 h 2.64583 v -7.67292 h -2.64583 z" />
    <path
       d="m 152.69105,232.60041 h 2.64583 v -7.67292 h -2.64583 z"
       style="fill:#ffffff;fill-opacity:1;fill-rule:nonzero;stroke:none;stroke-width:8.32103252"
       id="path9021"
       inkscape:connector-curvature="0" />
  </g>
</svg>
