<?xml version="1.0" encoding="UTF-8" standalone="no"?>
<!-- Created with Inkscape (http://www.inkscape.org/) -->

<svg
   xmlns:dc="http://purl.org/dc/elements/1.1/"
   xmlns:cc="http://creativecommons.org/ns#"
   xmlns:rdf="http://www.w3.org/1999/02/22-rdf-syntax-ns#"
   xmlns:svg="http://www.w3.org/2000/svg"
   xmlns="http://www.w3.org/2000/svg"
   xmlns:sodipodi="http://sodipodi.sourceforge.net/DTD/sodipodi-0.dtd"
   xmlns:inkscape="http://www.inkscape.org/namespaces/inkscape"
   width="864.20001"
   height="755.22601"
   viewBox="0 0 228.65294 199.8202"
   version="1.1"
   id="svg4490"
   inkscape:version="0.92.1 r15371"
   sodipodi:docname="66.svg">
  <defs
     id="defs4484" />
  <sodipodi:namedview
     id="base"
     pagecolor="#ffffff"
     bordercolor="#666666"
     borderopacity="1.0"
     inkscape:pageopacity="0.0"
     inkscape:pageshadow="2"
     inkscape:zoom="0.5"
     inkscape:cx="543.87331"
     inkscape:cy="214.87503"
     inkscape:document-units="px"
     inkscape:current-layer="layer1"
     showgrid="false"
     units="px"
     inkscape:window-width="1920"
     inkscape:window-height="1057"
     inkscape:window-x="-8"
     inkscape:window-y="-8"
     inkscape:window-maximized="1"
     fit-margin-top="0"
     fit-margin-left="0"
     fit-margin-right="0"
     fit-margin-bottom="0" />
  <metadata
     id="metadata4487">
    <rdf:RDF>
      <cc:Work
         rdf:about="">
        <dc:format>image/svg+xml</dc:format>
        <dc:type
           rdf:resource="http://purl.org/dc/dcmitype/StillImage" />
        <dc:title></dc:title>
      </cc:Work>
    </rdf:RDF>
  </metadata>
  <g
     inkscape:label="Layer 1"
     inkscape:groupmode="layer"
     id="layer1"
     transform="translate(0,-97.179782)">
    <path
       sodipodi:nodetypes="cccc"
       inkscape:connector-curvature="0"
       id="path4488"
       d="M 6.7199328,290.27958 114.32645,103.8995 221.93303,290.27956 Z"
       style="fill:#e20a16;fill-opacity:1;stroke:#e20a16;stroke-width:13.22916698;stroke-linejoin:round;stroke-miterlimit:4;stroke-dasharray:none;stroke-opacity:1" />
    <path
       style="fill:#ffffff;fill-opacity:1;stroke:none;stroke-width:13.22916603;stroke-linejoin:round;stroke-miterlimit:4;stroke-dasharray:none;stroke-opacity:1"
       d="M 114.32653,130.35788 29.633633,277.05029 199.01937,277.0504 Z"
       id="rect5050"
       inkscape:connector-curvature="0"
       sodipodi:nodetypes="cccc" />
    <path
       style="fill:#000000;fill-opacity:1;stroke:none;stroke-width:4.01092339;stroke-linejoin:round;stroke-miterlimit:4;stroke-dasharray:none;stroke-opacity:1"
       d="m 60.748334,253.10562 c 1e-5,-29.59039 23.98775,-53.57812 53.578126,-53.57812 29.59038,0 53.57812,23.98773 53.57813,53.57812 v 16.00729 H 60.748334 Z"
       id="path4484"
       inkscape:connector-curvature="0"
       sodipodi:nodetypes="cscccc" />
    <path
       style="fill:#ffffff;fill-opacity:1;stroke:none;stroke-width:10.03485966;stroke-linejoin:round;stroke-miterlimit:4;stroke-dasharray:none;stroke-opacity:1"
       d="m 111.15146,261.17541 c 0,1.17263 -0.94404,2.11667 -2.11667,2.11667 h -0.26458 v 7.14375 h -5.55625 v -7.14375 H 82.576459 v 7.14375 h -5.55625 v -7.14375 h -0.26458 c -1.17263,0 -2.11667,-0.94404 -2.11667,-2.11667 z"
       id="rect8845"
       inkscape:connector-curvature="0"
       sodipodi:nodetypes="csccccccccscc" />
    <path
       style="fill:#ffffff;fill-opacity:1;stroke:none;stroke-width:4.74394274;stroke-linejoin:round;stroke-miterlimit:4;stroke-dasharray:none;stroke-opacity:1"
       d="m 107.97646,233.39417 c 0,-2.63843 -2.12408,-4.7625 -4.7625,-4.7625 H 82.576459 c -2.63843,0 -4.7625,2.12407 -4.7625,4.7625 l -3.175,17.46254 v 7.67291 h 36.512501 v -7.67291 z"
       id="rect8869"
       inkscape:connector-curvature="0"
       sodipodi:nodetypes="csscccccc" />
    <path
       style="fill:#000000;fill-opacity:1;stroke:none;stroke-width:4.74394274;stroke-linejoin:round;stroke-miterlimit:4;stroke-dasharray:none;stroke-opacity:1"
       d="m 80.830159,234.26719 c 0,-1.40716 1.13274,-2.5399 2.5399,-2.5399 h 19.050261 c 1.40716,0 2.53989,1.13274 2.53989,2.5399 l 1.77271,9.44573 H 79.057499 Z"
       id="rect8937"
       inkscape:connector-curvature="0"
       sodipodi:nodetypes="csscccc" />
    <path
       sodipodi:nodetypes="csccccccccscc"
       inkscape:connector-curvature="0"
       id="path9065"
       d="m 154.01396,261.17541 c 0,1.17263 -0.94404,2.11667 -2.11667,2.11667 h -0.26458 v 7.14375 h -5.55625 v -7.14375 h -20.6375 v 7.14375 h -5.55625 v -7.14375 h -0.26458 c -1.17263,0 -2.11667,-0.94404 -2.11667,-2.11667 z"
       style="fill:#ffffff;fill-opacity:1;stroke:none;stroke-width:10.03485966;stroke-linejoin:round;stroke-miterlimit:4;stroke-dasharray:none;stroke-opacity:1" />
    <path
       sodipodi:nodetypes="csscccccc"
       inkscape:connector-curvature="0"
       id="path9067"
       d="m 150.83896,233.39417 c 0,-2.63843 -2.12408,-4.7625 -4.7625,-4.7625 h -20.6375 c -2.63843,0 -4.7625,2.12407 -4.7625,4.7625 l -3.175,17.46254 v 7.67291 h 36.5125 v -7.67291 z"
       style="fill:#ffffff;fill-opacity:1;stroke:none;stroke-width:4.74394274;stroke-linejoin:round;stroke-miterlimit:4;stroke-dasharray:none;stroke-opacity:1" />
    <path
       sodipodi:nodetypes="csscccc"
       inkscape:connector-curvature="0"
       id="path9069"
       d="m 123.69266,234.26719 c 0,-1.40716 1.13274,-2.5399 2.5399,-2.5399 h 19.05026 c 1.40716,0 2.53989,1.13274 2.53989,2.5399 l 1.77271,9.44573 H 121.92 Z"
       style="fill:#000000;fill-opacity:1;stroke:none;stroke-width:4.74394274;stroke-linejoin:round;stroke-miterlimit:4;stroke-dasharray:none;stroke-opacity:1" />
    <circle
       r="2.3812499"
       cy="248.89874"
       cx="122.26398"
       id="circle9071"
       style="fill:#000000;fill-opacity:1;stroke:none;stroke-width:4.27545786;stroke-linejoin:round;stroke-miterlimit:4;stroke-dasharray:none;stroke-opacity:1" />
    <circle
       style="fill:#000000;fill-opacity:1;stroke:none;stroke-width:4.27545786;stroke-linejoin:round;stroke-miterlimit:4;stroke-dasharray:none;stroke-opacity:1"
       id="circle9073"
       cx="149.25145"
       cy="248.89874"
       r="2.3812499" />
  </g>
</svg>
