<?xml version="1.0" encoding="UTF-8" standalone="no"?>
<!-- Created with Inkscape (http://www.inkscape.org/) -->

<svg
   xmlns:dc="http://purl.org/dc/elements/1.1/"
   xmlns:cc="http://creativecommons.org/ns#"
   xmlns:rdf="http://www.w3.org/1999/02/22-rdf-syntax-ns#"
   xmlns:svg="http://www.w3.org/2000/svg"
   xmlns="http://www.w3.org/2000/svg"
   xmlns:sodipodi="http://sodipodi.sourceforge.net/DTD/sodipodi-0.dtd"
   xmlns:inkscape="http://www.inkscape.org/namespaces/inkscape"
   width="864.20001"
   height="755.22601"
   viewBox="0 0 228.65291 199.82022"
   version="1.1"
   id="svg4490"
   inkscape:version="0.92.1 r15371"
   sodipodi:docname="55.svg">
  <defs
     id="defs4484" />
  <sodipodi:namedview
     id="base"
     pagecolor="#ffffff"
     bordercolor="#666666"
     borderopacity="1.0"
     inkscape:pageopacity="0.0"
     inkscape:pageshadow="2"
     inkscape:zoom="0.84493737"
     inkscape:cx="597.09849"
     inkscape:cy="271.01572"
     inkscape:document-units="px"
     inkscape:current-layer="layer1"
     showgrid="false"
     units="px"
     inkscape:window-width="1920"
     inkscape:window-height="1057"
     inkscape:window-x="-8"
     inkscape:window-y="-8"
     inkscape:window-maximized="1"
     inkscape:snap-global="false"
     fit-margin-top="0"
     fit-margin-left="0"
     fit-margin-right="0"
     fit-margin-bottom="0" />
  <metadata
     id="metadata4487">
    <rdf:RDF>
      <cc:Work
         rdf:about="">
        <dc:format>image/svg+xml</dc:format>
        <dc:type
           rdf:resource="http://purl.org/dc/dcmitype/StillImage" />
        <dc:title></dc:title>
      </cc:Work>
    </rdf:RDF>
  </metadata>
  <g
     inkscape:label="Layer 1"
     inkscape:groupmode="layer"
     id="layer1"
     transform="translate(0,-91.064943)">
    <path
       sodipodi:nodetypes="cccc"
       inkscape:connector-curvature="0"
       id="path4488"
       d="M 6.7199328,284.16472 114.32644,97.784641 221.93302,284.1647 Z"
       style="fill:#e20a16;fill-opacity:1;stroke:#e20a16;stroke-width:13.22916698;stroke-linejoin:round;stroke-miterlimit:4;stroke-dasharray:none;stroke-opacity:1" />
    <path
       style="fill:#ffffff;fill-opacity:1;stroke:none;stroke-width:13.22916603;stroke-linejoin:round;stroke-miterlimit:4;stroke-dasharray:none;stroke-opacity:1"
       d="m 114.32652,124.24316 -84.692887,146.6924 169.385727,-2e-5 z"
       id="rect5050"
       inkscape:connector-curvature="0"
       sodipodi:nodetypes="cccc" />
    <path
       style="font-style:normal;font-variant:normal;font-weight:normal;font-stretch:normal;font-size:236.25559998px;line-height:125%;font-family:'DIN 1451 Engschrift';-inkscape-font-specification:'DIN 1451 Engschrift';letter-spacing:0px;word-spacing:0px;fill:#000000;fill-opacity:1;fill-rule:evenodd;stroke:none;stroke-width:0.11759257px;stroke-linecap:butt;stroke-linejoin:miter;stroke-opacity:1"
       d="m 128.02601,200.55641 c 1.6938,0 3.0574,1.36361 3.0574,3.05741 v 14.76958 h 1.14065 v -8.04338 c 0,-1.01628 0.81816,-1.83439 1.83444,-1.83439 h 11.87685 c 0.22894,0 1.42681,0.49094 1.905,1.38759 l 3.57486,7.54944 0.71727,0.71727 c 0.22839,0.2325 0.43449,0.44102 0.62324,0.84671 0.25269,0.54308 0.38732,0.92866 0.42338,1.7757 v 2.73986 c 0.47091,0.0523 0.83486,0.4436 0.83486,0.92893 v 2.51653 H 134.1173 c -0.36421,-6.95836 -7.66957,-6.69914 -12.87639,-6.18532 v 6.18532 H 74.638959 v -23.35384 c 0,-1.6938 1.36361,-3.05741 3.05741,-3.05741 z"
       id="path14783"
       inkscape:connector-curvature="0"
       sodipodi:nodetypes="ssccsssccccccscccccsss" />
    <path
       style="font-style:normal;font-variant:normal;font-weight:normal;font-stretch:normal;font-size:236.25559998px;line-height:125%;font-family:'DIN 1451 Engschrift';-inkscape-font-specification:'DIN 1451 Engschrift';letter-spacing:0px;word-spacing:0px;fill:#ffffff;fill-opacity:1;stroke:none;stroke-width:3.0574069;stroke-linecap:butt;stroke-linejoin:miter;stroke-miterlimit:4;stroke-dasharray:none;stroke-opacity:1"
       d="m 145.51313,210.44592 h -9.93768 c -0.78176,0 -1.41111,0.62936 -1.41111,1.41111 v 3.25732 c 0,0.78175 0.62935,1.41111 1.41111,1.41111 h 11.46638 c 1.06103,0 1.37866,-1.0257 1.17592,-1.45813 l -1.50518,-3.2103 c -0.33187,-0.70781 -0.41769,-1.41111 -1.19944,-1.41111 z"
       id="rect15007"
       inkscape:connector-curvature="0"
       sodipodi:nodetypes="sssssssss" />
    <circle
       style="font-style:normal;font-variant:normal;font-weight:normal;font-stretch:normal;font-size:236.25559998px;line-height:125%;font-family:'DIN 1451 Engschrift';-inkscape-font-specification:'DIN 1451 Engschrift';letter-spacing:0px;word-spacing:0px;fill:#ffffff;fill-opacity:1;stroke:none;stroke-width:3.05593657;stroke-linecap:butt;stroke-linejoin:miter;stroke-miterlimit:4;stroke-dasharray:none;stroke-opacity:1"
       id="circle4287"
       cx="-87.481834"
       cy="226.9671"
       r="6.1118751"
       transform="scale(-1,1)" />
    <circle
       r="4.2809582"
       cy="226.9671"
       cx="-87.481834"
       id="circle4289"
       style="font-style:normal;font-variant:normal;font-weight:normal;font-stretch:normal;font-size:236.25559998px;line-height:125%;font-family:'DIN 1451 Engschrift';-inkscape-font-specification:'DIN 1451 Engschrift';letter-spacing:0px;word-spacing:0px;fill:#000000;fill-opacity:1;stroke:none;stroke-width:3.05782652;stroke-linecap:butt;stroke-linejoin:miter;stroke-miterlimit:4;stroke-dasharray:none;stroke-opacity:1"
       transform="scale(-1,1)" />
    <path
       style="fill:#000000;fill-opacity:1;stroke:none;stroke-width:4.37514973;stroke-linejoin:round;stroke-miterlimit:4;stroke-dasharray:none;stroke-opacity:1"
       d="m 58.763959,239.18555 15.875,11.90625 -15.875,11.90625 z"
       id="rect8779"
       inkscape:connector-curvature="0"
       sodipodi:nodetypes="cccc" />
    <path
       sodipodi:nodetypes="cccc"
       inkscape:connector-curvature="0"
       id="path8782"
       d="m 169.88896,239.18555 -15.875,11.90625 15.875,11.90625 z"
       style="fill:#000000;fill-opacity:1;stroke:none;stroke-width:4.37514973;stroke-linejoin:round;stroke-miterlimit:4;stroke-dasharray:none;stroke-opacity:1" />
    <circle
       style="font-style:normal;font-variant:normal;font-weight:normal;font-stretch:normal;font-size:236.25559998px;line-height:125%;font-family:'DIN 1451 Engschrift';-inkscape-font-specification:'DIN 1451 Engschrift';letter-spacing:0px;word-spacing:0px;fill:#000000;fill-opacity:1;stroke:none;stroke-width:3.05782652;stroke-linecap:butt;stroke-linejoin:miter;stroke-miterlimit:4;stroke-dasharray:none;stroke-opacity:1"
       id="circle8823"
       cx="-128.00278"
       cy="226.9671"
       r="4.2809582"
       transform="scale(-1,1)" />
    <circle
       r="6.1118751"
       cy="226.9671"
       cx="-143.28775"
       id="circle8835"
       style="font-style:normal;font-variant:normal;font-weight:normal;font-stretch:normal;font-size:236.25559998px;line-height:125%;font-family:'DIN 1451 Engschrift';-inkscape-font-specification:'DIN 1451 Engschrift';letter-spacing:0px;word-spacing:0px;fill:#ffffff;fill-opacity:1;stroke:none;stroke-width:3.05593657;stroke-linecap:butt;stroke-linejoin:miter;stroke-miterlimit:4;stroke-dasharray:none;stroke-opacity:1"
       transform="scale(-1,1)" />
    <circle
       style="font-style:normal;font-variant:normal;font-weight:normal;font-stretch:normal;font-size:236.25559998px;line-height:125%;font-family:'DIN 1451 Engschrift';-inkscape-font-specification:'DIN 1451 Engschrift';letter-spacing:0px;word-spacing:0px;fill:#000000;fill-opacity:1;stroke:none;stroke-width:3.05782652;stroke-linecap:butt;stroke-linejoin:miter;stroke-miterlimit:4;stroke-dasharray:none;stroke-opacity:1"
       id="circle8837"
       cx="-143.28775"
       cy="226.9671"
       r="4.2809582"
       transform="scale(-1,1)" />
    <g
       aria-label="15"
       style="font-style:normal;font-variant:normal;font-weight:normal;font-stretch:normal;font-size:38.73110962px;line-height:1.25;font-family:'DIN 1451 Mittelschrift';-inkscape-font-specification:'DIN 1451 Mittelschrift';letter-spacing:0px;word-spacing:0px;fill:#000000;fill-opacity:1;stroke:none;stroke-width:0.96827769"
       id="text8841"
       transform="matrix(-1,0,0,1,169.88896,-25.770427)">
      <path
         d="m 86.659705,290.71494 v -23.43157 l 3.933628,2.87458 v -4.19839 l -3.933628,-2.85567 h -3.971452 v 27.61105 z"
         style="font-style:normal;font-variant:normal;font-weight:normal;font-stretch:normal;font-family:'DIN 1451 Mittelschrift';-inkscape-font-specification:'DIN 1451 Mittelschrift';fill:#000000;stroke-width:0.96827769"
         id="path8850"
         inkscape:connector-curvature="0" />
      <path
         d="m 75.390141,278.00629 v -14.9024 H 60.714682 v 3.95254 h 10.949859 v 6.22195 q -1.891167,-1.51294 -4.40642,-1.51294 -1.569669,0 -2.855663,0.60518 -1.304905,0.60517 -2.061372,1.41837 -1.134701,1.22926 -1.645316,2.68546 -0.529527,1.43729 -0.529527,4.8603 0,2.78002 0.416057,4.14166 0.397145,1.34272 1.285994,2.47743 0.851025,1.07796 2.382871,2.00463 1.531845,0.92667 3.593218,0.92667 2.666546,0 5.143975,-1.64531 2.47743,-1.64532 2.912398,-5.5033 h -3.95254 q -0.699732,3.21499 -3.95254,3.21499 -2.893486,0 -3.385189,-1.98573 -0.491704,-1.98573 -0.491704,-3.93363 0,-2.28831 0.775379,-3.80124 0.775378,-1.51294 3.214984,-1.51294 2.288313,0 3.555395,2.28831 z"
         style="font-style:normal;font-variant:normal;font-weight:normal;font-stretch:normal;font-family:'DIN 1451 Mittelschrift';-inkscape-font-specification:'DIN 1451 Mittelschrift';fill:#000000;stroke-width:0.96827769"
         id="path8852"
         inkscape:connector-curvature="0" />
    </g>
    <g
       aria-label="m"
       style="font-style:normal;font-weight:normal;font-size:10.58333302px;line-height:1.25;font-family:sans-serif;letter-spacing:0px;word-spacing:0px;fill:#000000;fill-opacity:1;stroke:none;stroke-width:0.26458332"
       id="text8845"
       transform="matrix(3.7059085,0,0,3.7059085,368.18959,-777.6135)">
      <path
         d="m -66.542651,281.36912 v -5.36401 h 1.080038 v 0.57361 h 0.02067 q 0.511597,-0.63562 1.395264,-0.63562 0.563273,0 0.894002,0.20153 0.330729,0.20154 0.620117,0.4961 0.63562,-0.69763 1.694987,-0.69763 0.625285,0 1.204061,0.47542 0.583944,0.47542 0.583944,1.38493 v 3.56567 h -1.080038 v -3.1936 q 0,-0.54261 -0.304891,-0.8475 -0.304891,-0.30489 -0.754476,-0.30489 -0.465088,0 -0.769978,0.30489 -0.299724,0.30489 -0.299724,0.8475 v 3.1936 h -1.07487 v -3.1936 q 0,-0.54261 -0.30489,-0.8475 -0.304891,-0.30489 -0.754476,-0.30489 -0.465088,0 -0.769979,0.30489 -0.299723,0.30489 -0.299723,0.8475 v 3.1936 z"
         style="font-style:normal;font-variant:normal;font-weight:normal;font-stretch:normal;font-family:'DIN 1451 Mittelschrift';-inkscape-font-specification:'DIN 1451 Mittelschrift';fill:#000000;stroke-width:0.26458332"
         id="path8847"
         inkscape:connector-curvature="0" />
    </g>
  </g>
</svg>
