<?xml version="1.0" encoding="UTF-8" standalone="no"?>
<!-- Created with Inkscape (http://www.inkscape.org/) -->

<svg
   xmlns:dc="http://purl.org/dc/elements/1.1/"
   xmlns:cc="http://creativecommons.org/ns#"
   xmlns:rdf="http://www.w3.org/1999/02/22-rdf-syntax-ns#"
   xmlns:svg="http://www.w3.org/2000/svg"
   xmlns="http://www.w3.org/2000/svg"
   xmlns:sodipodi="http://sodipodi.sourceforge.net/DTD/sodipodi-0.dtd"
   xmlns:inkscape="http://www.inkscape.org/namespaces/inkscape"
   width="864.20001"
   height="755.22601"
   viewBox="0 0 228.65291 199.82022"
   version="1.1"
   id="svg4490"
   inkscape:version="0.92.2 (5c3e80d, 2017-08-06)"
   sodipodi:docname="11 SADC.svg">
  <defs
     id="defs4484" />
  <sodipodi:namedview
     id="base"
     pagecolor="#ffffff"
     bordercolor="#666666"
     borderopacity="1.0"
     inkscape:pageopacity="0.0"
     inkscape:pageshadow="2"
     inkscape:zoom="0.7"
     inkscape:cx="468.41306"
     inkscape:cy="254.43614"
     inkscape:document-units="px"
     inkscape:current-layer="layer1"
     showgrid="false"
     units="px"
     inkscape:window-width="1920"
     inkscape:window-height="1057"
     inkscape:window-x="-8"
     inkscape:window-y="-8"
     inkscape:window-maximized="1" />
  <metadata
     id="metadata4487">
    <rdf:RDF>
      <cc:Work
         rdf:about="">
        <dc:format>image/svg+xml</dc:format>
        <dc:type
           rdf:resource="http://purl.org/dc/dcmitype/StillImage" />
        <dc:title></dc:title>
      </cc:Work>
    </rdf:RDF>
  </metadata>
  <g
     inkscape:label="Layer 1"
     inkscape:groupmode="layer"
     id="layer1"
     transform="translate(0,-97.179783)">
    <path
       sodipodi:nodetypes="cccc"
       inkscape:connector-curvature="0"
       id="path4488"
       d="M 6.7199328,290.27958 114.32645,103.8995 221.93303,290.27956 Z"
       style="fill:#e20a16;fill-opacity:1;stroke:#e20a16;stroke-width:13.22916698;stroke-linejoin:round;stroke-miterlimit:4;stroke-dasharray:none;stroke-opacity:1" />
    <path
       style="fill:#ffffff;fill-opacity:1;stroke:none;stroke-width:13.22916603;stroke-linejoin:round;stroke-miterlimit:4;stroke-dasharray:none;stroke-opacity:1"
       d="M 114.32653,130.35788 29.633631,277.05029 199.01937,277.0504 Z"
       id="rect5050"
       inkscape:connector-curvature="0"
       sodipodi:nodetypes="cccc" />
    <path
       inkscape:connector-curvature="0"
       id="path4186"
       style="fill:#000000;fill-opacity:1;fill-rule:evenodd;stroke:none;stroke-width:0.38018811"
       d="m 129.26887,243.86038 2.32892,-6.40565 c 5.58516,1.4284 13.24907,3.91127 11.00641,11.25403 l 20.5992,7.48937 0.98511,-2.7095 0.0101,-0.36698 -0.16501,-0.55412 -0.39676,-0.26779 1.02644,-2.82315 0.16526,-0.79433 0.0713,-1.20423 -0.33289,-1.10928 -0.48466,-1.03063 -0.84581,-9.15536 -0.30446,-0.84673 -0.49157,-0.67284 -0.64481,-0.60502 -12.24628,-4.45246 -0.79869,-0.16684 -0.69985,0.23966 -0.63313,0.38231 -0.4906,0.68121 -3.04202,8.36698 -1.19251,-0.43357 5.57128,-15.32359 0.0994,-0.94178 -0.0115,-0.98733 -0.41224,-0.89107 -0.56234,-0.81695 -0.78596,-0.52789 -52.476051,-19.07898 -0.90656,-0.21101 -1.02684,0.12078 -0.84694,0.30457 -0.8565,0.6717 -0.53394,0.78897 -8.92088,24.53658"
       sodipodi:nodetypes="ccccccccccccccccccccccccccccccccccccc" />
    <path
       inkscape:connector-curvature="0"
       id="path4188"
       style="fill:#ffffff;fill-opacity:1;fill-rule:nonzero;stroke:none;stroke-width:0.38018811"
       d="m 148.28722,233.07927 0.26614,-0.39222 0.56366,-0.53109 0.55108,-0.17025 0.68958,0.12717 10.18809,3.70415 0.42183,0.52395 0.23971,0.69966 0.39452,4.32287 0.0178,0.61902 -0.41129,0.46297 -0.486,0.31743 -0.62012,0.0215 -12.47024,-4.53389 -0.42183,-0.52395 -0.23541,-0.69809 0.12731,-0.68976 1.18513,-3.25959" />
    <circle
       r="6.8053689"
       cy="185.02797"
       cx="-167.50719"
       id="circle4329"
       style="opacity:1;fill:#ffffff;fill-opacity:1;stroke:none;stroke-width:0.91245157;stroke-linejoin:miter;stroke-miterlimit:4;stroke-dasharray:none;stroke-dashoffset:0;stroke-opacity:1"
       transform="matrix(-0.93981195,-0.34169211,-0.34169211,0.93981195,0,0)" />
    <circle
       style="opacity:1;fill:#000000;fill-opacity:1;stroke:none;stroke-width:0.91245157;stroke-linejoin:miter;stroke-miterlimit:4;stroke-dasharray:none;stroke-dashoffset:0;stroke-opacity:1"
       id="circle4331"
       cx="-167.50719"
       cy="185.02797"
       r="4.714334"
       transform="matrix(-0.93981195,-0.34169211,-0.34169211,0.93981195,0,0)" />
    <circle
       transform="matrix(-0.93981195,-0.34169211,-0.34169211,0.93981195,0,0)"
       r="4.714334"
       cy="185.02797"
       cx="-212.17932"
       id="circle9547"
       style="opacity:1;fill:#000000;fill-opacity:1;stroke:none;stroke-width:0.91245157;stroke-linejoin:miter;stroke-miterlimit:4;stroke-dasharray:none;stroke-dashoffset:0;stroke-opacity:1" />
    <circle
       transform="matrix(-0.93981195,-0.34169211,-0.34169211,0.93981195,0,0)"
       style="opacity:1;fill:#ffffff;fill-opacity:1;stroke:none;stroke-width:0.91245157;stroke-linejoin:miter;stroke-miterlimit:4;stroke-dasharray:none;stroke-dashoffset:0;stroke-opacity:1"
       id="circle9568"
       cx="-229.09767"
       cy="185.02797"
       r="6.8053689" />
    <circle
       transform="matrix(-0.93981195,-0.34169211,-0.34169211,0.93981195,0,0)"
       r="4.714334"
       cy="185.02797"
       cx="-229.09767"
       id="circle9570"
       style="opacity:1;fill:#000000;fill-opacity:1;stroke:none;stroke-width:0.91245157;stroke-linejoin:miter;stroke-miterlimit:4;stroke-dasharray:none;stroke-dashoffset:0;stroke-opacity:1" />
    <path
       sodipodi:nodetypes="cccc"
       inkscape:connector-curvature="0"
       id="path9585"
       d="m 67.639299,226.48576 118.162451,42.96084 -142.950711,4e-5 z"
       style="color:#000000;clip-rule:nonzero;display:inline;overflow:visible;visibility:visible;opacity:1;isolation:auto;mix-blend-mode:normal;color-interpolation:sRGB;color-interpolation-filters:linearRGB;solid-color:#000000;solid-opacity:1;fill:#000000;fill-opacity:1;fill-rule:evenodd;stroke:none;stroke-width:0;stroke-linecap:butt;stroke-linejoin:miter;stroke-miterlimit:4;stroke-dasharray:none;stroke-dashoffset:0;stroke-opacity:1;marker:none;color-rendering:auto;image-rendering:auto;shape-rendering:auto;text-rendering:auto;enable-background:accumulate" />
  </g>
</svg>
