<?xml version="1.0" encoding="UTF-8" standalone="no"?>
<!-- Created with Inkscape (http://www.inkscape.org/) -->

<svg
   xmlns:dc="http://purl.org/dc/elements/1.1/"
   xmlns:cc="http://creativecommons.org/ns#"
   xmlns:rdf="http://www.w3.org/1999/02/22-rdf-syntax-ns#"
   xmlns:svg="http://www.w3.org/2000/svg"
   xmlns="http://www.w3.org/2000/svg"
   xmlns:sodipodi="http://sodipodi.sourceforge.net/DTD/sodipodi-0.dtd"
   xmlns:inkscape="http://www.inkscape.org/namespaces/inkscape"
   width="864.20001"
   height="755.22601"
   viewBox="0 0 228.65291 199.82022"
   version="1.1"
   id="svg4490"
   inkscape:version="0.92.2 (5c3e80d, 2017-08-06)"
   sodipodi:docname="11 SADC.svg">
  <defs
     id="defs4484" />
  <sodipodi:namedview
     id="base"
     pagecolor="#ffffff"
     bordercolor="#666666"
     borderopacity="1.0"
     inkscape:pageopacity="0.0"
     inkscape:pageshadow="2"
     inkscape:zoom="0.7"
     inkscape:cx="631.1232"
     inkscape:cy="207.7158"
     inkscape:document-units="px"
     inkscape:current-layer="layer1"
     showgrid="false"
     units="px"
     inkscape:window-width="1920"
     inkscape:window-height="1057"
     inkscape:window-x="-8"
     inkscape:window-y="-8"
     inkscape:window-maximized="1" />
  <metadata
     id="metadata4487">
    <rdf:RDF>
      <cc:Work
         rdf:about="">
        <dc:format>image/svg+xml</dc:format>
        <dc:type
           rdf:resource="http://purl.org/dc/dcmitype/StillImage" />
        <dc:title></dc:title>
      </cc:Work>
    </rdf:RDF>
  </metadata>
  <g
     inkscape:label="Layer 1"
     inkscape:groupmode="layer"
     id="layer1"
     transform="translate(0,-97.179783)">
    <path
       sodipodi:nodetypes="cccc"
       inkscape:connector-curvature="0"
       id="path4488"
       d="M 6.7199328,290.27958 114.32645,103.8995 221.93303,290.27956 Z"
       style="fill:#e20a16;fill-opacity:1;stroke:#e20a16;stroke-width:13.22916698;stroke-linejoin:round;stroke-miterlimit:4;stroke-dasharray:none;stroke-opacity:1" />
    <path
       style="fill:#ffffff;fill-opacity:1;stroke:none;stroke-width:13.22916603;stroke-linejoin:round;stroke-miterlimit:4;stroke-dasharray:none;stroke-opacity:1"
       d="M 114.32653,130.35788 29.633631,277.05029 199.01937,277.0504 Z"
       id="rect5050"
       inkscape:connector-curvature="0"
       sodipodi:nodetypes="cccc" />
    <path
       inkscape:connector-curvature="0"
       id="path4186"
       style="fill:#000000;fill-opacity:1;fill-rule:evenodd;stroke:none;stroke-width:0.38018811"
       d="m 120.56635,236.15895 -2.32895,-6.40563 c 5.19839,-2.49222 12.66734,-5.51129 15.66428,1.55724 l 20.59917,-7.48933 -0.98511,-2.70951 -0.22812,-0.28763 -0.4823,-0.31877 -0.47615,0.0496 -1.0264,-2.82315 -0.38345,-0.71499 -0.71879,-0.96885 -0.96761,-0.63644 -1.03339,-0.4787 -6.52836,-6.4743 -0.77718,-0.45347 -0.80897,-0.20001 -0.88276,-0.0496 -12.24628,4.45243 -0.71934,0.38507 -0.38256,0.6332 -0.23973,0.69966 0.0615,0.83722 3.042,8.36699 -1.19247,0.43356 -5.57127,-15.32359 -0.52866,-0.78575 -0.64316,-0.74921 -0.88827,-0.41823 -0.95571,-0.26503 -0.94147,0.10016 -52.476011,19.07896 -0.8304,0.42051 -0.70951,0.75207 -0.45353,0.77741 -0.22511,1.06493 0.0974,0.94766 8.92089,24.53658"
       sodipodi:nodetypes="ccccccccccccccccccccccccccccccccccccc" />
    <path
       inkscape:connector-curvature="0"
       id="path4188"
       style="fill:#ffffff;fill-opacity:1;fill-rule:nonzero;stroke:none;stroke-width:0.38018811"
       d="m 128.21958,215.68073 -0.048,-0.47155 0.091,-0.7691 0.31309,-0.48443 0.61024,-0.34538 10.18809,-3.70414 0.65982,0.13069 0.63309,0.38233 3.07879,3.06008 0.41125,0.46299 -0.0178,0.61901 -0.16866,0.55544 -0.46142,0.41483 -12.47026,4.53386 -0.65985,-0.13069 -0.62879,-0.38388 -0.34543,-0.61044 -1.1851,-3.25962" />
    <circle
       r="6.8053689"
       cy="263.15677"
       cx="4.6899705"
       id="circle4329"
       style="opacity:1;fill:#ffffff;fill-opacity:1;stroke:none;stroke-width:0.91245162;stroke-linejoin:miter;stroke-miterlimit:4;stroke-dasharray:none;stroke-dashoffset:0;stroke-opacity:1"
       transform="matrix(-0.93981195,0.34169211,0.34169211,0.93981195,0,0)" />
    <circle
       style="opacity:1;fill:#000000;fill-opacity:1;stroke:none;stroke-width:0.91245162;stroke-linejoin:miter;stroke-miterlimit:4;stroke-dasharray:none;stroke-dashoffset:0;stroke-opacity:1"
       id="circle4331"
       cx="4.6899705"
       cy="263.15677"
       r="4.714334"
       transform="matrix(-0.93981195,0.34169211,0.34169211,0.93981195,0,0)" />
    <circle
       transform="matrix(-0.93981195,0.34169211,0.34169211,0.93981195,0,0)"
       r="4.714334"
       cy="263.15677"
       cx="-39.981937"
       id="circle9547"
       style="opacity:1;fill:#000000;fill-opacity:1;stroke:none;stroke-width:0.91245162;stroke-linejoin:miter;stroke-miterlimit:4;stroke-dasharray:none;stroke-dashoffset:0;stroke-opacity:1" />
    <circle
       transform="matrix(-0.93981195,0.34169211,0.34169211,0.93981195,0,0)"
       style="opacity:1;fill:#ffffff;fill-opacity:1;stroke:none;stroke-width:0.91245162;stroke-linejoin:miter;stroke-miterlimit:4;stroke-dasharray:none;stroke-dashoffset:0;stroke-opacity:1"
       id="circle9568"
       cx="-56.900402"
       cy="263.15677"
       r="6.8053689" />
    <circle
       transform="matrix(-0.93981195,0.34169211,0.34169211,0.93981195,0,0)"
       r="4.714334"
       cy="263.15677"
       cx="-56.900402"
       id="circle9570"
       style="opacity:1;fill:#000000;fill-opacity:1;stroke:none;stroke-width:0.91245162;stroke-linejoin:miter;stroke-miterlimit:4;stroke-dasharray:none;stroke-dashoffset:0;stroke-opacity:1" />
    <path
       sodipodi:nodetypes="cccc"
       inkscape:connector-curvature="0"
       id="path9585"
       d="m 161.01343,226.48575 -118.162401,42.96085 142.950681,3e-5 z"
       style="color:#000000;clip-rule:nonzero;display:inline;overflow:visible;visibility:visible;opacity:1;isolation:auto;mix-blend-mode:normal;color-interpolation:sRGB;color-interpolation-filters:linearRGB;solid-color:#000000;solid-opacity:1;fill:#000000;fill-opacity:1;fill-rule:evenodd;stroke:none;stroke-width:0;stroke-linecap:butt;stroke-linejoin:miter;stroke-miterlimit:4;stroke-dasharray:none;stroke-dashoffset:0;stroke-opacity:1;marker:none;color-rendering:auto;image-rendering:auto;shape-rendering:auto;text-rendering:auto;enable-background:accumulate" />
  </g>
</svg>
