<?xml version="1.0" encoding="UTF-8" standalone="no"?>
<!-- Created with Inkscape (http://www.inkscape.org/) -->

<svg
   xmlns:dc="http://purl.org/dc/elements/1.1/"
   xmlns:cc="http://creativecommons.org/ns#"
   xmlns:rdf="http://www.w3.org/1999/02/22-rdf-syntax-ns#"
   xmlns:svg="http://www.w3.org/2000/svg"
   xmlns="http://www.w3.org/2000/svg"
   xmlns:sodipodi="http://sodipodi.sourceforge.net/DTD/sodipodi-0.dtd"
   xmlns:inkscape="http://www.inkscape.org/namespaces/inkscape"
   width="864.20001"
   height="755.22601"
   viewBox="0 0 228.65291 199.82022"
   version="1.1"
   id="svg4490"
   inkscape:version="0.92.2 (5c3e80d, 2017-08-06)"
   sodipodi:docname="11 SADC.svg">
  <defs
     id="defs4484" />
  <sodipodi:namedview
     id="base"
     pagecolor="#ffffff"
     bordercolor="#666666"
     borderopacity="1.0"
     inkscape:pageopacity="0.0"
     inkscape:pageshadow="2"
     inkscape:zoom="0.7"
     inkscape:cx="583.51363"
     inkscape:cy="340.42671"
     inkscape:document-units="px"
     inkscape:current-layer="layer1"
     showgrid="false"
     units="px"
     inkscape:window-width="1920"
     inkscape:window-height="1057"
     inkscape:window-x="-8"
     inkscape:window-y="-8"
     inkscape:window-maximized="1" />
  <metadata
     id="metadata4487">
    <rdf:RDF>
      <cc:Work
         rdf:about="">
        <dc:format>image/svg+xml</dc:format>
        <dc:type
           rdf:resource="http://purl.org/dc/dcmitype/StillImage" />
        <dc:title></dc:title>
      </cc:Work>
    </rdf:RDF>
  </metadata>
  <g
     inkscape:label="Layer 1"
     inkscape:groupmode="layer"
     id="layer1"
     transform="translate(0,-97.179783)">
    <path
       sodipodi:nodetypes="cccc"
       inkscape:connector-curvature="0"
       id="path4488"
       d="M 6.7199328,290.27958 114.32645,103.8995 221.93303,290.27956 Z"
       style="fill:#e20a16;fill-opacity:1;stroke:#e20a16;stroke-width:13.22916698;stroke-linejoin:round;stroke-miterlimit:4;stroke-dasharray:none;stroke-opacity:1" />
    <path
       style="fill:#ffffff;fill-opacity:1;stroke:none;stroke-width:13.22916603;stroke-linejoin:round;stroke-miterlimit:4;stroke-dasharray:none;stroke-opacity:1"
       d="M 114.32653,130.35788 29.633631,277.05029 199.01937,277.0504 Z"
       id="rect5050"
       inkscape:connector-curvature="0"
       sodipodi:nodetypes="cccc" />
    <path
       d="m 76.92313,211.49895 -33.602788,57.9477 H 185.61797 L 76.922929,211.49917 Z"
       style="fill:#000000;fill-opacity:1;fill-rule:evenodd;stroke:none;stroke-width:0.50691748"
       id="path6935"
       inkscape:connector-curvature="0"
       sodipodi:nodetypes="ccccc" />
    <path
       d="m 172.24542,255.04543 v -0.34267 l -0.34289,-0.34289 1.37152,-3.42907 -0.34288,-0.68578 -0.34285,-1.02864 0.34285,-8.22924 v -0.68579 l -0.34285,-0.68578 -1.02869,-0.68556 -7.5435,-4.11485 -0.34285,-0.34285 -1.71465,1.02863 -3.42865,6.51483 -1.71441,-0.68578 6.85771,-12.68654 -1.0289,-1.37175 -30.17371,-16.45831 -12.34392,-6.51483 h -1.02885 l -0.68579,0.68575 -5.82886,10.62926 -0.34285,0.68578 -1.37175,1.02864 1.37175,-3.08595 -3.08621,1.71442 1.02867,-2.05731 -2.05711,0.68575 -0.34286,-5.14327 H 107.44 v -0.68578 l -0.3429,-1.02864 -3.42887,-3.77154 -1.71461,-2.05731 -2.05713,-1.71465 -4.45752,-3.42888 -7.543459,-0.68555 -0.342895,-0.68575 h -0.68579 l -1.714648,1.71419 -1.028627,2.05732 -0.342895,2.74332 1.028627,-1.02887 1.714662,-0.34289 1.714418,0.34289 1.371565,1.02887 1.028642,1.37153 0.34288,1.71442 -0.34288,1.71423 -0.685747,1.02867 11.315007,11.65832 2.74329,-1.02886 1.71446,0.34289 1.71442,0.68597 1.02863,1.71442 0.3427,1.71423 -0.3427,0.68575 v 0.34289 l 0.3427,0.68578 3.42907,1.71442 1.71442,-2.05731 2.4002,-0.68578 2.39998,0.34289 1.71465,1.02867 1.37154,1.71442 0.34288,2.40044 -0.68578,2.39997 23.65892,12.34387 2.40042,-4.45728 4.80019,2.39997 2.05754,2.05731 0.68575,2.74333 -0.68575,2.39997 2.74306,1.37153 1.71446,-2.05731 2.39996,-0.68556 3.08619,0.68556 2.05731,2.05731 0.68577,1.71446 v 1.71465 l -0.68577,1.37153 3.77154,2.05708 0.68578,0.34289 0.68597,-0.68574 0.68579,-1.02845 v -0.68578 z"
       style="fill:#000000;fill-opacity:1;fill-rule:evenodd;stroke:none;stroke-width:0.50691748"
       id="path6937"
       inkscape:connector-curvature="0" />
    <path
       d="m 102.98248,225.55728 h 1.71442 l 1.71441,-0.34289 1.02869,-1.71446 0.34289,-0.68575 -0.68579,-2.05712 -2.05731,-1.37153 H 104.354 l -2.40038,1.02868 -0.68579,1.02863 v 1.37134 l 0.3429,1.37153 z"
       style="fill:#000000;fill-opacity:1;fill-rule:evenodd;stroke:none;stroke-width:0.50691748"
       id="path6939"
       inkscape:connector-curvature="0" />
    <path
       d="m 89.952823,205.32701 v -1.02845 l -1.028685,-1.71442 -2.057312,-1.0289 -2.400423,1.0289 -0.685747,1.02864 -0.342895,1.37153 1.028642,2.05712 1.714647,1.02864 h 1.028671 l 0.68579,-0.34286 1.028627,-0.34289 0.68579,-1.02867 z"
       style="fill:#000000;fill-opacity:1;fill-rule:evenodd;stroke:none;stroke-width:0.50691748"
       id="path6941"
       inkscape:connector-curvature="0" />
    <path
       d="m 158.18709,252.64523 0.34289,-1.37153 0.68578,-1.02868 2.74287,-1.02864 1.71465,0.3429 1.37152,1.37152 0.3429,1.02868 v 0.68575 l -0.3429,1.37175 -0.68577,1.02868 -2.4004,1.37153 -1.71446,-0.68575 -1.37129,-1.02868 -0.3429,-1.37152 z"
       style="fill:#000000;fill-opacity:1;fill-rule:evenodd;stroke:none;stroke-width:0.50691748"
       id="path6943"
       inkscape:connector-curvature="0" />
    <path
       d="m 114.98346,231.72921 -1.02864,-1.02844 -0.68578,-1.71442 0.3429,-1.37157 0.68577,-1.37176 2.40021,-1.02863 2.74287,1.02863 0.68596,1.02868 0.3429,1.37175 -0.3429,1.37153 -0.68596,1.37134 -2.74287,1.02864 -1.37157,-0.68575 z"
       style="fill:#000000;fill-opacity:1;fill-rule:evenodd;stroke:none;stroke-width:0.50691748"
       id="path6945"
       inkscape:connector-curvature="0" />
    <path
       d="m 148.58627,249.55928 -1.02864,-0.68579 -1.02867,-1.02844 -0.34289,-1.37153 0.34289,-1.37157 0.68579,-1.37176 2.74309,-1.02863 2.39998,1.02863 0.68579,1.37176 0.34288,1.37157 -0.34288,1.37153 -0.68579,1.02844 -2.39998,1.02868 -1.71446,-0.34289 z"
       style="fill:#000000;fill-opacity:1;fill-rule:evenodd;stroke:none;stroke-width:0.50691748"
       id="path6947"
       inkscape:connector-curvature="0" />
    <path
       d="m 96.12476,198.81218 h 0.685775 l 0.342852,0.34286 3.085773,2.74332 v 0.68578 l -0.34267,0.34286 -1.371537,2.40001 -0.342881,0.34285 h -0.68579 v -0.34285 l -5.486377,-5.1433 -0.342895,-1.02867 v -0.34286 l 0.342895,-0.34289 h 0.685776 z"
       style="fill:#ffffff;fill-opacity:1;fill-rule:evenodd;stroke:none;stroke-width:0.50691748"
       id="path6949"
       inkscape:connector-curvature="0" />
    <path
       d="m 100.58204,203.95525 -2.057087,2.74329 7.200627,6.85795 h 0.34285 v -4.11486 l -0.34285,-1.37156 -3.42911,-4.1144 -1.02864,-0.68578 -0.68579,0.68578 z"
       style="fill:#ffffff;fill-opacity:1;fill-rule:evenodd;stroke:none;stroke-width:0.50691748"
       id="path6951"
       inkscape:connector-curvature="0" />
    <path
       d="m 171.21674,241.67288 -0.34308,-1.02864 -0.68578,-0.68578 -6.17175,-3.08576 -0.68575,0.34289 -1.02885,1.02868 -1.02869,2.05708 v 0.68579 l 0.68579,1.37152 7.88636,4.11486 h 0.68579 l 0.68577,-0.68579 v -4.11485 z"
       style="fill:#ffffff;fill-opacity:1;fill-rule:evenodd;stroke:none;stroke-width:0.50691748"
       id="path6953"
       inkscape:connector-curvature="0" />
  </g>
</svg>
