<?xml version="1.0" encoding="UTF-8" standalone="no"?>
<!-- Created with Inkscape (http://www.inkscape.org/) -->

<svg
   xmlns:dc="http://purl.org/dc/elements/1.1/"
   xmlns:cc="http://creativecommons.org/ns#"
   xmlns:rdf="http://www.w3.org/1999/02/22-rdf-syntax-ns#"
   xmlns:svg="http://www.w3.org/2000/svg"
   xmlns="http://www.w3.org/2000/svg"
   xmlns:sodipodi="http://sodipodi.sourceforge.net/DTD/sodipodi-0.dtd"
   xmlns:inkscape="http://www.inkscape.org/namespaces/inkscape"
   width="864.20001"
   height="755.22601"
   viewBox="0 0 228.65291 199.82022"
   version="1.1"
   id="svg4490"
   inkscape:version="0.92.1 r15371"
   sodipodi:docname="55.svg">
  <defs
     id="defs4484" />
  <sodipodi:namedview
     id="base"
     pagecolor="#ffffff"
     bordercolor="#666666"
     borderopacity="1.0"
     inkscape:pageopacity="0.0"
     inkscape:pageshadow="2"
     inkscape:zoom="0.78962054"
     inkscape:cx="543.2899"
     inkscape:cy="346.55892"
     inkscape:document-units="px"
     inkscape:current-layer="layer1"
     showgrid="false"
     units="px"
     inkscape:window-width="1920"
     inkscape:window-height="1057"
     inkscape:window-x="-8"
     inkscape:window-y="-8"
     inkscape:window-maximized="1"
     fit-margin-top="0"
     fit-margin-left="0"
     fit-margin-right="0"
     fit-margin-bottom="0"
     inkscape:measure-start="0,0"
     inkscape:measure-end="0,0"
     inkscape:snap-global="false" />
  <metadata
     id="metadata4487">
    <rdf:RDF>
      <cc:Work
         rdf:about="">
        <dc:format>image/svg+xml</dc:format>
        <dc:type
           rdf:resource="http://purl.org/dc/dcmitype/StillImage" />
        <dc:title></dc:title>
      </cc:Work>
    </rdf:RDF>
  </metadata>
  <g
     inkscape:label="Layer 1"
     inkscape:groupmode="layer"
     id="layer1"
     transform="translate(-2.5135416,-40.2944)">
    <path
       sodipodi:nodetypes="cccc"
       inkscape:connector-curvature="0"
       id="path4488"
       d="M 9.2334744,233.39418 116.83999,47.014097 224.44657,233.39416 Z"
       style="fill:#e20a16;fill-opacity:1;stroke:#e20a16;stroke-width:13.22916698;stroke-linejoin:round;stroke-miterlimit:4;stroke-dasharray:none;stroke-opacity:1" />
    <path
       style="fill:#ffffff;fill-opacity:1;stroke:none;stroke-width:13.22916603;stroke-linejoin:round;stroke-miterlimit:4;stroke-dasharray:none;stroke-opacity:1"
       d="M 116.84007,73.472619 32.147174,220.16503 201.53291,220.165 Z"
       id="rect5050"
       inkscape:connector-curvature="0"
       sodipodi:nodetypes="cccc" />
    <path
       d="m 52.546249,212.22751 h 28.575 v -37.04166 h -13.70542 l -14.86958,25.4"
       style="fill:#000000;fill-opacity:1;fill-rule:nonzero;stroke:none;stroke-width:8.35906601"
       id="path6198"
       inkscape:connector-curvature="0"
       sodipodi:nodetypes="ccccc" />
    <path
       style="fill:#000000;fill-opacity:1;fill-rule:nonzero;stroke:none;stroke-width:8.3577013"
       d="m 146.72944,187.50757 c 1.24616,0.1002 2.34054,1.22034 2.22209,2.49907 l -0.67748,12.77907 c -0.035,0.27552 -0.095,0.57644 -0.24185,0.79375 -0.25111,0.40116 -0.88379,0.70883 -1.34565,0.71055 H 86.993359 c -0.46186,-0.002 -1.09454,-0.30939 -1.34566,-0.71055 -0.14686,-0.21731 -0.20685,-0.51823 -0.24184,-0.79375 l -0.67748,-12.77907 c -0.11845,-1.27873 0.97593,-2.39887 2.22209,-2.49907 l 0.54725,10.43244 h 58.684471 z"
       id="path6200"
       inkscape:connector-curvature="0"
       sodipodi:nodetypes="ccccccccccccc" />
    <path
       sodipodi:nodetypes="ccccc"
       inkscape:connector-curvature="0"
       id="path10258"
       style="fill:#000000;fill-opacity:1;fill-rule:nonzero;stroke:none;stroke-width:8.35906601"
       d="m 181.13373,212.22751 h -28.575 v -37.04166 h 13.70541 l 14.86959,25.4" />
    <path
       sodipodi:nodetypes="cccccsscc"
       inkscape:connector-curvature="0"
       id="path10281"
       d="m 87.111719,204.28998 v 6.18259 c 0.0169,0.13359 0.008,0.30922 0.0475,0.43458 0.0237,0.0919 0.30095,0.65146 0.36018,0.71832 0.25113,0.30922 0.9451,0.66058 1.35496,0.59375 h 4.63848 c 0.98554,0 1.781349,-0.7527 1.74614,-1.74665 v -6.39392 z"
       style="fill:#000000;fill-opacity:1;fill-rule:nonzero;stroke:none;stroke-width:8.3577013" />
    <path
       style="fill:#000000;fill-opacity:1;stroke:none;stroke-width:16.6864357;stroke-linejoin:round;stroke-miterlimit:4;stroke-dasharray:none;stroke-opacity:1"
       d="m 95.250009,201.64415 v 8.86361 c 0,0.95274 -0.76701,1.71975 -1.71975,1.71975 h -4.70967 c -0.95274,0 -1.71974,-0.76701 -1.71974,-1.71975 v -8.86361 z"
       id="rect10283"
       inkscape:connector-curvature="0"
       sodipodi:nodetypes="csssscc" />
    <path
       style="fill:#000000;fill-opacity:1;stroke:none;stroke-width:5.39434385;stroke-linejoin:round;stroke-miterlimit:4;stroke-dasharray:none;stroke-opacity:1"
       d="m 145.91769,143.70043 c 0,-2.78501 -2.24208,-5.02709 -5.02708,-5.02709 H 92.789369 c -2.785,0 -5.02708,2.24208 -5.02708,5.02709 v 28.83958 l 1.27,23.8125 h 55.615401 l 1.27,-23.8125 z"
       id="rect10328"
       inkscape:connector-curvature="0"
       sodipodi:nodetypes="csscccccc" />
    <rect
       style="fill:#ffffff;fill-opacity:1;stroke:none;stroke-width:5.56652451;stroke-linejoin:round;stroke-miterlimit:4;stroke-dasharray:none;stroke-opacity:1"
       id="rect10959"
       width="51.858334"
       height="22.225"
       x="90.910828"
       y="140.78998"
       rx="1.5875" />
    <circle
       style="fill:#000000;fill-opacity:1;stroke:none;stroke-width:5.37949705;stroke-linejoin:round;stroke-miterlimit:4;stroke-dasharray:none;stroke-opacity:1"
       id="path11030"
       cx="105.09249"
       cy="165.39624"
       r="7.9375" />
    <rect
       style="fill:#ffffff;fill-opacity:1;stroke:none;stroke-width:5.23277617;stroke-linejoin:round;stroke-miterlimit:4;stroke-dasharray:none;stroke-opacity:1"
       id="rect11050"
       width="51.858334"
       height="10.292292"
       x="90.910828"
       y="172.54001"
       rx="1.5875" />
    <rect
       style="fill:#ffffff;fill-opacity:1;stroke:none;stroke-width:6.09080505;stroke-linejoin:round;stroke-miterlimit:4;stroke-dasharray:none;stroke-opacity:1"
       id="rect11070"
       width="10.583333"
       height="4.6037498"
       x="90.275848"
       y="187.62125"
       rx="1.5345833" />
    <rect
       rx="1.5345833"
       y="187.62125"
       x="132.82085"
       height="4.6037498"
       width="10.583333"
       id="rect11092"
       style="fill:#ffffff;fill-opacity:1;stroke:none;stroke-width:6.09080505;stroke-linejoin:round;stroke-miterlimit:4;stroke-dasharray:none;stroke-opacity:1" />
    <path
       sodipodi:nodetypes="csssscc"
       inkscape:connector-curvature="0"
       id="path13111"
       d="m 138.4299,201.64415 v 8.86361 c 0,0.95274 0.76701,1.71975 1.71975,1.71975 h 4.70967 c 0.95274,0 1.71974,-0.76701 1.71974,-1.71975 v -8.86361 z"
       style="fill:#000000;fill-opacity:1;stroke:none;stroke-width:16.6864357;stroke-linejoin:round;stroke-miterlimit:4;stroke-dasharray:none;stroke-opacity:1" />
  </g>
</svg>
