<?xml version="1.0" encoding="UTF-8" standalone="no"?>
<!-- Created with Inkscape (http://www.inkscape.org/) -->

<svg
   xmlns:dc="http://purl.org/dc/elements/1.1/"
   xmlns:cc="http://creativecommons.org/ns#"
   xmlns:rdf="http://www.w3.org/1999/02/22-rdf-syntax-ns#"
   xmlns:svg="http://www.w3.org/2000/svg"
   xmlns="http://www.w3.org/2000/svg"
   xmlns:sodipodi="http://sodipodi.sourceforge.net/DTD/sodipodi-0.dtd"
   xmlns:inkscape="http://www.inkscape.org/namespaces/inkscape"
   width="864.20001"
   height="755.22601"
   viewBox="0 0 228.65291 199.82022"
   version="1.1"
   id="svg4490"
   inkscape:version="0.92.2 (5c3e80d, 2017-08-06)"
   sodipodi:docname="11 SADC.svg">
  <defs
     id="defs4484" />
  <sodipodi:namedview
     id="base"
     pagecolor="#ffffff"
     bordercolor="#666666"
     borderopacity="1.0"
     inkscape:pageopacity="0.0"
     inkscape:pageshadow="2"
     inkscape:zoom="0.7"
     inkscape:cx="583.76752"
     inkscape:cy="547.62144"
     inkscape:document-units="px"
     inkscape:current-layer="layer1"
     showgrid="false"
     units="px"
     inkscape:window-width="1920"
     inkscape:window-height="1057"
     inkscape:window-x="-8"
     inkscape:window-y="-8"
     inkscape:window-maximized="1" />
  <metadata
     id="metadata4487">
    <rdf:RDF>
      <cc:Work
         rdf:about="">
        <dc:format>image/svg+xml</dc:format>
        <dc:type
           rdf:resource="http://purl.org/dc/dcmitype/StillImage" />
        <dc:title></dc:title>
      </cc:Work>
    </rdf:RDF>
  </metadata>
  <g
     inkscape:label="Layer 1"
     inkscape:groupmode="layer"
     id="layer1"
     transform="translate(0,-97.179786)">
    <path
       sodipodi:nodetypes="cccc"
       inkscape:connector-curvature="0"
       id="path4488"
       d="M 6.7199328,290.27958 114.32645,103.8995 221.93303,290.27956 Z"
       style="fill:#e20a16;fill-opacity:1;stroke:#e20a16;stroke-width:13.22916698;stroke-linejoin:round;stroke-miterlimit:4;stroke-dasharray:none;stroke-opacity:1" />
    <path
       style="fill:#ffffff;fill-opacity:1;stroke:none;stroke-width:13.22916603;stroke-linejoin:round;stroke-miterlimit:4;stroke-dasharray:none;stroke-opacity:1"
       d="M 114.32653,130.35788 29.633631,277.05029 199.01937,277.0504 Z"
       id="rect5050"
       inkscape:connector-curvature="0"
       sodipodi:nodetypes="cccc" />
    <path
       d="m 111.96225,248.37102 c 1.75521,-0.0626 3.51921,-0.10662 5.28256,-0.10662 4.73091,0 9.39476,0.36986 14.09178,0.90266 5.74207,0.65195 13.13083,1.08699 13.13083,8.67573 0,1.35405 -0.60803,2.70804 -1.20356,3.88655 -1.81414,2.77511 -3.82009,5.46619 -6.07677,7.78185 2.03104,0.25701 4.12911,0.3949 6.17707,0.3949 0.97792,0 2.01412,-0.13163 2.99199,-0.19432 1.85551,-2.29055 3.56059,-5.03996 4.38803,-7.88213 0.73533,-1.74643 1.19543,-3.46842 1.19543,-5.38221 0,-12.64628 -19.0904,-13.16405 -27.6157,-13.16405 h -5.08129 c -3.36877,0 -6.82902,0.27582 -10.17208,0.60176 0.10029,-0.71084 0.55165,-1.41294 0.8607,-2.031 2.3739,-4.74784 6.76192,-8.50899 11.90218,-9.93824 -0.17554,-0.40122 -0.90268,-1.22866 -1.19543,-1.4957 -0.2821,-0.25073 -0.68514,-0.47641 -1.00298,-0.69392 -8.59171,1.61291 -13.80721,6.0429 -18.7387,12.9553 -0.0815,0.11912 -0.14417,0.27582 -0.2006,0.40121 -6.084901,0.38235 -12.228141,-0.25078 -18.145691,-1.69693 -1.08636,0.0626 -2.39838,-2.20654 -2.39838,-3.18446 0,-1.25371 0.62685,-2.51555 1.59599,-3.29289 3.95361,-2.69173 8.22438,-5.0738 12.46196,-7.28034 -0.91895,-0.62058 -2.50742,-1.18663 -3.58563,-1.3954 -4.67199,1.56276 -21.83102,8.83435 -21.83102,14.55946 0,1.94766 1.29508,3.97053 3.28476,4.38802 9.61978,3.78621 18.88915,4.63061 29.119491,3.78621 3.66087,3.05094 11.55931,5.76711 11.55931,10.07175 0,3.14246 -8.14104,8.33286 -10.56448,9.77088 l -0.30088,0.30088 -0.1003,0.40122 0.1003,0.3949 0.3949,0.30088 c 3.1431,-0.14417 6.36077,-0.20059 9.47812,-0.5955 2.44914,-2.39084 9.16908,-8.17427 9.16908,-12.16984 0,-3.36814 -0.76037,-3.57686 -3.51856,-5.28192 -1.88935,-1.17038 -3.73608,-2.38207 -5.44992,-3.78626"
       style="fill:#000000;fill-opacity:1;fill-rule:nonzero;stroke:none;stroke-width:0.50691754"
       id="path5807"
       inkscape:connector-curvature="0" />
    <path
       style="fill:#000000;fill-opacity:1;fill-rule:nonzero;stroke:none;stroke-width:0.38018811"
       d="m 88.563079,211.93323 c -0.0263,1.93075 1.43376,2.52506 2.06974,2.64269 l 0.38631,0.0681 -0.89127,5.05459 6.88919,1.21471 0.89127,-5.05453 24.711171,4.35726 -0.89124,5.05452 6.8892,1.21478 0.89124,-5.0546 0.38627,0.0681 c 0.6378,0.10705 2.2132,0.048 2.84879,-1.77536 z"
       id="path3869"
       inkscape:connector-curvature="0"
       sodipodi:nodetypes="ccccccccccccc" />
    <path
       style="fill:#000000;fill-opacity:1;fill-rule:nonzero;stroke:none;stroke-width:0.38018811"
       d="m 90.992629,198.15487 7.63958,-20.45161 c 1.544511,-4.43056 5.372051,-4.57336 6.921971,-4.31339 l 24.40579,4.30339 c 1.54544,0.28564 5.09323,1.72909 5.02925,6.42077 l 0.18404,21.83109 -1.65047,9.3603 -44.180631,-7.79024 z"
       id="path23319"
       inkscape:connector-curvature="0"
       sodipodi:nodetypes="ccccccccc" />
    <path
       style="fill:#ffffff;fill-opacity:1;fill-rule:nonzero;stroke:none;stroke-width:0.38018811"
       d="m 130.59679,196.86888 0.41881,-11.75286 c 0.20284,-3.06914 -0.53655,-3.14504 -2.78705,-3.5586 l -22.36894,-3.94434 c -2.25621,-0.38122 -2.97702,-0.56272 -3.83609,2.39081 l -3.626201,11.18738 z"
       id="path23353"
       inkscape:connector-curvature="0"
       sodipodi:nodetypes="ccccccc" />
  </g>
</svg>
