<?xml version="1.0" encoding="UTF-8" standalone="no"?>
<!-- Created with Inkscape (http://www.inkscape.org/) -->

<svg
   xmlns:dc="http://purl.org/dc/elements/1.1/"
   xmlns:cc="http://creativecommons.org/ns#"
   xmlns:rdf="http://www.w3.org/1999/02/22-rdf-syntax-ns#"
   xmlns:svg="http://www.w3.org/2000/svg"
   xmlns="http://www.w3.org/2000/svg"
   xmlns:sodipodi="http://sodipodi.sourceforge.net/DTD/sodipodi-0.dtd"
   xmlns:inkscape="http://www.inkscape.org/namespaces/inkscape"
   width="864.20001"
   height="755.22601"
   viewBox="0 0 228.65291 199.82022"
   version="1.1"
   id="svg4490"
   inkscape:version="0.92.1 r15371"
   sodipodi:docname="55.svg">
  <defs
     id="defs4484" />
  <sodipodi:namedview
     id="base"
     pagecolor="#ffffff"
     bordercolor="#666666"
     borderopacity="1.0"
     inkscape:pageopacity="0.0"
     inkscape:pageshadow="2"
     inkscape:zoom="0.7"
     inkscape:cx="310.54288"
     inkscape:cy="373.79095"
     inkscape:document-units="px"
     inkscape:current-layer="layer1"
     showgrid="false"
     units="px"
     inkscape:window-width="1920"
     inkscape:window-height="1057"
     inkscape:window-x="-8"
     inkscape:window-y="-8"
     inkscape:window-maximized="1"
     fit-margin-top="0"
     fit-margin-left="0"
     fit-margin-right="0"
     fit-margin-bottom="0" />
  <metadata
     id="metadata4487">
    <rdf:RDF>
      <cc:Work
         rdf:about="">
        <dc:format>image/svg+xml</dc:format>
        <dc:type
           rdf:resource="http://purl.org/dc/dcmitype/StillImage" />
        <dc:title></dc:title>
      </cc:Work>
    </rdf:RDF>
  </metadata>
  <g
     inkscape:label="Layer 1"
     inkscape:groupmode="layer"
     id="layer1"
     transform="translate(-98.565385,-68.631252)">
    <path
       sodipodi:nodetypes="cccc"
       inkscape:connector-curvature="0"
       id="path4488"
       d="M 105.28532,261.73104 212.89185,75.350955 320.49843,261.73102 Z"
       style="fill:#e20a16;fill-opacity:1;stroke:#e20a16;stroke-width:13.22916698;stroke-linejoin:round;stroke-miterlimit:4;stroke-dasharray:none;stroke-opacity:1" />
    <path
       style="fill:#ffffff;fill-opacity:1;stroke:none;stroke-width:13.22916603;stroke-linejoin:round;stroke-miterlimit:4;stroke-dasharray:none;stroke-opacity:1"
       d="m 212.89186,101.80948 84.69291,146.6924 -169.38575,-2e-5 z"
       id="rect5050"
       inkscape:connector-curvature="0"
       sodipodi:nodetypes="cccc" />
    <path
       d="m 216.37493,165.6377 -1.20389,-1.19561 -2.68364,-0.4012 -1.89827,1.98972 0.60194,1.59684 2.39097,1.10364 3.18536,-0.40122 -0.39343,-2.79237 v 0.0996"
       style="fill:#000000;fill-opacity:1;fill-rule:evenodd;stroke:none;stroke-width:8.36039162"
       id="path5788"
       inkscape:connector-curvature="0" />
    <path
       d="m 211.78498,186.27948 -1.88881,-0.0996 -1.39584,-1.49659 c -2.22295,-0.42633 -5.1917,1.20389 -6.67998,2.79238 l -0.70148,2.89269 c 0.91003,1.04487 2.9678,2.95114 4.38924,3.2939 l 3.58657,-0.50171 1.69682,-1.39607 -0.4005,-1.59683 c 0.51901,-1.25414 1.05224,-2.56665 1.39586,-3.88759"
       style="fill:#000000;fill-opacity:1;fill-rule:nonzero;stroke:none;stroke-width:8.36039162"
       id="path5790"
       inkscape:connector-curvature="0" />
    <path
       d="m 207.39571,206.42814 c 1.60441,-0.60194 2.96805,-1.68025 4.58998,-2.29879 l 0.1896,-2.49142 -1.79873,-0.39341 -0.89346,0.59483 -0.18959,-0.99534 -0.79388,-0.7015 -1.39588,1.10436 0.69436,0.89584 -0.69436,0.5024 c -0.0474,0.89345 -0.18959,1.93858 -0.5024,2.7922 l 0.7939,0.99534"
       style="fill:#000000;fill-opacity:1;fill-rule:nonzero;stroke:none;stroke-width:8.36039162"
       id="path5792"
       inkscape:connector-curvature="0" />
    <path
       d="m 201.41817,203.33474 -3.48631,-1.69681 c -2.07364,-0.0948 -4.94924,0.34361 -6.78021,1.39584 l -0.79389,-0.18959 c -2.89268,1.24656 -2.7422,4.79047 -3.32733,7.34874 l -0.66118,2.92632 c 0,0.94558 0.46924,1.99071 1.19441,2.6 1.621,0.45977 4.41412,0.59484 5.58462,1.78924 l 5.87727,-0.89343 3.88779,-4.79069 c -0.18959,-1.24658 -0.59247,-7.47413 -1.4954,-8.47728"
       style="fill:#000000;fill-opacity:1;fill-rule:nonzero;stroke:none;stroke-width:8.36039162"
       id="path5794"
       inkscape:connector-curvature="0" />
    <path
       d="m 196.73624,193.96269 -2.49119,-0.70219 -2.89289,1.69708 c 0.45263,0.47659 0.98584,1.1956 1.49773,1.59681 0.4266,0.33439 1.19445,0.63537 1.68972,0.89463 0.1422,-0.12558 1.57124,-1.5551 1.59731,-1.59681 0.0237,-0.0261 0.55218,-1.73903 0.60195,-1.88952"
       style="fill:#000000;fill-opacity:1;fill-rule:nonzero;stroke:none;stroke-width:8.36039162"
       id="path5796"
       inkscape:connector-curvature="0" />
    <path
       d="m 170.01664,215.10616 -4.38096,2.69194 c -0.32703,-0.0948 -3.1434,-0.99537 -3.29389,-0.99537 -0.81049,0 -1.87219,0.27491 -2.69215,0.3934 l -0.99538,1.4954 -4.48117,1.39585 0.39339,1.69686 -2.59169,1.09486 -0.99536,3.49463 c 0.8105,1.01193 0.69438,2.29167 0.69438,3.48631 0,1.56412 -0.4005,3.0851 -0.29149,4.69022 0.71806,1.42193 2.04046,3.0934 3.38607,3.98803 l 1.1968,-0.29151 3.88751,3.08488 c 3.57829,-2.13289 7.42389,-0.83658 11.56239,-3.28558 l 0.1896,-2.29879 c 1.17071,-0.40052 4.32219,-4.20534 4.68169,-5.28388 0.0711,-0.18959 0.2678,-3.00144 0.30098,-3.39436 -4.90756,-3.82901 -3.72023,-8.75314 -6.57949,-11.9636"
       style="fill:#000000;fill-opacity:1;fill-rule:nonzero;stroke:none;stroke-width:8.36039162"
       id="path5798"
       inkscape:connector-curvature="0" />
    <path
       d="m 190.75019,223.78416 c -0.96216,-0.6849 -2.8256,-1.05458 -3.98777,-0.90293 -0.33417,0.7015 -2.02388,1.66368 -2.78413,1.39587 l -1.10437,1.89826 c -0.1185,2.03097 0.79389,2.98462 2.69193,3.48632 l -0.0948,0.60194 c 0.38393,0.32705 0.83656,0.301 1.29634,0.301 0.14217,0 4.1802,-1.4883 4.48947,-1.59729 l 0.60195,-0.99537 -0.0948,-1.2039 -1.00245,-1.08778 v -1.89825"
       style="fill:#000000;fill-opacity:1;fill-rule:nonzero;stroke:none;stroke-width:8.36039162"
       id="path5800"
       inkscape:connector-curvature="0" />
    <path
       d="m 226.21644,148.90103 c -0.24173,1.53829 -0.79391,3.56989 -0.79391,5.09145 0,1.41294 0.55929,3.36089 0.79391,4.78215 -1.81532,3.22712 -2.9012,7.48255 -3.5868,11.07754 0.7939,2.90942 2.09023,7.05615 2.09023,10.07428 0,10.20803 -6.93924,17.69058 -7.07289,27.82344 -2.53316,2.79222 -5.90242,4.58145 -8.47752,7.18145 -2.42437,2.44973 -3.5112,5.99437 -5.48437,8.67825 -4.77387,6.49582 -9.26337,7.56606 -10.16629,16.95478 h 90.81064 l -54.99259,-95.25"
       style="fill:#000000;fill-opacity:1;fill-rule:nonzero;stroke:none;stroke-width:8.36039162"
       id="path5802"
       inkscape:connector-curvature="0"
       sodipodi:nodetypes="ccsccsccccc" />
  </g>
</svg>
