<?xml version="1.0" encoding="UTF-8" standalone="no"?>
<!-- Created with Inkscape (http://www.inkscape.org/) -->

<svg
   xmlns:dc="http://purl.org/dc/elements/1.1/"
   xmlns:cc="http://creativecommons.org/ns#"
   xmlns:rdf="http://www.w3.org/1999/02/22-rdf-syntax-ns#"
   xmlns:svg="http://www.w3.org/2000/svg"
   xmlns="http://www.w3.org/2000/svg"
   xmlns:sodipodi="http://sodipodi.sourceforge.net/DTD/sodipodi-0.dtd"
   xmlns:inkscape="http://www.inkscape.org/namespaces/inkscape"
   width="864.20001"
   height="755.22601"
   viewBox="0 0 228.65291 199.82022"
   version="1.1"
   id="svg4490"
   inkscape:version="0.92.1 r15371"
   sodipodi:docname="55.svg">
  <defs
     id="defs4484" />
  <sodipodi:namedview
     id="base"
     pagecolor="#ffffff"
     bordercolor="#666666"
     borderopacity="1.0"
     inkscape:pageopacity="0.0"
     inkscape:pageshadow="2"
     inkscape:zoom="0.7"
     inkscape:cx="507.3902"
     inkscape:cy="380.54084"
     inkscape:document-units="px"
     inkscape:current-layer="layer1"
     showgrid="false"
     units="px"
     inkscape:window-width="1920"
     inkscape:window-height="1057"
     inkscape:window-x="-8"
     inkscape:window-y="-8"
     inkscape:window-maximized="1"
     fit-margin-top="0"
     fit-margin-left="0"
     fit-margin-right="0"
     fit-margin-bottom="0" />
  <metadata
     id="metadata4487">
    <rdf:RDF>
      <cc:Work
         rdf:about="">
        <dc:format>image/svg+xml</dc:format>
        <dc:type
           rdf:resource="http://purl.org/dc/dcmitype/StillImage" />
        <dc:title></dc:title>
      </cc:Work>
    </rdf:RDF>
  </metadata>
  <g
     inkscape:label="Layer 1"
     inkscape:groupmode="layer"
     id="layer1"
     transform="translate(29.725394,191.22535)">
    <path
       sodipodi:nodetypes="cccc"
       inkscape:connector-curvature="0"
       id="path4488"
       d="M -23.005461,1.8744368 84.601052,-184.50564 192.20763,1.8744168 Z"
       style="fill:#e20a16;fill-opacity:1;stroke:#e20a16;stroke-width:13.22916698;stroke-linejoin:round;stroke-miterlimit:4;stroke-dasharray:none;stroke-opacity:1" />
    <path
       style="fill:#ffffff;fill-opacity:1;stroke:none;stroke-width:13.22916603;stroke-linejoin:round;stroke-miterlimit:4;stroke-dasharray:none;stroke-opacity:1"
       d="M 84.601132,-158.04712 -0.09176162,-11.354716 169.29397,-11.354743 Z"
       id="rect5050"
       inkscape:connector-curvature="0"
       sodipodi:nodetypes="cccc" />
    <path
       style="fill:#000000;fill-opacity:1;fill-rule:nonzero;stroke:none;stroke-width:1.13809025;stroke-linecap:butt;stroke-linejoin:miter;stroke-miterlimit:3.86400008;stroke-dasharray:none;stroke-opacity:1"
       d="m 72.694811,-27.22973 v 4.9413 c 2.48551,1.86613 4.73254,2.9962 7.9375,2.9962 3.20497,0 5.45199,-1.13007 7.9375,-2.9962 2.48551,1.86613 4.732538,2.9962 7.937498,2.9962 3.20497,0 5.451991,-1.13007 7.937501,-2.9962 2.48551,1.86613 4.73254,2.9962 7.9375,2.9962 3.20497,0 5.45199,-1.13007 7.9375,-2.9962 2.48551,1.86613 4.73254,2.9962 7.9375,2.9962 3.20497,0 5.45199,-1.13007 7.9375,-2.9962 2.48552,1.86613 4.73254,2.9962 7.93751,2.9962 3.20495,0 5.45199,-1.13007 7.9375,-2.9962 v -4.9413 c -2.29385,1.71549 -4.96666,3.08819 -7.9375,3.08819 -2.97084,0 -5.64366,-1.3727 -7.93751,-3.08819 -2.29385,1.71549 -4.96666,3.08819 -7.9375,3.08819 -2.97083,0 -5.64365,-1.3727 -7.9375,-3.08819 -2.29384,1.71549 -4.96666,3.08819 -7.9375,3.08819 -2.97083,0 -5.64365,-1.3727 -7.9375,-3.08819 -2.29384,1.71549 -4.966661,3.08819 -7.937501,3.08819 -2.97083,0 -5.643648,-1.3727 -7.937498,-3.08819 -2.29384,1.71549 -4.96666,3.08819 -7.9375,3.08819 -2.97083,0 -5.64365,-1.3727 -7.9375,-3.08819 z"
       id="path5756"
       inkscape:connector-curvature="0" />
    <path
       inkscape:connector-curvature="0"
       id="path8783"
       d="m 72.694811,-35.16723 v 4.9413 c 2.48551,1.86613 4.73254,2.9962 7.9375,2.9962 3.20497,0 5.45199,-1.13007 7.9375,-2.9962 2.48551,1.86613 4.732538,2.9962 7.937498,2.9962 3.20497,0 5.451991,-1.13007 7.937501,-2.9962 2.48551,1.86613 4.73254,2.9962 7.9375,2.9962 3.20497,0 5.45199,-1.13007 7.9375,-2.9962 2.48551,1.86613 4.73254,2.9962 7.9375,2.9962 3.20497,0 5.45199,-1.13007 7.9375,-2.9962 2.48552,1.86613 4.73254,2.9962 7.93751,2.9962 3.20495,0 5.45199,-1.13007 7.9375,-2.9962 v -4.9413 c -2.29385,1.71549 -4.96666,3.08819 -7.9375,3.08819 -2.97084,0 -5.64366,-1.3727 -7.93751,-3.08819 -2.29385,1.71549 -4.96666,3.08819 -7.9375,3.08819 -2.97083,0 -5.64365,-1.3727 -7.9375,-3.08819 -2.29384,1.71549 -4.96666,3.08819 -7.9375,3.08819 -2.97083,0 -5.64365,-1.3727 -7.9375,-3.08819 -2.29384,1.71549 -4.966661,3.08819 -7.937501,3.08819 -2.97083,0 -5.643648,-1.3727 -7.937498,-3.08819 -2.29384,1.71549 -4.96666,3.08819 -7.9375,3.08819 -2.97083,0 -5.64365,-1.3727 -7.9375,-3.08819 z"
       style="fill:#000000;fill-opacity:1;fill-rule:nonzero;stroke:none;stroke-width:1.13809025;stroke-linecap:butt;stroke-linejoin:miter;stroke-miterlimit:3.86400008;stroke-dasharray:none;stroke-opacity:1" />
    <path
       inkscape:connector-curvature="0"
       id="path13379-7"
       style="fill:#000000;fill-opacity:1;fill-rule:evenodd;stroke:none;stroke-width:0.13685341"
       d="m 106.26021,-85.52668 5.43053,10.54898 18.45766,10.95737 c 0.2347,0.15166 0.43856,0.32064 0.60006,0.51342 0.23501,0.25632 0.37831,0.49981 0.50753,0.74134 0.14688,0.32844 0.15468,0.60069 0.18548,0.88223 0.003,0.13868 -0.01,0.27067 -0.0305,0.39955 -0.62525,4.28615 -1.80872,6.08301 -5.20042,8.54009 l 0.46247,0.87465 -13.93154,-5.62871 -0.55368,1.3704 -61.540815,-24.86411 c -2.12677,-4.78266 -1.30931,-10.9795 1.70673,-15.2029 l 0.62943,0.11882 14.11794,-5.6146 c 0.48774,-0.17118 1.11299,-0.39998 1.36736,-0.44337 0.30521,-0.0453 0.81004,-0.10245 1.34769,0.0556 0,0 1.945106,0.51018 2.372716,0.63505 3.16853,0.8908 3.16624,1.01591 4.3395,1.40534 l 6.87505,2.64218 6.8284,2.75885 6.813958,3.05442 c 2.02167,0.94322 3.652991,1.64488 6.537321,3.55355 0.90794,0.5537 0.63379,0.39847 0.88383,0.58562 0.36619,0.25353 0.67807,0.57798 1.03397,0.99652 0.34158,0.47299 0.64989,0.90828 0.76125,1.12048"
       sodipodi:nodetypes="cccccccccccccccccccccccccc" />
    <circle
       style="opacity:1;fill:#ffffff;fill-opacity:1;stroke:none;stroke-width:0.32842666;stroke-linejoin:miter;stroke-miterlimit:4;stroke-dasharray:none;stroke-dashoffset:0;stroke-opacity:1"
       id="circle5557"
       cx="-60.410145"
       cy="-79.238785"
       r="9.7022705"
       transform="scale(-1,1)" />
    <path
       inkscape:connector-curvature="0"
       id="path13381-3-9"
       style="fill:#ffffff;fill-opacity:1;fill-rule:nonzero;stroke:none;stroke-width:0.13685341"
       d="m 88.627701,-93.38863 c -0.26224,-0.0699 -0.5646,-0.18821 -0.74684,-0.16186 -0.17856,0.005 -0.61692,0.12873 -0.62237,0.15326 -0.14637,0.038 -0.43018,0.26778 -0.581,0.47396 -0.1417,0.21516 -0.23025,0.45826 -0.28955,0.71668 l -1.15283,6.21479 c -0.0455,0.26698 -0.0528,0.50013 -0.0104,0.68947 0.0313,0.34501 0.22549,0.63431 0.22549,0.63431 0.17422,0.19847 0.3973,0.27739 0.58386,0.38643 l 17.588259,7.10612 c 0.18705,0.06 0.33166,0.16042 0.63002,0.11463 0.21697,-0.0507 0.7785,-0.2393 0.7785,-0.2393 0,0 0.28668,-0.0717 0.58871,-0.45582 0.12,-0.195 0.17644,-0.39888 0.24296,-0.60135 0.0321,-0.13382 0.0746,-0.27858 0.003,-0.77729 l -0.12477,-0.42797 c -0.53614,-1.11625 -2.79983,-6.54981 -3.90129,-7.34835 -0.71232,-0.51644 -1.3563,-0.94713 -2.361091,-1.53605 -2.67835,-1.56982 -9.395958,-4.30927 -10.848678,-4.94103"
       sodipodi:nodetypes="ccccccccccccccccssc" />
    <path
       inkscape:connector-curvature="0"
       id="path13383-8-6"
       style="fill:#ffffff;fill-opacity:1;fill-rule:nonzero;stroke:none;stroke-width:0.13685341"
       d="m 74.534311,-98.9851 c -0.2715,-0.0619 -0.56405,-0.1731 -0.81457,-0.18562 -0.79859,-0.005 -0.94949,0.0168 -1.36192,0.17388 l -5.566116,2.55927 c -0.19479,0.0712 -0.72579,0.39046 -0.94671,0.6181 -1.34727,1.45168 -1.15338,2.89022 0.69066,3.66001 l 14.670606,5.92731 c 0.24271,0.0632 0.74498,0.16665 0.74498,0.16665 0,0 0.29668,0.0329 0.61206,-0.18014 0.17099,-0.11452 0.32062,-0.19589 0.59393,-0.46931 0.11224,-0.16087 0.22579,-0.31411 0.29358,-0.72663 l 1.32656,-5.95407 c 0.0225,-0.27204 0.1229,-0.49651 0.0593,-0.8213 -0.0807,-0.21767 -0.0754,-0.38024 -0.26895,-0.67018 -0.0695,-0.14633 -0.3566,-0.27537 -0.64872,-0.40395 l -6.98647,-2.82272"
       sodipodi:nodetypes="cccccccccccccccc" />
    <circle
       r="6.5008125"
       cy="-79.238785"
       cx="-60.410145"
       id="circle10200"
       style="opacity:1;fill:#000000;fill-opacity:1;stroke:none;stroke-width:0.22005573;stroke-linejoin:miter;stroke-miterlimit:4;stroke-dasharray:none;stroke-dashoffset:0;stroke-opacity:1"
       transform="scale(-1,1)" />
    <circle
       r="9.7022705"
       cy="-57.758671"
       cx="-113.57536"
       id="circle10212"
       style="opacity:1;fill:#ffffff;fill-opacity:1;stroke:none;stroke-width:0.32842666;stroke-linejoin:miter;stroke-miterlimit:4;stroke-dasharray:none;stroke-dashoffset:0;stroke-opacity:1"
       transform="scale(-1,1)" />
    <circle
       style="opacity:1;fill:#000000;fill-opacity:1;stroke:none;stroke-width:0.22005573;stroke-linejoin:miter;stroke-miterlimit:4;stroke-dasharray:none;stroke-dashoffset:0;stroke-opacity:1"
       id="circle10214"
       cx="-113.57536"
       cy="-57.758671"
       r="6.5008125"
       transform="scale(-1,1)" />
    <path
       sodipodi:nodetypes="ccccc"
       inkscape:connector-curvature="0"
       id="path10243"
       style="fill:#000000;fill-opacity:1;fill-rule:nonzero;stroke:none;stroke-width:1.14306712;stroke-linecap:butt;stroke-linejoin:miter;stroke-miterlimit:3.86400008;stroke-dasharray:none;stroke-opacity:1"
       d="M 39.886481,-72.73806 9.1948148,-19.29223 H 68.726065 v -53.44583 z" />
  </g>
</svg>
