<?xml version="1.0" encoding="UTF-8" standalone="no"?>
<!-- Created with Inkscape (http://www.inkscape.org/) -->

<svg
   xmlns:dc="http://purl.org/dc/elements/1.1/"
   xmlns:cc="http://creativecommons.org/ns#"
   xmlns:rdf="http://www.w3.org/1999/02/22-rdf-syntax-ns#"
   xmlns:svg="http://www.w3.org/2000/svg"
   xmlns="http://www.w3.org/2000/svg"
   xmlns:sodipodi="http://sodipodi.sourceforge.net/DTD/sodipodi-0.dtd"
   xmlns:inkscape="http://www.inkscape.org/namespaces/inkscape"
   width="864.20001"
   height="755.22601"
   viewBox="0 0 228.65291 199.82022"
   version="1.1"
   id="svg4490"
   inkscape:version="0.92.0 r15299"
   sodipodi:docname="SADC_road_sign_W349.svg">
  <defs
     id="defs4484" />
  <sodipodi:namedview
     id="base"
     pagecolor="#ffffff"
     bordercolor="#666666"
     borderopacity="1.0"
     inkscape:pageopacity="0.0"
     inkscape:pageshadow="2"
     inkscape:zoom="0.49497475"
     inkscape:cx="555.85388"
     inkscape:cy="234.30262"
     inkscape:document-units="px"
     inkscape:current-layer="layer1"
     showgrid="false"
     units="px"
     inkscape:window-width="1366"
     inkscape:window-height="706"
     inkscape:window-x="-8"
     inkscape:window-y="-8"
     inkscape:window-maximized="1" />
  <metadata
     id="metadata4487">
    <rdf:RDF>
      <cc:Work
         rdf:about="">
        <dc:format>image/svg+xml</dc:format>
        <dc:type
           rdf:resource="http://purl.org/dc/dcmitype/StillImage" />
        <dc:title />
      </cc:Work>
    </rdf:RDF>
  </metadata>
  <g
     inkscape:label="Layer 1"
     inkscape:groupmode="layer"
     id="layer1"
     transform="translate(0,-97.179788)">
    <path
       sodipodi:nodetypes="cccc"
       inkscape:connector-curvature="0"
       id="path4488"
       d="M 6.7199328,290.27957 114.32645,103.89949 221.93303,290.27955 Z"
       style="fill:#e20a16;fill-opacity:1;stroke:#e20a16;stroke-width:13.22916698;stroke-linejoin:round;stroke-miterlimit:4;stroke-dasharray:none;stroke-opacity:1" />
    <path
       style="fill:#ffffff;fill-opacity:1;stroke:none;stroke-width:13.22916603;stroke-linejoin:round;stroke-miterlimit:4;stroke-dasharray:none;stroke-opacity:1"
       d="m 114.32653,130.35801 -84.692897,146.6924 169.385737,-2e-5 z"
       id="rect5050"
       inkscape:connector-curvature="0"
       sodipodi:nodetypes="cccc" />
    <path
       d="m 96.036679,214.06544 c -1.721048,-3.09476 -2.071871,-5.89189 -1.897928,-8.9301 0.116087,-2.02766 0.927017,-4.01517 1.938568,-5.77632 1.140071,-1.98491 2.648078,-3.8207 4.522491,-5.16755 10.1758,-8.37413 19.56083,2.49672 24.83133,8.48955 -13.58526,-3.59244 -25.59754,5.32414 -17.6916,21.24167 0,0 -4.75246,-2.97241 -6.87246,-4.78968"
       style="fill:#000000;fill-opacity:1;fill-rule:evenodd;stroke:none;stroke-width:8.43257809"
       id="path5730"
       inkscape:connector-curvature="0"
       sodipodi:nodetypes="caacccc" />
    <path
       d="m 112.32014,220.59226 c 0,-7.45441 5.80158,-13.5343 13.3235,-13.5343 7.66173,-0.51289 12.21532,5.94347 16.81363,10.46483 -13.70867,-5.34717 -25.70433,6.81809 -16.81435,19.10823 -6.1442,-3.73263 -13.6307,-6.1936 -13.32278,-16.03876 z"
       style="fill:#000000;fill-opacity:1;fill-rule:nonzero;stroke:none;stroke-width:8.43257809"
       id="path5732"
       inkscape:connector-curvature="0"
       sodipodi:nodetypes="ccccc" />
    <path
       d="m 161.45663,242.04474 c -1.17964,-9.32705 -10.94793,-20.39803 -18.32385,-20.61765 -7.4208,0 -12.69962,6.11362 -12.69962,13.32347 1.2646,16.14232 32.97639,25.2363 31.02347,7.29418 z"
       style="fill:#000000;fill-opacity:1;fill-rule:nonzero;stroke:none;stroke-width:8.43257809"
       id="path5734"
       inkscape:connector-curvature="0"
       sodipodi:nodetypes="cccc" />
    <path
       d="m 153.33618,231.6305 c -6.76112,-0.22597 -13.05595,5.28489 -11.67418,12.28626 5.55931,-0.69789 12.35152,-5.89054 11.66151,-12.28626"
       style="fill:#ffffff;fill-opacity:1;fill-rule:nonzero;stroke:none;stroke-width:8.43257809"
       id="path5736"
       inkscape:connector-curvature="0"
       sodipodi:nodetypes="ccc" />
    <path
       inkscape:connector-curvature="0"
       id="path8748"
       style="fill:#000000;fill-opacity:1;fill-rule:evenodd;stroke:none;stroke-width:8.43257809"
       d="m 96.070209,179.15457 h 4.762501 v 89.95833 h -4.762501"
       sodipodi:nodetypes="cccc" />
  </g>
</svg>
