<?xml version="1.0" encoding="UTF-8" standalone="no"?>
<!-- Created with Inkscape (http://www.inkscape.org/) -->

<svg
   xmlns:dc="http://purl.org/dc/elements/1.1/"
   xmlns:cc="http://creativecommons.org/ns#"
   xmlns:rdf="http://www.w3.org/1999/02/22-rdf-syntax-ns#"
   xmlns:svg="http://www.w3.org/2000/svg"
   xmlns="http://www.w3.org/2000/svg"
   xmlns:sodipodi="http://sodipodi.sourceforge.net/DTD/sodipodi-0.dtd"
   xmlns:inkscape="http://www.inkscape.org/namespaces/inkscape"
   width="864.20001"
   height="755.22601"
   viewBox="0 0 228.65291 199.82022"
   version="1.1"
   id="svg4490"
   inkscape:version="0.92.1 r15371"
   sodipodi:docname="55.svg">
  <defs
     id="defs4484" />
  <sodipodi:namedview
     id="base"
     pagecolor="#ffffff"
     bordercolor="#666666"
     borderopacity="1.0"
     inkscape:pageopacity="0.0"
     inkscape:pageshadow="2"
     inkscape:zoom="1"
     inkscape:cx="275.34857"
     inkscape:cy="415.57843"
     inkscape:document-units="px"
     inkscape:current-layer="layer1"
     showgrid="false"
     units="px"
     inkscape:window-width="1920"
     inkscape:window-height="1057"
     inkscape:window-x="-8"
     inkscape:window-y="-8"
     inkscape:window-maximized="1"
     inkscape:measure-start="0,0"
     inkscape:measure-end="0,0" />
  <metadata
     id="metadata4487">
    <rdf:RDF>
      <cc:Work
         rdf:about="">
        <dc:format>image/svg+xml</dc:format>
        <dc:type
           rdf:resource="http://purl.org/dc/dcmitype/StillImage" />
        <dc:title></dc:title>
      </cc:Work>
    </rdf:RDF>
  </metadata>
  <g
     inkscape:label="Layer 1"
     inkscape:groupmode="layer"
     id="layer1"
     transform="translate(0,-97.179788)">
    <path
       sodipodi:nodetypes="cccc"
       inkscape:connector-curvature="0"
       id="path4488"
       d="M 6.7199328,290.27958 114.32644,103.8995 221.93302,290.27956 Z"
       style="fill:#e20a16;fill-opacity:1;stroke:#e20a16;stroke-width:13.22916698;stroke-linejoin:round;stroke-miterlimit:4;stroke-dasharray:none;stroke-opacity:1" />
    <path
       style="fill:#ffffff;fill-opacity:1;stroke:none;stroke-width:13.22916603;stroke-linejoin:round;stroke-miterlimit:4;stroke-dasharray:none;stroke-opacity:1"
       d="M 114.32652,130.35788 29.633633,277.05029 199.01936,277.0504 Z"
       id="rect5050"
       inkscape:connector-curvature="0"
       sodipodi:nodetypes="cccc" />
    <path
       style="fill:#000000;fill-opacity:1;fill-rule:nonzero;stroke:none;stroke-width:8.41611385"
       d="m 169.88895,233.39417 v 11.90624 h -9.63094 c -12.13025,-0.35134 -15.60498,23.52527 -45.93156,23.8125 -30.326581,-0.28723 -33.801301,-24.16384 -45.931561,-23.8125 h -9.63093 v -11.90624 h 10.21281 c 6.14544,0.0389 11.87724,2.58349 16.27992,6.74158 2.82543,2.44425 3.12901,5.03078 11.06223,11.41147 1.84412,1.22033 3.50811,1.69069 5.696481,1.69069 1.17852,0 5.43271,-0.85529 6.35,-1.5875 1.9232,1.01502 3.83848,1.50392 5.96105,1.5875 2.12258,-0.0836 4.03787,-0.57248 5.96106,-1.5875 0.9173,0.73221 5.17148,1.5875 6.35,1.5875 2.18837,0 3.85236,-0.47036 5.69648,-1.69069 7.93322,-6.38069 8.23681,-8.96722 11.06223,-11.41147 4.40269,-4.15809 10.13448,-6.7027 16.27992,-6.74158 z"
       id="path8734"
       inkscape:connector-curvature="0"
       sodipodi:nodetypes="ccccccccccscccscccc" />
    <path
       style="fill:#000000;fill-opacity:1;fill-rule:nonzero;stroke:none;stroke-width:8.31812477"
       d="m 132.13302,239.74415 c 2.15511,1.10631 4.4071,1.72892 6.85271,1.5875 -0.99032,1.25606 -1.87778,2.61709 -2.97656,3.76502 -0.42443,0.0833 -3.42753,-0.78726 -3.97669,-0.98689 -1.98063,0.69041 -3.93546,1.18761 -6.04837,1.18761 -1.86274,0 -4.01742,-0.55544 -5.75589,-1.18761 -1.7307,0.63217 -3.89373,1.23881 -5.75624,1.18761 h -0.29094 c -1.86251,0.0512 -4.02554,-0.55544 -5.75623,-1.18761 -1.73847,0.63217 -3.89315,1.18761 -5.75589,1.18761 -2.11291,0 -4.067751,-0.4972 -6.048371,-1.18761 -0.54916,0.19963 -3.55227,1.0702 -3.97669,0.98689 -1.09878,-1.14793 -1.98624,-2.50896 -2.97656,-3.76502 2.44561,0.14142 4.69759,-0.48119 6.8527,-1.5875 1.77172,0.65712 3.39368,1.5875 5.357821,1.5875 2.4456,0 4.35324,-0.56438 6.54843,-1.5875 1.9028,1.00423 3.79969,1.50691 5.90031,1.5875 2.10063,-0.0806 3.99741,-0.58327 5.90021,-1.5875 2.19519,1.02312 4.10284,1.5875 6.54844,1.5875 1.96413,0 3.58609,-0.93038 5.35781,-1.5875 z"
       id="path8757"
       inkscape:connector-curvature="0"
       sodipodi:nodetypes="ccccsccccsccccscccsc" />
  </g>
</svg>
