<?xml version="1.0" encoding="UTF-8" standalone="no"?>
<!-- Created with Inkscape (http://www.inkscape.org/) -->

<svg
   xmlns:dc="http://purl.org/dc/elements/1.1/"
   xmlns:cc="http://creativecommons.org/ns#"
   xmlns:rdf="http://www.w3.org/1999/02/22-rdf-syntax-ns#"
   xmlns:svg="http://www.w3.org/2000/svg"
   xmlns="http://www.w3.org/2000/svg"
   xmlns:sodipodi="http://sodipodi.sourceforge.net/DTD/sodipodi-0.dtd"
   xmlns:inkscape="http://www.inkscape.org/namespaces/inkscape"
   width="864.20001"
   height="755.22601"
   viewBox="0 0 228.65291 199.82022"
   version="1.1"
   id="svg4490"
   inkscape:version="0.92.0 r15299"
   sodipodi:docname="SADC_road_sign_W351.svg">
  <defs
     id="defs4484" />
  <sodipodi:namedview
     id="base"
     pagecolor="#ffffff"
     bordercolor="#666666"
     borderopacity="1.0"
     inkscape:pageopacity="0.0"
     inkscape:pageshadow="2"
     inkscape:zoom="0.49497475"
     inkscape:cx="475.00749"
     inkscape:cy="274.01907"
     inkscape:document-units="px"
     inkscape:current-layer="layer1"
     showgrid="false"
     units="px"
     inkscape:window-width="1366"
     inkscape:window-height="706"
     inkscape:window-x="-8"
     inkscape:window-y="-8"
     inkscape:window-maximized="1" />
  <metadata
     id="metadata4487">
    <rdf:RDF>
      <cc:Work
         rdf:about="">
        <dc:format>image/svg+xml</dc:format>
        <dc:type
           rdf:resource="http://purl.org/dc/dcmitype/StillImage" />
        <dc:title />
      </cc:Work>
    </rdf:RDF>
  </metadata>
  <g
     inkscape:label="Layer 1"
     inkscape:groupmode="layer"
     id="layer1"
     transform="translate(0,-97.179783)">
    <path
       sodipodi:nodetypes="cccc"
       inkscape:connector-curvature="0"
       id="path4488"
       d="M 6.7199328,290.27958 114.32645,103.8995 221.93303,290.27956 Z"
       style="fill:#e20a16;fill-opacity:1;stroke:#e20a16;stroke-width:13.22916698;stroke-linejoin:round;stroke-miterlimit:4;stroke-dasharray:none;stroke-opacity:1" />
    <path
       style="fill:#ffffff;fill-opacity:1;stroke:none;stroke-width:13.22916603;stroke-linejoin:round;stroke-miterlimit:4;stroke-dasharray:none;stroke-opacity:1"
       d="M 114.32653,130.35788 29.633633,277.05029 199.01937,277.0504 Z"
       id="rect5050"
       inkscape:connector-curvature="0"
       sodipodi:nodetypes="cccc" />
    <path
       style="fill:#000000;fill-opacity:1;fill-rule:nonzero;stroke:none;stroke-width:8.37093067"
       d="m 79.144245,213.6935 c -1.825365,0.85786 -0.570169,3.06507 3.807934,13.48947 0.0015,0.85455 -0.948133,1.07066 -0.650023,2.66621 0.29811,1.59555 2.407258,1.76034 2.828628,3.09221 0.763899,2.41453 0.908713,4.23098 0.774433,5.4969 -0.398342,3.75536 6.788086,4.41349 6.820924,-0.70757 6.645645,4.30701 15.115239,5.86537 21.992719,8.79887 0.28256,1.9842 2.29046,4.58205 3.24063,5.48235 -17.45374,28.90096 5.18678,17.68679 16.18143,-0.74623 14.94462,6.2453 42.80788,6.64634 26.93088,-7.12573 -2.36061,-3.39518 -3.81923,-4.63713 -9.70913,-4.67211 -5.21068,-1.22619 -10.45873,-2.34678 -15.58603,-3.89735 -6.15559,-4.87175 -11.44028,-10.72195 -17.18577,-16.05589 -7.03006,-6.73001 -14.3455,-14.42693 -21.461579,-21.18038 -0.814344,-0.8387 -1.227579,-1.0163 -2.249493,-0.84733 -12.534924,2.10157 9.768502,18.23769 13.051192,28.62509 2.46175,5.12382 -3.66562,2.16622 -6.33566,1.70839 -2.16123,-0.21232 -2.519058,-3.97709 -3.357759,-6.99877 -0.900681,-3.24499 -2.261799,-5.74886 -4.16259,-5.57605 -3.753763,0.55727 -4.609827,6.23765 -5.207443,6.32943 -0.933454,-0.4636 -4.340212,-9.68069 -9.723293,-7.88151 z"
       id="path5694"
       inkscape:connector-curvature="0"
       sodipodi:nodetypes="cczssccccccccccccsccc" />
  </g>
</svg>
