<?xml version="1.0" encoding="UTF-8" standalone="no"?>
<!-- Created with Inkscape (http://www.inkscape.org/) -->

<svg
   xmlns:dc="http://purl.org/dc/elements/1.1/"
   xmlns:cc="http://creativecommons.org/ns#"
   xmlns:rdf="http://www.w3.org/1999/02/22-rdf-syntax-ns#"
   xmlns:svg="http://www.w3.org/2000/svg"
   xmlns="http://www.w3.org/2000/svg"
   xmlns:sodipodi="http://sodipodi.sourceforge.net/DTD/sodipodi-0.dtd"
   xmlns:inkscape="http://www.inkscape.org/namespaces/inkscape"
   width="864.20001"
   height="755.22601"
   viewBox="0 0 228.65291 199.82022"
   version="1.1"
   id="svg4490"
   inkscape:version="0.92.1 r15371"
   sodipodi:docname="44.svg">
  <defs
     id="defs4484" />
  <sodipodi:namedview
     id="base"
     pagecolor="#ffffff"
     bordercolor="#666666"
     borderopacity="1.0"
     inkscape:pageopacity="0.0"
     inkscape:pageshadow="2"
     inkscape:zoom="0.7"
     inkscape:cx="532.85561"
     inkscape:cy="418.44074"
     inkscape:document-units="px"
     inkscape:current-layer="layer1"
     showgrid="false"
     units="px"
     inkscape:window-width="1920"
     inkscape:window-height="1057"
     inkscape:window-x="-8"
     inkscape:window-y="-8"
     inkscape:window-maximized="1"
     fit-margin-top="0"
     fit-margin-left="0"
     fit-margin-right="0"
     fit-margin-bottom="0"
     inkscape:lockguides="false" />
  <metadata
     id="metadata4487">
    <rdf:RDF>
      <cc:Work
         rdf:about="">
        <dc:format>image/svg+xml</dc:format>
        <dc:type
           rdf:resource="http://purl.org/dc/dcmitype/StillImage" />
        <dc:title></dc:title>
      </cc:Work>
    </rdf:RDF>
  </metadata>
  <g
     inkscape:label="Layer 1"
     inkscape:groupmode="layer"
     id="layer1"
     transform="translate(-29.527827,-77.336025)">
    <path
       sodipodi:nodetypes="cccc"
       inkscape:connector-curvature="0"
       id="path4488"
       d="M 36.24776,270.43581 143.85427,84.055733 251.46085,270.43579 Z"
       style="fill:#e20a16;fill-opacity:1;stroke:#e20a16;stroke-width:13.22916698;stroke-linejoin:round;stroke-miterlimit:4;stroke-dasharray:none;stroke-opacity:1" />
    <path
       style="fill:#ffffff;fill-opacity:1;stroke:none;stroke-width:13.22916603;stroke-linejoin:round;stroke-miterlimit:4;stroke-dasharray:none;stroke-opacity:1"
       d="m 143.85435,110.51424 -84.69289,146.69241 169.38573,-2e-5 z"
       id="rect5050"
       inkscape:connector-curvature="0"
       sodipodi:nodetypes="cccc" />
    <path
       style="fill:#000000;fill-opacity:1;stroke:none;stroke-width:2.59048319;stroke-linejoin:round;stroke-miterlimit:4;stroke-dasharray:none;stroke-opacity:1"
       d="m 128.14393,143.81105 19.92007,-19.92012 -2.60221,-4.50714 -7.6065,7.60649 z"
       id="rect8947"
       inkscape:connector-curvature="0"
       sodipodi:nodetypes="ccccc" />
    <path
       inkscape:connector-curvature="0"
       id="path9041"
       d="m 102.22932,188.69638 52.77848,-52.77846 -2.6022,-4.50714 -40.46498,40.4649 z"
       style="fill:#000000;fill-opacity:1;stroke:none;stroke-width:2.59048319;stroke-linejoin:round;stroke-miterlimit:4;stroke-dasharray:none;stroke-opacity:1"
       sodipodi:nodetypes="ccccc" />
    <path
       style="fill:#000000;fill-opacity:1;stroke:none;stroke-width:2.59048319;stroke-linejoin:round;stroke-miterlimit:4;stroke-dasharray:none;stroke-opacity:1"
       d="m 76.314842,233.58164 85.636748,-85.63671 -2.60221,-4.50716 -73.323077,73.32309 z"
       id="path9043"
       inkscape:connector-curvature="0"
       sodipodi:nodetypes="ccccc" />
    <path
       inkscape:connector-curvature="0"
       id="path9045"
       d="m 74.703421,254.16388 94.191949,-94.19195 -2.60223,-4.50724 -98.69906,98.69924 z"
       style="fill:#000000;fill-opacity:1;stroke:none;stroke-width:2.59048319;stroke-linejoin:round;stroke-miterlimit:4;stroke-dasharray:none;stroke-opacity:1"
       sodipodi:nodetypes="ccccc" />
    <path
       style="fill:#000000;fill-opacity:1;stroke:none;stroke-width:2.59048319;stroke-linejoin:round;stroke-miterlimit:4;stroke-dasharray:none;stroke-opacity:1"
       d="m 93.674171,254.16392 82.165019,-82.16511 -2.6022,-4.50714 -86.672139,86.67225 z"
       id="path9047"
       inkscape:connector-curvature="0"
       sodipodi:nodetypes="ccccc" />
    <path
       inkscape:connector-curvature="0"
       id="path9049"
       d="m 112.64503,254.16389 70.138,-70.13801 -2.60221,-4.50717 -74.64515,74.64519 z"
       style="fill:#000000;fill-opacity:1;stroke:none;stroke-width:2.59048319;stroke-linejoin:round;stroke-miterlimit:4;stroke-dasharray:none;stroke-opacity:1"
       sodipodi:nodetypes="ccccc" />
    <path
       style="fill:#000000;fill-opacity:1;stroke:none;stroke-width:2.59048319;stroke-linejoin:round;stroke-miterlimit:4;stroke-dasharray:none;stroke-opacity:1"
       d="m 131.61576,254.16385 58.11105,-58.11098 -2.60224,-4.50723 -62.61814,62.61828 z"
       id="path9051"
       inkscape:connector-curvature="0"
       sodipodi:nodetypes="ccccc" />
    <path
       inkscape:connector-curvature="0"
       id="path9053"
       d="m 150.58654,254.16386 46.08403,-46.08408 -2.60219,-4.50711 -50.59121,50.59123 z"
       style="fill:#000000;fill-opacity:1;stroke:none;stroke-width:2.59048319;stroke-linejoin:round;stroke-miterlimit:4;stroke-dasharray:none;stroke-opacity:1"
       sodipodi:nodetypes="ccccc" />
    <path
       style="fill:#000000;fill-opacity:1;stroke:none;stroke-width:2.59048319;stroke-linejoin:round;stroke-miterlimit:4;stroke-dasharray:none;stroke-opacity:1"
       d="m 169.55728,254.1639 34.05707,-34.05711 -2.60225,-4.50719 -38.56438,38.56442 z"
       id="path9055"
       inkscape:connector-curvature="0"
       sodipodi:nodetypes="ccccc" />
    <path
       inkscape:connector-curvature="0"
       id="path9057"
       d="m 188.52814,254.16386 22.03005,-22.03005 -2.60226,-4.50718 -26.53718,26.53723 z"
       style="fill:#000000;fill-opacity:1;stroke:none;stroke-width:2.59048319;stroke-linejoin:round;stroke-miterlimit:4;stroke-dasharray:none;stroke-opacity:1"
       sodipodi:nodetypes="ccccc" />
    <path
       style="fill:#000000;fill-opacity:1;stroke:none;stroke-width:2.59048319;stroke-linejoin:round;stroke-miterlimit:4;stroke-dasharray:none;stroke-opacity:1"
       d="m 207.49888,254.16381 10.00306,-10.00303 -2.60219,-4.50713 -14.51025,14.5102 z"
       id="path9059"
       inkscape:connector-curvature="0"
       sodipodi:nodetypes="ccccc" />
    <path
       inkscape:connector-curvature="0"
       id="path9061"
       d="m 223.27719,254.16395 -1.43367,-2.48333 -2.48314,2.48326 z"
       style="fill:#000000;fill-opacity:1;stroke:none;stroke-width:2.59048319;stroke-linejoin:round;stroke-miterlimit:4;stroke-dasharray:none;stroke-opacity:1"
       sodipodi:nodetypes="cccc" />
    <path
       style="fill:none;fill-opacity:1;fill-rule:nonzero;stroke:#ffffff;stroke-width:7.9375;stroke-miterlimit:4;stroke-dasharray:none;stroke-opacity:1"
       d="m 126.47447,175.18582 c -3.69919,0 -6.8556,2.74045 -7.75508,6.28695 l -4.19096,20.32022 c -0.28139,1.34903 -1.38297,2.2231 -2.30891,3.1394 -0.43825,0.39685 -0.80377,0.52812 -1.25522,1.05093 -0.31242,0.44144 -0.45345,0.68507 -0.62786,1.25688 -0.14039,0.33645 -0.17705,0.89482 -0.21653,1.28312 v 19.57916 h 67.46875 v -19.57916 c -0.0395,-0.3883 -0.0761,-0.9467 -0.21653,-1.28312 -0.17441,-0.57184 -0.31545,-0.81544 -0.62787,-1.25688 -0.45144,-0.52281 -0.81696,-0.65415 -1.25522,-1.051 -0.92593,-0.9163 -2.02751,-1.7903 -2.3089,-3.13933 l -4.19096,-20.32022 c -0.89948,-3.5465 -4.05589,-6.28695 -7.75508,-6.28695 z"
       id="path5684"
       inkscape:connector-curvature="0"
       sodipodi:nodetypes="sccccccccccccccss" />
    <path
       style="fill:none;fill-opacity:1;stroke:#ffffff;stroke-width:7.9375;stroke-linejoin:miter;stroke-miterlimit:4;stroke-dasharray:none;stroke-opacity:1"
       d="m 173.61991,250.59206 v -12.96458 c 2.63842,0 3.96875,-2.1241 3.96875,-4.7625 h -67.46875 c 0,2.6384 1.33033,4.7625 3.96875,4.7625 v 12.96458 h 11.90625 v -12.96458 h 35.71875 v 12.96458 z"
       id="rect17229"
       inkscape:connector-curvature="0"
       sodipodi:nodetypes="ccccccccccc" />
    <path
       sodipodi:nodetypes="sccccccccccccccss"
       inkscape:connector-curvature="0"
       id="path4533"
       d="m 126.47447,175.18582 c -3.69919,0 -6.8556,2.74045 -7.75508,6.28695 l -4.19096,20.32022 c -0.28139,1.34903 -1.38297,2.2231 -2.30891,3.1394 -0.43825,0.39685 -0.80377,0.52812 -1.25522,1.05093 -0.31242,0.44144 -0.45345,0.68507 -0.62786,1.25688 -0.14039,0.33645 -0.17705,0.89482 -0.21653,1.28312 v 19.57916 h 67.46875 v -19.57916 c -0.0395,-0.3883 -0.0761,-0.9467 -0.21653,-1.28312 -0.17441,-0.57184 -0.31545,-0.81544 -0.62787,-1.25688 -0.45144,-0.52281 -0.81696,-0.65415 -1.25522,-1.051 -0.92593,-0.9163 -2.02751,-1.7903 -2.3089,-3.13933 l -4.19096,-20.32022 c -0.89948,-3.5465 -4.05589,-6.28695 -7.75508,-6.28695 z"
       style="fill:#000000;fill-opacity:1;fill-rule:nonzero;stroke:none;stroke-width:8.48443508" />
    <path
       sodipodi:nodetypes="ccssccc"
       inkscape:connector-curvature="0"
       id="path4535"
       d="m 120.83554,201.64415 3.57549,-17.64646 c 0.33301,-1.64298 2.05121,-3.14968 3.7884,-3.14968 h 31.30971 c 1.73719,0 3.4554,1.5067 3.7884,3.14968 l 3.5755,17.64646 z"
       style="fill:#ffffff;fill-opacity:1;fill-rule:nonzero;stroke:none;stroke-width:8.5128603" />
    <path
       sodipodi:nodetypes="ccccccccccc"
       inkscape:connector-curvature="0"
       id="path4537"
       d="m 173.61991,249.26915 v -11.64167 c 2.63842,0 3.96875,-2.1241 3.96875,-4.7625 h -67.46875 c 0,2.6384 1.33033,4.7625 3.96875,4.7625 v 11.64167 h 11.90625 v -11.64167 h 35.71875 v 11.64167 z"
       style="fill:#000000;fill-opacity:1;stroke:none;stroke-width:4.08332968;stroke-linejoin:round;stroke-miterlimit:4;stroke-dasharray:none;stroke-opacity:1" />
  </g>
</svg>
