<?xml version="1.0" encoding="UTF-8" standalone="no"?>
<!-- Created with Inkscape (http://www.inkscape.org/) -->

<svg
   xmlns:dc="http://purl.org/dc/elements/1.1/"
   xmlns:cc="http://creativecommons.org/ns#"
   xmlns:rdf="http://www.w3.org/1999/02/22-rdf-syntax-ns#"
   xmlns:svg="http://www.w3.org/2000/svg"
   xmlns="http://www.w3.org/2000/svg"
   xmlns:sodipodi="http://sodipodi.sourceforge.net/DTD/sodipodi-0.dtd"
   xmlns:inkscape="http://www.inkscape.org/namespaces/inkscape"
   width="864.20001"
   height="755.22601"
   viewBox="0 0 228.65291 199.82023"
   version="1.1"
   id="svg4490"
   inkscape:version="0.92.1 r15371"
   sodipodi:docname="55.svg">
  <defs
     id="defs4484" />
  <sodipodi:namedview
     id="base"
     pagecolor="#ffffff"
     bordercolor="#666666"
     borderopacity="1.0"
     inkscape:pageopacity="0.0"
     inkscape:pageshadow="2"
     inkscape:zoom="0.54000582"
     inkscape:cx="905.55908"
     inkscape:cy="231.41507"
     inkscape:document-units="px"
     inkscape:current-layer="layer1"
     showgrid="false"
     units="px"
     inkscape:window-width="1920"
     inkscape:window-height="1057"
     inkscape:window-x="-8"
     inkscape:window-y="-8"
     inkscape:window-maximized="1"
     inkscape:measure-start="6.09248,7.27626"
     inkscape:measure-end="0,0"
     inkscape:snap-global="false"
     fit-margin-top="0"
     fit-margin-left="0"
     fit-margin-right="0"
     fit-margin-bottom="0"
     showguides="false" />
  <metadata
     id="metadata4487">
    <rdf:RDF>
      <cc:Work
         rdf:about="">
        <dc:format>image/svg+xml</dc:format>
        <dc:type
           rdf:resource="http://purl.org/dc/dcmitype/StillImage" />
        <dc:title></dc:title>
      </cc:Work>
    </rdf:RDF>
  </metadata>
  <g
     inkscape:label="Layer 1"
     inkscape:groupmode="layer"
     id="layer1"
     transform="translate(0.72868333,50.316356)">
    <path
       sodipodi:nodetypes="cccc"
       inkscape:connector-curvature="0"
       id="path4488"
       d="M 5.9912494,142.78344 113.59776,-43.596649 221.20435,142.78342 Z"
       style="fill:#e20a16;fill-opacity:1;stroke:#e20a16;stroke-width:13.22916698;stroke-linejoin:round;stroke-miterlimit:4;stroke-dasharray:none;stroke-opacity:1" />
    <path
       style="fill:#ffffff;fill-opacity:1;stroke:none;stroke-width:13.22916603;stroke-linejoin:round;stroke-miterlimit:4;stroke-dasharray:none;stroke-opacity:1"
       d="M 113.59784,-17.138131 28.904949,129.55415 198.29069,129.55426 Z"
       id="rect5050"
       inkscape:connector-curvature="0"
       sodipodi:nodetypes="cccc" />
    <path
       style="fill:#000000;fill-opacity:1;fill-rule:nonzero;stroke:none;stroke-width:0.38603136"
       d="m 104.496,80.870925 v -6.08542 h -0.47614 c -0.43682,-0.0223 -1.76587,-0.29843 -1.79917,-1.85208 h 47.09583 c -0.0333,1.55365 -1.36235,1.8298 -1.79917,1.85208 h -0.47614 v 6.08542 h -5.66219 v -6.08542 h -31.22083 v 6.08542 z"
       id="path26236"
       inkscape:connector-curvature="0"
       sodipodi:nodetypes="ccccccccccccc" />
    <path
       style="fill:#000000;fill-opacity:1;fill-rule:nonzero;stroke:none;stroke-width:3.39707708;stroke-miterlimit:4;stroke-dasharray:none;stroke-opacity:1"
       d="m 149.31648,69.890605 v -7.40823 l -3.01096,-17.852317 c -0.62124,-3.82788 -3.71956,-4.4941 -5.01841,-4.50497 h -31.03705 c -1.29884,0.0102 -4.39717,0.67709 -5.0184,4.50497 l -3.01097,17.852317 v 7.40823 z"
       id="path26238"
       inkscape:connector-curvature="0"
       sodipodi:nodetypes="ccccccccc" />
    <path
       style="fill:#ffffff;fill-opacity:1;fill-rule:nonzero;stroke:none;stroke-width:0.39416394"
       d="m 106.82444,54.957575 1.57692,-9.519697 c 0.36263,-2.23449 2.16282,-2.61335 2.921,-2.61933 h 28.8925 c 0.75818,0.006 2.55837,0.38484 2.921,2.61933 l 1.57692,9.519697 z"
       id="path26242"
       inkscape:connector-curvature="0"
       sodipodi:nodetypes="ccccccc" />
    <circle
       r="2.3812501"
       style="color:#000000;clip-rule:nonzero;display:inline;overflow:visible;visibility:visible;opacity:1;isolation:auto;mix-blend-mode:normal;color-interpolation:sRGB;color-interpolation-filters:linearRGB;solid-color:#000000;solid-opacity:1;fill:#ffffff;fill-opacity:1;fill-rule:evenodd;stroke:none;stroke-width:0;stroke-linecap:butt;stroke-linejoin:miter;stroke-miterlimit:4;stroke-dasharray:none;stroke-dashoffset:0;stroke-opacity:1;marker:none;color-rendering:auto;image-rendering:auto;shape-rendering:auto;text-rendering:auto;enable-background:accumulate"
       id="circle26244"
       cx="144.71275"
       cy="60.630207" />
    <path
       style="fill:#000000;fill-opacity:1;fill-rule:nonzero;stroke:none;stroke-width:0.38603136"
       d="m 80.683504,101.24385 v -6.085425 h -0.47614 c -0.43682,-0.0223 -1.76587,-0.29843 -1.79917,-1.85208 h 47.095826 c -0.0333,1.55365 -1.36235,1.8298 -1.79917,1.85208 h -0.47614 v 6.085425 h -5.66219 V 95.158425 H 86.345694 v 6.085425 z"
       id="path27842"
       inkscape:connector-curvature="0"
       sodipodi:nodetypes="ccccccccccccc" />
    <path
       style="fill:none;fill-opacity:1;fill-rule:nonzero;stroke:#ffffff;stroke-width:3.17499995;stroke-miterlimit:4;stroke-dasharray:none;stroke-opacity:1"
       d="m 125.50398,90.263525 v -7.40823 l -3.01096,-17.85232 c -0.62124,-3.82788 -3.71956,-4.4941 -5.01841,-4.50497 H 86.437564 c -1.29884,0.0102 -4.39717,0.67709 -5.0184,4.50497 l -3.01097,17.85232 v 7.40823 z"
       id="path27844"
       inkscape:connector-curvature="0"
       sodipodi:nodetypes="ccccccccc" />
    <path
       sodipodi:nodetypes="ccccccccccccc"
       inkscape:connector-curvature="0"
       id="path27878"
       d="m 56.871002,121.61677 v -6.08542 h -0.47614 c -0.43682,-0.0223 -1.76587,-0.29843 -1.79917,-1.85208 h 47.095828 c -0.0333,1.55365 -1.36235,1.8298 -1.799172,1.85208 h -0.47614 v 6.08542 h -5.662181 v -6.08542 H 62.533192 v 6.08542 z"
       style="fill:#000000;fill-opacity:1;fill-rule:nonzero;stroke:none;stroke-width:0.38603136" />
    <path
       sodipodi:nodetypes="ccccccccc"
       inkscape:connector-curvature="0"
       id="path30864"
       d="m 125.50398,90.263525 v -7.40823 l -3.01096,-17.85232 c -0.62124,-3.82788 -3.71956,-4.4941 -5.01841,-4.50497 H 86.437564 c -1.29884,0.0102 -4.39717,0.67709 -5.0184,4.50497 l -3.01097,17.85232 v 7.40823 z"
       style="fill:#000000;fill-opacity:1;fill-rule:nonzero;stroke:none;stroke-width:3.39707708;stroke-miterlimit:4;stroke-dasharray:none;stroke-opacity:1" />
    <path
       sodipodi:nodetypes="ccccccc"
       inkscape:connector-curvature="0"
       id="path30868"
       d="m 83.011944,75.330495 1.57692,-9.5197 c 0.36263,-2.23449 2.16282,-2.61335 2.921,-2.61933 h 28.892496 c 0.75818,0.006 2.55837,0.38484 2.921,2.61933 l 1.57692,9.5197 z"
       style="fill:#ffffff;fill-opacity:1;fill-rule:nonzero;stroke:none;stroke-width:0.39416394" />
    <circle
       cy="81.003113"
       cx="120.90024"
       id="circle30870"
       style="color:#000000;clip-rule:nonzero;display:inline;overflow:visible;visibility:visible;opacity:1;isolation:auto;mix-blend-mode:normal;color-interpolation:sRGB;color-interpolation-filters:linearRGB;solid-color:#000000;solid-opacity:1;fill:#ffffff;fill-opacity:1;fill-rule:evenodd;stroke:none;stroke-width:0;stroke-linecap:butt;stroke-linejoin:miter;stroke-miterlimit:4;stroke-dasharray:none;stroke-dashoffset:0;stroke-opacity:1;marker:none;color-rendering:auto;image-rendering:auto;shape-rendering:auto;text-rendering:auto;enable-background:accumulate"
       r="2.3812501" />
    <path
       style="fill:none;fill-opacity:1;fill-rule:nonzero;stroke:#ffffff;stroke-width:3.17499995;stroke-miterlimit:4;stroke-dasharray:none;stroke-opacity:1"
       d="m 101.69148,110.63645 v -7.40823 L 98.680518,85.375895 c -0.62124,-3.82788 -3.719555,-4.4941 -5.018405,-4.50497 H 62.625062 c -1.29884,0.0102 -4.39717,0.67709 -5.0184,4.50497 l -3.01097,17.852325 v 7.40823 z"
       id="path30895"
       inkscape:connector-curvature="0"
       sodipodi:nodetypes="ccccccccc" />
    <path
       sodipodi:nodetypes="ccccccccc"
       inkscape:connector-curvature="0"
       id="path30927"
       d="m 101.69148,110.63645 v -7.40823 L 98.680518,85.375895 c -0.62124,-3.82788 -3.719555,-4.4941 -5.018405,-4.50497 H 62.625062 c -1.29884,0.0102 -4.39717,0.67709 -5.0184,4.50497 l -3.01097,17.852325 v 7.40823 z"
       style="fill:#000000;fill-opacity:1;fill-rule:nonzero;stroke:none;stroke-width:3.39707708;stroke-miterlimit:4;stroke-dasharray:none;stroke-opacity:1" />
    <circle
       r="2.3812501"
       style="color:#000000;clip-rule:nonzero;display:inline;overflow:visible;visibility:visible;opacity:1;isolation:auto;mix-blend-mode:normal;color-interpolation:sRGB;color-interpolation-filters:linearRGB;solid-color:#000000;solid-opacity:1;fill:#ffffff;fill-opacity:1;fill-rule:evenodd;stroke:none;stroke-width:0;stroke-linecap:butt;stroke-linejoin:miter;stroke-miterlimit:4;stroke-dasharray:none;stroke-dashoffset:0;stroke-opacity:1;marker:none;color-rendering:auto;image-rendering:auto;shape-rendering:auto;text-rendering:auto;enable-background:accumulate"
       id="circle30929"
       cx="59.199444"
       cy="101.37602" />
    <path
       sodipodi:nodetypes="ccccccc"
       inkscape:connector-curvature="0"
       id="path30931"
       d="m 59.199442,95.703415 1.57692,-9.5197 c 0.36263,-2.23449 2.16282,-2.61335 2.921,-2.61933 h 28.892503 c 0.758179,0.006 2.55837,0.38484 2.921003,2.61933 l 1.57691,9.5197 z"
       style="fill:#ffffff;fill-opacity:1;fill-rule:nonzero;stroke:none;stroke-width:0.39416394" />
    <circle
       cy="101.37602"
       cx="97.087738"
       id="circle30933"
       style="color:#000000;clip-rule:nonzero;display:inline;overflow:visible;visibility:visible;opacity:1;isolation:auto;mix-blend-mode:normal;color-interpolation:sRGB;color-interpolation-filters:linearRGB;solid-color:#000000;solid-opacity:1;fill:#ffffff;fill-opacity:1;fill-rule:evenodd;stroke:none;stroke-width:0;stroke-linecap:butt;stroke-linejoin:miter;stroke-miterlimit:4;stroke-dasharray:none;stroke-dashoffset:0;stroke-opacity:1;marker:none;color-rendering:auto;image-rendering:auto;shape-rendering:auto;text-rendering:auto;enable-background:accumulate"
       r="2.3812501" />
  </g>
</svg>
