<?xml version="1.0" encoding="UTF-8" standalone="no"?>
<!-- Created with Inkscape (http://www.inkscape.org/) -->

<svg
   xmlns:dc="http://purl.org/dc/elements/1.1/"
   xmlns:cc="http://creativecommons.org/ns#"
   xmlns:rdf="http://www.w3.org/1999/02/22-rdf-syntax-ns#"
   xmlns:svg="http://www.w3.org/2000/svg"
   xmlns="http://www.w3.org/2000/svg"
   xmlns:sodipodi="http://sodipodi.sourceforge.net/DTD/sodipodi-0.dtd"
   xmlns:inkscape="http://www.inkscape.org/namespaces/inkscape"
   width="864.20001"
   height="755.22601"
   viewBox="0 0 228.65291 199.82022"
   version="1.1"
   id="svg4490"
   inkscape:version="0.92.1 r15371"
   sodipodi:docname="55.svg">
  <defs
     id="defs4484" />
  <sodipodi:namedview
     id="base"
     pagecolor="#ffffff"
     bordercolor="#666666"
     borderopacity="1.0"
     inkscape:pageopacity="0.0"
     inkscape:pageshadow="2"
     inkscape:zoom="0.76567775"
     inkscape:cx="377.79705"
     inkscape:cy="390.92903"
     inkscape:document-units="px"
     inkscape:current-layer="layer1"
     showgrid="false"
     units="px"
     inkscape:window-width="1920"
     inkscape:window-height="1057"
     inkscape:window-x="-8"
     inkscape:window-y="-8"
     inkscape:window-maximized="1" />
  <metadata
     id="metadata4487">
    <rdf:RDF>
      <cc:Work
         rdf:about="">
        <dc:format>image/svg+xml</dc:format>
        <dc:type
           rdf:resource="http://purl.org/dc/dcmitype/StillImage" />
        <dc:title></dc:title>
      </cc:Work>
    </rdf:RDF>
  </metadata>
  <g
     inkscape:label="Layer 1"
     inkscape:groupmode="layer"
     id="layer1"
     transform="translate(0,-97.179788)">
    <path
       sodipodi:nodetypes="cccc"
       inkscape:connector-curvature="0"
       id="path4488"
       d="M 6.7199328,290.27957 114.32645,103.89949 221.93303,290.27955 Z"
       style="fill:#e20a16;fill-opacity:1;stroke:#e20a16;stroke-width:13.22916698;stroke-linejoin:round;stroke-miterlimit:4;stroke-dasharray:none;stroke-opacity:1" />
    <path
       style="fill:#ffffff;fill-opacity:1;stroke:none;stroke-width:13.22916603;stroke-linejoin:round;stroke-miterlimit:4;stroke-dasharray:none;stroke-opacity:1"
       d="m 114.32653,130.35801 -84.692897,146.6924 169.385737,-2e-5 z"
       id="rect5050"
       inkscape:connector-curvature="0"
       sodipodi:nodetypes="cccc" />
    <path
       d="m 109.62005,194.99242 c 0.19115,-0.19354 1.77774,-1.82075 1.88049,-1.88814 0.46355,-0.29509 4.49287,-1.56795 5.0324,-1.56795 2.15767,0 4.70363,1.01145 6.27994,2.51197 l 9.73602,6.90371 -1.25684,-3.75953 c 0.39665,0.39617 1.45039,0.90201 1.88766,1.25589 0.56391,0.44682 1.27357,0.85135 1.88766,1.25589 l 1.56747,-0.32043 c 0.73356,0.26977 1.5173,0.55627 2.20068,0.94407 l 1.88049,1.88814 c 1.33093,1.76174 6.48208,9.01107 7.85625,10.04787 0.0956,0.16965 0.24373,0.73332 0.31302,0.94407 0.0956,0.97776 -0.21505,3.02619 -0.31302,4.07986 l -0.94383,0.62388 -1.56747,0.63225 c -0.26045,-0.0502 -1.30703,-0.53954 -1.56747,-0.63225 l -4.71199,-2.82387 -1.26402,0.31182 h -1.56747 l -0.94383,-0.9357 -1.25685,1.25589 -0.31301,2.1916 c 0.78374,6.00173 -4.21474,17.65963 -7.54443,22.61612 l 4.72058,5.96805 c 0.42054,0.58994 1.28075,1.57631 1.56748,2.20019 0.3632,0.77562 0.76701,3.15261 0.6332,4.07984 0.27001,4.93964 1.10392,9.78656 -0.95339,14.13615 h -1.24729 l -1.25685,-1.25588 c -0.37992,-0.58996 -0.75028,-1.84609 -0.94382,-2.51198 l 1.25684,-1.88814 c 0.37992,-1.42459 0.62365,-3.25375 0.62365,-4.71205 0,-2.0652 -0.54719,-4.46759 -1.56748,-6.27991 l -0.94383,-1.25589 -5.02381,-3.45607 c -0.60691,0.6829 -1.88765,9.17964 -1.88765,10.3682 0,1.44991 0.43727,3.25376 0.6332,4.71203 l 0.31063,0.93571 0.94382,0.32042 1.25685,0.62388 1.8805,2.51193 -2.19113,1.25589 h -1.88765 l -0.6332,-1.56771 -0.93667,-1.56795 -1.88766,-1.2559 -0.6332,-0.94406 c 0.2939,-2.13258 0.94383,-4.78792 0.94383,-6.91213 v -7.21558 c 0,-1.11276 -0.21505,-2.35169 -0.31063,-3.45606 l -0.6332,-0.94407 c -0.11947,-0.2614 -0.23895,-0.96103 -0.31063,-1.2559 -3.49815,0.20311 -7.21564,-0.2031 -10.68009,-0.63224 -2.46137,-0.6829 -4.92273,-1.74501 -7.22401,-2.82384 l -2.512021,3.13574 c -0.67382,0.84299 -2.25803,1.95552 -3.14427,2.52041 -0.293904,0.19354 -0.683384,0.39617 -0.943833,0.62388 -0.540011,0.48051 -1.053742,1.0621 -1.567473,1.56795 l -0.320183,0.94406 0.320183,0.94408 2.200675,4.07983 0.623648,0.94406 0.320183,0.94408 c 0.11947,0.26977 0.53046,0.96939 0.62365,1.25589 l -0.31063,0.94406 -1.887658,1.25589 -0.943833,0.62389 -1.567473,2.51198 c -0.260448,-0.52258 -0.776574,-1.34024 -0.943832,-1.88815 l -0.215047,-1.45827 -0.09558,-0.73332 0.623649,-0.94407 1.577034,-0.63225 v -0.9357 l -0.320184,-0.94408 c -0.573466,-0.42985 -1.52686,-1.9051 -1.880499,-2.51197 l -0.943824,1.56796 c -0.336911,1.01144 -0.387094,3.63307 -0.310631,4.71205 l 1.25685,4.07983 c 0.191152,0.55626 0.370358,1.38253 0.62364,1.88814 0.303465,0.59855 0.876931,1.31491 1.25685,1.87978 l 2.207849,0.94406 1.880489,2.2002 -0.62365,1.56796 -1.256839,0.32042 -2.520387,-0.32042 -0.310632,-2.20021 -0.943824,-0.62364 -2.200682,-0.94407 v -3.13576 c -0.119471,-1.23917 -1.046576,-4.02927 -1.567473,-5.02393 -0.547186,-1.04537 -1.517299,-2.16627 -2.200675,-3.14416 l -0.313017,-1.56796 c 0.09558,-0.26116 0.80046,-1.61001 0.936658,-1.88814 0.430101,-2.12421 0.850642,-4.08829 0.633201,-6.27993 -0.09558,-0.36248 -0.167258,-0.91874 -0.310623,-1.25589 -0.336911,-0.74169 -0.850642,-1.49197 -1.25685,-2.19996 -1.003568,-1.60165 -1.804027,-3.81852 -2.200674,-5.64771 0,-3.17789 -0.0478,-6.29679 0.62364,-9.42409 -3.228615,3.02616 -4.771236,6.27992 -5.546613,10.57049 l -0.42054,2.30128 c 0,1.30654 0.191152,4.19784 0.943832,5.34425 -0.463556,3.68366 -1.610489,8.29457 -4.711988,10.67166 0.649929,-0.93571 1.567481,-3.64151 1.567481,-4.71206 v -2.81541 c 0,-1.69435 -1.044189,-4.41702 -2.191121,-5.65614 -0.657096,-0.94407 -1.577034,-3.64995 -1.577034,-4.71206 0,-5.8163 2.107492,-9.87929 7.544427,-12.24795 2.393982,-0.61527 6.010169,-2.46139 7.847652,-4.08826 1.037015,-0.71659 3.894553,-2.50354 5.024039,-2.82387 0.884098,-0.24444 2.217402,-0.21983 3.152632,-0.31182 3.32109,-0.16965 6.718161,-0.4215 10.047861,-0.31182 0.32974,-7.46847 1.99757,-14.96224 5.34423,-21.67206"
       style="fill:#000000;fill-opacity:1;fill-rule:evenodd;stroke:none;stroke-width:8.42942429"
       id="path5478"
       inkscape:connector-curvature="0" />
    <path
       d="m 118.412,208.49636 -2.20068,6.27991 c 3.09362,-1.46664 6.27158,-3.67523 8.80033,-5.96802 -0.30347,-0.0598 -3.01763,-0.62388 -3.14404,-0.62388 -1.11347,0 -2.34404,0.21027 -3.45609,0.31182"
       style="fill:#ffffff;fill-opacity:1;fill-rule:nonzero;stroke:none;stroke-width:8.42942429"
       id="path5482"
       inkscape:connector-curvature="0" />
    <path
       d="m 126.58007,206.92004 4.08834,-4.07982 c -3.66684,-1.5173 -7.359,-3.48979 -10.68009,-5.64772 0.008,1.82076 -0.14337,5.81629 -0.94383,7.5359 2.47809,0.74192 4.99847,1.68599 7.53582,2.19159"
       style="fill:#ffffff;fill-opacity:1;fill-rule:nonzero;stroke:none;stroke-width:8.42942429"
       id="path5484"
       inkscape:connector-curvature="0" />
    <circle
       style="fill:#000000;fill-opacity:1;stroke:none;stroke-width:1.21143556;stroke-linejoin:round;stroke-miterlimit:4;stroke-dasharray:none;stroke-opacity:1"
       id="path8737"
       cx="117.10458"
       cy="186.16603"
       r="4.3656249" />
  </g>
</svg>
