<?xml version="1.0" encoding="UTF-8" standalone="no"?>
<!-- Created with Inkscape (http://www.inkscape.org/) -->

<svg
   xmlns:dc="http://purl.org/dc/elements/1.1/"
   xmlns:cc="http://creativecommons.org/ns#"
   xmlns:rdf="http://www.w3.org/1999/02/22-rdf-syntax-ns#"
   xmlns:svg="http://www.w3.org/2000/svg"
   xmlns="http://www.w3.org/2000/svg"
   xmlns:sodipodi="http://sodipodi.sourceforge.net/DTD/sodipodi-0.dtd"
   xmlns:inkscape="http://www.inkscape.org/namespaces/inkscape"
   width="864.20001"
   height="755.22601"
   viewBox="0 0 228.65291 199.82022"
   version="1.1"
   id="svg4490"
   inkscape:version="0.92.1 r15371"
   sodipodi:docname="55.svg">
  <defs
     id="defs4484" />
  <sodipodi:namedview
     id="base"
     pagecolor="#ffffff"
     bordercolor="#666666"
     borderopacity="1.0"
     inkscape:pageopacity="0.0"
     inkscape:pageshadow="2"
     inkscape:zoom="0.7"
     inkscape:cx="653.83019"
     inkscape:cy="406.47598"
     inkscape:document-units="px"
     inkscape:current-layer="layer1"
     showgrid="false"
     units="px"
     inkscape:window-width="1920"
     inkscape:window-height="1057"
     inkscape:window-x="-8"
     inkscape:window-y="-8"
     inkscape:window-maximized="1" />
  <metadata
     id="metadata4487">
    <rdf:RDF>
      <cc:Work
         rdf:about="">
        <dc:format>image/svg+xml</dc:format>
        <dc:type
           rdf:resource="http://purl.org/dc/dcmitype/StillImage" />
        <dc:title></dc:title>
      </cc:Work>
    </rdf:RDF>
  </metadata>
  <g
     inkscape:label="Layer 1"
     inkscape:groupmode="layer"
     id="layer1"
     transform="translate(0,-97.179788)">
    <path
       sodipodi:nodetypes="cccc"
       inkscape:connector-curvature="0"
       id="path4488"
       d="M 6.7199328,290.27957 114.32645,103.89949 221.93303,290.27955 Z"
       style="fill:#e20a16;fill-opacity:1;stroke:#e20a16;stroke-width:13.22916698;stroke-linejoin:round;stroke-miterlimit:4;stroke-dasharray:none;stroke-opacity:1" />
    <path
       style="fill:#ffffff;fill-opacity:1;stroke:none;stroke-width:13.22916603;stroke-linejoin:round;stroke-miterlimit:4;stroke-dasharray:none;stroke-opacity:1"
       d="m 114.32653,130.35801 -84.692897,146.6924 169.385737,-2e-5 z"
       id="rect5050"
       inkscape:connector-curvature="0"
       sodipodi:nodetypes="cccc" />
    <path
       d="m 95.096966,263.60679 c 0.0717,0.75007 0.215013,1.576 0.215013,2.3261 0,0.12638 -0.253233,0.79222 -0.420463,0.8428 -1.10373,0.32029 -8.00629,2.51151 -8.66374,2.3261 -0.37986,-0.65741 -0.77643,-2.59581 -0.84332,-2.95821 -0.69998,-2.09012 -1.29724,-4.29823 -2.11428,-6.33777 -1.00338,-2.51152 -2.53664,-4.99774 -3.80091,-7.39126 l -1.05355,1.26419 c 0.58053,2.52836 -1.69381,5.61297 -1.69381,7.39126 0,2.27553 1.82043,4.48364 3.16878,6.12708 l -0.21501,1.9047 h -9.928 l -0.84332,-0.63211 -0.42047,-8.03177 c 0.0717,-2.79806 0.0239,-5.65512 0.21502,-8.44475 0.2389,-3.55657 0.86721,-6.96144 0.84332,-10.56015 -0.2389,2.64636 -0.90066,3.44701 -1.47402,5.48656 -0.28668,1.01134 -0.24368,2.43566 -0.63309,3.37959 -0.59725,1.4496 -2.52829,3.64927 -3.37949,5.70567 1.25662,-4.15494 2.39355,-9.13583 2.32689,-13.51833 v -1.05348 c -0.28668,-2.18282 -0.53991,-4.37408 -0.85048,-6.54848 -0.16723,-1.17147 -0.63309,-2.65478 -0.63309,-3.8094 0,-1.02821 0.14334,-2.13226 0.21501,-3.16889 l 2.74736,-6.11865 c 2.57057,-5.31799 6.15241,-8.6133 10.56013,-12.25415 5.77328,-0.24442 21.786094,-1.91314 26.615474,-5.70568 l 0.6307,-0.63209 0.215,-1.05349 -0.42046,-3.16888 -0.63309,-1.05349 -1.27334,-2.74749 -1.05355,-2.95819 10.56013,0.21069 7.81278,3.16888 2.53665,-0.63209 1.47402,-3.8094 2.32689,-0.4214 5.27588,3.80941 5.70567,1.47488 1.47402,0.84279 0.21501,1.694 1.89687,2.1154 1.90404,3.37959 0.42047,1.47488 -0.21501,3.80098 0.63309,1.47487 2.53688,7.18899 0.42047,3.59028 c 0.2389,0.23604 0.57336,0.65739 0.84332,0.8428 l 1.05355,0.42139 1.27334,-0.21071 c 2.72228,-0.4551 6.38821,-2.48622 8.65538,-4.01167 -0.99383,1.64345 -2.61262,3.80941 -4.22233,4.85446 -1.79415,1.17148 -5.04822,1.91315 -7.18065,1.90471 0.19113,20.85903 -2.08082,18.24638 -12.46489,32.31253 l -2.73875,-1.47487 2.1071,-4.43308 2.3269,-3.5987 1.89687,-3.80098 0.63309,-3.16889 c 1.2805,-6.62432 -0.38702,-10.09661 -1.26379,-15.83601 l -1.26379,1.05349 -0.42046,-1.68559 -1.27334,-1.694 -0.63309,-1.05348 -1.05355,0.63208 -2.32689,-0.63208 -1.89688,-0.63209 h -1.48357 l -0.63309,1.47488 -5.27565,5.70568 c -0.0717,0.29497 -0.43002,1.66873 -0.43002,1.89628 0,2.57051 0.16723,5.26743 0.43002,7.82108 0.14334,1.47488 0.6307,3.17732 0.6307,4.64377 0,2.85705 -0.34641,6.32935 -1.06072,9.08527 -0.0717,0.96078 -0.21501,1.98896 -0.21501,2.95819 0,2.54521 0.2389,6.67488 1.06311,9.07683 0.14334,0.25283 1.68664,3.10146 1.68664,3.16889 v 1.90471 l -9.0854,-0.21071 c -0.34641,-2.77278 1.06311,-5.54555 1.06311,-8.24248 0,-0.85964 -0.38702,-1.28947 -0.63309,-2.1154 -1.02727,-3.41329 -1.82042,-9.32967 -2.7476,-11.82432 -0.0478,-0.14334 -2.4946,-3.45544 -2.74736,-3.80098 -0.24367,1.35689 -0.84332,3.30373 -0.84332,4.64377 0,3.30373 0.42047,6.61589 0.42047,9.92806 0,0.94391 -0.29385,1.73614 -0.84332,2.53679 -1.98049,1.22205 -8.21723,3.91897 -8.66398,6.54847 l -0.633081,0.42142 -1.69381,0.21071 c -0.4133,-1.24735 -1.56002,-3.16048 -1.89688,-4.43309 -0.32968,-1.24733 -0.43718,-2.57051 -0.843313,-3.80099 -0.23891,-0.68265 -0.58053,-1.13776 -0.64026,-1.90471 l 0.850493,-0.63208 2.1071,0.42142 h 1.27334 c 0.65698,0 1.990051,-0.19374 2.536661,-0.63208 -0.25324,-2.90762 -1.677091,-6.06808 -2.958081,-8.66387 l -1.27334,-1.68562 -1.05355,-0.42139 -0.63309,-0.21071 c -2.090383,0.24441 -6.110133,1.00292 -7.820893,2.31767 0.32968,1.16304 0.215,2.27553 0.43002,3.37958 0.72387,3.86841 2.6463,8.59645 4.85446,11.83276 0.37985,0.20235 1.05355,0.26972 1.48357,0.21071 z"
       style="fill:#000000;fill-opacity:1;fill-rule:nonzero;stroke:none;stroke-width:0.43825018;stroke-linecap:butt;stroke-linejoin:miter;stroke-miterlimit:3.86400008;stroke-dasharray:none;stroke-opacity:1"
       id="path5472"
       inkscape:connector-curvature="0" />
  </g>
</svg>
