<?xml version="1.0" encoding="UTF-8" standalone="no"?>
<!-- Created with Inkscape (http://www.inkscape.org/) -->

<svg
   xmlns:dc="http://purl.org/dc/elements/1.1/"
   xmlns:cc="http://creativecommons.org/ns#"
   xmlns:rdf="http://www.w3.org/1999/02/22-rdf-syntax-ns#"
   xmlns:svg="http://www.w3.org/2000/svg"
   xmlns="http://www.w3.org/2000/svg"
   xmlns:sodipodi="http://sodipodi.sourceforge.net/DTD/sodipodi-0.dtd"
   xmlns:inkscape="http://www.inkscape.org/namespaces/inkscape"
   width="864.20001"
   height="755.22601"
   viewBox="0 0 228.65291 199.82022"
   version="1.1"
   id="svg4490"
   inkscape:version="0.92.1 r15371"
   sodipodi:docname="55.svg">
  <defs
     id="defs4484" />
  <sodipodi:namedview
     id="base"
     pagecolor="#ffffff"
     bordercolor="#666666"
     borderopacity="1.0"
     inkscape:pageopacity="0.0"
     inkscape:pageshadow="2"
     inkscape:zoom="0.7"
     inkscape:cx="466.14257"
     inkscape:cy="340.38074"
     inkscape:document-units="px"
     inkscape:current-layer="layer1"
     showgrid="false"
     units="px"
     inkscape:window-width="1920"
     inkscape:window-height="1057"
     inkscape:window-x="-8"
     inkscape:window-y="-8"
     inkscape:window-maximized="1" />
  <metadata
     id="metadata4487">
    <rdf:RDF>
      <cc:Work
         rdf:about="">
        <dc:format>image/svg+xml</dc:format>
        <dc:type
           rdf:resource="http://purl.org/dc/dcmitype/StillImage" />
        <dc:title></dc:title>
      </cc:Work>
    </rdf:RDF>
  </metadata>
  <g
     inkscape:label="Layer 1"
     inkscape:groupmode="layer"
     id="layer1"
     transform="translate(0,-97.179788)">
    <path
       sodipodi:nodetypes="cccc"
       inkscape:connector-curvature="0"
       id="path4488"
       d="M 6.7199328,290.27957 114.32645,103.89949 221.93303,290.27955 Z"
       style="fill:#e20a16;fill-opacity:1;stroke:#e20a16;stroke-width:13.22916698;stroke-linejoin:round;stroke-miterlimit:4;stroke-dasharray:none;stroke-opacity:1" />
    <path
       style="fill:#ffffff;fill-opacity:1;stroke:none;stroke-width:13.22916603;stroke-linejoin:round;stroke-miterlimit:4;stroke-dasharray:none;stroke-opacity:1"
       d="m 114.32653,130.35801 -84.692897,146.6924 169.385737,-2e-5 z"
       id="rect5050"
       inkscape:connector-curvature="0"
       sodipodi:nodetypes="cccc" />
    <path
       d="m 136.94269,232.88116 c 2.20573,0 9.83569,-0.43601 12.04926,-0.63726 l 2.80897,-0.93912 c 0.83903,-0.27671 2.05361,-0.52826 2.81753,-0.93073 1.30014,-0.68758 3.53011,-2.82576 4.36867,-4.06674 0.0951,-0.6708 0.3185,-1.5177 0.3185,-2.1885 l -0.3185,-2.49874 c -0.36842,-1.11522 -1.85395,-3.03538 -2.80921,-3.74811 l -1.4594,-0.83012 c -0.40168,-0.22652 -1.13138,-0.63726 -1.66855,-0.41926 0.36128,0.50311 2.18909,3.44625 2.18909,4.05836 v 1.87824 c 0,0.55341 -0.21392,1.31645 -0.30899,1.87825 -0.67979,0.86365 -1.81117,1.7357 -2.8173,2.1801 l -1.55922,0.31025 -1.55922,0.62887 -0.62986,-1.86985 0.93886,-2.18849 0.31136,-1.87825 -1.55921,-1.24937 -1.25023,0.62887 -0.30899,-1.87824 v -0.93912 l -0.93887,-1.55963 -1.25735,-0.62887 -0.30899,-0.93073 0.62986,-3.43786 1.25023,-2.81737 1.55922,-2.49874 0.3185,-1.55963 -0.93886,-2.49874 -2.18909,1.87825 -3.74807,-0.93913 h -12.19186 l -2.49856,0.62051 -3.12771,0.93912 -0.93886,0.31025 -3.43789,-1.86985 -0.93172,1.86985 v 2.18849 l 0.93172,2.81737 v 1.86988 l -12.81246,6.5571 -3.74807,2.50712 -4.687161,-0.31864 h -3.437893 l -2.80897,0.31864 -1.87772,0.62048 c -0.31137,-0.10054 -0.93886,-0.23484 -1.25023,-0.31025 l -0.93886,-0.62887 -0.62036,-0.62051 -1.25023,-2.81737 -1.25736,-3.43786 -0.93885,-1.86985 -2.4988,-9.37447 -0.62036,-0.93912 c 0.80576,5.17356 1.35006,17.47441 3.43789,21.87655 -5.27425,10.98439 3.13603,21.23929 -2.18909,27.80477 3.3036,5.41673 1.09811,8.74559 2.18909,14.6822 l 1.25023,0.31863 1.25022,-0.62886 2.1891,0.31023 0.62036,-1.24098 -2.4988,-3.12762 0.93886,-7.81485 0.31137,-4.36861 3.43789,-4.06674 1.25023,2.49874 v 3.74811 l 0.62987,2.1885 2.49879,2.18849 1.559223,1.24937 0.93886,0.93912 0.62986,2.1885 0.62036,1.24937 -0.31137,3.12762 2.809211,0.31022 3.12747,-2.50712 c -2.35546,-5.04777 -6.766671,-10.00333 -5.626261,-15.93155 l 3.127471,2.18849 2.49879,0.93912 4.05849,-0.31025 3.44621,-0.93912 c 6.03722,10.46453 5.52572,6.51517 3.11915,17.80981 l 3.43789,2.80899 2.18909,-1.24937 1.55922,-0.93912 c -3.44621,-10.23812 2.28892,-6.44809 -2.17958,-18.4303 l 4.36867,-0.31864 0.94837,3.12761 0.93173,2.80899 0.62986,2.49874 -0.31137,6.56548 2.17958,3.12762 5.00567,-1.5596 -0.93886,-3.75649 -2.49855,-3.43787 -0.93886,-1.86985 0.62987,-3.43787 0.62036,-4.68723 -0.31137,-3.43786 0.93886,-4.05836 1.25022,-3.43786 1.87059,-2.49874 2.18909,-1.25777 0.14261,0.0168"
       style="fill:#000000;fill-opacity:1;fill-rule:nonzero;stroke:none;stroke-width:8.38503265"
       id="path5500"
       inkscape:connector-curvature="0" />
    <path
       d="m 136.80008,232.86439 -0.31136,-3.42947 -0.93886,-0.93913 -5.30777,-1.56799 -0.73683,-0.20132 -1.44988,-0.41925 c -0.84617,-0.49472 -2.4988,-2.85091 -2.81753,-3.74811 l -0.31137,-2.18849 v -2.1885 l 0.62987,-1.55962 c -1.13139,0.70433 -2.89288,2.56582 -3.44621,3.74811 -0.49439,1.0649 -0.77961,3.49656 -0.62036,4.68723 0.26858,0.72951 0.5443,1.8531 0.93173,2.49874 l 1.87772,2.1885 c 0.60372,0.51147 2.92638,1.63509 3.82365,2.18849 2.38137,-0.34379 5.02254,0.93073 7.42911,0.93073 h 1.25023"
       style="fill:#ffffff;fill-opacity:1;fill-rule:nonzero;stroke:none;stroke-width:8.38503265"
       id="path5504"
       inkscape:connector-curvature="0" />
  </g>
</svg>
