<?xml version="1.0" encoding="UTF-8" standalone="no"?>
<!-- Created with Inkscape (http://www.inkscape.org/) -->

<svg
   xmlns:dc="http://purl.org/dc/elements/1.1/"
   xmlns:cc="http://creativecommons.org/ns#"
   xmlns:rdf="http://www.w3.org/1999/02/22-rdf-syntax-ns#"
   xmlns:svg="http://www.w3.org/2000/svg"
   xmlns="http://www.w3.org/2000/svg"
   xmlns:sodipodi="http://sodipodi.sourceforge.net/DTD/sodipodi-0.dtd"
   xmlns:inkscape="http://www.inkscape.org/namespaces/inkscape"
   width="864.20001"
   height="755.22601"
   viewBox="0 0 228.65291 199.82022"
   version="1.1"
   id="svg4490"
   inkscape:version="0.92.1 r15371"
   sodipodi:docname="55.svg">
  <defs
     id="defs4484" />
  <sodipodi:namedview
     id="base"
     pagecolor="#ffffff"
     bordercolor="#666666"
     borderopacity="1.0"
     inkscape:pageopacity="0.0"
     inkscape:pageshadow="2"
     inkscape:zoom="0.7"
     inkscape:cx="466.60161"
     inkscape:cy="316.266"
     inkscape:document-units="px"
     inkscape:current-layer="layer1"
     showgrid="false"
     units="px"
     inkscape:window-width="1920"
     inkscape:window-height="1057"
     inkscape:window-x="-8"
     inkscape:window-y="-8"
     inkscape:window-maximized="1" />
  <metadata
     id="metadata4487">
    <rdf:RDF>
      <cc:Work
         rdf:about="">
        <dc:format>image/svg+xml</dc:format>
        <dc:type
           rdf:resource="http://purl.org/dc/dcmitype/StillImage" />
        <dc:title></dc:title>
      </cc:Work>
    </rdf:RDF>
  </metadata>
  <g
     inkscape:label="Layer 1"
     inkscape:groupmode="layer"
     id="layer1"
     transform="translate(0,-97.179788)">
    <path
       sodipodi:nodetypes="cccc"
       inkscape:connector-curvature="0"
       id="path4488"
       d="M 6.7199328,290.27957 114.32644,103.89949 221.93302,290.27955 Z"
       style="fill:#e20a16;fill-opacity:1;stroke:#e20a16;stroke-width:13.22916698;stroke-linejoin:round;stroke-miterlimit:4;stroke-dasharray:none;stroke-opacity:1" />
    <path
       style="fill:#ffffff;fill-opacity:1;stroke:none;stroke-width:13.22916603;stroke-linejoin:round;stroke-miterlimit:4;stroke-dasharray:none;stroke-opacity:1"
       d="m 114.32652,130.35801 -84.692887,146.6924 169.385727,-2e-5 z"
       id="rect5050"
       inkscape:connector-curvature="0"
       sodipodi:nodetypes="cccc" />
    <path
       d="m 129.71042,211.97153 c 3.34542,-0.35788 9.6121,0.97371 9.82017,5.3679 0.11795,0.19981 0.55674,0.47436 0.79029,0.47436 h 0.63224 l 0.79029,-0.63249 c 4.0364,0.80725 10.13676,3.83659 13.1243,6.48309 l 1.31401,0.25799 h -0.0236 l 5.21807,0.79063 1.73157,0.79062 c 0.35858,0.35785 0.67469,0.94043 0.75018,1.73935 l -0.26657,0.84057 -0.31612,0.42445 c -0.42464,0.36617 -1.1819,0.64082 -1.73865,0.63249 v 2.99604 l 1.10642,0.47436 1.26447,2.05562 c 0.0472,1.14847 -0.0708,2.33858 -0.16514,3.47873 l 1.58059,2.36354 c 1.20785,0.24967 5.90054,2.88787 7.11571,3.64518 l 2.21282,5.05167 c -0.23591,1.69784 -1.1819,4.27766 -1.90614,5.84228 l -2.67969,1.42324 c -0.84927,0.53268 -2.87124,1.73935 -3.79506,1.73935 h -1.73864 c -2.54664,0 -5.46789,-2.52998 -6.16689,-4.90185 l -3.95312,-1.7311 c -0.51664,0.5492 -2.09723,1.42324 -2.84624,1.42324 h -1.73864 c -1.98164,0 -4.26948,-1.6063 -5.37613,-3.1625 -0.43171,0.23355 -0.9743,0.62422 -1.42252,0.79053 -0.79973,0.29135 -2.31427,0.3994 -3.1626,0.31636 l 0.31612,10.26976 2.53012,1.58129 v 3.9448 c -0.5072,-0.0495 -1.07338,-0.15098 -1.58059,-0.15098 -0.83275,0 -1.69854,0.0991 -2.53012,0.15098 -0.93183,0.059 -1.91321,0.15806 -2.84623,0.15806 -0.99082,0 -2.01466,-0.0991 -3.0043,-0.15806 l -1.8967,-4.73542 -1.26447,-0.63247 c 0.3916,-0.79053 0.79029,-2.13875 0.79029,-3.00437 0,-1.17341 -0.84927,-2.84623 -1.26447,-3.94479 -0.82332,-0.15098 -2.13969,-0.64073 -2.84624,-0.64073 h -2.21282 c -0.61572,0 -1.43196,0.22412 -2.05476,0.32461 v 6.31667 l 1.58058,0.79053 c -1.04979,0.19108 -2.10666,0.33286 -3.16259,0.47441 0.0472,0.15806 -0.39868,1.35647 -0.47417,1.58129 -0.56618,0.092 -1.33996,0.31636 -1.89671,0.31636 -1.0144,0 -2.1562,-0.13211 -3.16235,-0.31636 -1.33996,0.22412 -2.84624,-1.23167 -2.84624,-2.53 0,-1.8809 1.50746,-3.37887 2.05476,-5.21811 -1.2739,0.74901 -5.58419,0.94883 -7.11547,0.94883 -4.01139,0 -11.784345,-2.08897 -15.812481,-3.16247 l 3.370656,6.42482 0.55363,1.01824 1.894414,1.5875 -1.25941,1.50812 -4.43309,-0.80163 c -2.31426,-0.44091 -5.04325,-1.10688 -6.95742,-2.52991 l -5.80075,-7.20714 c -2.66317,2.30529 -4.45254,6.0753 -5.06826,9.48746 l 3.48696,4.1029 c 0.0472,0.38288 -0.0708,0.90707 -0.16513,1.26494 l -0.63224,0.63247 c -1.7646,0.19109 -3.612,0.31612 -5.37636,0.31612 -1.0663,0 -2.26472,-0.21704 -3.3289,-0.31612 l -2.67969,-2.84624 0.16514,-3.15416 v -2.84624 l -1.42253,-1.10688 v -5.53435 c -1.02384,-1.12363 -1.92973,-2.48006 -2.68818,-3.78666 l -1.26447,-0.15806 -0.16513,0.79053 -0.63224,0.79053 1.10641,-10.26976 c 0.25006,-1.14848 0.84927,-2.55495 1.57351,-3.47873 0.57326,-0.72405 1.39894,-1.38983 2.0642,-2.05561 l 5.53418,-9.16289 c 2.97127,-2.69644 10.84401,-9.08799 14.38948,-10.42788 l 11.85087,-4.11123 c 6.316691,-1.33157 13.307371,-1.54797 19.765601,-1.42312 l 14.67234,1.95575"
       style="fill:#000000;fill-opacity:1;fill-rule:evenodd;stroke:none;stroke-width:8.32233047"
       id="path5510"
       inkscape:connector-curvature="0"
       sodipodi:nodetypes="ccsccccccccccccccccccccssccssccccccscscccscsscccccscscsccccccccccccscccccccccccccccccc" />
  </g>
</svg>
