<?xml version="1.0" encoding="UTF-8" standalone="no"?>
<!-- Created with Inkscape (http://www.inkscape.org/) -->

<svg
   xmlns:dc="http://purl.org/dc/elements/1.1/"
   xmlns:cc="http://creativecommons.org/ns#"
   xmlns:rdf="http://www.w3.org/1999/02/22-rdf-syntax-ns#"
   xmlns:svg="http://www.w3.org/2000/svg"
   xmlns="http://www.w3.org/2000/svg"
   xmlns:sodipodi="http://sodipodi.sourceforge.net/DTD/sodipodi-0.dtd"
   xmlns:inkscape="http://www.inkscape.org/namespaces/inkscape"
   width="864.20001"
   height="755.22601"
   viewBox="0 0 228.65291 199.82022"
   version="1.1"
   id="svg4490"
   inkscape:version="0.92.2 (5c3e80d, 2017-08-06)"
   sodipodi:docname="11 SADC.svg">
  <defs
     id="defs4484" />
  <sodipodi:namedview
     id="base"
     pagecolor="#ffffff"
     bordercolor="#666666"
     borderopacity="1.0"
     inkscape:pageopacity="0.0"
     inkscape:pageshadow="2"
     inkscape:zoom="0.35"
     inkscape:cx="592.18049"
     inkscape:cy="293.19218"
     inkscape:document-units="px"
     inkscape:current-layer="layer1"
     showgrid="false"
     units="px"
     inkscape:window-width="1920"
     inkscape:window-height="1057"
     inkscape:window-x="-8"
     inkscape:window-y="-8"
     inkscape:window-maximized="1" />
  <metadata
     id="metadata4487">
    <rdf:RDF>
      <cc:Work
         rdf:about="">
        <dc:format>image/svg+xml</dc:format>
        <dc:type
           rdf:resource="http://purl.org/dc/dcmitype/StillImage" />
        <dc:title></dc:title>
      </cc:Work>
    </rdf:RDF>
  </metadata>
  <g
     inkscape:label="Layer 1"
     inkscape:groupmode="layer"
     id="layer1"
     transform="translate(0,-97.179783)">
    <path
       sodipodi:nodetypes="cccc"
       inkscape:connector-curvature="0"
       id="path4488"
       d="M 6.7199328,290.27958 114.32645,103.8995 221.93303,290.27956 Z"
       style="fill:#e20a16;fill-opacity:1;stroke:#e20a16;stroke-width:13.22916698;stroke-linejoin:round;stroke-miterlimit:4;stroke-dasharray:none;stroke-opacity:1" />
    <path
       style="fill:#ffffff;fill-opacity:1;stroke:none;stroke-width:13.22916603;stroke-linejoin:round;stroke-miterlimit:4;stroke-dasharray:none;stroke-opacity:1"
       d="M 114.32653,130.35788 29.633631,277.05029 199.01937,277.0504 Z"
       id="rect5050"
       inkscape:connector-curvature="0"
       sodipodi:nodetypes="cccc" />
    <path
       d="m 71.910119,219.92206 -1.78875,2.83482 h 13.14504 l 0.92884,0.62718 0.31981,0.92823 v 15.57907 l -0.31981,0.93637 -0.92884,0.3073 h -19.01602 l -0.93697,-0.3073 -0.24462,-0.93637 -0.069,-4.71638 -2.14056,3.64578 v 11.01319 l -0.30726,0.92823 -0.93638,0.30734 h -5.92054 l -1.87339,3.11891 H 156.86115 l 1.55539,-0.62717 c 1.10384,-0.85294 2.23276,-1.76422 3.42877,-2.49174 l 0.3073,-1.23808 v -7.48408 c 0.12544,-3.56235 -0.96142,-7.26707 -2.18254,-10.58673 l -4.04718,-9.03949 h 1.86459 v -2.80159 h -23.99139 l -0.93637,-0.93637 -1.24617,-0.30733 h -7.48412 l 14.02365,-9.03136 -17.13443,-10.91284 -17.15139,10.91284 14.34164,9.03136 h -7.79393 l -1.24618,0.30733 -0.93636,0.93637 H 71.906369"
       style="fill:#000000;fill-opacity:1;fill-rule:nonzero;stroke:none;stroke-width:0.50691748"
       id="path5435"
       inkscape:connector-curvature="0" />
    <path
       d="m 115.09311,256.68272 h 35.84181 c 0.35122,1.28824 -1.18721,4.18956 -2.17436,4.98417 l -1.87277,0.93637 h -1.87403 c -0.66043,0 -1.51273,-0.21949 -2.18254,-0.30729 -1.10384,-0.62718 -2.25722,-1.98188 -2.80162,-3.11896 h -14.02369 c -0.54565,1.13708 -1.69712,2.49178 -2.8097,3.11896 -1.34591,0.28223 -2.67558,0.30729 -4.04718,0.30729 -1.91478,0 -4.53261,-4.1726 -4.05592,-5.92054"
       style="fill:#000000;fill-opacity:1;fill-rule:nonzero;stroke:none;stroke-width:0.50691748"
       id="path5437"
       inkscape:connector-curvature="0" />
    <path
       d="m 52.451319,259.17515 h -3.42815 l 1.55543,-2.49243 h 12.46823 c 0.27597,1.49708 -0.69426,4.0478 -1.87337,4.98417 l -1.86457,0.93637 h -2.18258 c -1.20421,0 -2.92703,-0.66041 -3.73798,-1.55537 l -0.93701,-1.87274"
       style="fill:#000000;fill-opacity:1;fill-rule:nonzero;stroke:none;stroke-width:0.50691748"
       id="path5439"
       inkscape:connector-curvature="0" />
    <path
       d="m 120.39586,218.67585 h 1.24493 l 14.33346,-9.03136 -14.95185,-9.34868 -14.65081,9.34868 14.02365,9.03136"
       style="fill:#ffffff;fill-opacity:1;fill-rule:nonzero;stroke:none;stroke-width:0.50691748"
       id="path5441"
       inkscape:connector-curvature="0" />
    <path
       d="m 153.7447,223.66002 4.67433,9.96773 0.62089,2.18254 c 0,1.87339 -1.15399,3.78001 -2.80156,4.67497 l -1.24557,0.40769 c -0.33241,0.11918 -0.86175,0.30729 -1.24623,0.20698 h -4.05592 l -0.92823,-0.30734 c -0.64411,-0.85298 -0.31985,-14.55866 -0.31985,-16.51543 l 0.31985,-0.9282 0.92823,-0.62722 h 3.11956 l 0.93636,0.93642"
       style="fill:#ffffff;fill-opacity:1;fill-rule:nonzero;stroke:none;stroke-width:0.50691748"
       id="path5443"
       inkscape:connector-curvature="0" />
    <path
       d="m 135.35526,222.72365 c -0.30106,0.2007 -0.65228,0.40141 -0.93636,0.62717 l -0.62093,0.92824 v 25.55489 l 0.62093,0.92823 0.93636,0.30734 h 9.6585 l 0.9364,-0.30734 0.31985,-0.92823 v -25.55489 l -0.31985,-0.92824 -0.9364,-0.62717 h -9.6585"
       style="fill:#ffffff;fill-opacity:1;fill-rule:nonzero;stroke:none;stroke-width:0.50691748"
       id="path5445"
       inkscape:connector-curvature="0" />
    <path
       d="m 111.66555,222.72365 -0.92819,0.62717 -0.31989,0.92824 v 15.57903 l 0.31989,0.93637 0.92819,0.30733 h 19.01599 l 0.93636,-0.30733 0.30735,-0.93637 v -15.57903 l -0.30735,-0.92824 -0.93636,-0.62717 h -19.01599"
       style="fill:#ffffff;fill-opacity:1;fill-rule:nonzero;stroke:none;stroke-width:0.50691748"
       id="path5447"
       inkscape:connector-curvature="0" />
    <path
       d="m 97.332089,241.10369 h -9.34868 l -0.93705,-0.30733 -0.30728,-0.93637 v -15.57907 l 0.30728,-0.92823 0.93705,-0.62718 h 19.007151 l 0.93703,0.62718 0.30734,0.92823 v 15.57907 l -0.30734,0.93637 -0.93703,0.30733 h -9.658471"
       style="fill:#ffffff;fill-opacity:1;fill-rule:nonzero;stroke:none;stroke-width:0.50691748"
       id="path5449"
       inkscape:connector-curvature="0" />
  </g>
</svg>
