<?xml version="1.0" encoding="UTF-8" standalone="no"?>
<!-- Created with Inkscape (http://www.inkscape.org/) -->

<svg
   xmlns:dc="http://purl.org/dc/elements/1.1/"
   xmlns:cc="http://creativecommons.org/ns#"
   xmlns:rdf="http://www.w3.org/1999/02/22-rdf-syntax-ns#"
   xmlns:svg="http://www.w3.org/2000/svg"
   xmlns="http://www.w3.org/2000/svg"
   xmlns:sodipodi="http://sodipodi.sourceforge.net/DTD/sodipodi-0.dtd"
   xmlns:inkscape="http://www.inkscape.org/namespaces/inkscape"
   width="864.20001"
   height="755.22601"
   viewBox="0 0 228.65291 199.82022"
   version="1.1"
   id="svg4490"
   inkscape:version="0.92.1 r15371"
   sodipodi:docname="55.svg">
  <defs
     id="defs4484" />
  <sodipodi:namedview
     id="base"
     pagecolor="#ffffff"
     bordercolor="#666666"
     borderopacity="1.0"
     inkscape:pageopacity="0.0"
     inkscape:pageshadow="2"
     inkscape:zoom="0.7"
     inkscape:cx="323.73565"
     inkscape:cy="259.95272"
     inkscape:document-units="px"
     inkscape:current-layer="layer1"
     showgrid="false"
     units="px"
     inkscape:window-width="1920"
     inkscape:window-height="1057"
     inkscape:window-x="-8"
     inkscape:window-y="-8"
     inkscape:window-maximized="1" />
  <metadata
     id="metadata4487">
    <rdf:RDF>
      <cc:Work
         rdf:about="">
        <dc:format>image/svg+xml</dc:format>
        <dc:type
           rdf:resource="http://purl.org/dc/dcmitype/StillImage" />
        <dc:title></dc:title>
      </cc:Work>
    </rdf:RDF>
  </metadata>
  <g
     inkscape:label="Layer 1"
     inkscape:groupmode="layer"
     id="layer1"
     transform="translate(0,-97.179791)">
    <path
       sodipodi:nodetypes="cccc"
       inkscape:connector-curvature="0"
       id="path4488"
       d="M 6.7199328,290.27958 114.32645,103.8995 221.93303,290.27956 Z"
       style="fill:#e20a16;fill-opacity:1;stroke:#e20a16;stroke-width:13.22916698;stroke-linejoin:round;stroke-miterlimit:4;stroke-dasharray:none;stroke-opacity:1" />
    <path
       style="fill:#ffffff;fill-opacity:1;stroke:none;stroke-width:13.22916603;stroke-linejoin:round;stroke-miterlimit:4;stroke-dasharray:none;stroke-opacity:1"
       d="m 114.32653,130.35802 -84.692897,146.6924 169.385737,-2e-5 z"
       id="rect5050"
       inkscape:connector-curvature="0"
       sodipodi:nodetypes="cccc" />
    <path
       d="M 92.498346,225.45676 H 136.1546 v -47.625 H 92.498346 Z"
       style="fill:#000000;fill-opacity:1;fill-rule:nonzero;stroke:none;stroke-width:0.69483942;stroke-linecap:butt;stroke-linejoin:miter;stroke-miterlimit:3.86400008;stroke-dasharray:none;stroke-opacity:1"
       id="path6008"
       inkscape:connector-curvature="0"
       sodipodi:nodetypes="ccccc" />
    <path
       d="m 132.90263,268.32695 c 0.26511,-0.11496 0.6053,-0.16657 0.88684,-0.19942 0.40587,-0.40565 0.78595,-0.77798 1.28332,-1.08415 0.0164,-0.24001 0.29797,-0.84414 0.29797,-0.88566 v -0.49668 c 0,-0.21585 -0.52084,-1.2085 -0.69446,-1.38211 -0.29796,-0.0751 -0.66161,-0.27309 -0.88448,-0.49668 h -1.38188 l -0.33081,0.13138 c -0.52084,0.21585 -0.57949,0.72004 -0.85164,1.15055 -0.25573,0.41386 -0.49738,0.7449 -0.49738,1.28287 0,0.61257 0.29796,1.00156 0.59592,1.4898 0.0469,0.0657 0.16423,0.33925 0.18769,0.38898 0.14077,0.16658 0.58653,0.28975 0.78595,0.29796 z"
       style="fill:#000000;fill-opacity:1;fill-rule:nonzero;stroke:none;stroke-width:0.68696159;stroke-linecap:butt;stroke-linejoin:miter;stroke-miterlimit:3.86400008;stroke-dasharray:none;stroke-opacity:1"
       id="path6010"
       inkscape:connector-curvature="0" />
    <path
       d="m 127.96142,268.32695 v -0.88566 c -0.16424,-0.2813 -0.30735,-0.629 -0.48801,-0.89388 -0.29795,-0.41386 -1.10971,-0.57105 -1.58129,-0.78619 -0.34723,0.54618 -1.16838,0.38899 -1.48276,1.08415 v 0.59592 l 0.78596,0.78619 c 0.34723,0.19003 0.82819,0.21584 1.19184,0.3972 0.37303,0.183 0.44576,0.3972 0.98537,0.48823 0.16423,-0.0258 0.44577,-0.0915 0.58889,-0.19942 z"
       style="fill:#000000;fill-opacity:1;fill-rule:nonzero;stroke:none;stroke-width:0.68696159;stroke-linecap:butt;stroke-linejoin:miter;stroke-miterlimit:3.86400008;stroke-dasharray:none;stroke-opacity:1"
       id="path6012"
       inkscape:connector-curvature="0" />
    <path
       d="m 92.520916,256.37547 c -0.0704,0.28975 0.1173,0.53797 0.18769,0.79464 0.21114,0.76977 0.18769,1.32416 0.78595,1.97803 0.29796,0.0328 0.71088,0.19004 0.98538,0.19004 0.82818,0 1.58129,-0.49668 1.58129,-1.38211 v -2.26778 c 0,-1.2167 -0.50441,-1.2167 -1.18245,-1.97803 -0.0938,-0.0166 -0.74607,-0.19942 -0.78595,-0.19942 -0.28858,0 -0.85165,0.11496 -1.08392,0.29796 -0.63815,0.82772 -0.49738,1.69673 -0.49738,2.66507 z"
       style="fill:#000000;fill-opacity:1;fill-rule:evenodd;stroke:none;stroke-width:0.68696159;stroke-linecap:butt;stroke-linejoin:miter;stroke-miterlimit:3.86400008;stroke-dasharray:none;stroke-opacity:1"
       id="path6014"
       inkscape:connector-curvature="0" />
    <path
       d="m 115.86105,216.72551 h -3.06916 v -12.7 h 3.06916 z"
       style="fill:#ffffff;fill-opacity:1;fill-rule:nonzero;stroke:none;stroke-width:0.68926781;stroke-linecap:butt;stroke-linejoin:miter;stroke-miterlimit:3.86400008;stroke-dasharray:none;stroke-opacity:1"
       id="path6016"
       inkscape:connector-curvature="0" />
    <path
       d="m 115.86105,195.02967 h -3.06916 v -12.7 h 3.06916 z"
       style="fill:#ffffff;fill-opacity:1;fill-rule:nonzero;stroke:none;stroke-width:0.68931311;stroke-linecap:butt;stroke-linejoin:miter;stroke-miterlimit:3.86400008;stroke-dasharray:none;stroke-opacity:1"
       id="path6018"
       inkscape:connector-curvature="0" />
    <path
       d="m 120.76065,267.92968 c 0.49738,-0.31461 0.42934,-0.90209 0.58654,-1.38211 0.0704,-0.19942 0.37303,-0.5877 0.49738,-0.78619 l 0.48799,-0.19942 0.0939,-0.69516 -0.28858,-0.48823 c -0.36365,-0.10792 -0.52084,-0.38078 -0.79534,-0.59592 -0.52084,-0.40565 -1.60476,-0.98491 -2.26871,-0.98491 -0.49738,0 -1.06749,0.45515 -1.28334,0.88567 -0.14076,0.26488 -0.49738,2.65679 -0.49738,3.06236 0,0.26488 0.31439,1.51467 0.49738,1.68007 0.38008,0 0.86808,0.183 1.1848,0.38899 0.35661,-0.24822 0.89388,-0.17361 1.18245,-0.48823 z"
       style="fill:#000000;fill-opacity:1;fill-rule:nonzero;stroke:none;stroke-width:0.68696159;stroke-linecap:butt;stroke-linejoin:miter;stroke-miterlimit:3.86400008;stroke-dasharray:none;stroke-opacity:1"
       id="path6020"
       inkscape:connector-curvature="0" />
    <path
       d="m 114.13939,267.83863 0.59591,-0.3972 c -0.32376,-0.30617 -0.31438,-0.63721 -0.49737,-0.99312 -0.18769,-0.37257 -0.56308,-0.49668 -0.78596,-0.78619 -0.0469,-0.0657 -0.14077,-0.43028 -0.18769,-0.49668 l -0.49738,-0.38899 c -0.45516,-0.0985 -0.71088,-0.24001 -0.98538,-0.29796 -0.0235,-0.0166 -0.34019,0 -0.3965,0 l -0.48799,0.29796 c -0.11731,0.64566 -0.49738,1.0926 -0.49738,1.7711 0,0.11496 0.48096,1.26644 0.59592,1.38211 0.48095,0.12434 1.91209,0.66208 2.36725,0.59592 z"
       style="fill:#000000;fill-opacity:1;fill-rule:nonzero;stroke:none;stroke-width:0.68696159;stroke-linecap:butt;stroke-linejoin:miter;stroke-miterlimit:3.86400008;stroke-dasharray:none;stroke-opacity:1"
       id="path6022"
       inkscape:connector-curvature="0" />
    <path
       d="m 104.9606,268.32695 c 0.0704,-0.0165 0.92672,-0.72003 0.98537,-0.79463 0.0235,-0.0258 0.16424,-0.33925 0.18769,-0.38899 -0.0938,-0.43028 -0.008,-1.03465 -0.29795,-1.38211 -0.53727,-0.30617 -1.02527,-0.79464 -1.6728,-0.79464 h -0.79534 c -0.70384,0 -1.41472,0.28975 -1.64699,0.99312 l -0.14076,0.38899 c 0,0.53797 0.42934,1.49801 0.89387,1.77955 0.61235,0.11496 1.24111,0.52131 1.86987,0.3972 z"
       style="fill:#000000;fill-opacity:1;fill-rule:nonzero;stroke:none;stroke-width:0.68696159;stroke-linecap:butt;stroke-linejoin:miter;stroke-miterlimit:3.86400008;stroke-dasharray:none;stroke-opacity:1"
       id="path6024"
       inkscape:connector-curvature="0" />
    <path
       d="m 97.950336,268.22764 0.3965,-0.0985 c 0.11731,-0.21584 0.29796,-0.7449 0.29796,-0.98491 0,-0.0493 -0.0939,-0.32283 -0.0939,-0.3972 -0.14076,-0.73669 -0.1173,-1.89544 -0.29796,-2.46644 -0.54665,-0.3477 -0.95253,-0.99312 -1.67983,-0.99312 h -1.58129 c -0.23931,0 -0.76953,0.19003 -0.98538,0.29796 -0.11731,0.20646 -0.37304,0.50488 -0.59592,0.59591 0.0469,0.68695 -0.0939,1.44851 -0.38946,2.06906 0.16423,0.4636 0.45515,0.88567 0.488,1.38211 1.15899,0.82772 1.99421,0.69516 3.36013,0.69516 z"
       style="fill:#000000;fill-opacity:1;fill-rule:nonzero;stroke:none;stroke-width:0.68696159;stroke-linecap:butt;stroke-linejoin:miter;stroke-miterlimit:3.86400008;stroke-dasharray:none;stroke-opacity:1"
       id="path6026"
       inkscape:connector-curvature="0" />
    <path
       d="m 131.52029,260.03376 c 0.14076,0.0258 0.2745,0.17361 0.36365,0.26488 0.3965,0.3972 0.82819,0.629 1.31618,0.91874 h 0.58888 c 0.4223,-0.23226 0.77891,-0.53797 1.18244,-0.79463 0.0704,-0.37257 0.0938,-0.81106 0.18769,-1.17518 0.047,-0.17362 0.16423,-0.33104 0.1877,-0.50489 0.0938,-0.45515 -0.0235,-1.08415 0,-1.57262 0.0235,-0.42207 0.1173,-0.86901 0.18769,-1.28286 -0.0938,-0.25667 -0.67804,-0.68695 -0.89388,-0.79464 -0.18769,-0.0985 -1.18244,-0.3477 -1.44052,-0.42207 -0.0938,-0.0329 -0.14077,-0.0657 -0.23462,-0.0657 h -1.18479 c -0.48096,0.4718 -1.19184,1.24978 -1.19184,1.96981 v 1.77955 c 0,0.17361 0.41292,0.96825 0.59592,1.08415 z"
       style="fill:#000000;fill-opacity:1;fill-rule:nonzero;stroke:none;stroke-width:0.68696159;stroke-linecap:butt;stroke-linejoin:miter;stroke-miterlimit:3.86400008;stroke-dasharray:none;stroke-opacity:1"
       id="path6028"
       inkscape:connector-curvature="0" />
    <path
       d="m 128.45809,263.18715 c 0.23461,-0.16657 0.45515,-0.33925 0.68742,-0.48823 0.0704,-0.32283 0.0939,-0.79463 0.1877,-1.08415 0.0235,-0.0821 0.25573,-0.31462 0.29796,-0.3972 0.0938,-0.19942 0.11731,-0.76132 0.0938,-0.98491 -0.60531,-0.15719 -0.8282,-0.53797 -1.28334,-0.89387 -0.28858,-0.22289 -0.671,-0.40565 -0.98538,-0.59592 h -0.89388 c -0.58653,0 -0.86103,0.5131 -1.38187,0.69516 -0.0235,0.14076 -0.0939,0.35591 -0.0939,0.49667 0,0.31439 0.0939,0.64566 0.0939,0.98491 0,0.29796 -0.16423,0.69516 -0.38946,0.89388 v 0.48823 c 0,0.17361 0.0704,0.42207 0.0938,0.59592 l 1.0933,1.08415 h 0.58654 c 0.16423,0 1.01822,-0.4636 1.18245,-0.58771 z"
       style="fill:#000000;fill-opacity:1;fill-rule:nonzero;stroke:none;stroke-width:0.68696159;stroke-linecap:butt;stroke-linejoin:miter;stroke-miterlimit:3.86400008;stroke-dasharray:none;stroke-opacity:1"
       id="path6030"
       inkscape:connector-curvature="0" />
    <path
       d="m 119.96625,259.83511 0.29796,0.0985 c 0.14077,0.0258 0.35661,0.0985 0.49738,0.0985 0.16423,0 0.41292,-0.0751 0.58654,-0.0985 0.1173,-0.20646 0.37303,-0.50489 0.59591,-0.59592 -0.047,-0.31438 -0.0938,-0.67874 -0.18769,-0.98491 -0.047,-0.15719 -0.16423,-0.33925 -0.18769,-0.49668 -0.0235,-0.13138 0,-0.34769 0,-0.48823 -0.26511,-0.24001 -0.73669,-0.3972 -1.08391,-0.3972 h -0.59592 c -0.16423,0 -0.41293,0.0657 -0.59592,0.0985 -0.25573,0.22288 -0.488,0.5131 -0.68742,0.78619 v 0.59592 c 0,0.33104 0.4223,0.90209 0.68742,1.08415 0.16423,0.11496 0.51381,0.19942 0.69445,0.29796 z"
       style="fill:#000000;fill-opacity:1;fill-rule:nonzero;stroke:none;stroke-width:0.68696159;stroke-linecap:butt;stroke-linejoin:miter;stroke-miterlimit:3.86400008;stroke-dasharray:none;stroke-opacity:1"
       id="path6032"
       inkscape:connector-curvature="0" />
    <path
       d="m 113.45244,262.0036 c 0.35661,0.183 0.70383,0.36412 1.08391,0.49667 0.52084,-0.0915 1.02527,-0.42207 1.28334,-0.88566 v -0.49668 c 0,-0.88567 -0.91969,-1.71338 -1.71268,-1.94495 l -0.46453,-0.12434 h -0.38946 c -0.21116,0 -0.671,0.13138 -0.8845,0.19942 -0.0938,0.25667 -0.21115,0.50489 -0.3308,0.75311 l -0.0704,0.62079 c 0,0.19003 0.488,0.95183 0.58888,1.19183 z"
       style="fill:#000000;fill-opacity:1;fill-rule:nonzero;stroke:none;stroke-width:0.68696159;stroke-linecap:butt;stroke-linejoin:miter;stroke-miterlimit:3.86400008;stroke-dasharray:none;stroke-opacity:1"
       id="path6034"
       inkscape:connector-curvature="0" />
    <path
       d="m 105.84626,263.28649 c 0.2487,0.0821 0.93611,0.29796 1.1848,0.29796 0.0235,0 0.62876,-0.17362 0.69446,-0.19004 0.27215,-0.26488 0.48799,-0.91054 0.48799,-1.29108 v -0.98491 c 0,-0.28974 -0.16423,-0.69516 -0.38945,-0.88566 -0.58888,-0.20646 -1.64699,-0.89388 -2.17722,-0.89388 h -0.58653 c -0.58654,0.24822 -0.88449,1.20826 -0.88449,1.77954 0,0.52976 0.30734,1.1421 0.38945,1.68007 0.18769,0.20646 0.44577,0.46336 0.69446,0.59592 h 0.28857 z"
       style="fill:#000000;fill-opacity:1;fill-rule:nonzero;stroke:none;stroke-width:0.68696159;stroke-linecap:butt;stroke-linejoin:miter;stroke-miterlimit:3.86400008;stroke-dasharray:none;stroke-opacity:1"
       id="path6036"
       inkscape:connector-curvature="0" />
    <path
       d="m 99.233206,262.30156 c 0.16423,0.22288 0.51381,0.5131 0.785964,0.59592 0.83522,-0.0328 1.67983,-0.57927 1.67983,-1.48159 v -0.49668 l -0.0938,-0.49667 c -0.27216,-0.41386 -0.42935,-0.79464 -0.58654,-0.98491 l -0.3965,-0.28975 -0.785954,-0.0985 h -0.59592 c -0.52085,0 -1.34903,0.62079 -1.5813,1.08415 v 0.48823 c 0,0.27309 0.11731,0.72003 0.18769,0.99312 0.41292,0.23227 0.88684,0.67053 1.38187,0.68695 z"
       style="fill:#000000;fill-opacity:1;fill-rule:nonzero;stroke:none;stroke-width:0.68696159;stroke-linecap:butt;stroke-linejoin:miter;stroke-miterlimit:3.86400008;stroke-dasharray:none;stroke-opacity:1"
       id="path6038"
       inkscape:connector-curvature="0" />
    <path
       d="m 97.751626,253.90903 c 0.3308,0.81106 0.78595,2.35057 1.58129,2.7644 h 3.749364 c 0.4223,0 0.69445,-0.64565 0.69445,-0.9849 0,-0.94362 -0.49737,-1.59749 -0.59591,-2.46645 l -0.28858,-0.29796 c 0.008,-0.47181 -0.94314,-1.70494 -1.29037,-1.97803 -0.28154,-0.22288 -0.66161,-0.24822 -0.88449,-0.5877 -0.60531,-0.10793 -1.158994,-0.19943 -1.780734,-0.19943 -0.16422,0 -0.41291,0.0657 -0.58887,0.0985 -0.43873,0.32283 -0.89388,1.23313 -0.89388,1.7711 v 0.99312 c 0,0.13138 0.0704,0.35591 0.0939,0.48823 z"
       style="fill:#000000;fill-opacity:1;fill-rule:nonzero;stroke:none;stroke-width:0.68696159;stroke-linecap:butt;stroke-linejoin:miter;stroke-miterlimit:3.86400008;stroke-dasharray:none;stroke-opacity:1"
       id="path6040"
       inkscape:connector-curvature="0" />
    <path
       d="m 107.22837,256.37547 0.98538,0.79464 c 0.21115,0.0328 0.488,0.0985 0.69445,0.0985 0.047,0 0.32377,-0.0915 0.3965,-0.0985 0.18769,-0.0328 0.50442,-0.0328 0.68742,-0.0985 0.047,-0.0166 0.33081,-0.25666 0.3965,-0.29796 0.52084,-0.32282 0.59592,-0.33925 0.78595,-0.9849 -0.23461,-0.7449 -0.34723,-2.12701 -0.58653,-2.66507 -0.11731,-0.25667 -0.63815,-0.98491 -0.88684,-1.0926 l -0.66161,-0.19942 -0.91968,-0.28975 h -0.69447 c -0.0167,0 -0.62875,0.27309 -0.68741,0.28975 -0.23931,0.45515 -0.69446,0.8608 -0.69446,1.39055 v 0.58771 c 0,0.83593 1.05811,1.38211 0.89388,2.0775 z"
       style="fill:#000000;fill-opacity:1;fill-rule:nonzero;stroke:none;stroke-width:0.68696159;stroke-linecap:butt;stroke-linejoin:miter;stroke-miterlimit:3.86400008;stroke-dasharray:none;stroke-opacity:1"
       id="path6042"
       inkscape:connector-curvature="0" />
    <path
       d="m 114.33811,255.29123 c 0.38007,0.13139 0.97599,0.29796 1.38187,0.29796 0.39649,0 0.64518,-0.183 0.99241,-0.29796 0.14077,-0.0493 0.33081,-0.0422 0.488,-0.0985 0.62172,-0.23226 1.08391,-1.498 1.67983,-1.7711 0.16423,-0.53796 0.488,-1.2167 0.488,-1.77954 v -0.99312 c 0,-0.38899 -0.11731,-0.76977 -0.0939,-1.18362 -0.63815,-0.54618 -0.71088,-0.90209 -1.57191,-1.28287 -0.047,-0.0258 -0.36365,-0.19942 -0.39649,-0.19942 h -1.5813 c -1.90272,0 -1.53202,1.01799 -2.56573,1.58082 -0.047,0.70361 -0.3965,1.34903 -0.3965,2.07751 0,0.71181 0.6053,2.54093 0.88684,3.26101 z"
       style="fill:#000000;fill-opacity:1;fill-rule:nonzero;stroke:none;stroke-width:0.68696159;stroke-linecap:butt;stroke-linejoin:miter;stroke-miterlimit:3.86400008;stroke-dasharray:none;stroke-opacity:1"
       id="path6044"
       inkscape:connector-curvature="0" />
    <path
       d="m 129.14504,251.04531 c 0.32378,0.78619 0.95254,1.48159 1.87927,1.48159 0.488,0 0.93611,-0.30617 1.38188,-0.3972 0.28153,-0.0493 0.61234,0.0587 0.88684,-0.0985 0.16423,-0.0915 0.34019,-0.27309 0.49738,-0.38899 1.25048,-0.94362 0.86806,-0.95183 1.58129,-2.27599 -0.14077,-0.29796 -0.48096,-1.26644 -0.69446,-1.48158 -0.23461,-0.22289 -0.55369,-0.36412 -0.68741,-0.68695 -0.41292,-0.0258 -0.71088,-0.20646 -1.08392,-0.29796 -0.48095,-0.10792 -1.0018,-0.0985 -1.48275,-0.0985 -0.32377,0 -2.31801,1.22492 -2.56576,1.58083 -0.30734,0.43872 -0.45515,1.05107 -0.3965,1.58082 0.18769,0.28131 0.55369,0.77798 0.68742,1.08415 z"
       style="fill:#000000;fill-opacity:1;fill-rule:nonzero;stroke:none;stroke-width:0.68696159;stroke-linecap:butt;stroke-linejoin:miter;stroke-miterlimit:3.86400008;stroke-dasharray:none;stroke-opacity:1"
       id="path6046"
       inkscape:connector-curvature="0" />
    <path
       d="m 123.22714,254.50495 c 0.18769,0.45515 0.54666,1.03464 0.98538,1.28286 0.14077,0.0821 0.34723,0.10793 0.49738,0.19943 0.37304,0.22288 0.55369,0.53796 1.08392,0.48823 l 0.69445,-0.29796 c 0.56307,-0.92696 1.18246,-1.38211 1.18246,-2.56576 0,-0.13138 -0.31439,-1.00157 -0.3965,-1.18363 -0.8188,-0.45515 -1.58834,-1.08415 -2.56574,-1.08415 h -0.49737 c -0.38008,0 -0.94315,0.40565 -1.18481,0.68695 v 1.77955 z"
       style="fill:#000000;fill-opacity:1;fill-rule:nonzero;stroke:none;stroke-width:0.68696159;stroke-linecap:butt;stroke-linejoin:miter;stroke-miterlimit:3.86400008;stroke-dasharray:none;stroke-opacity:1"
       id="path6048"
       inkscape:connector-curvature="0" />
    <path
       d="m 121.0504,247.58568 c 0.29092,0.33925 0.71088,0.34769 1.0933,0.49667 0.3965,0.16658 0.92672,0.52976 1.28334,0.79464 0.58888,-0.0422 1.17541,0.0985 1.77133,0.0985 l 0.49738,-0.19943 c 0.0235,-0.0751 0.18769,-0.65386 0.18769,-0.69516 v -0.5877 c 0,-0.21585 -0.16423,-2.14367 -0.18769,-2.27599 -0.67804,-0.86901 -1.0018,-1.09259 -1.97779,-1.58083 l -0.38947,-0.19942 h -1.38187 c -0.24869,0.3477 -0.72026,0.5131 -1.09329,0.69516 l -0.1877,0.3972 -0.39649,0.19942 c -0.34723,0.40565 -0.3965,0.86901 -0.3965,1.38211 0,0.24001 0.62172,0.93517 0.79534,1.08415 z"
       style="fill:#000000;fill-opacity:1;fill-rule:nonzero;stroke:none;stroke-width:0.68696159;stroke-linecap:butt;stroke-linejoin:miter;stroke-miterlimit:3.86400008;stroke-dasharray:none;stroke-opacity:1"
       id="path6050"
       inkscape:connector-curvature="0" />
    <path
       d="m 127.17523,243.05008 0.39649,0.29796 c 0.38946,0.59592 1.23407,1.28286 1.77134,1.28286 h 0.79534 c 0.14077,0 0.34724,-0.0751 0.48801,-0.0985 0.23461,-0.25667 0.50442,-0.5131 0.79534,-0.69516 0.0235,-0.17362 0.0938,-0.41386 0.0938,-0.58771 v -0.49668 c 0,-0.36412 -0.14076,-0.71182 -0.0938,-1.08415 -0.23931,-0.28974 -0.47157,-0.5877 -0.69446,-0.89388 -0.25573,-0.0915 -0.50443,-0.19942 -0.75312,-0.32282 l -1.01823,-0.0657 c -0.62876,0 -0.91969,0.43873 -1.48041,0.58771 -0.26512,0.20646 -0.3965,0.67029 -0.3965,0.98491 z"
       style="fill:#000000;fill-opacity:1;fill-rule:nonzero;stroke:none;stroke-width:0.68696159;stroke-linecap:butt;stroke-linejoin:miter;stroke-miterlimit:3.86400008;stroke-dasharray:none;stroke-opacity:1"
       id="path6052"
       inkscape:connector-curvature="0" />
    <path
       d="m 133.39086,242.25551 c 0.23462,0.22288 0.42231,0.58771 0.49738,0.89388 0.16422,0.16658 0.57949,0.28975 0.78595,0.28975 h 0.3965 c 0.4223,2e-5 0.94314,-0.52131 1.08391,-0.88567 v -1.96981 l -0.14077,-0.26488 c -0.28154,-0.57105 -0.43872,-0.83593 -1.05107,-1.12568 -0.35661,0.183 -0.76015,0.3477 -1.0839,0.59592 z"
       style="fill:#000000;fill-opacity:1;fill-rule:nonzero;stroke:none;stroke-width:0.68696159;stroke-linecap:butt;stroke-linejoin:miter;stroke-miterlimit:3.86400008;stroke-dasharray:none;stroke-opacity:1"
       id="path6054"
       inkscape:connector-curvature="0" />
    <path
       d="m 102.49411,248.57889 c 0.21115,0.26488 0.59592,0.52131 0.88684,0.68695 0.61233,-0.008 1.02525,-0.28975 1.58129,-0.48823 0.14077,-0.3972 0.58653,-1.20826 0.58653,-1.58083 v -0.49668 l -0.14077,-0.3972 c -0.2393,-0.72824 -0.8188,-1.27465 -1.63994,-1.27465 h -0.98538 c -0.45515,0.21584 -0.75311,0.71181 -1.19184,0.9849 -0.0469,0.25667 -0.18769,0.63721 -0.18769,0.88567 0,0.28975 0.14077,0.69516 0.18769,0.98491 0.14077,0.0587 0.37304,0.24001 0.3965,0.3972 z"
       style="fill:#000000;fill-opacity:1;fill-rule:nonzero;stroke:none;stroke-width:0.68696159;stroke-linecap:butt;stroke-linejoin:miter;stroke-miterlimit:3.86400008;stroke-dasharray:none;stroke-opacity:1"
       id="path6056"
       inkscape:connector-curvature="0" />
    <path
       d="m 93.406346,248.08228 c 0.49738,0.20646 1.11676,0.49668 1.18245,0.49668 h 1.1848 c 0.0469,0 0.32377,-0.183 0.3965,-0.19942 0.21115,-0.0422 0.47157,0 0.69445,-0.0328 0.85164,-0.14077 0.88684,-0.63721 1.48276,-1.15054 l 0.18769,-0.98491 c -0.0939,-0.45515 -0.61234,-0.66208 -0.89388,-0.99312 -0.46454,-0.0493 -1.22468,-0.0985 -1.64698,-0.25667 l -0.33081,-0.13138 h -0.58653 l -0.33081,0.13138 c -0.48096,0.19004 -1.04169,0.21585 -1.54845,0.35591 -0.34019,0.54618 -0.38946,1.62212 -0.38946,2.26777 z"
       style="fill:#000000;fill-opacity:1;fill-rule:nonzero;stroke:none;stroke-width:0.68696159;stroke-linecap:butt;stroke-linejoin:miter;stroke-miterlimit:3.86400008;stroke-dasharray:none;stroke-opacity:1"
       id="path6058"
       inkscape:connector-curvature="0" />
    <path
       d="m 108.12225,244.43228 c 0,0.49668 -0.0235,2.15188 0.3965,2.46645 0.28857,0.21584 0.65457,0.24822 0.88449,0.59592 h 0.58654 c 0.64518,0 1.14256,-0.58771 1.67983,-0.79464 0.26511,-0.0985 0.6053,-0.11496 0.88684,-0.19942 0.5138,-0.71182 2.55752,-1.12568 3.26113,-1.67186 0.0164,-0.0751 0.0938,-0.33925 0.0938,-0.3972 0,-0.28975 -0.14077,-0.69516 -0.18769,-0.99312 -0.67099,-0.52131 -1.37483,-1.18363 -2.26871,-1.18363 h -1.1848 c -0.67803,0 -2.40854,0.25667 -2.96294,0.69516 -0.1173,0.37257 -0.54665,0.81106 -0.88683,0.98491 z"
       style="fill:#000000;fill-opacity:1;fill-rule:nonzero;stroke:none;stroke-width:0.68696159;stroke-linecap:butt;stroke-linejoin:miter;stroke-miterlimit:3.86400008;stroke-dasharray:none;stroke-opacity:1"
       id="path6060"
       inkscape:connector-curvature="0" />
    <path
       d="m 117.00308,240.58363 c 0.24869,0.84414 1.5813,1.27466 2.36725,1.27466 0.78596,0 2.17722,-0.79464 2.17722,-1.67186 v -1.08415 c 0,-0.53797 -0.54665,-0.81951 -0.69446,-1.29108 -0.44577,-0.28974 -2.11856,-0.68695 -2.66498,-0.68695 l -0.38945,0.19942 c -1.08392,0.54619 -0.86808,1.02621 -1.38188,1.87058 l 0.38946,0.99312 z"
       style="fill:#000000;fill-opacity:1;fill-rule:nonzero;stroke:none;stroke-width:0.68696159;stroke-linecap:butt;stroke-linejoin:miter;stroke-miterlimit:3.86400008;stroke-dasharray:none;stroke-opacity:1"
       id="path6062"
       inkscape:connector-curvature="0" />
    <path
       d="m 123.1279,236.82604 0.88684,0.88567 c 0.25573,0.40564 1.32322,0.69515 1.77838,0.69515 0.26511,0 0.53726,-0.0985 0.81879,-0.0985 0.41292,-0.0493 1.24111,-0.76977 1.34904,-0.98491 0.0469,-0.0657 0.29795,-1.06773 0.29795,-1.18363 v -0.49668 c 0,-0.24 -0.42934,-1.27465 -0.58887,-1.48158 -0.34723,-0.0821 -0.86104,-0.29796 -1.18246,-0.29796 h -0.79534 c -0.53023,0.17361 -0.98538,0.24822 -1.28334,0.3972 -0.52084,0.41386 -0.95253,0.50489 -1.28334,0.78619 -0.0235,0.14781 -0.0938,0.35591 -0.0938,0.49668 z"
       style="fill:#000000;fill-opacity:1;fill-rule:nonzero;stroke:none;stroke-width:0.68696159;stroke-linecap:butt;stroke-linejoin:miter;stroke-miterlimit:3.86400008;stroke-dasharray:none;stroke-opacity:1"
       id="path6064"
       inkscape:connector-curvature="0" />
    <path
       d="m 131.52029,236.42877 c 0.2393,0.3559 0.48096,0.71181 0.68742,1.09259 l 0.39649,0.19004 h 1.08392 c 0.18769,-0.20646 0.61233,-0.3972 0.89386,-0.38899 0.25574,-0.58771 0.98538,-1.76289 0.98538,-2.37542 v -1.08415 c 0,-0.0751 -0.24869,-0.57104 -0.29796,-0.65387 -0.0469,-0.0985 -0.46218,-0.79463 -0.49738,-0.82771 -0.30734,-0.30617 -1.25751,-0.48823 -1.67279,-0.48823 -1.05106,0 -1.86986,0.61257 -2.27574,1.58082 -0.18769,0.48002 -0.18769,1.24979 -0.18769,1.7711 z"
       style="fill:#000000;fill-opacity:1;fill-rule:nonzero;stroke:none;stroke-width:0.68696159;stroke-linecap:butt;stroke-linejoin:miter;stroke-miterlimit:3.86400008;stroke-dasharray:none;stroke-opacity:1"
       id="path6066"
       inkscape:connector-curvature="0" />
    <path
       d="m 133.7883,229.02945 0.29794,0.19942 h 0.8845 l 0.3965,-0.19942 c 0.0939,-0.15719 0.29796,-0.61258 0.29796,-0.79463 0,-0.23227 -0.16423,-0.68695 -0.29796,-0.88567 -0.67803,-0.26488 -0.95957,-0.79464 -1.87925,-0.79464 -0.2393,0 -0.62876,0.22289 -0.78595,0.3972 -0.0938,0.29796 -0.14077,0.59592 -0.1877,0.89388 0.11731,0.37257 0.42231,0.62079 0.69446,0.88567 z"
       style="fill:#000000;fill-opacity:1;fill-rule:nonzero;stroke:none;stroke-width:0.68696159;stroke-linecap:butt;stroke-linejoin:miter;stroke-miterlimit:3.86400008;stroke-dasharray:none;stroke-opacity:1"
       id="path6068"
       inkscape:connector-curvature="0" />
    <path
       d="m 124.70873,229.22807 c 0.0939,0.33926 0.88684,1.10902 1.1848,1.7711 0.2393,0.10792 0.48096,0.24001 0.68742,0.3972 h 2.17721 c 0.56308,0 1.647,-0.3972 1.97077,-0.88566 0.0235,-0.14077 0.0938,-0.35591 0.0938,-0.49668 v -0.98491 l -0.14077,-0.26488 c -0.29093,-0.5877 -0.91969,-0.95182 -1.54847,-1.11723 -0.16423,-0.0493 -0.4223,-0.0329 -0.58888,-0.0985 -0.1173,-0.0493 -0.28153,-0.25667 -0.39649,-0.29797 -0.0939,-0.0329 -1.58834,-0.29795 -1.6728,-0.29795 h -0.99242 c -0.56307,0 -0.91968,0.33104 -1.38187,0.59592 0.16423,0.52154 0.0704,1.32439 0.59592,1.68006 z"
       style="fill:#000000;fill-opacity:1;fill-rule:nonzero;stroke:none;stroke-width:0.68696159;stroke-linecap:butt;stroke-linejoin:miter;stroke-miterlimit:3.86400008;stroke-dasharray:none;stroke-opacity:1"
       id="path6070"
       inkscape:connector-curvature="0" />
    <path
       d="m 103.18105,241.56856 c 0.69446,0.0422 1.38187,0.19942 2.07633,0.19942 0.46454,0 0.671,-0.27309 0.98538,-0.49667 0.11731,-0.0821 0.27215,-0.11496 0.3965,-0.19942 0.39649,-0.28975 0.68741,-0.89388 0.68741,-1.38211 0,-0.17362 -0.0704,-0.41386 -0.0938,-0.58771 -0.58653,-0.58771 -0.96896,-0.8608 -1.67984,-1.29108 h -1.86986 l -0.33081,0.13139 c -0.70384,0.2813 -0.7273,0.60412 -1.25049,1.05951 -0.0235,0.17361 -0.0939,0.41386 -0.0939,0.58771 v 0.69516 c 0.18769,0.23227 0.38946,0.67873 0.3965,0.98491 l 0.29796,0.29795 z"
       style="fill:#000000;fill-opacity:1;fill-rule:nonzero;stroke:none;stroke-width:0.68696159;stroke-linecap:butt;stroke-linejoin:miter;stroke-miterlimit:3.86400008;stroke-dasharray:none;stroke-opacity:1"
       id="path6072"
       inkscape:connector-curvature="0" />
    <path
       d="m 92.719396,240.38501 c 0.18769,0.33104 1.19183,1.18362 1.58129,1.18362 h 2.16783 c 0.0235,0 0.34723,-0.183 0.3965,-0.19942 0.26512,-0.0985 0.65457,-0.15719 0.88684,-0.29796 0.55369,-0.31461 1.38188,-1.50645 1.38188,-2.16853 v -0.59592 c -0.18769,-0.27309 -0.37304,-0.67029 -0.58889,-0.88566 -0.305,-0.30617 -1.3326,-0.99313 -1.78071,-0.99313 h -1.5813 c -0.49738,0 -0.94315,0.31462 -1.34903,0.56284 -1.23407,0.76977 -1.31618,0.66208 -1.31618,2.20162 z"
       style="fill:#000000;fill-opacity:1;fill-rule:nonzero;stroke:none;stroke-width:0.68696159;stroke-linecap:butt;stroke-linejoin:miter;stroke-miterlimit:3.86400008;stroke-dasharray:none;stroke-opacity:1"
       id="path6074"
       inkscape:connector-curvature="0" />
    <path
       d="m 110.09207,237.81097 c 0.29092,0.57926 0.6616,1.30773 1.08391,1.77954 0.14077,0.0328 0.35662,0.0985 0.49738,0.0985 h 0.69446 c 0.57949,0 1.86987,-1.15054 2.06929,-1.68007 0.047,-0.15015 0.047,-0.33925 0.0939,-0.48823 0.0167,-0.0751 0.18769,-0.45515 0.18769,-0.49668 v -1.08414 c -0.23461,-0.22289 -0.41292,-0.58771 -0.49738,-0.89388 -0.25573,-0.24001 -0.59592,-0.23227 -0.88449,-0.38899 -0.16424,-0.0985 -0.32377,-0.30617 -0.49739,-0.39721 -0.37303,-0.20646 -0.95253,-0.17361 -1.38187,-0.3972 l -1.18246,0.3972 c -0.38945,0.90209 -0.98537,1.04286 -0.98537,2.16854 0,0.28975 0.14076,0.70361 0.18769,0.99312 l 0.29796,0.28975 z"
       style="fill:#000000;fill-opacity:1;fill-rule:nonzero;stroke:none;stroke-width:0.68696159;stroke-linecap:butt;stroke-linejoin:miter;stroke-miterlimit:3.86400008;stroke-dasharray:none;stroke-opacity:1"
       id="path6076"
       inkscape:connector-curvature="0" />
    <path
       d="m 115.62097,232.77876 c 0.45515,1.05952 1.4898,1.48159 2.56574,1.48159 0.16423,0 0.34019,-0.0821 0.49738,-0.0985 1.38187,-0.14077 4.04708,-0.43028 4.04708,-2.26777 0,-1.24158 -1.77837,-2.76441 -2.96294,-2.76441 h -2.86369 c -0.59592,0 -2.06929,1.4898 -2.06929,2.26777 0,0.21585 0.14077,0.63721 0.29796,0.79464 z"
       style="fill:#000000;fill-opacity:1;fill-rule:nonzero;stroke:none;stroke-width:0.68696159;stroke-linecap:butt;stroke-linejoin:miter;stroke-miterlimit:3.86400008;stroke-dasharray:none;stroke-opacity:1"
       id="path6078"
       inkscape:connector-curvature="0" />
    <path
       d="m 109.89359,230.61027 c 0.21115,0.0587 0.44576,0.38078 0.49737,0.58772 0.16423,0.0329 0.41292,0.0985 0.59592,0.0985 h 0.98538 c 0.23461,0 0.70384,-0.5131 0.78596,-0.68695 l 0.0938,-0.49668 c 0,-0.19942 -0.38007,-1.34081 -0.48799,-1.48158 -0.14078,-0.19004 -1.14258,-0.78619 -1.38188,-0.78619 h -0.3965 l -0.49738,0.19942 c -0.21115,0.40565 -0.78596,0.93517 -0.78596,1.3739 v 0.49668 l 0.0939,0.3972 z"
       style="fill:#000000;fill-opacity:1;fill-rule:nonzero;stroke:none;stroke-width:0.68696159;stroke-linecap:butt;stroke-linejoin:miter;stroke-miterlimit:3.86400008;stroke-dasharray:none;stroke-opacity:1"
       id="path6080"
       inkscape:connector-curvature="0" />
    <path
       d="m 103.47901,228.3342 c 0.26512,0.0821 0.52084,0.22288 0.78596,0.29795 0.25572,0.0657 0.48799,0.0423 0.7273,0.16658 l 0.26511,0.13139 h 0.488 l 0.18769,-0.39721 -0.0938,-0.48822 -0.68741,-0.69517 c -0.31439,-0.0985 -0.76015,-0.19942 -1.08392,-0.19942 h -0.49738 l -0.39649,0.0985 c -0.047,0.16657 -0.11731,0.52131 -0.0939,0.69516 z"
       style="fill:#000000;fill-opacity:1;fill-rule:nonzero;stroke:none;stroke-width:0.68696159;stroke-linecap:butt;stroke-linejoin:miter;stroke-miterlimit:3.86400008;stroke-dasharray:none;stroke-opacity:1"
       id="path6082"
       inkscape:connector-curvature="0" />
    <path
       d="m 92.818866,231.99248 c 0.16423,0.43028 0.52084,0.7449 0.68742,1.18363 0.27215,0.12434 0.61234,0.34769 0.79534,0.5877 0.34723,0.11496 0.72027,0.0985 1.08392,0.0985 0.32376,0 0.6053,-0.16658 0.88449,-0.28975 1.11676,-0.50489 1.70564,-1.43184 2.24291,-2.50783 0.18769,-0.36412 0.21115,-0.76156 0.52084,-1.05107 v -0.98491 c -0.16423,-0.20646 -0.31439,-0.5131 -0.488,-0.69516 -0.56307,-0.56283 -2.51623,-0.65386 -3.36037,-0.9849 -0.52084,0.14076 -0.97599,0.41385 -1.48276,0.59592 -0.1173,0.27309 -0.29796,0.57104 -0.49738,0.78618 0.0939,0.389 -0.38007,1.71316 -0.488,2.26778 z"
       style="fill:#000000;fill-opacity:1;fill-rule:nonzero;stroke:none;stroke-width:0.68696159;stroke-linecap:butt;stroke-linejoin:miter;stroke-miterlimit:3.86400008;stroke-dasharray:none;stroke-opacity:1"
       id="path6084"
       inkscape:connector-curvature="0" />
    <path
       d="m 100.0194,234.16097 c 0.16423,0.10792 0.34019,0.41385 0.3965,0.59592 0.76953,0.5877 2.01063,0.88566 2.96293,0.88566 0.50442,0 0.72731,-0.37256 1.08392,-0.59592 0.18769,-0.10792 1.47337,-0.85258 1.58129,-0.88566 0.305,-0.0985 0.68742,-0.0587 0.98538,-0.19942 0.28858,-0.13139 0.80238,-0.42207 0.99241,-0.69517 v -1.47337 c -1.10971,-0.869 -2.56573,-1.18363 -3.94807,-1.18363 -0.76953,0 -3.09549,0.99313 -3.6581,1.48159 -0.28153,0.24001 -0.579494,0.81106 -0.588884,1.17518 z"
       style="fill:#000000;fill-opacity:1;fill-rule:nonzero;stroke:none;stroke-width:0.68696159;stroke-linecap:butt;stroke-linejoin:miter;stroke-miterlimit:3.86400008;stroke-dasharray:none;stroke-opacity:1"
       id="path6086"
       inkscape:connector-curvature="0" />
  </g>
</svg>
