<?xml version="1.0" encoding="UTF-8" standalone="no"?>
<!-- Created with Inkscape (http://www.inkscape.org/) -->

<svg
   xmlns:dc="http://purl.org/dc/elements/1.1/"
   xmlns:cc="http://creativecommons.org/ns#"
   xmlns:rdf="http://www.w3.org/1999/02/22-rdf-syntax-ns#"
   xmlns:svg="http://www.w3.org/2000/svg"
   xmlns="http://www.w3.org/2000/svg"
   xmlns:sodipodi="http://sodipodi.sourceforge.net/DTD/sodipodi-0.dtd"
   xmlns:inkscape="http://www.inkscape.org/namespaces/inkscape"
   width="864.20001"
   height="755.22601"
   viewBox="0 0 228.65291 199.82022"
   version="1.1"
   id="svg4490"
   inkscape:version="0.92.1 r15371"
   sodipodi:docname="66.svg">
  <defs
     id="defs4484" />
  <sodipodi:namedview
     id="base"
     pagecolor="#ffffff"
     bordercolor="#666666"
     borderopacity="1.0"
     inkscape:pageopacity="0.0"
     inkscape:pageshadow="2"
     inkscape:zoom="0.7"
     inkscape:cx="475.14592"
     inkscape:cy="253.57141"
     inkscape:document-units="px"
     inkscape:current-layer="layer1"
     showgrid="false"
     units="px"
     inkscape:window-width="1920"
     inkscape:window-height="1057"
     inkscape:window-x="-8"
     inkscape:window-y="-8"
     inkscape:window-maximized="1"
     fit-margin-top="0"
     fit-margin-left="0"
     fit-margin-right="0"
     fit-margin-bottom="0" />
  <metadata
     id="metadata4487">
    <rdf:RDF>
      <cc:Work
         rdf:about="">
        <dc:format>image/svg+xml</dc:format>
        <dc:type
           rdf:resource="http://purl.org/dc/dcmitype/StillImage" />
        <dc:title></dc:title>
      </cc:Work>
    </rdf:RDF>
  </metadata>
  <g
     inkscape:label="Layer 1"
     inkscape:groupmode="layer"
     id="layer1"
     transform="translate(61.848825,167.22961)">
    <path
       sodipodi:nodetypes="cccc"
       inkscape:connector-curvature="0"
       id="path4488"
       d="M -55.128892,25.870187 52.477621,-160.5099 160.0842,25.870167 Z"
       style="fill:#e20a16;fill-opacity:1;stroke:#e20a16;stroke-width:13.22916698;stroke-linejoin:round;stroke-miterlimit:4;stroke-dasharray:none;stroke-opacity:1" />
    <path
       style="fill:#ffffff;fill-opacity:1;stroke:none;stroke-width:13.22916603;stroke-linejoin:round;stroke-miterlimit:4;stroke-dasharray:none;stroke-opacity:1"
       d="m 52.477701,-134.05139 -84.692893,146.692287 169.385732,1.1e-4 z"
       id="rect5050"
       inkscape:connector-curvature="0"
       sodipodi:nodetypes="cccc" />
    <path
       style="fill:#000000;fill-opacity:1;fill-rule:evenodd;stroke:none;stroke-width:3.7779963"
       d="M -0.31190902,-23.42167 -16.314033,4.7035203 H 12.852146 V 0.06039034 c 5.682126,0.25691 5.939279,4.64312996 13.423469,4.64312996 7.231007,0 7.487737,-4.64312996 13.166121,-4.64312996 5.644103,0 5.934983,4.58531996 13.035893,4.64053996 7.10092,-0.0552 7.3918,-4.64053996 13.0359,-4.64053996 5.67838,0 5.93511,4.64312996 13.16612,4.64312996 7.48419,0 7.74134,-4.38621996 13.42347,-4.64312996 V 4.7035203 H 121.2693 L 105.26718,-23.42167 H 92.103119 v 10.31594 c -7.48792,0 -7.48816,4.3857803 -13.42347,4.3857803 -5.68212,0 -5.68193,-4.3857803 -13.16612,-4.3857803 -7.42682,0 -7.48663,4.3164803 -13.0359,4.3826803 -5.54926,-0.0662 -5.60907,-4.3826803 -13.035893,-4.3826803 -7.484189,0 -7.483998,4.3857803 -13.166121,4.3857803 -5.935305,0 -5.935546,-4.3857803 -13.423469,-4.3857803 V -23.42167 Z M 12.852146,-8.7178897 c 5.678268,0 5.934924,4.3863 13.422953,4.3863 7.227268,0 7.484229,-4.3863 13.162502,-4.3863 5.644238,0 5.939088,4.33159 13.040028,4.38372 7.10095,-0.0521 7.3958,-4.38372 13.04004,-4.38372 5.67827,0 5.93523,4.3863 13.1625,4.3863 7.48803,0 7.74468,-4.3863 13.42295,-4.3863 v 4.3863 c -7.48417,0 -7.48391,4.38991004 -13.42295,4.38991004 -5.67829,0 -5.67833,-4.38991004 -13.1625,-4.38991004 -7.427,0 -7.48709,4.32061004 -13.04004,4.38681004 -5.55294,-0.0662 -5.61304,-4.38681004 -13.040028,-4.38681004 -7.484179,0 -7.484218,4.38991004 -13.162502,4.38991004 -5.939044,0 -5.938779,-4.38991004 -13.422953,-4.38991004 z"
       id="path8249"
       inkscape:connector-curvature="0"
       sodipodi:nodetypes="ccccsscssccccccsscssccccsscssccsscsscc" />
    <path
       style="fill:#000000;fill-opacity:1;stroke:none;stroke-width:4.8610239;stroke-linejoin:round;stroke-miterlimit:4;stroke-dasharray:none;stroke-opacity:1"
       d="m 4.844696,-31.42907 55.752423,-55.75242 8.0074,8.00739 -55.752427,55.75243 z"
       id="rect8299"
       inkscape:connector-curvature="0" />
  </g>
</svg>
